G75*
%MOIN*%
%OFA0B0*%
%FSLAX25Y25*%
%IPPOS*%
%LPD*%
%AMOC8*
5,1,8,0,0,1.08239X$1,22.5*
%
%ADD10C,0.00300*%
%ADD11C,0.00600*%
%ADD12C,0.00400*%
%ADD13C,0.00800*%
%ADD14R,0.40000X0.04000*%
%ADD15C,0.02400*%
%ADD16R,0.02400X0.03400*%
%ADD17C,0.00500*%
%ADD18C,0.01200*%
%ADD19C,0.00200*%
%ADD20R,0.09000X0.04500*%
%ADD21C,0.01600*%
%ADD22R,0.03400X0.03000*%
%ADD23C,0.00700*%
D10*
X0149638Y0183005D02*
X0150872Y0183005D01*
X0151489Y0183622D01*
X0152704Y0183622D02*
X0152704Y0184240D01*
X0153321Y0184857D01*
X0154555Y0184857D01*
X0155173Y0184240D01*
X0155173Y0183622D01*
X0154555Y0183005D01*
X0153321Y0183005D01*
X0152704Y0183622D01*
X0153321Y0184857D02*
X0152704Y0185474D01*
X0152704Y0186091D01*
X0153321Y0186708D01*
X0154555Y0186708D01*
X0155173Y0186091D01*
X0155173Y0185474D01*
X0154555Y0184857D01*
X0151489Y0186091D02*
X0150872Y0186708D01*
X0149638Y0186708D01*
X0149021Y0186091D01*
X0149021Y0183622D01*
X0149638Y0183005D01*
X0135978Y0242458D02*
X0136595Y0243075D01*
X0136595Y0244309D01*
X0135978Y0244927D01*
X0134743Y0246141D02*
X0134743Y0248610D01*
X0132892Y0247992D02*
X0134743Y0246141D01*
X0133509Y0244927D02*
X0132892Y0244309D01*
X0132892Y0243075D01*
X0133509Y0242458D01*
X0135978Y0242458D01*
X0136595Y0247992D02*
X0132892Y0247992D01*
X0122705Y0247376D02*
X0122705Y0248611D01*
X0122088Y0249228D01*
X0119619Y0249228D01*
X0119002Y0248611D01*
X0119002Y0247376D01*
X0119619Y0246759D01*
X0120236Y0246759D01*
X0120854Y0247376D01*
X0120854Y0249228D01*
X0122705Y0247376D02*
X0122088Y0246759D01*
X0122088Y0245545D02*
X0122705Y0244928D01*
X0122705Y0243693D01*
X0122088Y0243076D01*
X0119619Y0243076D01*
X0119002Y0243693D01*
X0119002Y0244928D01*
X0119619Y0245545D01*
X0075595Y0240173D02*
X0075595Y0237704D01*
X0075595Y0236489D02*
X0075595Y0234021D01*
X0075595Y0235255D02*
X0071892Y0235255D01*
X0073126Y0234021D01*
X0072509Y0232806D02*
X0071892Y0232189D01*
X0071892Y0230955D01*
X0072509Y0230338D01*
X0074978Y0230338D01*
X0075595Y0230955D01*
X0075595Y0232189D01*
X0074978Y0232806D01*
X0073126Y0237704D02*
X0071892Y0238938D01*
X0075595Y0238938D01*
X0186992Y0280975D02*
X0187609Y0280358D01*
X0190078Y0280358D01*
X0190695Y0280975D01*
X0190695Y0282209D01*
X0190078Y0282827D01*
X0190078Y0284041D02*
X0190695Y0284658D01*
X0190695Y0285892D01*
X0190078Y0286510D01*
X0189460Y0286510D01*
X0188843Y0285892D01*
X0188843Y0284041D01*
X0190078Y0284041D01*
X0188843Y0284041D02*
X0187609Y0285275D01*
X0186992Y0286510D01*
X0187609Y0282827D02*
X0186992Y0282209D01*
X0186992Y0280975D01*
X0203509Y0249610D02*
X0204126Y0249610D01*
X0204743Y0248992D01*
X0205360Y0249610D01*
X0205978Y0249610D01*
X0206595Y0248992D01*
X0206595Y0247758D01*
X0205978Y0247141D01*
X0205978Y0245927D02*
X0206595Y0245309D01*
X0206595Y0244075D01*
X0205978Y0243458D01*
X0203509Y0243458D01*
X0202892Y0244075D01*
X0202892Y0245309D01*
X0203509Y0245927D01*
X0203509Y0247141D02*
X0202892Y0247758D01*
X0202892Y0248992D01*
X0203509Y0249610D01*
X0204743Y0248992D02*
X0204743Y0248375D01*
X0259892Y0247992D02*
X0260509Y0248610D01*
X0261126Y0248610D01*
X0261743Y0247992D01*
X0262360Y0248610D01*
X0262978Y0248610D01*
X0263595Y0247992D01*
X0263595Y0246758D01*
X0262978Y0246141D01*
X0263595Y0244927D02*
X0263595Y0242458D01*
X0263595Y0243692D02*
X0259892Y0243692D01*
X0261126Y0242458D01*
X0260509Y0241243D02*
X0259892Y0240626D01*
X0259892Y0239392D01*
X0260509Y0238775D01*
X0262978Y0238775D01*
X0263595Y0239392D01*
X0263595Y0240626D01*
X0262978Y0241243D01*
X0260509Y0246141D02*
X0259892Y0246758D01*
X0259892Y0247992D01*
X0261743Y0247992D02*
X0261743Y0247375D01*
X0261202Y0228450D02*
X0261202Y0225314D01*
X0262770Y0225314D02*
X0259634Y0228450D01*
X0259634Y0226882D02*
X0262770Y0226882D01*
X0262770Y0228450D02*
X0259634Y0225314D01*
X0310509Y0171110D02*
X0312978Y0168641D01*
X0313595Y0169258D01*
X0313595Y0170492D01*
X0312978Y0171110D01*
X0310509Y0171110D01*
X0309892Y0170492D01*
X0309892Y0169258D01*
X0310509Y0168641D01*
X0312978Y0168641D01*
X0313595Y0167427D02*
X0313595Y0164958D01*
X0313595Y0166192D02*
X0309892Y0166192D01*
X0311126Y0164958D01*
X0310509Y0163743D02*
X0309892Y0163126D01*
X0309892Y0161892D01*
X0310509Y0161275D01*
X0312978Y0161275D01*
X0313595Y0161892D01*
X0313595Y0163126D01*
X0312978Y0163743D01*
X0316450Y0126153D02*
X0318302Y0126153D01*
X0318919Y0125536D01*
X0318919Y0123067D01*
X0318302Y0122450D01*
X0316450Y0122450D01*
X0316450Y0126153D01*
X0320133Y0126153D02*
X0322602Y0126153D01*
X0323816Y0126153D02*
X0323816Y0122450D01*
X0323816Y0123684D02*
X0325668Y0123684D01*
X0326285Y0124302D01*
X0326285Y0125536D01*
X0325668Y0126153D01*
X0323816Y0126153D01*
X0321368Y0126153D02*
X0321368Y0122450D01*
X0325051Y0123684D02*
X0326285Y0122450D01*
X0275285Y0123067D02*
X0275285Y0125536D01*
X0274668Y0126153D01*
X0272816Y0126153D01*
X0272816Y0122450D01*
X0274668Y0122450D01*
X0275285Y0123067D01*
X0271602Y0122450D02*
X0271602Y0126153D01*
X0269133Y0126153D02*
X0271602Y0122450D01*
X0269133Y0122450D02*
X0269133Y0126153D01*
X0267919Y0125536D02*
X0267302Y0126153D01*
X0266067Y0126153D01*
X0265450Y0125536D01*
X0265450Y0123067D01*
X0266067Y0122450D01*
X0267302Y0122450D01*
X0267919Y0123067D01*
X0267919Y0124302D01*
X0266684Y0124302D01*
D11*
X0048300Y0036500D02*
X0025800Y0009200D01*
X0025800Y0009300D02*
X0025743Y0009220D01*
X0025688Y0009138D01*
X0025638Y0009055D01*
X0025590Y0008969D01*
X0025546Y0008881D01*
X0025505Y0008792D01*
X0025468Y0008701D01*
X0025434Y0008609D01*
X0025404Y0008515D01*
X0025378Y0008420D01*
X0025356Y0008325D01*
X0025337Y0008229D01*
X0025322Y0008132D01*
X0025311Y0008034D01*
X0025304Y0007936D01*
X0025300Y0007838D01*
X0025301Y0007740D01*
X0025305Y0007642D01*
X0025313Y0007544D01*
X0025325Y0007446D01*
X0025341Y0007350D01*
X0025360Y0007253D01*
X0025384Y0007158D01*
X0025411Y0007064D01*
X0025442Y0006970D01*
X0025476Y0006878D01*
X0025514Y0006788D01*
X0025556Y0006699D01*
X0025600Y0006612D01*
X0025649Y0006526D01*
X0025700Y0006443D01*
X0025755Y0006361D01*
X0025813Y0006282D01*
X0025875Y0006205D01*
X0025939Y0006131D01*
X0026006Y0006059D01*
X0026075Y0005990D01*
X0026148Y0005924D01*
X0026223Y0005860D01*
X0026300Y0005800D01*
X0026380Y0005743D01*
X0026462Y0005688D01*
X0026545Y0005638D01*
X0026631Y0005590D01*
X0026719Y0005546D01*
X0026808Y0005505D01*
X0026899Y0005468D01*
X0026991Y0005434D01*
X0027085Y0005404D01*
X0027180Y0005378D01*
X0027275Y0005356D01*
X0027371Y0005337D01*
X0027468Y0005322D01*
X0027566Y0005311D01*
X0027664Y0005304D01*
X0027762Y0005300D01*
X0027860Y0005301D01*
X0027958Y0005305D01*
X0028056Y0005313D01*
X0028154Y0005325D01*
X0028250Y0005341D01*
X0028347Y0005360D01*
X0028442Y0005384D01*
X0028536Y0005411D01*
X0028630Y0005442D01*
X0028722Y0005476D01*
X0028812Y0005514D01*
X0028901Y0005556D01*
X0028988Y0005600D01*
X0029074Y0005649D01*
X0029157Y0005700D01*
X0029239Y0005755D01*
X0029318Y0005813D01*
X0029395Y0005875D01*
X0029469Y0005939D01*
X0029541Y0006006D01*
X0029610Y0006075D01*
X0029676Y0006148D01*
X0029740Y0006223D01*
X0029800Y0006300D01*
X0029600Y0006100D02*
X0047100Y0023100D01*
X0046800Y0022800D02*
X0046860Y0022877D01*
X0046924Y0022952D01*
X0046990Y0023025D01*
X0047059Y0023094D01*
X0047131Y0023161D01*
X0047205Y0023225D01*
X0047282Y0023287D01*
X0047361Y0023345D01*
X0047443Y0023400D01*
X0047526Y0023451D01*
X0047612Y0023500D01*
X0047699Y0023544D01*
X0047788Y0023586D01*
X0047878Y0023624D01*
X0047970Y0023658D01*
X0048064Y0023689D01*
X0048158Y0023716D01*
X0048253Y0023740D01*
X0048350Y0023759D01*
X0048446Y0023775D01*
X0048544Y0023787D01*
X0048642Y0023795D01*
X0048740Y0023799D01*
X0048838Y0023800D01*
X0048936Y0023796D01*
X0049034Y0023789D01*
X0049132Y0023778D01*
X0049229Y0023763D01*
X0049325Y0023744D01*
X0049420Y0023722D01*
X0049515Y0023696D01*
X0049609Y0023666D01*
X0049701Y0023632D01*
X0049792Y0023595D01*
X0049881Y0023554D01*
X0049969Y0023510D01*
X0050055Y0023462D01*
X0050138Y0023412D01*
X0050220Y0023357D01*
X0050300Y0023300D01*
X0050377Y0023240D01*
X0050452Y0023176D01*
X0050525Y0023110D01*
X0050594Y0023041D01*
X0050661Y0022969D01*
X0050725Y0022895D01*
X0050787Y0022818D01*
X0050845Y0022739D01*
X0050900Y0022657D01*
X0050951Y0022574D01*
X0051000Y0022488D01*
X0051044Y0022401D01*
X0051086Y0022312D01*
X0051124Y0022222D01*
X0051158Y0022130D01*
X0051189Y0022036D01*
X0051216Y0021942D01*
X0051240Y0021847D01*
X0051259Y0021750D01*
X0051275Y0021654D01*
X0051287Y0021556D01*
X0051295Y0021458D01*
X0051299Y0021360D01*
X0051300Y0021262D01*
X0051296Y0021164D01*
X0051289Y0021066D01*
X0051278Y0020968D01*
X0051263Y0020871D01*
X0051244Y0020775D01*
X0051222Y0020680D01*
X0051196Y0020585D01*
X0051166Y0020491D01*
X0051132Y0020399D01*
X0051095Y0020308D01*
X0051054Y0020219D01*
X0051010Y0020131D01*
X0050962Y0020045D01*
X0050912Y0019962D01*
X0050857Y0019880D01*
X0050800Y0019800D01*
X0051000Y0020200D02*
X0047100Y0008300D01*
X0047144Y0008443D02*
X0047129Y0008342D01*
X0047118Y0008240D01*
X0047111Y0008138D01*
X0047107Y0008036D01*
X0047108Y0007933D01*
X0047112Y0007831D01*
X0047121Y0007729D01*
X0047133Y0007627D01*
X0047149Y0007526D01*
X0047169Y0007426D01*
X0047193Y0007326D01*
X0047220Y0007228D01*
X0047251Y0007130D01*
X0047286Y0007034D01*
X0047325Y0006939D01*
X0047367Y0006846D01*
X0047412Y0006754D01*
X0047461Y0006665D01*
X0047514Y0006577D01*
X0047570Y0006491D01*
X0047629Y0006407D01*
X0047691Y0006326D01*
X0047756Y0006247D01*
X0047824Y0006170D01*
X0047895Y0006097D01*
X0047968Y0006026D01*
X0048045Y0005958D01*
X0048124Y0005892D01*
X0048205Y0005830D01*
X0048289Y0005771D01*
X0048374Y0005715D01*
X0048462Y0005663D01*
X0048552Y0005614D01*
X0048644Y0005568D01*
X0048737Y0005526D01*
X0048832Y0005487D01*
X0048928Y0005452D01*
X0049025Y0005421D01*
X0049124Y0005393D01*
X0049223Y0005369D01*
X0049324Y0005349D01*
X0049425Y0005333D01*
X0049526Y0005321D01*
X0049628Y0005312D01*
X0049731Y0005308D01*
X0049833Y0005307D01*
X0049935Y0005310D01*
X0050037Y0005317D01*
X0050139Y0005328D01*
X0050240Y0005343D01*
X0050341Y0005362D01*
X0050441Y0005384D01*
X0050540Y0005411D01*
X0050638Y0005441D01*
X0050734Y0005474D01*
X0050829Y0005512D01*
X0050923Y0005552D01*
X0051015Y0005597D01*
X0051106Y0005645D01*
X0051194Y0005696D01*
X0051281Y0005751D01*
X0051365Y0005809D01*
X0051447Y0005870D01*
X0051527Y0005934D01*
X0051604Y0006001D01*
X0051679Y0006071D01*
X0051751Y0006144D01*
X0051820Y0006219D01*
X0051886Y0006297D01*
X0051950Y0006378D01*
X0052010Y0006461D01*
X0052067Y0006546D01*
X0052120Y0006633D01*
X0052170Y0006722D01*
X0052217Y0006813D01*
X0052261Y0006906D01*
X0052300Y0007000D01*
X0061900Y0030300D01*
X0061799Y0030100D02*
X0061839Y0030194D01*
X0061883Y0030287D01*
X0061929Y0030378D01*
X0061980Y0030467D01*
X0062033Y0030554D01*
X0062090Y0030639D01*
X0062150Y0030722D01*
X0062213Y0030803D01*
X0062280Y0030881D01*
X0062349Y0030956D01*
X0062421Y0031029D01*
X0062495Y0031099D01*
X0062573Y0031166D01*
X0062652Y0031230D01*
X0062735Y0031291D01*
X0062819Y0031349D01*
X0062905Y0031404D01*
X0062994Y0031455D01*
X0063084Y0031503D01*
X0063177Y0031547D01*
X0063270Y0031588D01*
X0063366Y0031626D01*
X0063462Y0031659D01*
X0063560Y0031689D01*
X0063659Y0031716D01*
X0063759Y0031738D01*
X0063860Y0031757D01*
X0063961Y0031772D01*
X0064063Y0031783D01*
X0064165Y0031790D01*
X0064267Y0031793D01*
X0064369Y0031792D01*
X0064472Y0031788D01*
X0064574Y0031779D01*
X0064675Y0031767D01*
X0064776Y0031751D01*
X0064877Y0031731D01*
X0064976Y0031707D01*
X0065075Y0031679D01*
X0065172Y0031648D01*
X0065268Y0031613D01*
X0065363Y0031574D01*
X0065456Y0031532D01*
X0065548Y0031486D01*
X0065638Y0031437D01*
X0065726Y0031385D01*
X0065811Y0031329D01*
X0065895Y0031270D01*
X0065976Y0031208D01*
X0066055Y0031142D01*
X0066131Y0031074D01*
X0066205Y0031003D01*
X0066276Y0030930D01*
X0066344Y0030853D01*
X0066409Y0030774D01*
X0066471Y0030693D01*
X0066530Y0030609D01*
X0066586Y0030523D01*
X0066639Y0030435D01*
X0066688Y0030346D01*
X0066733Y0030254D01*
X0066775Y0030161D01*
X0066814Y0030066D01*
X0066849Y0029970D01*
X0066880Y0029872D01*
X0066907Y0029774D01*
X0066931Y0029674D01*
X0066951Y0029574D01*
X0066967Y0029473D01*
X0066979Y0029371D01*
X0066988Y0029269D01*
X0066992Y0029167D01*
X0066993Y0029064D01*
X0066989Y0028962D01*
X0066982Y0028860D01*
X0066971Y0028758D01*
X0066956Y0028657D01*
X0067000Y0028900D02*
X0069800Y0007600D01*
X0069800Y0007800D02*
X0069802Y0007702D01*
X0069808Y0007604D01*
X0069817Y0007506D01*
X0069831Y0007409D01*
X0069848Y0007312D01*
X0069869Y0007216D01*
X0069894Y0007121D01*
X0069922Y0007027D01*
X0069955Y0006935D01*
X0069990Y0006843D01*
X0070030Y0006753D01*
X0070072Y0006665D01*
X0070119Y0006578D01*
X0070168Y0006494D01*
X0070221Y0006411D01*
X0070277Y0006331D01*
X0070337Y0006252D01*
X0070399Y0006176D01*
X0070464Y0006103D01*
X0070532Y0006032D01*
X0070603Y0005964D01*
X0070676Y0005899D01*
X0070752Y0005837D01*
X0070831Y0005777D01*
X0070911Y0005721D01*
X0070994Y0005668D01*
X0071078Y0005619D01*
X0071165Y0005572D01*
X0071253Y0005530D01*
X0071343Y0005490D01*
X0071435Y0005455D01*
X0071527Y0005422D01*
X0071621Y0005394D01*
X0071716Y0005369D01*
X0071812Y0005348D01*
X0071909Y0005331D01*
X0072006Y0005317D01*
X0072104Y0005308D01*
X0072202Y0005302D01*
X0072300Y0005300D01*
X0072398Y0005302D01*
X0072496Y0005308D01*
X0072594Y0005317D01*
X0072691Y0005331D01*
X0072788Y0005348D01*
X0072884Y0005369D01*
X0072979Y0005394D01*
X0073073Y0005422D01*
X0073165Y0005455D01*
X0073257Y0005490D01*
X0073347Y0005530D01*
X0073435Y0005572D01*
X0073522Y0005619D01*
X0073606Y0005668D01*
X0073689Y0005721D01*
X0073769Y0005777D01*
X0073848Y0005837D01*
X0073924Y0005899D01*
X0073997Y0005964D01*
X0074068Y0006032D01*
X0074136Y0006103D01*
X0074201Y0006176D01*
X0074263Y0006252D01*
X0074323Y0006331D01*
X0074379Y0006411D01*
X0074432Y0006494D01*
X0074481Y0006578D01*
X0074528Y0006665D01*
X0074570Y0006753D01*
X0074610Y0006843D01*
X0074645Y0006935D01*
X0074678Y0007027D01*
X0074706Y0007121D01*
X0074731Y0007216D01*
X0074752Y0007312D01*
X0074769Y0007409D01*
X0074783Y0007506D01*
X0074792Y0007604D01*
X0074798Y0007702D01*
X0074800Y0007800D01*
X0074800Y0051300D01*
X0141800Y0051300D01*
X0141800Y0007800D01*
X0141802Y0007702D01*
X0141808Y0007604D01*
X0141817Y0007506D01*
X0141831Y0007409D01*
X0141848Y0007312D01*
X0141869Y0007216D01*
X0141894Y0007121D01*
X0141922Y0007027D01*
X0141955Y0006935D01*
X0141990Y0006843D01*
X0142030Y0006753D01*
X0142072Y0006665D01*
X0142119Y0006578D01*
X0142168Y0006494D01*
X0142221Y0006411D01*
X0142277Y0006331D01*
X0142337Y0006252D01*
X0142399Y0006176D01*
X0142464Y0006103D01*
X0142532Y0006032D01*
X0142603Y0005964D01*
X0142676Y0005899D01*
X0142752Y0005837D01*
X0142831Y0005777D01*
X0142911Y0005721D01*
X0142994Y0005668D01*
X0143078Y0005619D01*
X0143165Y0005572D01*
X0143253Y0005530D01*
X0143343Y0005490D01*
X0143435Y0005455D01*
X0143527Y0005422D01*
X0143621Y0005394D01*
X0143716Y0005369D01*
X0143812Y0005348D01*
X0143909Y0005331D01*
X0144006Y0005317D01*
X0144104Y0005308D01*
X0144202Y0005302D01*
X0144300Y0005300D01*
X0144398Y0005302D01*
X0144496Y0005308D01*
X0144594Y0005317D01*
X0144691Y0005331D01*
X0144788Y0005348D01*
X0144884Y0005369D01*
X0144979Y0005394D01*
X0145073Y0005422D01*
X0145165Y0005455D01*
X0145257Y0005490D01*
X0145347Y0005530D01*
X0145435Y0005572D01*
X0145522Y0005619D01*
X0145606Y0005668D01*
X0145689Y0005721D01*
X0145769Y0005777D01*
X0145848Y0005837D01*
X0145924Y0005899D01*
X0145997Y0005964D01*
X0146068Y0006032D01*
X0146136Y0006103D01*
X0146201Y0006176D01*
X0146263Y0006252D01*
X0146323Y0006331D01*
X0146379Y0006411D01*
X0146432Y0006494D01*
X0146481Y0006578D01*
X0146528Y0006665D01*
X0146570Y0006753D01*
X0146610Y0006843D01*
X0146645Y0006935D01*
X0146678Y0007027D01*
X0146706Y0007121D01*
X0146731Y0007216D01*
X0146752Y0007312D01*
X0146769Y0007409D01*
X0146783Y0007506D01*
X0146792Y0007604D01*
X0146798Y0007702D01*
X0146800Y0007800D01*
X0146800Y0007600D02*
X0149600Y0028900D01*
X0149644Y0028657D02*
X0149629Y0028758D01*
X0149618Y0028860D01*
X0149611Y0028962D01*
X0149607Y0029064D01*
X0149608Y0029167D01*
X0149612Y0029269D01*
X0149621Y0029371D01*
X0149633Y0029473D01*
X0149649Y0029574D01*
X0149669Y0029674D01*
X0149693Y0029774D01*
X0149720Y0029872D01*
X0149751Y0029970D01*
X0149786Y0030066D01*
X0149825Y0030161D01*
X0149867Y0030254D01*
X0149912Y0030346D01*
X0149961Y0030435D01*
X0150014Y0030523D01*
X0150070Y0030609D01*
X0150129Y0030693D01*
X0150191Y0030774D01*
X0150256Y0030853D01*
X0150324Y0030930D01*
X0150395Y0031003D01*
X0150469Y0031074D01*
X0150545Y0031142D01*
X0150624Y0031208D01*
X0150705Y0031270D01*
X0150789Y0031329D01*
X0150874Y0031385D01*
X0150962Y0031437D01*
X0151052Y0031486D01*
X0151144Y0031532D01*
X0151237Y0031574D01*
X0151332Y0031613D01*
X0151428Y0031648D01*
X0151525Y0031679D01*
X0151624Y0031707D01*
X0151723Y0031731D01*
X0151824Y0031751D01*
X0151925Y0031767D01*
X0152026Y0031779D01*
X0152128Y0031788D01*
X0152231Y0031792D01*
X0152333Y0031793D01*
X0152435Y0031790D01*
X0152537Y0031783D01*
X0152639Y0031772D01*
X0152740Y0031757D01*
X0152841Y0031738D01*
X0152941Y0031716D01*
X0153040Y0031689D01*
X0153138Y0031659D01*
X0153234Y0031626D01*
X0153330Y0031588D01*
X0153423Y0031547D01*
X0153516Y0031503D01*
X0153606Y0031455D01*
X0153695Y0031404D01*
X0153781Y0031349D01*
X0153865Y0031291D01*
X0153948Y0031230D01*
X0154027Y0031166D01*
X0154105Y0031099D01*
X0154179Y0031029D01*
X0154251Y0030956D01*
X0154320Y0030881D01*
X0154387Y0030803D01*
X0154450Y0030722D01*
X0154510Y0030639D01*
X0154567Y0030554D01*
X0154620Y0030467D01*
X0154671Y0030378D01*
X0154717Y0030287D01*
X0154761Y0030194D01*
X0154801Y0030100D01*
X0154700Y0030300D02*
X0164300Y0007000D01*
X0164340Y0006906D01*
X0164384Y0006814D01*
X0164430Y0006723D01*
X0164481Y0006633D01*
X0164534Y0006546D01*
X0164591Y0006461D01*
X0164651Y0006378D01*
X0164714Y0006298D01*
X0164781Y0006220D01*
X0164850Y0006144D01*
X0164922Y0006072D01*
X0164996Y0006002D01*
X0165073Y0005935D01*
X0165153Y0005871D01*
X0165235Y0005809D01*
X0165320Y0005752D01*
X0165406Y0005697D01*
X0165495Y0005646D01*
X0165585Y0005598D01*
X0165677Y0005553D01*
X0165771Y0005512D01*
X0165866Y0005475D01*
X0165963Y0005441D01*
X0166061Y0005412D01*
X0166159Y0005385D01*
X0166259Y0005363D01*
X0166360Y0005344D01*
X0166461Y0005329D01*
X0166563Y0005318D01*
X0166665Y0005311D01*
X0166767Y0005308D01*
X0166869Y0005309D01*
X0166972Y0005313D01*
X0167074Y0005322D01*
X0167175Y0005334D01*
X0167276Y0005350D01*
X0167377Y0005370D01*
X0167476Y0005394D01*
X0167575Y0005422D01*
X0167672Y0005453D01*
X0167768Y0005488D01*
X0167863Y0005527D01*
X0167956Y0005569D01*
X0168048Y0005615D01*
X0168137Y0005664D01*
X0168225Y0005716D01*
X0168311Y0005772D01*
X0168394Y0005831D01*
X0168476Y0005893D01*
X0168555Y0005958D01*
X0168631Y0006026D01*
X0168705Y0006097D01*
X0168775Y0006171D01*
X0168844Y0006248D01*
X0168909Y0006327D01*
X0168971Y0006408D01*
X0169030Y0006491D01*
X0169085Y0006577D01*
X0169138Y0006665D01*
X0169187Y0006755D01*
X0169232Y0006847D01*
X0169274Y0006940D01*
X0169313Y0007035D01*
X0169348Y0007131D01*
X0169379Y0007228D01*
X0169406Y0007327D01*
X0169430Y0007426D01*
X0169450Y0007527D01*
X0169466Y0007628D01*
X0169478Y0007729D01*
X0169487Y0007831D01*
X0169491Y0007933D01*
X0169492Y0008036D01*
X0169488Y0008138D01*
X0169481Y0008240D01*
X0169470Y0008342D01*
X0169455Y0008443D01*
X0169500Y0008300D02*
X0165600Y0020200D01*
X0165800Y0019800D02*
X0165743Y0019880D01*
X0165688Y0019962D01*
X0165638Y0020045D01*
X0165590Y0020131D01*
X0165546Y0020219D01*
X0165505Y0020308D01*
X0165468Y0020399D01*
X0165434Y0020491D01*
X0165404Y0020585D01*
X0165378Y0020680D01*
X0165356Y0020775D01*
X0165337Y0020871D01*
X0165322Y0020968D01*
X0165311Y0021066D01*
X0165304Y0021164D01*
X0165300Y0021262D01*
X0165301Y0021360D01*
X0165305Y0021458D01*
X0165313Y0021556D01*
X0165325Y0021654D01*
X0165341Y0021750D01*
X0165360Y0021847D01*
X0165384Y0021942D01*
X0165411Y0022036D01*
X0165442Y0022130D01*
X0165476Y0022222D01*
X0165514Y0022312D01*
X0165556Y0022401D01*
X0165600Y0022488D01*
X0165649Y0022574D01*
X0165700Y0022657D01*
X0165755Y0022739D01*
X0165813Y0022818D01*
X0165875Y0022895D01*
X0165939Y0022969D01*
X0166006Y0023041D01*
X0166075Y0023110D01*
X0166148Y0023176D01*
X0166223Y0023240D01*
X0166300Y0023300D01*
X0166380Y0023357D01*
X0166462Y0023412D01*
X0166545Y0023462D01*
X0166631Y0023510D01*
X0166719Y0023554D01*
X0166808Y0023595D01*
X0166899Y0023632D01*
X0166991Y0023666D01*
X0167085Y0023696D01*
X0167180Y0023722D01*
X0167275Y0023744D01*
X0167371Y0023763D01*
X0167468Y0023778D01*
X0167566Y0023789D01*
X0167664Y0023796D01*
X0167762Y0023800D01*
X0167860Y0023799D01*
X0167958Y0023795D01*
X0168056Y0023787D01*
X0168154Y0023775D01*
X0168250Y0023759D01*
X0168347Y0023740D01*
X0168442Y0023716D01*
X0168536Y0023689D01*
X0168630Y0023658D01*
X0168722Y0023624D01*
X0168812Y0023586D01*
X0168901Y0023544D01*
X0168988Y0023500D01*
X0169074Y0023451D01*
X0169157Y0023400D01*
X0169239Y0023345D01*
X0169318Y0023287D01*
X0169395Y0023225D01*
X0169469Y0023161D01*
X0169541Y0023094D01*
X0169610Y0023025D01*
X0169676Y0022952D01*
X0169740Y0022877D01*
X0169800Y0022800D01*
X0169500Y0023100D02*
X0187000Y0006100D01*
X0186800Y0006300D02*
X0186860Y0006223D01*
X0186924Y0006148D01*
X0186990Y0006075D01*
X0187059Y0006006D01*
X0187131Y0005939D01*
X0187205Y0005875D01*
X0187282Y0005813D01*
X0187361Y0005755D01*
X0187443Y0005700D01*
X0187526Y0005649D01*
X0187612Y0005600D01*
X0187699Y0005556D01*
X0187788Y0005514D01*
X0187878Y0005476D01*
X0187970Y0005442D01*
X0188064Y0005411D01*
X0188158Y0005384D01*
X0188253Y0005360D01*
X0188350Y0005341D01*
X0188446Y0005325D01*
X0188544Y0005313D01*
X0188642Y0005305D01*
X0188740Y0005301D01*
X0188838Y0005300D01*
X0188936Y0005304D01*
X0189034Y0005311D01*
X0189132Y0005322D01*
X0189229Y0005337D01*
X0189325Y0005356D01*
X0189420Y0005378D01*
X0189515Y0005404D01*
X0189609Y0005434D01*
X0189701Y0005468D01*
X0189792Y0005505D01*
X0189881Y0005546D01*
X0189969Y0005590D01*
X0190055Y0005638D01*
X0190138Y0005688D01*
X0190220Y0005743D01*
X0190300Y0005800D01*
X0190377Y0005860D01*
X0190452Y0005924D01*
X0190525Y0005990D01*
X0190594Y0006059D01*
X0190661Y0006131D01*
X0190725Y0006205D01*
X0190787Y0006282D01*
X0190845Y0006361D01*
X0190900Y0006443D01*
X0190951Y0006526D01*
X0191000Y0006612D01*
X0191044Y0006699D01*
X0191086Y0006788D01*
X0191124Y0006878D01*
X0191158Y0006970D01*
X0191189Y0007064D01*
X0191216Y0007158D01*
X0191240Y0007253D01*
X0191259Y0007350D01*
X0191275Y0007446D01*
X0191287Y0007544D01*
X0191295Y0007642D01*
X0191299Y0007740D01*
X0191300Y0007838D01*
X0191296Y0007936D01*
X0191289Y0008034D01*
X0191278Y0008132D01*
X0191263Y0008229D01*
X0191244Y0008325D01*
X0191222Y0008420D01*
X0191196Y0008515D01*
X0191166Y0008609D01*
X0191132Y0008701D01*
X0191095Y0008792D01*
X0191054Y0008881D01*
X0191010Y0008969D01*
X0190962Y0009055D01*
X0190912Y0009138D01*
X0190857Y0009220D01*
X0190800Y0009300D01*
X0190800Y0009200D02*
X0168300Y0036500D01*
X0168300Y0036400D02*
X0168247Y0036484D01*
X0168196Y0036569D01*
X0168150Y0036657D01*
X0168106Y0036747D01*
X0168067Y0036838D01*
X0168031Y0036930D01*
X0167998Y0037024D01*
X0167970Y0037119D01*
X0167945Y0037216D01*
X0167923Y0037313D01*
X0167906Y0037411D01*
X0167893Y0037509D01*
X0167883Y0037608D01*
X0167878Y0037707D01*
X0167876Y0037807D01*
X0167878Y0037906D01*
X0167884Y0038005D01*
X0167894Y0038104D01*
X0167908Y0038203D01*
X0167926Y0038300D01*
X0167948Y0038397D01*
X0167973Y0038493D01*
X0168002Y0038588D01*
X0168035Y0038682D01*
X0168072Y0038775D01*
X0168112Y0038866D01*
X0168156Y0038955D01*
X0168203Y0039042D01*
X0168254Y0039128D01*
X0168308Y0039211D01*
X0168365Y0039292D01*
X0168425Y0039371D01*
X0168489Y0039448D01*
X0168555Y0039522D01*
X0168624Y0039593D01*
X0168696Y0039662D01*
X0168771Y0039727D01*
X0168848Y0039790D01*
X0168928Y0039850D01*
X0169009Y0039906D01*
X0169094Y0039959D01*
X0169180Y0040009D01*
X0169267Y0040055D01*
X0169357Y0040098D01*
X0169449Y0040137D01*
X0169541Y0040173D01*
X0169635Y0040205D01*
X0169731Y0040233D01*
X0169827Y0040257D01*
X0169924Y0040278D01*
X0170022Y0040295D01*
X0170121Y0040308D01*
X0170220Y0040317D01*
X0170319Y0040322D01*
X0170418Y0040323D01*
X0170518Y0040320D01*
X0170617Y0040314D01*
X0170716Y0040303D01*
X0170814Y0040289D01*
X0170912Y0040270D01*
X0171009Y0040248D01*
X0171105Y0040222D01*
X0171200Y0040193D01*
X0171293Y0040159D01*
X0171385Y0040122D01*
X0171476Y0040082D01*
X0171565Y0040037D01*
X0171652Y0039990D01*
X0171738Y0039939D01*
X0171821Y0039884D01*
X0171600Y0040000D02*
X0187800Y0031800D01*
X0187892Y0031762D01*
X0187985Y0031728D01*
X0188079Y0031698D01*
X0188175Y0031671D01*
X0188272Y0031648D01*
X0188369Y0031629D01*
X0188467Y0031614D01*
X0188566Y0031603D01*
X0188664Y0031596D01*
X0188764Y0031592D01*
X0188863Y0031593D01*
X0188962Y0031597D01*
X0189061Y0031606D01*
X0189159Y0031618D01*
X0189257Y0031634D01*
X0189354Y0031654D01*
X0189451Y0031678D01*
X0189546Y0031705D01*
X0189640Y0031737D01*
X0189733Y0031772D01*
X0189824Y0031811D01*
X0189914Y0031853D01*
X0190002Y0031899D01*
X0190088Y0031948D01*
X0190172Y0032001D01*
X0190254Y0032056D01*
X0190334Y0032116D01*
X0190411Y0032178D01*
X0190486Y0032243D01*
X0190558Y0032311D01*
X0190627Y0032382D01*
X0190694Y0032456D01*
X0190757Y0032532D01*
X0190818Y0032610D01*
X0190875Y0032691D01*
X0190929Y0032775D01*
X0190980Y0032860D01*
X0191027Y0032947D01*
X0191071Y0033036D01*
X0191111Y0033127D01*
X0191148Y0033219D01*
X0191181Y0033312D01*
X0191210Y0033407D01*
X0191236Y0033503D01*
X0191258Y0033600D01*
X0191275Y0033697D01*
X0191289Y0033795D01*
X0191300Y0033894D01*
X0191306Y0033993D01*
X0191308Y0034092D01*
X0191306Y0034192D01*
X0191301Y0034291D01*
X0191291Y0034389D01*
X0191278Y0034488D01*
X0191261Y0034585D01*
X0191239Y0034682D01*
X0191215Y0034778D01*
X0191186Y0034873D01*
X0191153Y0034967D01*
X0191117Y0035059D01*
X0191078Y0035150D01*
X0191034Y0035239D01*
X0190987Y0035327D01*
X0190937Y0035412D01*
X0190884Y0035496D01*
X0190827Y0035577D01*
X0190767Y0035656D01*
X0190704Y0035733D01*
X0190638Y0035807D01*
X0190569Y0035878D01*
X0190497Y0035947D01*
X0190423Y0036012D01*
X0190346Y0036075D01*
X0190266Y0036135D01*
X0190185Y0036191D01*
X0190101Y0036244D01*
X0190015Y0036294D01*
X0189928Y0036340D01*
X0189838Y0036383D01*
X0189900Y0036300D02*
X0166800Y0049300D01*
X0166800Y0060300D02*
X0189900Y0073300D01*
X0189838Y0073217D02*
X0189928Y0073260D01*
X0190015Y0073306D01*
X0190101Y0073356D01*
X0190185Y0073409D01*
X0190266Y0073465D01*
X0190346Y0073525D01*
X0190423Y0073588D01*
X0190497Y0073653D01*
X0190569Y0073722D01*
X0190638Y0073793D01*
X0190704Y0073867D01*
X0190767Y0073944D01*
X0190827Y0074023D01*
X0190884Y0074104D01*
X0190937Y0074188D01*
X0190987Y0074273D01*
X0191034Y0074361D01*
X0191078Y0074450D01*
X0191117Y0074541D01*
X0191153Y0074633D01*
X0191186Y0074727D01*
X0191215Y0074822D01*
X0191239Y0074918D01*
X0191261Y0075015D01*
X0191278Y0075112D01*
X0191291Y0075211D01*
X0191301Y0075309D01*
X0191306Y0075408D01*
X0191308Y0075508D01*
X0191306Y0075607D01*
X0191300Y0075706D01*
X0191289Y0075805D01*
X0191275Y0075903D01*
X0191258Y0076000D01*
X0191236Y0076097D01*
X0191210Y0076193D01*
X0191181Y0076288D01*
X0191148Y0076381D01*
X0191111Y0076473D01*
X0191071Y0076564D01*
X0191027Y0076653D01*
X0190980Y0076740D01*
X0190929Y0076825D01*
X0190875Y0076909D01*
X0190818Y0076990D01*
X0190757Y0077068D01*
X0190694Y0077144D01*
X0190627Y0077218D01*
X0190558Y0077289D01*
X0190486Y0077357D01*
X0190411Y0077422D01*
X0190334Y0077484D01*
X0190254Y0077544D01*
X0190172Y0077599D01*
X0190088Y0077652D01*
X0190002Y0077701D01*
X0189914Y0077747D01*
X0189824Y0077789D01*
X0189733Y0077828D01*
X0189640Y0077863D01*
X0189546Y0077895D01*
X0189451Y0077922D01*
X0189354Y0077946D01*
X0189257Y0077966D01*
X0189159Y0077982D01*
X0189061Y0077994D01*
X0188962Y0078003D01*
X0188863Y0078007D01*
X0188764Y0078008D01*
X0188664Y0078004D01*
X0188566Y0077997D01*
X0188467Y0077986D01*
X0188369Y0077971D01*
X0188272Y0077952D01*
X0188175Y0077929D01*
X0188079Y0077902D01*
X0187985Y0077872D01*
X0187892Y0077838D01*
X0187800Y0077800D01*
X0171600Y0069600D01*
X0171822Y0069715D02*
X0171739Y0069660D01*
X0171653Y0069609D01*
X0171566Y0069562D01*
X0171477Y0069517D01*
X0171386Y0069477D01*
X0171294Y0069440D01*
X0171200Y0069406D01*
X0171106Y0069377D01*
X0171010Y0069351D01*
X0170913Y0069329D01*
X0170815Y0069310D01*
X0170717Y0069296D01*
X0170618Y0069285D01*
X0170519Y0069279D01*
X0170419Y0069276D01*
X0170320Y0069277D01*
X0170220Y0069282D01*
X0170121Y0069291D01*
X0170023Y0069304D01*
X0169925Y0069321D01*
X0169828Y0069342D01*
X0169731Y0069366D01*
X0169636Y0069394D01*
X0169542Y0069426D01*
X0169449Y0069462D01*
X0169358Y0069501D01*
X0169268Y0069544D01*
X0169180Y0069590D01*
X0169094Y0069640D01*
X0169010Y0069693D01*
X0168928Y0069750D01*
X0168848Y0069809D01*
X0168771Y0069872D01*
X0168697Y0069938D01*
X0168625Y0070006D01*
X0168555Y0070077D01*
X0168489Y0070151D01*
X0168425Y0070228D01*
X0168365Y0070307D01*
X0168308Y0070388D01*
X0168254Y0070472D01*
X0168203Y0070557D01*
X0168156Y0070645D01*
X0168112Y0070734D01*
X0168072Y0070825D01*
X0168035Y0070917D01*
X0168002Y0071011D01*
X0167973Y0071106D01*
X0167948Y0071202D01*
X0167926Y0071299D01*
X0167908Y0071397D01*
X0167894Y0071496D01*
X0167884Y0071594D01*
X0167878Y0071694D01*
X0167876Y0071793D01*
X0167878Y0071892D01*
X0167883Y0071992D01*
X0167893Y0072091D01*
X0167906Y0072189D01*
X0167923Y0072287D01*
X0167945Y0072384D01*
X0167969Y0072481D01*
X0167998Y0072576D01*
X0168031Y0072670D01*
X0168067Y0072762D01*
X0168106Y0072853D01*
X0168150Y0072943D01*
X0168196Y0073031D01*
X0168247Y0073117D01*
X0168300Y0073200D01*
X0168300Y0073100D02*
X0190800Y0100400D01*
X0190800Y0100300D02*
X0190857Y0100380D01*
X0190912Y0100462D01*
X0190962Y0100545D01*
X0191010Y0100631D01*
X0191054Y0100719D01*
X0191095Y0100808D01*
X0191132Y0100899D01*
X0191166Y0100991D01*
X0191196Y0101085D01*
X0191222Y0101180D01*
X0191244Y0101275D01*
X0191263Y0101371D01*
X0191278Y0101468D01*
X0191289Y0101566D01*
X0191296Y0101664D01*
X0191300Y0101762D01*
X0191299Y0101860D01*
X0191295Y0101958D01*
X0191287Y0102056D01*
X0191275Y0102154D01*
X0191259Y0102250D01*
X0191240Y0102347D01*
X0191216Y0102442D01*
X0191189Y0102536D01*
X0191158Y0102630D01*
X0191124Y0102722D01*
X0191086Y0102812D01*
X0191044Y0102901D01*
X0191000Y0102988D01*
X0190951Y0103074D01*
X0190900Y0103157D01*
X0190845Y0103239D01*
X0190787Y0103318D01*
X0190725Y0103395D01*
X0190661Y0103469D01*
X0190594Y0103541D01*
X0190525Y0103610D01*
X0190452Y0103676D01*
X0190377Y0103740D01*
X0190300Y0103800D01*
X0190220Y0103857D01*
X0190138Y0103912D01*
X0190055Y0103962D01*
X0189969Y0104010D01*
X0189881Y0104054D01*
X0189792Y0104095D01*
X0189701Y0104132D01*
X0189609Y0104166D01*
X0189515Y0104196D01*
X0189420Y0104222D01*
X0189325Y0104244D01*
X0189229Y0104263D01*
X0189132Y0104278D01*
X0189034Y0104289D01*
X0188936Y0104296D01*
X0188838Y0104300D01*
X0188740Y0104299D01*
X0188642Y0104295D01*
X0188544Y0104287D01*
X0188446Y0104275D01*
X0188350Y0104259D01*
X0188253Y0104240D01*
X0188158Y0104216D01*
X0188064Y0104189D01*
X0187970Y0104158D01*
X0187878Y0104124D01*
X0187788Y0104086D01*
X0187699Y0104044D01*
X0187612Y0104000D01*
X0187526Y0103951D01*
X0187443Y0103900D01*
X0187361Y0103845D01*
X0187282Y0103787D01*
X0187205Y0103725D01*
X0187131Y0103661D01*
X0187059Y0103594D01*
X0186990Y0103525D01*
X0186924Y0103452D01*
X0186860Y0103377D01*
X0186800Y0103300D01*
X0187000Y0103500D02*
X0169500Y0086500D01*
X0169800Y0086800D02*
X0169740Y0086723D01*
X0169676Y0086648D01*
X0169610Y0086575D01*
X0169541Y0086506D01*
X0169469Y0086439D01*
X0169395Y0086375D01*
X0169318Y0086313D01*
X0169239Y0086255D01*
X0169157Y0086200D01*
X0169074Y0086149D01*
X0168988Y0086100D01*
X0168901Y0086056D01*
X0168812Y0086014D01*
X0168722Y0085976D01*
X0168630Y0085942D01*
X0168536Y0085911D01*
X0168442Y0085884D01*
X0168347Y0085860D01*
X0168250Y0085841D01*
X0168154Y0085825D01*
X0168056Y0085813D01*
X0167958Y0085805D01*
X0167860Y0085801D01*
X0167762Y0085800D01*
X0167664Y0085804D01*
X0167566Y0085811D01*
X0167468Y0085822D01*
X0167371Y0085837D01*
X0167275Y0085856D01*
X0167180Y0085878D01*
X0167085Y0085904D01*
X0166991Y0085934D01*
X0166899Y0085968D01*
X0166808Y0086005D01*
X0166719Y0086046D01*
X0166631Y0086090D01*
X0166545Y0086138D01*
X0166462Y0086188D01*
X0166380Y0086243D01*
X0166300Y0086300D01*
X0166223Y0086360D01*
X0166148Y0086424D01*
X0166075Y0086490D01*
X0166006Y0086559D01*
X0165939Y0086631D01*
X0165875Y0086705D01*
X0165813Y0086782D01*
X0165755Y0086861D01*
X0165700Y0086943D01*
X0165649Y0087026D01*
X0165600Y0087112D01*
X0165556Y0087199D01*
X0165514Y0087288D01*
X0165476Y0087378D01*
X0165442Y0087470D01*
X0165411Y0087564D01*
X0165384Y0087658D01*
X0165360Y0087753D01*
X0165341Y0087850D01*
X0165325Y0087946D01*
X0165313Y0088044D01*
X0165305Y0088142D01*
X0165301Y0088240D01*
X0165300Y0088338D01*
X0165304Y0088436D01*
X0165311Y0088534D01*
X0165322Y0088632D01*
X0165337Y0088729D01*
X0165356Y0088825D01*
X0165378Y0088920D01*
X0165404Y0089015D01*
X0165434Y0089109D01*
X0165468Y0089201D01*
X0165505Y0089292D01*
X0165546Y0089381D01*
X0165590Y0089469D01*
X0165638Y0089555D01*
X0165688Y0089638D01*
X0165743Y0089720D01*
X0165800Y0089800D01*
X0165600Y0089400D02*
X0169500Y0101300D01*
X0169455Y0101157D02*
X0169470Y0101258D01*
X0169481Y0101360D01*
X0169488Y0101462D01*
X0169492Y0101564D01*
X0169491Y0101667D01*
X0169487Y0101769D01*
X0169478Y0101871D01*
X0169466Y0101972D01*
X0169450Y0102073D01*
X0169430Y0102174D01*
X0169406Y0102273D01*
X0169379Y0102372D01*
X0169348Y0102469D01*
X0169313Y0102565D01*
X0169274Y0102660D01*
X0169232Y0102753D01*
X0169187Y0102845D01*
X0169138Y0102935D01*
X0169085Y0103023D01*
X0169030Y0103109D01*
X0168971Y0103192D01*
X0168909Y0103273D01*
X0168844Y0103352D01*
X0168775Y0103429D01*
X0168705Y0103503D01*
X0168631Y0103574D01*
X0168555Y0103642D01*
X0168476Y0103707D01*
X0168394Y0103769D01*
X0168311Y0103828D01*
X0168225Y0103884D01*
X0168137Y0103936D01*
X0168048Y0103985D01*
X0167956Y0104031D01*
X0167863Y0104073D01*
X0167768Y0104112D01*
X0167672Y0104147D01*
X0167575Y0104178D01*
X0167476Y0104206D01*
X0167377Y0104230D01*
X0167276Y0104250D01*
X0167175Y0104266D01*
X0167074Y0104278D01*
X0166972Y0104287D01*
X0166869Y0104291D01*
X0166767Y0104292D01*
X0166665Y0104289D01*
X0166563Y0104282D01*
X0166461Y0104271D01*
X0166360Y0104256D01*
X0166259Y0104237D01*
X0166159Y0104215D01*
X0166061Y0104188D01*
X0165963Y0104159D01*
X0165866Y0104125D01*
X0165771Y0104088D01*
X0165677Y0104047D01*
X0165585Y0104002D01*
X0165495Y0103954D01*
X0165406Y0103903D01*
X0165320Y0103848D01*
X0165235Y0103791D01*
X0165153Y0103729D01*
X0165073Y0103665D01*
X0164996Y0103598D01*
X0164922Y0103528D01*
X0164850Y0103456D01*
X0164781Y0103380D01*
X0164714Y0103302D01*
X0164651Y0103222D01*
X0164591Y0103139D01*
X0164534Y0103054D01*
X0164481Y0102967D01*
X0164430Y0102877D01*
X0164384Y0102786D01*
X0164340Y0102694D01*
X0164300Y0102600D01*
X0154700Y0079300D01*
X0154801Y0079500D02*
X0154761Y0079406D01*
X0154717Y0079313D01*
X0154671Y0079222D01*
X0154620Y0079133D01*
X0154567Y0079046D01*
X0154510Y0078961D01*
X0154450Y0078878D01*
X0154387Y0078797D01*
X0154320Y0078719D01*
X0154251Y0078644D01*
X0154179Y0078571D01*
X0154105Y0078501D01*
X0154027Y0078434D01*
X0153948Y0078370D01*
X0153865Y0078309D01*
X0153781Y0078251D01*
X0153695Y0078196D01*
X0153606Y0078145D01*
X0153516Y0078097D01*
X0153423Y0078053D01*
X0153330Y0078012D01*
X0153234Y0077974D01*
X0153138Y0077941D01*
X0153040Y0077911D01*
X0152941Y0077884D01*
X0152841Y0077862D01*
X0152740Y0077843D01*
X0152639Y0077828D01*
X0152537Y0077817D01*
X0152435Y0077810D01*
X0152333Y0077807D01*
X0152231Y0077808D01*
X0152128Y0077812D01*
X0152026Y0077821D01*
X0151925Y0077833D01*
X0151824Y0077849D01*
X0151723Y0077869D01*
X0151624Y0077893D01*
X0151525Y0077921D01*
X0151428Y0077952D01*
X0151332Y0077987D01*
X0151237Y0078026D01*
X0151144Y0078068D01*
X0151052Y0078114D01*
X0150962Y0078163D01*
X0150874Y0078215D01*
X0150789Y0078271D01*
X0150705Y0078330D01*
X0150624Y0078392D01*
X0150545Y0078458D01*
X0150469Y0078526D01*
X0150395Y0078597D01*
X0150324Y0078670D01*
X0150256Y0078747D01*
X0150191Y0078826D01*
X0150129Y0078907D01*
X0150070Y0078991D01*
X0150014Y0079077D01*
X0149961Y0079165D01*
X0149912Y0079254D01*
X0149867Y0079346D01*
X0149825Y0079439D01*
X0149786Y0079534D01*
X0149751Y0079630D01*
X0149720Y0079728D01*
X0149693Y0079826D01*
X0149669Y0079926D01*
X0149649Y0080026D01*
X0149633Y0080127D01*
X0149621Y0080229D01*
X0149612Y0080331D01*
X0149608Y0080433D01*
X0149607Y0080536D01*
X0149611Y0080638D01*
X0149618Y0080740D01*
X0149629Y0080842D01*
X0149644Y0080943D01*
X0149600Y0080700D02*
X0146800Y0102000D01*
X0146800Y0101800D02*
X0146798Y0101898D01*
X0146792Y0101996D01*
X0146783Y0102094D01*
X0146769Y0102191D01*
X0146752Y0102288D01*
X0146731Y0102384D01*
X0146706Y0102479D01*
X0146678Y0102573D01*
X0146645Y0102665D01*
X0146610Y0102757D01*
X0146570Y0102847D01*
X0146528Y0102935D01*
X0146481Y0103022D01*
X0146432Y0103106D01*
X0146379Y0103189D01*
X0146323Y0103269D01*
X0146263Y0103348D01*
X0146201Y0103424D01*
X0146136Y0103497D01*
X0146068Y0103568D01*
X0145997Y0103636D01*
X0145924Y0103701D01*
X0145848Y0103763D01*
X0145769Y0103823D01*
X0145689Y0103879D01*
X0145606Y0103932D01*
X0145522Y0103981D01*
X0145435Y0104028D01*
X0145347Y0104070D01*
X0145257Y0104110D01*
X0145165Y0104145D01*
X0145073Y0104178D01*
X0144979Y0104206D01*
X0144884Y0104231D01*
X0144788Y0104252D01*
X0144691Y0104269D01*
X0144594Y0104283D01*
X0144496Y0104292D01*
X0144398Y0104298D01*
X0144300Y0104300D01*
X0144202Y0104298D01*
X0144104Y0104292D01*
X0144006Y0104283D01*
X0143909Y0104269D01*
X0143812Y0104252D01*
X0143716Y0104231D01*
X0143621Y0104206D01*
X0143527Y0104178D01*
X0143435Y0104145D01*
X0143343Y0104110D01*
X0143253Y0104070D01*
X0143165Y0104028D01*
X0143078Y0103981D01*
X0142994Y0103932D01*
X0142911Y0103879D01*
X0142831Y0103823D01*
X0142752Y0103763D01*
X0142676Y0103701D01*
X0142603Y0103636D01*
X0142532Y0103568D01*
X0142464Y0103497D01*
X0142399Y0103424D01*
X0142337Y0103348D01*
X0142277Y0103269D01*
X0142221Y0103189D01*
X0142168Y0103106D01*
X0142119Y0103022D01*
X0142072Y0102935D01*
X0142030Y0102847D01*
X0141990Y0102757D01*
X0141955Y0102665D01*
X0141922Y0102573D01*
X0141894Y0102479D01*
X0141869Y0102384D01*
X0141848Y0102288D01*
X0141831Y0102191D01*
X0141817Y0102094D01*
X0141808Y0101996D01*
X0141802Y0101898D01*
X0141800Y0101800D01*
X0141800Y0058300D01*
X0078300Y0058300D01*
X0078300Y0058800D01*
X0078300Y0060300D01*
X0079300Y0060800D01*
X0077300Y0060800D01*
X0078300Y0060300D01*
X0078300Y0068300D01*
X0077300Y0060800D02*
X0076800Y0060800D01*
X0078300Y0058300D01*
X0079800Y0060800D01*
X0079300Y0060800D01*
X0078300Y0058800D01*
X0077300Y0060800D01*
X0078300Y0058300D02*
X0074800Y0058300D01*
X0074800Y0101800D01*
X0074798Y0101898D01*
X0074792Y0101996D01*
X0074783Y0102094D01*
X0074769Y0102191D01*
X0074752Y0102288D01*
X0074731Y0102384D01*
X0074706Y0102479D01*
X0074678Y0102573D01*
X0074645Y0102665D01*
X0074610Y0102757D01*
X0074570Y0102847D01*
X0074528Y0102935D01*
X0074481Y0103022D01*
X0074432Y0103106D01*
X0074379Y0103189D01*
X0074323Y0103269D01*
X0074263Y0103348D01*
X0074201Y0103424D01*
X0074136Y0103497D01*
X0074068Y0103568D01*
X0073997Y0103636D01*
X0073924Y0103701D01*
X0073848Y0103763D01*
X0073769Y0103823D01*
X0073689Y0103879D01*
X0073606Y0103932D01*
X0073522Y0103981D01*
X0073435Y0104028D01*
X0073347Y0104070D01*
X0073257Y0104110D01*
X0073165Y0104145D01*
X0073073Y0104178D01*
X0072979Y0104206D01*
X0072884Y0104231D01*
X0072788Y0104252D01*
X0072691Y0104269D01*
X0072594Y0104283D01*
X0072496Y0104292D01*
X0072398Y0104298D01*
X0072300Y0104300D01*
X0072202Y0104298D01*
X0072104Y0104292D01*
X0072006Y0104283D01*
X0071909Y0104269D01*
X0071812Y0104252D01*
X0071716Y0104231D01*
X0071621Y0104206D01*
X0071527Y0104178D01*
X0071435Y0104145D01*
X0071343Y0104110D01*
X0071253Y0104070D01*
X0071165Y0104028D01*
X0071078Y0103981D01*
X0070994Y0103932D01*
X0070911Y0103879D01*
X0070831Y0103823D01*
X0070752Y0103763D01*
X0070676Y0103701D01*
X0070603Y0103636D01*
X0070532Y0103568D01*
X0070464Y0103497D01*
X0070399Y0103424D01*
X0070337Y0103348D01*
X0070277Y0103269D01*
X0070221Y0103189D01*
X0070168Y0103106D01*
X0070119Y0103022D01*
X0070072Y0102935D01*
X0070030Y0102847D01*
X0069990Y0102757D01*
X0069955Y0102665D01*
X0069922Y0102573D01*
X0069894Y0102479D01*
X0069869Y0102384D01*
X0069848Y0102288D01*
X0069831Y0102191D01*
X0069817Y0102094D01*
X0069808Y0101996D01*
X0069802Y0101898D01*
X0069800Y0101800D01*
X0069800Y0102000D02*
X0067000Y0080700D01*
X0066956Y0080943D02*
X0066971Y0080842D01*
X0066982Y0080740D01*
X0066989Y0080638D01*
X0066993Y0080536D01*
X0066992Y0080433D01*
X0066988Y0080331D01*
X0066979Y0080229D01*
X0066967Y0080127D01*
X0066951Y0080026D01*
X0066931Y0079926D01*
X0066907Y0079826D01*
X0066880Y0079728D01*
X0066849Y0079630D01*
X0066814Y0079534D01*
X0066775Y0079439D01*
X0066733Y0079346D01*
X0066688Y0079254D01*
X0066639Y0079165D01*
X0066586Y0079077D01*
X0066530Y0078991D01*
X0066471Y0078907D01*
X0066409Y0078826D01*
X0066344Y0078747D01*
X0066276Y0078670D01*
X0066205Y0078597D01*
X0066131Y0078526D01*
X0066055Y0078458D01*
X0065976Y0078392D01*
X0065895Y0078330D01*
X0065811Y0078271D01*
X0065726Y0078215D01*
X0065638Y0078163D01*
X0065548Y0078114D01*
X0065456Y0078068D01*
X0065363Y0078026D01*
X0065268Y0077987D01*
X0065172Y0077952D01*
X0065075Y0077921D01*
X0064976Y0077893D01*
X0064877Y0077869D01*
X0064776Y0077849D01*
X0064675Y0077833D01*
X0064574Y0077821D01*
X0064472Y0077812D01*
X0064369Y0077808D01*
X0064267Y0077807D01*
X0064165Y0077810D01*
X0064063Y0077817D01*
X0063961Y0077828D01*
X0063860Y0077843D01*
X0063759Y0077862D01*
X0063659Y0077884D01*
X0063560Y0077911D01*
X0063462Y0077941D01*
X0063366Y0077974D01*
X0063270Y0078012D01*
X0063177Y0078053D01*
X0063084Y0078097D01*
X0062994Y0078145D01*
X0062905Y0078196D01*
X0062819Y0078251D01*
X0062735Y0078309D01*
X0062652Y0078370D01*
X0062573Y0078434D01*
X0062495Y0078501D01*
X0062421Y0078571D01*
X0062349Y0078644D01*
X0062280Y0078719D01*
X0062213Y0078797D01*
X0062150Y0078878D01*
X0062090Y0078961D01*
X0062033Y0079046D01*
X0061980Y0079133D01*
X0061929Y0079222D01*
X0061883Y0079313D01*
X0061839Y0079406D01*
X0061799Y0079500D01*
X0061900Y0079300D02*
X0052300Y0102600D01*
X0052261Y0102694D01*
X0052217Y0102787D01*
X0052170Y0102878D01*
X0052120Y0102967D01*
X0052067Y0103054D01*
X0052010Y0103139D01*
X0051950Y0103222D01*
X0051886Y0103303D01*
X0051820Y0103381D01*
X0051751Y0103456D01*
X0051679Y0103529D01*
X0051604Y0103599D01*
X0051527Y0103666D01*
X0051447Y0103730D01*
X0051365Y0103791D01*
X0051281Y0103849D01*
X0051194Y0103904D01*
X0051106Y0103955D01*
X0051015Y0104003D01*
X0050923Y0104048D01*
X0050829Y0104088D01*
X0050734Y0104126D01*
X0050638Y0104159D01*
X0050540Y0104189D01*
X0050441Y0104216D01*
X0050341Y0104238D01*
X0050240Y0104257D01*
X0050139Y0104272D01*
X0050037Y0104283D01*
X0049935Y0104290D01*
X0049833Y0104293D01*
X0049731Y0104292D01*
X0049628Y0104288D01*
X0049526Y0104279D01*
X0049425Y0104267D01*
X0049324Y0104251D01*
X0049223Y0104231D01*
X0049124Y0104207D01*
X0049025Y0104179D01*
X0048928Y0104148D01*
X0048832Y0104113D01*
X0048737Y0104074D01*
X0048644Y0104032D01*
X0048552Y0103986D01*
X0048462Y0103937D01*
X0048374Y0103885D01*
X0048289Y0103829D01*
X0048205Y0103770D01*
X0048124Y0103708D01*
X0048045Y0103642D01*
X0047968Y0103574D01*
X0047895Y0103503D01*
X0047824Y0103430D01*
X0047756Y0103353D01*
X0047691Y0103274D01*
X0047629Y0103193D01*
X0047570Y0103109D01*
X0047514Y0103023D01*
X0047461Y0102935D01*
X0047412Y0102846D01*
X0047367Y0102754D01*
X0047325Y0102661D01*
X0047286Y0102566D01*
X0047251Y0102470D01*
X0047220Y0102372D01*
X0047193Y0102274D01*
X0047169Y0102174D01*
X0047149Y0102074D01*
X0047133Y0101973D01*
X0047121Y0101871D01*
X0047112Y0101769D01*
X0047108Y0101667D01*
X0047107Y0101564D01*
X0047111Y0101462D01*
X0047118Y0101360D01*
X0047129Y0101258D01*
X0047144Y0101157D01*
X0047100Y0101300D02*
X0051000Y0089400D01*
X0050800Y0089800D02*
X0050857Y0089720D01*
X0050912Y0089638D01*
X0050962Y0089555D01*
X0051010Y0089469D01*
X0051054Y0089381D01*
X0051095Y0089292D01*
X0051132Y0089201D01*
X0051166Y0089109D01*
X0051196Y0089015D01*
X0051222Y0088920D01*
X0051244Y0088825D01*
X0051263Y0088729D01*
X0051278Y0088632D01*
X0051289Y0088534D01*
X0051296Y0088436D01*
X0051300Y0088338D01*
X0051299Y0088240D01*
X0051295Y0088142D01*
X0051287Y0088044D01*
X0051275Y0087946D01*
X0051259Y0087850D01*
X0051240Y0087753D01*
X0051216Y0087658D01*
X0051189Y0087564D01*
X0051158Y0087470D01*
X0051124Y0087378D01*
X0051086Y0087288D01*
X0051044Y0087199D01*
X0051000Y0087112D01*
X0050951Y0087026D01*
X0050900Y0086943D01*
X0050845Y0086861D01*
X0050787Y0086782D01*
X0050725Y0086705D01*
X0050661Y0086631D01*
X0050594Y0086559D01*
X0050525Y0086490D01*
X0050452Y0086424D01*
X0050377Y0086360D01*
X0050300Y0086300D01*
X0050220Y0086243D01*
X0050138Y0086188D01*
X0050055Y0086138D01*
X0049969Y0086090D01*
X0049881Y0086046D01*
X0049792Y0086005D01*
X0049701Y0085968D01*
X0049609Y0085934D01*
X0049515Y0085904D01*
X0049420Y0085878D01*
X0049325Y0085856D01*
X0049229Y0085837D01*
X0049132Y0085822D01*
X0049034Y0085811D01*
X0048936Y0085804D01*
X0048838Y0085800D01*
X0048740Y0085801D01*
X0048642Y0085805D01*
X0048544Y0085813D01*
X0048446Y0085825D01*
X0048350Y0085841D01*
X0048253Y0085860D01*
X0048158Y0085884D01*
X0048064Y0085911D01*
X0047970Y0085942D01*
X0047878Y0085976D01*
X0047788Y0086014D01*
X0047699Y0086056D01*
X0047612Y0086100D01*
X0047526Y0086149D01*
X0047443Y0086200D01*
X0047361Y0086255D01*
X0047282Y0086313D01*
X0047205Y0086375D01*
X0047131Y0086439D01*
X0047059Y0086506D01*
X0046990Y0086575D01*
X0046924Y0086648D01*
X0046860Y0086723D01*
X0046800Y0086800D01*
X0047100Y0086500D02*
X0029600Y0103500D01*
X0029800Y0103300D02*
X0029740Y0103377D01*
X0029676Y0103452D01*
X0029610Y0103525D01*
X0029541Y0103594D01*
X0029469Y0103661D01*
X0029395Y0103725D01*
X0029318Y0103787D01*
X0029239Y0103845D01*
X0029157Y0103900D01*
X0029074Y0103951D01*
X0028988Y0104000D01*
X0028901Y0104044D01*
X0028812Y0104086D01*
X0028722Y0104124D01*
X0028630Y0104158D01*
X0028536Y0104189D01*
X0028442Y0104216D01*
X0028347Y0104240D01*
X0028250Y0104259D01*
X0028154Y0104275D01*
X0028056Y0104287D01*
X0027958Y0104295D01*
X0027860Y0104299D01*
X0027762Y0104300D01*
X0027664Y0104296D01*
X0027566Y0104289D01*
X0027468Y0104278D01*
X0027371Y0104263D01*
X0027275Y0104244D01*
X0027180Y0104222D01*
X0027085Y0104196D01*
X0026991Y0104166D01*
X0026899Y0104132D01*
X0026808Y0104095D01*
X0026719Y0104054D01*
X0026631Y0104010D01*
X0026545Y0103962D01*
X0026462Y0103912D01*
X0026380Y0103857D01*
X0026300Y0103800D01*
X0026223Y0103740D01*
X0026148Y0103676D01*
X0026075Y0103610D01*
X0026006Y0103541D01*
X0025939Y0103469D01*
X0025875Y0103395D01*
X0025813Y0103318D01*
X0025755Y0103239D01*
X0025700Y0103157D01*
X0025649Y0103074D01*
X0025600Y0102988D01*
X0025556Y0102901D01*
X0025514Y0102812D01*
X0025476Y0102722D01*
X0025442Y0102630D01*
X0025411Y0102536D01*
X0025384Y0102442D01*
X0025360Y0102347D01*
X0025341Y0102250D01*
X0025325Y0102154D01*
X0025313Y0102056D01*
X0025305Y0101958D01*
X0025301Y0101860D01*
X0025300Y0101762D01*
X0025304Y0101664D01*
X0025311Y0101566D01*
X0025322Y0101468D01*
X0025337Y0101371D01*
X0025356Y0101275D01*
X0025378Y0101180D01*
X0025404Y0101085D01*
X0025434Y0100991D01*
X0025468Y0100899D01*
X0025505Y0100808D01*
X0025546Y0100719D01*
X0025590Y0100631D01*
X0025638Y0100545D01*
X0025688Y0100462D01*
X0025743Y0100380D01*
X0025800Y0100300D01*
X0025800Y0100400D02*
X0048300Y0073100D01*
X0048301Y0073201D02*
X0048354Y0073117D01*
X0048404Y0073031D01*
X0048451Y0072943D01*
X0048494Y0072854D01*
X0048534Y0072763D01*
X0048570Y0072670D01*
X0048603Y0072576D01*
X0048631Y0072481D01*
X0048656Y0072385D01*
X0048677Y0072288D01*
X0048695Y0072190D01*
X0048708Y0072091D01*
X0048718Y0071992D01*
X0048723Y0071893D01*
X0048725Y0071793D01*
X0048723Y0071694D01*
X0048717Y0071595D01*
X0048707Y0071496D01*
X0048693Y0071397D01*
X0048675Y0071300D01*
X0048653Y0071202D01*
X0048628Y0071106D01*
X0048599Y0071011D01*
X0048566Y0070917D01*
X0048529Y0070825D01*
X0048489Y0070734D01*
X0048445Y0070645D01*
X0048398Y0070557D01*
X0048347Y0070472D01*
X0048293Y0070388D01*
X0048236Y0070307D01*
X0048176Y0070228D01*
X0048112Y0070151D01*
X0048046Y0070077D01*
X0047976Y0070006D01*
X0047904Y0069938D01*
X0047830Y0069872D01*
X0047753Y0069809D01*
X0047673Y0069750D01*
X0047591Y0069693D01*
X0047507Y0069640D01*
X0047421Y0069590D01*
X0047333Y0069544D01*
X0047243Y0069501D01*
X0047152Y0069462D01*
X0047059Y0069426D01*
X0046965Y0069394D01*
X0046870Y0069366D01*
X0046773Y0069342D01*
X0046676Y0069321D01*
X0046578Y0069304D01*
X0046479Y0069291D01*
X0046380Y0069282D01*
X0046281Y0069277D01*
X0046182Y0069276D01*
X0046082Y0069279D01*
X0045983Y0069285D01*
X0045884Y0069296D01*
X0045786Y0069310D01*
X0045688Y0069329D01*
X0045591Y0069351D01*
X0045495Y0069377D01*
X0045400Y0069406D01*
X0045306Y0069440D01*
X0045214Y0069477D01*
X0045123Y0069518D01*
X0045034Y0069562D01*
X0044947Y0069609D01*
X0044862Y0069661D01*
X0044779Y0069715D01*
X0045000Y0069600D02*
X0028800Y0077800D01*
X0028799Y0077799D02*
X0028708Y0077837D01*
X0028615Y0077871D01*
X0028520Y0077901D01*
X0028425Y0077928D01*
X0028328Y0077951D01*
X0028231Y0077970D01*
X0028133Y0077985D01*
X0028034Y0077996D01*
X0027935Y0078003D01*
X0027836Y0078007D01*
X0027737Y0078006D01*
X0027638Y0078002D01*
X0027539Y0077993D01*
X0027441Y0077981D01*
X0027343Y0077965D01*
X0027246Y0077945D01*
X0027150Y0077921D01*
X0027054Y0077894D01*
X0026960Y0077862D01*
X0026868Y0077827D01*
X0026776Y0077788D01*
X0026687Y0077746D01*
X0026599Y0077700D01*
X0026513Y0077651D01*
X0026428Y0077599D01*
X0026347Y0077543D01*
X0026267Y0077484D01*
X0026190Y0077421D01*
X0026115Y0077356D01*
X0026043Y0077288D01*
X0025974Y0077217D01*
X0025907Y0077144D01*
X0025844Y0077068D01*
X0025783Y0076989D01*
X0025726Y0076908D01*
X0025672Y0076825D01*
X0025621Y0076740D01*
X0025574Y0076653D01*
X0025530Y0076564D01*
X0025490Y0076473D01*
X0025453Y0076381D01*
X0025420Y0076287D01*
X0025391Y0076193D01*
X0025365Y0076097D01*
X0025343Y0076000D01*
X0025326Y0075903D01*
X0025312Y0075804D01*
X0025301Y0075706D01*
X0025295Y0075607D01*
X0025293Y0075508D01*
X0025295Y0075408D01*
X0025300Y0075309D01*
X0025310Y0075211D01*
X0025323Y0075113D01*
X0025340Y0075015D01*
X0025361Y0074918D01*
X0025386Y0074822D01*
X0025415Y0074727D01*
X0025448Y0074633D01*
X0025484Y0074541D01*
X0025523Y0074450D01*
X0025567Y0074361D01*
X0025613Y0074274D01*
X0025664Y0074188D01*
X0025717Y0074105D01*
X0025774Y0074023D01*
X0025834Y0073944D01*
X0025897Y0073868D01*
X0025963Y0073794D01*
X0026032Y0073723D01*
X0026104Y0073654D01*
X0026178Y0073588D01*
X0026255Y0073526D01*
X0026334Y0073466D01*
X0026416Y0073410D01*
X0026500Y0073357D01*
X0026585Y0073307D01*
X0026673Y0073261D01*
X0026762Y0073218D01*
X0026700Y0073300D02*
X0049800Y0060300D01*
X0049800Y0049300D02*
X0026700Y0036300D01*
X0026762Y0036382D02*
X0026673Y0036339D01*
X0026585Y0036293D01*
X0026500Y0036243D01*
X0026416Y0036190D01*
X0026334Y0036134D01*
X0026255Y0036074D01*
X0026178Y0036012D01*
X0026104Y0035946D01*
X0026032Y0035877D01*
X0025963Y0035806D01*
X0025897Y0035732D01*
X0025834Y0035656D01*
X0025774Y0035577D01*
X0025717Y0035495D01*
X0025664Y0035412D01*
X0025613Y0035326D01*
X0025567Y0035239D01*
X0025523Y0035150D01*
X0025484Y0035059D01*
X0025448Y0034967D01*
X0025415Y0034873D01*
X0025386Y0034778D01*
X0025361Y0034682D01*
X0025340Y0034585D01*
X0025323Y0034487D01*
X0025310Y0034389D01*
X0025300Y0034291D01*
X0025295Y0034192D01*
X0025293Y0034092D01*
X0025295Y0033993D01*
X0025301Y0033894D01*
X0025312Y0033796D01*
X0025326Y0033697D01*
X0025343Y0033600D01*
X0025365Y0033503D01*
X0025391Y0033407D01*
X0025420Y0033313D01*
X0025453Y0033219D01*
X0025490Y0033127D01*
X0025530Y0033036D01*
X0025574Y0032947D01*
X0025621Y0032860D01*
X0025672Y0032775D01*
X0025726Y0032692D01*
X0025783Y0032611D01*
X0025844Y0032532D01*
X0025907Y0032456D01*
X0025974Y0032383D01*
X0026043Y0032312D01*
X0026115Y0032244D01*
X0026190Y0032179D01*
X0026267Y0032116D01*
X0026347Y0032057D01*
X0026428Y0032001D01*
X0026513Y0031949D01*
X0026599Y0031900D01*
X0026687Y0031854D01*
X0026776Y0031812D01*
X0026868Y0031773D01*
X0026960Y0031738D01*
X0027054Y0031706D01*
X0027150Y0031679D01*
X0027246Y0031655D01*
X0027343Y0031635D01*
X0027441Y0031619D01*
X0027539Y0031607D01*
X0027638Y0031598D01*
X0027737Y0031594D01*
X0027836Y0031593D01*
X0027935Y0031597D01*
X0028034Y0031604D01*
X0028133Y0031615D01*
X0028231Y0031630D01*
X0028328Y0031649D01*
X0028425Y0031672D01*
X0028520Y0031699D01*
X0028615Y0031729D01*
X0028708Y0031763D01*
X0028799Y0031801D01*
X0028800Y0031800D02*
X0045000Y0040000D01*
X0044778Y0039885D02*
X0044861Y0039940D01*
X0044947Y0039991D01*
X0045034Y0040038D01*
X0045123Y0040083D01*
X0045214Y0040123D01*
X0045306Y0040160D01*
X0045400Y0040194D01*
X0045494Y0040223D01*
X0045590Y0040249D01*
X0045687Y0040271D01*
X0045785Y0040290D01*
X0045883Y0040304D01*
X0045982Y0040315D01*
X0046082Y0040321D01*
X0046181Y0040324D01*
X0046280Y0040323D01*
X0046380Y0040318D01*
X0046479Y0040309D01*
X0046577Y0040296D01*
X0046675Y0040279D01*
X0046772Y0040258D01*
X0046869Y0040234D01*
X0046964Y0040206D01*
X0047058Y0040174D01*
X0047151Y0040138D01*
X0047242Y0040099D01*
X0047332Y0040056D01*
X0047420Y0040010D01*
X0047506Y0039960D01*
X0047590Y0039907D01*
X0047672Y0039850D01*
X0047752Y0039791D01*
X0047829Y0039728D01*
X0047903Y0039662D01*
X0047975Y0039594D01*
X0048045Y0039523D01*
X0048111Y0039449D01*
X0048175Y0039372D01*
X0048235Y0039293D01*
X0048292Y0039212D01*
X0048346Y0039128D01*
X0048397Y0039043D01*
X0048444Y0038955D01*
X0048488Y0038866D01*
X0048528Y0038775D01*
X0048565Y0038683D01*
X0048598Y0038589D01*
X0048627Y0038494D01*
X0048652Y0038398D01*
X0048674Y0038301D01*
X0048692Y0038203D01*
X0048706Y0038105D01*
X0048716Y0038006D01*
X0048722Y0037906D01*
X0048724Y0037807D01*
X0048722Y0037708D01*
X0048717Y0037608D01*
X0048707Y0037509D01*
X0048694Y0037411D01*
X0048677Y0037313D01*
X0048655Y0037216D01*
X0048631Y0037120D01*
X0048602Y0037024D01*
X0048569Y0036930D01*
X0048533Y0036838D01*
X0048494Y0036747D01*
X0048450Y0036657D01*
X0048404Y0036569D01*
X0048353Y0036484D01*
X0048300Y0036400D01*
X0095800Y0138800D02*
X0102800Y0138800D01*
X0102860Y0138802D01*
X0102921Y0138807D01*
X0102980Y0138816D01*
X0103039Y0138829D01*
X0103098Y0138845D01*
X0103155Y0138865D01*
X0103210Y0138888D01*
X0103265Y0138915D01*
X0103317Y0138944D01*
X0103368Y0138977D01*
X0103417Y0139013D01*
X0103463Y0139051D01*
X0103507Y0139093D01*
X0103549Y0139137D01*
X0103587Y0139183D01*
X0103623Y0139232D01*
X0103656Y0139283D01*
X0103685Y0139335D01*
X0103712Y0139390D01*
X0103735Y0139445D01*
X0103755Y0139502D01*
X0103771Y0139561D01*
X0103784Y0139620D01*
X0103793Y0139679D01*
X0103798Y0139740D01*
X0103800Y0139800D01*
X0103800Y0141300D01*
X0103300Y0141800D01*
X0103300Y0160800D01*
X0103800Y0161300D01*
X0103800Y0162800D01*
X0103798Y0162860D01*
X0103793Y0162921D01*
X0103784Y0162980D01*
X0103771Y0163039D01*
X0103755Y0163098D01*
X0103735Y0163155D01*
X0103712Y0163210D01*
X0103685Y0163265D01*
X0103656Y0163317D01*
X0103623Y0163368D01*
X0103587Y0163417D01*
X0103549Y0163463D01*
X0103507Y0163507D01*
X0103463Y0163549D01*
X0103417Y0163587D01*
X0103368Y0163623D01*
X0103317Y0163656D01*
X0103265Y0163685D01*
X0103210Y0163712D01*
X0103155Y0163735D01*
X0103098Y0163755D01*
X0103039Y0163771D01*
X0102980Y0163784D01*
X0102921Y0163793D01*
X0102860Y0163798D01*
X0102800Y0163800D01*
X0095800Y0163800D01*
X0095740Y0163798D01*
X0095679Y0163793D01*
X0095620Y0163784D01*
X0095561Y0163771D01*
X0095502Y0163755D01*
X0095445Y0163735D01*
X0095390Y0163712D01*
X0095335Y0163685D01*
X0095283Y0163656D01*
X0095232Y0163623D01*
X0095183Y0163587D01*
X0095137Y0163549D01*
X0095093Y0163507D01*
X0095051Y0163463D01*
X0095013Y0163417D01*
X0094977Y0163368D01*
X0094944Y0163317D01*
X0094915Y0163265D01*
X0094888Y0163210D01*
X0094865Y0163155D01*
X0094845Y0163098D01*
X0094829Y0163039D01*
X0094816Y0162980D01*
X0094807Y0162921D01*
X0094802Y0162860D01*
X0094800Y0162800D01*
X0094800Y0161300D01*
X0095300Y0160800D01*
X0095300Y0141800D01*
X0094800Y0141300D01*
X0094800Y0139800D01*
X0094802Y0139740D01*
X0094807Y0139679D01*
X0094816Y0139620D01*
X0094829Y0139561D01*
X0094845Y0139502D01*
X0094865Y0139445D01*
X0094888Y0139390D01*
X0094915Y0139335D01*
X0094944Y0139283D01*
X0094977Y0139232D01*
X0095013Y0139183D01*
X0095051Y0139137D01*
X0095093Y0139093D01*
X0095137Y0139051D01*
X0095183Y0139013D01*
X0095232Y0138977D01*
X0095283Y0138944D01*
X0095335Y0138915D01*
X0095390Y0138888D01*
X0095445Y0138865D01*
X0095502Y0138845D01*
X0095561Y0138829D01*
X0095620Y0138816D01*
X0095679Y0138807D01*
X0095740Y0138802D01*
X0095800Y0138800D01*
X0109800Y0139800D02*
X0109800Y0141300D01*
X0110300Y0141800D01*
X0110300Y0160800D01*
X0109800Y0161300D01*
X0109800Y0162800D01*
X0109802Y0162860D01*
X0109807Y0162921D01*
X0109816Y0162980D01*
X0109829Y0163039D01*
X0109845Y0163098D01*
X0109865Y0163155D01*
X0109888Y0163210D01*
X0109915Y0163265D01*
X0109944Y0163317D01*
X0109977Y0163368D01*
X0110013Y0163417D01*
X0110051Y0163463D01*
X0110093Y0163507D01*
X0110137Y0163549D01*
X0110183Y0163587D01*
X0110232Y0163623D01*
X0110283Y0163656D01*
X0110335Y0163685D01*
X0110390Y0163712D01*
X0110445Y0163735D01*
X0110502Y0163755D01*
X0110561Y0163771D01*
X0110620Y0163784D01*
X0110679Y0163793D01*
X0110740Y0163798D01*
X0110800Y0163800D01*
X0117800Y0163800D01*
X0117860Y0163798D01*
X0117921Y0163793D01*
X0117980Y0163784D01*
X0118039Y0163771D01*
X0118098Y0163755D01*
X0118155Y0163735D01*
X0118210Y0163712D01*
X0118265Y0163685D01*
X0118317Y0163656D01*
X0118368Y0163623D01*
X0118417Y0163587D01*
X0118463Y0163549D01*
X0118507Y0163507D01*
X0118549Y0163463D01*
X0118587Y0163417D01*
X0118623Y0163368D01*
X0118656Y0163317D01*
X0118685Y0163265D01*
X0118712Y0163210D01*
X0118735Y0163155D01*
X0118755Y0163098D01*
X0118771Y0163039D01*
X0118784Y0162980D01*
X0118793Y0162921D01*
X0118798Y0162860D01*
X0118800Y0162800D01*
X0118800Y0161300D01*
X0118300Y0160800D01*
X0118300Y0141800D01*
X0118800Y0141300D01*
X0118800Y0139800D01*
X0118798Y0139740D01*
X0118793Y0139679D01*
X0118784Y0139620D01*
X0118771Y0139561D01*
X0118755Y0139502D01*
X0118735Y0139445D01*
X0118712Y0139390D01*
X0118685Y0139335D01*
X0118656Y0139283D01*
X0118623Y0139232D01*
X0118587Y0139183D01*
X0118549Y0139137D01*
X0118507Y0139093D01*
X0118463Y0139051D01*
X0118417Y0139013D01*
X0118368Y0138977D01*
X0118317Y0138944D01*
X0118265Y0138915D01*
X0118210Y0138888D01*
X0118155Y0138865D01*
X0118098Y0138845D01*
X0118039Y0138829D01*
X0117980Y0138816D01*
X0117921Y0138807D01*
X0117860Y0138802D01*
X0117800Y0138800D01*
X0110800Y0138800D01*
X0110740Y0138802D01*
X0110679Y0138807D01*
X0110620Y0138816D01*
X0110561Y0138829D01*
X0110502Y0138845D01*
X0110445Y0138865D01*
X0110390Y0138888D01*
X0110335Y0138915D01*
X0110283Y0138944D01*
X0110232Y0138977D01*
X0110183Y0139013D01*
X0110137Y0139051D01*
X0110093Y0139093D01*
X0110051Y0139137D01*
X0110013Y0139183D01*
X0109977Y0139232D01*
X0109944Y0139283D01*
X0109915Y0139335D01*
X0109888Y0139390D01*
X0109865Y0139445D01*
X0109845Y0139502D01*
X0109829Y0139561D01*
X0109816Y0139620D01*
X0109807Y0139679D01*
X0109802Y0139740D01*
X0109800Y0139800D01*
X0124800Y0139800D02*
X0124800Y0141300D01*
X0125300Y0141800D01*
X0125300Y0160800D01*
X0124800Y0161300D01*
X0124800Y0162800D01*
X0124802Y0162860D01*
X0124807Y0162921D01*
X0124816Y0162980D01*
X0124829Y0163039D01*
X0124845Y0163098D01*
X0124865Y0163155D01*
X0124888Y0163210D01*
X0124915Y0163265D01*
X0124944Y0163317D01*
X0124977Y0163368D01*
X0125013Y0163417D01*
X0125051Y0163463D01*
X0125093Y0163507D01*
X0125137Y0163549D01*
X0125183Y0163587D01*
X0125232Y0163623D01*
X0125283Y0163656D01*
X0125335Y0163685D01*
X0125390Y0163712D01*
X0125445Y0163735D01*
X0125502Y0163755D01*
X0125561Y0163771D01*
X0125620Y0163784D01*
X0125679Y0163793D01*
X0125740Y0163798D01*
X0125800Y0163800D01*
X0132800Y0163800D01*
X0132860Y0163798D01*
X0132921Y0163793D01*
X0132980Y0163784D01*
X0133039Y0163771D01*
X0133098Y0163755D01*
X0133155Y0163735D01*
X0133210Y0163712D01*
X0133265Y0163685D01*
X0133317Y0163656D01*
X0133368Y0163623D01*
X0133417Y0163587D01*
X0133463Y0163549D01*
X0133507Y0163507D01*
X0133549Y0163463D01*
X0133587Y0163417D01*
X0133623Y0163368D01*
X0133656Y0163317D01*
X0133685Y0163265D01*
X0133712Y0163210D01*
X0133735Y0163155D01*
X0133755Y0163098D01*
X0133771Y0163039D01*
X0133784Y0162980D01*
X0133793Y0162921D01*
X0133798Y0162860D01*
X0133800Y0162800D01*
X0133800Y0161300D01*
X0133300Y0160800D01*
X0133300Y0141800D01*
X0133800Y0141300D01*
X0133800Y0139800D01*
X0133798Y0139740D01*
X0133793Y0139679D01*
X0133784Y0139620D01*
X0133771Y0139561D01*
X0133755Y0139502D01*
X0133735Y0139445D01*
X0133712Y0139390D01*
X0133685Y0139335D01*
X0133656Y0139283D01*
X0133623Y0139232D01*
X0133587Y0139183D01*
X0133549Y0139137D01*
X0133507Y0139093D01*
X0133463Y0139051D01*
X0133417Y0139013D01*
X0133368Y0138977D01*
X0133317Y0138944D01*
X0133265Y0138915D01*
X0133210Y0138888D01*
X0133155Y0138865D01*
X0133098Y0138845D01*
X0133039Y0138829D01*
X0132980Y0138816D01*
X0132921Y0138807D01*
X0132860Y0138802D01*
X0132800Y0138800D01*
X0125800Y0138800D01*
X0125740Y0138802D01*
X0125679Y0138807D01*
X0125620Y0138816D01*
X0125561Y0138829D01*
X0125502Y0138845D01*
X0125445Y0138865D01*
X0125390Y0138888D01*
X0125335Y0138915D01*
X0125283Y0138944D01*
X0125232Y0138977D01*
X0125183Y0139013D01*
X0125137Y0139051D01*
X0125093Y0139093D01*
X0125051Y0139137D01*
X0125013Y0139183D01*
X0124977Y0139232D01*
X0124944Y0139283D01*
X0124915Y0139335D01*
X0124888Y0139390D01*
X0124865Y0139445D01*
X0124845Y0139502D01*
X0124829Y0139561D01*
X0124816Y0139620D01*
X0124807Y0139679D01*
X0124802Y0139740D01*
X0124800Y0139800D01*
X0139800Y0139800D02*
X0139800Y0141300D01*
X0140300Y0141800D01*
X0140300Y0160800D01*
X0139800Y0161300D01*
X0139800Y0162800D01*
X0139802Y0162860D01*
X0139807Y0162921D01*
X0139816Y0162980D01*
X0139829Y0163039D01*
X0139845Y0163098D01*
X0139865Y0163155D01*
X0139888Y0163210D01*
X0139915Y0163265D01*
X0139944Y0163317D01*
X0139977Y0163368D01*
X0140013Y0163417D01*
X0140051Y0163463D01*
X0140093Y0163507D01*
X0140137Y0163549D01*
X0140183Y0163587D01*
X0140232Y0163623D01*
X0140283Y0163656D01*
X0140335Y0163685D01*
X0140390Y0163712D01*
X0140445Y0163735D01*
X0140502Y0163755D01*
X0140561Y0163771D01*
X0140620Y0163784D01*
X0140679Y0163793D01*
X0140740Y0163798D01*
X0140800Y0163800D01*
X0147800Y0163800D01*
X0147860Y0163798D01*
X0147921Y0163793D01*
X0147980Y0163784D01*
X0148039Y0163771D01*
X0148098Y0163755D01*
X0148155Y0163735D01*
X0148210Y0163712D01*
X0148265Y0163685D01*
X0148317Y0163656D01*
X0148368Y0163623D01*
X0148417Y0163587D01*
X0148463Y0163549D01*
X0148507Y0163507D01*
X0148549Y0163463D01*
X0148587Y0163417D01*
X0148623Y0163368D01*
X0148656Y0163317D01*
X0148685Y0163265D01*
X0148712Y0163210D01*
X0148735Y0163155D01*
X0148755Y0163098D01*
X0148771Y0163039D01*
X0148784Y0162980D01*
X0148793Y0162921D01*
X0148798Y0162860D01*
X0148800Y0162800D01*
X0148800Y0161300D01*
X0148300Y0160800D01*
X0148300Y0141800D01*
X0148800Y0141300D01*
X0148800Y0139800D01*
X0148798Y0139740D01*
X0148793Y0139679D01*
X0148784Y0139620D01*
X0148771Y0139561D01*
X0148755Y0139502D01*
X0148735Y0139445D01*
X0148712Y0139390D01*
X0148685Y0139335D01*
X0148656Y0139283D01*
X0148623Y0139232D01*
X0148587Y0139183D01*
X0148549Y0139137D01*
X0148507Y0139093D01*
X0148463Y0139051D01*
X0148417Y0139013D01*
X0148368Y0138977D01*
X0148317Y0138944D01*
X0148265Y0138915D01*
X0148210Y0138888D01*
X0148155Y0138865D01*
X0148098Y0138845D01*
X0148039Y0138829D01*
X0147980Y0138816D01*
X0147921Y0138807D01*
X0147860Y0138802D01*
X0147800Y0138800D01*
X0140800Y0138800D01*
X0140740Y0138802D01*
X0140679Y0138807D01*
X0140620Y0138816D01*
X0140561Y0138829D01*
X0140502Y0138845D01*
X0140445Y0138865D01*
X0140390Y0138888D01*
X0140335Y0138915D01*
X0140283Y0138944D01*
X0140232Y0138977D01*
X0140183Y0139013D01*
X0140137Y0139051D01*
X0140093Y0139093D01*
X0140051Y0139137D01*
X0140013Y0139183D01*
X0139977Y0139232D01*
X0139944Y0139283D01*
X0139915Y0139335D01*
X0139888Y0139390D01*
X0139865Y0139445D01*
X0139845Y0139502D01*
X0139829Y0139561D01*
X0139816Y0139620D01*
X0139807Y0139679D01*
X0139802Y0139740D01*
X0139800Y0139800D01*
X0154800Y0139800D02*
X0154800Y0141300D01*
X0155300Y0141800D01*
X0155300Y0160800D01*
X0154800Y0161300D01*
X0154800Y0162800D01*
X0154802Y0162860D01*
X0154807Y0162921D01*
X0154816Y0162980D01*
X0154829Y0163039D01*
X0154845Y0163098D01*
X0154865Y0163155D01*
X0154888Y0163210D01*
X0154915Y0163265D01*
X0154944Y0163317D01*
X0154977Y0163368D01*
X0155013Y0163417D01*
X0155051Y0163463D01*
X0155093Y0163507D01*
X0155137Y0163549D01*
X0155183Y0163587D01*
X0155232Y0163623D01*
X0155283Y0163656D01*
X0155335Y0163685D01*
X0155390Y0163712D01*
X0155445Y0163735D01*
X0155502Y0163755D01*
X0155561Y0163771D01*
X0155620Y0163784D01*
X0155679Y0163793D01*
X0155740Y0163798D01*
X0155800Y0163800D01*
X0162800Y0163800D01*
X0162860Y0163798D01*
X0162921Y0163793D01*
X0162980Y0163784D01*
X0163039Y0163771D01*
X0163098Y0163755D01*
X0163155Y0163735D01*
X0163210Y0163712D01*
X0163265Y0163685D01*
X0163317Y0163656D01*
X0163368Y0163623D01*
X0163417Y0163587D01*
X0163463Y0163549D01*
X0163507Y0163507D01*
X0163549Y0163463D01*
X0163587Y0163417D01*
X0163623Y0163368D01*
X0163656Y0163317D01*
X0163685Y0163265D01*
X0163712Y0163210D01*
X0163735Y0163155D01*
X0163755Y0163098D01*
X0163771Y0163039D01*
X0163784Y0162980D01*
X0163793Y0162921D01*
X0163798Y0162860D01*
X0163800Y0162800D01*
X0163800Y0161300D01*
X0163300Y0160800D01*
X0163300Y0141800D01*
X0163800Y0141300D01*
X0163800Y0139800D01*
X0163798Y0139740D01*
X0163793Y0139679D01*
X0163784Y0139620D01*
X0163771Y0139561D01*
X0163755Y0139502D01*
X0163735Y0139445D01*
X0163712Y0139390D01*
X0163685Y0139335D01*
X0163656Y0139283D01*
X0163623Y0139232D01*
X0163587Y0139183D01*
X0163549Y0139137D01*
X0163507Y0139093D01*
X0163463Y0139051D01*
X0163417Y0139013D01*
X0163368Y0138977D01*
X0163317Y0138944D01*
X0163265Y0138915D01*
X0163210Y0138888D01*
X0163155Y0138865D01*
X0163098Y0138845D01*
X0163039Y0138829D01*
X0162980Y0138816D01*
X0162921Y0138807D01*
X0162860Y0138802D01*
X0162800Y0138800D01*
X0155800Y0138800D01*
X0155740Y0138802D01*
X0155679Y0138807D01*
X0155620Y0138816D01*
X0155561Y0138829D01*
X0155502Y0138845D01*
X0155445Y0138865D01*
X0155390Y0138888D01*
X0155335Y0138915D01*
X0155283Y0138944D01*
X0155232Y0138977D01*
X0155183Y0139013D01*
X0155137Y0139051D01*
X0155093Y0139093D01*
X0155051Y0139137D01*
X0155013Y0139183D01*
X0154977Y0139232D01*
X0154944Y0139283D01*
X0154915Y0139335D01*
X0154888Y0139390D01*
X0154865Y0139445D01*
X0154845Y0139502D01*
X0154829Y0139561D01*
X0154816Y0139620D01*
X0154807Y0139679D01*
X0154802Y0139740D01*
X0154800Y0139800D01*
X0169800Y0139800D02*
X0169800Y0141300D01*
X0170300Y0141800D01*
X0170300Y0160800D01*
X0169800Y0161300D01*
X0169800Y0162800D01*
X0169802Y0162860D01*
X0169807Y0162921D01*
X0169816Y0162980D01*
X0169829Y0163039D01*
X0169845Y0163098D01*
X0169865Y0163155D01*
X0169888Y0163210D01*
X0169915Y0163265D01*
X0169944Y0163317D01*
X0169977Y0163368D01*
X0170013Y0163417D01*
X0170051Y0163463D01*
X0170093Y0163507D01*
X0170137Y0163549D01*
X0170183Y0163587D01*
X0170232Y0163623D01*
X0170283Y0163656D01*
X0170335Y0163685D01*
X0170390Y0163712D01*
X0170445Y0163735D01*
X0170502Y0163755D01*
X0170561Y0163771D01*
X0170620Y0163784D01*
X0170679Y0163793D01*
X0170740Y0163798D01*
X0170800Y0163800D01*
X0177800Y0163800D01*
X0177860Y0163798D01*
X0177921Y0163793D01*
X0177980Y0163784D01*
X0178039Y0163771D01*
X0178098Y0163755D01*
X0178155Y0163735D01*
X0178210Y0163712D01*
X0178265Y0163685D01*
X0178317Y0163656D01*
X0178368Y0163623D01*
X0178417Y0163587D01*
X0178463Y0163549D01*
X0178507Y0163507D01*
X0178549Y0163463D01*
X0178587Y0163417D01*
X0178623Y0163368D01*
X0178656Y0163317D01*
X0178685Y0163265D01*
X0178712Y0163210D01*
X0178735Y0163155D01*
X0178755Y0163098D01*
X0178771Y0163039D01*
X0178784Y0162980D01*
X0178793Y0162921D01*
X0178798Y0162860D01*
X0178800Y0162800D01*
X0178800Y0161300D01*
X0178300Y0160800D01*
X0178300Y0141800D01*
X0178800Y0141300D01*
X0178800Y0139800D01*
X0178798Y0139740D01*
X0178793Y0139679D01*
X0178784Y0139620D01*
X0178771Y0139561D01*
X0178755Y0139502D01*
X0178735Y0139445D01*
X0178712Y0139390D01*
X0178685Y0139335D01*
X0178656Y0139283D01*
X0178623Y0139232D01*
X0178587Y0139183D01*
X0178549Y0139137D01*
X0178507Y0139093D01*
X0178463Y0139051D01*
X0178417Y0139013D01*
X0178368Y0138977D01*
X0178317Y0138944D01*
X0178265Y0138915D01*
X0178210Y0138888D01*
X0178155Y0138865D01*
X0178098Y0138845D01*
X0178039Y0138829D01*
X0177980Y0138816D01*
X0177921Y0138807D01*
X0177860Y0138802D01*
X0177800Y0138800D01*
X0170800Y0138800D01*
X0170740Y0138802D01*
X0170679Y0138807D01*
X0170620Y0138816D01*
X0170561Y0138829D01*
X0170502Y0138845D01*
X0170445Y0138865D01*
X0170390Y0138888D01*
X0170335Y0138915D01*
X0170283Y0138944D01*
X0170232Y0138977D01*
X0170183Y0139013D01*
X0170137Y0139051D01*
X0170093Y0139093D01*
X0170051Y0139137D01*
X0170013Y0139183D01*
X0169977Y0139232D01*
X0169944Y0139283D01*
X0169915Y0139335D01*
X0169888Y0139390D01*
X0169865Y0139445D01*
X0169845Y0139502D01*
X0169829Y0139561D01*
X0169816Y0139620D01*
X0169807Y0139679D01*
X0169802Y0139740D01*
X0169800Y0139800D01*
X0184800Y0139800D02*
X0184800Y0141300D01*
X0185300Y0141800D01*
X0185300Y0160800D01*
X0184800Y0161300D01*
X0184800Y0162800D01*
X0184802Y0162860D01*
X0184807Y0162921D01*
X0184816Y0162980D01*
X0184829Y0163039D01*
X0184845Y0163098D01*
X0184865Y0163155D01*
X0184888Y0163210D01*
X0184915Y0163265D01*
X0184944Y0163317D01*
X0184977Y0163368D01*
X0185013Y0163417D01*
X0185051Y0163463D01*
X0185093Y0163507D01*
X0185137Y0163549D01*
X0185183Y0163587D01*
X0185232Y0163623D01*
X0185283Y0163656D01*
X0185335Y0163685D01*
X0185390Y0163712D01*
X0185445Y0163735D01*
X0185502Y0163755D01*
X0185561Y0163771D01*
X0185620Y0163784D01*
X0185679Y0163793D01*
X0185740Y0163798D01*
X0185800Y0163800D01*
X0192800Y0163800D01*
X0192860Y0163798D01*
X0192921Y0163793D01*
X0192980Y0163784D01*
X0193039Y0163771D01*
X0193098Y0163755D01*
X0193155Y0163735D01*
X0193210Y0163712D01*
X0193265Y0163685D01*
X0193317Y0163656D01*
X0193368Y0163623D01*
X0193417Y0163587D01*
X0193463Y0163549D01*
X0193507Y0163507D01*
X0193549Y0163463D01*
X0193587Y0163417D01*
X0193623Y0163368D01*
X0193656Y0163317D01*
X0193685Y0163265D01*
X0193712Y0163210D01*
X0193735Y0163155D01*
X0193755Y0163098D01*
X0193771Y0163039D01*
X0193784Y0162980D01*
X0193793Y0162921D01*
X0193798Y0162860D01*
X0193800Y0162800D01*
X0193800Y0161300D01*
X0193300Y0160800D01*
X0193300Y0141800D01*
X0193800Y0141300D01*
X0193800Y0139800D01*
X0193798Y0139740D01*
X0193793Y0139679D01*
X0193784Y0139620D01*
X0193771Y0139561D01*
X0193755Y0139502D01*
X0193735Y0139445D01*
X0193712Y0139390D01*
X0193685Y0139335D01*
X0193656Y0139283D01*
X0193623Y0139232D01*
X0193587Y0139183D01*
X0193549Y0139137D01*
X0193507Y0139093D01*
X0193463Y0139051D01*
X0193417Y0139013D01*
X0193368Y0138977D01*
X0193317Y0138944D01*
X0193265Y0138915D01*
X0193210Y0138888D01*
X0193155Y0138865D01*
X0193098Y0138845D01*
X0193039Y0138829D01*
X0192980Y0138816D01*
X0192921Y0138807D01*
X0192860Y0138802D01*
X0192800Y0138800D01*
X0185800Y0138800D01*
X0185740Y0138802D01*
X0185679Y0138807D01*
X0185620Y0138816D01*
X0185561Y0138829D01*
X0185502Y0138845D01*
X0185445Y0138865D01*
X0185390Y0138888D01*
X0185335Y0138915D01*
X0185283Y0138944D01*
X0185232Y0138977D01*
X0185183Y0139013D01*
X0185137Y0139051D01*
X0185093Y0139093D01*
X0185051Y0139137D01*
X0185013Y0139183D01*
X0184977Y0139232D01*
X0184944Y0139283D01*
X0184915Y0139335D01*
X0184888Y0139390D01*
X0184865Y0139445D01*
X0184845Y0139502D01*
X0184829Y0139561D01*
X0184816Y0139620D01*
X0184807Y0139679D01*
X0184802Y0139740D01*
X0184800Y0139800D01*
X0199800Y0139800D02*
X0199800Y0141300D01*
X0200300Y0141800D01*
X0200300Y0160800D01*
X0199800Y0161300D01*
X0199800Y0162800D01*
X0199802Y0162860D01*
X0199807Y0162921D01*
X0199816Y0162980D01*
X0199829Y0163039D01*
X0199845Y0163098D01*
X0199865Y0163155D01*
X0199888Y0163210D01*
X0199915Y0163265D01*
X0199944Y0163317D01*
X0199977Y0163368D01*
X0200013Y0163417D01*
X0200051Y0163463D01*
X0200093Y0163507D01*
X0200137Y0163549D01*
X0200183Y0163587D01*
X0200232Y0163623D01*
X0200283Y0163656D01*
X0200335Y0163685D01*
X0200390Y0163712D01*
X0200445Y0163735D01*
X0200502Y0163755D01*
X0200561Y0163771D01*
X0200620Y0163784D01*
X0200679Y0163793D01*
X0200740Y0163798D01*
X0200800Y0163800D01*
X0207800Y0163800D01*
X0207860Y0163798D01*
X0207921Y0163793D01*
X0207980Y0163784D01*
X0208039Y0163771D01*
X0208098Y0163755D01*
X0208155Y0163735D01*
X0208210Y0163712D01*
X0208265Y0163685D01*
X0208317Y0163656D01*
X0208368Y0163623D01*
X0208417Y0163587D01*
X0208463Y0163549D01*
X0208507Y0163507D01*
X0208549Y0163463D01*
X0208587Y0163417D01*
X0208623Y0163368D01*
X0208656Y0163317D01*
X0208685Y0163265D01*
X0208712Y0163210D01*
X0208735Y0163155D01*
X0208755Y0163098D01*
X0208771Y0163039D01*
X0208784Y0162980D01*
X0208793Y0162921D01*
X0208798Y0162860D01*
X0208800Y0162800D01*
X0208800Y0161300D01*
X0208300Y0160800D01*
X0208300Y0141800D01*
X0208800Y0141300D01*
X0208800Y0139800D01*
X0208798Y0139740D01*
X0208793Y0139679D01*
X0208784Y0139620D01*
X0208771Y0139561D01*
X0208755Y0139502D01*
X0208735Y0139445D01*
X0208712Y0139390D01*
X0208685Y0139335D01*
X0208656Y0139283D01*
X0208623Y0139232D01*
X0208587Y0139183D01*
X0208549Y0139137D01*
X0208507Y0139093D01*
X0208463Y0139051D01*
X0208417Y0139013D01*
X0208368Y0138977D01*
X0208317Y0138944D01*
X0208265Y0138915D01*
X0208210Y0138888D01*
X0208155Y0138865D01*
X0208098Y0138845D01*
X0208039Y0138829D01*
X0207980Y0138816D01*
X0207921Y0138807D01*
X0207860Y0138802D01*
X0207800Y0138800D01*
X0200800Y0138800D01*
X0200740Y0138802D01*
X0200679Y0138807D01*
X0200620Y0138816D01*
X0200561Y0138829D01*
X0200502Y0138845D01*
X0200445Y0138865D01*
X0200390Y0138888D01*
X0200335Y0138915D01*
X0200283Y0138944D01*
X0200232Y0138977D01*
X0200183Y0139013D01*
X0200137Y0139051D01*
X0200093Y0139093D01*
X0200051Y0139137D01*
X0200013Y0139183D01*
X0199977Y0139232D01*
X0199944Y0139283D01*
X0199915Y0139335D01*
X0199888Y0139390D01*
X0199865Y0139445D01*
X0199845Y0139502D01*
X0199829Y0139561D01*
X0199816Y0139620D01*
X0199807Y0139679D01*
X0199802Y0139740D01*
X0199800Y0139800D01*
X0214800Y0139800D02*
X0214800Y0141300D01*
X0215300Y0141800D01*
X0215300Y0160800D01*
X0214800Y0161300D01*
X0214800Y0162800D01*
X0214802Y0162860D01*
X0214807Y0162921D01*
X0214816Y0162980D01*
X0214829Y0163039D01*
X0214845Y0163098D01*
X0214865Y0163155D01*
X0214888Y0163210D01*
X0214915Y0163265D01*
X0214944Y0163317D01*
X0214977Y0163368D01*
X0215013Y0163417D01*
X0215051Y0163463D01*
X0215093Y0163507D01*
X0215137Y0163549D01*
X0215183Y0163587D01*
X0215232Y0163623D01*
X0215283Y0163656D01*
X0215335Y0163685D01*
X0215390Y0163712D01*
X0215445Y0163735D01*
X0215502Y0163755D01*
X0215561Y0163771D01*
X0215620Y0163784D01*
X0215679Y0163793D01*
X0215740Y0163798D01*
X0215800Y0163800D01*
X0222800Y0163800D01*
X0222860Y0163798D01*
X0222921Y0163793D01*
X0222980Y0163784D01*
X0223039Y0163771D01*
X0223098Y0163755D01*
X0223155Y0163735D01*
X0223210Y0163712D01*
X0223265Y0163685D01*
X0223317Y0163656D01*
X0223368Y0163623D01*
X0223417Y0163587D01*
X0223463Y0163549D01*
X0223507Y0163507D01*
X0223549Y0163463D01*
X0223587Y0163417D01*
X0223623Y0163368D01*
X0223656Y0163317D01*
X0223685Y0163265D01*
X0223712Y0163210D01*
X0223735Y0163155D01*
X0223755Y0163098D01*
X0223771Y0163039D01*
X0223784Y0162980D01*
X0223793Y0162921D01*
X0223798Y0162860D01*
X0223800Y0162800D01*
X0223800Y0161300D01*
X0223300Y0160800D01*
X0223300Y0141800D01*
X0223800Y0141300D01*
X0223800Y0139800D01*
X0223798Y0139740D01*
X0223793Y0139679D01*
X0223784Y0139620D01*
X0223771Y0139561D01*
X0223755Y0139502D01*
X0223735Y0139445D01*
X0223712Y0139390D01*
X0223685Y0139335D01*
X0223656Y0139283D01*
X0223623Y0139232D01*
X0223587Y0139183D01*
X0223549Y0139137D01*
X0223507Y0139093D01*
X0223463Y0139051D01*
X0223417Y0139013D01*
X0223368Y0138977D01*
X0223317Y0138944D01*
X0223265Y0138915D01*
X0223210Y0138888D01*
X0223155Y0138865D01*
X0223098Y0138845D01*
X0223039Y0138829D01*
X0222980Y0138816D01*
X0222921Y0138807D01*
X0222860Y0138802D01*
X0222800Y0138800D01*
X0215800Y0138800D01*
X0215740Y0138802D01*
X0215679Y0138807D01*
X0215620Y0138816D01*
X0215561Y0138829D01*
X0215502Y0138845D01*
X0215445Y0138865D01*
X0215390Y0138888D01*
X0215335Y0138915D01*
X0215283Y0138944D01*
X0215232Y0138977D01*
X0215183Y0139013D01*
X0215137Y0139051D01*
X0215093Y0139093D01*
X0215051Y0139137D01*
X0215013Y0139183D01*
X0214977Y0139232D01*
X0214944Y0139283D01*
X0214915Y0139335D01*
X0214888Y0139390D01*
X0214865Y0139445D01*
X0214845Y0139502D01*
X0214829Y0139561D01*
X0214816Y0139620D01*
X0214807Y0139679D01*
X0214802Y0139740D01*
X0214800Y0139800D01*
X0229800Y0139800D02*
X0229800Y0141300D01*
X0230300Y0141800D01*
X0230300Y0160800D01*
X0229800Y0161300D01*
X0229800Y0162800D01*
X0229802Y0162860D01*
X0229807Y0162921D01*
X0229816Y0162980D01*
X0229829Y0163039D01*
X0229845Y0163098D01*
X0229865Y0163155D01*
X0229888Y0163210D01*
X0229915Y0163265D01*
X0229944Y0163317D01*
X0229977Y0163368D01*
X0230013Y0163417D01*
X0230051Y0163463D01*
X0230093Y0163507D01*
X0230137Y0163549D01*
X0230183Y0163587D01*
X0230232Y0163623D01*
X0230283Y0163656D01*
X0230335Y0163685D01*
X0230390Y0163712D01*
X0230445Y0163735D01*
X0230502Y0163755D01*
X0230561Y0163771D01*
X0230620Y0163784D01*
X0230679Y0163793D01*
X0230740Y0163798D01*
X0230800Y0163800D01*
X0237800Y0163800D01*
X0237860Y0163798D01*
X0237921Y0163793D01*
X0237980Y0163784D01*
X0238039Y0163771D01*
X0238098Y0163755D01*
X0238155Y0163735D01*
X0238210Y0163712D01*
X0238265Y0163685D01*
X0238317Y0163656D01*
X0238368Y0163623D01*
X0238417Y0163587D01*
X0238463Y0163549D01*
X0238507Y0163507D01*
X0238549Y0163463D01*
X0238587Y0163417D01*
X0238623Y0163368D01*
X0238656Y0163317D01*
X0238685Y0163265D01*
X0238712Y0163210D01*
X0238735Y0163155D01*
X0238755Y0163098D01*
X0238771Y0163039D01*
X0238784Y0162980D01*
X0238793Y0162921D01*
X0238798Y0162860D01*
X0238800Y0162800D01*
X0238800Y0161300D01*
X0238300Y0160800D01*
X0238300Y0141800D01*
X0238800Y0141300D01*
X0238800Y0139800D01*
X0238798Y0139740D01*
X0238793Y0139679D01*
X0238784Y0139620D01*
X0238771Y0139561D01*
X0238755Y0139502D01*
X0238735Y0139445D01*
X0238712Y0139390D01*
X0238685Y0139335D01*
X0238656Y0139283D01*
X0238623Y0139232D01*
X0238587Y0139183D01*
X0238549Y0139137D01*
X0238507Y0139093D01*
X0238463Y0139051D01*
X0238417Y0139013D01*
X0238368Y0138977D01*
X0238317Y0138944D01*
X0238265Y0138915D01*
X0238210Y0138888D01*
X0238155Y0138865D01*
X0238098Y0138845D01*
X0238039Y0138829D01*
X0237980Y0138816D01*
X0237921Y0138807D01*
X0237860Y0138802D01*
X0237800Y0138800D01*
X0230800Y0138800D01*
X0230740Y0138802D01*
X0230679Y0138807D01*
X0230620Y0138816D01*
X0230561Y0138829D01*
X0230502Y0138845D01*
X0230445Y0138865D01*
X0230390Y0138888D01*
X0230335Y0138915D01*
X0230283Y0138944D01*
X0230232Y0138977D01*
X0230183Y0139013D01*
X0230137Y0139051D01*
X0230093Y0139093D01*
X0230051Y0139137D01*
X0230013Y0139183D01*
X0229977Y0139232D01*
X0229944Y0139283D01*
X0229915Y0139335D01*
X0229888Y0139390D01*
X0229865Y0139445D01*
X0229845Y0139502D01*
X0229829Y0139561D01*
X0229816Y0139620D01*
X0229807Y0139679D01*
X0229802Y0139740D01*
X0229800Y0139800D01*
X0248300Y0098300D02*
X0210300Y0098300D01*
X0210300Y0078300D01*
X0248300Y0078300D01*
X0248300Y0098300D01*
X0294300Y0196800D02*
X0294300Y0219800D01*
X0364300Y0219800D01*
X0364300Y0212300D01*
X0364174Y0212298D01*
X0364049Y0212292D01*
X0363924Y0212282D01*
X0363799Y0212268D01*
X0363674Y0212251D01*
X0363550Y0212229D01*
X0363427Y0212204D01*
X0363305Y0212174D01*
X0363184Y0212141D01*
X0363064Y0212104D01*
X0362945Y0212064D01*
X0362828Y0212019D01*
X0362711Y0211971D01*
X0362597Y0211919D01*
X0362484Y0211864D01*
X0362373Y0211805D01*
X0362264Y0211743D01*
X0362157Y0211677D01*
X0362052Y0211608D01*
X0361949Y0211536D01*
X0361848Y0211461D01*
X0361750Y0211382D01*
X0361655Y0211300D01*
X0361562Y0211216D01*
X0361472Y0211128D01*
X0361384Y0211038D01*
X0361300Y0210945D01*
X0361218Y0210850D01*
X0361139Y0210752D01*
X0361064Y0210651D01*
X0360992Y0210548D01*
X0360923Y0210443D01*
X0360857Y0210336D01*
X0360795Y0210227D01*
X0360736Y0210116D01*
X0360681Y0210003D01*
X0360629Y0209889D01*
X0360581Y0209772D01*
X0360536Y0209655D01*
X0360496Y0209536D01*
X0360459Y0209416D01*
X0360426Y0209295D01*
X0360396Y0209173D01*
X0360371Y0209050D01*
X0360349Y0208926D01*
X0360332Y0208801D01*
X0360318Y0208676D01*
X0360308Y0208551D01*
X0360302Y0208426D01*
X0360300Y0208300D01*
X0360302Y0208174D01*
X0360308Y0208049D01*
X0360318Y0207924D01*
X0360332Y0207799D01*
X0360349Y0207674D01*
X0360371Y0207550D01*
X0360396Y0207427D01*
X0360426Y0207305D01*
X0360459Y0207184D01*
X0360496Y0207064D01*
X0360536Y0206945D01*
X0360581Y0206828D01*
X0360629Y0206711D01*
X0360681Y0206597D01*
X0360736Y0206484D01*
X0360795Y0206373D01*
X0360857Y0206264D01*
X0360923Y0206157D01*
X0360992Y0206052D01*
X0361064Y0205949D01*
X0361139Y0205848D01*
X0361218Y0205750D01*
X0361300Y0205655D01*
X0361384Y0205562D01*
X0361472Y0205472D01*
X0361562Y0205384D01*
X0361655Y0205300D01*
X0361750Y0205218D01*
X0361848Y0205139D01*
X0361949Y0205064D01*
X0362052Y0204992D01*
X0362157Y0204923D01*
X0362264Y0204857D01*
X0362373Y0204795D01*
X0362484Y0204736D01*
X0362597Y0204681D01*
X0362711Y0204629D01*
X0362828Y0204581D01*
X0362945Y0204536D01*
X0363064Y0204496D01*
X0363184Y0204459D01*
X0363305Y0204426D01*
X0363427Y0204396D01*
X0363550Y0204371D01*
X0363674Y0204349D01*
X0363799Y0204332D01*
X0363924Y0204318D01*
X0364049Y0204308D01*
X0364174Y0204302D01*
X0364300Y0204300D01*
X0364300Y0196800D01*
X0294300Y0196800D01*
X0269800Y0216800D02*
X0268300Y0216800D01*
X0266800Y0216800D01*
X0268300Y0216800D02*
X0268300Y0218300D01*
X0268300Y0216800D02*
X0268300Y0215300D01*
X0262300Y0223300D02*
X0262303Y0223570D01*
X0262313Y0223840D01*
X0262330Y0224109D01*
X0262353Y0224378D01*
X0262383Y0224647D01*
X0262419Y0224914D01*
X0262462Y0225181D01*
X0262511Y0225446D01*
X0262567Y0225710D01*
X0262630Y0225973D01*
X0262698Y0226234D01*
X0262774Y0226493D01*
X0262855Y0226750D01*
X0262943Y0227006D01*
X0263037Y0227259D01*
X0263137Y0227510D01*
X0263244Y0227758D01*
X0263356Y0228003D01*
X0263475Y0228246D01*
X0263599Y0228485D01*
X0263729Y0228722D01*
X0263865Y0228955D01*
X0264007Y0229185D01*
X0264154Y0229411D01*
X0264307Y0229634D01*
X0264465Y0229853D01*
X0264628Y0230068D01*
X0264797Y0230278D01*
X0264971Y0230485D01*
X0265150Y0230687D01*
X0265333Y0230885D01*
X0265522Y0231078D01*
X0265715Y0231267D01*
X0265913Y0231450D01*
X0266115Y0231629D01*
X0266322Y0231803D01*
X0266532Y0231972D01*
X0266747Y0232135D01*
X0266966Y0232293D01*
X0267189Y0232446D01*
X0267415Y0232593D01*
X0267645Y0232735D01*
X0267878Y0232871D01*
X0268115Y0233001D01*
X0268354Y0233125D01*
X0268597Y0233244D01*
X0268842Y0233356D01*
X0269090Y0233463D01*
X0269341Y0233563D01*
X0269594Y0233657D01*
X0269850Y0233745D01*
X0270107Y0233826D01*
X0270366Y0233902D01*
X0270627Y0233970D01*
X0270890Y0234033D01*
X0271154Y0234089D01*
X0271419Y0234138D01*
X0271686Y0234181D01*
X0271953Y0234217D01*
X0272222Y0234247D01*
X0272491Y0234270D01*
X0272760Y0234287D01*
X0273030Y0234297D01*
X0273300Y0234300D01*
X0273570Y0234297D01*
X0273840Y0234287D01*
X0274109Y0234270D01*
X0274378Y0234247D01*
X0274647Y0234217D01*
X0274914Y0234181D01*
X0275181Y0234138D01*
X0275446Y0234089D01*
X0275710Y0234033D01*
X0275973Y0233970D01*
X0276234Y0233902D01*
X0276493Y0233826D01*
X0276750Y0233745D01*
X0277006Y0233657D01*
X0277259Y0233563D01*
X0277510Y0233463D01*
X0277758Y0233356D01*
X0278003Y0233244D01*
X0278246Y0233125D01*
X0278485Y0233001D01*
X0278722Y0232871D01*
X0278955Y0232735D01*
X0279185Y0232593D01*
X0279411Y0232446D01*
X0279634Y0232293D01*
X0279853Y0232135D01*
X0280068Y0231972D01*
X0280278Y0231803D01*
X0280485Y0231629D01*
X0280687Y0231450D01*
X0280885Y0231267D01*
X0281078Y0231078D01*
X0281267Y0230885D01*
X0281450Y0230687D01*
X0281629Y0230485D01*
X0281803Y0230278D01*
X0281972Y0230068D01*
X0282135Y0229853D01*
X0282293Y0229634D01*
X0282446Y0229411D01*
X0282593Y0229185D01*
X0282735Y0228955D01*
X0282871Y0228722D01*
X0283001Y0228485D01*
X0283125Y0228246D01*
X0283244Y0228003D01*
X0283356Y0227758D01*
X0283463Y0227510D01*
X0283563Y0227259D01*
X0283657Y0227006D01*
X0283745Y0226750D01*
X0283826Y0226493D01*
X0283902Y0226234D01*
X0283970Y0225973D01*
X0284033Y0225710D01*
X0284089Y0225446D01*
X0284138Y0225181D01*
X0284181Y0224914D01*
X0284217Y0224647D01*
X0284247Y0224378D01*
X0284270Y0224109D01*
X0284287Y0223840D01*
X0284297Y0223570D01*
X0284300Y0223300D01*
X0284297Y0223030D01*
X0284287Y0222760D01*
X0284270Y0222491D01*
X0284247Y0222222D01*
X0284217Y0221953D01*
X0284181Y0221686D01*
X0284138Y0221419D01*
X0284089Y0221154D01*
X0284033Y0220890D01*
X0283970Y0220627D01*
X0283902Y0220366D01*
X0283826Y0220107D01*
X0283745Y0219850D01*
X0283657Y0219594D01*
X0283563Y0219341D01*
X0283463Y0219090D01*
X0283356Y0218842D01*
X0283244Y0218597D01*
X0283125Y0218354D01*
X0283001Y0218115D01*
X0282871Y0217878D01*
X0282735Y0217645D01*
X0282593Y0217415D01*
X0282446Y0217189D01*
X0282293Y0216966D01*
X0282135Y0216747D01*
X0281972Y0216532D01*
X0281803Y0216322D01*
X0281629Y0216115D01*
X0281450Y0215913D01*
X0281267Y0215715D01*
X0281078Y0215522D01*
X0280885Y0215333D01*
X0280687Y0215150D01*
X0280485Y0214971D01*
X0280278Y0214797D01*
X0280068Y0214628D01*
X0279853Y0214465D01*
X0279634Y0214307D01*
X0279411Y0214154D01*
X0279185Y0214007D01*
X0278955Y0213865D01*
X0278722Y0213729D01*
X0278485Y0213599D01*
X0278246Y0213475D01*
X0278003Y0213356D01*
X0277758Y0213244D01*
X0277510Y0213137D01*
X0277259Y0213037D01*
X0277006Y0212943D01*
X0276750Y0212855D01*
X0276493Y0212774D01*
X0276234Y0212698D01*
X0275973Y0212630D01*
X0275710Y0212567D01*
X0275446Y0212511D01*
X0275181Y0212462D01*
X0274914Y0212419D01*
X0274647Y0212383D01*
X0274378Y0212353D01*
X0274109Y0212330D01*
X0273840Y0212313D01*
X0273570Y0212303D01*
X0273300Y0212300D01*
X0273030Y0212303D01*
X0272760Y0212313D01*
X0272491Y0212330D01*
X0272222Y0212353D01*
X0271953Y0212383D01*
X0271686Y0212419D01*
X0271419Y0212462D01*
X0271154Y0212511D01*
X0270890Y0212567D01*
X0270627Y0212630D01*
X0270366Y0212698D01*
X0270107Y0212774D01*
X0269850Y0212855D01*
X0269594Y0212943D01*
X0269341Y0213037D01*
X0269090Y0213137D01*
X0268842Y0213244D01*
X0268597Y0213356D01*
X0268354Y0213475D01*
X0268115Y0213599D01*
X0267878Y0213729D01*
X0267645Y0213865D01*
X0267415Y0214007D01*
X0267189Y0214154D01*
X0266966Y0214307D01*
X0266747Y0214465D01*
X0266532Y0214628D01*
X0266322Y0214797D01*
X0266115Y0214971D01*
X0265913Y0215150D01*
X0265715Y0215333D01*
X0265522Y0215522D01*
X0265333Y0215715D01*
X0265150Y0215913D01*
X0264971Y0216115D01*
X0264797Y0216322D01*
X0264628Y0216532D01*
X0264465Y0216747D01*
X0264307Y0216966D01*
X0264154Y0217189D01*
X0264007Y0217415D01*
X0263865Y0217645D01*
X0263729Y0217878D01*
X0263599Y0218115D01*
X0263475Y0218354D01*
X0263356Y0218597D01*
X0263244Y0218842D01*
X0263137Y0219090D01*
X0263037Y0219341D01*
X0262943Y0219594D01*
X0262855Y0219850D01*
X0262774Y0220107D01*
X0262698Y0220366D01*
X0262630Y0220627D01*
X0262567Y0220890D01*
X0262511Y0221154D01*
X0262462Y0221419D01*
X0262419Y0221686D01*
X0262383Y0221953D01*
X0262353Y0222222D01*
X0262330Y0222491D01*
X0262313Y0222760D01*
X0262303Y0223030D01*
X0262300Y0223300D01*
X0257800Y0221100D02*
X0257800Y0212500D01*
X0257800Y0210100D01*
X0257800Y0200100D01*
X0257800Y0210100D02*
X0257731Y0210102D01*
X0257663Y0210108D01*
X0257595Y0210118D01*
X0257528Y0210131D01*
X0257462Y0210149D01*
X0257397Y0210170D01*
X0257333Y0210195D01*
X0257271Y0210223D01*
X0257210Y0210255D01*
X0257151Y0210290D01*
X0257095Y0210329D01*
X0257040Y0210371D01*
X0256989Y0210416D01*
X0256939Y0210464D01*
X0256893Y0210514D01*
X0256850Y0210567D01*
X0256809Y0210623D01*
X0256772Y0210680D01*
X0256739Y0210740D01*
X0256708Y0210802D01*
X0256682Y0210865D01*
X0256659Y0210929D01*
X0256639Y0210995D01*
X0256624Y0211062D01*
X0256612Y0211129D01*
X0256604Y0211197D01*
X0256600Y0211266D01*
X0256600Y0211334D01*
X0256604Y0211403D01*
X0256612Y0211471D01*
X0256624Y0211538D01*
X0256639Y0211605D01*
X0256659Y0211671D01*
X0256682Y0211735D01*
X0256708Y0211798D01*
X0256739Y0211860D01*
X0256772Y0211920D01*
X0256809Y0211977D01*
X0256850Y0212033D01*
X0256893Y0212086D01*
X0256939Y0212136D01*
X0256989Y0212184D01*
X0257040Y0212229D01*
X0257095Y0212271D01*
X0257151Y0212310D01*
X0257210Y0212345D01*
X0257271Y0212377D01*
X0257333Y0212405D01*
X0257397Y0212430D01*
X0257462Y0212451D01*
X0257528Y0212469D01*
X0257595Y0212482D01*
X0257663Y0212492D01*
X0257731Y0212498D01*
X0257800Y0212500D01*
X0245300Y0282300D02*
X0245300Y0283800D01*
X0243800Y0283800D01*
X0245300Y0283800D02*
X0245300Y0285300D01*
X0245300Y0283800D02*
X0246800Y0283800D01*
X0239300Y0290300D02*
X0239303Y0290570D01*
X0239313Y0290840D01*
X0239330Y0291109D01*
X0239353Y0291378D01*
X0239383Y0291647D01*
X0239419Y0291914D01*
X0239462Y0292181D01*
X0239511Y0292446D01*
X0239567Y0292710D01*
X0239630Y0292973D01*
X0239698Y0293234D01*
X0239774Y0293493D01*
X0239855Y0293750D01*
X0239943Y0294006D01*
X0240037Y0294259D01*
X0240137Y0294510D01*
X0240244Y0294758D01*
X0240356Y0295003D01*
X0240475Y0295246D01*
X0240599Y0295485D01*
X0240729Y0295722D01*
X0240865Y0295955D01*
X0241007Y0296185D01*
X0241154Y0296411D01*
X0241307Y0296634D01*
X0241465Y0296853D01*
X0241628Y0297068D01*
X0241797Y0297278D01*
X0241971Y0297485D01*
X0242150Y0297687D01*
X0242333Y0297885D01*
X0242522Y0298078D01*
X0242715Y0298267D01*
X0242913Y0298450D01*
X0243115Y0298629D01*
X0243322Y0298803D01*
X0243532Y0298972D01*
X0243747Y0299135D01*
X0243966Y0299293D01*
X0244189Y0299446D01*
X0244415Y0299593D01*
X0244645Y0299735D01*
X0244878Y0299871D01*
X0245115Y0300001D01*
X0245354Y0300125D01*
X0245597Y0300244D01*
X0245842Y0300356D01*
X0246090Y0300463D01*
X0246341Y0300563D01*
X0246594Y0300657D01*
X0246850Y0300745D01*
X0247107Y0300826D01*
X0247366Y0300902D01*
X0247627Y0300970D01*
X0247890Y0301033D01*
X0248154Y0301089D01*
X0248419Y0301138D01*
X0248686Y0301181D01*
X0248953Y0301217D01*
X0249222Y0301247D01*
X0249491Y0301270D01*
X0249760Y0301287D01*
X0250030Y0301297D01*
X0250300Y0301300D01*
X0250570Y0301297D01*
X0250840Y0301287D01*
X0251109Y0301270D01*
X0251378Y0301247D01*
X0251647Y0301217D01*
X0251914Y0301181D01*
X0252181Y0301138D01*
X0252446Y0301089D01*
X0252710Y0301033D01*
X0252973Y0300970D01*
X0253234Y0300902D01*
X0253493Y0300826D01*
X0253750Y0300745D01*
X0254006Y0300657D01*
X0254259Y0300563D01*
X0254510Y0300463D01*
X0254758Y0300356D01*
X0255003Y0300244D01*
X0255246Y0300125D01*
X0255485Y0300001D01*
X0255722Y0299871D01*
X0255955Y0299735D01*
X0256185Y0299593D01*
X0256411Y0299446D01*
X0256634Y0299293D01*
X0256853Y0299135D01*
X0257068Y0298972D01*
X0257278Y0298803D01*
X0257485Y0298629D01*
X0257687Y0298450D01*
X0257885Y0298267D01*
X0258078Y0298078D01*
X0258267Y0297885D01*
X0258450Y0297687D01*
X0258629Y0297485D01*
X0258803Y0297278D01*
X0258972Y0297068D01*
X0259135Y0296853D01*
X0259293Y0296634D01*
X0259446Y0296411D01*
X0259593Y0296185D01*
X0259735Y0295955D01*
X0259871Y0295722D01*
X0260001Y0295485D01*
X0260125Y0295246D01*
X0260244Y0295003D01*
X0260356Y0294758D01*
X0260463Y0294510D01*
X0260563Y0294259D01*
X0260657Y0294006D01*
X0260745Y0293750D01*
X0260826Y0293493D01*
X0260902Y0293234D01*
X0260970Y0292973D01*
X0261033Y0292710D01*
X0261089Y0292446D01*
X0261138Y0292181D01*
X0261181Y0291914D01*
X0261217Y0291647D01*
X0261247Y0291378D01*
X0261270Y0291109D01*
X0261287Y0290840D01*
X0261297Y0290570D01*
X0261300Y0290300D01*
X0261297Y0290030D01*
X0261287Y0289760D01*
X0261270Y0289491D01*
X0261247Y0289222D01*
X0261217Y0288953D01*
X0261181Y0288686D01*
X0261138Y0288419D01*
X0261089Y0288154D01*
X0261033Y0287890D01*
X0260970Y0287627D01*
X0260902Y0287366D01*
X0260826Y0287107D01*
X0260745Y0286850D01*
X0260657Y0286594D01*
X0260563Y0286341D01*
X0260463Y0286090D01*
X0260356Y0285842D01*
X0260244Y0285597D01*
X0260125Y0285354D01*
X0260001Y0285115D01*
X0259871Y0284878D01*
X0259735Y0284645D01*
X0259593Y0284415D01*
X0259446Y0284189D01*
X0259293Y0283966D01*
X0259135Y0283747D01*
X0258972Y0283532D01*
X0258803Y0283322D01*
X0258629Y0283115D01*
X0258450Y0282913D01*
X0258267Y0282715D01*
X0258078Y0282522D01*
X0257885Y0282333D01*
X0257687Y0282150D01*
X0257485Y0281971D01*
X0257278Y0281797D01*
X0257068Y0281628D01*
X0256853Y0281465D01*
X0256634Y0281307D01*
X0256411Y0281154D01*
X0256185Y0281007D01*
X0255955Y0280865D01*
X0255722Y0280729D01*
X0255485Y0280599D01*
X0255246Y0280475D01*
X0255003Y0280356D01*
X0254758Y0280244D01*
X0254510Y0280137D01*
X0254259Y0280037D01*
X0254006Y0279943D01*
X0253750Y0279855D01*
X0253493Y0279774D01*
X0253234Y0279698D01*
X0252973Y0279630D01*
X0252710Y0279567D01*
X0252446Y0279511D01*
X0252181Y0279462D01*
X0251914Y0279419D01*
X0251647Y0279383D01*
X0251378Y0279353D01*
X0251109Y0279330D01*
X0250840Y0279313D01*
X0250570Y0279303D01*
X0250300Y0279300D01*
X0250030Y0279303D01*
X0249760Y0279313D01*
X0249491Y0279330D01*
X0249222Y0279353D01*
X0248953Y0279383D01*
X0248686Y0279419D01*
X0248419Y0279462D01*
X0248154Y0279511D01*
X0247890Y0279567D01*
X0247627Y0279630D01*
X0247366Y0279698D01*
X0247107Y0279774D01*
X0246850Y0279855D01*
X0246594Y0279943D01*
X0246341Y0280037D01*
X0246090Y0280137D01*
X0245842Y0280244D01*
X0245597Y0280356D01*
X0245354Y0280475D01*
X0245115Y0280599D01*
X0244878Y0280729D01*
X0244645Y0280865D01*
X0244415Y0281007D01*
X0244189Y0281154D01*
X0243966Y0281307D01*
X0243747Y0281465D01*
X0243532Y0281628D01*
X0243322Y0281797D01*
X0243115Y0281971D01*
X0242913Y0282150D01*
X0242715Y0282333D01*
X0242522Y0282522D01*
X0242333Y0282715D01*
X0242150Y0282913D01*
X0241971Y0283115D01*
X0241797Y0283322D01*
X0241628Y0283532D01*
X0241465Y0283747D01*
X0241307Y0283966D01*
X0241154Y0284189D01*
X0241007Y0284415D01*
X0240865Y0284645D01*
X0240729Y0284878D01*
X0240599Y0285115D01*
X0240475Y0285354D01*
X0240356Y0285597D01*
X0240244Y0285842D01*
X0240137Y0286090D01*
X0240037Y0286341D01*
X0239943Y0286594D01*
X0239855Y0286850D01*
X0239774Y0287107D01*
X0239698Y0287366D01*
X0239630Y0287627D01*
X0239567Y0287890D01*
X0239511Y0288154D01*
X0239462Y0288419D01*
X0239419Y0288686D01*
X0239383Y0288953D01*
X0239353Y0289222D01*
X0239330Y0289491D01*
X0239313Y0289760D01*
X0239303Y0290030D01*
X0239300Y0290300D01*
X0212300Y0290300D02*
X0212303Y0290570D01*
X0212313Y0290840D01*
X0212330Y0291109D01*
X0212353Y0291378D01*
X0212383Y0291647D01*
X0212419Y0291914D01*
X0212462Y0292181D01*
X0212511Y0292446D01*
X0212567Y0292710D01*
X0212630Y0292973D01*
X0212698Y0293234D01*
X0212774Y0293493D01*
X0212855Y0293750D01*
X0212943Y0294006D01*
X0213037Y0294259D01*
X0213137Y0294510D01*
X0213244Y0294758D01*
X0213356Y0295003D01*
X0213475Y0295246D01*
X0213599Y0295485D01*
X0213729Y0295722D01*
X0213865Y0295955D01*
X0214007Y0296185D01*
X0214154Y0296411D01*
X0214307Y0296634D01*
X0214465Y0296853D01*
X0214628Y0297068D01*
X0214797Y0297278D01*
X0214971Y0297485D01*
X0215150Y0297687D01*
X0215333Y0297885D01*
X0215522Y0298078D01*
X0215715Y0298267D01*
X0215913Y0298450D01*
X0216115Y0298629D01*
X0216322Y0298803D01*
X0216532Y0298972D01*
X0216747Y0299135D01*
X0216966Y0299293D01*
X0217189Y0299446D01*
X0217415Y0299593D01*
X0217645Y0299735D01*
X0217878Y0299871D01*
X0218115Y0300001D01*
X0218354Y0300125D01*
X0218597Y0300244D01*
X0218842Y0300356D01*
X0219090Y0300463D01*
X0219341Y0300563D01*
X0219594Y0300657D01*
X0219850Y0300745D01*
X0220107Y0300826D01*
X0220366Y0300902D01*
X0220627Y0300970D01*
X0220890Y0301033D01*
X0221154Y0301089D01*
X0221419Y0301138D01*
X0221686Y0301181D01*
X0221953Y0301217D01*
X0222222Y0301247D01*
X0222491Y0301270D01*
X0222760Y0301287D01*
X0223030Y0301297D01*
X0223300Y0301300D01*
X0223570Y0301297D01*
X0223840Y0301287D01*
X0224109Y0301270D01*
X0224378Y0301247D01*
X0224647Y0301217D01*
X0224914Y0301181D01*
X0225181Y0301138D01*
X0225446Y0301089D01*
X0225710Y0301033D01*
X0225973Y0300970D01*
X0226234Y0300902D01*
X0226493Y0300826D01*
X0226750Y0300745D01*
X0227006Y0300657D01*
X0227259Y0300563D01*
X0227510Y0300463D01*
X0227758Y0300356D01*
X0228003Y0300244D01*
X0228246Y0300125D01*
X0228485Y0300001D01*
X0228722Y0299871D01*
X0228955Y0299735D01*
X0229185Y0299593D01*
X0229411Y0299446D01*
X0229634Y0299293D01*
X0229853Y0299135D01*
X0230068Y0298972D01*
X0230278Y0298803D01*
X0230485Y0298629D01*
X0230687Y0298450D01*
X0230885Y0298267D01*
X0231078Y0298078D01*
X0231267Y0297885D01*
X0231450Y0297687D01*
X0231629Y0297485D01*
X0231803Y0297278D01*
X0231972Y0297068D01*
X0232135Y0296853D01*
X0232293Y0296634D01*
X0232446Y0296411D01*
X0232593Y0296185D01*
X0232735Y0295955D01*
X0232871Y0295722D01*
X0233001Y0295485D01*
X0233125Y0295246D01*
X0233244Y0295003D01*
X0233356Y0294758D01*
X0233463Y0294510D01*
X0233563Y0294259D01*
X0233657Y0294006D01*
X0233745Y0293750D01*
X0233826Y0293493D01*
X0233902Y0293234D01*
X0233970Y0292973D01*
X0234033Y0292710D01*
X0234089Y0292446D01*
X0234138Y0292181D01*
X0234181Y0291914D01*
X0234217Y0291647D01*
X0234247Y0291378D01*
X0234270Y0291109D01*
X0234287Y0290840D01*
X0234297Y0290570D01*
X0234300Y0290300D01*
X0234297Y0290030D01*
X0234287Y0289760D01*
X0234270Y0289491D01*
X0234247Y0289222D01*
X0234217Y0288953D01*
X0234181Y0288686D01*
X0234138Y0288419D01*
X0234089Y0288154D01*
X0234033Y0287890D01*
X0233970Y0287627D01*
X0233902Y0287366D01*
X0233826Y0287107D01*
X0233745Y0286850D01*
X0233657Y0286594D01*
X0233563Y0286341D01*
X0233463Y0286090D01*
X0233356Y0285842D01*
X0233244Y0285597D01*
X0233125Y0285354D01*
X0233001Y0285115D01*
X0232871Y0284878D01*
X0232735Y0284645D01*
X0232593Y0284415D01*
X0232446Y0284189D01*
X0232293Y0283966D01*
X0232135Y0283747D01*
X0231972Y0283532D01*
X0231803Y0283322D01*
X0231629Y0283115D01*
X0231450Y0282913D01*
X0231267Y0282715D01*
X0231078Y0282522D01*
X0230885Y0282333D01*
X0230687Y0282150D01*
X0230485Y0281971D01*
X0230278Y0281797D01*
X0230068Y0281628D01*
X0229853Y0281465D01*
X0229634Y0281307D01*
X0229411Y0281154D01*
X0229185Y0281007D01*
X0228955Y0280865D01*
X0228722Y0280729D01*
X0228485Y0280599D01*
X0228246Y0280475D01*
X0228003Y0280356D01*
X0227758Y0280244D01*
X0227510Y0280137D01*
X0227259Y0280037D01*
X0227006Y0279943D01*
X0226750Y0279855D01*
X0226493Y0279774D01*
X0226234Y0279698D01*
X0225973Y0279630D01*
X0225710Y0279567D01*
X0225446Y0279511D01*
X0225181Y0279462D01*
X0224914Y0279419D01*
X0224647Y0279383D01*
X0224378Y0279353D01*
X0224109Y0279330D01*
X0223840Y0279313D01*
X0223570Y0279303D01*
X0223300Y0279300D01*
X0223030Y0279303D01*
X0222760Y0279313D01*
X0222491Y0279330D01*
X0222222Y0279353D01*
X0221953Y0279383D01*
X0221686Y0279419D01*
X0221419Y0279462D01*
X0221154Y0279511D01*
X0220890Y0279567D01*
X0220627Y0279630D01*
X0220366Y0279698D01*
X0220107Y0279774D01*
X0219850Y0279855D01*
X0219594Y0279943D01*
X0219341Y0280037D01*
X0219090Y0280137D01*
X0218842Y0280244D01*
X0218597Y0280356D01*
X0218354Y0280475D01*
X0218115Y0280599D01*
X0217878Y0280729D01*
X0217645Y0280865D01*
X0217415Y0281007D01*
X0217189Y0281154D01*
X0216966Y0281307D01*
X0216747Y0281465D01*
X0216532Y0281628D01*
X0216322Y0281797D01*
X0216115Y0281971D01*
X0215913Y0282150D01*
X0215715Y0282333D01*
X0215522Y0282522D01*
X0215333Y0282715D01*
X0215150Y0282913D01*
X0214971Y0283115D01*
X0214797Y0283322D01*
X0214628Y0283532D01*
X0214465Y0283747D01*
X0214307Y0283966D01*
X0214154Y0284189D01*
X0214007Y0284415D01*
X0213865Y0284645D01*
X0213729Y0284878D01*
X0213599Y0285115D01*
X0213475Y0285354D01*
X0213356Y0285597D01*
X0213244Y0285842D01*
X0213137Y0286090D01*
X0213037Y0286341D01*
X0212943Y0286594D01*
X0212855Y0286850D01*
X0212774Y0287107D01*
X0212698Y0287366D01*
X0212630Y0287627D01*
X0212567Y0287890D01*
X0212511Y0288154D01*
X0212462Y0288419D01*
X0212419Y0288686D01*
X0212383Y0288953D01*
X0212353Y0289222D01*
X0212330Y0289491D01*
X0212313Y0289760D01*
X0212303Y0290030D01*
X0212300Y0290300D01*
X0216800Y0283800D02*
X0218300Y0283800D01*
X0218300Y0285300D01*
X0218300Y0283800D02*
X0219800Y0283800D01*
X0218300Y0283800D02*
X0218300Y0282300D01*
X0223800Y0313300D02*
X0221300Y0315800D01*
X0221300Y0320800D01*
X0223800Y0323300D01*
X0221300Y0325800D01*
X0221300Y0330800D01*
X0223800Y0333300D01*
X0221300Y0335800D01*
X0221300Y0340800D01*
X0223800Y0343300D01*
X0228800Y0343300D01*
X0231300Y0340800D01*
X0231300Y0335800D01*
X0228800Y0333300D01*
X0231300Y0330800D01*
X0231300Y0325800D01*
X0228800Y0323300D01*
X0231300Y0320800D01*
X0231300Y0315800D01*
X0228800Y0313300D01*
X0223800Y0313300D01*
X0223800Y0323300D02*
X0228800Y0323300D01*
X0228800Y0333300D02*
X0223800Y0333300D01*
X0246300Y0330800D02*
X0246300Y0325800D01*
X0248800Y0323300D01*
X0253800Y0323300D01*
X0256300Y0325800D01*
X0256300Y0330800D01*
X0253800Y0333300D01*
X0256300Y0335800D01*
X0256300Y0340800D01*
X0253800Y0343300D01*
X0248800Y0343300D01*
X0246300Y0340800D01*
X0246300Y0335800D01*
X0248800Y0333300D01*
X0253800Y0333300D01*
X0248800Y0333300D02*
X0246300Y0330800D01*
X0248800Y0323300D02*
X0246300Y0320800D01*
X0246300Y0315800D01*
X0248800Y0313300D01*
X0253800Y0313300D01*
X0256300Y0315800D01*
X0256300Y0320800D01*
X0253800Y0323300D01*
X0182300Y0250300D02*
X0158300Y0250300D01*
X0158105Y0250298D01*
X0157910Y0250291D01*
X0157716Y0250279D01*
X0157522Y0250262D01*
X0157328Y0250241D01*
X0157135Y0250215D01*
X0156943Y0250184D01*
X0156751Y0250149D01*
X0156561Y0250109D01*
X0156371Y0250064D01*
X0156182Y0250015D01*
X0155995Y0249961D01*
X0155809Y0249902D01*
X0155625Y0249840D01*
X0155442Y0249772D01*
X0155261Y0249700D01*
X0155082Y0249624D01*
X0154904Y0249544D01*
X0154729Y0249459D01*
X0154556Y0249370D01*
X0154385Y0249276D01*
X0154216Y0249179D01*
X0154050Y0249077D01*
X0153886Y0248972D01*
X0153725Y0248863D01*
X0153566Y0248749D01*
X0153411Y0248632D01*
X0153258Y0248511D01*
X0153108Y0248386D01*
X0152961Y0248258D01*
X0152818Y0248126D01*
X0152678Y0247991D01*
X0152541Y0247853D01*
X0152407Y0247711D01*
X0152277Y0247566D01*
X0152151Y0247417D01*
X0152028Y0247266D01*
X0151909Y0247112D01*
X0151794Y0246955D01*
X0151682Y0246795D01*
X0151575Y0246633D01*
X0151471Y0246468D01*
X0151372Y0246300D01*
X0151276Y0246130D01*
X0151185Y0245958D01*
X0151098Y0245784D01*
X0151016Y0245607D01*
X0150937Y0245429D01*
X0150863Y0245249D01*
X0150794Y0245067D01*
X0150728Y0244883D01*
X0150668Y0244698D01*
X0150612Y0244511D01*
X0150560Y0244323D01*
X0150513Y0244134D01*
X0150471Y0243944D01*
X0150433Y0243753D01*
X0150400Y0243561D01*
X0150372Y0243368D01*
X0150348Y0243175D01*
X0150329Y0242981D01*
X0150315Y0242787D01*
X0150305Y0242592D01*
X0150301Y0242397D01*
X0150301Y0242203D01*
X0150305Y0242008D01*
X0150315Y0241813D01*
X0150329Y0241619D01*
X0150348Y0241425D01*
X0150372Y0241232D01*
X0150400Y0241039D01*
X0150433Y0240847D01*
X0150471Y0240656D01*
X0150513Y0240466D01*
X0150560Y0240277D01*
X0150612Y0240089D01*
X0150668Y0239902D01*
X0150728Y0239717D01*
X0150794Y0239533D01*
X0150863Y0239351D01*
X0150937Y0239171D01*
X0151016Y0238993D01*
X0151098Y0238816D01*
X0151185Y0238642D01*
X0151276Y0238470D01*
X0151372Y0238300D01*
X0151471Y0238132D01*
X0151575Y0237967D01*
X0151682Y0237805D01*
X0151794Y0237645D01*
X0151909Y0237488D01*
X0152028Y0237334D01*
X0152151Y0237183D01*
X0152277Y0237034D01*
X0152407Y0236889D01*
X0152541Y0236747D01*
X0152678Y0236609D01*
X0152818Y0236474D01*
X0152961Y0236342D01*
X0153108Y0236214D01*
X0153258Y0236089D01*
X0153411Y0235968D01*
X0153566Y0235851D01*
X0153725Y0235737D01*
X0153886Y0235628D01*
X0154050Y0235523D01*
X0154216Y0235421D01*
X0154385Y0235324D01*
X0154556Y0235230D01*
X0154729Y0235141D01*
X0154904Y0235056D01*
X0155082Y0234976D01*
X0155261Y0234900D01*
X0155442Y0234828D01*
X0155625Y0234760D01*
X0155809Y0234698D01*
X0155995Y0234639D01*
X0156182Y0234585D01*
X0156371Y0234536D01*
X0156561Y0234491D01*
X0156751Y0234451D01*
X0156943Y0234416D01*
X0157135Y0234385D01*
X0157328Y0234359D01*
X0157522Y0234338D01*
X0157716Y0234321D01*
X0157910Y0234309D01*
X0158105Y0234302D01*
X0158300Y0234300D01*
X0182300Y0234300D01*
X0182495Y0234302D01*
X0182690Y0234309D01*
X0182884Y0234321D01*
X0183078Y0234338D01*
X0183272Y0234359D01*
X0183465Y0234385D01*
X0183657Y0234416D01*
X0183849Y0234451D01*
X0184039Y0234491D01*
X0184229Y0234536D01*
X0184418Y0234585D01*
X0184605Y0234639D01*
X0184791Y0234698D01*
X0184975Y0234760D01*
X0185158Y0234828D01*
X0185339Y0234900D01*
X0185518Y0234976D01*
X0185696Y0235056D01*
X0185871Y0235141D01*
X0186044Y0235230D01*
X0186215Y0235324D01*
X0186384Y0235421D01*
X0186550Y0235523D01*
X0186714Y0235628D01*
X0186875Y0235737D01*
X0187034Y0235851D01*
X0187189Y0235968D01*
X0187342Y0236089D01*
X0187492Y0236214D01*
X0187639Y0236342D01*
X0187782Y0236474D01*
X0187922Y0236609D01*
X0188059Y0236747D01*
X0188193Y0236889D01*
X0188323Y0237034D01*
X0188449Y0237183D01*
X0188572Y0237334D01*
X0188691Y0237488D01*
X0188806Y0237645D01*
X0188918Y0237805D01*
X0189025Y0237967D01*
X0189129Y0238132D01*
X0189228Y0238300D01*
X0189324Y0238470D01*
X0189415Y0238642D01*
X0189502Y0238816D01*
X0189584Y0238993D01*
X0189663Y0239171D01*
X0189737Y0239351D01*
X0189806Y0239533D01*
X0189872Y0239717D01*
X0189932Y0239902D01*
X0189988Y0240089D01*
X0190040Y0240277D01*
X0190087Y0240466D01*
X0190129Y0240656D01*
X0190167Y0240847D01*
X0190200Y0241039D01*
X0190228Y0241232D01*
X0190252Y0241425D01*
X0190271Y0241619D01*
X0190285Y0241813D01*
X0190295Y0242008D01*
X0190299Y0242203D01*
X0190299Y0242397D01*
X0190295Y0242592D01*
X0190285Y0242787D01*
X0190271Y0242981D01*
X0190252Y0243175D01*
X0190228Y0243368D01*
X0190200Y0243561D01*
X0190167Y0243753D01*
X0190129Y0243944D01*
X0190087Y0244134D01*
X0190040Y0244323D01*
X0189988Y0244511D01*
X0189932Y0244698D01*
X0189872Y0244883D01*
X0189806Y0245067D01*
X0189737Y0245249D01*
X0189663Y0245429D01*
X0189584Y0245607D01*
X0189502Y0245784D01*
X0189415Y0245958D01*
X0189324Y0246130D01*
X0189228Y0246300D01*
X0189129Y0246468D01*
X0189025Y0246633D01*
X0188918Y0246795D01*
X0188806Y0246955D01*
X0188691Y0247112D01*
X0188572Y0247266D01*
X0188449Y0247417D01*
X0188323Y0247566D01*
X0188193Y0247711D01*
X0188059Y0247853D01*
X0187922Y0247991D01*
X0187782Y0248126D01*
X0187639Y0248258D01*
X0187492Y0248386D01*
X0187342Y0248511D01*
X0187189Y0248632D01*
X0187034Y0248749D01*
X0186875Y0248863D01*
X0186714Y0248972D01*
X0186550Y0249077D01*
X0186384Y0249179D01*
X0186215Y0249276D01*
X0186044Y0249370D01*
X0185871Y0249459D01*
X0185696Y0249544D01*
X0185518Y0249624D01*
X0185339Y0249700D01*
X0185158Y0249772D01*
X0184975Y0249840D01*
X0184791Y0249902D01*
X0184605Y0249961D01*
X0184418Y0250015D01*
X0184229Y0250064D01*
X0184039Y0250109D01*
X0183849Y0250149D01*
X0183657Y0250184D01*
X0183465Y0250215D01*
X0183272Y0250241D01*
X0183078Y0250262D01*
X0182884Y0250279D01*
X0182690Y0250291D01*
X0182495Y0250298D01*
X0182300Y0250300D01*
X0173000Y0246300D02*
X0173000Y0242300D01*
X0175800Y0242300D01*
X0173000Y0242300D02*
X0173000Y0238300D01*
X0171600Y0238300D02*
X0169100Y0238300D01*
X0169100Y0246300D01*
X0171600Y0246300D01*
X0171600Y0238300D01*
X0167600Y0238300D02*
X0167600Y0242300D01*
X0167600Y0246300D01*
X0167600Y0242300D02*
X0164800Y0242300D01*
X0144300Y0275300D02*
X0144300Y0295300D01*
X0106300Y0295300D01*
X0106300Y0275300D01*
X0144300Y0275300D01*
X0151300Y0279800D02*
X0153800Y0277300D01*
X0158800Y0277300D01*
X0161300Y0279800D01*
X0163800Y0277300D01*
X0168800Y0277300D01*
X0171300Y0279800D01*
X0171300Y0284800D01*
X0168800Y0287300D01*
X0163800Y0287300D01*
X0161300Y0284800D01*
X0161300Y0279800D01*
X0161300Y0284800D02*
X0158800Y0287300D01*
X0153800Y0287300D01*
X0151300Y0284800D01*
X0151300Y0279800D01*
X0110300Y0303800D02*
X0107300Y0303800D01*
X0107300Y0303300D01*
X0101300Y0303300D01*
X0101300Y0303800D01*
X0107300Y0303800D01*
X0110300Y0303800D02*
X0110300Y0317300D01*
X0110300Y0318800D01*
X0111800Y0318800D01*
X0111800Y0343300D01*
X0110300Y0343300D01*
X0110300Y0318800D01*
X0070300Y0318800D01*
X0070300Y0317300D01*
X0070300Y0303800D01*
X0073300Y0303800D01*
X0079300Y0303800D01*
X0081300Y0303800D01*
X0081300Y0303300D01*
X0087300Y0303300D01*
X0087300Y0303800D01*
X0081300Y0303800D01*
X0079300Y0303800D02*
X0079300Y0303300D01*
X0073300Y0303300D01*
X0073300Y0303800D01*
X0087300Y0303800D02*
X0093300Y0303800D01*
X0099300Y0303800D01*
X0101300Y0303800D01*
X0099300Y0303800D02*
X0099300Y0303300D01*
X0093300Y0303300D01*
X0093300Y0303800D01*
X0092200Y0321300D02*
X0108200Y0321300D01*
X0108200Y0340800D01*
X0092200Y0340800D01*
X0092200Y0321300D01*
X0093200Y0321800D02*
X0107200Y0321800D01*
X0107260Y0321802D01*
X0107321Y0321807D01*
X0107380Y0321816D01*
X0107439Y0321829D01*
X0107498Y0321845D01*
X0107555Y0321865D01*
X0107610Y0321888D01*
X0107665Y0321915D01*
X0107717Y0321944D01*
X0107768Y0321977D01*
X0107817Y0322013D01*
X0107863Y0322051D01*
X0107907Y0322093D01*
X0107949Y0322137D01*
X0107987Y0322183D01*
X0108023Y0322232D01*
X0108056Y0322283D01*
X0108085Y0322335D01*
X0108112Y0322390D01*
X0108135Y0322445D01*
X0108155Y0322502D01*
X0108171Y0322561D01*
X0108184Y0322620D01*
X0108193Y0322679D01*
X0108198Y0322740D01*
X0108200Y0322800D01*
X0105700Y0321800D02*
X0105640Y0321802D01*
X0105579Y0321807D01*
X0105520Y0321816D01*
X0105461Y0321829D01*
X0105402Y0321845D01*
X0105345Y0321865D01*
X0105290Y0321888D01*
X0105235Y0321915D01*
X0105183Y0321944D01*
X0105132Y0321977D01*
X0105083Y0322013D01*
X0105037Y0322051D01*
X0104993Y0322093D01*
X0104951Y0322137D01*
X0104913Y0322183D01*
X0104877Y0322232D01*
X0104844Y0322283D01*
X0104815Y0322335D01*
X0104788Y0322390D01*
X0104765Y0322445D01*
X0104745Y0322502D01*
X0104729Y0322561D01*
X0104716Y0322620D01*
X0104707Y0322679D01*
X0104702Y0322740D01*
X0104700Y0322800D01*
X0104700Y0329300D01*
X0108200Y0332300D02*
X0108198Y0332495D01*
X0108191Y0332690D01*
X0108179Y0332884D01*
X0108162Y0333078D01*
X0108141Y0333272D01*
X0108115Y0333465D01*
X0108084Y0333657D01*
X0108049Y0333849D01*
X0108009Y0334039D01*
X0107964Y0334229D01*
X0107915Y0334418D01*
X0107861Y0334605D01*
X0107802Y0334791D01*
X0107740Y0334975D01*
X0107672Y0335158D01*
X0107600Y0335339D01*
X0107524Y0335518D01*
X0107444Y0335696D01*
X0107359Y0335871D01*
X0107270Y0336044D01*
X0107176Y0336215D01*
X0107079Y0336384D01*
X0106977Y0336550D01*
X0106872Y0336714D01*
X0106763Y0336875D01*
X0106649Y0337034D01*
X0106532Y0337189D01*
X0106411Y0337342D01*
X0106286Y0337492D01*
X0106158Y0337639D01*
X0106026Y0337782D01*
X0105891Y0337922D01*
X0105753Y0338059D01*
X0105611Y0338193D01*
X0105466Y0338323D01*
X0105317Y0338449D01*
X0105166Y0338572D01*
X0105012Y0338691D01*
X0104855Y0338806D01*
X0104695Y0338918D01*
X0104533Y0339025D01*
X0104368Y0339129D01*
X0104200Y0339228D01*
X0104030Y0339324D01*
X0103858Y0339415D01*
X0103684Y0339502D01*
X0103507Y0339584D01*
X0103329Y0339663D01*
X0103149Y0339737D01*
X0102967Y0339806D01*
X0102783Y0339872D01*
X0102598Y0339932D01*
X0102411Y0339988D01*
X0102223Y0340040D01*
X0102034Y0340087D01*
X0101844Y0340129D01*
X0101653Y0340167D01*
X0101461Y0340200D01*
X0101268Y0340228D01*
X0101075Y0340252D01*
X0100881Y0340271D01*
X0100687Y0340285D01*
X0100492Y0340295D01*
X0100297Y0340299D01*
X0100103Y0340299D01*
X0099908Y0340295D01*
X0099713Y0340285D01*
X0099519Y0340271D01*
X0099325Y0340252D01*
X0099132Y0340228D01*
X0098939Y0340200D01*
X0098747Y0340167D01*
X0098556Y0340129D01*
X0098366Y0340087D01*
X0098177Y0340040D01*
X0097989Y0339988D01*
X0097802Y0339932D01*
X0097617Y0339872D01*
X0097433Y0339806D01*
X0097251Y0339737D01*
X0097071Y0339663D01*
X0096893Y0339584D01*
X0096716Y0339502D01*
X0096542Y0339415D01*
X0096370Y0339324D01*
X0096200Y0339228D01*
X0096032Y0339129D01*
X0095867Y0339025D01*
X0095705Y0338918D01*
X0095545Y0338806D01*
X0095388Y0338691D01*
X0095234Y0338572D01*
X0095083Y0338449D01*
X0094934Y0338323D01*
X0094789Y0338193D01*
X0094647Y0338059D01*
X0094509Y0337922D01*
X0094374Y0337782D01*
X0094242Y0337639D01*
X0094114Y0337492D01*
X0093989Y0337342D01*
X0093868Y0337189D01*
X0093751Y0337034D01*
X0093637Y0336875D01*
X0093528Y0336714D01*
X0093423Y0336550D01*
X0093321Y0336384D01*
X0093224Y0336215D01*
X0093130Y0336044D01*
X0093041Y0335871D01*
X0092956Y0335696D01*
X0092876Y0335518D01*
X0092800Y0335339D01*
X0092728Y0335158D01*
X0092660Y0334975D01*
X0092598Y0334791D01*
X0092539Y0334605D01*
X0092485Y0334418D01*
X0092436Y0334229D01*
X0092391Y0334039D01*
X0092351Y0333849D01*
X0092316Y0333657D01*
X0092285Y0333465D01*
X0092259Y0333272D01*
X0092238Y0333078D01*
X0092221Y0332884D01*
X0092209Y0332690D01*
X0092202Y0332495D01*
X0092200Y0332300D01*
X0095700Y0329300D02*
X0095700Y0322800D01*
X0095698Y0322740D01*
X0095693Y0322679D01*
X0095684Y0322620D01*
X0095671Y0322561D01*
X0095655Y0322502D01*
X0095635Y0322445D01*
X0095612Y0322390D01*
X0095585Y0322335D01*
X0095556Y0322283D01*
X0095523Y0322232D01*
X0095487Y0322183D01*
X0095449Y0322137D01*
X0095407Y0322093D01*
X0095363Y0322051D01*
X0095317Y0322013D01*
X0095268Y0321977D01*
X0095217Y0321944D01*
X0095165Y0321915D01*
X0095110Y0321888D01*
X0095055Y0321865D01*
X0094998Y0321845D01*
X0094939Y0321829D01*
X0094880Y0321816D01*
X0094821Y0321807D01*
X0094760Y0321802D01*
X0094700Y0321800D01*
X0093200Y0321800D02*
X0093140Y0321802D01*
X0093079Y0321807D01*
X0093020Y0321816D01*
X0092961Y0321829D01*
X0092902Y0321845D01*
X0092845Y0321865D01*
X0092790Y0321888D01*
X0092735Y0321915D01*
X0092683Y0321944D01*
X0092632Y0321977D01*
X0092583Y0322013D01*
X0092537Y0322051D01*
X0092493Y0322093D01*
X0092451Y0322137D01*
X0092413Y0322183D01*
X0092377Y0322232D01*
X0092344Y0322283D01*
X0092315Y0322335D01*
X0092288Y0322390D01*
X0092265Y0322445D01*
X0092245Y0322502D01*
X0092229Y0322561D01*
X0092216Y0322620D01*
X0092207Y0322679D01*
X0092202Y0322740D01*
X0092200Y0322800D01*
X0088400Y0321300D02*
X0072400Y0321300D01*
X0072400Y0340800D01*
X0088400Y0340800D01*
X0088400Y0321300D01*
X0087400Y0321800D02*
X0073400Y0321800D01*
X0073340Y0321802D01*
X0073279Y0321807D01*
X0073220Y0321816D01*
X0073161Y0321829D01*
X0073102Y0321845D01*
X0073045Y0321865D01*
X0072990Y0321888D01*
X0072935Y0321915D01*
X0072883Y0321944D01*
X0072832Y0321977D01*
X0072783Y0322013D01*
X0072737Y0322051D01*
X0072693Y0322093D01*
X0072651Y0322137D01*
X0072613Y0322183D01*
X0072577Y0322232D01*
X0072544Y0322283D01*
X0072515Y0322335D01*
X0072488Y0322390D01*
X0072465Y0322445D01*
X0072445Y0322502D01*
X0072429Y0322561D01*
X0072416Y0322620D01*
X0072407Y0322679D01*
X0072402Y0322740D01*
X0072400Y0322800D01*
X0074900Y0321800D02*
X0074960Y0321802D01*
X0075021Y0321807D01*
X0075080Y0321816D01*
X0075139Y0321829D01*
X0075198Y0321845D01*
X0075255Y0321865D01*
X0075310Y0321888D01*
X0075365Y0321915D01*
X0075417Y0321944D01*
X0075468Y0321977D01*
X0075517Y0322013D01*
X0075563Y0322051D01*
X0075607Y0322093D01*
X0075649Y0322137D01*
X0075687Y0322183D01*
X0075723Y0322232D01*
X0075756Y0322283D01*
X0075785Y0322335D01*
X0075812Y0322390D01*
X0075835Y0322445D01*
X0075855Y0322502D01*
X0075871Y0322561D01*
X0075884Y0322620D01*
X0075893Y0322679D01*
X0075898Y0322740D01*
X0075900Y0322800D01*
X0075900Y0329300D01*
X0072400Y0332300D02*
X0072402Y0332495D01*
X0072409Y0332690D01*
X0072421Y0332884D01*
X0072438Y0333078D01*
X0072459Y0333272D01*
X0072485Y0333465D01*
X0072516Y0333657D01*
X0072551Y0333849D01*
X0072591Y0334039D01*
X0072636Y0334229D01*
X0072685Y0334418D01*
X0072739Y0334605D01*
X0072798Y0334791D01*
X0072860Y0334975D01*
X0072928Y0335158D01*
X0073000Y0335339D01*
X0073076Y0335518D01*
X0073156Y0335696D01*
X0073241Y0335871D01*
X0073330Y0336044D01*
X0073424Y0336215D01*
X0073521Y0336384D01*
X0073623Y0336550D01*
X0073728Y0336714D01*
X0073837Y0336875D01*
X0073951Y0337034D01*
X0074068Y0337189D01*
X0074189Y0337342D01*
X0074314Y0337492D01*
X0074442Y0337639D01*
X0074574Y0337782D01*
X0074709Y0337922D01*
X0074847Y0338059D01*
X0074989Y0338193D01*
X0075134Y0338323D01*
X0075283Y0338449D01*
X0075434Y0338572D01*
X0075588Y0338691D01*
X0075745Y0338806D01*
X0075905Y0338918D01*
X0076067Y0339025D01*
X0076232Y0339129D01*
X0076400Y0339228D01*
X0076570Y0339324D01*
X0076742Y0339415D01*
X0076916Y0339502D01*
X0077093Y0339584D01*
X0077271Y0339663D01*
X0077451Y0339737D01*
X0077633Y0339806D01*
X0077817Y0339872D01*
X0078002Y0339932D01*
X0078189Y0339988D01*
X0078377Y0340040D01*
X0078566Y0340087D01*
X0078756Y0340129D01*
X0078947Y0340167D01*
X0079139Y0340200D01*
X0079332Y0340228D01*
X0079525Y0340252D01*
X0079719Y0340271D01*
X0079913Y0340285D01*
X0080108Y0340295D01*
X0080303Y0340299D01*
X0080497Y0340299D01*
X0080692Y0340295D01*
X0080887Y0340285D01*
X0081081Y0340271D01*
X0081275Y0340252D01*
X0081468Y0340228D01*
X0081661Y0340200D01*
X0081853Y0340167D01*
X0082044Y0340129D01*
X0082234Y0340087D01*
X0082423Y0340040D01*
X0082611Y0339988D01*
X0082798Y0339932D01*
X0082983Y0339872D01*
X0083167Y0339806D01*
X0083349Y0339737D01*
X0083529Y0339663D01*
X0083707Y0339584D01*
X0083884Y0339502D01*
X0084058Y0339415D01*
X0084230Y0339324D01*
X0084400Y0339228D01*
X0084568Y0339129D01*
X0084733Y0339025D01*
X0084895Y0338918D01*
X0085055Y0338806D01*
X0085212Y0338691D01*
X0085366Y0338572D01*
X0085517Y0338449D01*
X0085666Y0338323D01*
X0085811Y0338193D01*
X0085953Y0338059D01*
X0086091Y0337922D01*
X0086226Y0337782D01*
X0086358Y0337639D01*
X0086486Y0337492D01*
X0086611Y0337342D01*
X0086732Y0337189D01*
X0086849Y0337034D01*
X0086963Y0336875D01*
X0087072Y0336714D01*
X0087177Y0336550D01*
X0087279Y0336384D01*
X0087376Y0336215D01*
X0087470Y0336044D01*
X0087559Y0335871D01*
X0087644Y0335696D01*
X0087724Y0335518D01*
X0087800Y0335339D01*
X0087872Y0335158D01*
X0087940Y0334975D01*
X0088002Y0334791D01*
X0088061Y0334605D01*
X0088115Y0334418D01*
X0088164Y0334229D01*
X0088209Y0334039D01*
X0088249Y0333849D01*
X0088284Y0333657D01*
X0088315Y0333465D01*
X0088341Y0333272D01*
X0088362Y0333078D01*
X0088379Y0332884D01*
X0088391Y0332690D01*
X0088398Y0332495D01*
X0088400Y0332300D01*
X0084900Y0329300D02*
X0084900Y0322800D01*
X0084902Y0322740D01*
X0084907Y0322679D01*
X0084916Y0322620D01*
X0084929Y0322561D01*
X0084945Y0322502D01*
X0084965Y0322445D01*
X0084988Y0322390D01*
X0085015Y0322335D01*
X0085044Y0322283D01*
X0085077Y0322232D01*
X0085113Y0322183D01*
X0085151Y0322137D01*
X0085193Y0322093D01*
X0085237Y0322051D01*
X0085283Y0322013D01*
X0085332Y0321977D01*
X0085383Y0321944D01*
X0085435Y0321915D01*
X0085490Y0321888D01*
X0085545Y0321865D01*
X0085602Y0321845D01*
X0085661Y0321829D01*
X0085720Y0321816D01*
X0085779Y0321807D01*
X0085840Y0321802D01*
X0085900Y0321800D01*
X0087400Y0321800D02*
X0087460Y0321802D01*
X0087521Y0321807D01*
X0087580Y0321816D01*
X0087639Y0321829D01*
X0087698Y0321845D01*
X0087755Y0321865D01*
X0087810Y0321888D01*
X0087865Y0321915D01*
X0087917Y0321944D01*
X0087968Y0321977D01*
X0088017Y0322013D01*
X0088063Y0322051D01*
X0088107Y0322093D01*
X0088149Y0322137D01*
X0088187Y0322183D01*
X0088223Y0322232D01*
X0088256Y0322283D01*
X0088285Y0322335D01*
X0088312Y0322390D01*
X0088335Y0322445D01*
X0088355Y0322502D01*
X0088371Y0322561D01*
X0088384Y0322620D01*
X0088393Y0322679D01*
X0088398Y0322740D01*
X0088400Y0322800D01*
X0070300Y0318800D02*
X0070300Y0343300D01*
X0110300Y0343300D01*
X0105870Y0347803D02*
X0101600Y0347803D01*
X0075870Y0347803D02*
X0071600Y0347803D01*
X0073735Y0349938D02*
X0073735Y0345668D01*
X0057300Y0276300D02*
X0019300Y0276300D01*
X0019300Y0256300D01*
X0057300Y0256300D01*
X0057300Y0276300D01*
X0057300Y0251300D02*
X0057300Y0231300D01*
X0019300Y0231300D01*
X0019300Y0251300D01*
X0057300Y0251300D01*
X0057300Y0226300D02*
X0057300Y0206300D01*
X0019300Y0206300D01*
X0019300Y0226300D01*
X0057300Y0226300D01*
X0120800Y0222500D02*
X0120800Y0200100D01*
X0065300Y0163300D02*
X0065303Y0163570D01*
X0065313Y0163840D01*
X0065330Y0164109D01*
X0065353Y0164378D01*
X0065383Y0164647D01*
X0065419Y0164914D01*
X0065462Y0165181D01*
X0065511Y0165446D01*
X0065567Y0165710D01*
X0065630Y0165973D01*
X0065698Y0166234D01*
X0065774Y0166493D01*
X0065855Y0166750D01*
X0065943Y0167006D01*
X0066037Y0167259D01*
X0066137Y0167510D01*
X0066244Y0167758D01*
X0066356Y0168003D01*
X0066475Y0168246D01*
X0066599Y0168485D01*
X0066729Y0168722D01*
X0066865Y0168955D01*
X0067007Y0169185D01*
X0067154Y0169411D01*
X0067307Y0169634D01*
X0067465Y0169853D01*
X0067628Y0170068D01*
X0067797Y0170278D01*
X0067971Y0170485D01*
X0068150Y0170687D01*
X0068333Y0170885D01*
X0068522Y0171078D01*
X0068715Y0171267D01*
X0068913Y0171450D01*
X0069115Y0171629D01*
X0069322Y0171803D01*
X0069532Y0171972D01*
X0069747Y0172135D01*
X0069966Y0172293D01*
X0070189Y0172446D01*
X0070415Y0172593D01*
X0070645Y0172735D01*
X0070878Y0172871D01*
X0071115Y0173001D01*
X0071354Y0173125D01*
X0071597Y0173244D01*
X0071842Y0173356D01*
X0072090Y0173463D01*
X0072341Y0173563D01*
X0072594Y0173657D01*
X0072850Y0173745D01*
X0073107Y0173826D01*
X0073366Y0173902D01*
X0073627Y0173970D01*
X0073890Y0174033D01*
X0074154Y0174089D01*
X0074419Y0174138D01*
X0074686Y0174181D01*
X0074953Y0174217D01*
X0075222Y0174247D01*
X0075491Y0174270D01*
X0075760Y0174287D01*
X0076030Y0174297D01*
X0076300Y0174300D01*
X0076570Y0174297D01*
X0076840Y0174287D01*
X0077109Y0174270D01*
X0077378Y0174247D01*
X0077647Y0174217D01*
X0077914Y0174181D01*
X0078181Y0174138D01*
X0078446Y0174089D01*
X0078710Y0174033D01*
X0078973Y0173970D01*
X0079234Y0173902D01*
X0079493Y0173826D01*
X0079750Y0173745D01*
X0080006Y0173657D01*
X0080259Y0173563D01*
X0080510Y0173463D01*
X0080758Y0173356D01*
X0081003Y0173244D01*
X0081246Y0173125D01*
X0081485Y0173001D01*
X0081722Y0172871D01*
X0081955Y0172735D01*
X0082185Y0172593D01*
X0082411Y0172446D01*
X0082634Y0172293D01*
X0082853Y0172135D01*
X0083068Y0171972D01*
X0083278Y0171803D01*
X0083485Y0171629D01*
X0083687Y0171450D01*
X0083885Y0171267D01*
X0084078Y0171078D01*
X0084267Y0170885D01*
X0084450Y0170687D01*
X0084629Y0170485D01*
X0084803Y0170278D01*
X0084972Y0170068D01*
X0085135Y0169853D01*
X0085293Y0169634D01*
X0085446Y0169411D01*
X0085593Y0169185D01*
X0085735Y0168955D01*
X0085871Y0168722D01*
X0086001Y0168485D01*
X0086125Y0168246D01*
X0086244Y0168003D01*
X0086356Y0167758D01*
X0086463Y0167510D01*
X0086563Y0167259D01*
X0086657Y0167006D01*
X0086745Y0166750D01*
X0086826Y0166493D01*
X0086902Y0166234D01*
X0086970Y0165973D01*
X0087033Y0165710D01*
X0087089Y0165446D01*
X0087138Y0165181D01*
X0087181Y0164914D01*
X0087217Y0164647D01*
X0087247Y0164378D01*
X0087270Y0164109D01*
X0087287Y0163840D01*
X0087297Y0163570D01*
X0087300Y0163300D01*
X0087297Y0163030D01*
X0087287Y0162760D01*
X0087270Y0162491D01*
X0087247Y0162222D01*
X0087217Y0161953D01*
X0087181Y0161686D01*
X0087138Y0161419D01*
X0087089Y0161154D01*
X0087033Y0160890D01*
X0086970Y0160627D01*
X0086902Y0160366D01*
X0086826Y0160107D01*
X0086745Y0159850D01*
X0086657Y0159594D01*
X0086563Y0159341D01*
X0086463Y0159090D01*
X0086356Y0158842D01*
X0086244Y0158597D01*
X0086125Y0158354D01*
X0086001Y0158115D01*
X0085871Y0157878D01*
X0085735Y0157645D01*
X0085593Y0157415D01*
X0085446Y0157189D01*
X0085293Y0156966D01*
X0085135Y0156747D01*
X0084972Y0156532D01*
X0084803Y0156322D01*
X0084629Y0156115D01*
X0084450Y0155913D01*
X0084267Y0155715D01*
X0084078Y0155522D01*
X0083885Y0155333D01*
X0083687Y0155150D01*
X0083485Y0154971D01*
X0083278Y0154797D01*
X0083068Y0154628D01*
X0082853Y0154465D01*
X0082634Y0154307D01*
X0082411Y0154154D01*
X0082185Y0154007D01*
X0081955Y0153865D01*
X0081722Y0153729D01*
X0081485Y0153599D01*
X0081246Y0153475D01*
X0081003Y0153356D01*
X0080758Y0153244D01*
X0080510Y0153137D01*
X0080259Y0153037D01*
X0080006Y0152943D01*
X0079750Y0152855D01*
X0079493Y0152774D01*
X0079234Y0152698D01*
X0078973Y0152630D01*
X0078710Y0152567D01*
X0078446Y0152511D01*
X0078181Y0152462D01*
X0077914Y0152419D01*
X0077647Y0152383D01*
X0077378Y0152353D01*
X0077109Y0152330D01*
X0076840Y0152313D01*
X0076570Y0152303D01*
X0076300Y0152300D01*
X0076030Y0152303D01*
X0075760Y0152313D01*
X0075491Y0152330D01*
X0075222Y0152353D01*
X0074953Y0152383D01*
X0074686Y0152419D01*
X0074419Y0152462D01*
X0074154Y0152511D01*
X0073890Y0152567D01*
X0073627Y0152630D01*
X0073366Y0152698D01*
X0073107Y0152774D01*
X0072850Y0152855D01*
X0072594Y0152943D01*
X0072341Y0153037D01*
X0072090Y0153137D01*
X0071842Y0153244D01*
X0071597Y0153356D01*
X0071354Y0153475D01*
X0071115Y0153599D01*
X0070878Y0153729D01*
X0070645Y0153865D01*
X0070415Y0154007D01*
X0070189Y0154154D01*
X0069966Y0154307D01*
X0069747Y0154465D01*
X0069532Y0154628D01*
X0069322Y0154797D01*
X0069115Y0154971D01*
X0068913Y0155150D01*
X0068715Y0155333D01*
X0068522Y0155522D01*
X0068333Y0155715D01*
X0068150Y0155913D01*
X0067971Y0156115D01*
X0067797Y0156322D01*
X0067628Y0156532D01*
X0067465Y0156747D01*
X0067307Y0156966D01*
X0067154Y0157189D01*
X0067007Y0157415D01*
X0066865Y0157645D01*
X0066729Y0157878D01*
X0066599Y0158115D01*
X0066475Y0158354D01*
X0066356Y0158597D01*
X0066244Y0158842D01*
X0066137Y0159090D01*
X0066037Y0159341D01*
X0065943Y0159594D01*
X0065855Y0159850D01*
X0065774Y0160107D01*
X0065698Y0160366D01*
X0065630Y0160627D01*
X0065567Y0160890D01*
X0065511Y0161154D01*
X0065462Y0161419D01*
X0065419Y0161686D01*
X0065383Y0161953D01*
X0065353Y0162222D01*
X0065330Y0162491D01*
X0065313Y0162760D01*
X0065303Y0163030D01*
X0065300Y0163300D01*
X0075300Y0153800D02*
X0077300Y0153800D01*
X0076300Y0154800D02*
X0076300Y0152800D01*
X0350300Y0315800D02*
X0350300Y0319800D01*
X0350300Y0329300D01*
X0350300Y0332800D01*
X0358300Y0336300D02*
X0359300Y0336300D01*
X0359300Y0337300D01*
X0365300Y0337300D01*
X0365300Y0336300D01*
X0366300Y0336300D01*
X0374300Y0332800D02*
X0374300Y0329300D01*
X0374300Y0319300D01*
X0374300Y0315800D01*
X0366300Y0312300D02*
X0365300Y0312300D01*
X0365300Y0311300D01*
X0359300Y0311300D01*
X0359300Y0312300D01*
X0358300Y0312300D01*
X0361300Y0324300D02*
X0361302Y0324363D01*
X0361308Y0324425D01*
X0361318Y0324487D01*
X0361331Y0324549D01*
X0361349Y0324609D01*
X0361370Y0324668D01*
X0361395Y0324726D01*
X0361424Y0324782D01*
X0361456Y0324836D01*
X0361491Y0324888D01*
X0361529Y0324937D01*
X0361571Y0324985D01*
X0361615Y0325029D01*
X0361663Y0325071D01*
X0361712Y0325109D01*
X0361764Y0325144D01*
X0361818Y0325176D01*
X0361874Y0325205D01*
X0361932Y0325230D01*
X0361991Y0325251D01*
X0362051Y0325269D01*
X0362113Y0325282D01*
X0362175Y0325292D01*
X0362237Y0325298D01*
X0362300Y0325300D01*
X0362363Y0325298D01*
X0362425Y0325292D01*
X0362487Y0325282D01*
X0362549Y0325269D01*
X0362609Y0325251D01*
X0362668Y0325230D01*
X0362726Y0325205D01*
X0362782Y0325176D01*
X0362836Y0325144D01*
X0362888Y0325109D01*
X0362937Y0325071D01*
X0362985Y0325029D01*
X0363029Y0324985D01*
X0363071Y0324937D01*
X0363109Y0324888D01*
X0363144Y0324836D01*
X0363176Y0324782D01*
X0363205Y0324726D01*
X0363230Y0324668D01*
X0363251Y0324609D01*
X0363269Y0324549D01*
X0363282Y0324487D01*
X0363292Y0324425D01*
X0363298Y0324363D01*
X0363300Y0324300D01*
X0363298Y0324237D01*
X0363292Y0324175D01*
X0363282Y0324113D01*
X0363269Y0324051D01*
X0363251Y0323991D01*
X0363230Y0323932D01*
X0363205Y0323874D01*
X0363176Y0323818D01*
X0363144Y0323764D01*
X0363109Y0323712D01*
X0363071Y0323663D01*
X0363029Y0323615D01*
X0362985Y0323571D01*
X0362937Y0323529D01*
X0362888Y0323491D01*
X0362836Y0323456D01*
X0362782Y0323424D01*
X0362726Y0323395D01*
X0362668Y0323370D01*
X0362609Y0323349D01*
X0362549Y0323331D01*
X0362487Y0323318D01*
X0362425Y0323308D01*
X0362363Y0323302D01*
X0362300Y0323300D01*
X0362237Y0323302D01*
X0362175Y0323308D01*
X0362113Y0323318D01*
X0362051Y0323331D01*
X0361991Y0323349D01*
X0361932Y0323370D01*
X0361874Y0323395D01*
X0361818Y0323424D01*
X0361764Y0323456D01*
X0361712Y0323491D01*
X0361663Y0323529D01*
X0361615Y0323571D01*
X0361571Y0323615D01*
X0361529Y0323663D01*
X0361491Y0323712D01*
X0361456Y0323764D01*
X0361424Y0323818D01*
X0361395Y0323874D01*
X0361370Y0323932D01*
X0361349Y0323991D01*
X0361331Y0324051D01*
X0361318Y0324113D01*
X0361308Y0324175D01*
X0361302Y0324237D01*
X0361300Y0324300D01*
X0355300Y0324300D02*
X0355302Y0324472D01*
X0355308Y0324643D01*
X0355319Y0324815D01*
X0355334Y0324986D01*
X0355353Y0325157D01*
X0355376Y0325327D01*
X0355403Y0325497D01*
X0355435Y0325666D01*
X0355470Y0325834D01*
X0355510Y0326001D01*
X0355554Y0326167D01*
X0355601Y0326332D01*
X0355653Y0326496D01*
X0355709Y0326658D01*
X0355769Y0326819D01*
X0355833Y0326979D01*
X0355901Y0327137D01*
X0355972Y0327293D01*
X0356047Y0327447D01*
X0356127Y0327600D01*
X0356209Y0327750D01*
X0356296Y0327899D01*
X0356386Y0328045D01*
X0356480Y0328189D01*
X0356577Y0328331D01*
X0356678Y0328470D01*
X0356782Y0328607D01*
X0356889Y0328741D01*
X0357000Y0328872D01*
X0357113Y0329001D01*
X0357230Y0329127D01*
X0357350Y0329250D01*
X0357473Y0329370D01*
X0357599Y0329487D01*
X0357728Y0329600D01*
X0357859Y0329711D01*
X0357993Y0329818D01*
X0358130Y0329922D01*
X0358269Y0330023D01*
X0358411Y0330120D01*
X0358555Y0330214D01*
X0358701Y0330304D01*
X0358850Y0330391D01*
X0359000Y0330473D01*
X0359153Y0330553D01*
X0359307Y0330628D01*
X0359463Y0330699D01*
X0359621Y0330767D01*
X0359781Y0330831D01*
X0359942Y0330891D01*
X0360104Y0330947D01*
X0360268Y0330999D01*
X0360433Y0331046D01*
X0360599Y0331090D01*
X0360766Y0331130D01*
X0360934Y0331165D01*
X0361103Y0331197D01*
X0361273Y0331224D01*
X0361443Y0331247D01*
X0361614Y0331266D01*
X0361785Y0331281D01*
X0361957Y0331292D01*
X0362128Y0331298D01*
X0362300Y0331300D01*
X0362472Y0331298D01*
X0362643Y0331292D01*
X0362815Y0331281D01*
X0362986Y0331266D01*
X0363157Y0331247D01*
X0363327Y0331224D01*
X0363497Y0331197D01*
X0363666Y0331165D01*
X0363834Y0331130D01*
X0364001Y0331090D01*
X0364167Y0331046D01*
X0364332Y0330999D01*
X0364496Y0330947D01*
X0364658Y0330891D01*
X0364819Y0330831D01*
X0364979Y0330767D01*
X0365137Y0330699D01*
X0365293Y0330628D01*
X0365447Y0330553D01*
X0365600Y0330473D01*
X0365750Y0330391D01*
X0365899Y0330304D01*
X0366045Y0330214D01*
X0366189Y0330120D01*
X0366331Y0330023D01*
X0366470Y0329922D01*
X0366607Y0329818D01*
X0366741Y0329711D01*
X0366872Y0329600D01*
X0367001Y0329487D01*
X0367127Y0329370D01*
X0367250Y0329250D01*
X0367370Y0329127D01*
X0367487Y0329001D01*
X0367600Y0328872D01*
X0367711Y0328741D01*
X0367818Y0328607D01*
X0367922Y0328470D01*
X0368023Y0328331D01*
X0368120Y0328189D01*
X0368214Y0328045D01*
X0368304Y0327899D01*
X0368391Y0327750D01*
X0368473Y0327600D01*
X0368553Y0327447D01*
X0368628Y0327293D01*
X0368699Y0327137D01*
X0368767Y0326979D01*
X0368831Y0326819D01*
X0368891Y0326658D01*
X0368947Y0326496D01*
X0368999Y0326332D01*
X0369046Y0326167D01*
X0369090Y0326001D01*
X0369130Y0325834D01*
X0369165Y0325666D01*
X0369197Y0325497D01*
X0369224Y0325327D01*
X0369247Y0325157D01*
X0369266Y0324986D01*
X0369281Y0324815D01*
X0369292Y0324643D01*
X0369298Y0324472D01*
X0369300Y0324300D01*
X0369298Y0324128D01*
X0369292Y0323957D01*
X0369281Y0323785D01*
X0369266Y0323614D01*
X0369247Y0323443D01*
X0369224Y0323273D01*
X0369197Y0323103D01*
X0369165Y0322934D01*
X0369130Y0322766D01*
X0369090Y0322599D01*
X0369046Y0322433D01*
X0368999Y0322268D01*
X0368947Y0322104D01*
X0368891Y0321942D01*
X0368831Y0321781D01*
X0368767Y0321621D01*
X0368699Y0321463D01*
X0368628Y0321307D01*
X0368553Y0321153D01*
X0368473Y0321000D01*
X0368391Y0320850D01*
X0368304Y0320701D01*
X0368214Y0320555D01*
X0368120Y0320411D01*
X0368023Y0320269D01*
X0367922Y0320130D01*
X0367818Y0319993D01*
X0367711Y0319859D01*
X0367600Y0319728D01*
X0367487Y0319599D01*
X0367370Y0319473D01*
X0367250Y0319350D01*
X0367127Y0319230D01*
X0367001Y0319113D01*
X0366872Y0319000D01*
X0366741Y0318889D01*
X0366607Y0318782D01*
X0366470Y0318678D01*
X0366331Y0318577D01*
X0366189Y0318480D01*
X0366045Y0318386D01*
X0365899Y0318296D01*
X0365750Y0318209D01*
X0365600Y0318127D01*
X0365447Y0318047D01*
X0365293Y0317972D01*
X0365137Y0317901D01*
X0364979Y0317833D01*
X0364819Y0317769D01*
X0364658Y0317709D01*
X0364496Y0317653D01*
X0364332Y0317601D01*
X0364167Y0317554D01*
X0364001Y0317510D01*
X0363834Y0317470D01*
X0363666Y0317435D01*
X0363497Y0317403D01*
X0363327Y0317376D01*
X0363157Y0317353D01*
X0362986Y0317334D01*
X0362815Y0317319D01*
X0362643Y0317308D01*
X0362472Y0317302D01*
X0362300Y0317300D01*
X0362128Y0317302D01*
X0361957Y0317308D01*
X0361785Y0317319D01*
X0361614Y0317334D01*
X0361443Y0317353D01*
X0361273Y0317376D01*
X0361103Y0317403D01*
X0360934Y0317435D01*
X0360766Y0317470D01*
X0360599Y0317510D01*
X0360433Y0317554D01*
X0360268Y0317601D01*
X0360104Y0317653D01*
X0359942Y0317709D01*
X0359781Y0317769D01*
X0359621Y0317833D01*
X0359463Y0317901D01*
X0359307Y0317972D01*
X0359153Y0318047D01*
X0359000Y0318127D01*
X0358850Y0318209D01*
X0358701Y0318296D01*
X0358555Y0318386D01*
X0358411Y0318480D01*
X0358269Y0318577D01*
X0358130Y0318678D01*
X0357993Y0318782D01*
X0357859Y0318889D01*
X0357728Y0319000D01*
X0357599Y0319113D01*
X0357473Y0319230D01*
X0357350Y0319350D01*
X0357230Y0319473D01*
X0357113Y0319599D01*
X0357000Y0319728D01*
X0356889Y0319859D01*
X0356782Y0319993D01*
X0356678Y0320130D01*
X0356577Y0320269D01*
X0356480Y0320411D01*
X0356386Y0320555D01*
X0356296Y0320701D01*
X0356209Y0320850D01*
X0356127Y0321000D01*
X0356047Y0321153D01*
X0355972Y0321307D01*
X0355901Y0321463D01*
X0355833Y0321621D01*
X0355769Y0321781D01*
X0355709Y0321942D01*
X0355653Y0322104D01*
X0355601Y0322268D01*
X0355554Y0322433D01*
X0355510Y0322599D01*
X0355470Y0322766D01*
X0355435Y0322934D01*
X0355403Y0323103D01*
X0355376Y0323273D01*
X0355353Y0323443D01*
X0355334Y0323614D01*
X0355319Y0323785D01*
X0355308Y0323957D01*
X0355302Y0324128D01*
X0355300Y0324300D01*
D12*
X0332600Y0307408D02*
X0332600Y0306040D01*
X0331916Y0305356D01*
X0330548Y0305356D02*
X0329864Y0306724D01*
X0329864Y0307408D01*
X0330548Y0308092D01*
X0331916Y0308092D01*
X0332600Y0307408D01*
X0330548Y0305356D02*
X0328496Y0305356D01*
X0328496Y0308092D01*
X0329180Y0303949D02*
X0331916Y0301213D01*
X0332600Y0301897D01*
X0332600Y0303265D01*
X0331916Y0303949D01*
X0329180Y0303949D01*
X0328496Y0303265D01*
X0328496Y0301897D01*
X0329180Y0301213D01*
X0331916Y0301213D01*
X0331916Y0299805D02*
X0332600Y0299121D01*
X0332600Y0297753D01*
X0331916Y0297069D01*
X0331232Y0297069D01*
X0330548Y0297753D01*
X0330548Y0299121D01*
X0331232Y0299805D01*
X0331916Y0299805D01*
X0330548Y0299121D02*
X0329864Y0299805D01*
X0329180Y0299805D01*
X0328496Y0299121D01*
X0328496Y0297753D01*
X0329180Y0297069D01*
X0329864Y0297069D01*
X0330548Y0297753D01*
X0329180Y0295662D02*
X0331916Y0292926D01*
X0332600Y0292926D01*
X0328496Y0292926D02*
X0328496Y0295662D01*
X0329180Y0295662D01*
X0288100Y0269438D02*
X0288100Y0267904D01*
X0287333Y0267136D01*
X0288100Y0265602D02*
X0288100Y0262532D01*
X0288100Y0260998D02*
X0286565Y0259463D01*
X0286565Y0260230D02*
X0286565Y0257928D01*
X0288100Y0257928D02*
X0283496Y0257928D01*
X0283496Y0260230D01*
X0284263Y0260998D01*
X0285798Y0260998D01*
X0286565Y0260230D01*
X0285031Y0262532D02*
X0283496Y0264067D01*
X0288100Y0264067D01*
X0284263Y0267136D02*
X0283496Y0267904D01*
X0283496Y0269438D01*
X0284263Y0270205D01*
X0285031Y0270205D01*
X0285798Y0269438D01*
X0286565Y0270205D01*
X0287333Y0270205D01*
X0288100Y0269438D01*
X0285798Y0269438D02*
X0285798Y0268671D01*
X0263200Y0267333D02*
X0263200Y0264264D01*
X0263200Y0265798D02*
X0258596Y0265798D01*
X0260131Y0264264D01*
X0260898Y0262729D02*
X0261665Y0261962D01*
X0261665Y0259660D01*
X0261665Y0261194D02*
X0263200Y0262729D01*
X0260898Y0262729D02*
X0259363Y0262729D01*
X0258596Y0261962D01*
X0258596Y0259660D01*
X0263200Y0259660D01*
X0260898Y0268868D02*
X0260898Y0271937D01*
X0258596Y0271170D02*
X0260898Y0268868D01*
X0263200Y0271170D02*
X0258596Y0271170D01*
X0239100Y0251770D02*
X0238333Y0252537D01*
X0236798Y0252537D01*
X0236031Y0251770D01*
X0236031Y0251002D01*
X0236798Y0249468D01*
X0234496Y0249468D01*
X0234496Y0252537D01*
X0239100Y0251770D02*
X0239100Y0250235D01*
X0238333Y0249468D01*
X0239100Y0247933D02*
X0239100Y0244864D01*
X0239100Y0246398D02*
X0234496Y0246398D01*
X0236031Y0244864D01*
X0236798Y0243329D02*
X0237565Y0242562D01*
X0237565Y0240260D01*
X0237565Y0241794D02*
X0239100Y0243329D01*
X0236798Y0243329D02*
X0235263Y0243329D01*
X0234496Y0242562D01*
X0234496Y0240260D01*
X0239100Y0240260D01*
X0180219Y0235000D02*
X0177817Y0235000D01*
X0177817Y0238603D01*
X0176536Y0237402D02*
X0175335Y0238603D01*
X0174134Y0237402D01*
X0174134Y0235000D01*
X0174134Y0236802D02*
X0176536Y0236802D01*
X0176536Y0237402D02*
X0176536Y0235000D01*
X0171652Y0235000D02*
X0171652Y0238603D01*
X0170451Y0238603D02*
X0172853Y0238603D01*
X0169169Y0238003D02*
X0168569Y0238603D01*
X0167368Y0238603D01*
X0166767Y0238003D01*
X0166767Y0237402D01*
X0167368Y0236802D01*
X0168569Y0236802D01*
X0169169Y0236201D01*
X0169169Y0235601D01*
X0168569Y0235000D01*
X0167368Y0235000D01*
X0166767Y0235601D01*
X0164285Y0235000D02*
X0164285Y0236802D01*
X0165486Y0238003D01*
X0165486Y0238603D01*
X0164285Y0236802D02*
X0163084Y0238003D01*
X0163084Y0238603D01*
X0161803Y0238003D02*
X0161803Y0236802D01*
X0161203Y0236201D01*
X0159401Y0236201D01*
X0159401Y0235000D02*
X0159401Y0238603D01*
X0161203Y0238603D01*
X0161803Y0238003D01*
X0160602Y0236201D02*
X0161803Y0235000D01*
X0158120Y0235601D02*
X0157520Y0235000D01*
X0156318Y0235000D01*
X0155718Y0235601D01*
X0155718Y0238003D01*
X0156318Y0238603D01*
X0157520Y0238603D01*
X0158120Y0238003D01*
X0157249Y0270700D02*
X0157249Y0274303D01*
X0155968Y0273703D02*
X0155368Y0274303D01*
X0154167Y0274303D01*
X0153566Y0273703D01*
X0153566Y0271301D01*
X0154167Y0270700D01*
X0155368Y0270700D01*
X0155968Y0271301D01*
X0157249Y0271901D02*
X0159651Y0274303D01*
X0160933Y0274303D02*
X0160933Y0270700D01*
X0163335Y0270700D01*
X0164616Y0270700D02*
X0165817Y0270700D01*
X0165216Y0270700D02*
X0165216Y0274303D01*
X0164616Y0274303D02*
X0165817Y0274303D01*
X0167071Y0273703D02*
X0167071Y0271301D01*
X0167672Y0270700D01*
X0168873Y0270700D01*
X0169473Y0271301D01*
X0169473Y0272502D01*
X0168272Y0272502D01*
X0167071Y0273703D02*
X0167672Y0274303D01*
X0168873Y0274303D01*
X0169473Y0273703D01*
X0170754Y0274303D02*
X0170754Y0270700D01*
X0170754Y0272502D02*
X0173156Y0272502D01*
X0173156Y0274303D02*
X0173156Y0270700D01*
X0175638Y0270700D02*
X0175638Y0274303D01*
X0174437Y0274303D02*
X0176839Y0274303D01*
X0159651Y0270700D02*
X0157850Y0272502D01*
X0152285Y0272502D02*
X0149883Y0272502D01*
X0149883Y0273102D02*
X0149883Y0270700D01*
X0148602Y0271301D02*
X0148002Y0270700D01*
X0146200Y0270700D01*
X0146200Y0274303D01*
X0148002Y0274303D01*
X0148602Y0273703D01*
X0148602Y0273102D01*
X0148002Y0272502D01*
X0146200Y0272502D01*
X0148002Y0272502D02*
X0148602Y0271901D01*
X0148602Y0271301D01*
X0149883Y0273102D02*
X0151084Y0274303D01*
X0152285Y0273102D01*
X0152285Y0270700D01*
X0189496Y0292926D02*
X0189496Y0295662D01*
X0190180Y0295662D01*
X0192916Y0292926D01*
X0193600Y0292926D01*
X0192916Y0297069D02*
X0192232Y0297069D01*
X0191548Y0297753D01*
X0191548Y0299121D01*
X0192232Y0299805D01*
X0192916Y0299805D01*
X0193600Y0299121D01*
X0193600Y0297753D01*
X0192916Y0297069D01*
X0191548Y0297753D02*
X0190864Y0297069D01*
X0190180Y0297069D01*
X0189496Y0297753D01*
X0189496Y0299121D01*
X0190180Y0299805D01*
X0190864Y0299805D01*
X0191548Y0299121D01*
X0190864Y0301213D02*
X0189496Y0302581D01*
X0193600Y0302581D01*
X0193600Y0301213D02*
X0193600Y0303949D01*
X0193600Y0305356D02*
X0190864Y0308092D01*
X0190180Y0308092D01*
X0189496Y0307408D01*
X0189496Y0306040D01*
X0190180Y0305356D01*
X0193600Y0305356D02*
X0193600Y0308092D01*
X0155902Y0342000D02*
X0153500Y0342000D01*
X0154701Y0342000D02*
X0154701Y0345603D01*
X0153500Y0344402D01*
X0152219Y0345003D02*
X0151618Y0345603D01*
X0150417Y0345603D01*
X0149817Y0345003D01*
X0149817Y0342601D01*
X0150417Y0342000D01*
X0151618Y0342000D01*
X0152219Y0342601D01*
X0238297Y0342348D02*
X0238297Y0344750D01*
X0238297Y0343549D02*
X0241900Y0343549D01*
X0241299Y0341067D02*
X0241900Y0340467D01*
X0241900Y0339266D01*
X0241299Y0338665D01*
X0238897Y0338665D01*
X0238297Y0339266D01*
X0238297Y0340467D01*
X0238897Y0341067D01*
X0238297Y0337384D02*
X0238297Y0334982D01*
X0241900Y0334982D01*
X0241900Y0337384D01*
X0240098Y0336183D02*
X0240098Y0334982D01*
X0241900Y0333701D02*
X0241900Y0331299D01*
X0238297Y0331299D01*
X0238297Y0330018D02*
X0238297Y0327616D01*
X0241900Y0327616D01*
X0241900Y0330018D01*
X0240098Y0328817D02*
X0240098Y0327616D01*
X0240699Y0326335D02*
X0241299Y0326335D01*
X0241900Y0325734D01*
X0241900Y0324533D01*
X0241299Y0323933D01*
X0240098Y0324533D02*
X0240098Y0325734D01*
X0240699Y0326335D01*
X0238897Y0326335D02*
X0238297Y0325734D01*
X0238297Y0324533D01*
X0238897Y0323933D01*
X0239498Y0323933D01*
X0240098Y0324533D01*
X0242501Y0322651D02*
X0242501Y0320249D01*
X0241900Y0318968D02*
X0238297Y0318968D01*
X0238297Y0316566D02*
X0241900Y0316566D01*
X0240699Y0317767D01*
X0241900Y0318968D01*
X0241299Y0315285D02*
X0238897Y0315285D01*
X0238297Y0314685D01*
X0238297Y0313484D01*
X0238897Y0312883D01*
X0241299Y0312883D01*
X0241900Y0313484D01*
X0241900Y0314685D01*
X0241299Y0315285D01*
X0240098Y0311602D02*
X0240699Y0311002D01*
X0240699Y0309200D01*
X0241900Y0309200D02*
X0238297Y0309200D01*
X0238297Y0311002D01*
X0238897Y0311602D01*
X0240098Y0311602D01*
X0342496Y0253270D02*
X0342496Y0251735D01*
X0343263Y0250968D01*
X0342496Y0253270D02*
X0343263Y0254037D01*
X0344031Y0254037D01*
X0347100Y0250968D01*
X0347100Y0254037D01*
X0347100Y0249433D02*
X0347100Y0246364D01*
X0347100Y0247898D02*
X0342496Y0247898D01*
X0344031Y0246364D01*
X0344798Y0244829D02*
X0345565Y0244062D01*
X0345565Y0241760D01*
X0345565Y0243294D02*
X0347100Y0244829D01*
X0344798Y0244829D02*
X0343263Y0244829D01*
X0342496Y0244062D01*
X0342496Y0241760D01*
X0347100Y0241760D01*
X0285263Y0174037D02*
X0288333Y0170968D01*
X0289100Y0170968D01*
X0289100Y0169433D02*
X0289100Y0166364D01*
X0289100Y0167898D02*
X0284496Y0167898D01*
X0286031Y0166364D01*
X0286798Y0164829D02*
X0287565Y0164062D01*
X0287565Y0161760D01*
X0287565Y0163294D02*
X0289100Y0164829D01*
X0286798Y0164829D02*
X0285263Y0164829D01*
X0284496Y0164062D01*
X0284496Y0161760D01*
X0289100Y0161760D01*
X0284496Y0170968D02*
X0284496Y0174037D01*
X0285263Y0174037D01*
X0289995Y0126603D02*
X0292397Y0126603D01*
X0293678Y0126603D02*
X0296080Y0126603D01*
X0294879Y0126603D02*
X0294879Y0123000D01*
X0297361Y0123000D02*
X0297361Y0126603D01*
X0299163Y0126603D01*
X0299763Y0126003D01*
X0299763Y0123601D01*
X0299163Y0123000D01*
X0297361Y0123000D01*
X0301045Y0123000D02*
X0302246Y0123000D01*
X0301645Y0123000D02*
X0301645Y0126603D01*
X0301045Y0126603D02*
X0302246Y0126603D01*
X0291196Y0124802D02*
X0289995Y0124802D01*
X0289995Y0126603D02*
X0289995Y0123000D01*
X0212134Y0021871D02*
X0212134Y0021104D01*
X0212134Y0019569D02*
X0212134Y0016500D01*
X0211367Y0016500D02*
X0212901Y0016500D01*
X0214436Y0016500D02*
X0214436Y0019569D01*
X0214436Y0018035D02*
X0215970Y0019569D01*
X0216738Y0019569D01*
X0219040Y0019569D02*
X0220574Y0019569D01*
X0221342Y0018802D01*
X0221342Y0016500D01*
X0219040Y0016500D01*
X0218272Y0017267D01*
X0219040Y0018035D01*
X0221342Y0018035D01*
X0222876Y0018802D02*
X0222876Y0017267D01*
X0223644Y0016500D01*
X0225946Y0016500D01*
X0225946Y0015733D02*
X0225946Y0019569D01*
X0223644Y0019569D01*
X0222876Y0018802D01*
X0224411Y0014965D02*
X0225178Y0014965D01*
X0225946Y0015733D01*
X0219381Y0011337D02*
X0218614Y0012104D01*
X0217079Y0012104D01*
X0216312Y0011337D01*
X0216312Y0010569D01*
X0217079Y0009802D01*
X0218614Y0009802D01*
X0219381Y0009035D01*
X0219381Y0008267D01*
X0218614Y0007500D01*
X0217079Y0007500D01*
X0216312Y0008267D01*
X0214777Y0012104D02*
X0211708Y0007500D01*
X0210173Y0007500D02*
X0207104Y0007500D01*
X0210173Y0010569D01*
X0210173Y0011337D01*
X0209406Y0012104D01*
X0207871Y0012104D01*
X0207104Y0011337D01*
X0204035Y0012104D02*
X0204035Y0007500D01*
X0205569Y0007500D02*
X0202500Y0007500D01*
X0202500Y0010569D02*
X0204035Y0012104D01*
X0204461Y0016500D02*
X0205228Y0017267D01*
X0204461Y0016500D02*
X0202926Y0016500D01*
X0202159Y0017267D01*
X0202159Y0020337D01*
X0202926Y0021104D01*
X0204461Y0021104D01*
X0205228Y0020337D01*
X0206763Y0021104D02*
X0206763Y0016500D01*
X0206763Y0018802D02*
X0207530Y0019569D01*
X0209065Y0019569D01*
X0209832Y0018802D01*
X0209832Y0016500D01*
X0211367Y0019569D02*
X0212134Y0019569D01*
X0221683Y0010569D02*
X0223218Y0010569D01*
X0223985Y0009802D01*
X0223985Y0009035D01*
X0220916Y0009035D01*
X0220916Y0009802D02*
X0221683Y0010569D01*
X0220916Y0009802D02*
X0220916Y0008267D01*
X0221683Y0007500D01*
X0223218Y0007500D01*
X0225520Y0007500D02*
X0227822Y0007500D01*
X0228589Y0008267D01*
X0228589Y0009802D01*
X0227822Y0010569D01*
X0225520Y0010569D01*
X0225520Y0005965D01*
X0230124Y0007500D02*
X0233193Y0012104D01*
X0234727Y0010569D02*
X0236262Y0012104D01*
X0236262Y0007500D01*
X0234727Y0007500D02*
X0237797Y0007500D01*
X0239331Y0007500D02*
X0239331Y0008267D01*
X0242401Y0011337D01*
X0242401Y0012104D01*
X0239331Y0012104D01*
X0239757Y0016500D02*
X0239757Y0018802D01*
X0238990Y0019569D01*
X0237455Y0019569D01*
X0236688Y0018802D01*
X0235153Y0018035D02*
X0235153Y0017267D01*
X0234386Y0016500D01*
X0232852Y0016500D01*
X0232084Y0017267D01*
X0232852Y0018802D02*
X0234386Y0018802D01*
X0235153Y0018035D01*
X0236688Y0016500D02*
X0236688Y0021104D01*
X0235153Y0020337D02*
X0234386Y0021104D01*
X0232852Y0021104D01*
X0232084Y0020337D01*
X0232084Y0019569D01*
X0232852Y0018802D01*
X0241292Y0017267D02*
X0242059Y0018035D01*
X0244361Y0018035D01*
X0244361Y0018802D02*
X0244361Y0016500D01*
X0242059Y0016500D01*
X0241292Y0017267D01*
X0242059Y0019569D02*
X0243594Y0019569D01*
X0244361Y0018802D01*
X0245896Y0018802D02*
X0246663Y0019569D01*
X0248198Y0019569D01*
X0248965Y0018802D01*
X0248965Y0016500D01*
X0245896Y0016500D02*
X0245896Y0021104D01*
X0291500Y0012337D02*
X0291500Y0009267D01*
X0292267Y0008500D01*
X0293802Y0008500D01*
X0294569Y0009267D01*
X0296104Y0009267D02*
X0296104Y0010802D01*
X0296871Y0011569D01*
X0298406Y0011569D01*
X0299173Y0010802D01*
X0299173Y0009267D01*
X0298406Y0008500D01*
X0296871Y0008500D01*
X0296104Y0009267D01*
X0294569Y0012337D02*
X0293802Y0013104D01*
X0292267Y0013104D01*
X0291500Y0012337D01*
X0300708Y0011569D02*
X0300708Y0008500D01*
X0303777Y0008500D02*
X0303777Y0010802D01*
X0303010Y0011569D01*
X0300708Y0011569D01*
X0305312Y0010802D02*
X0306079Y0010035D01*
X0307614Y0010035D01*
X0308381Y0009267D01*
X0307614Y0008500D01*
X0305312Y0008500D01*
X0305312Y0010802D02*
X0306079Y0011569D01*
X0308381Y0011569D01*
X0309916Y0011569D02*
X0311450Y0011569D01*
X0310683Y0012337D02*
X0310683Y0009267D01*
X0311450Y0008500D01*
X0312985Y0009267D02*
X0313752Y0010035D01*
X0316054Y0010035D01*
X0316054Y0010802D02*
X0316054Y0008500D01*
X0313752Y0008500D01*
X0312985Y0009267D01*
X0313752Y0011569D02*
X0315287Y0011569D01*
X0316054Y0010802D01*
X0317589Y0011569D02*
X0319891Y0011569D01*
X0320658Y0010802D01*
X0320658Y0008500D01*
X0322960Y0009267D02*
X0323727Y0008500D01*
X0322960Y0009267D02*
X0322960Y0012337D01*
X0322193Y0011569D02*
X0323727Y0011569D01*
X0329866Y0012337D02*
X0329866Y0009267D01*
X0330633Y0008500D01*
X0332168Y0008500D01*
X0332935Y0009267D01*
X0334470Y0009267D02*
X0335237Y0008500D01*
X0337539Y0008500D01*
X0337539Y0011569D01*
X0339074Y0011569D02*
X0339074Y0008500D01*
X0339074Y0010035D02*
X0340609Y0011569D01*
X0341376Y0011569D01*
X0342910Y0011569D02*
X0342910Y0008500D01*
X0342910Y0010035D02*
X0344445Y0011569D01*
X0345212Y0011569D01*
X0346747Y0010802D02*
X0346747Y0009267D01*
X0347514Y0008500D01*
X0349049Y0008500D01*
X0349816Y0010035D02*
X0346747Y0010035D01*
X0346747Y0010802D02*
X0347514Y0011569D01*
X0349049Y0011569D01*
X0349816Y0010802D01*
X0349816Y0010035D01*
X0351351Y0011569D02*
X0353653Y0011569D01*
X0354420Y0010802D01*
X0354420Y0008500D01*
X0356722Y0009267D02*
X0356722Y0012337D01*
X0355955Y0011569D02*
X0357490Y0011569D01*
X0356722Y0009267D02*
X0357490Y0008500D01*
X0351351Y0008500D02*
X0351351Y0011569D01*
X0363628Y0013104D02*
X0363628Y0008500D01*
X0366697Y0008500D01*
X0368232Y0009267D02*
X0368999Y0008500D01*
X0370534Y0008500D01*
X0371301Y0009267D01*
X0371301Y0010802D01*
X0370534Y0011569D01*
X0368999Y0011569D01*
X0368232Y0010802D01*
X0368232Y0009267D01*
X0372836Y0009267D02*
X0373603Y0010035D01*
X0375905Y0010035D01*
X0375905Y0010802D02*
X0375905Y0008500D01*
X0373603Y0008500D01*
X0372836Y0009267D01*
X0373603Y0011569D02*
X0375138Y0011569D01*
X0375905Y0010802D01*
X0377440Y0010802D02*
X0378207Y0011569D01*
X0380509Y0011569D01*
X0380509Y0013104D02*
X0380509Y0008500D01*
X0378207Y0008500D01*
X0377440Y0009267D01*
X0377440Y0010802D01*
X0334470Y0011569D02*
X0334470Y0009267D01*
X0332935Y0012337D02*
X0332168Y0013104D01*
X0330633Y0013104D01*
X0329866Y0012337D01*
X0317589Y0011569D02*
X0317589Y0008500D01*
X0117067Y0079500D02*
X0117067Y0083103D01*
X0115866Y0083103D02*
X0118268Y0083103D01*
X0114585Y0083103D02*
X0112183Y0083103D01*
X0112183Y0079500D01*
X0114585Y0079500D01*
X0113384Y0081302D02*
X0112183Y0081302D01*
X0110902Y0083103D02*
X0108500Y0083103D01*
X0108500Y0079500D01*
X0107219Y0080101D02*
X0106618Y0079500D01*
X0105417Y0079500D01*
X0104817Y0080101D01*
X0103536Y0080101D02*
X0103536Y0082503D01*
X0102935Y0083103D01*
X0101734Y0083103D01*
X0101134Y0082503D01*
X0101134Y0080101D01*
X0101734Y0079500D01*
X0102935Y0079500D01*
X0103536Y0080101D01*
X0104817Y0081902D02*
X0105417Y0081302D01*
X0106618Y0081302D01*
X0107219Y0080701D01*
X0107219Y0080101D01*
X0108500Y0081302D02*
X0109701Y0081302D01*
X0107219Y0082503D02*
X0106618Y0083103D01*
X0105417Y0083103D01*
X0104817Y0082503D01*
X0104817Y0081902D01*
X0099853Y0083103D02*
X0099853Y0079500D01*
X0097451Y0079500D02*
X0097451Y0083103D01*
X0098652Y0081902D01*
X0099853Y0083103D01*
X0099100Y0241760D02*
X0094496Y0241760D01*
X0094496Y0244062D01*
X0095263Y0244829D01*
X0096798Y0244829D01*
X0097565Y0244062D01*
X0097565Y0241760D01*
X0097565Y0243294D02*
X0099100Y0244829D01*
X0099100Y0246364D02*
X0099100Y0249433D01*
X0099100Y0247898D02*
X0094496Y0247898D01*
X0096031Y0246364D01*
X0096798Y0250968D02*
X0096798Y0253270D01*
X0097565Y0254037D01*
X0098333Y0254037D01*
X0099100Y0253270D01*
X0099100Y0251735D01*
X0098333Y0250968D01*
X0096798Y0250968D01*
X0095263Y0252502D01*
X0094496Y0254037D01*
D13*
X0057017Y0290363D02*
X0048749Y0290363D01*
X0057017Y0290363D02*
X0057017Y0332489D01*
X0021583Y0332489D01*
X0021583Y0311623D01*
X0021583Y0293119D02*
X0021583Y0290363D01*
X0029851Y0290363D01*
X0134300Y0210738D02*
X0134300Y0205800D01*
X0134300Y0209503D02*
X0139238Y0209503D01*
X0139238Y0210738D02*
X0139238Y0205800D01*
X0139238Y0210738D02*
X0136769Y0213206D01*
X0134300Y0210738D01*
X0141850Y0213206D02*
X0146788Y0213206D01*
X0144319Y0213206D02*
X0144319Y0205800D01*
X0149401Y0205800D02*
X0149401Y0213206D01*
X0151870Y0210738D01*
X0154338Y0213206D01*
X0154338Y0205800D01*
X0156951Y0205800D02*
X0161889Y0205800D01*
X0164502Y0207034D02*
X0164502Y0211972D01*
X0165736Y0213206D01*
X0168205Y0213206D01*
X0169439Y0211972D01*
X0169439Y0209503D02*
X0166971Y0209503D01*
X0169439Y0209503D02*
X0169439Y0207034D01*
X0168205Y0205800D01*
X0165736Y0205800D01*
X0164502Y0207034D01*
X0159420Y0209503D02*
X0156951Y0209503D01*
X0156951Y0213206D02*
X0156951Y0205800D01*
X0156951Y0213206D02*
X0161889Y0213206D01*
X0172052Y0210738D02*
X0172052Y0205800D01*
X0172052Y0209503D02*
X0176990Y0209503D01*
X0176990Y0210738D02*
X0176990Y0205800D01*
X0179603Y0207034D02*
X0180837Y0205800D01*
X0183306Y0205800D01*
X0184540Y0207034D01*
X0184540Y0208269D01*
X0183306Y0209503D01*
X0182071Y0209503D01*
X0183306Y0209503D02*
X0184540Y0210738D01*
X0184540Y0211972D01*
X0183306Y0213206D01*
X0180837Y0213206D01*
X0179603Y0211972D01*
X0176990Y0210738D02*
X0174521Y0213206D01*
X0172052Y0210738D01*
X0187153Y0211972D02*
X0188387Y0213206D01*
X0190856Y0213206D01*
X0192091Y0211972D01*
X0192091Y0210738D01*
X0187153Y0205800D01*
X0192091Y0205800D01*
X0194704Y0207034D02*
X0194704Y0208269D01*
X0195938Y0209503D01*
X0198407Y0209503D01*
X0199641Y0208269D01*
X0199641Y0207034D01*
X0198407Y0205800D01*
X0195938Y0205800D01*
X0194704Y0207034D01*
X0195938Y0209503D02*
X0194704Y0210738D01*
X0194704Y0211972D01*
X0195938Y0213206D01*
X0198407Y0213206D01*
X0199641Y0211972D01*
X0199641Y0210738D01*
X0198407Y0209503D01*
X0202254Y0208269D02*
X0205957Y0208269D01*
X0207192Y0209503D01*
X0207192Y0211972D01*
X0205957Y0213206D01*
X0202254Y0213206D01*
X0202254Y0205800D01*
X0268800Y0139300D02*
X0273800Y0139300D01*
X0276300Y0136800D01*
X0278800Y0139300D01*
X0283800Y0139300D01*
X0286300Y0136800D01*
X0288800Y0139300D01*
X0293800Y0139300D01*
X0296300Y0136800D01*
X0298800Y0139300D01*
X0303800Y0139300D01*
X0306300Y0136800D01*
X0308800Y0139300D01*
X0313800Y0139300D01*
X0316300Y0136800D01*
X0318800Y0139300D01*
X0323800Y0139300D01*
X0326300Y0136800D01*
X0326300Y0131800D01*
X0323800Y0129300D01*
X0318800Y0129300D01*
X0316300Y0131800D01*
X0313800Y0129300D01*
X0308800Y0129300D01*
X0306300Y0131800D01*
X0303800Y0129300D01*
X0298800Y0129300D01*
X0296300Y0131800D01*
X0293800Y0129300D01*
X0288800Y0129300D01*
X0286300Y0131800D01*
X0283800Y0129300D01*
X0278800Y0129300D01*
X0276300Y0131800D01*
X0273800Y0129300D01*
X0268800Y0129300D01*
X0266300Y0131800D01*
X0266300Y0136800D01*
X0268800Y0139300D01*
X0128300Y0072800D02*
X0128300Y0063300D01*
X0128300Y0059300D01*
X0088300Y0059300D01*
X0088300Y0063300D01*
X0128300Y0063300D01*
X0128300Y0072800D02*
X0128301Y0072915D01*
X0128298Y0073030D01*
X0128291Y0073145D01*
X0128280Y0073260D01*
X0128265Y0073374D01*
X0128247Y0073488D01*
X0128225Y0073601D01*
X0128199Y0073714D01*
X0128169Y0073825D01*
X0128135Y0073935D01*
X0128098Y0074045D01*
X0128057Y0074152D01*
X0128012Y0074259D01*
X0127964Y0074363D01*
X0127912Y0074467D01*
X0127857Y0074568D01*
X0127798Y0074667D01*
X0127737Y0074765D01*
X0127671Y0074860D01*
X0127603Y0074953D01*
X0127532Y0075043D01*
X0127457Y0075131D01*
X0127380Y0075217D01*
X0127300Y0075300D01*
X0127217Y0075380D01*
X0127131Y0075457D01*
X0127043Y0075532D01*
X0126953Y0075603D01*
X0126860Y0075671D01*
X0126765Y0075737D01*
X0126667Y0075798D01*
X0126568Y0075857D01*
X0126467Y0075912D01*
X0126363Y0075964D01*
X0126259Y0076012D01*
X0126152Y0076057D01*
X0126045Y0076098D01*
X0125935Y0076135D01*
X0125825Y0076169D01*
X0125714Y0076199D01*
X0125601Y0076225D01*
X0125488Y0076247D01*
X0125374Y0076265D01*
X0125260Y0076280D01*
X0125145Y0076291D01*
X0125030Y0076298D01*
X0124915Y0076301D01*
X0124800Y0076300D01*
X0123300Y0076300D01*
X0093300Y0076300D02*
X0091800Y0076300D01*
X0091685Y0076301D01*
X0091570Y0076298D01*
X0091455Y0076291D01*
X0091340Y0076280D01*
X0091226Y0076265D01*
X0091112Y0076247D01*
X0090999Y0076225D01*
X0090886Y0076199D01*
X0090775Y0076169D01*
X0090665Y0076135D01*
X0090555Y0076098D01*
X0090448Y0076057D01*
X0090341Y0076012D01*
X0090237Y0075964D01*
X0090133Y0075912D01*
X0090032Y0075857D01*
X0089933Y0075798D01*
X0089835Y0075737D01*
X0089740Y0075671D01*
X0089647Y0075603D01*
X0089557Y0075532D01*
X0089469Y0075457D01*
X0089383Y0075380D01*
X0089300Y0075300D01*
X0089220Y0075217D01*
X0089143Y0075131D01*
X0089068Y0075043D01*
X0088997Y0074953D01*
X0088929Y0074860D01*
X0088863Y0074765D01*
X0088802Y0074667D01*
X0088743Y0074568D01*
X0088688Y0074467D01*
X0088636Y0074363D01*
X0088588Y0074259D01*
X0088543Y0074152D01*
X0088502Y0074045D01*
X0088465Y0073935D01*
X0088431Y0073825D01*
X0088401Y0073714D01*
X0088375Y0073601D01*
X0088353Y0073488D01*
X0088335Y0073374D01*
X0088320Y0073260D01*
X0088309Y0073145D01*
X0088302Y0073030D01*
X0088299Y0072915D01*
X0088300Y0072800D01*
X0088300Y0063300D01*
X0057017Y0111536D02*
X0021583Y0111536D01*
X0021583Y0142639D01*
X0027489Y0142639D01*
X0027489Y0159961D01*
X0021583Y0159961D01*
X0021583Y0191064D01*
X0056623Y0191064D01*
X0057017Y0191064D02*
X0057017Y0111536D01*
X0021583Y0142639D02*
X0021583Y0159961D01*
X0028375Y0168800D02*
X0028375Y0173800D01*
X0163300Y0307800D02*
X0163300Y0312800D01*
X0165800Y0310300D02*
X0160800Y0310300D01*
X0133615Y0320300D02*
X0133621Y0320783D01*
X0133639Y0321266D01*
X0133668Y0321748D01*
X0133710Y0322229D01*
X0133763Y0322710D01*
X0133828Y0323188D01*
X0133905Y0323665D01*
X0133993Y0324140D01*
X0134093Y0324613D01*
X0134205Y0325083D01*
X0134328Y0325550D01*
X0134463Y0326014D01*
X0134609Y0326475D01*
X0134766Y0326932D01*
X0134934Y0327385D01*
X0135113Y0327833D01*
X0135304Y0328277D01*
X0135505Y0328716D01*
X0135717Y0329151D01*
X0135939Y0329579D01*
X0136172Y0330003D01*
X0136416Y0330420D01*
X0136669Y0330831D01*
X0136933Y0331236D01*
X0137206Y0331635D01*
X0137489Y0332026D01*
X0137781Y0332411D01*
X0138083Y0332788D01*
X0138394Y0333158D01*
X0138714Y0333520D01*
X0139043Y0333874D01*
X0139381Y0334219D01*
X0139726Y0334557D01*
X0140080Y0334886D01*
X0140442Y0335206D01*
X0140812Y0335517D01*
X0141189Y0335819D01*
X0141574Y0336111D01*
X0141965Y0336394D01*
X0142364Y0336667D01*
X0142769Y0336931D01*
X0143180Y0337184D01*
X0143597Y0337428D01*
X0144021Y0337661D01*
X0144449Y0337883D01*
X0144884Y0338095D01*
X0145323Y0338296D01*
X0145767Y0338487D01*
X0146215Y0338666D01*
X0146668Y0338834D01*
X0147125Y0338991D01*
X0147586Y0339137D01*
X0148050Y0339272D01*
X0148517Y0339395D01*
X0148987Y0339507D01*
X0149460Y0339607D01*
X0149935Y0339695D01*
X0150412Y0339772D01*
X0150890Y0339837D01*
X0151371Y0339890D01*
X0151852Y0339932D01*
X0152334Y0339961D01*
X0152817Y0339979D01*
X0153300Y0339985D01*
X0153783Y0339979D01*
X0154266Y0339961D01*
X0154748Y0339932D01*
X0155229Y0339890D01*
X0155710Y0339837D01*
X0156188Y0339772D01*
X0156665Y0339695D01*
X0157140Y0339607D01*
X0157613Y0339507D01*
X0158083Y0339395D01*
X0158550Y0339272D01*
X0159014Y0339137D01*
X0159475Y0338991D01*
X0159932Y0338834D01*
X0160385Y0338666D01*
X0160833Y0338487D01*
X0161277Y0338296D01*
X0161716Y0338095D01*
X0162151Y0337883D01*
X0162579Y0337661D01*
X0163003Y0337428D01*
X0163420Y0337184D01*
X0163831Y0336931D01*
X0164236Y0336667D01*
X0164635Y0336394D01*
X0165026Y0336111D01*
X0165411Y0335819D01*
X0165788Y0335517D01*
X0166158Y0335206D01*
X0166520Y0334886D01*
X0166874Y0334557D01*
X0167219Y0334219D01*
X0167557Y0333874D01*
X0167886Y0333520D01*
X0168206Y0333158D01*
X0168517Y0332788D01*
X0168819Y0332411D01*
X0169111Y0332026D01*
X0169394Y0331635D01*
X0169667Y0331236D01*
X0169931Y0330831D01*
X0170184Y0330420D01*
X0170428Y0330003D01*
X0170661Y0329579D01*
X0170883Y0329151D01*
X0171095Y0328716D01*
X0171296Y0328277D01*
X0171487Y0327833D01*
X0171666Y0327385D01*
X0171834Y0326932D01*
X0171991Y0326475D01*
X0172137Y0326014D01*
X0172272Y0325550D01*
X0172395Y0325083D01*
X0172507Y0324613D01*
X0172607Y0324140D01*
X0172695Y0323665D01*
X0172772Y0323188D01*
X0172837Y0322710D01*
X0172890Y0322229D01*
X0172932Y0321748D01*
X0172961Y0321266D01*
X0172979Y0320783D01*
X0172985Y0320300D01*
X0172979Y0319817D01*
X0172961Y0319334D01*
X0172932Y0318852D01*
X0172890Y0318371D01*
X0172837Y0317890D01*
X0172772Y0317412D01*
X0172695Y0316935D01*
X0172607Y0316460D01*
X0172507Y0315987D01*
X0172395Y0315517D01*
X0172272Y0315050D01*
X0172137Y0314586D01*
X0171991Y0314125D01*
X0171834Y0313668D01*
X0171666Y0313215D01*
X0171487Y0312767D01*
X0171296Y0312323D01*
X0171095Y0311884D01*
X0170883Y0311449D01*
X0170661Y0311021D01*
X0170428Y0310597D01*
X0170184Y0310180D01*
X0169931Y0309769D01*
X0169667Y0309364D01*
X0169394Y0308965D01*
X0169111Y0308574D01*
X0168819Y0308189D01*
X0168517Y0307812D01*
X0168206Y0307442D01*
X0167886Y0307080D01*
X0167557Y0306726D01*
X0167219Y0306381D01*
X0166874Y0306043D01*
X0166520Y0305714D01*
X0166158Y0305394D01*
X0165788Y0305083D01*
X0165411Y0304781D01*
X0165026Y0304489D01*
X0164635Y0304206D01*
X0164236Y0303933D01*
X0163831Y0303669D01*
X0163420Y0303416D01*
X0163003Y0303172D01*
X0162579Y0302939D01*
X0162151Y0302717D01*
X0161716Y0302505D01*
X0161277Y0302304D01*
X0160833Y0302113D01*
X0160385Y0301934D01*
X0159932Y0301766D01*
X0159475Y0301609D01*
X0159014Y0301463D01*
X0158550Y0301328D01*
X0158083Y0301205D01*
X0157613Y0301093D01*
X0157140Y0300993D01*
X0156665Y0300905D01*
X0156188Y0300828D01*
X0155710Y0300763D01*
X0155229Y0300710D01*
X0154748Y0300668D01*
X0154266Y0300639D01*
X0153783Y0300621D01*
X0153300Y0300615D01*
X0152817Y0300621D01*
X0152334Y0300639D01*
X0151852Y0300668D01*
X0151371Y0300710D01*
X0150890Y0300763D01*
X0150412Y0300828D01*
X0149935Y0300905D01*
X0149460Y0300993D01*
X0148987Y0301093D01*
X0148517Y0301205D01*
X0148050Y0301328D01*
X0147586Y0301463D01*
X0147125Y0301609D01*
X0146668Y0301766D01*
X0146215Y0301934D01*
X0145767Y0302113D01*
X0145323Y0302304D01*
X0144884Y0302505D01*
X0144449Y0302717D01*
X0144021Y0302939D01*
X0143597Y0303172D01*
X0143180Y0303416D01*
X0142769Y0303669D01*
X0142364Y0303933D01*
X0141965Y0304206D01*
X0141574Y0304489D01*
X0141189Y0304781D01*
X0140812Y0305083D01*
X0140442Y0305394D01*
X0140080Y0305714D01*
X0139726Y0306043D01*
X0139381Y0306381D01*
X0139043Y0306726D01*
X0138714Y0307080D01*
X0138394Y0307442D01*
X0138083Y0307812D01*
X0137781Y0308189D01*
X0137489Y0308574D01*
X0137206Y0308965D01*
X0136933Y0309364D01*
X0136669Y0309769D01*
X0136416Y0310180D01*
X0136172Y0310597D01*
X0135939Y0311021D01*
X0135717Y0311449D01*
X0135505Y0311884D01*
X0135304Y0312323D01*
X0135113Y0312767D01*
X0134934Y0313215D01*
X0134766Y0313668D01*
X0134609Y0314125D01*
X0134463Y0314586D01*
X0134328Y0315050D01*
X0134205Y0315517D01*
X0134093Y0315987D01*
X0133993Y0316460D01*
X0133905Y0316935D01*
X0133828Y0317412D01*
X0133763Y0317890D01*
X0133710Y0318371D01*
X0133668Y0318852D01*
X0133639Y0319334D01*
X0133621Y0319817D01*
X0133615Y0320300D01*
X0163300Y0327800D02*
X0163300Y0332800D01*
X0178400Y0338400D02*
X0178398Y0314800D01*
X0204202Y0314800D01*
X0204200Y0338400D01*
X0277583Y0332489D02*
X0277583Y0311623D01*
X0277583Y0293119D02*
X0277583Y0290363D01*
X0285851Y0290363D01*
X0304749Y0290363D02*
X0313017Y0290363D01*
X0313017Y0332489D01*
X0277583Y0332489D01*
X0317400Y0338400D02*
X0317398Y0314800D01*
X0343202Y0314800D01*
X0343200Y0338400D01*
D14*
X0108300Y0061300D03*
D15*
X0114300Y0133800D02*
X0114300Y0135300D01*
X0099300Y0135300D02*
X0099300Y0133800D01*
X0129300Y0133800D02*
X0129300Y0135300D01*
X0144300Y0135300D02*
X0144300Y0133800D01*
X0159300Y0133800D02*
X0159300Y0135300D01*
X0174300Y0135300D02*
X0174300Y0133800D01*
X0189300Y0133800D02*
X0189300Y0135300D01*
X0204300Y0135300D02*
X0204300Y0133800D01*
X0219300Y0133800D02*
X0219300Y0135300D01*
X0234300Y0135300D02*
X0234300Y0133800D01*
X0234300Y0167300D02*
X0234300Y0168800D01*
X0219300Y0168800D02*
X0219300Y0167300D01*
X0204300Y0167300D02*
X0204300Y0168800D01*
X0189300Y0168800D02*
X0189300Y0167300D01*
X0174300Y0167300D02*
X0174300Y0168800D01*
X0159300Y0168800D02*
X0159300Y0167300D01*
X0144300Y0167300D02*
X0144300Y0168800D01*
X0129300Y0168800D02*
X0129300Y0167300D01*
X0114300Y0167300D02*
X0114300Y0168800D01*
X0099300Y0168800D02*
X0099300Y0167300D01*
D16*
X0099300Y0165500D03*
X0099300Y0170500D03*
X0114300Y0170500D03*
X0114300Y0165500D03*
X0129300Y0165500D03*
X0129300Y0170500D03*
X0144300Y0170500D03*
X0144300Y0165500D03*
X0159300Y0165500D03*
X0159300Y0170500D03*
X0174300Y0170500D03*
X0174300Y0165500D03*
X0189300Y0165500D03*
X0189300Y0170500D03*
X0204300Y0170500D03*
X0204300Y0165500D03*
X0219300Y0165500D03*
X0219300Y0170500D03*
X0234300Y0170500D03*
X0234300Y0165500D03*
X0234300Y0137100D03*
X0234300Y0132100D03*
X0219300Y0132100D03*
X0219300Y0137100D03*
X0204300Y0137100D03*
X0204300Y0132100D03*
X0189300Y0132100D03*
X0189300Y0137100D03*
X0174300Y0137100D03*
X0174300Y0132100D03*
X0159300Y0132100D03*
X0159300Y0137100D03*
X0144300Y0137100D03*
X0144300Y0132100D03*
X0129300Y0132100D03*
X0129300Y0137100D03*
X0114300Y0137100D03*
X0114300Y0132100D03*
X0099300Y0132100D03*
X0099300Y0137100D03*
D17*
X0100049Y0144238D02*
X0100049Y0146490D01*
X0099298Y0147241D01*
X0097797Y0147241D01*
X0097046Y0146490D01*
X0097046Y0144238D01*
X0101550Y0144238D01*
X0100049Y0145739D02*
X0101550Y0147241D01*
X0101550Y0148842D02*
X0101550Y0151845D01*
X0101550Y0150343D02*
X0097046Y0150343D01*
X0098547Y0148842D01*
X0097797Y0153446D02*
X0097046Y0154197D01*
X0097046Y0155698D01*
X0097797Y0156449D01*
X0100799Y0153446D01*
X0101550Y0154197D01*
X0101550Y0155698D01*
X0100799Y0156449D01*
X0097797Y0156449D01*
X0097797Y0153446D02*
X0100799Y0153446D01*
X0112046Y0150698D02*
X0112046Y0149197D01*
X0112797Y0148446D01*
X0113547Y0148446D01*
X0114298Y0149197D01*
X0114298Y0151449D01*
X0115799Y0151449D02*
X0112797Y0151449D01*
X0112046Y0150698D01*
X0115799Y0151449D02*
X0116550Y0150698D01*
X0116550Y0149197D01*
X0115799Y0148446D01*
X0116550Y0146845D02*
X0115049Y0145343D01*
X0115049Y0146094D02*
X0115049Y0143842D01*
X0116550Y0143842D02*
X0112046Y0143842D01*
X0112046Y0146094D01*
X0112797Y0146845D01*
X0114298Y0146845D01*
X0115049Y0146094D01*
X0127046Y0146094D02*
X0127046Y0143842D01*
X0131550Y0143842D01*
X0130049Y0143842D02*
X0130049Y0146094D01*
X0129298Y0146845D01*
X0127797Y0146845D01*
X0127046Y0146094D01*
X0127797Y0148446D02*
X0128547Y0148446D01*
X0129298Y0149197D01*
X0129298Y0150698D01*
X0130049Y0151449D01*
X0130799Y0151449D01*
X0131550Y0150698D01*
X0131550Y0149197D01*
X0130799Y0148446D01*
X0130049Y0148446D01*
X0129298Y0149197D01*
X0129298Y0150698D02*
X0128547Y0151449D01*
X0127797Y0151449D01*
X0127046Y0150698D01*
X0127046Y0149197D01*
X0127797Y0148446D01*
X0130049Y0145343D02*
X0131550Y0146845D01*
X0142046Y0146094D02*
X0142046Y0143842D01*
X0146550Y0143842D01*
X0145049Y0143842D02*
X0145049Y0146094D01*
X0144298Y0146845D01*
X0142797Y0146845D01*
X0142046Y0146094D01*
X0142046Y0148446D02*
X0142046Y0151449D01*
X0142797Y0151449D01*
X0145799Y0148446D01*
X0146550Y0148446D01*
X0146550Y0146845D02*
X0145049Y0145343D01*
X0157046Y0146094D02*
X0157046Y0143842D01*
X0161550Y0143842D01*
X0160049Y0143842D02*
X0160049Y0146094D01*
X0159298Y0146845D01*
X0157797Y0146845D01*
X0157046Y0146094D01*
X0160049Y0145343D02*
X0161550Y0146845D01*
X0160799Y0148446D02*
X0161550Y0149197D01*
X0161550Y0150698D01*
X0160799Y0151449D01*
X0160049Y0151449D01*
X0159298Y0150698D01*
X0159298Y0148446D01*
X0160799Y0148446D01*
X0159298Y0148446D02*
X0157797Y0149947D01*
X0157046Y0151449D01*
X0172046Y0151449D02*
X0172046Y0148446D01*
X0174298Y0148446D01*
X0173547Y0149947D01*
X0173547Y0150698D01*
X0174298Y0151449D01*
X0175799Y0151449D01*
X0176550Y0150698D01*
X0176550Y0149197D01*
X0175799Y0148446D01*
X0176550Y0146845D02*
X0175049Y0145343D01*
X0175049Y0146094D02*
X0175049Y0143842D01*
X0176550Y0143842D02*
X0172046Y0143842D01*
X0172046Y0146094D01*
X0172797Y0146845D01*
X0174298Y0146845D01*
X0175049Y0146094D01*
X0187046Y0146094D02*
X0187046Y0143842D01*
X0191550Y0143842D01*
X0190049Y0143842D02*
X0190049Y0146094D01*
X0189298Y0146845D01*
X0187797Y0146845D01*
X0187046Y0146094D01*
X0190049Y0145343D02*
X0191550Y0146845D01*
X0189298Y0148446D02*
X0189298Y0151449D01*
X0187046Y0150698D02*
X0189298Y0148446D01*
X0191550Y0150698D02*
X0187046Y0150698D01*
X0202046Y0150698D02*
X0202797Y0151449D01*
X0203547Y0151449D01*
X0204298Y0150698D01*
X0205049Y0151449D01*
X0205799Y0151449D01*
X0206550Y0150698D01*
X0206550Y0149197D01*
X0205799Y0148446D01*
X0206550Y0146845D02*
X0205049Y0145343D01*
X0205049Y0146094D02*
X0205049Y0143842D01*
X0206550Y0143842D02*
X0202046Y0143842D01*
X0202046Y0146094D01*
X0202797Y0146845D01*
X0204298Y0146845D01*
X0205049Y0146094D01*
X0202797Y0148446D02*
X0202046Y0149197D01*
X0202046Y0150698D01*
X0204298Y0150698D02*
X0204298Y0149947D01*
X0217046Y0149197D02*
X0217797Y0148446D01*
X0217046Y0149197D02*
X0217046Y0150698D01*
X0217797Y0151449D01*
X0218547Y0151449D01*
X0221550Y0148446D01*
X0221550Y0151449D01*
X0221550Y0146845D02*
X0220049Y0145343D01*
X0220049Y0146094D02*
X0220049Y0143842D01*
X0221550Y0143842D02*
X0217046Y0143842D01*
X0217046Y0146094D01*
X0217797Y0146845D01*
X0219298Y0146845D01*
X0220049Y0146094D01*
X0232046Y0146094D02*
X0232046Y0143842D01*
X0236550Y0143842D01*
X0235049Y0143842D02*
X0235049Y0146094D01*
X0234298Y0146845D01*
X0232797Y0146845D01*
X0232046Y0146094D01*
X0233547Y0148446D02*
X0232046Y0149947D01*
X0236550Y0149947D01*
X0236550Y0148446D02*
X0236550Y0151449D01*
X0236550Y0146845D02*
X0235049Y0145343D01*
X0233570Y0106354D02*
X0236572Y0101850D01*
X0236572Y0106354D01*
X0238174Y0106354D02*
X0241176Y0106354D01*
X0239675Y0106354D02*
X0239675Y0101850D01*
X0242777Y0101099D02*
X0245780Y0101099D01*
X0247381Y0102601D02*
X0248132Y0101850D01*
X0249633Y0101850D01*
X0250384Y0102601D01*
X0250384Y0103351D01*
X0249633Y0104102D01*
X0248132Y0104102D01*
X0247381Y0104853D01*
X0247381Y0105603D01*
X0248132Y0106354D01*
X0249633Y0106354D01*
X0250384Y0105603D01*
X0251985Y0106354D02*
X0251985Y0101850D01*
X0254988Y0101850D01*
X0253487Y0104102D02*
X0251985Y0104102D01*
X0251985Y0106354D02*
X0254988Y0106354D01*
X0256589Y0106354D02*
X0259592Y0106354D01*
X0258091Y0106354D02*
X0258091Y0101850D01*
X0246553Y0091050D02*
X0243550Y0091050D01*
X0245051Y0091050D02*
X0245051Y0095554D01*
X0243550Y0094053D01*
X0233570Y0101850D02*
X0233570Y0106354D01*
X0231968Y0106354D02*
X0228966Y0106354D01*
X0228966Y0101850D01*
X0231968Y0101850D01*
X0230467Y0104102D02*
X0228966Y0104102D01*
X0227364Y0104102D02*
X0226614Y0103351D01*
X0224362Y0103351D01*
X0224362Y0101850D02*
X0224362Y0106354D01*
X0226614Y0106354D01*
X0227364Y0105603D01*
X0227364Y0104102D01*
X0225863Y0103351D02*
X0227364Y0101850D01*
X0222760Y0101850D02*
X0221259Y0103351D01*
X0222010Y0103351D02*
X0219758Y0103351D01*
X0219758Y0101850D02*
X0219758Y0106354D01*
X0222010Y0106354D01*
X0222760Y0105603D01*
X0222760Y0104102D01*
X0222010Y0103351D01*
X0218156Y0102601D02*
X0218156Y0106354D01*
X0215154Y0106354D02*
X0215154Y0102601D01*
X0215905Y0101850D01*
X0217406Y0101850D01*
X0218156Y0102601D01*
X0213553Y0102601D02*
X0212802Y0101850D01*
X0211301Y0101850D01*
X0210550Y0102601D01*
X0210550Y0105603D01*
X0211301Y0106354D01*
X0212802Y0106354D01*
X0213553Y0105603D01*
X0214302Y0095554D02*
X0212801Y0095554D01*
X0212050Y0094803D01*
X0213551Y0093302D02*
X0214302Y0093302D01*
X0215053Y0092551D01*
X0215053Y0091801D01*
X0214302Y0091050D01*
X0212801Y0091050D01*
X0212050Y0091801D01*
X0214302Y0093302D02*
X0215053Y0094053D01*
X0215053Y0094803D01*
X0214302Y0095554D01*
X0316550Y0181801D02*
X0316550Y0184803D01*
X0317301Y0185554D01*
X0318802Y0185554D01*
X0319553Y0184803D01*
X0319553Y0181801D01*
X0318802Y0181050D01*
X0317301Y0181050D01*
X0316550Y0181801D01*
X0321154Y0182551D02*
X0323406Y0182551D01*
X0324156Y0183302D01*
X0324156Y0184803D01*
X0323406Y0185554D01*
X0321154Y0185554D01*
X0321154Y0181050D01*
X0325758Y0181050D02*
X0325758Y0184053D01*
X0327259Y0185554D01*
X0328760Y0184053D01*
X0328760Y0181050D01*
X0330362Y0181050D02*
X0330362Y0185554D01*
X0331863Y0184053D01*
X0333364Y0185554D01*
X0333364Y0181050D01*
X0334966Y0181050D02*
X0334966Y0185554D01*
X0337218Y0185554D01*
X0337968Y0184803D01*
X0337968Y0183302D01*
X0337218Y0182551D01*
X0334966Y0182551D01*
X0328760Y0183302D02*
X0325758Y0183302D01*
X0277449Y0204550D02*
X0274446Y0204550D01*
X0277449Y0207553D01*
X0277449Y0208303D01*
X0276698Y0209054D01*
X0275197Y0209054D01*
X0274446Y0208303D01*
X0271343Y0209054D02*
X0271343Y0204550D01*
X0269842Y0204550D02*
X0272845Y0204550D01*
X0269842Y0207553D02*
X0271343Y0209054D01*
X0268241Y0208303D02*
X0267490Y0209054D01*
X0265989Y0209054D01*
X0265238Y0208303D01*
X0265238Y0205301D01*
X0265989Y0204550D01*
X0267490Y0204550D01*
X0268241Y0205301D01*
X0238446Y0276550D02*
X0238446Y0277301D01*
X0241449Y0280303D01*
X0241449Y0281054D01*
X0238446Y0281054D01*
X0236845Y0280303D02*
X0236094Y0281054D01*
X0234593Y0281054D01*
X0233842Y0280303D01*
X0233842Y0277301D01*
X0234593Y0276550D01*
X0236094Y0276550D01*
X0236845Y0277301D01*
X0211449Y0277301D02*
X0210698Y0276550D01*
X0209197Y0276550D01*
X0208446Y0277301D01*
X0208446Y0278802D02*
X0209947Y0279553D01*
X0210698Y0279553D01*
X0211449Y0278802D01*
X0211449Y0277301D01*
X0208446Y0278802D02*
X0208446Y0281054D01*
X0211449Y0281054D01*
X0206845Y0280303D02*
X0206094Y0281054D01*
X0204593Y0281054D01*
X0203842Y0280303D01*
X0203842Y0277301D01*
X0204593Y0276550D01*
X0206094Y0276550D01*
X0206845Y0277301D01*
X0212746Y0314226D02*
X0215749Y0314226D01*
X0217250Y0315728D01*
X0215749Y0317229D01*
X0212746Y0317229D01*
X0214998Y0318830D02*
X0214998Y0321833D01*
X0213497Y0320332D02*
X0216499Y0320332D01*
X0217250Y0324936D02*
X0212746Y0324936D01*
X0212746Y0326437D02*
X0212746Y0323434D01*
X0213497Y0328038D02*
X0216499Y0328038D01*
X0217250Y0328789D01*
X0217250Y0330290D01*
X0216499Y0331041D01*
X0213497Y0331041D01*
X0212746Y0330290D01*
X0212746Y0328789D01*
X0213497Y0328038D01*
X0214247Y0332642D02*
X0212746Y0334143D01*
X0217250Y0334143D01*
X0217250Y0332642D02*
X0217250Y0335645D01*
X0217250Y0337246D02*
X0214247Y0340249D01*
X0213497Y0340249D01*
X0212746Y0339498D01*
X0212746Y0337997D01*
X0213497Y0337246D01*
X0217250Y0337246D02*
X0217250Y0340249D01*
X0269746Y0339349D02*
X0272749Y0339349D01*
X0274250Y0337847D01*
X0272749Y0336346D01*
X0269746Y0336346D01*
X0270497Y0334745D02*
X0269746Y0333994D01*
X0269746Y0332493D01*
X0270497Y0331742D01*
X0270497Y0334745D02*
X0271247Y0334745D01*
X0274250Y0331742D01*
X0274250Y0334745D01*
X0274250Y0330141D02*
X0274250Y0327138D01*
X0274250Y0328639D02*
X0269746Y0328639D01*
X0271247Y0327138D01*
X0377046Y0327342D02*
X0381550Y0327342D01*
X0381550Y0330345D01*
X0379298Y0328843D02*
X0379298Y0327342D01*
X0380049Y0325741D02*
X0380799Y0325741D01*
X0381550Y0324990D01*
X0381550Y0323489D01*
X0380799Y0322738D01*
X0379298Y0323489D02*
X0379298Y0324990D01*
X0380049Y0325741D01*
X0377797Y0325741D02*
X0377046Y0324990D01*
X0377046Y0323489D01*
X0377797Y0322738D01*
X0378547Y0322738D01*
X0379298Y0323489D01*
X0377046Y0321137D02*
X0377046Y0318134D01*
X0381550Y0318134D01*
X0381550Y0321137D01*
X0379298Y0319636D02*
X0379298Y0318134D01*
X0379298Y0316533D02*
X0380049Y0315782D01*
X0380049Y0313530D01*
X0381550Y0313530D02*
X0377046Y0313530D01*
X0377046Y0315782D01*
X0377797Y0316533D01*
X0379298Y0316533D01*
X0380049Y0315032D02*
X0381550Y0316533D01*
X0377046Y0327342D02*
X0377046Y0330345D01*
X0377046Y0331946D02*
X0377046Y0334949D01*
X0377046Y0333447D02*
X0381550Y0333447D01*
X0142553Y0288050D02*
X0139550Y0288050D01*
X0141051Y0288050D02*
X0141051Y0292554D01*
X0139550Y0291053D01*
X0111053Y0291053D02*
X0110302Y0290302D01*
X0111053Y0289551D01*
X0111053Y0288801D01*
X0110302Y0288050D01*
X0108801Y0288050D01*
X0108050Y0288801D01*
X0109551Y0290302D02*
X0110302Y0290302D01*
X0111053Y0291053D02*
X0111053Y0291803D01*
X0110302Y0292554D01*
X0108801Y0292554D01*
X0108050Y0291803D01*
X0103750Y0290760D02*
X0099246Y0290760D01*
X0099246Y0292362D02*
X0099246Y0295364D01*
X0099246Y0293863D02*
X0103750Y0293863D01*
X0103750Y0290760D02*
X0099246Y0287758D01*
X0103750Y0287758D01*
X0102999Y0286156D02*
X0099997Y0286156D01*
X0099246Y0285406D01*
X0099246Y0283905D01*
X0099997Y0283154D01*
X0102999Y0283154D01*
X0103750Y0283905D01*
X0103750Y0285406D01*
X0102999Y0286156D01*
X0102999Y0281553D02*
X0103750Y0280802D01*
X0103750Y0279301D01*
X0102999Y0278550D01*
X0099997Y0278550D01*
X0099246Y0279301D01*
X0099246Y0280802D01*
X0099997Y0281553D01*
X0101053Y0310050D02*
X0098050Y0310050D01*
X0101053Y0313053D01*
X0101053Y0313803D01*
X0100302Y0314554D01*
X0098801Y0314554D01*
X0098050Y0313803D01*
X0081053Y0310050D02*
X0078050Y0310050D01*
X0079551Y0310050D02*
X0079551Y0314554D01*
X0078050Y0313053D01*
X0081550Y0345550D02*
X0084553Y0345550D01*
X0086154Y0346301D02*
X0086154Y0349303D01*
X0086905Y0350054D01*
X0088406Y0350054D01*
X0089156Y0349303D01*
X0089156Y0346301D01*
X0088406Y0345550D01*
X0086905Y0345550D01*
X0086154Y0346301D01*
X0090758Y0345550D02*
X0090758Y0348553D01*
X0092259Y0350054D01*
X0093760Y0348553D01*
X0093760Y0345550D01*
X0095362Y0345550D02*
X0097614Y0345550D01*
X0098364Y0346301D01*
X0098364Y0349303D01*
X0097614Y0350054D01*
X0095362Y0350054D01*
X0095362Y0345550D01*
X0093760Y0347802D02*
X0090758Y0347802D01*
X0081550Y0350054D02*
X0081550Y0345550D01*
X0012001Y0327933D02*
X0012001Y0324930D01*
X0010499Y0323329D02*
X0011250Y0322578D01*
X0011250Y0320326D01*
X0006746Y0320326D01*
X0006746Y0322578D01*
X0007497Y0323329D01*
X0010499Y0323329D01*
X0010499Y0329534D02*
X0011250Y0330285D01*
X0011250Y0331035D01*
X0010499Y0331786D01*
X0006746Y0331786D01*
X0006746Y0331035D02*
X0006746Y0332537D01*
X0008247Y0334138D02*
X0006746Y0335639D01*
X0008247Y0337141D01*
X0011250Y0337141D01*
X0010499Y0338742D02*
X0011250Y0339493D01*
X0011250Y0340994D01*
X0010499Y0341745D01*
X0009749Y0343346D02*
X0006746Y0346349D01*
X0006746Y0343346D02*
X0011250Y0343346D01*
X0008998Y0344097D02*
X0011250Y0346349D01*
X0007497Y0341745D02*
X0006746Y0340994D01*
X0006746Y0339493D01*
X0007497Y0338742D01*
X0010499Y0338742D01*
X0008998Y0337141D02*
X0008998Y0334138D01*
X0008247Y0334138D02*
X0011250Y0334138D01*
X0011250Y0318725D02*
X0008247Y0318725D01*
X0006746Y0317224D01*
X0008247Y0315722D01*
X0011250Y0315722D01*
X0010499Y0314121D02*
X0007497Y0314121D01*
X0006746Y0313370D01*
X0006746Y0311869D01*
X0007497Y0311119D01*
X0010499Y0311119D01*
X0011250Y0311869D01*
X0011250Y0313370D01*
X0010499Y0314121D01*
X0008998Y0315722D02*
X0008998Y0318725D01*
X0011250Y0309517D02*
X0011250Y0306515D01*
X0006746Y0306515D01*
X0021801Y0273554D02*
X0023302Y0273554D01*
X0024053Y0272803D01*
X0024053Y0272053D01*
X0023302Y0271302D01*
X0024053Y0270551D01*
X0024053Y0269801D01*
X0023302Y0269050D01*
X0021801Y0269050D01*
X0021050Y0269801D01*
X0022551Y0271302D02*
X0023302Y0271302D01*
X0021050Y0272803D02*
X0021801Y0273554D01*
X0013498Y0265156D02*
X0013498Y0262154D01*
X0014249Y0260553D02*
X0011246Y0260553D01*
X0014249Y0260553D02*
X0015750Y0259051D01*
X0014249Y0257550D01*
X0011246Y0257550D01*
X0011997Y0263655D02*
X0014999Y0263655D01*
X0011246Y0248364D02*
X0011246Y0245362D01*
X0015750Y0245362D01*
X0015750Y0243760D02*
X0015750Y0240758D01*
X0011246Y0240758D01*
X0011246Y0243760D01*
X0013498Y0242259D02*
X0013498Y0240758D01*
X0013498Y0239156D02*
X0014249Y0238406D01*
X0014249Y0236154D01*
X0015750Y0236154D02*
X0011246Y0236154D01*
X0011246Y0238406D01*
X0011997Y0239156D01*
X0013498Y0239156D01*
X0014249Y0237655D02*
X0015750Y0239156D01*
X0015750Y0234553D02*
X0012747Y0234553D01*
X0011246Y0233051D01*
X0012747Y0231550D01*
X0015750Y0231550D01*
X0013498Y0231550D02*
X0013498Y0234553D01*
X0014249Y0227572D02*
X0011246Y0227572D01*
X0011246Y0224570D02*
X0014249Y0224570D01*
X0015750Y0226071D01*
X0014249Y0227572D01*
X0016501Y0222968D02*
X0016501Y0219966D01*
X0015750Y0218364D02*
X0015750Y0215362D01*
X0011246Y0215362D01*
X0011246Y0218364D01*
X0013498Y0216863D02*
X0013498Y0215362D01*
X0011246Y0213760D02*
X0011246Y0210758D01*
X0011246Y0212259D02*
X0015750Y0212259D01*
X0015750Y0209156D02*
X0012747Y0209156D01*
X0011246Y0207655D01*
X0012747Y0206154D01*
X0015750Y0206154D01*
X0014999Y0204553D02*
X0013498Y0204553D01*
X0013498Y0203051D01*
X0011997Y0201550D02*
X0014999Y0201550D01*
X0015750Y0202301D01*
X0015750Y0203802D01*
X0014999Y0204553D01*
X0013498Y0206154D02*
X0013498Y0209156D01*
X0011997Y0204553D02*
X0011246Y0203802D01*
X0011246Y0202301D01*
X0011997Y0201550D01*
X0022550Y0193818D02*
X0023184Y0194452D01*
X0023818Y0193818D01*
X0023818Y0192550D01*
X0023818Y0193501D02*
X0022550Y0193501D01*
X0022550Y0193818D02*
X0022550Y0192550D01*
X0024760Y0192867D02*
X0025077Y0192550D01*
X0025711Y0192550D01*
X0026028Y0192867D01*
X0026028Y0193184D01*
X0025711Y0193501D01*
X0025077Y0193501D01*
X0024760Y0193818D01*
X0024760Y0194135D01*
X0025077Y0194452D01*
X0025711Y0194452D01*
X0026028Y0194135D01*
X0026970Y0194452D02*
X0027921Y0194452D01*
X0028237Y0194135D01*
X0028237Y0193501D01*
X0027921Y0193184D01*
X0026970Y0193184D01*
X0026970Y0192550D02*
X0026970Y0194452D01*
X0023302Y0219050D02*
X0021801Y0219050D01*
X0021050Y0219801D01*
X0022551Y0221302D02*
X0023302Y0221302D01*
X0024053Y0220551D01*
X0024053Y0219801D01*
X0023302Y0219050D01*
X0023302Y0221302D02*
X0024053Y0222053D01*
X0024053Y0222803D01*
X0023302Y0223554D01*
X0021801Y0223554D01*
X0021050Y0222803D01*
X0021801Y0244050D02*
X0021050Y0244801D01*
X0021801Y0244050D02*
X0023302Y0244050D01*
X0024053Y0244801D01*
X0024053Y0245551D01*
X0023302Y0246302D01*
X0022551Y0246302D01*
X0023302Y0246302D02*
X0024053Y0247053D01*
X0024053Y0247803D01*
X0023302Y0248554D01*
X0021801Y0248554D01*
X0021050Y0247803D01*
X0013498Y0246863D02*
X0013498Y0245362D01*
X0052550Y0244050D02*
X0055553Y0244050D01*
X0054051Y0244050D02*
X0054051Y0248554D01*
X0052550Y0247053D01*
X0052550Y0269050D02*
X0055553Y0269050D01*
X0054051Y0269050D02*
X0054051Y0273554D01*
X0052550Y0272053D01*
X0054051Y0223554D02*
X0054051Y0219050D01*
X0052550Y0219050D02*
X0055553Y0219050D01*
X0052550Y0222053D02*
X0054051Y0223554D01*
X0066297Y0181656D02*
X0065546Y0180906D01*
X0065546Y0179405D01*
X0066297Y0178654D01*
X0066297Y0177053D02*
X0065546Y0176302D01*
X0065546Y0174801D01*
X0066297Y0174050D01*
X0069299Y0174050D01*
X0070050Y0174801D01*
X0070050Y0176302D01*
X0069299Y0177053D01*
X0070050Y0178654D02*
X0067047Y0181656D01*
X0066297Y0181656D01*
X0070050Y0181656D02*
X0070050Y0178654D01*
D18*
X0050300Y0209300D02*
X0054300Y0213300D01*
X0050300Y0234300D02*
X0054300Y0238300D01*
X0050300Y0259300D02*
X0054300Y0263300D01*
X0137300Y0278300D02*
X0141300Y0282300D01*
X0245300Y0085300D02*
X0241300Y0081300D01*
D19*
X0240800Y0083300D02*
X0240802Y0083399D01*
X0240808Y0083499D01*
X0240818Y0083598D01*
X0240832Y0083696D01*
X0240849Y0083794D01*
X0240871Y0083891D01*
X0240896Y0083987D01*
X0240925Y0084082D01*
X0240958Y0084176D01*
X0240995Y0084268D01*
X0241035Y0084359D01*
X0241079Y0084448D01*
X0241127Y0084536D01*
X0241178Y0084621D01*
X0241232Y0084704D01*
X0241289Y0084786D01*
X0241350Y0084864D01*
X0241414Y0084941D01*
X0241480Y0085014D01*
X0241550Y0085085D01*
X0241622Y0085153D01*
X0241697Y0085219D01*
X0241775Y0085281D01*
X0241855Y0085340D01*
X0241937Y0085396D01*
X0242021Y0085448D01*
X0242108Y0085497D01*
X0242196Y0085543D01*
X0242286Y0085585D01*
X0242378Y0085624D01*
X0242471Y0085659D01*
X0242565Y0085690D01*
X0242661Y0085717D01*
X0242758Y0085740D01*
X0242855Y0085760D01*
X0242953Y0085776D01*
X0243052Y0085788D01*
X0243151Y0085796D01*
X0243250Y0085800D01*
X0243350Y0085800D01*
X0243449Y0085796D01*
X0243548Y0085788D01*
X0243647Y0085776D01*
X0243745Y0085760D01*
X0243842Y0085740D01*
X0243939Y0085717D01*
X0244035Y0085690D01*
X0244129Y0085659D01*
X0244222Y0085624D01*
X0244314Y0085585D01*
X0244404Y0085543D01*
X0244492Y0085497D01*
X0244579Y0085448D01*
X0244663Y0085396D01*
X0244745Y0085340D01*
X0244825Y0085281D01*
X0244903Y0085219D01*
X0244978Y0085153D01*
X0245050Y0085085D01*
X0245120Y0085014D01*
X0245186Y0084941D01*
X0245250Y0084864D01*
X0245311Y0084786D01*
X0245368Y0084704D01*
X0245422Y0084621D01*
X0245473Y0084536D01*
X0245521Y0084448D01*
X0245565Y0084359D01*
X0245605Y0084268D01*
X0245642Y0084176D01*
X0245675Y0084082D01*
X0245704Y0083987D01*
X0245729Y0083891D01*
X0245751Y0083794D01*
X0245768Y0083696D01*
X0245782Y0083598D01*
X0245792Y0083499D01*
X0245798Y0083399D01*
X0245800Y0083300D01*
X0245798Y0083201D01*
X0245792Y0083101D01*
X0245782Y0083002D01*
X0245768Y0082904D01*
X0245751Y0082806D01*
X0245729Y0082709D01*
X0245704Y0082613D01*
X0245675Y0082518D01*
X0245642Y0082424D01*
X0245605Y0082332D01*
X0245565Y0082241D01*
X0245521Y0082152D01*
X0245473Y0082064D01*
X0245422Y0081979D01*
X0245368Y0081896D01*
X0245311Y0081814D01*
X0245250Y0081736D01*
X0245186Y0081659D01*
X0245120Y0081586D01*
X0245050Y0081515D01*
X0244978Y0081447D01*
X0244903Y0081381D01*
X0244825Y0081319D01*
X0244745Y0081260D01*
X0244663Y0081204D01*
X0244579Y0081152D01*
X0244492Y0081103D01*
X0244404Y0081057D01*
X0244314Y0081015D01*
X0244222Y0080976D01*
X0244129Y0080941D01*
X0244035Y0080910D01*
X0243939Y0080883D01*
X0243842Y0080860D01*
X0243745Y0080840D01*
X0243647Y0080824D01*
X0243548Y0080812D01*
X0243449Y0080804D01*
X0243350Y0080800D01*
X0243250Y0080800D01*
X0243151Y0080804D01*
X0243052Y0080812D01*
X0242953Y0080824D01*
X0242855Y0080840D01*
X0242758Y0080860D01*
X0242661Y0080883D01*
X0242565Y0080910D01*
X0242471Y0080941D01*
X0242378Y0080976D01*
X0242286Y0081015D01*
X0242196Y0081057D01*
X0242108Y0081103D01*
X0242021Y0081152D01*
X0241937Y0081204D01*
X0241855Y0081260D01*
X0241775Y0081319D01*
X0241697Y0081381D01*
X0241622Y0081447D01*
X0241550Y0081515D01*
X0241480Y0081586D01*
X0241414Y0081659D01*
X0241350Y0081736D01*
X0241289Y0081814D01*
X0241232Y0081896D01*
X0241178Y0081979D01*
X0241127Y0082064D01*
X0241079Y0082152D01*
X0241035Y0082241D01*
X0240995Y0082332D01*
X0240958Y0082424D01*
X0240925Y0082518D01*
X0240896Y0082613D01*
X0240871Y0082709D01*
X0240849Y0082806D01*
X0240832Y0082904D01*
X0240818Y0083002D01*
X0240808Y0083101D01*
X0240802Y0083201D01*
X0240800Y0083300D01*
X0049800Y0211300D02*
X0049802Y0211399D01*
X0049808Y0211499D01*
X0049818Y0211598D01*
X0049832Y0211696D01*
X0049849Y0211794D01*
X0049871Y0211891D01*
X0049896Y0211987D01*
X0049925Y0212082D01*
X0049958Y0212176D01*
X0049995Y0212268D01*
X0050035Y0212359D01*
X0050079Y0212448D01*
X0050127Y0212536D01*
X0050178Y0212621D01*
X0050232Y0212704D01*
X0050289Y0212786D01*
X0050350Y0212864D01*
X0050414Y0212941D01*
X0050480Y0213014D01*
X0050550Y0213085D01*
X0050622Y0213153D01*
X0050697Y0213219D01*
X0050775Y0213281D01*
X0050855Y0213340D01*
X0050937Y0213396D01*
X0051021Y0213448D01*
X0051108Y0213497D01*
X0051196Y0213543D01*
X0051286Y0213585D01*
X0051378Y0213624D01*
X0051471Y0213659D01*
X0051565Y0213690D01*
X0051661Y0213717D01*
X0051758Y0213740D01*
X0051855Y0213760D01*
X0051953Y0213776D01*
X0052052Y0213788D01*
X0052151Y0213796D01*
X0052250Y0213800D01*
X0052350Y0213800D01*
X0052449Y0213796D01*
X0052548Y0213788D01*
X0052647Y0213776D01*
X0052745Y0213760D01*
X0052842Y0213740D01*
X0052939Y0213717D01*
X0053035Y0213690D01*
X0053129Y0213659D01*
X0053222Y0213624D01*
X0053314Y0213585D01*
X0053404Y0213543D01*
X0053492Y0213497D01*
X0053579Y0213448D01*
X0053663Y0213396D01*
X0053745Y0213340D01*
X0053825Y0213281D01*
X0053903Y0213219D01*
X0053978Y0213153D01*
X0054050Y0213085D01*
X0054120Y0213014D01*
X0054186Y0212941D01*
X0054250Y0212864D01*
X0054311Y0212786D01*
X0054368Y0212704D01*
X0054422Y0212621D01*
X0054473Y0212536D01*
X0054521Y0212448D01*
X0054565Y0212359D01*
X0054605Y0212268D01*
X0054642Y0212176D01*
X0054675Y0212082D01*
X0054704Y0211987D01*
X0054729Y0211891D01*
X0054751Y0211794D01*
X0054768Y0211696D01*
X0054782Y0211598D01*
X0054792Y0211499D01*
X0054798Y0211399D01*
X0054800Y0211300D01*
X0054798Y0211201D01*
X0054792Y0211101D01*
X0054782Y0211002D01*
X0054768Y0210904D01*
X0054751Y0210806D01*
X0054729Y0210709D01*
X0054704Y0210613D01*
X0054675Y0210518D01*
X0054642Y0210424D01*
X0054605Y0210332D01*
X0054565Y0210241D01*
X0054521Y0210152D01*
X0054473Y0210064D01*
X0054422Y0209979D01*
X0054368Y0209896D01*
X0054311Y0209814D01*
X0054250Y0209736D01*
X0054186Y0209659D01*
X0054120Y0209586D01*
X0054050Y0209515D01*
X0053978Y0209447D01*
X0053903Y0209381D01*
X0053825Y0209319D01*
X0053745Y0209260D01*
X0053663Y0209204D01*
X0053579Y0209152D01*
X0053492Y0209103D01*
X0053404Y0209057D01*
X0053314Y0209015D01*
X0053222Y0208976D01*
X0053129Y0208941D01*
X0053035Y0208910D01*
X0052939Y0208883D01*
X0052842Y0208860D01*
X0052745Y0208840D01*
X0052647Y0208824D01*
X0052548Y0208812D01*
X0052449Y0208804D01*
X0052350Y0208800D01*
X0052250Y0208800D01*
X0052151Y0208804D01*
X0052052Y0208812D01*
X0051953Y0208824D01*
X0051855Y0208840D01*
X0051758Y0208860D01*
X0051661Y0208883D01*
X0051565Y0208910D01*
X0051471Y0208941D01*
X0051378Y0208976D01*
X0051286Y0209015D01*
X0051196Y0209057D01*
X0051108Y0209103D01*
X0051021Y0209152D01*
X0050937Y0209204D01*
X0050855Y0209260D01*
X0050775Y0209319D01*
X0050697Y0209381D01*
X0050622Y0209447D01*
X0050550Y0209515D01*
X0050480Y0209586D01*
X0050414Y0209659D01*
X0050350Y0209736D01*
X0050289Y0209814D01*
X0050232Y0209896D01*
X0050178Y0209979D01*
X0050127Y0210064D01*
X0050079Y0210152D01*
X0050035Y0210241D01*
X0049995Y0210332D01*
X0049958Y0210424D01*
X0049925Y0210518D01*
X0049896Y0210613D01*
X0049871Y0210709D01*
X0049849Y0210806D01*
X0049832Y0210904D01*
X0049818Y0211002D01*
X0049808Y0211101D01*
X0049802Y0211201D01*
X0049800Y0211300D01*
X0049800Y0236300D02*
X0049802Y0236399D01*
X0049808Y0236499D01*
X0049818Y0236598D01*
X0049832Y0236696D01*
X0049849Y0236794D01*
X0049871Y0236891D01*
X0049896Y0236987D01*
X0049925Y0237082D01*
X0049958Y0237176D01*
X0049995Y0237268D01*
X0050035Y0237359D01*
X0050079Y0237448D01*
X0050127Y0237536D01*
X0050178Y0237621D01*
X0050232Y0237704D01*
X0050289Y0237786D01*
X0050350Y0237864D01*
X0050414Y0237941D01*
X0050480Y0238014D01*
X0050550Y0238085D01*
X0050622Y0238153D01*
X0050697Y0238219D01*
X0050775Y0238281D01*
X0050855Y0238340D01*
X0050937Y0238396D01*
X0051021Y0238448D01*
X0051108Y0238497D01*
X0051196Y0238543D01*
X0051286Y0238585D01*
X0051378Y0238624D01*
X0051471Y0238659D01*
X0051565Y0238690D01*
X0051661Y0238717D01*
X0051758Y0238740D01*
X0051855Y0238760D01*
X0051953Y0238776D01*
X0052052Y0238788D01*
X0052151Y0238796D01*
X0052250Y0238800D01*
X0052350Y0238800D01*
X0052449Y0238796D01*
X0052548Y0238788D01*
X0052647Y0238776D01*
X0052745Y0238760D01*
X0052842Y0238740D01*
X0052939Y0238717D01*
X0053035Y0238690D01*
X0053129Y0238659D01*
X0053222Y0238624D01*
X0053314Y0238585D01*
X0053404Y0238543D01*
X0053492Y0238497D01*
X0053579Y0238448D01*
X0053663Y0238396D01*
X0053745Y0238340D01*
X0053825Y0238281D01*
X0053903Y0238219D01*
X0053978Y0238153D01*
X0054050Y0238085D01*
X0054120Y0238014D01*
X0054186Y0237941D01*
X0054250Y0237864D01*
X0054311Y0237786D01*
X0054368Y0237704D01*
X0054422Y0237621D01*
X0054473Y0237536D01*
X0054521Y0237448D01*
X0054565Y0237359D01*
X0054605Y0237268D01*
X0054642Y0237176D01*
X0054675Y0237082D01*
X0054704Y0236987D01*
X0054729Y0236891D01*
X0054751Y0236794D01*
X0054768Y0236696D01*
X0054782Y0236598D01*
X0054792Y0236499D01*
X0054798Y0236399D01*
X0054800Y0236300D01*
X0054798Y0236201D01*
X0054792Y0236101D01*
X0054782Y0236002D01*
X0054768Y0235904D01*
X0054751Y0235806D01*
X0054729Y0235709D01*
X0054704Y0235613D01*
X0054675Y0235518D01*
X0054642Y0235424D01*
X0054605Y0235332D01*
X0054565Y0235241D01*
X0054521Y0235152D01*
X0054473Y0235064D01*
X0054422Y0234979D01*
X0054368Y0234896D01*
X0054311Y0234814D01*
X0054250Y0234736D01*
X0054186Y0234659D01*
X0054120Y0234586D01*
X0054050Y0234515D01*
X0053978Y0234447D01*
X0053903Y0234381D01*
X0053825Y0234319D01*
X0053745Y0234260D01*
X0053663Y0234204D01*
X0053579Y0234152D01*
X0053492Y0234103D01*
X0053404Y0234057D01*
X0053314Y0234015D01*
X0053222Y0233976D01*
X0053129Y0233941D01*
X0053035Y0233910D01*
X0052939Y0233883D01*
X0052842Y0233860D01*
X0052745Y0233840D01*
X0052647Y0233824D01*
X0052548Y0233812D01*
X0052449Y0233804D01*
X0052350Y0233800D01*
X0052250Y0233800D01*
X0052151Y0233804D01*
X0052052Y0233812D01*
X0051953Y0233824D01*
X0051855Y0233840D01*
X0051758Y0233860D01*
X0051661Y0233883D01*
X0051565Y0233910D01*
X0051471Y0233941D01*
X0051378Y0233976D01*
X0051286Y0234015D01*
X0051196Y0234057D01*
X0051108Y0234103D01*
X0051021Y0234152D01*
X0050937Y0234204D01*
X0050855Y0234260D01*
X0050775Y0234319D01*
X0050697Y0234381D01*
X0050622Y0234447D01*
X0050550Y0234515D01*
X0050480Y0234586D01*
X0050414Y0234659D01*
X0050350Y0234736D01*
X0050289Y0234814D01*
X0050232Y0234896D01*
X0050178Y0234979D01*
X0050127Y0235064D01*
X0050079Y0235152D01*
X0050035Y0235241D01*
X0049995Y0235332D01*
X0049958Y0235424D01*
X0049925Y0235518D01*
X0049896Y0235613D01*
X0049871Y0235709D01*
X0049849Y0235806D01*
X0049832Y0235904D01*
X0049818Y0236002D01*
X0049808Y0236101D01*
X0049802Y0236201D01*
X0049800Y0236300D01*
X0049800Y0261300D02*
X0049802Y0261399D01*
X0049808Y0261499D01*
X0049818Y0261598D01*
X0049832Y0261696D01*
X0049849Y0261794D01*
X0049871Y0261891D01*
X0049896Y0261987D01*
X0049925Y0262082D01*
X0049958Y0262176D01*
X0049995Y0262268D01*
X0050035Y0262359D01*
X0050079Y0262448D01*
X0050127Y0262536D01*
X0050178Y0262621D01*
X0050232Y0262704D01*
X0050289Y0262786D01*
X0050350Y0262864D01*
X0050414Y0262941D01*
X0050480Y0263014D01*
X0050550Y0263085D01*
X0050622Y0263153D01*
X0050697Y0263219D01*
X0050775Y0263281D01*
X0050855Y0263340D01*
X0050937Y0263396D01*
X0051021Y0263448D01*
X0051108Y0263497D01*
X0051196Y0263543D01*
X0051286Y0263585D01*
X0051378Y0263624D01*
X0051471Y0263659D01*
X0051565Y0263690D01*
X0051661Y0263717D01*
X0051758Y0263740D01*
X0051855Y0263760D01*
X0051953Y0263776D01*
X0052052Y0263788D01*
X0052151Y0263796D01*
X0052250Y0263800D01*
X0052350Y0263800D01*
X0052449Y0263796D01*
X0052548Y0263788D01*
X0052647Y0263776D01*
X0052745Y0263760D01*
X0052842Y0263740D01*
X0052939Y0263717D01*
X0053035Y0263690D01*
X0053129Y0263659D01*
X0053222Y0263624D01*
X0053314Y0263585D01*
X0053404Y0263543D01*
X0053492Y0263497D01*
X0053579Y0263448D01*
X0053663Y0263396D01*
X0053745Y0263340D01*
X0053825Y0263281D01*
X0053903Y0263219D01*
X0053978Y0263153D01*
X0054050Y0263085D01*
X0054120Y0263014D01*
X0054186Y0262941D01*
X0054250Y0262864D01*
X0054311Y0262786D01*
X0054368Y0262704D01*
X0054422Y0262621D01*
X0054473Y0262536D01*
X0054521Y0262448D01*
X0054565Y0262359D01*
X0054605Y0262268D01*
X0054642Y0262176D01*
X0054675Y0262082D01*
X0054704Y0261987D01*
X0054729Y0261891D01*
X0054751Y0261794D01*
X0054768Y0261696D01*
X0054782Y0261598D01*
X0054792Y0261499D01*
X0054798Y0261399D01*
X0054800Y0261300D01*
X0054798Y0261201D01*
X0054792Y0261101D01*
X0054782Y0261002D01*
X0054768Y0260904D01*
X0054751Y0260806D01*
X0054729Y0260709D01*
X0054704Y0260613D01*
X0054675Y0260518D01*
X0054642Y0260424D01*
X0054605Y0260332D01*
X0054565Y0260241D01*
X0054521Y0260152D01*
X0054473Y0260064D01*
X0054422Y0259979D01*
X0054368Y0259896D01*
X0054311Y0259814D01*
X0054250Y0259736D01*
X0054186Y0259659D01*
X0054120Y0259586D01*
X0054050Y0259515D01*
X0053978Y0259447D01*
X0053903Y0259381D01*
X0053825Y0259319D01*
X0053745Y0259260D01*
X0053663Y0259204D01*
X0053579Y0259152D01*
X0053492Y0259103D01*
X0053404Y0259057D01*
X0053314Y0259015D01*
X0053222Y0258976D01*
X0053129Y0258941D01*
X0053035Y0258910D01*
X0052939Y0258883D01*
X0052842Y0258860D01*
X0052745Y0258840D01*
X0052647Y0258824D01*
X0052548Y0258812D01*
X0052449Y0258804D01*
X0052350Y0258800D01*
X0052250Y0258800D01*
X0052151Y0258804D01*
X0052052Y0258812D01*
X0051953Y0258824D01*
X0051855Y0258840D01*
X0051758Y0258860D01*
X0051661Y0258883D01*
X0051565Y0258910D01*
X0051471Y0258941D01*
X0051378Y0258976D01*
X0051286Y0259015D01*
X0051196Y0259057D01*
X0051108Y0259103D01*
X0051021Y0259152D01*
X0050937Y0259204D01*
X0050855Y0259260D01*
X0050775Y0259319D01*
X0050697Y0259381D01*
X0050622Y0259447D01*
X0050550Y0259515D01*
X0050480Y0259586D01*
X0050414Y0259659D01*
X0050350Y0259736D01*
X0050289Y0259814D01*
X0050232Y0259896D01*
X0050178Y0259979D01*
X0050127Y0260064D01*
X0050079Y0260152D01*
X0050035Y0260241D01*
X0049995Y0260332D01*
X0049958Y0260424D01*
X0049925Y0260518D01*
X0049896Y0260613D01*
X0049871Y0260709D01*
X0049849Y0260806D01*
X0049832Y0260904D01*
X0049818Y0261002D01*
X0049808Y0261101D01*
X0049802Y0261201D01*
X0049800Y0261300D01*
X0070300Y0317300D02*
X0110300Y0317300D01*
X0109200Y0320300D02*
X0109200Y0341800D01*
X0091200Y0341800D01*
X0091200Y0320300D01*
X0109200Y0320300D01*
X0089400Y0320300D02*
X0089400Y0341800D01*
X0071400Y0341800D01*
X0071400Y0320300D01*
X0089400Y0320300D01*
X0136800Y0280300D02*
X0136802Y0280399D01*
X0136808Y0280499D01*
X0136818Y0280598D01*
X0136832Y0280696D01*
X0136849Y0280794D01*
X0136871Y0280891D01*
X0136896Y0280987D01*
X0136925Y0281082D01*
X0136958Y0281176D01*
X0136995Y0281268D01*
X0137035Y0281359D01*
X0137079Y0281448D01*
X0137127Y0281536D01*
X0137178Y0281621D01*
X0137232Y0281704D01*
X0137289Y0281786D01*
X0137350Y0281864D01*
X0137414Y0281941D01*
X0137480Y0282014D01*
X0137550Y0282085D01*
X0137622Y0282153D01*
X0137697Y0282219D01*
X0137775Y0282281D01*
X0137855Y0282340D01*
X0137937Y0282396D01*
X0138021Y0282448D01*
X0138108Y0282497D01*
X0138196Y0282543D01*
X0138286Y0282585D01*
X0138378Y0282624D01*
X0138471Y0282659D01*
X0138565Y0282690D01*
X0138661Y0282717D01*
X0138758Y0282740D01*
X0138855Y0282760D01*
X0138953Y0282776D01*
X0139052Y0282788D01*
X0139151Y0282796D01*
X0139250Y0282800D01*
X0139350Y0282800D01*
X0139449Y0282796D01*
X0139548Y0282788D01*
X0139647Y0282776D01*
X0139745Y0282760D01*
X0139842Y0282740D01*
X0139939Y0282717D01*
X0140035Y0282690D01*
X0140129Y0282659D01*
X0140222Y0282624D01*
X0140314Y0282585D01*
X0140404Y0282543D01*
X0140492Y0282497D01*
X0140579Y0282448D01*
X0140663Y0282396D01*
X0140745Y0282340D01*
X0140825Y0282281D01*
X0140903Y0282219D01*
X0140978Y0282153D01*
X0141050Y0282085D01*
X0141120Y0282014D01*
X0141186Y0281941D01*
X0141250Y0281864D01*
X0141311Y0281786D01*
X0141368Y0281704D01*
X0141422Y0281621D01*
X0141473Y0281536D01*
X0141521Y0281448D01*
X0141565Y0281359D01*
X0141605Y0281268D01*
X0141642Y0281176D01*
X0141675Y0281082D01*
X0141704Y0280987D01*
X0141729Y0280891D01*
X0141751Y0280794D01*
X0141768Y0280696D01*
X0141782Y0280598D01*
X0141792Y0280499D01*
X0141798Y0280399D01*
X0141800Y0280300D01*
X0141798Y0280201D01*
X0141792Y0280101D01*
X0141782Y0280002D01*
X0141768Y0279904D01*
X0141751Y0279806D01*
X0141729Y0279709D01*
X0141704Y0279613D01*
X0141675Y0279518D01*
X0141642Y0279424D01*
X0141605Y0279332D01*
X0141565Y0279241D01*
X0141521Y0279152D01*
X0141473Y0279064D01*
X0141422Y0278979D01*
X0141368Y0278896D01*
X0141311Y0278814D01*
X0141250Y0278736D01*
X0141186Y0278659D01*
X0141120Y0278586D01*
X0141050Y0278515D01*
X0140978Y0278447D01*
X0140903Y0278381D01*
X0140825Y0278319D01*
X0140745Y0278260D01*
X0140663Y0278204D01*
X0140579Y0278152D01*
X0140492Y0278103D01*
X0140404Y0278057D01*
X0140314Y0278015D01*
X0140222Y0277976D01*
X0140129Y0277941D01*
X0140035Y0277910D01*
X0139939Y0277883D01*
X0139842Y0277860D01*
X0139745Y0277840D01*
X0139647Y0277824D01*
X0139548Y0277812D01*
X0139449Y0277804D01*
X0139350Y0277800D01*
X0139250Y0277800D01*
X0139151Y0277804D01*
X0139052Y0277812D01*
X0138953Y0277824D01*
X0138855Y0277840D01*
X0138758Y0277860D01*
X0138661Y0277883D01*
X0138565Y0277910D01*
X0138471Y0277941D01*
X0138378Y0277976D01*
X0138286Y0278015D01*
X0138196Y0278057D01*
X0138108Y0278103D01*
X0138021Y0278152D01*
X0137937Y0278204D01*
X0137855Y0278260D01*
X0137775Y0278319D01*
X0137697Y0278381D01*
X0137622Y0278447D01*
X0137550Y0278515D01*
X0137480Y0278586D01*
X0137414Y0278659D01*
X0137350Y0278736D01*
X0137289Y0278814D01*
X0137232Y0278896D01*
X0137178Y0278979D01*
X0137127Y0279064D01*
X0137079Y0279152D01*
X0137035Y0279241D01*
X0136995Y0279332D01*
X0136958Y0279424D01*
X0136925Y0279518D01*
X0136896Y0279613D01*
X0136871Y0279709D01*
X0136849Y0279806D01*
X0136832Y0279904D01*
X0136818Y0280002D01*
X0136808Y0280101D01*
X0136802Y0280201D01*
X0136800Y0280300D01*
X0350300Y0319800D02*
X0351300Y0319800D01*
X0351300Y0329300D01*
X0350300Y0329300D01*
X0373300Y0329300D02*
X0373300Y0319300D01*
X0374300Y0319300D01*
X0374300Y0329300D02*
X0373300Y0329300D01*
D20*
X0100200Y0324050D03*
X0080400Y0324050D03*
D21*
X0158300Y0252300D02*
X0182300Y0252300D01*
X0182544Y0252297D01*
X0182787Y0252288D01*
X0183030Y0252273D01*
X0183273Y0252253D01*
X0183515Y0252226D01*
X0183756Y0252193D01*
X0183996Y0252155D01*
X0184236Y0252111D01*
X0184474Y0252061D01*
X0184711Y0252005D01*
X0184947Y0251943D01*
X0185181Y0251876D01*
X0185413Y0251803D01*
X0185644Y0251724D01*
X0185872Y0251640D01*
X0186099Y0251550D01*
X0186323Y0251455D01*
X0186545Y0251354D01*
X0186764Y0251248D01*
X0186980Y0251137D01*
X0187194Y0251020D01*
X0187405Y0250899D01*
X0187613Y0250772D01*
X0187818Y0250640D01*
X0188019Y0250503D01*
X0188217Y0250361D01*
X0188412Y0250215D01*
X0188603Y0250064D01*
X0188790Y0249908D01*
X0188973Y0249748D01*
X0189153Y0249583D01*
X0189328Y0249414D01*
X0189499Y0249241D01*
X0189666Y0249063D01*
X0189828Y0248882D01*
X0189986Y0248697D01*
X0190140Y0248508D01*
X0190289Y0248315D01*
X0190433Y0248119D01*
X0190572Y0247919D01*
X0190707Y0247716D01*
X0190836Y0247509D01*
X0190960Y0247300D01*
X0191079Y0247088D01*
X0191193Y0246872D01*
X0191302Y0246655D01*
X0191405Y0246434D01*
X0191503Y0246211D01*
X0191596Y0245986D01*
X0191683Y0245758D01*
X0191764Y0245529D01*
X0191840Y0245297D01*
X0191910Y0245064D01*
X0191975Y0244829D01*
X0192034Y0244593D01*
X0192087Y0244355D01*
X0192134Y0244116D01*
X0192175Y0243876D01*
X0192210Y0243635D01*
X0192240Y0243394D01*
X0192264Y0243151D01*
X0192281Y0242908D01*
X0192293Y0242665D01*
X0192299Y0242422D01*
X0192299Y0242178D01*
X0192293Y0241935D01*
X0192281Y0241692D01*
X0192264Y0241449D01*
X0192240Y0241206D01*
X0192210Y0240965D01*
X0192175Y0240724D01*
X0192134Y0240484D01*
X0192087Y0240245D01*
X0192034Y0240007D01*
X0191975Y0239771D01*
X0191910Y0239536D01*
X0191840Y0239303D01*
X0191764Y0239071D01*
X0191683Y0238842D01*
X0191596Y0238614D01*
X0191503Y0238389D01*
X0191405Y0238166D01*
X0191302Y0237945D01*
X0191193Y0237728D01*
X0191079Y0237512D01*
X0190960Y0237300D01*
X0190836Y0237091D01*
X0190707Y0236884D01*
X0190572Y0236681D01*
X0190433Y0236481D01*
X0190289Y0236285D01*
X0190140Y0236092D01*
X0189986Y0235903D01*
X0189828Y0235718D01*
X0189666Y0235537D01*
X0189499Y0235359D01*
X0189328Y0235186D01*
X0189153Y0235017D01*
X0188973Y0234852D01*
X0188790Y0234692D01*
X0188603Y0234536D01*
X0188412Y0234385D01*
X0188217Y0234239D01*
X0188019Y0234097D01*
X0187818Y0233960D01*
X0187613Y0233828D01*
X0187405Y0233701D01*
X0187194Y0233580D01*
X0186980Y0233463D01*
X0186764Y0233352D01*
X0186545Y0233246D01*
X0186323Y0233145D01*
X0186099Y0233050D01*
X0185872Y0232960D01*
X0185644Y0232876D01*
X0185413Y0232797D01*
X0185181Y0232724D01*
X0184947Y0232657D01*
X0184711Y0232595D01*
X0184474Y0232539D01*
X0184236Y0232489D01*
X0183996Y0232445D01*
X0183756Y0232407D01*
X0183515Y0232374D01*
X0183273Y0232347D01*
X0183030Y0232327D01*
X0182787Y0232312D01*
X0182544Y0232303D01*
X0182300Y0232300D01*
X0158300Y0232300D01*
X0158056Y0232303D01*
X0157813Y0232312D01*
X0157570Y0232327D01*
X0157327Y0232347D01*
X0157085Y0232374D01*
X0156844Y0232407D01*
X0156604Y0232445D01*
X0156364Y0232489D01*
X0156126Y0232539D01*
X0155889Y0232595D01*
X0155653Y0232657D01*
X0155419Y0232724D01*
X0155187Y0232797D01*
X0154956Y0232876D01*
X0154728Y0232960D01*
X0154501Y0233050D01*
X0154277Y0233145D01*
X0154055Y0233246D01*
X0153836Y0233352D01*
X0153620Y0233463D01*
X0153406Y0233580D01*
X0153195Y0233701D01*
X0152987Y0233828D01*
X0152782Y0233960D01*
X0152581Y0234097D01*
X0152383Y0234239D01*
X0152188Y0234385D01*
X0151997Y0234536D01*
X0151810Y0234692D01*
X0151627Y0234852D01*
X0151447Y0235017D01*
X0151272Y0235186D01*
X0151101Y0235359D01*
X0150934Y0235537D01*
X0150772Y0235718D01*
X0150614Y0235903D01*
X0150460Y0236092D01*
X0150311Y0236285D01*
X0150167Y0236481D01*
X0150028Y0236681D01*
X0149893Y0236884D01*
X0149764Y0237091D01*
X0149640Y0237300D01*
X0149521Y0237512D01*
X0149407Y0237728D01*
X0149298Y0237945D01*
X0149195Y0238166D01*
X0149097Y0238389D01*
X0149004Y0238614D01*
X0148917Y0238842D01*
X0148836Y0239071D01*
X0148760Y0239303D01*
X0148690Y0239536D01*
X0148625Y0239771D01*
X0148566Y0240007D01*
X0148513Y0240245D01*
X0148466Y0240484D01*
X0148425Y0240724D01*
X0148390Y0240965D01*
X0148360Y0241206D01*
X0148336Y0241449D01*
X0148319Y0241692D01*
X0148307Y0241935D01*
X0148301Y0242178D01*
X0148301Y0242422D01*
X0148307Y0242665D01*
X0148319Y0242908D01*
X0148336Y0243151D01*
X0148360Y0243394D01*
X0148390Y0243635D01*
X0148425Y0243876D01*
X0148466Y0244116D01*
X0148513Y0244355D01*
X0148566Y0244593D01*
X0148625Y0244829D01*
X0148690Y0245064D01*
X0148760Y0245297D01*
X0148836Y0245529D01*
X0148917Y0245758D01*
X0149004Y0245986D01*
X0149097Y0246211D01*
X0149195Y0246434D01*
X0149298Y0246655D01*
X0149407Y0246872D01*
X0149521Y0247088D01*
X0149640Y0247300D01*
X0149764Y0247509D01*
X0149893Y0247716D01*
X0150028Y0247919D01*
X0150167Y0248119D01*
X0150311Y0248315D01*
X0150460Y0248508D01*
X0150614Y0248697D01*
X0150772Y0248882D01*
X0150934Y0249063D01*
X0151101Y0249241D01*
X0151272Y0249414D01*
X0151447Y0249583D01*
X0151627Y0249748D01*
X0151810Y0249908D01*
X0151997Y0250064D01*
X0152188Y0250215D01*
X0152383Y0250361D01*
X0152581Y0250503D01*
X0152782Y0250640D01*
X0152987Y0250772D01*
X0153195Y0250899D01*
X0153406Y0251020D01*
X0153620Y0251137D01*
X0153836Y0251248D01*
X0154055Y0251354D01*
X0154277Y0251455D01*
X0154501Y0251550D01*
X0154728Y0251640D01*
X0154956Y0251724D01*
X0155187Y0251803D01*
X0155419Y0251876D01*
X0155653Y0251943D01*
X0155889Y0252005D01*
X0156126Y0252061D01*
X0156364Y0252111D01*
X0156604Y0252155D01*
X0156844Y0252193D01*
X0157085Y0252226D01*
X0157327Y0252253D01*
X0157570Y0252273D01*
X0157813Y0252288D01*
X0158056Y0252297D01*
X0158300Y0252300D01*
D22*
X0191300Y0312900D03*
X0330300Y0312900D03*
D23*
X0135824Y0044955D02*
X0131620Y0040752D01*
X0132671Y0041803D02*
X0135824Y0038650D01*
X0131620Y0038650D02*
X0131620Y0044955D01*
X0129378Y0044955D02*
X0129378Y0038650D01*
X0125174Y0044955D01*
X0125174Y0038650D01*
X0122979Y0038650D02*
X0120877Y0038650D01*
X0121928Y0038650D02*
X0121928Y0044955D01*
X0120877Y0044955D02*
X0122979Y0044955D01*
X0118636Y0043904D02*
X0117585Y0044955D01*
X0115483Y0044955D01*
X0114432Y0043904D01*
X0114432Y0042854D01*
X0115483Y0041803D01*
X0117585Y0041803D01*
X0118636Y0040752D01*
X0118636Y0039701D01*
X0117585Y0038650D01*
X0115483Y0038650D01*
X0114432Y0039701D01*
X0110088Y0038650D02*
X0110088Y0044955D01*
X0107986Y0044955D02*
X0112190Y0044955D01*
X0105745Y0042854D02*
X0105745Y0038650D01*
X0105745Y0041803D02*
X0101541Y0041803D01*
X0101541Y0042854D02*
X0101541Y0038650D01*
X0099299Y0038650D02*
X0095095Y0038650D01*
X0095095Y0044955D01*
X0099299Y0044955D01*
X0101541Y0042854D02*
X0103643Y0044955D01*
X0105745Y0042854D01*
X0097197Y0041803D02*
X0095095Y0041803D01*
X0092854Y0041803D02*
X0088650Y0041803D01*
X0088650Y0044955D02*
X0088650Y0038650D01*
X0092854Y0038650D02*
X0092854Y0044955D01*
M02*
