%
M48
M72
T01C0.01378
T02C0.03200
T03C0.03543
T04C0.04000
T05C0.04400
T06C0.05200
T07C0.10000
T08C0.11024
T09C0.11800
%
T01
X199300Y184300
X184300Y210800
X244300Y209300
X264300Y212300
X262300Y196300
X246300Y168300
X262300Y142300
X281300Y151300
X286300Y163300
X246300Y122300
X334300Y117300
X370300Y152300
X339300Y238300
X329300Y255300
X353300Y263300
X292300Y263300
X278300Y250300
X278300Y239300
X264300Y251300
X173300Y304300
X77300Y207300
X77300Y202300
X48341Y194300
X27300Y202300
X109300Y202300
T02
X114300Y176300
X99300Y176300
X76300Y168300
X76300Y158300
X99300Y126300
X114300Y126300
X129300Y126300
X144300Y126300
X159300Y126300
X174300Y126300
X189300Y126300
X204300Y126300
X219300Y126300
X234300Y126300
X229300Y88300
X219300Y88300
X239300Y88300
X234300Y176300
X219300Y176300
X204300Y176300
X189300Y176300
X174300Y176300
X159300Y176300
X144300Y176300
X129300Y176300
X160800Y242300
X179800Y242300
X223300Y285300
X223300Y295300
X250300Y295300
X250300Y285300
X273300Y228300
X273300Y218300
X299300Y223300
X309300Y223300
X319300Y223300
X329300Y223300
X339300Y223300
X349300Y223300
X359300Y223300
X359300Y193300
X349300Y193300
X339300Y193300
X329300Y193300
X319300Y193300
X309300Y193300
X299300Y193300
X135300Y285300
X125300Y285300
X115300Y285300
X48300Y266300
X38300Y266300
X28300Y266300
X28300Y241300
X38300Y241300
X48300Y241300
X48300Y216300
X38300Y216300
X28300Y216300
T03
X153300Y310457
X153300Y330143
T04
X156300Y282300
X166300Y282300
X164316Y260324
X174316Y260324
X184316Y260324
X194316Y260324
X204316Y260324
X214316Y260324
X224316Y260324
X234316Y260324
X244316Y260324
X251300Y318300
X251300Y328300
X251300Y338300
X226300Y338300
X226300Y328300
X226300Y318300
X154316Y260324
X144316Y260324
X134316Y260324
X124316Y260324
X114316Y260324
X104316Y260324
X94316Y260324
X44300Y171300
X44300Y161300
X44300Y151300
X44300Y141300
X44300Y131300
X34300Y131300
X34300Y141300
X34300Y151300
X34300Y161300
X34300Y171300
X98300Y71300
X108300Y71300
X118300Y71300
X271300Y134300
X281300Y134300
X291300Y134300
X301300Y134300
X311300Y134300
X321300Y134300
X353400Y311500
X371200Y311500
X371200Y337100
X353400Y337100
T05
X254300Y226300
X244300Y226300
X234300Y226300
X224300Y226300
X214300Y226300
X204300Y226300
X194300Y226300
X184300Y226300
X174300Y226300
X164300Y226300
X154300Y226300
X144300Y226300
X134300Y226300
X124300Y226300
X124300Y196300
X134300Y196300
X144300Y196300
X154300Y196300
X164300Y196300
X174300Y196300
X184300Y196300
X194300Y196300
X204300Y196300
X214300Y196300
X224300Y196300
X234300Y196300
X244300Y196300
X254300Y196300
T06
X100200Y332300
X80400Y332300
T07
X58300Y54800
X158300Y54800
T08
X72662Y138276
X72662Y260324
X367938Y260324
X367938Y138276
T09
X295300Y290363
X276796Y302174
X295300Y313985
X39300Y313985
X20796Y302174
X39300Y290363
M30
