G75*
%MOIN*%
%OFA0B0*%
%FSLAX25Y25*%
%IPPOS*%
%LPD*%
%AMOC8*
5,1,8,0,0,1.08239X$1,22.5*
%
%ADD10C,0.06000*%
%ADD11OC8,0.05200*%
%ADD12C,0.05200*%
%ADD13C,0.07800*%
%ADD14R,0.06600X0.06600*%
%ADD15C,0.06600*%
%ADD16C,0.05200*%
%ADD17OC8,0.06300*%
%ADD18C,0.06300*%
%ADD19C,0.17000*%
%ADD20R,0.07400X0.07400*%
%ADD21C,0.07400*%
%ADD22C,0.07600*%
%ADD23R,0.07600X0.07600*%
%ADD24OC8,0.06200*%
%ADD25C,0.06200*%
%ADD26C,0.01600*%
%ADD27C,0.03378*%
%ADD28C,0.05000*%
%ADD29C,0.10000*%
%ADD30C,0.03200*%
%ADD31C,0.04000*%
D10*
X0065800Y0100800D02*
X0071800Y0100800D01*
X0071800Y0110800D02*
X0065800Y0110800D01*
X0065800Y0120800D02*
X0071800Y0120800D01*
X0243800Y0176800D02*
X0243800Y0182800D01*
X0253800Y0182800D02*
X0253800Y0176800D01*
X0310800Y0215800D02*
X0316800Y0215800D01*
X0335800Y0215800D02*
X0341800Y0215800D01*
X0341800Y0225800D02*
X0335800Y0225800D01*
X0335800Y0235800D02*
X0341800Y0235800D01*
X0316800Y0235800D02*
X0310800Y0235800D01*
X0310800Y0225800D02*
X0316800Y0225800D01*
X0410000Y0210700D02*
X0416000Y0210700D01*
X0435600Y0210700D02*
X0441600Y0210700D01*
X0441600Y0192900D02*
X0435600Y0192900D01*
X0416000Y0192900D02*
X0410000Y0192900D01*
D11*
X0321800Y0074800D03*
X0306800Y0074800D03*
X0291800Y0074800D03*
X0276800Y0074800D03*
X0261800Y0074800D03*
X0246800Y0074800D03*
X0231800Y0074800D03*
X0216800Y0074800D03*
X0201800Y0074800D03*
X0186800Y0074800D03*
X0186800Y0024800D03*
X0201800Y0024800D03*
X0216800Y0024800D03*
X0231800Y0024800D03*
X0246800Y0024800D03*
X0261800Y0024800D03*
X0276800Y0024800D03*
X0291800Y0024800D03*
X0306800Y0024800D03*
X0321800Y0024800D03*
D12*
X0386800Y0088200D02*
X0386800Y0093400D01*
X0396800Y0093400D02*
X0396800Y0088200D01*
X0406800Y0088200D02*
X0406800Y0093400D01*
X0416800Y0093400D02*
X0416800Y0088200D01*
X0426800Y0088200D02*
X0426800Y0093400D01*
X0436800Y0093400D02*
X0436800Y0088200D01*
X0446800Y0088200D02*
X0446800Y0093400D01*
X0446800Y0118200D02*
X0446800Y0123400D01*
X0436800Y0123400D02*
X0436800Y0118200D01*
X0426800Y0118200D02*
X0426800Y0123400D01*
X0416800Y0123400D02*
X0416800Y0118200D01*
X0406800Y0118200D02*
X0406800Y0123400D01*
X0396800Y0123400D02*
X0396800Y0118200D01*
X0386800Y0118200D02*
X0386800Y0123400D01*
X0475200Y0138800D02*
X0480400Y0138800D01*
X0480400Y0148800D02*
X0475200Y0148800D01*
X0475200Y0158800D02*
X0480400Y0158800D01*
X0222800Y0180200D02*
X0222800Y0185400D01*
X0212800Y0185400D02*
X0212800Y0180200D01*
X0202800Y0180200D02*
X0202800Y0185400D01*
X0135800Y0166400D02*
X0135800Y0161200D01*
X0125800Y0161200D02*
X0125800Y0166400D01*
X0115800Y0166400D02*
X0115800Y0161200D01*
X0115800Y0141400D02*
X0115800Y0136200D01*
X0125800Y0136200D02*
X0125800Y0141400D01*
X0135800Y0141400D02*
X0135800Y0136200D01*
X0135800Y0116400D02*
X0135800Y0111200D01*
X0125800Y0111200D02*
X0125800Y0116400D01*
X0115800Y0116400D02*
X0115800Y0111200D01*
D13*
X0186900Y0220900D02*
X0186900Y0228700D01*
X0206700Y0228700D02*
X0206700Y0220900D01*
D14*
X0341800Y0123800D03*
D15*
X0331800Y0123800D03*
X0321800Y0123800D03*
X0311800Y0123800D03*
X0301800Y0123800D03*
X0291800Y0123800D03*
X0281800Y0123800D03*
X0271800Y0123800D03*
X0261800Y0123800D03*
X0251800Y0123800D03*
X0241800Y0123800D03*
X0231800Y0123800D03*
X0221800Y0123800D03*
X0211800Y0123800D03*
X0211800Y0093800D03*
X0221800Y0093800D03*
X0231800Y0093800D03*
X0241800Y0093800D03*
X0251800Y0093800D03*
X0261800Y0093800D03*
X0271800Y0093800D03*
X0281800Y0093800D03*
X0291800Y0093800D03*
X0301800Y0093800D03*
X0311800Y0093800D03*
X0321800Y0093800D03*
X0331800Y0093800D03*
X0341800Y0093800D03*
D16*
X0267300Y0139800D03*
X0248300Y0139800D03*
D17*
X0360800Y0125800D03*
X0337800Y0192800D03*
X0310800Y0192800D03*
D18*
X0310800Y0182800D03*
X0337800Y0182800D03*
X0360800Y0115800D03*
D19*
X0382800Y0187863D03*
X0364296Y0199674D03*
X0382800Y0211485D03*
X0151800Y0211485D03*
X0133296Y0199674D03*
X0151800Y0187863D03*
D20*
X0181816Y0157824D03*
D21*
X0191816Y0157824D03*
X0201816Y0157824D03*
X0211816Y0157824D03*
X0221816Y0157824D03*
X0231816Y0157824D03*
X0241816Y0157824D03*
X0251816Y0157824D03*
X0261816Y0157824D03*
X0271816Y0157824D03*
X0281816Y0157824D03*
X0291816Y0157824D03*
X0301816Y0157824D03*
X0311816Y0157824D03*
X0321816Y0157824D03*
X0331816Y0157824D03*
X0131800Y0068800D03*
X0121800Y0068800D03*
X0121800Y0058800D03*
X0131800Y0058800D03*
X0131800Y0048800D03*
X0121800Y0048800D03*
X0121800Y0038800D03*
X0131800Y0038800D03*
X0131800Y0028800D03*
X0121800Y0028800D03*
X0358800Y0031800D03*
X0368800Y0031800D03*
X0378800Y0031800D03*
X0388800Y0031800D03*
X0398800Y0031800D03*
X0408800Y0031800D03*
D22*
X0240800Y0227643D03*
D23*
X0240800Y0207957D03*
D24*
X0172800Y0120800D03*
D25*
X0172800Y0110800D03*
D26*
X0006800Y0006800D02*
X0006800Y0246800D01*
X0567800Y0246800D01*
X0567800Y0006800D01*
X0006800Y0006800D01*
X0006800Y0008157D02*
X0567800Y0008157D01*
X0567800Y0009755D02*
X0006800Y0009755D01*
X0006800Y0011354D02*
X0115712Y0011354D01*
X0116084Y0011200D02*
X0419052Y0011200D01*
X0419257Y0010994D01*
X0420907Y0010311D01*
X0422693Y0010311D01*
X0424343Y0010994D01*
X0425606Y0012257D01*
X0426289Y0013907D01*
X0426289Y0015693D01*
X0426079Y0016200D01*
X0474516Y0016200D01*
X0475839Y0016748D01*
X0476852Y0017761D01*
X0483852Y0024761D01*
X0484400Y0026084D01*
X0484400Y0100516D01*
X0483852Y0101839D01*
X0482839Y0102852D01*
X0461839Y0123852D01*
X0460516Y0124400D01*
X0452200Y0124400D01*
X0452200Y0124474D01*
X0451485Y0126200D01*
X0461516Y0126200D01*
X0462839Y0126748D01*
X0469839Y0133748D01*
X0470852Y0134761D01*
X0471400Y0136084D01*
X0471400Y0136566D01*
X0471437Y0136494D01*
X0471844Y0135934D01*
X0472334Y0135444D01*
X0472894Y0135037D01*
X0473511Y0134722D01*
X0474170Y0134508D01*
X0474854Y0134400D01*
X0477800Y0134400D01*
X0480746Y0134400D01*
X0481430Y0134508D01*
X0482089Y0134722D01*
X0482706Y0135037D01*
X0483266Y0135444D01*
X0483756Y0135934D01*
X0484163Y0136494D01*
X0484478Y0137111D01*
X0484692Y0137770D01*
X0484800Y0138454D01*
X0484800Y0138800D01*
X0484800Y0139146D01*
X0484692Y0139830D01*
X0484478Y0140489D01*
X0484163Y0141106D01*
X0483756Y0141666D01*
X0483266Y0142156D01*
X0482706Y0142563D01*
X0482089Y0142878D01*
X0481430Y0143092D01*
X0480746Y0143200D01*
X0477800Y0143200D01*
X0477800Y0138800D01*
X0477800Y0138800D01*
X0484800Y0138800D01*
X0477800Y0138800D01*
X0477800Y0138800D01*
X0477800Y0143200D01*
X0474854Y0143200D01*
X0474170Y0143092D01*
X0473511Y0142878D01*
X0472894Y0142563D01*
X0472334Y0142156D01*
X0471844Y0141666D01*
X0471437Y0141106D01*
X0471400Y0141034D01*
X0471400Y0143309D01*
X0472263Y0144172D01*
X0474126Y0143400D01*
X0481474Y0143400D01*
X0483459Y0144222D01*
X0484978Y0145741D01*
X0485800Y0147726D01*
X0485800Y0149874D01*
X0484978Y0151859D01*
X0483459Y0153378D01*
X0482440Y0153800D01*
X0483459Y0154222D01*
X0484978Y0155741D01*
X0485800Y0157726D01*
X0485800Y0159874D01*
X0484978Y0161859D01*
X0483459Y0163378D01*
X0481474Y0164200D01*
X0474126Y0164200D01*
X0472141Y0163378D01*
X0470622Y0161859D01*
X0469800Y0159874D01*
X0469800Y0157726D01*
X0470622Y0155741D01*
X0472141Y0154222D01*
X0473160Y0153800D01*
X0472141Y0153378D01*
X0471163Y0152400D01*
X0471084Y0152400D01*
X0469761Y0151852D01*
X0468748Y0150839D01*
X0464748Y0146839D01*
X0464200Y0145516D01*
X0464200Y0138291D01*
X0459309Y0133400D01*
X0431665Y0133400D01*
X0432289Y0134907D01*
X0432289Y0136693D01*
X0431606Y0138343D01*
X0430343Y0139606D01*
X0428693Y0140289D01*
X0426907Y0140289D01*
X0426692Y0140200D01*
X0386925Y0140200D01*
X0385308Y0139530D01*
X0365977Y0120200D01*
X0364815Y0120200D01*
X0364170Y0120844D01*
X0363233Y0121233D01*
X0365750Y0123750D01*
X0365750Y0125800D01*
X0365750Y0127850D01*
X0362850Y0130750D01*
X0360800Y0130750D01*
X0360800Y0125800D01*
X0360800Y0125800D01*
X0365750Y0125800D01*
X0360800Y0125800D01*
X0360800Y0125800D01*
X0360800Y0125800D01*
X0355850Y0125800D01*
X0355850Y0127850D01*
X0358750Y0130750D01*
X0360800Y0130750D01*
X0360800Y0125800D01*
X0355850Y0125800D01*
X0355850Y0123750D01*
X0358367Y0121233D01*
X0357430Y0120844D01*
X0356785Y0120200D01*
X0347900Y0120200D01*
X0347900Y0127657D01*
X0347474Y0128686D01*
X0346686Y0129474D01*
X0345657Y0129900D01*
X0337943Y0129900D01*
X0336914Y0129474D01*
X0336126Y0128686D01*
X0335955Y0128272D01*
X0335255Y0128971D01*
X0333013Y0129900D01*
X0330587Y0129900D01*
X0328345Y0128971D01*
X0326800Y0127427D01*
X0325255Y0128971D01*
X0323013Y0129900D01*
X0320587Y0129900D01*
X0318345Y0128971D01*
X0316800Y0127427D01*
X0315255Y0128971D01*
X0313013Y0129900D01*
X0310587Y0129900D01*
X0308345Y0128971D01*
X0306800Y0127427D01*
X0305255Y0128971D01*
X0303013Y0129900D01*
X0300587Y0129900D01*
X0298345Y0128971D01*
X0296800Y0127427D01*
X0295255Y0128971D01*
X0293013Y0129900D01*
X0290587Y0129900D01*
X0288345Y0128971D01*
X0286800Y0127427D01*
X0285255Y0128971D01*
X0283013Y0129900D01*
X0280587Y0129900D01*
X0278345Y0128971D01*
X0276629Y0127255D01*
X0276241Y0126318D01*
X0276162Y0126473D01*
X0275690Y0127122D01*
X0275122Y0127690D01*
X0274473Y0128162D01*
X0273758Y0128526D01*
X0272994Y0128774D01*
X0272201Y0128900D01*
X0272100Y0128900D01*
X0272100Y0124100D01*
X0271500Y0124100D01*
X0271500Y0128900D01*
X0271399Y0128900D01*
X0270606Y0128774D01*
X0269842Y0128526D01*
X0269127Y0128162D01*
X0268478Y0127690D01*
X0267910Y0127122D01*
X0267438Y0126473D01*
X0267359Y0126318D01*
X0266971Y0127255D01*
X0265255Y0128971D01*
X0263013Y0129900D01*
X0260587Y0129900D01*
X0258345Y0128971D01*
X0256800Y0127427D01*
X0255255Y0128971D01*
X0253013Y0129900D01*
X0250587Y0129900D01*
X0248345Y0128971D01*
X0246800Y0127427D01*
X0245400Y0128827D01*
X0245400Y0135156D01*
X0247226Y0134400D01*
X0249374Y0134400D01*
X0251359Y0135222D01*
X0252878Y0136741D01*
X0253700Y0138726D01*
X0253700Y0140874D01*
X0252878Y0142859D01*
X0251537Y0144200D01*
X0264063Y0144200D01*
X0262722Y0142859D01*
X0261900Y0140874D01*
X0261900Y0138726D01*
X0262722Y0136741D01*
X0264241Y0135222D01*
X0266226Y0134400D01*
X0268374Y0134400D01*
X0270359Y0135222D01*
X0271878Y0136741D01*
X0272700Y0138726D01*
X0272700Y0140874D01*
X0271878Y0142859D01*
X0270537Y0144200D01*
X0272508Y0144200D01*
X0273831Y0144748D01*
X0280441Y0151358D01*
X0280523Y0151324D01*
X0283109Y0151324D01*
X0285498Y0152313D01*
X0286816Y0153631D01*
X0288134Y0152313D01*
X0290523Y0151324D01*
X0293109Y0151324D01*
X0295498Y0152313D01*
X0296816Y0153631D01*
X0298134Y0152313D01*
X0300523Y0151324D01*
X0303109Y0151324D01*
X0305498Y0152313D01*
X0306816Y0153631D01*
X0308134Y0152313D01*
X0310523Y0151324D01*
X0313109Y0151324D01*
X0315498Y0152313D01*
X0316816Y0153631D01*
X0318134Y0152313D01*
X0320523Y0151324D01*
X0323109Y0151324D01*
X0325498Y0152313D01*
X0326816Y0153631D01*
X0328134Y0152313D01*
X0330523Y0151324D01*
X0333109Y0151324D01*
X0335498Y0152313D01*
X0337326Y0154142D01*
X0338316Y0156531D01*
X0338316Y0159117D01*
X0337326Y0161506D01*
X0335498Y0163334D01*
X0333109Y0164324D01*
X0330523Y0164324D01*
X0328134Y0163334D01*
X0326816Y0162016D01*
X0325498Y0163334D01*
X0323109Y0164324D01*
X0321538Y0164324D01*
X0317570Y0168292D01*
X0316332Y0169530D01*
X0314715Y0170200D01*
X0269623Y0170200D01*
X0259600Y0180223D01*
X0259600Y0183954D01*
X0259001Y0185400D01*
X0267675Y0185400D01*
X0269292Y0186070D01*
X0304623Y0221400D01*
X0306998Y0221400D01*
X0307515Y0220883D01*
X0307715Y0220800D01*
X0307515Y0220717D01*
X0305883Y0219085D01*
X0305000Y0216954D01*
X0305000Y0214646D01*
X0305883Y0212515D01*
X0307515Y0210883D01*
X0309646Y0210000D01*
X0317954Y0210000D01*
X0320085Y0210883D01*
X0321717Y0212515D01*
X0322600Y0214646D01*
X0322600Y0216954D01*
X0321717Y0219085D01*
X0320085Y0220717D01*
X0319885Y0220800D01*
X0320085Y0220883D01*
X0321717Y0222515D01*
X0322600Y0224646D01*
X0322600Y0226954D01*
X0321717Y0229085D01*
X0320085Y0230717D01*
X0319885Y0230800D01*
X0320085Y0230883D01*
X0321717Y0232515D01*
X0322600Y0234646D01*
X0322600Y0236954D01*
X0321717Y0239085D01*
X0320085Y0240717D01*
X0317954Y0241600D01*
X0309646Y0241600D01*
X0307515Y0240717D01*
X0306998Y0240200D01*
X0293925Y0240200D01*
X0292308Y0239530D01*
X0258472Y0205695D01*
X0258257Y0205606D01*
X0256994Y0204343D01*
X0256311Y0202693D01*
X0256311Y0200907D01*
X0256994Y0199257D01*
X0258257Y0197994D01*
X0259907Y0197311D01*
X0261693Y0197311D01*
X0263343Y0197994D01*
X0264606Y0199257D01*
X0264695Y0199472D01*
X0296623Y0231400D01*
X0306998Y0231400D01*
X0307515Y0230883D01*
X0307715Y0230800D01*
X0307515Y0230717D01*
X0306998Y0230200D01*
X0301925Y0230200D01*
X0300308Y0229530D01*
X0264977Y0194200D01*
X0250623Y0194200D01*
X0245200Y0199623D01*
X0245200Y0201337D01*
X0245218Y0201345D01*
X0245283Y0201410D01*
X0246186Y0201784D01*
X0246974Y0202571D01*
X0247348Y0203474D01*
X0247413Y0203539D01*
X0248600Y0206406D01*
X0248600Y0209509D01*
X0247413Y0212376D01*
X0247348Y0212441D01*
X0246974Y0213344D01*
X0246186Y0214131D01*
X0245283Y0214505D01*
X0245218Y0214570D01*
X0242352Y0215757D01*
X0209163Y0215757D01*
X0209687Y0216025D01*
X0210413Y0216552D01*
X0211048Y0217187D01*
X0211575Y0217913D01*
X0211982Y0218712D01*
X0212260Y0219565D01*
X0212400Y0220451D01*
X0212400Y0224300D01*
X0207200Y0224300D01*
X0207200Y0225300D01*
X0206200Y0225300D01*
X0206200Y0234392D01*
X0205365Y0234260D01*
X0204512Y0233982D01*
X0203713Y0233575D01*
X0202987Y0233048D01*
X0202352Y0232413D01*
X0201825Y0231687D01*
X0201418Y0230888D01*
X0201140Y0230035D01*
X0201000Y0229149D01*
X0201000Y0225300D01*
X0206200Y0225300D01*
X0206200Y0224300D01*
X0201000Y0224300D01*
X0201000Y0220451D01*
X0201140Y0219565D01*
X0201418Y0218712D01*
X0201825Y0217913D01*
X0202352Y0217187D01*
X0202987Y0216552D01*
X0203713Y0216025D01*
X0204237Y0215757D01*
X0194600Y0215757D01*
X0194600Y0226252D01*
X0193600Y0228666D01*
X0193600Y0230033D01*
X0192580Y0232495D01*
X0190695Y0234380D01*
X0188233Y0235400D01*
X0185567Y0235400D01*
X0183105Y0234380D01*
X0181220Y0232495D01*
X0180200Y0230033D01*
X0180200Y0229131D01*
X0180187Y0229118D01*
X0179000Y0226252D01*
X0179000Y0209031D01*
X0165632Y0195663D01*
X0159981Y0195663D01*
X0158738Y0196905D01*
X0156162Y0198393D01*
X0153288Y0199163D01*
X0150312Y0199163D01*
X0147438Y0198393D01*
X0144862Y0196905D01*
X0142758Y0194801D01*
X0141270Y0192225D01*
X0140500Y0189351D01*
X0140500Y0186375D01*
X0141270Y0183501D01*
X0142758Y0180925D01*
X0144862Y0178821D01*
X0147438Y0177333D01*
X0150312Y0176563D01*
X0153288Y0176563D01*
X0156162Y0177333D01*
X0158738Y0178821D01*
X0159981Y0180063D01*
X0170415Y0180063D01*
X0173281Y0181250D01*
X0191218Y0199187D01*
X0192188Y0200157D01*
X0236400Y0200157D01*
X0236400Y0196925D01*
X0237070Y0195308D01*
X0238308Y0194070D01*
X0243777Y0188600D01*
X0242646Y0188600D01*
X0241640Y0188183D01*
X0231292Y0198530D01*
X0229675Y0199200D01*
X0206925Y0199200D01*
X0205308Y0198530D01*
X0204070Y0197292D01*
X0199070Y0192292D01*
X0198400Y0190675D01*
X0198400Y0188637D01*
X0198222Y0188459D01*
X0197400Y0186474D01*
X0197400Y0179126D01*
X0198222Y0177141D01*
X0199741Y0175622D01*
X0201726Y0174800D01*
X0203874Y0174800D01*
X0205859Y0175622D01*
X0207378Y0177141D01*
X0207800Y0178160D01*
X0208222Y0177141D01*
X0209741Y0175622D01*
X0211726Y0174800D01*
X0213874Y0174800D01*
X0215859Y0175622D01*
X0217378Y0177141D01*
X0218200Y0179126D01*
X0218200Y0186474D01*
X0217378Y0188459D01*
X0215859Y0189978D01*
X0214840Y0190400D01*
X0226977Y0190400D01*
X0238000Y0179377D01*
X0238000Y0175646D01*
X0238883Y0173515D01*
X0240515Y0171883D01*
X0242646Y0171000D01*
X0244954Y0171000D01*
X0247085Y0171883D01*
X0248717Y0173515D01*
X0248800Y0173715D01*
X0248883Y0173515D01*
X0250515Y0171883D01*
X0252646Y0171000D01*
X0254954Y0171000D01*
X0255960Y0171417D01*
X0263054Y0164324D01*
X0260523Y0164324D01*
X0258134Y0163334D01*
X0256816Y0162016D01*
X0255498Y0163334D01*
X0253109Y0164324D01*
X0250523Y0164324D01*
X0248134Y0163334D01*
X0246816Y0162016D01*
X0245498Y0163334D01*
X0243109Y0164324D01*
X0240523Y0164324D01*
X0238134Y0163334D01*
X0236816Y0162016D01*
X0235498Y0163334D01*
X0233109Y0164324D01*
X0230523Y0164324D01*
X0228134Y0163334D01*
X0226305Y0161506D01*
X0226172Y0161184D01*
X0226011Y0161407D01*
X0225399Y0162019D01*
X0224698Y0162528D01*
X0223927Y0162921D01*
X0223104Y0163188D01*
X0222249Y0163324D01*
X0222016Y0163324D01*
X0222016Y0158024D01*
X0221616Y0158024D01*
X0221616Y0163324D01*
X0221383Y0163324D01*
X0220528Y0163188D01*
X0219704Y0162921D01*
X0218933Y0162528D01*
X0218233Y0162019D01*
X0217621Y0161407D01*
X0217459Y0161184D01*
X0217326Y0161506D01*
X0215498Y0163334D01*
X0213109Y0164324D01*
X0210523Y0164324D01*
X0208134Y0163334D01*
X0206816Y0162016D01*
X0205498Y0163334D01*
X0203109Y0164324D01*
X0200523Y0164324D01*
X0198134Y0163334D01*
X0196816Y0162016D01*
X0195498Y0163334D01*
X0193109Y0164324D01*
X0190523Y0164324D01*
X0188134Y0163334D01*
X0187129Y0162329D01*
X0186956Y0162629D01*
X0186621Y0162964D01*
X0186211Y0163201D01*
X0185753Y0163324D01*
X0182016Y0163324D01*
X0182016Y0158024D01*
X0181616Y0158024D01*
X0181616Y0163324D01*
X0177879Y0163324D01*
X0177421Y0163201D01*
X0177011Y0162964D01*
X0176675Y0162629D01*
X0176438Y0162218D01*
X0176316Y0161761D01*
X0176316Y0158024D01*
X0181616Y0158024D01*
X0181616Y0157624D01*
X0176316Y0157624D01*
X0176316Y0153887D01*
X0176438Y0153429D01*
X0176675Y0153018D01*
X0177011Y0152683D01*
X0177421Y0152446D01*
X0177879Y0152324D01*
X0181616Y0152324D01*
X0181616Y0157624D01*
X0182016Y0157624D01*
X0182016Y0152324D01*
X0185753Y0152324D01*
X0186211Y0152446D01*
X0186621Y0152683D01*
X0186956Y0153018D01*
X0187129Y0153318D01*
X0188134Y0152313D01*
X0190523Y0151324D01*
X0193109Y0151324D01*
X0195498Y0152313D01*
X0196816Y0153631D01*
X0198134Y0152313D01*
X0200523Y0151324D01*
X0203109Y0151324D01*
X0205498Y0152313D01*
X0206816Y0153631D01*
X0208134Y0152313D01*
X0208200Y0152286D01*
X0208200Y0143084D01*
X0208748Y0141761D01*
X0209761Y0140748D01*
X0218200Y0132309D01*
X0218200Y0128827D01*
X0216800Y0127427D01*
X0215255Y0128971D01*
X0213013Y0129900D01*
X0210587Y0129900D01*
X0208345Y0128971D01*
X0206629Y0127255D01*
X0205700Y0125013D01*
X0205700Y0122587D01*
X0206629Y0120345D01*
X0208345Y0118629D01*
X0210587Y0117700D01*
X0213013Y0117700D01*
X0215255Y0118629D01*
X0216800Y0120173D01*
X0218345Y0118629D01*
X0220587Y0117700D01*
X0223013Y0117700D01*
X0225255Y0118629D01*
X0226800Y0120173D01*
X0228345Y0118629D01*
X0230587Y0117700D01*
X0233013Y0117700D01*
X0235255Y0118629D01*
X0236800Y0120173D01*
X0238345Y0118629D01*
X0240587Y0117700D01*
X0243013Y0117700D01*
X0245255Y0118629D01*
X0246800Y0120173D01*
X0248345Y0118629D01*
X0250587Y0117700D01*
X0253013Y0117700D01*
X0255255Y0118629D01*
X0256800Y0120173D01*
X0258345Y0118629D01*
X0260587Y0117700D01*
X0263013Y0117700D01*
X0265255Y0118629D01*
X0266971Y0120345D01*
X0267359Y0121281D01*
X0267438Y0121127D01*
X0267910Y0120478D01*
X0268478Y0119910D01*
X0269127Y0119438D01*
X0269842Y0119074D01*
X0270606Y0118826D01*
X0271399Y0118700D01*
X0271500Y0118700D01*
X0271500Y0123500D01*
X0272100Y0123500D01*
X0272100Y0118700D01*
X0272201Y0118700D01*
X0272994Y0118826D01*
X0273758Y0119074D01*
X0274473Y0119438D01*
X0275122Y0119910D01*
X0275690Y0120478D01*
X0276162Y0121127D01*
X0276241Y0121281D01*
X0276629Y0120345D01*
X0278200Y0118773D01*
X0278200Y0118084D01*
X0278748Y0116761D01*
X0280109Y0115400D01*
X0257353Y0115400D01*
X0256030Y0114852D01*
X0248748Y0107570D01*
X0248200Y0106247D01*
X0248200Y0103400D01*
X0199548Y0103400D01*
X0199343Y0103606D01*
X0197693Y0104289D01*
X0195907Y0104289D01*
X0194400Y0103665D01*
X0194400Y0127516D01*
X0193852Y0128839D01*
X0189852Y0132839D01*
X0188839Y0133852D01*
X0187516Y0134400D01*
X0158291Y0134400D01*
X0136886Y0155805D01*
X0138859Y0156622D01*
X0140378Y0158141D01*
X0141200Y0160126D01*
X0141200Y0167474D01*
X0140378Y0169459D01*
X0138859Y0170978D01*
X0136874Y0171800D01*
X0134726Y0171800D01*
X0132741Y0170978D01*
X0131222Y0169459D01*
X0130800Y0168440D01*
X0130378Y0169459D01*
X0128859Y0170978D01*
X0126874Y0171800D01*
X0124726Y0171800D01*
X0122741Y0170978D01*
X0121222Y0169459D01*
X0120400Y0167474D01*
X0120400Y0160126D01*
X0121222Y0158141D01*
X0122741Y0156622D01*
X0124726Y0155800D01*
X0126709Y0155800D01*
X0130309Y0152200D01*
X0069425Y0152200D01*
X0067808Y0151530D01*
X0066570Y0150292D01*
X0055070Y0138792D01*
X0054400Y0137175D01*
X0054400Y0082425D01*
X0055070Y0080808D01*
X0056308Y0079570D01*
X0060820Y0075058D01*
X0060820Y0075058D01*
X0062058Y0073820D01*
X0063675Y0073150D01*
X0116958Y0073150D01*
X0116290Y0072482D01*
X0115300Y0070093D01*
X0115300Y0067507D01*
X0116290Y0065118D01*
X0117608Y0063800D01*
X0116290Y0062482D01*
X0115300Y0060093D01*
X0115300Y0057507D01*
X0116290Y0055118D01*
X0117608Y0053800D01*
X0116290Y0052482D01*
X0116084Y0051986D01*
X0115761Y0051852D01*
X0111761Y0047852D01*
X0110748Y0046839D01*
X0110200Y0045516D01*
X0110200Y0017084D01*
X0110748Y0015761D01*
X0111761Y0014748D01*
X0113748Y0012761D01*
X0113748Y0012761D01*
X0114761Y0011748D01*
X0116084Y0011200D01*
X0113556Y0012952D02*
X0006800Y0012952D01*
X0006800Y0014551D02*
X0111958Y0014551D01*
X0111761Y0014748D02*
X0111761Y0014748D01*
X0110587Y0016149D02*
X0006800Y0016149D01*
X0006800Y0017748D02*
X0110200Y0017748D01*
X0110200Y0019346D02*
X0006800Y0019346D01*
X0006800Y0020945D02*
X0110200Y0020945D01*
X0110200Y0022543D02*
X0006800Y0022543D01*
X0006800Y0024142D02*
X0110200Y0024142D01*
X0110200Y0025740D02*
X0006800Y0025740D01*
X0006800Y0027339D02*
X0110200Y0027339D01*
X0110200Y0028937D02*
X0006800Y0028937D01*
X0006800Y0030536D02*
X0110200Y0030536D01*
X0110200Y0032134D02*
X0006800Y0032134D01*
X0006800Y0033733D02*
X0110200Y0033733D01*
X0110200Y0035332D02*
X0006800Y0035332D01*
X0006800Y0036930D02*
X0110200Y0036930D01*
X0110200Y0038529D02*
X0006800Y0038529D01*
X0006800Y0040127D02*
X0110200Y0040127D01*
X0110200Y0041726D02*
X0006800Y0041726D01*
X0006800Y0043324D02*
X0110200Y0043324D01*
X0110200Y0044923D02*
X0006800Y0044923D01*
X0006800Y0046521D02*
X0110616Y0046521D01*
X0112028Y0048120D02*
X0006800Y0048120D01*
X0006800Y0049718D02*
X0113627Y0049718D01*
X0115225Y0051317D02*
X0006800Y0051317D01*
X0006800Y0052915D02*
X0116723Y0052915D01*
X0116894Y0054514D02*
X0057045Y0054514D01*
X0056718Y0054187D02*
X0058913Y0056382D01*
X0060100Y0059248D01*
X0060100Y0062352D01*
X0058913Y0065218D01*
X0056718Y0067413D01*
X0053852Y0068600D01*
X0050748Y0068600D01*
X0047882Y0067413D01*
X0045687Y0065218D01*
X0044500Y0062352D01*
X0044500Y0059248D01*
X0045687Y0056382D01*
X0047882Y0054187D01*
X0050748Y0053000D01*
X0053852Y0053000D01*
X0056718Y0054187D01*
X0058643Y0056112D02*
X0115878Y0056112D01*
X0115300Y0057711D02*
X0059463Y0057711D01*
X0060100Y0059309D02*
X0115300Y0059309D01*
X0115637Y0060908D02*
X0060100Y0060908D01*
X0060036Y0062506D02*
X0116314Y0062506D01*
X0117303Y0064105D02*
X0059374Y0064105D01*
X0058428Y0065703D02*
X0116047Y0065703D01*
X0115385Y0067302D02*
X0056829Y0067302D01*
X0047771Y0067302D02*
X0006800Y0067302D01*
X0006800Y0068900D02*
X0115300Y0068900D01*
X0115468Y0070499D02*
X0006800Y0070499D01*
X0006800Y0072097D02*
X0116130Y0072097D01*
X0131123Y0081280D02*
X0132361Y0080042D01*
X0132361Y0080042D01*
X0135530Y0076873D01*
X0136200Y0075256D01*
X0136200Y0073592D01*
X0137310Y0072482D01*
X0138300Y0070093D01*
X0138300Y0067507D01*
X0137310Y0065118D01*
X0135482Y0063290D01*
X0135161Y0063157D01*
X0135383Y0062995D01*
X0135995Y0062383D01*
X0136504Y0061683D01*
X0136897Y0060911D01*
X0137165Y0060088D01*
X0137300Y0059233D01*
X0137300Y0059000D01*
X0132000Y0059000D01*
X0132000Y0058600D01*
X0137300Y0058600D01*
X0137300Y0058367D01*
X0137165Y0057512D01*
X0136897Y0056689D01*
X0136504Y0055917D01*
X0135995Y0055217D01*
X0135383Y0054605D01*
X0134683Y0054096D01*
X0134102Y0053800D01*
X0134683Y0053504D01*
X0135383Y0052995D01*
X0135995Y0052383D01*
X0136504Y0051683D01*
X0136897Y0050911D01*
X0137165Y0050088D01*
X0137300Y0049233D01*
X0137300Y0049000D01*
X0132000Y0049000D01*
X0132000Y0048600D01*
X0137300Y0048600D01*
X0137300Y0048367D01*
X0137165Y0047512D01*
X0136897Y0046689D01*
X0136504Y0045917D01*
X0135995Y0045217D01*
X0135383Y0044605D01*
X0134683Y0044096D01*
X0134102Y0043800D01*
X0134683Y0043504D01*
X0135383Y0042995D01*
X0135995Y0042383D01*
X0136504Y0041683D01*
X0136897Y0040911D01*
X0137165Y0040088D01*
X0137300Y0039233D01*
X0137300Y0039000D01*
X0132000Y0039000D01*
X0132000Y0038600D01*
X0137300Y0038600D01*
X0137300Y0038367D01*
X0137165Y0037512D01*
X0136897Y0036689D01*
X0136504Y0035917D01*
X0135995Y0035217D01*
X0135383Y0034605D01*
X0134683Y0034096D01*
X0134102Y0033800D01*
X0134683Y0033504D01*
X0135383Y0032995D01*
X0135995Y0032383D01*
X0136504Y0031683D01*
X0136897Y0030911D01*
X0137165Y0030088D01*
X0137300Y0029233D01*
X0137300Y0029000D01*
X0132000Y0029000D01*
X0132000Y0028600D01*
X0137300Y0028600D01*
X0137300Y0028367D01*
X0137165Y0027512D01*
X0136897Y0026689D01*
X0136504Y0025917D01*
X0135995Y0025217D01*
X0135383Y0024605D01*
X0134683Y0024096D01*
X0133911Y0023703D01*
X0133088Y0023435D01*
X0132233Y0023300D01*
X0132000Y0023300D01*
X0132000Y0028600D01*
X0131600Y0028600D01*
X0131600Y0023300D01*
X0131367Y0023300D01*
X0130512Y0023435D01*
X0129689Y0023703D01*
X0128917Y0024096D01*
X0128217Y0024605D01*
X0127605Y0025217D01*
X0127443Y0025439D01*
X0127310Y0025118D01*
X0125482Y0023290D01*
X0123093Y0022300D01*
X0120507Y0022300D01*
X0118118Y0023290D01*
X0117400Y0024008D01*
X0117400Y0019291D01*
X0118291Y0018400D01*
X0330109Y0018400D01*
X0325866Y0022643D01*
X0323623Y0020400D01*
X0321800Y0020400D01*
X0321800Y0024800D01*
X0321800Y0024800D01*
X0321800Y0024800D01*
X0317400Y0024800D01*
X0317400Y0026623D01*
X0319643Y0028866D01*
X0311761Y0036748D01*
X0310748Y0037761D01*
X0310200Y0039084D01*
X0310200Y0057309D01*
X0305309Y0062200D01*
X0185084Y0062200D01*
X0183761Y0062748D01*
X0158309Y0088200D01*
X0138589Y0088200D01*
X0138384Y0087994D01*
X0136734Y0087311D01*
X0134948Y0087311D01*
X0133298Y0087994D01*
X0133093Y0088200D01*
X0074084Y0088200D01*
X0072761Y0088748D01*
X0071748Y0089761D01*
X0066509Y0095000D01*
X0064646Y0095000D01*
X0063200Y0095599D01*
X0063200Y0085123D01*
X0066373Y0081950D01*
X0129506Y0081950D01*
X0131123Y0081280D01*
X0130137Y0081688D02*
X0164820Y0081688D01*
X0163222Y0083287D02*
X0065036Y0083287D01*
X0063437Y0084885D02*
X0161623Y0084885D01*
X0160025Y0086484D02*
X0063200Y0086484D01*
X0063200Y0088082D02*
X0133210Y0088082D01*
X0138472Y0088082D02*
X0158426Y0088082D01*
X0159800Y0091800D02*
X0185800Y0065800D01*
X0306800Y0065800D01*
X0313800Y0058800D01*
X0313800Y0039800D01*
X0333800Y0019800D01*
X0473800Y0019800D01*
X0480800Y0026800D01*
X0480800Y0099800D01*
X0459800Y0120800D01*
X0446800Y0120800D01*
X0452200Y0117200D02*
X0458309Y0117200D01*
X0477200Y0098309D01*
X0477200Y0028291D01*
X0472309Y0023400D01*
X0436491Y0023400D01*
X0444852Y0031761D01*
X0445400Y0033084D01*
X0445400Y0042309D01*
X0449291Y0046200D01*
X0455052Y0046200D01*
X0455257Y0045994D01*
X0456907Y0045311D01*
X0458693Y0045311D01*
X0460343Y0045994D01*
X0461606Y0047257D01*
X0462289Y0048907D01*
X0462289Y0050693D01*
X0461606Y0052343D01*
X0460343Y0053606D01*
X0458693Y0054289D01*
X0456907Y0054289D01*
X0455257Y0053606D01*
X0455052Y0053400D01*
X0447084Y0053400D01*
X0445761Y0052852D01*
X0444748Y0051839D01*
X0438748Y0045839D01*
X0438200Y0044516D01*
X0438200Y0035291D01*
X0430309Y0027400D01*
X0413592Y0027400D01*
X0414310Y0028118D01*
X0415300Y0030507D01*
X0415300Y0033093D01*
X0414310Y0035482D01*
X0412482Y0037310D01*
X0410093Y0038300D01*
X0407507Y0038300D01*
X0405118Y0037310D01*
X0403800Y0035992D01*
X0402482Y0037310D01*
X0400093Y0038300D01*
X0397507Y0038300D01*
X0397425Y0038266D01*
X0383839Y0051852D01*
X0382516Y0052400D01*
X0371548Y0052400D01*
X0371343Y0052606D01*
X0369693Y0053289D01*
X0367907Y0053289D01*
X0366257Y0052606D01*
X0364994Y0051343D01*
X0364311Y0049693D01*
X0364311Y0047907D01*
X0364994Y0046257D01*
X0366257Y0044994D01*
X0367907Y0044311D01*
X0369693Y0044311D01*
X0371343Y0044994D01*
X0371548Y0045200D01*
X0380309Y0045200D01*
X0382528Y0042981D01*
X0381516Y0043400D01*
X0352548Y0043400D01*
X0352343Y0043606D01*
X0350693Y0044289D01*
X0348907Y0044289D01*
X0347257Y0043606D01*
X0345994Y0042343D01*
X0345311Y0040693D01*
X0345311Y0038907D01*
X0345994Y0037257D01*
X0347257Y0035994D01*
X0348907Y0035311D01*
X0350693Y0035311D01*
X0352343Y0035994D01*
X0352548Y0036200D01*
X0355499Y0036200D01*
X0355217Y0035995D01*
X0354605Y0035383D01*
X0354096Y0034683D01*
X0353703Y0033911D01*
X0353435Y0033088D01*
X0353300Y0032233D01*
X0353300Y0032000D01*
X0358600Y0032000D01*
X0358600Y0031600D01*
X0353300Y0031600D01*
X0353300Y0031367D01*
X0353435Y0030512D01*
X0353703Y0029689D01*
X0354096Y0028917D01*
X0354605Y0028217D01*
X0355217Y0027605D01*
X0355499Y0027400D01*
X0337291Y0027400D01*
X0325400Y0039291D01*
X0325400Y0070763D01*
X0327200Y0072563D01*
X0327200Y0077037D01*
X0326837Y0077400D01*
X0369400Y0077400D01*
X0369400Y0061908D01*
X0369311Y0061693D01*
X0369311Y0059907D01*
X0369994Y0058257D01*
X0371257Y0056994D01*
X0372907Y0056311D01*
X0374693Y0056311D01*
X0376343Y0056994D01*
X0377606Y0058257D01*
X0378289Y0059907D01*
X0378289Y0061693D01*
X0378200Y0061908D01*
X0378200Y0102675D01*
X0377530Y0104292D01*
X0376292Y0105530D01*
X0372200Y0109623D01*
X0372200Y0113977D01*
X0381400Y0123177D01*
X0381400Y0117126D01*
X0382222Y0115141D01*
X0383741Y0113622D01*
X0385726Y0112800D01*
X0387874Y0112800D01*
X0389859Y0113622D01*
X0391378Y0115141D01*
X0391800Y0116160D01*
X0392222Y0115141D01*
X0393741Y0113622D01*
X0395726Y0112800D01*
X0397874Y0112800D01*
X0399859Y0113622D01*
X0401378Y0115141D01*
X0401800Y0116160D01*
X0402222Y0115141D01*
X0403741Y0113622D01*
X0405726Y0112800D01*
X0407874Y0112800D01*
X0409859Y0113622D01*
X0411378Y0115141D01*
X0411800Y0116160D01*
X0412222Y0115141D01*
X0413741Y0113622D01*
X0415726Y0112800D01*
X0417874Y0112800D01*
X0419859Y0113622D01*
X0421378Y0115141D01*
X0421800Y0116160D01*
X0422222Y0115141D01*
X0423741Y0113622D01*
X0425726Y0112800D01*
X0427874Y0112800D01*
X0429859Y0113622D01*
X0431378Y0115141D01*
X0431800Y0116160D01*
X0432222Y0115141D01*
X0433741Y0113622D01*
X0435726Y0112800D01*
X0437874Y0112800D01*
X0439859Y0113622D01*
X0441378Y0115141D01*
X0441800Y0116160D01*
X0442222Y0115141D01*
X0443741Y0113622D01*
X0445726Y0112800D01*
X0447874Y0112800D01*
X0449859Y0113622D01*
X0451378Y0115141D01*
X0452200Y0117126D01*
X0452200Y0117200D01*
X0452088Y0116856D02*
X0458653Y0116856D01*
X0460252Y0115257D02*
X0451426Y0115257D01*
X0449895Y0113659D02*
X0461850Y0113659D01*
X0463449Y0112060D02*
X0372200Y0112060D01*
X0372200Y0110462D02*
X0465047Y0110462D01*
X0466646Y0108863D02*
X0372959Y0108863D01*
X0374558Y0107265D02*
X0468244Y0107265D01*
X0469843Y0105666D02*
X0376157Y0105666D01*
X0376292Y0105530D02*
X0376292Y0105530D01*
X0377623Y0104068D02*
X0471441Y0104068D01*
X0473040Y0102469D02*
X0378200Y0102469D01*
X0378200Y0100870D02*
X0474638Y0100870D01*
X0476237Y0099272D02*
X0378200Y0099272D01*
X0378200Y0097673D02*
X0383437Y0097673D01*
X0383741Y0097978D02*
X0382222Y0096459D01*
X0381400Y0094474D01*
X0381400Y0087126D01*
X0382222Y0085141D01*
X0383741Y0083622D01*
X0385726Y0082800D01*
X0387874Y0082800D01*
X0389859Y0083622D01*
X0391378Y0085141D01*
X0391800Y0086160D01*
X0392222Y0085141D01*
X0393741Y0083622D01*
X0395726Y0082800D01*
X0397874Y0082800D01*
X0399859Y0083622D01*
X0401378Y0085141D01*
X0401800Y0086160D01*
X0402222Y0085141D01*
X0403741Y0083622D01*
X0405726Y0082800D01*
X0407874Y0082800D01*
X0409859Y0083622D01*
X0411378Y0085141D01*
X0412200Y0087126D01*
X0412200Y0094474D01*
X0411378Y0096459D01*
X0409859Y0097978D01*
X0407874Y0098800D01*
X0405726Y0098800D01*
X0403741Y0097978D01*
X0402222Y0096459D01*
X0401800Y0095440D01*
X0401378Y0096459D01*
X0399859Y0097978D01*
X0397874Y0098800D01*
X0395726Y0098800D01*
X0393741Y0097978D01*
X0392222Y0096459D01*
X0391800Y0095440D01*
X0391378Y0096459D01*
X0389859Y0097978D01*
X0387874Y0098800D01*
X0385726Y0098800D01*
X0383741Y0097978D01*
X0382063Y0096075D02*
X0378200Y0096075D01*
X0378200Y0094476D02*
X0381401Y0094476D01*
X0381400Y0092878D02*
X0378200Y0092878D01*
X0378200Y0091279D02*
X0381400Y0091279D01*
X0381400Y0089681D02*
X0378200Y0089681D01*
X0378200Y0088082D02*
X0381400Y0088082D01*
X0381666Y0086484D02*
X0378200Y0086484D01*
X0378200Y0084885D02*
X0382478Y0084885D01*
X0384550Y0083287D02*
X0378200Y0083287D01*
X0378200Y0081688D02*
X0477200Y0081688D01*
X0477200Y0080090D02*
X0378200Y0080090D01*
X0378200Y0078491D02*
X0477200Y0078491D01*
X0477200Y0076893D02*
X0378200Y0076893D01*
X0378200Y0075294D02*
X0477200Y0075294D01*
X0477200Y0073696D02*
X0378200Y0073696D01*
X0378200Y0072097D02*
X0477200Y0072097D01*
X0477200Y0070499D02*
X0378200Y0070499D01*
X0378200Y0068900D02*
X0477200Y0068900D01*
X0477200Y0067302D02*
X0378200Y0067302D01*
X0378200Y0065703D02*
X0477200Y0065703D01*
X0477200Y0064105D02*
X0378200Y0064105D01*
X0378200Y0062506D02*
X0477200Y0062506D01*
X0477200Y0060908D02*
X0378289Y0060908D01*
X0378041Y0059309D02*
X0477200Y0059309D01*
X0477200Y0057711D02*
X0377059Y0057711D01*
X0370541Y0057711D02*
X0325400Y0057711D01*
X0325400Y0059309D02*
X0369559Y0059309D01*
X0369311Y0060908D02*
X0325400Y0060908D01*
X0325400Y0062506D02*
X0369400Y0062506D01*
X0369400Y0064105D02*
X0325400Y0064105D01*
X0325400Y0065703D02*
X0369400Y0065703D01*
X0369400Y0067302D02*
X0325400Y0067302D01*
X0325400Y0068900D02*
X0369400Y0068900D01*
X0369400Y0070499D02*
X0325400Y0070499D01*
X0326734Y0072097D02*
X0369400Y0072097D01*
X0369400Y0073696D02*
X0327200Y0073696D01*
X0327200Y0075294D02*
X0369400Y0075294D01*
X0369400Y0076893D02*
X0327200Y0076893D01*
X0321800Y0074800D02*
X0321800Y0037800D01*
X0335800Y0023800D01*
X0431800Y0023800D01*
X0441800Y0033800D01*
X0441800Y0043800D01*
X0447800Y0049800D01*
X0457800Y0049800D01*
X0461963Y0048120D02*
X0477200Y0048120D01*
X0477200Y0049718D02*
X0462289Y0049718D01*
X0462031Y0051317D02*
X0477200Y0051317D01*
X0477200Y0052915D02*
X0461033Y0052915D01*
X0460869Y0046521D02*
X0477200Y0046521D01*
X0477200Y0044923D02*
X0448014Y0044923D01*
X0446415Y0043324D02*
X0451940Y0043324D01*
X0450730Y0042823D02*
X0453784Y0044088D01*
X0457091Y0044088D01*
X0460146Y0042823D01*
X0462484Y0040485D01*
X0463750Y0037430D01*
X0463750Y0034123D01*
X0462484Y0031068D01*
X0460146Y0028730D01*
X0457091Y0027465D01*
X0453784Y0027465D01*
X0450730Y0028730D01*
X0448391Y0031068D01*
X0447126Y0034123D01*
X0447126Y0037430D01*
X0448391Y0040485D01*
X0450730Y0042823D01*
X0449632Y0041726D02*
X0445400Y0041726D01*
X0445400Y0040127D02*
X0448243Y0040127D01*
X0447581Y0038529D02*
X0445400Y0038529D01*
X0445400Y0036930D02*
X0447126Y0036930D01*
X0447126Y0035332D02*
X0445400Y0035332D01*
X0445400Y0033733D02*
X0447288Y0033733D01*
X0447950Y0032134D02*
X0445007Y0032134D01*
X0443627Y0030536D02*
X0448923Y0030536D01*
X0450522Y0028937D02*
X0442029Y0028937D01*
X0440430Y0027339D02*
X0476248Y0027339D01*
X0477200Y0028937D02*
X0460354Y0028937D01*
X0461952Y0030536D02*
X0477200Y0030536D01*
X0477200Y0032134D02*
X0462926Y0032134D01*
X0463588Y0033733D02*
X0477200Y0033733D01*
X0477200Y0035332D02*
X0463750Y0035332D01*
X0463750Y0036930D02*
X0477200Y0036930D01*
X0477200Y0038529D02*
X0463294Y0038529D01*
X0462632Y0040127D02*
X0477200Y0040127D01*
X0477200Y0041726D02*
X0461243Y0041726D01*
X0458936Y0043324D02*
X0477200Y0043324D01*
X0484400Y0043324D02*
X0567800Y0043324D01*
X0567800Y0041726D02*
X0484400Y0041726D01*
X0484400Y0040127D02*
X0567800Y0040127D01*
X0567800Y0038529D02*
X0484400Y0038529D01*
X0484400Y0036930D02*
X0567800Y0036930D01*
X0567800Y0035332D02*
X0484400Y0035332D01*
X0484400Y0033733D02*
X0567800Y0033733D01*
X0567800Y0032134D02*
X0484400Y0032134D01*
X0484400Y0030536D02*
X0567800Y0030536D01*
X0567800Y0028937D02*
X0484400Y0028937D01*
X0484400Y0027339D02*
X0567800Y0027339D01*
X0567800Y0025740D02*
X0484258Y0025740D01*
X0483233Y0024142D02*
X0567800Y0024142D01*
X0567800Y0022543D02*
X0481635Y0022543D01*
X0480036Y0020945D02*
X0567800Y0020945D01*
X0567800Y0019346D02*
X0478438Y0019346D01*
X0476839Y0017748D02*
X0567800Y0017748D01*
X0567800Y0016149D02*
X0426100Y0016149D01*
X0426289Y0014551D02*
X0567800Y0014551D01*
X0567800Y0012952D02*
X0425894Y0012952D01*
X0424702Y0011354D02*
X0567800Y0011354D01*
X0567800Y0044923D02*
X0484400Y0044923D01*
X0484400Y0046521D02*
X0567800Y0046521D01*
X0567800Y0048120D02*
X0484400Y0048120D01*
X0484400Y0049718D02*
X0567800Y0049718D01*
X0567800Y0051317D02*
X0484400Y0051317D01*
X0484400Y0052915D02*
X0567800Y0052915D01*
X0567800Y0054514D02*
X0484400Y0054514D01*
X0484400Y0056112D02*
X0567800Y0056112D01*
X0567800Y0057711D02*
X0484400Y0057711D01*
X0484400Y0059309D02*
X0567800Y0059309D01*
X0567800Y0060908D02*
X0484400Y0060908D01*
X0484400Y0062506D02*
X0567800Y0062506D01*
X0567800Y0064105D02*
X0484400Y0064105D01*
X0484400Y0065703D02*
X0567800Y0065703D01*
X0567800Y0067302D02*
X0484400Y0067302D01*
X0484400Y0068900D02*
X0567800Y0068900D01*
X0567800Y0070499D02*
X0484400Y0070499D01*
X0484400Y0072097D02*
X0567800Y0072097D01*
X0567800Y0073696D02*
X0484400Y0073696D01*
X0484400Y0075294D02*
X0567800Y0075294D01*
X0567800Y0076893D02*
X0484400Y0076893D01*
X0484400Y0078491D02*
X0567800Y0078491D01*
X0567800Y0080090D02*
X0484400Y0080090D01*
X0484400Y0081688D02*
X0567800Y0081688D01*
X0567800Y0083287D02*
X0484400Y0083287D01*
X0484400Y0084885D02*
X0567800Y0084885D01*
X0567800Y0086484D02*
X0484400Y0086484D01*
X0484400Y0088082D02*
X0567800Y0088082D01*
X0567800Y0089681D02*
X0484400Y0089681D01*
X0484400Y0091279D02*
X0567800Y0091279D01*
X0567800Y0092878D02*
X0484400Y0092878D01*
X0484400Y0094476D02*
X0567800Y0094476D01*
X0567800Y0096075D02*
X0484400Y0096075D01*
X0484400Y0097673D02*
X0567800Y0097673D01*
X0567800Y0099272D02*
X0484400Y0099272D01*
X0484253Y0100870D02*
X0567800Y0100870D01*
X0567800Y0102469D02*
X0483222Y0102469D01*
X0481624Y0104068D02*
X0567800Y0104068D01*
X0567800Y0105666D02*
X0480025Y0105666D01*
X0478427Y0107265D02*
X0567800Y0107265D01*
X0567800Y0108863D02*
X0476828Y0108863D01*
X0475230Y0110462D02*
X0567800Y0110462D01*
X0567800Y0112060D02*
X0473631Y0112060D01*
X0472033Y0113659D02*
X0567800Y0113659D01*
X0567800Y0115257D02*
X0470434Y0115257D01*
X0468836Y0116856D02*
X0567800Y0116856D01*
X0567800Y0118454D02*
X0467237Y0118454D01*
X0465639Y0120053D02*
X0567800Y0120053D01*
X0567800Y0121651D02*
X0464040Y0121651D01*
X0462442Y0123250D02*
X0567800Y0123250D01*
X0567800Y0124848D02*
X0452045Y0124848D01*
X0460800Y0129800D02*
X0467800Y0136800D01*
X0467800Y0144800D01*
X0471800Y0148800D01*
X0477800Y0148800D01*
X0484814Y0152023D02*
X0567800Y0152023D01*
X0567800Y0153621D02*
X0482871Y0153621D01*
X0484457Y0155220D02*
X0567800Y0155220D01*
X0567800Y0156818D02*
X0485424Y0156818D01*
X0485800Y0158417D02*
X0567800Y0158417D01*
X0567800Y0160015D02*
X0485741Y0160015D01*
X0485079Y0161614D02*
X0567800Y0161614D01*
X0567800Y0163212D02*
X0483624Y0163212D01*
X0471976Y0163212D02*
X0461804Y0163212D01*
X0462484Y0162532D02*
X0460146Y0164870D01*
X0457091Y0166135D01*
X0453784Y0166135D01*
X0450730Y0164870D01*
X0448391Y0162532D01*
X0447126Y0159477D01*
X0447126Y0156170D01*
X0448391Y0153115D01*
X0450730Y0150777D01*
X0453784Y0149512D01*
X0457091Y0149512D01*
X0460146Y0150777D01*
X0462484Y0153115D01*
X0463750Y0156170D01*
X0463750Y0159477D01*
X0462484Y0162532D01*
X0462864Y0161614D02*
X0470521Y0161614D01*
X0469859Y0160015D02*
X0463527Y0160015D01*
X0463750Y0158417D02*
X0469800Y0158417D01*
X0470176Y0156818D02*
X0463750Y0156818D01*
X0463356Y0155220D02*
X0471143Y0155220D01*
X0472729Y0153621D02*
X0462694Y0153621D01*
X0461392Y0152023D02*
X0470173Y0152023D01*
X0468333Y0150424D02*
X0459294Y0150424D01*
X0465136Y0147227D02*
X0370289Y0147227D01*
X0370289Y0146907D02*
X0370289Y0148400D01*
X0415692Y0148400D01*
X0415907Y0148311D01*
X0417693Y0148311D01*
X0419343Y0148994D01*
X0420606Y0150257D01*
X0421289Y0151907D01*
X0421289Y0153693D01*
X0420606Y0155343D01*
X0419343Y0156606D01*
X0417693Y0157289D01*
X0415907Y0157289D01*
X0415692Y0157200D01*
X0354925Y0157200D01*
X0353308Y0156530D01*
X0352070Y0155292D01*
X0349472Y0152695D01*
X0349257Y0152606D01*
X0347994Y0151343D01*
X0347311Y0149693D01*
X0347311Y0147907D01*
X0347994Y0146257D01*
X0349257Y0144994D01*
X0350907Y0144311D01*
X0352693Y0144311D01*
X0354343Y0144994D01*
X0355606Y0146257D01*
X0355695Y0146472D01*
X0357623Y0148400D01*
X0361311Y0148400D01*
X0361311Y0146907D01*
X0361994Y0145257D01*
X0362200Y0145052D01*
X0362200Y0139548D01*
X0361994Y0139343D01*
X0361311Y0137693D01*
X0361311Y0135907D01*
X0361994Y0134257D01*
X0363257Y0132994D01*
X0364907Y0132311D01*
X0366693Y0132311D01*
X0368343Y0132994D01*
X0369606Y0134257D01*
X0370289Y0135907D01*
X0370289Y0137693D01*
X0369606Y0139343D01*
X0369400Y0139548D01*
X0369400Y0145052D01*
X0369606Y0145257D01*
X0370289Y0146907D01*
X0369759Y0145629D02*
X0464247Y0145629D01*
X0464200Y0144030D02*
X0369400Y0144030D01*
X0369400Y0142432D02*
X0464200Y0142432D01*
X0464200Y0140833D02*
X0369400Y0140833D01*
X0369650Y0139235D02*
X0385012Y0139235D01*
X0383414Y0137636D02*
X0370289Y0137636D01*
X0370289Y0136038D02*
X0381815Y0136038D01*
X0380217Y0134439D02*
X0369681Y0134439D01*
X0367972Y0132841D02*
X0378618Y0132841D01*
X0377020Y0131242D02*
X0245400Y0131242D01*
X0245400Y0129644D02*
X0249968Y0129644D01*
X0247418Y0128045D02*
X0246182Y0128045D01*
X0245400Y0132841D02*
X0363628Y0132841D01*
X0361919Y0134439D02*
X0268469Y0134439D01*
X0266131Y0134439D02*
X0249469Y0134439D01*
X0247131Y0134439D02*
X0245400Y0134439D01*
X0252174Y0136038D02*
X0263426Y0136038D01*
X0262351Y0137636D02*
X0253249Y0137636D01*
X0253700Y0139235D02*
X0261900Y0139235D01*
X0261900Y0140833D02*
X0253700Y0140833D01*
X0253055Y0142432D02*
X0262545Y0142432D01*
X0263894Y0144030D02*
X0251706Y0144030D01*
X0246800Y0147800D02*
X0241800Y0142800D01*
X0241800Y0123800D01*
X0246679Y0120053D02*
X0246921Y0120053D01*
X0248766Y0118454D02*
X0244834Y0118454D01*
X0238766Y0118454D02*
X0234834Y0118454D01*
X0236679Y0120053D02*
X0236921Y0120053D01*
X0231816Y0123816D02*
X0231800Y0123800D01*
X0231816Y0123816D02*
X0231816Y0157824D01*
X0226414Y0161614D02*
X0225804Y0161614D01*
X0228012Y0163212D02*
X0222951Y0163212D01*
X0222016Y0163212D02*
X0221616Y0163212D01*
X0220681Y0163212D02*
X0215619Y0163212D01*
X0217218Y0161614D02*
X0217828Y0161614D01*
X0221616Y0161614D02*
X0222016Y0161614D01*
X0222016Y0160015D02*
X0221616Y0160015D01*
X0221616Y0158417D02*
X0222016Y0158417D01*
X0222016Y0157624D02*
X0222016Y0152324D01*
X0222249Y0152324D01*
X0223104Y0152459D01*
X0223927Y0152727D01*
X0224698Y0153120D01*
X0225399Y0153628D01*
X0226011Y0154241D01*
X0226172Y0154463D01*
X0226305Y0154142D01*
X0228134Y0152313D01*
X0228216Y0152279D01*
X0228216Y0128842D01*
X0226800Y0127427D01*
X0225400Y0128827D01*
X0225400Y0134516D01*
X0224852Y0135839D01*
X0215400Y0145291D01*
X0215400Y0152273D01*
X0215498Y0152313D01*
X0217326Y0154142D01*
X0217459Y0154463D01*
X0217621Y0154241D01*
X0218233Y0153628D01*
X0218933Y0153120D01*
X0219704Y0152727D01*
X0220528Y0152459D01*
X0221383Y0152324D01*
X0221616Y0152324D01*
X0221616Y0157624D01*
X0222016Y0157624D01*
X0222016Y0156818D02*
X0221616Y0156818D01*
X0221616Y0155220D02*
X0222016Y0155220D01*
X0222016Y0153621D02*
X0221616Y0153621D01*
X0218243Y0153621D02*
X0216806Y0153621D01*
X0215400Y0152023D02*
X0228216Y0152023D01*
X0228216Y0150424D02*
X0215400Y0150424D01*
X0215400Y0148826D02*
X0228216Y0148826D01*
X0228216Y0147227D02*
X0215400Y0147227D01*
X0215400Y0145629D02*
X0228216Y0145629D01*
X0228216Y0144030D02*
X0216661Y0144030D01*
X0218259Y0142432D02*
X0228216Y0142432D01*
X0228216Y0140833D02*
X0219858Y0140833D01*
X0221456Y0139235D02*
X0228216Y0139235D01*
X0228216Y0137636D02*
X0223055Y0137636D01*
X0224653Y0136038D02*
X0228216Y0136038D01*
X0228216Y0134439D02*
X0225400Y0134439D01*
X0225400Y0132841D02*
X0228216Y0132841D01*
X0228216Y0131242D02*
X0225400Y0131242D01*
X0225400Y0129644D02*
X0228216Y0129644D01*
X0227418Y0128045D02*
X0226182Y0128045D01*
X0221800Y0123800D02*
X0221800Y0133800D01*
X0211800Y0143800D01*
X0211800Y0157808D01*
X0211816Y0157824D01*
X0206826Y0153621D02*
X0206806Y0153621D01*
X0208200Y0152023D02*
X0204797Y0152023D01*
X0208200Y0150424D02*
X0164019Y0150424D01*
X0164870Y0150777D02*
X0167209Y0153115D01*
X0168474Y0156170D01*
X0168474Y0159477D01*
X0167209Y0162532D01*
X0164870Y0164870D01*
X0161816Y0166135D01*
X0158509Y0166135D01*
X0155454Y0164870D01*
X0153116Y0162532D01*
X0151850Y0159477D01*
X0151850Y0156170D01*
X0153116Y0153115D01*
X0155454Y0150777D01*
X0158509Y0149512D01*
X0161816Y0149512D01*
X0164870Y0150777D01*
X0166116Y0152023D02*
X0188835Y0152023D01*
X0194797Y0152023D02*
X0198835Y0152023D01*
X0196826Y0153621D02*
X0196806Y0153621D01*
X0208200Y0148826D02*
X0143865Y0148826D01*
X0142267Y0150424D02*
X0156306Y0150424D01*
X0154208Y0152023D02*
X0140668Y0152023D01*
X0139070Y0153621D02*
X0152906Y0153621D01*
X0152244Y0155220D02*
X0137471Y0155220D01*
X0139055Y0156818D02*
X0151850Y0156818D01*
X0151850Y0158417D02*
X0140492Y0158417D01*
X0141154Y0160015D02*
X0152073Y0160015D01*
X0152736Y0161614D02*
X0141200Y0161614D01*
X0141200Y0163212D02*
X0153796Y0163212D01*
X0155395Y0164811D02*
X0141200Y0164811D01*
X0141200Y0166409D02*
X0260968Y0166409D01*
X0262567Y0164811D02*
X0164930Y0164811D01*
X0166528Y0163212D02*
X0177464Y0163212D01*
X0176316Y0161614D02*
X0167589Y0161614D01*
X0168251Y0160015D02*
X0176316Y0160015D01*
X0176316Y0158417D02*
X0168474Y0158417D01*
X0168474Y0156818D02*
X0176316Y0156818D01*
X0176316Y0155220D02*
X0168080Y0155220D01*
X0167418Y0153621D02*
X0176387Y0153621D01*
X0181616Y0153621D02*
X0182016Y0153621D01*
X0182016Y0155220D02*
X0181616Y0155220D01*
X0181616Y0156818D02*
X0182016Y0156818D01*
X0182016Y0158417D02*
X0181616Y0158417D01*
X0181616Y0160015D02*
X0182016Y0160015D01*
X0182016Y0161614D02*
X0181616Y0161614D01*
X0181616Y0163212D02*
X0182016Y0163212D01*
X0186168Y0163212D02*
X0188012Y0163212D01*
X0195619Y0163212D02*
X0198012Y0163212D01*
X0205619Y0163212D02*
X0208012Y0163212D01*
X0225389Y0153621D02*
X0226826Y0153621D01*
X0208200Y0147227D02*
X0145464Y0147227D01*
X0147062Y0145629D02*
X0208200Y0145629D01*
X0208200Y0144030D02*
X0148661Y0144030D01*
X0150259Y0142432D02*
X0208470Y0142432D01*
X0209676Y0140833D02*
X0151858Y0140833D01*
X0153456Y0139235D02*
X0211274Y0139235D01*
X0209761Y0140748D02*
X0209761Y0140748D01*
X0212873Y0137636D02*
X0155055Y0137636D01*
X0156653Y0136038D02*
X0214471Y0136038D01*
X0216070Y0134439D02*
X0158252Y0134439D01*
X0149668Y0132841D02*
X0140077Y0132841D01*
X0140378Y0133141D02*
X0141200Y0135126D01*
X0141200Y0141309D01*
X0153748Y0128761D01*
X0153748Y0128761D01*
X0154761Y0127748D01*
X0156084Y0127200D01*
X0185309Y0127200D01*
X0187200Y0125309D01*
X0187200Y0090084D01*
X0187748Y0088761D01*
X0188761Y0087748D01*
X0191761Y0084748D01*
X0193084Y0084200D01*
X0200516Y0084200D01*
X0282935Y0084200D01*
X0282311Y0082693D01*
X0282311Y0080907D01*
X0282645Y0080100D01*
X0279137Y0080100D01*
X0279037Y0080200D01*
X0274563Y0080200D01*
X0274463Y0080100D01*
X0264137Y0080100D01*
X0264037Y0080200D01*
X0259563Y0080200D01*
X0259463Y0080100D01*
X0249137Y0080100D01*
X0249037Y0080200D01*
X0244563Y0080200D01*
X0244463Y0080100D01*
X0234137Y0080100D01*
X0234037Y0080200D01*
X0229563Y0080200D01*
X0229463Y0080100D01*
X0219137Y0080100D01*
X0219037Y0080200D01*
X0214563Y0080200D01*
X0214463Y0080100D01*
X0204137Y0080100D01*
X0204037Y0080200D01*
X0199563Y0080200D01*
X0199463Y0080100D01*
X0192531Y0080100D01*
X0180600Y0092031D01*
X0180600Y0112352D01*
X0179413Y0115218D01*
X0177218Y0117413D01*
X0176599Y0117669D01*
X0177700Y0118770D01*
X0177700Y0120800D01*
X0177700Y0122830D01*
X0174830Y0125700D01*
X0172800Y0125700D01*
X0172800Y0120800D01*
X0172800Y0120800D01*
X0177700Y0120800D01*
X0172800Y0120800D01*
X0172800Y0120800D01*
X0172800Y0120800D01*
X0167900Y0120800D01*
X0167900Y0122830D01*
X0170770Y0125700D01*
X0172800Y0125700D01*
X0172800Y0120800D01*
X0167900Y0120800D01*
X0167900Y0118770D01*
X0169001Y0117669D01*
X0168382Y0117413D01*
X0167069Y0116100D01*
X0156661Y0116100D01*
X0143959Y0128802D01*
X0142468Y0130293D01*
X0140520Y0131100D01*
X0137598Y0131100D01*
X0138859Y0131622D01*
X0140378Y0133141D01*
X0140916Y0134439D02*
X0148070Y0134439D01*
X0146471Y0136038D02*
X0141200Y0136038D01*
X0141200Y0137636D02*
X0144873Y0137636D01*
X0143274Y0139235D02*
X0141200Y0139235D01*
X0141200Y0140833D02*
X0141676Y0140833D01*
X0120784Y0143400D02*
X0120400Y0142474D01*
X0120400Y0135126D01*
X0121032Y0133600D01*
X0119350Y0133600D01*
X0119563Y0133894D01*
X0119878Y0134511D01*
X0120092Y0135170D01*
X0120200Y0135854D01*
X0120200Y0138800D01*
X0120200Y0141746D01*
X0120092Y0142430D01*
X0119878Y0143089D01*
X0119719Y0143400D01*
X0120784Y0143400D01*
X0120400Y0142432D02*
X0120091Y0142432D01*
X0120200Y0140833D02*
X0120400Y0140833D01*
X0120400Y0139235D02*
X0120200Y0139235D01*
X0120200Y0138800D02*
X0115800Y0138800D01*
X0115800Y0138800D01*
X0115800Y0138800D01*
X0111400Y0138800D01*
X0111400Y0141746D01*
X0111508Y0142430D01*
X0111722Y0143089D01*
X0111881Y0143400D01*
X0072123Y0143400D01*
X0063200Y0134477D01*
X0063200Y0126001D01*
X0064646Y0126600D01*
X0066000Y0126600D01*
X0066000Y0127352D01*
X0067187Y0130218D01*
X0069382Y0132413D01*
X0072248Y0133600D01*
X0112250Y0133600D01*
X0112037Y0133894D01*
X0111722Y0134511D01*
X0111508Y0135170D01*
X0111400Y0135854D01*
X0111400Y0138800D01*
X0115800Y0138800D01*
X0120200Y0138800D01*
X0120200Y0137636D02*
X0120400Y0137636D01*
X0120400Y0136038D02*
X0120200Y0136038D01*
X0119841Y0134439D02*
X0120684Y0134439D01*
X0111759Y0134439D02*
X0063200Y0134439D01*
X0063200Y0132841D02*
X0070415Y0132841D01*
X0068211Y0131242D02*
X0063200Y0131242D01*
X0063200Y0129644D02*
X0066949Y0129644D01*
X0066287Y0128045D02*
X0063200Y0128045D01*
X0063200Y0126447D02*
X0064276Y0126447D01*
X0054400Y0126447D02*
X0006800Y0126447D01*
X0006800Y0128045D02*
X0054400Y0128045D01*
X0054400Y0129644D02*
X0006800Y0129644D01*
X0006800Y0131242D02*
X0054400Y0131242D01*
X0054400Y0132841D02*
X0006800Y0132841D01*
X0006800Y0134439D02*
X0054400Y0134439D01*
X0054400Y0136038D02*
X0006800Y0136038D01*
X0006800Y0137636D02*
X0054591Y0137636D01*
X0055512Y0139235D02*
X0006800Y0139235D01*
X0006800Y0140833D02*
X0057111Y0140833D01*
X0058709Y0142432D02*
X0006800Y0142432D01*
X0006800Y0144030D02*
X0060308Y0144030D01*
X0061906Y0145629D02*
X0006800Y0145629D01*
X0006800Y0147227D02*
X0063505Y0147227D01*
X0065103Y0148826D02*
X0006800Y0148826D01*
X0006800Y0150424D02*
X0066702Y0150424D01*
X0068997Y0152023D02*
X0006800Y0152023D01*
X0006800Y0153621D02*
X0049248Y0153621D01*
X0047882Y0154187D02*
X0050748Y0153000D01*
X0053852Y0153000D01*
X0056718Y0154187D01*
X0058913Y0156382D01*
X0060100Y0159248D01*
X0060100Y0162352D01*
X0058913Y0165218D01*
X0056718Y0167413D01*
X0053852Y0168600D01*
X0050748Y0168600D01*
X0047882Y0167413D01*
X0045687Y0165218D01*
X0044500Y0162352D01*
X0044500Y0159248D01*
X0045687Y0156382D01*
X0047882Y0154187D01*
X0046849Y0155220D02*
X0006800Y0155220D01*
X0006800Y0156818D02*
X0045507Y0156818D01*
X0044844Y0158417D02*
X0006800Y0158417D01*
X0006800Y0160015D02*
X0044500Y0160015D01*
X0044500Y0161614D02*
X0006800Y0161614D01*
X0006800Y0163212D02*
X0044857Y0163212D01*
X0045519Y0164811D02*
X0006800Y0164811D01*
X0006800Y0166409D02*
X0046879Y0166409D01*
X0049319Y0168008D02*
X0006800Y0168008D01*
X0006800Y0169606D02*
X0112784Y0169606D01*
X0112934Y0169756D02*
X0112444Y0169266D01*
X0112037Y0168706D01*
X0111722Y0168089D01*
X0111508Y0167430D01*
X0111400Y0166746D01*
X0111400Y0163800D01*
X0115800Y0163800D01*
X0120200Y0163800D01*
X0120200Y0166746D01*
X0120092Y0167430D01*
X0119878Y0168089D01*
X0119563Y0168706D01*
X0119156Y0169266D01*
X0118666Y0169756D01*
X0118106Y0170163D01*
X0117489Y0170478D01*
X0116830Y0170692D01*
X0116146Y0170800D01*
X0115800Y0170800D01*
X0115800Y0163800D01*
X0115800Y0163800D01*
X0115800Y0163800D01*
X0120200Y0163800D01*
X0120200Y0160854D01*
X0120092Y0160170D01*
X0119878Y0159511D01*
X0119563Y0158894D01*
X0119156Y0158334D01*
X0118666Y0157844D01*
X0118106Y0157437D01*
X0117489Y0157122D01*
X0116830Y0156908D01*
X0116146Y0156800D01*
X0115800Y0156800D01*
X0115800Y0163800D01*
X0115800Y0163800D01*
X0115800Y0163800D01*
X0115800Y0170800D01*
X0115454Y0170800D01*
X0114770Y0170692D01*
X0114111Y0170478D01*
X0113494Y0170163D01*
X0112934Y0169756D01*
X0111696Y0168008D02*
X0055281Y0168008D01*
X0057721Y0166409D02*
X0111400Y0166409D01*
X0111400Y0164811D02*
X0059081Y0164811D01*
X0059743Y0163212D02*
X0111400Y0163212D01*
X0111400Y0163800D02*
X0111400Y0160854D01*
X0111508Y0160170D01*
X0111722Y0159511D01*
X0112037Y0158894D01*
X0112444Y0158334D01*
X0112934Y0157844D01*
X0113494Y0157437D01*
X0114111Y0157122D01*
X0114770Y0156908D01*
X0115454Y0156800D01*
X0115800Y0156800D01*
X0115800Y0163800D01*
X0111400Y0163800D01*
X0111400Y0161614D02*
X0060100Y0161614D01*
X0060100Y0160015D02*
X0111558Y0160015D01*
X0112383Y0158417D02*
X0059756Y0158417D01*
X0059093Y0156818D02*
X0115338Y0156818D01*
X0115800Y0156818D02*
X0115800Y0156818D01*
X0116262Y0156818D02*
X0122545Y0156818D01*
X0121108Y0158417D02*
X0119217Y0158417D01*
X0120042Y0160015D02*
X0120446Y0160015D01*
X0120400Y0161614D02*
X0120200Y0161614D01*
X0120200Y0163212D02*
X0120400Y0163212D01*
X0120400Y0164811D02*
X0120200Y0164811D01*
X0120200Y0166409D02*
X0120400Y0166409D01*
X0120621Y0168008D02*
X0119904Y0168008D01*
X0118816Y0169606D02*
X0121370Y0169606D01*
X0123289Y0171205D02*
X0006800Y0171205D01*
X0006800Y0172803D02*
X0239594Y0172803D01*
X0238515Y0174402D02*
X0006800Y0174402D01*
X0006800Y0176001D02*
X0199363Y0176001D01*
X0198032Y0177599D02*
X0156622Y0177599D01*
X0159115Y0179198D02*
X0197400Y0179198D01*
X0197400Y0180796D02*
X0172184Y0180796D01*
X0174425Y0182395D02*
X0197400Y0182395D01*
X0197400Y0183993D02*
X0176024Y0183993D01*
X0177622Y0185592D02*
X0197400Y0185592D01*
X0197697Y0187190D02*
X0179221Y0187190D01*
X0180819Y0188789D02*
X0198400Y0188789D01*
X0198400Y0190387D02*
X0182418Y0190387D01*
X0184016Y0191986D02*
X0198943Y0191986D01*
X0200362Y0193584D02*
X0185615Y0193584D01*
X0187214Y0195183D02*
X0201960Y0195183D01*
X0203559Y0196781D02*
X0188812Y0196781D01*
X0190411Y0198380D02*
X0205157Y0198380D01*
X0192009Y0199978D02*
X0236400Y0199978D01*
X0236400Y0198380D02*
X0231443Y0198380D01*
X0233041Y0196781D02*
X0236459Y0196781D01*
X0237195Y0195183D02*
X0234640Y0195183D01*
X0236238Y0193584D02*
X0238793Y0193584D01*
X0238308Y0194070D02*
X0238308Y0194070D01*
X0237837Y0191986D02*
X0240392Y0191986D01*
X0239435Y0190387D02*
X0241990Y0190387D01*
X0241034Y0188789D02*
X0243589Y0188789D01*
X0249640Y0195183D02*
X0265960Y0195183D01*
X0267559Y0196781D02*
X0248041Y0196781D01*
X0246443Y0198380D02*
X0257872Y0198380D01*
X0256696Y0199978D02*
X0245200Y0199978D01*
X0245686Y0201577D02*
X0256311Y0201577D01*
X0256511Y0203175D02*
X0247224Y0203175D01*
X0247924Y0204774D02*
X0257425Y0204774D01*
X0259150Y0206372D02*
X0248586Y0206372D01*
X0248600Y0207971D02*
X0260748Y0207971D01*
X0262347Y0209569D02*
X0248575Y0209569D01*
X0247913Y0211168D02*
X0263945Y0211168D01*
X0265544Y0212766D02*
X0247213Y0212766D01*
X0245622Y0214365D02*
X0267142Y0214365D01*
X0268741Y0215963D02*
X0209566Y0215963D01*
X0211320Y0217562D02*
X0270339Y0217562D01*
X0271938Y0219160D02*
X0212128Y0219160D01*
X0212400Y0220759D02*
X0273536Y0220759D01*
X0275135Y0222357D02*
X0242656Y0222357D01*
X0242950Y0222453D02*
X0243735Y0222853D01*
X0244448Y0223371D01*
X0245071Y0223994D01*
X0245590Y0224707D01*
X0245990Y0225493D01*
X0246262Y0226331D01*
X0246400Y0227202D01*
X0246400Y0227557D01*
X0240886Y0227557D01*
X0240886Y0227728D01*
X0246400Y0227728D01*
X0246400Y0228083D01*
X0246262Y0228954D01*
X0245990Y0229792D01*
X0245590Y0230578D01*
X0245071Y0231291D01*
X0244448Y0231914D01*
X0243735Y0232432D01*
X0242950Y0232832D01*
X0242111Y0233105D01*
X0241241Y0233243D01*
X0240886Y0233243D01*
X0240886Y0227728D01*
X0240714Y0227728D01*
X0240714Y0227557D01*
X0235200Y0227557D01*
X0235200Y0227202D01*
X0235338Y0226331D01*
X0235610Y0225493D01*
X0236010Y0224707D01*
X0236529Y0223994D01*
X0237152Y0223371D01*
X0237865Y0222853D01*
X0238650Y0222453D01*
X0239489Y0222180D01*
X0240359Y0222043D01*
X0240714Y0222043D01*
X0240714Y0227557D01*
X0240886Y0227557D01*
X0240886Y0222043D01*
X0241241Y0222043D01*
X0242111Y0222180D01*
X0242950Y0222453D01*
X0240886Y0222357D02*
X0240714Y0222357D01*
X0240714Y0223956D02*
X0240886Y0223956D01*
X0240886Y0225554D02*
X0240714Y0225554D01*
X0240714Y0227153D02*
X0240886Y0227153D01*
X0240714Y0227728D02*
X0235200Y0227728D01*
X0235200Y0228083D01*
X0235338Y0228954D01*
X0235610Y0229792D01*
X0236010Y0230578D01*
X0236529Y0231291D01*
X0237152Y0231914D01*
X0237865Y0232432D01*
X0238650Y0232832D01*
X0239489Y0233105D01*
X0240359Y0233243D01*
X0240714Y0233243D01*
X0240714Y0227728D01*
X0240714Y0228751D02*
X0240886Y0228751D01*
X0240886Y0230350D02*
X0240714Y0230350D01*
X0240714Y0231948D02*
X0240886Y0231948D01*
X0244401Y0231948D02*
X0284726Y0231948D01*
X0283127Y0230350D02*
X0245706Y0230350D01*
X0246294Y0228751D02*
X0281529Y0228751D01*
X0279930Y0227153D02*
X0246392Y0227153D01*
X0246010Y0225554D02*
X0278332Y0225554D01*
X0276733Y0223956D02*
X0245033Y0223956D01*
X0238944Y0222357D02*
X0212400Y0222357D01*
X0212400Y0223956D02*
X0236567Y0223956D01*
X0235590Y0225554D02*
X0212400Y0225554D01*
X0212400Y0225300D02*
X0212400Y0229149D01*
X0212260Y0230035D01*
X0211982Y0230888D01*
X0211575Y0231687D01*
X0211048Y0232413D01*
X0210413Y0233048D01*
X0209687Y0233575D01*
X0208888Y0233982D01*
X0208035Y0234260D01*
X0207200Y0234392D01*
X0207200Y0225300D01*
X0212400Y0225300D01*
X0212400Y0227153D02*
X0235208Y0227153D01*
X0235306Y0228751D02*
X0212400Y0228751D01*
X0212157Y0230350D02*
X0235894Y0230350D01*
X0237199Y0231948D02*
X0211385Y0231948D01*
X0209726Y0233547D02*
X0286324Y0233547D01*
X0287923Y0235145D02*
X0188847Y0235145D01*
X0191528Y0233547D02*
X0203674Y0233547D01*
X0202015Y0231948D02*
X0192806Y0231948D01*
X0193469Y0230350D02*
X0201243Y0230350D01*
X0201000Y0228751D02*
X0193600Y0228751D01*
X0194227Y0227153D02*
X0201000Y0227153D01*
X0201000Y0225554D02*
X0194600Y0225554D01*
X0194600Y0223956D02*
X0201000Y0223956D01*
X0201000Y0222357D02*
X0194600Y0222357D01*
X0194600Y0220759D02*
X0201000Y0220759D01*
X0201272Y0219160D02*
X0194600Y0219160D01*
X0194600Y0217562D02*
X0202080Y0217562D01*
X0203833Y0215963D02*
X0194600Y0215963D01*
X0179000Y0215963D02*
X0161076Y0215963D01*
X0160829Y0216475D02*
X0161331Y0215433D01*
X0161713Y0214341D01*
X0161970Y0213213D01*
X0162075Y0212285D01*
X0152600Y0212285D01*
X0152600Y0210685D01*
X0152600Y0201210D01*
X0153528Y0201315D01*
X0154656Y0201572D01*
X0155748Y0201954D01*
X0156790Y0202456D01*
X0157770Y0203072D01*
X0158674Y0203793D01*
X0159492Y0204611D01*
X0160214Y0205515D01*
X0160829Y0206495D01*
X0161331Y0207537D01*
X0161713Y0208629D01*
X0161970Y0209757D01*
X0162075Y0210685D01*
X0152600Y0210685D01*
X0151000Y0210685D01*
X0151000Y0201210D01*
X0150072Y0201315D01*
X0148944Y0201572D01*
X0147852Y0201954D01*
X0146810Y0202456D01*
X0145830Y0203072D01*
X0144926Y0203793D01*
X0144108Y0204611D01*
X0143386Y0205515D01*
X0142771Y0206495D01*
X0142269Y0207537D01*
X0141887Y0208629D01*
X0141630Y0209757D01*
X0141525Y0210685D01*
X0151000Y0210685D01*
X0151000Y0212285D01*
X0141525Y0212285D01*
X0141630Y0213213D01*
X0141887Y0214341D01*
X0142269Y0215433D01*
X0142771Y0216475D01*
X0143386Y0217455D01*
X0144108Y0218359D01*
X0144926Y0219177D01*
X0145830Y0219899D01*
X0146810Y0220514D01*
X0147852Y0221016D01*
X0148944Y0221398D01*
X0150072Y0221655D01*
X0151000Y0221760D01*
X0151000Y0212285D01*
X0152600Y0212285D01*
X0152600Y0221760D01*
X0153528Y0221655D01*
X0154656Y0221398D01*
X0155748Y0221016D01*
X0156790Y0220514D01*
X0157770Y0219899D01*
X0158674Y0219177D01*
X0159492Y0218359D01*
X0160214Y0217455D01*
X0160829Y0216475D01*
X0160128Y0217562D02*
X0179000Y0217562D01*
X0179000Y0219160D02*
X0158691Y0219160D01*
X0156282Y0220759D02*
X0179000Y0220759D01*
X0179000Y0222357D02*
X0006800Y0222357D01*
X0006800Y0220759D02*
X0147318Y0220759D01*
X0144909Y0219160D02*
X0006800Y0219160D01*
X0006800Y0217562D02*
X0143472Y0217562D01*
X0142524Y0215963D02*
X0006800Y0215963D01*
X0006800Y0214365D02*
X0141895Y0214365D01*
X0141579Y0212766D02*
X0006800Y0212766D01*
X0006800Y0211168D02*
X0151000Y0211168D01*
X0151000Y0212766D02*
X0152600Y0212766D01*
X0152600Y0211168D02*
X0179000Y0211168D01*
X0179000Y0212766D02*
X0162021Y0212766D01*
X0161705Y0214365D02*
X0179000Y0214365D01*
X0179000Y0209569D02*
X0161928Y0209569D01*
X0161483Y0207971D02*
X0177940Y0207971D01*
X0176341Y0206372D02*
X0160752Y0206372D01*
X0159622Y0204774D02*
X0174743Y0204774D01*
X0173144Y0203175D02*
X0157900Y0203175D01*
X0154669Y0201577D02*
X0171546Y0201577D01*
X0169947Y0199978D02*
X0134096Y0199978D01*
X0134096Y0200474D02*
X0134096Y0198874D01*
X0134096Y0189399D01*
X0135024Y0189504D01*
X0136152Y0189761D01*
X0137244Y0190143D01*
X0138286Y0190645D01*
X0139266Y0191260D01*
X0140170Y0191982D01*
X0140988Y0192800D01*
X0141710Y0193704D01*
X0142325Y0194684D01*
X0142827Y0195726D01*
X0143209Y0196818D01*
X0143467Y0197946D01*
X0143571Y0198874D01*
X0134096Y0198874D01*
X0132496Y0198874D01*
X0123021Y0198874D01*
X0123126Y0197946D01*
X0123383Y0196818D01*
X0123765Y0195726D01*
X0124267Y0194684D01*
X0124883Y0193704D01*
X0125604Y0192800D01*
X0126422Y0191982D01*
X0127326Y0191260D01*
X0128306Y0190645D01*
X0129348Y0190143D01*
X0130440Y0189761D01*
X0131568Y0189504D01*
X0132496Y0189399D01*
X0132496Y0198874D01*
X0132496Y0200474D01*
X0123021Y0200474D01*
X0123126Y0201402D01*
X0123383Y0202530D01*
X0123765Y0203622D01*
X0124267Y0204664D01*
X0124883Y0205644D01*
X0125604Y0206548D01*
X0126422Y0207366D01*
X0127326Y0208088D01*
X0128306Y0208703D01*
X0129348Y0209205D01*
X0130440Y0209587D01*
X0131568Y0209844D01*
X0132496Y0209949D01*
X0132496Y0200474D01*
X0134096Y0200474D01*
X0134096Y0209949D01*
X0135024Y0209844D01*
X0136152Y0209587D01*
X0137244Y0209205D01*
X0138286Y0208703D01*
X0139266Y0208088D01*
X0140170Y0207366D01*
X0140988Y0206548D01*
X0141710Y0205644D01*
X0142325Y0204664D01*
X0142827Y0203622D01*
X0143209Y0202530D01*
X0143467Y0201402D01*
X0143571Y0200474D01*
X0134096Y0200474D01*
X0134096Y0201577D02*
X0132496Y0201577D01*
X0132496Y0203175D02*
X0134096Y0203175D01*
X0134096Y0204774D02*
X0132496Y0204774D01*
X0132496Y0206372D02*
X0134096Y0206372D01*
X0134096Y0207971D02*
X0132496Y0207971D01*
X0132496Y0209569D02*
X0134096Y0209569D01*
X0136203Y0209569D02*
X0141672Y0209569D01*
X0142117Y0207971D02*
X0139412Y0207971D01*
X0141129Y0206372D02*
X0142848Y0206372D01*
X0142256Y0204774D02*
X0143978Y0204774D01*
X0142983Y0203175D02*
X0145700Y0203175D01*
X0143427Y0201577D02*
X0148931Y0201577D01*
X0151000Y0201577D02*
X0152600Y0201577D01*
X0152600Y0203175D02*
X0151000Y0203175D01*
X0151000Y0204774D02*
X0152600Y0204774D01*
X0152600Y0206372D02*
X0151000Y0206372D01*
X0151000Y0207971D02*
X0152600Y0207971D01*
X0152600Y0209569D02*
X0151000Y0209569D01*
X0151000Y0214365D02*
X0152600Y0214365D01*
X0152600Y0215963D02*
X0151000Y0215963D01*
X0151000Y0217562D02*
X0152600Y0217562D01*
X0152600Y0219160D02*
X0151000Y0219160D01*
X0151000Y0220759D02*
X0152600Y0220759D01*
X0130389Y0209569D02*
X0006800Y0209569D01*
X0006800Y0207971D02*
X0127180Y0207971D01*
X0125464Y0206372D02*
X0006800Y0206372D01*
X0006800Y0204774D02*
X0124336Y0204774D01*
X0123609Y0203175D02*
X0006800Y0203175D01*
X0006800Y0201577D02*
X0123165Y0201577D01*
X0123077Y0198380D02*
X0006800Y0198380D01*
X0006800Y0199978D02*
X0132496Y0199978D01*
X0132496Y0198380D02*
X0134096Y0198380D01*
X0134096Y0196781D02*
X0132496Y0196781D01*
X0132496Y0195183D02*
X0134096Y0195183D01*
X0134096Y0193584D02*
X0132496Y0193584D01*
X0132496Y0191986D02*
X0134096Y0191986D01*
X0134096Y0190387D02*
X0132496Y0190387D01*
X0128841Y0190387D02*
X0006800Y0190387D01*
X0006800Y0188789D02*
X0140500Y0188789D01*
X0140500Y0187190D02*
X0006800Y0187190D01*
X0006800Y0185592D02*
X0140710Y0185592D01*
X0141138Y0183993D02*
X0006800Y0183993D01*
X0006800Y0182395D02*
X0141909Y0182395D01*
X0142886Y0180796D02*
X0006800Y0180796D01*
X0006800Y0179198D02*
X0144485Y0179198D01*
X0146978Y0177599D02*
X0006800Y0177599D01*
X0006800Y0191986D02*
X0126418Y0191986D01*
X0124978Y0193584D02*
X0006800Y0193584D01*
X0006800Y0195183D02*
X0124027Y0195183D01*
X0123396Y0196781D02*
X0006800Y0196781D01*
X0006800Y0223956D02*
X0179000Y0223956D01*
X0179000Y0225554D02*
X0006800Y0225554D01*
X0006800Y0227153D02*
X0179373Y0227153D01*
X0180035Y0228751D02*
X0006800Y0228751D01*
X0006800Y0230350D02*
X0180331Y0230350D01*
X0180994Y0231948D02*
X0006800Y0231948D01*
X0006800Y0233547D02*
X0182272Y0233547D01*
X0184953Y0235145D02*
X0006800Y0235145D01*
X0006800Y0236744D02*
X0289521Y0236744D01*
X0291120Y0238342D02*
X0006800Y0238342D01*
X0006800Y0239941D02*
X0293299Y0239941D01*
X0309500Y0241539D02*
X0006800Y0241539D01*
X0006800Y0243138D02*
X0567800Y0243138D01*
X0567800Y0244737D02*
X0006800Y0244737D01*
X0006800Y0246335D02*
X0567800Y0246335D01*
X0567800Y0241539D02*
X0343100Y0241539D01*
X0342954Y0241600D02*
X0334646Y0241600D01*
X0332515Y0240717D01*
X0330883Y0239085D01*
X0330000Y0236954D01*
X0330000Y0234646D01*
X0330883Y0232515D01*
X0332515Y0230883D01*
X0332715Y0230800D01*
X0332515Y0230717D01*
X0330883Y0229085D01*
X0330000Y0226954D01*
X0330000Y0224646D01*
X0330883Y0222515D01*
X0332515Y0220883D01*
X0332715Y0220800D01*
X0332515Y0220717D01*
X0330883Y0219085D01*
X0330000Y0216954D01*
X0330000Y0214646D01*
X0330883Y0212515D01*
X0332515Y0210883D01*
X0334646Y0210000D01*
X0342954Y0210000D01*
X0345085Y0210883D01*
X0346717Y0212515D01*
X0347600Y0214646D01*
X0347600Y0216954D01*
X0346717Y0219085D01*
X0345085Y0220717D01*
X0344885Y0220800D01*
X0345085Y0220883D01*
X0346717Y0222515D01*
X0347600Y0224646D01*
X0347600Y0226954D01*
X0346717Y0229085D01*
X0345085Y0230717D01*
X0344885Y0230800D01*
X0345085Y0230883D01*
X0346717Y0232515D01*
X0347600Y0234646D01*
X0347600Y0236954D01*
X0346717Y0239085D01*
X0345085Y0240717D01*
X0342954Y0241600D01*
X0345861Y0239941D02*
X0567800Y0239941D01*
X0567800Y0238342D02*
X0347025Y0238342D01*
X0347600Y0236744D02*
X0567800Y0236744D01*
X0567800Y0235145D02*
X0347600Y0235145D01*
X0347145Y0233547D02*
X0567800Y0233547D01*
X0567800Y0231948D02*
X0346151Y0231948D01*
X0345453Y0230350D02*
X0567800Y0230350D01*
X0567800Y0228751D02*
X0346855Y0228751D01*
X0347517Y0227153D02*
X0567800Y0227153D01*
X0567800Y0225554D02*
X0347600Y0225554D01*
X0347314Y0223956D02*
X0567800Y0223956D01*
X0567800Y0222357D02*
X0346560Y0222357D01*
X0344984Y0220759D02*
X0378318Y0220759D01*
X0377810Y0220514D02*
X0378852Y0221016D01*
X0379944Y0221398D01*
X0381072Y0221655D01*
X0382000Y0221760D01*
X0382000Y0212285D01*
X0382000Y0210685D01*
X0383600Y0210685D01*
X0383600Y0201210D01*
X0384528Y0201315D01*
X0385656Y0201572D01*
X0386748Y0201954D01*
X0387790Y0202456D01*
X0388770Y0203072D01*
X0389674Y0203793D01*
X0390492Y0204611D01*
X0391214Y0205515D01*
X0391829Y0206495D01*
X0392331Y0207537D01*
X0392713Y0208629D01*
X0392970Y0209757D01*
X0393075Y0210685D01*
X0383600Y0210685D01*
X0383600Y0212285D01*
X0393075Y0212285D01*
X0392970Y0213213D01*
X0392713Y0214341D01*
X0392331Y0215433D01*
X0391829Y0216475D01*
X0391214Y0217455D01*
X0390492Y0218359D01*
X0389674Y0219177D01*
X0388770Y0219899D01*
X0387790Y0220514D01*
X0386748Y0221016D01*
X0385656Y0221398D01*
X0384528Y0221655D01*
X0383600Y0221760D01*
X0383600Y0212285D01*
X0382000Y0212285D01*
X0372525Y0212285D01*
X0372630Y0213213D01*
X0372887Y0214341D01*
X0373269Y0215433D01*
X0373771Y0216475D01*
X0374386Y0217455D01*
X0375108Y0218359D01*
X0375926Y0219177D01*
X0376830Y0219899D01*
X0377810Y0220514D01*
X0375909Y0219160D02*
X0346642Y0219160D01*
X0347348Y0217562D02*
X0374472Y0217562D01*
X0373524Y0215963D02*
X0347600Y0215963D01*
X0347483Y0214365D02*
X0372895Y0214365D01*
X0372579Y0212766D02*
X0346821Y0212766D01*
X0345370Y0211168D02*
X0382000Y0211168D01*
X0382000Y0210685D02*
X0372525Y0210685D01*
X0372630Y0209757D01*
X0372887Y0208629D01*
X0373269Y0207537D01*
X0373771Y0206495D01*
X0374386Y0205515D01*
X0375108Y0204611D01*
X0375926Y0203793D01*
X0376830Y0203072D01*
X0377810Y0202456D01*
X0378852Y0201954D01*
X0379944Y0201572D01*
X0381072Y0201315D01*
X0382000Y0201210D01*
X0382000Y0210685D01*
X0382000Y0209569D02*
X0383600Y0209569D01*
X0383600Y0207971D02*
X0382000Y0207971D01*
X0382000Y0206372D02*
X0383600Y0206372D01*
X0383600Y0204774D02*
X0382000Y0204774D01*
X0382000Y0203175D02*
X0383600Y0203175D01*
X0383600Y0201577D02*
X0382000Y0201577D01*
X0379931Y0201577D02*
X0374427Y0201577D01*
X0374467Y0201402D02*
X0374209Y0202530D01*
X0373827Y0203622D01*
X0373325Y0204664D01*
X0372710Y0205644D01*
X0371988Y0206548D01*
X0371170Y0207366D01*
X0370266Y0208088D01*
X0369286Y0208703D01*
X0368244Y0209205D01*
X0367152Y0209587D01*
X0366024Y0209844D01*
X0365096Y0209949D01*
X0365096Y0200474D01*
X0363496Y0200474D01*
X0363496Y0198874D01*
X0354021Y0198874D01*
X0354126Y0197946D01*
X0354383Y0196818D01*
X0354765Y0195726D01*
X0355267Y0194684D01*
X0355883Y0193704D01*
X0356604Y0192800D01*
X0357422Y0191982D01*
X0358326Y0191260D01*
X0359306Y0190645D01*
X0360348Y0190143D01*
X0361440Y0189761D01*
X0362568Y0189504D01*
X0363496Y0189399D01*
X0363496Y0198874D01*
X0365096Y0198874D01*
X0365096Y0189399D01*
X0366024Y0189504D01*
X0367152Y0189761D01*
X0368244Y0190143D01*
X0369286Y0190645D01*
X0370266Y0191260D01*
X0371170Y0191982D01*
X0371988Y0192800D01*
X0372710Y0193704D01*
X0373325Y0194684D01*
X0373827Y0195726D01*
X0374209Y0196818D01*
X0374467Y0197946D01*
X0374571Y0198874D01*
X0365096Y0198874D01*
X0365096Y0200474D01*
X0374571Y0200474D01*
X0374467Y0201402D01*
X0373983Y0203175D02*
X0376700Y0203175D01*
X0374978Y0204774D02*
X0373256Y0204774D01*
X0373848Y0206372D02*
X0372129Y0206372D01*
X0373117Y0207971D02*
X0370412Y0207971D01*
X0372672Y0209569D02*
X0367203Y0209569D01*
X0365096Y0209569D02*
X0363496Y0209569D01*
X0363496Y0209949D02*
X0362568Y0209844D01*
X0361440Y0209587D01*
X0360348Y0209205D01*
X0359306Y0208703D01*
X0358326Y0208088D01*
X0357422Y0207366D01*
X0356604Y0206548D01*
X0355883Y0205644D01*
X0355267Y0204664D01*
X0354765Y0203622D01*
X0354383Y0202530D01*
X0354126Y0201402D01*
X0354021Y0200474D01*
X0363496Y0200474D01*
X0363496Y0209949D01*
X0363496Y0207971D02*
X0365096Y0207971D01*
X0365096Y0206372D02*
X0363496Y0206372D01*
X0363496Y0204774D02*
X0365096Y0204774D01*
X0365096Y0203175D02*
X0363496Y0203175D01*
X0363496Y0201577D02*
X0365096Y0201577D01*
X0365096Y0199978D02*
X0567800Y0199978D01*
X0567800Y0198380D02*
X0443527Y0198380D01*
X0442754Y0198700D02*
X0434446Y0198700D01*
X0432315Y0197817D01*
X0430998Y0196500D01*
X0420602Y0196500D01*
X0419285Y0197817D01*
X0417154Y0198700D01*
X0408846Y0198700D01*
X0406715Y0197817D01*
X0405083Y0196185D01*
X0404200Y0194054D01*
X0404200Y0191746D01*
X0405083Y0189615D01*
X0406715Y0187983D01*
X0408846Y0187100D01*
X0417154Y0187100D01*
X0419285Y0187983D01*
X0420602Y0189300D01*
X0430998Y0189300D01*
X0432315Y0187983D01*
X0434446Y0187100D01*
X0442754Y0187100D01*
X0444885Y0187983D01*
X0446517Y0189615D01*
X0447400Y0191746D01*
X0447400Y0194054D01*
X0446517Y0196185D01*
X0444885Y0197817D01*
X0442754Y0198700D01*
X0445921Y0196781D02*
X0567800Y0196781D01*
X0567800Y0195183D02*
X0446932Y0195183D01*
X0447400Y0193584D02*
X0567800Y0193584D01*
X0567800Y0191986D02*
X0447400Y0191986D01*
X0446837Y0190387D02*
X0567800Y0190387D01*
X0567800Y0188789D02*
X0445691Y0188789D01*
X0442971Y0187190D02*
X0567800Y0187190D01*
X0567800Y0185592D02*
X0393890Y0185592D01*
X0394100Y0186375D02*
X0394100Y0189351D01*
X0393330Y0192225D01*
X0391842Y0194801D01*
X0389738Y0196905D01*
X0387162Y0198393D01*
X0384288Y0199163D01*
X0381312Y0199163D01*
X0378438Y0198393D01*
X0375862Y0196905D01*
X0373758Y0194801D01*
X0372270Y0192225D01*
X0371500Y0189351D01*
X0371500Y0187200D01*
X0341815Y0187200D01*
X0341170Y0187844D01*
X0340233Y0188233D01*
X0342750Y0190750D01*
X0342750Y0192800D01*
X0342750Y0194850D01*
X0339850Y0197750D01*
X0337800Y0197750D01*
X0337800Y0192800D01*
X0337800Y0192800D01*
X0342750Y0192800D01*
X0337800Y0192800D01*
X0337800Y0192800D01*
X0337800Y0192800D01*
X0332850Y0192800D01*
X0332850Y0194850D01*
X0335750Y0197750D01*
X0337800Y0197750D01*
X0337800Y0192800D01*
X0332850Y0192800D01*
X0332850Y0190750D01*
X0335367Y0188233D01*
X0334430Y0187844D01*
X0332756Y0186170D01*
X0331850Y0183984D01*
X0331850Y0181616D01*
X0332756Y0179430D01*
X0334430Y0177756D01*
X0336616Y0176850D01*
X0338984Y0176850D01*
X0341170Y0177756D01*
X0341815Y0178400D01*
X0376590Y0178400D01*
X0378438Y0177333D01*
X0381312Y0176563D01*
X0384288Y0176563D01*
X0387162Y0177333D01*
X0389738Y0178821D01*
X0391842Y0180925D01*
X0393330Y0183501D01*
X0394100Y0186375D01*
X0394100Y0187190D02*
X0408629Y0187190D01*
X0405909Y0188789D02*
X0394100Y0188789D01*
X0393822Y0190387D02*
X0404763Y0190387D01*
X0404200Y0191986D02*
X0393394Y0191986D01*
X0392545Y0193584D02*
X0404200Y0193584D01*
X0404668Y0195183D02*
X0391461Y0195183D01*
X0389862Y0196781D02*
X0405679Y0196781D01*
X0408073Y0198380D02*
X0387185Y0198380D01*
X0385669Y0201577D02*
X0567800Y0201577D01*
X0567800Y0203175D02*
X0388900Y0203175D01*
X0390622Y0204774D02*
X0567800Y0204774D01*
X0567800Y0206372D02*
X0443679Y0206372D01*
X0443443Y0206252D02*
X0444116Y0206595D01*
X0444727Y0207039D01*
X0445261Y0207573D01*
X0445705Y0208184D01*
X0446048Y0208857D01*
X0446282Y0209576D01*
X0446400Y0210322D01*
X0446400Y0210500D01*
X0438800Y0210500D01*
X0438800Y0210900D01*
X0438400Y0210900D01*
X0438400Y0215500D01*
X0435222Y0215500D01*
X0434476Y0215382D01*
X0433757Y0215148D01*
X0433084Y0214805D01*
X0432473Y0214361D01*
X0431939Y0213827D01*
X0431495Y0213216D01*
X0431152Y0212543D01*
X0430918Y0211824D01*
X0430800Y0211078D01*
X0430800Y0210900D01*
X0438400Y0210900D01*
X0438400Y0210500D01*
X0438800Y0210500D01*
X0438800Y0205900D01*
X0441978Y0205900D01*
X0442724Y0206018D01*
X0443443Y0206252D01*
X0445550Y0207971D02*
X0567800Y0207971D01*
X0567800Y0209569D02*
X0446280Y0209569D01*
X0446400Y0210900D02*
X0438800Y0210900D01*
X0438800Y0215500D01*
X0441978Y0215500D01*
X0442724Y0215382D01*
X0443443Y0215148D01*
X0444116Y0214805D01*
X0444727Y0214361D01*
X0445261Y0213827D01*
X0445705Y0213216D01*
X0446048Y0212543D01*
X0446282Y0211824D01*
X0446400Y0211078D01*
X0446400Y0210900D01*
X0446386Y0211168D02*
X0567800Y0211168D01*
X0567800Y0212766D02*
X0445934Y0212766D01*
X0444722Y0214365D02*
X0567800Y0214365D01*
X0567800Y0215963D02*
X0392076Y0215963D01*
X0392705Y0214365D02*
X0406878Y0214365D01*
X0406873Y0214361D02*
X0406339Y0213827D01*
X0405895Y0213216D01*
X0405552Y0212543D01*
X0405318Y0211824D01*
X0405200Y0211078D01*
X0405200Y0210900D01*
X0412800Y0210900D01*
X0412800Y0215500D01*
X0409622Y0215500D01*
X0408876Y0215382D01*
X0408157Y0215148D01*
X0407484Y0214805D01*
X0406873Y0214361D01*
X0405666Y0212766D02*
X0393021Y0212766D01*
X0392928Y0209569D02*
X0405320Y0209569D01*
X0405318Y0209576D02*
X0405552Y0208857D01*
X0405895Y0208184D01*
X0406339Y0207573D01*
X0406873Y0207039D01*
X0407484Y0206595D01*
X0408157Y0206252D01*
X0408876Y0206018D01*
X0409622Y0205900D01*
X0412800Y0205900D01*
X0412800Y0210500D01*
X0413200Y0210500D01*
X0413200Y0210900D01*
X0412800Y0210900D01*
X0412800Y0210500D01*
X0405200Y0210500D01*
X0405200Y0210322D01*
X0405318Y0209576D01*
X0405214Y0211168D02*
X0383600Y0211168D01*
X0383600Y0212766D02*
X0382000Y0212766D01*
X0382000Y0214365D02*
X0383600Y0214365D01*
X0383600Y0215963D02*
X0382000Y0215963D01*
X0382000Y0217562D02*
X0383600Y0217562D01*
X0383600Y0219160D02*
X0382000Y0219160D01*
X0382000Y0220759D02*
X0383600Y0220759D01*
X0387282Y0220759D02*
X0567800Y0220759D01*
X0567800Y0219160D02*
X0389691Y0219160D01*
X0391128Y0217562D02*
X0567800Y0217562D01*
X0567800Y0183993D02*
X0393462Y0183993D01*
X0392691Y0182395D02*
X0567800Y0182395D01*
X0567800Y0180796D02*
X0391714Y0180796D01*
X0390115Y0179198D02*
X0567800Y0179198D01*
X0567800Y0177599D02*
X0387622Y0177599D01*
X0377978Y0177599D02*
X0340792Y0177599D01*
X0334808Y0177599D02*
X0313792Y0177599D01*
X0314170Y0177756D02*
X0315844Y0179430D01*
X0316750Y0181616D01*
X0316750Y0183984D01*
X0315844Y0186170D01*
X0314170Y0187844D01*
X0313233Y0188233D01*
X0315750Y0190750D01*
X0315750Y0192800D01*
X0315750Y0194850D01*
X0312850Y0197750D01*
X0310800Y0197750D01*
X0310800Y0192800D01*
X0310800Y0192800D01*
X0315750Y0192800D01*
X0310800Y0192800D01*
X0310800Y0192800D01*
X0310800Y0192800D01*
X0305850Y0192800D01*
X0305850Y0194850D01*
X0308750Y0197750D01*
X0310800Y0197750D01*
X0310800Y0192800D01*
X0305850Y0192800D01*
X0305850Y0190750D01*
X0308367Y0188233D01*
X0307430Y0187844D01*
X0305756Y0186170D01*
X0304850Y0183984D01*
X0304850Y0181616D01*
X0305756Y0179430D01*
X0307430Y0177756D01*
X0309616Y0176850D01*
X0311984Y0176850D01*
X0314170Y0177756D01*
X0315612Y0179198D02*
X0332988Y0179198D01*
X0332190Y0180796D02*
X0316410Y0180796D01*
X0316750Y0182395D02*
X0331850Y0182395D01*
X0331854Y0183993D02*
X0316746Y0183993D01*
X0316084Y0185592D02*
X0332516Y0185592D01*
X0333776Y0187190D02*
X0314824Y0187190D01*
X0313789Y0188789D02*
X0334811Y0188789D01*
X0333213Y0190387D02*
X0315387Y0190387D01*
X0315750Y0191986D02*
X0332850Y0191986D01*
X0332850Y0193584D02*
X0315750Y0193584D01*
X0315418Y0195183D02*
X0333182Y0195183D01*
X0334781Y0196781D02*
X0313819Y0196781D01*
X0310800Y0196781D02*
X0310800Y0196781D01*
X0310800Y0195183D02*
X0310800Y0195183D01*
X0310800Y0193584D02*
X0310800Y0193584D01*
X0307781Y0196781D02*
X0280004Y0196781D01*
X0281602Y0198380D02*
X0354077Y0198380D01*
X0354396Y0196781D02*
X0340819Y0196781D01*
X0342418Y0195183D02*
X0355027Y0195183D01*
X0355978Y0193584D02*
X0342750Y0193584D01*
X0342750Y0191986D02*
X0357418Y0191986D01*
X0359841Y0190387D02*
X0342387Y0190387D01*
X0340789Y0188789D02*
X0371500Y0188789D01*
X0371778Y0190387D02*
X0368751Y0190387D01*
X0371174Y0191986D02*
X0372206Y0191986D01*
X0372614Y0193584D02*
X0373055Y0193584D01*
X0373565Y0195183D02*
X0374139Y0195183D01*
X0374196Y0196781D02*
X0375738Y0196781D01*
X0374515Y0198380D02*
X0378415Y0198380D01*
X0365096Y0198380D02*
X0363496Y0198380D01*
X0363496Y0199978D02*
X0283201Y0199978D01*
X0284799Y0201577D02*
X0354165Y0201577D01*
X0354609Y0203175D02*
X0286398Y0203175D01*
X0287996Y0204774D02*
X0355336Y0204774D01*
X0356464Y0206372D02*
X0289595Y0206372D01*
X0291193Y0207971D02*
X0358180Y0207971D01*
X0361389Y0209569D02*
X0292792Y0209569D01*
X0294390Y0211168D02*
X0307230Y0211168D01*
X0305779Y0212766D02*
X0295989Y0212766D01*
X0297587Y0214365D02*
X0305117Y0214365D01*
X0305000Y0215963D02*
X0299186Y0215963D01*
X0300784Y0217562D02*
X0305252Y0217562D01*
X0305958Y0219160D02*
X0302383Y0219160D01*
X0303981Y0220759D02*
X0307616Y0220759D01*
X0297930Y0227153D02*
X0292375Y0227153D01*
X0290777Y0225554D02*
X0296332Y0225554D01*
X0294733Y0223956D02*
X0289178Y0223956D01*
X0287580Y0222357D02*
X0293135Y0222357D01*
X0291536Y0220759D02*
X0285981Y0220759D01*
X0284383Y0219160D02*
X0289938Y0219160D01*
X0288339Y0217562D02*
X0282784Y0217562D01*
X0281186Y0215963D02*
X0286741Y0215963D01*
X0285142Y0214365D02*
X0279587Y0214365D01*
X0277989Y0212766D02*
X0283544Y0212766D01*
X0281945Y0211168D02*
X0276390Y0211168D01*
X0274792Y0209569D02*
X0280347Y0209569D01*
X0278748Y0207971D02*
X0273193Y0207971D01*
X0271595Y0206372D02*
X0277150Y0206372D01*
X0275551Y0204774D02*
X0269996Y0204774D01*
X0268398Y0203175D02*
X0273953Y0203175D01*
X0272354Y0201577D02*
X0266799Y0201577D01*
X0265201Y0199978D02*
X0270756Y0199978D01*
X0269157Y0198380D02*
X0263728Y0198380D01*
X0273610Y0190387D02*
X0306213Y0190387D01*
X0305850Y0191986D02*
X0275208Y0191986D01*
X0276807Y0193584D02*
X0305850Y0193584D01*
X0306182Y0195183D02*
X0278405Y0195183D01*
X0272011Y0188789D02*
X0307811Y0188789D01*
X0306776Y0187190D02*
X0270413Y0187190D01*
X0268138Y0185592D02*
X0305516Y0185592D01*
X0304854Y0183993D02*
X0259584Y0183993D01*
X0259600Y0182395D02*
X0304850Y0182395D01*
X0305190Y0180796D02*
X0259600Y0180796D01*
X0260625Y0179198D02*
X0305988Y0179198D01*
X0307808Y0177599D02*
X0262223Y0177599D01*
X0263822Y0176001D02*
X0567800Y0176001D01*
X0567800Y0174402D02*
X0265421Y0174402D01*
X0267019Y0172803D02*
X0567800Y0172803D01*
X0567800Y0171205D02*
X0268618Y0171205D01*
X0259370Y0168008D02*
X0140979Y0168008D01*
X0140230Y0169606D02*
X0257771Y0169606D01*
X0256172Y0171205D02*
X0255449Y0171205D01*
X0252151Y0171205D02*
X0245449Y0171205D01*
X0248006Y0172803D02*
X0249594Y0172803D01*
X0242151Y0171205D02*
X0138311Y0171205D01*
X0133289Y0171205D02*
X0128311Y0171205D01*
X0130230Y0169606D02*
X0131370Y0169606D01*
X0125800Y0163800D02*
X0125800Y0161800D01*
X0156800Y0130800D01*
X0186800Y0130800D01*
X0190800Y0126800D01*
X0190800Y0090800D01*
X0193800Y0087800D01*
X0199800Y0087800D01*
X0298800Y0087800D01*
X0301800Y0090800D01*
X0301800Y0093800D01*
X0306553Y0097673D02*
X0307047Y0097673D01*
X0306800Y0097427D02*
X0305255Y0098971D01*
X0303013Y0099900D01*
X0300587Y0099900D01*
X0298345Y0098971D01*
X0296800Y0097427D01*
X0295255Y0098971D01*
X0293013Y0099900D01*
X0290587Y0099900D01*
X0288345Y0098971D01*
X0286629Y0097255D01*
X0286241Y0096318D01*
X0286162Y0096473D01*
X0285690Y0097122D01*
X0285122Y0097690D01*
X0284473Y0098162D01*
X0283758Y0098526D01*
X0282994Y0098774D01*
X0282201Y0098900D01*
X0282100Y0098900D01*
X0282100Y0094100D01*
X0281500Y0094100D01*
X0281500Y0098900D01*
X0281399Y0098900D01*
X0280606Y0098774D01*
X0279842Y0098526D01*
X0279127Y0098162D01*
X0278478Y0097690D01*
X0277910Y0097122D01*
X0277438Y0096473D01*
X0277359Y0096318D01*
X0276971Y0097255D01*
X0275400Y0098827D01*
X0275400Y0105552D01*
X0275606Y0105757D01*
X0276289Y0107407D01*
X0276289Y0108200D01*
X0327521Y0108200D01*
X0327311Y0107693D01*
X0327311Y0105907D01*
X0327994Y0104257D01*
X0329257Y0102994D01*
X0330907Y0102311D01*
X0332693Y0102311D01*
X0334343Y0102994D01*
X0334548Y0103200D01*
X0343309Y0103200D01*
X0346200Y0100309D01*
X0346200Y0098027D01*
X0345255Y0098971D01*
X0343013Y0099900D01*
X0340587Y0099900D01*
X0338345Y0098971D01*
X0336800Y0097427D01*
X0335255Y0098971D01*
X0333013Y0099900D01*
X0330587Y0099900D01*
X0328345Y0098971D01*
X0326800Y0097427D01*
X0325255Y0098971D01*
X0323013Y0099900D01*
X0320587Y0099900D01*
X0318345Y0098971D01*
X0316800Y0097427D01*
X0315255Y0098971D01*
X0313013Y0099900D01*
X0310587Y0099900D01*
X0308345Y0098971D01*
X0306800Y0097427D01*
X0304530Y0099272D02*
X0309070Y0099272D01*
X0314530Y0099272D02*
X0319070Y0099272D01*
X0317047Y0097673D02*
X0316553Y0097673D01*
X0324530Y0099272D02*
X0329070Y0099272D01*
X0327047Y0097673D02*
X0326553Y0097673D01*
X0330526Y0102469D02*
X0275400Y0102469D01*
X0275400Y0100870D02*
X0345638Y0100870D01*
X0346200Y0099272D02*
X0344530Y0099272D01*
X0344040Y0102469D02*
X0333074Y0102469D01*
X0334530Y0099272D02*
X0339070Y0099272D01*
X0337047Y0097673D02*
X0336553Y0097673D01*
X0344800Y0106800D02*
X0349800Y0101800D01*
X0349800Y0093800D01*
X0331859Y0081800D02*
X0331800Y0081741D01*
X0297047Y0097673D02*
X0296553Y0097673D01*
X0294530Y0099272D02*
X0299070Y0099272D01*
X0289070Y0099272D02*
X0275400Y0099272D01*
X0276553Y0097673D02*
X0278461Y0097673D01*
X0281500Y0097673D02*
X0282100Y0097673D01*
X0282100Y0096075D02*
X0281500Y0096075D01*
X0281500Y0094476D02*
X0282100Y0094476D01*
X0285139Y0097673D02*
X0287047Y0097673D01*
X0271800Y0093800D02*
X0271800Y0108300D01*
X0276230Y0107265D02*
X0327311Y0107265D01*
X0327411Y0105666D02*
X0275514Y0105666D01*
X0275400Y0104068D02*
X0328184Y0104068D01*
X0331800Y0106800D02*
X0344800Y0106800D01*
X0338800Y0109800D02*
X0351800Y0109800D01*
X0338800Y0109800D02*
X0336800Y0111800D01*
X0258069Y0111800D01*
X0251800Y0105531D01*
X0251800Y0099800D01*
X0196800Y0099800D01*
X0195372Y0104068D02*
X0194400Y0104068D01*
X0194400Y0105666D02*
X0248200Y0105666D01*
X0248200Y0104068D02*
X0198228Y0104068D01*
X0194400Y0107265D02*
X0248621Y0107265D01*
X0250041Y0108863D02*
X0194400Y0108863D01*
X0194400Y0110462D02*
X0251639Y0110462D01*
X0253238Y0112060D02*
X0194400Y0112060D01*
X0194400Y0113659D02*
X0254836Y0113659D01*
X0257008Y0115257D02*
X0194400Y0115257D01*
X0194400Y0116856D02*
X0278709Y0116856D01*
X0278200Y0118454D02*
X0264834Y0118454D01*
X0266679Y0120053D02*
X0268335Y0120053D01*
X0271500Y0120053D02*
X0272100Y0120053D01*
X0272100Y0121651D02*
X0271500Y0121651D01*
X0271500Y0123250D02*
X0272100Y0123250D01*
X0272100Y0124848D02*
X0271500Y0124848D01*
X0271500Y0126447D02*
X0272100Y0126447D01*
X0272100Y0128045D02*
X0271500Y0128045D01*
X0268966Y0128045D02*
X0266182Y0128045D01*
X0267306Y0126447D02*
X0267425Y0126447D01*
X0274634Y0128045D02*
X0277418Y0128045D01*
X0276294Y0126447D02*
X0276175Y0126447D01*
X0281800Y0123800D02*
X0281800Y0118800D01*
X0284800Y0115800D01*
X0276921Y0120053D02*
X0275265Y0120053D01*
X0258766Y0118454D02*
X0254834Y0118454D01*
X0256679Y0120053D02*
X0256921Y0120053D01*
X0257418Y0128045D02*
X0256182Y0128045D01*
X0253632Y0129644D02*
X0259968Y0129644D01*
X0263632Y0129644D02*
X0279968Y0129644D01*
X0283632Y0129644D02*
X0289968Y0129644D01*
X0287418Y0128045D02*
X0286182Y0128045D01*
X0293632Y0129644D02*
X0299968Y0129644D01*
X0297418Y0128045D02*
X0296182Y0128045D01*
X0303632Y0129644D02*
X0309968Y0129644D01*
X0307418Y0128045D02*
X0306182Y0128045D01*
X0313632Y0129644D02*
X0319968Y0129644D01*
X0317418Y0128045D02*
X0316182Y0128045D01*
X0323632Y0129644D02*
X0329968Y0129644D01*
X0327418Y0128045D02*
X0326182Y0128045D01*
X0333632Y0129644D02*
X0337324Y0129644D01*
X0346276Y0129644D02*
X0357643Y0129644D01*
X0356045Y0128045D02*
X0347739Y0128045D01*
X0347900Y0126447D02*
X0355850Y0126447D01*
X0355850Y0124848D02*
X0347900Y0124848D01*
X0347900Y0123250D02*
X0356350Y0123250D01*
X0357949Y0121651D02*
X0347900Y0121651D01*
X0360800Y0126447D02*
X0360800Y0126447D01*
X0360800Y0128045D02*
X0360800Y0128045D01*
X0360800Y0129644D02*
X0360800Y0129644D01*
X0363957Y0129644D02*
X0375421Y0129644D01*
X0373823Y0128045D02*
X0365555Y0128045D01*
X0365750Y0126447D02*
X0372224Y0126447D01*
X0370626Y0124848D02*
X0365750Y0124848D01*
X0365250Y0123250D02*
X0369027Y0123250D01*
X0367429Y0121651D02*
X0363651Y0121651D01*
X0373480Y0115257D02*
X0382174Y0115257D01*
X0381512Y0116856D02*
X0375078Y0116856D01*
X0376677Y0118454D02*
X0381400Y0118454D01*
X0381400Y0120053D02*
X0378275Y0120053D01*
X0379874Y0121651D02*
X0381400Y0121651D01*
X0391426Y0115257D02*
X0392174Y0115257D01*
X0393705Y0113659D02*
X0389895Y0113659D01*
X0383705Y0113659D02*
X0372200Y0113659D01*
X0399895Y0113659D02*
X0403705Y0113659D01*
X0402174Y0115257D02*
X0401426Y0115257D01*
X0409895Y0113659D02*
X0413705Y0113659D01*
X0412174Y0115257D02*
X0411426Y0115257D01*
X0419895Y0113659D02*
X0423705Y0113659D01*
X0422174Y0115257D02*
X0421426Y0115257D01*
X0429895Y0113659D02*
X0433705Y0113659D01*
X0432174Y0115257D02*
X0431426Y0115257D01*
X0439895Y0113659D02*
X0443705Y0113659D01*
X0442174Y0115257D02*
X0441426Y0115257D01*
X0426800Y0120800D02*
X0426800Y0125800D01*
X0430800Y0129800D01*
X0460800Y0129800D01*
X0464136Y0128045D02*
X0567800Y0128045D01*
X0567800Y0126447D02*
X0462112Y0126447D01*
X0465735Y0129644D02*
X0567800Y0129644D01*
X0567800Y0131242D02*
X0467333Y0131242D01*
X0468932Y0132841D02*
X0567800Y0132841D01*
X0567800Y0134439D02*
X0480994Y0134439D01*
X0477800Y0134439D02*
X0477800Y0134439D01*
X0477800Y0134400D02*
X0477800Y0138800D01*
X0477800Y0138800D01*
X0477800Y0134400D01*
X0477800Y0136038D02*
X0477800Y0136038D01*
X0477800Y0137636D02*
X0477800Y0137636D01*
X0477800Y0139235D02*
X0477800Y0139235D01*
X0477800Y0140833D02*
X0477800Y0140833D01*
X0477800Y0142432D02*
X0477800Y0142432D01*
X0472713Y0142432D02*
X0471400Y0142432D01*
X0472121Y0144030D02*
X0472604Y0144030D01*
X0466735Y0148826D02*
X0418936Y0148826D01*
X0420675Y0150424D02*
X0451581Y0150424D01*
X0449484Y0152023D02*
X0421289Y0152023D01*
X0421289Y0153621D02*
X0448182Y0153621D01*
X0447520Y0155220D02*
X0420656Y0155220D01*
X0418829Y0156818D02*
X0447126Y0156818D01*
X0447126Y0158417D02*
X0338316Y0158417D01*
X0338316Y0156818D02*
X0354003Y0156818D01*
X0351997Y0155220D02*
X0337773Y0155220D01*
X0336806Y0153621D02*
X0350399Y0153621D01*
X0348674Y0152023D02*
X0334797Y0152023D01*
X0328835Y0152023D02*
X0324797Y0152023D01*
X0326806Y0153621D02*
X0326826Y0153621D01*
X0318835Y0152023D02*
X0314797Y0152023D01*
X0316806Y0153621D02*
X0316826Y0153621D01*
X0308835Y0152023D02*
X0304797Y0152023D01*
X0306806Y0153621D02*
X0306826Y0153621D01*
X0298835Y0152023D02*
X0294797Y0152023D01*
X0296806Y0153621D02*
X0296826Y0153621D01*
X0288835Y0152023D02*
X0284797Y0152023D01*
X0286806Y0153621D02*
X0286826Y0153621D01*
X0279508Y0150424D02*
X0347614Y0150424D01*
X0347311Y0148826D02*
X0277909Y0148826D01*
X0276311Y0147227D02*
X0347593Y0147227D01*
X0348623Y0145629D02*
X0274712Y0145629D01*
X0271792Y0147800D02*
X0281816Y0157824D01*
X0271792Y0147800D02*
X0246800Y0147800D01*
X0270706Y0144030D02*
X0362200Y0144030D01*
X0362200Y0142432D02*
X0272055Y0142432D01*
X0272700Y0140833D02*
X0362200Y0140833D01*
X0361950Y0139235D02*
X0272700Y0139235D01*
X0272249Y0137636D02*
X0361311Y0137636D01*
X0361311Y0136038D02*
X0271174Y0136038D01*
X0228766Y0118454D02*
X0224834Y0118454D01*
X0226679Y0120053D02*
X0226921Y0120053D01*
X0218766Y0118454D02*
X0214834Y0118454D01*
X0216679Y0120053D02*
X0216921Y0120053D01*
X0208766Y0118454D02*
X0194400Y0118454D01*
X0194400Y0120053D02*
X0206921Y0120053D01*
X0206087Y0121651D02*
X0194400Y0121651D01*
X0194400Y0123250D02*
X0205700Y0123250D01*
X0205700Y0124848D02*
X0194400Y0124848D01*
X0194400Y0126447D02*
X0206294Y0126447D01*
X0207418Y0128045D02*
X0194181Y0128045D01*
X0193047Y0129644D02*
X0209968Y0129644D01*
X0213632Y0129644D02*
X0218200Y0129644D01*
X0218200Y0131242D02*
X0191449Y0131242D01*
X0189850Y0132841D02*
X0217668Y0132841D01*
X0217418Y0128045D02*
X0216182Y0128045D01*
X0187200Y0124848D02*
X0175681Y0124848D01*
X0177280Y0123250D02*
X0187200Y0123250D01*
X0187200Y0121651D02*
X0177700Y0121651D01*
X0177700Y0120053D02*
X0187200Y0120053D01*
X0187200Y0118454D02*
X0177384Y0118454D01*
X0177775Y0116856D02*
X0187200Y0116856D01*
X0187200Y0115257D02*
X0179374Y0115257D01*
X0180059Y0113659D02*
X0187200Y0113659D01*
X0187200Y0112060D02*
X0180600Y0112060D01*
X0180600Y0110462D02*
X0187200Y0110462D01*
X0187200Y0108863D02*
X0180600Y0108863D01*
X0180600Y0107265D02*
X0187200Y0107265D01*
X0187200Y0105666D02*
X0180600Y0105666D01*
X0180600Y0104068D02*
X0187200Y0104068D01*
X0187200Y0102469D02*
X0180600Y0102469D01*
X0180600Y0100870D02*
X0187200Y0100870D01*
X0187200Y0099272D02*
X0180600Y0099272D01*
X0180600Y0097673D02*
X0187200Y0097673D01*
X0187200Y0096075D02*
X0180600Y0096075D01*
X0180600Y0094476D02*
X0187200Y0094476D01*
X0187200Y0092878D02*
X0180600Y0092878D01*
X0181351Y0091279D02*
X0187200Y0091279D01*
X0187367Y0089681D02*
X0182950Y0089681D01*
X0184548Y0088082D02*
X0188426Y0088082D01*
X0190025Y0086484D02*
X0186147Y0086484D01*
X0187745Y0084885D02*
X0191623Y0084885D01*
X0189344Y0083287D02*
X0282557Y0083287D01*
X0282311Y0081688D02*
X0190943Y0081688D01*
X0198800Y0087800D02*
X0199800Y0087800D01*
X0172813Y0073696D02*
X0136200Y0073696D01*
X0136184Y0075294D02*
X0171215Y0075294D01*
X0169616Y0076893D02*
X0135510Y0076893D01*
X0133912Y0078491D02*
X0168017Y0078491D01*
X0166419Y0080090D02*
X0132313Y0080090D01*
X0137470Y0072097D02*
X0174412Y0072097D01*
X0176010Y0070499D02*
X0138132Y0070499D01*
X0138300Y0068900D02*
X0177609Y0068900D01*
X0179207Y0067302D02*
X0138215Y0067302D01*
X0137553Y0065703D02*
X0180806Y0065703D01*
X0182404Y0064105D02*
X0136297Y0064105D01*
X0135872Y0062506D02*
X0184345Y0062506D01*
X0164870Y0042823D02*
X0161816Y0044088D01*
X0158509Y0044088D01*
X0155454Y0042823D01*
X0153116Y0040485D01*
X0151850Y0037430D01*
X0151850Y0034123D01*
X0153116Y0031068D01*
X0155454Y0028730D01*
X0158509Y0027465D01*
X0161816Y0027465D01*
X0164870Y0028730D01*
X0167209Y0031068D01*
X0168474Y0034123D01*
X0168474Y0037430D01*
X0167209Y0040485D01*
X0164870Y0042823D01*
X0163660Y0043324D02*
X0310200Y0043324D01*
X0310200Y0041726D02*
X0165968Y0041726D01*
X0167357Y0040127D02*
X0310200Y0040127D01*
X0310430Y0038529D02*
X0168019Y0038529D01*
X0168474Y0036930D02*
X0311579Y0036930D01*
X0313177Y0035332D02*
X0168474Y0035332D01*
X0168312Y0033733D02*
X0314776Y0033733D01*
X0316374Y0032134D02*
X0167650Y0032134D01*
X0166676Y0030536D02*
X0317973Y0030536D01*
X0319571Y0028937D02*
X0308885Y0028937D01*
X0308623Y0029200D02*
X0306800Y0029200D01*
X0306800Y0024800D01*
X0306800Y0024800D01*
X0311200Y0024800D01*
X0311200Y0026623D01*
X0308623Y0029200D01*
X0306800Y0029200D02*
X0304977Y0029200D01*
X0302400Y0026623D01*
X0302400Y0024800D01*
X0306800Y0024800D01*
X0306800Y0024800D01*
X0306800Y0024800D01*
X0306800Y0029200D01*
X0306800Y0028937D02*
X0306800Y0028937D01*
X0306800Y0027339D02*
X0306800Y0027339D01*
X0306800Y0025740D02*
X0306800Y0025740D01*
X0306800Y0024800D02*
X0302400Y0024800D01*
X0302400Y0022977D01*
X0304977Y0020400D01*
X0306800Y0020400D01*
X0308623Y0020400D01*
X0311200Y0022977D01*
X0311200Y0024800D01*
X0306800Y0024800D01*
X0306800Y0020400D01*
X0306800Y0024800D01*
X0306800Y0024800D01*
X0306800Y0024142D02*
X0306800Y0024142D01*
X0306800Y0022543D02*
X0306800Y0022543D01*
X0306800Y0020945D02*
X0306800Y0020945D01*
X0309167Y0020945D02*
X0319433Y0020945D01*
X0319977Y0020400D02*
X0321800Y0020400D01*
X0321800Y0024800D01*
X0317400Y0024800D01*
X0317400Y0022977D01*
X0319977Y0020400D01*
X0321800Y0020945D02*
X0321800Y0020945D01*
X0321800Y0022543D02*
X0321800Y0022543D01*
X0321800Y0024142D02*
X0321800Y0024142D01*
X0324167Y0020945D02*
X0327564Y0020945D01*
X0329162Y0019346D02*
X0117400Y0019346D01*
X0117400Y0020945D02*
X0184433Y0020945D01*
X0184977Y0020400D02*
X0182400Y0022977D01*
X0182400Y0024800D01*
X0186800Y0024800D01*
X0186800Y0024800D01*
X0186800Y0029200D01*
X0188623Y0029200D01*
X0191200Y0026623D01*
X0191200Y0024800D01*
X0186800Y0024800D01*
X0186800Y0024800D01*
X0186800Y0024800D01*
X0186800Y0029200D01*
X0184977Y0029200D01*
X0182400Y0026623D01*
X0182400Y0024800D01*
X0186800Y0024800D01*
X0191200Y0024800D01*
X0191200Y0022977D01*
X0188623Y0020400D01*
X0186800Y0020400D01*
X0186800Y0024800D01*
X0186800Y0024800D01*
X0186800Y0020400D01*
X0184977Y0020400D01*
X0186800Y0020945D02*
X0186800Y0020945D01*
X0186800Y0022543D02*
X0186800Y0022543D01*
X0186800Y0024142D02*
X0186800Y0024142D01*
X0186800Y0025740D02*
X0186800Y0025740D01*
X0186800Y0027339D02*
X0186800Y0027339D01*
X0186800Y0028937D02*
X0186800Y0028937D01*
X0188885Y0028937D02*
X0199715Y0028937D01*
X0199977Y0029200D02*
X0197400Y0026623D01*
X0197400Y0024800D01*
X0201800Y0024800D01*
X0201800Y0024800D01*
X0201800Y0029200D01*
X0203623Y0029200D01*
X0206200Y0026623D01*
X0206200Y0024800D01*
X0201800Y0024800D01*
X0201800Y0024800D01*
X0201800Y0024800D01*
X0201800Y0029200D01*
X0199977Y0029200D01*
X0201800Y0028937D02*
X0201800Y0028937D01*
X0201800Y0027339D02*
X0201800Y0027339D01*
X0201800Y0025740D02*
X0201800Y0025740D01*
X0201800Y0024800D02*
X0197400Y0024800D01*
X0197400Y0022977D01*
X0199977Y0020400D01*
X0201800Y0020400D01*
X0203623Y0020400D01*
X0206200Y0022977D01*
X0206200Y0024800D01*
X0201800Y0024800D01*
X0201800Y0020400D01*
X0201800Y0024800D01*
X0201800Y0024800D01*
X0201800Y0024142D02*
X0201800Y0024142D01*
X0201800Y0022543D02*
X0201800Y0022543D01*
X0201800Y0020945D02*
X0201800Y0020945D01*
X0204167Y0020945D02*
X0214433Y0020945D01*
X0214977Y0020400D02*
X0212400Y0022977D01*
X0212400Y0024800D01*
X0216800Y0024800D01*
X0216800Y0024800D01*
X0216800Y0029200D01*
X0218623Y0029200D01*
X0221200Y0026623D01*
X0221200Y0024800D01*
X0216800Y0024800D01*
X0216800Y0024800D01*
X0216800Y0024800D01*
X0216800Y0029200D01*
X0214977Y0029200D01*
X0212400Y0026623D01*
X0212400Y0024800D01*
X0216800Y0024800D01*
X0221200Y0024800D01*
X0221200Y0022977D01*
X0218623Y0020400D01*
X0216800Y0020400D01*
X0216800Y0024800D01*
X0216800Y0024800D01*
X0216800Y0020400D01*
X0214977Y0020400D01*
X0216800Y0020945D02*
X0216800Y0020945D01*
X0216800Y0022543D02*
X0216800Y0022543D01*
X0216800Y0024142D02*
X0216800Y0024142D01*
X0216800Y0025740D02*
X0216800Y0025740D01*
X0216800Y0027339D02*
X0216800Y0027339D01*
X0216800Y0028937D02*
X0216800Y0028937D01*
X0218885Y0028937D02*
X0229715Y0028937D01*
X0229977Y0029200D02*
X0227400Y0026623D01*
X0227400Y0024800D01*
X0231800Y0024800D01*
X0231800Y0024800D01*
X0231800Y0029200D01*
X0233623Y0029200D01*
X0236200Y0026623D01*
X0236200Y0024800D01*
X0231800Y0024800D01*
X0231800Y0024800D01*
X0231800Y0024800D01*
X0231800Y0029200D01*
X0229977Y0029200D01*
X0231800Y0028937D02*
X0231800Y0028937D01*
X0231800Y0027339D02*
X0231800Y0027339D01*
X0231800Y0025740D02*
X0231800Y0025740D01*
X0231800Y0024800D02*
X0227400Y0024800D01*
X0227400Y0022977D01*
X0229977Y0020400D01*
X0231800Y0020400D01*
X0233623Y0020400D01*
X0236200Y0022977D01*
X0236200Y0024800D01*
X0231800Y0024800D01*
X0231800Y0020400D01*
X0231800Y0024800D01*
X0231800Y0024800D01*
X0231800Y0024142D02*
X0231800Y0024142D01*
X0231800Y0022543D02*
X0231800Y0022543D01*
X0231800Y0020945D02*
X0231800Y0020945D01*
X0234167Y0020945D02*
X0244433Y0020945D01*
X0244977Y0020400D02*
X0242400Y0022977D01*
X0242400Y0024800D01*
X0246800Y0024800D01*
X0246800Y0024800D01*
X0246800Y0029200D01*
X0248623Y0029200D01*
X0251200Y0026623D01*
X0251200Y0024800D01*
X0246800Y0024800D01*
X0246800Y0024800D01*
X0246800Y0024800D01*
X0246800Y0029200D01*
X0244977Y0029200D01*
X0242400Y0026623D01*
X0242400Y0024800D01*
X0246800Y0024800D01*
X0251200Y0024800D01*
X0251200Y0022977D01*
X0248623Y0020400D01*
X0246800Y0020400D01*
X0246800Y0024800D01*
X0246800Y0024800D01*
X0246800Y0020400D01*
X0244977Y0020400D01*
X0246800Y0020945D02*
X0246800Y0020945D01*
X0246800Y0022543D02*
X0246800Y0022543D01*
X0246800Y0024142D02*
X0246800Y0024142D01*
X0246800Y0025740D02*
X0246800Y0025740D01*
X0246800Y0027339D02*
X0246800Y0027339D01*
X0246800Y0028937D02*
X0246800Y0028937D01*
X0248885Y0028937D02*
X0259715Y0028937D01*
X0259977Y0029200D02*
X0257400Y0026623D01*
X0257400Y0024800D01*
X0261800Y0024800D01*
X0261800Y0024800D01*
X0261800Y0029200D01*
X0263623Y0029200D01*
X0266200Y0026623D01*
X0266200Y0024800D01*
X0261800Y0024800D01*
X0261800Y0024800D01*
X0261800Y0024800D01*
X0261800Y0029200D01*
X0259977Y0029200D01*
X0261800Y0028937D02*
X0261800Y0028937D01*
X0261800Y0027339D02*
X0261800Y0027339D01*
X0261800Y0025740D02*
X0261800Y0025740D01*
X0261800Y0024800D02*
X0257400Y0024800D01*
X0257400Y0022977D01*
X0259977Y0020400D01*
X0261800Y0020400D01*
X0263623Y0020400D01*
X0266200Y0022977D01*
X0266200Y0024800D01*
X0261800Y0024800D01*
X0261800Y0020400D01*
X0261800Y0024800D01*
X0261800Y0024800D01*
X0261800Y0024142D02*
X0261800Y0024142D01*
X0261800Y0022543D02*
X0261800Y0022543D01*
X0261800Y0020945D02*
X0261800Y0020945D01*
X0264167Y0020945D02*
X0274433Y0020945D01*
X0274977Y0020400D02*
X0272400Y0022977D01*
X0272400Y0024800D01*
X0276800Y0024800D01*
X0276800Y0024800D01*
X0276800Y0029200D01*
X0278623Y0029200D01*
X0281200Y0026623D01*
X0281200Y0024800D01*
X0276800Y0024800D01*
X0276800Y0024800D01*
X0276800Y0024800D01*
X0276800Y0029200D01*
X0274977Y0029200D01*
X0272400Y0026623D01*
X0272400Y0024800D01*
X0276800Y0024800D01*
X0281200Y0024800D01*
X0281200Y0022977D01*
X0278623Y0020400D01*
X0276800Y0020400D01*
X0276800Y0024800D01*
X0276800Y0024800D01*
X0276800Y0020400D01*
X0274977Y0020400D01*
X0276800Y0020945D02*
X0276800Y0020945D01*
X0276800Y0022543D02*
X0276800Y0022543D01*
X0276800Y0024142D02*
X0276800Y0024142D01*
X0276800Y0025740D02*
X0276800Y0025740D01*
X0276800Y0027339D02*
X0276800Y0027339D01*
X0276800Y0028937D02*
X0276800Y0028937D01*
X0278885Y0028937D02*
X0289715Y0028937D01*
X0289977Y0029200D02*
X0287400Y0026623D01*
X0287400Y0024800D01*
X0291800Y0024800D01*
X0291800Y0024800D01*
X0291800Y0029200D01*
X0293623Y0029200D01*
X0296200Y0026623D01*
X0296200Y0024800D01*
X0291800Y0024800D01*
X0291800Y0024800D01*
X0291800Y0024800D01*
X0291800Y0029200D01*
X0289977Y0029200D01*
X0291800Y0028937D02*
X0291800Y0028937D01*
X0291800Y0027339D02*
X0291800Y0027339D01*
X0291800Y0025740D02*
X0291800Y0025740D01*
X0291800Y0024800D02*
X0287400Y0024800D01*
X0287400Y0022977D01*
X0289977Y0020400D01*
X0291800Y0020400D01*
X0293623Y0020400D01*
X0296200Y0022977D01*
X0296200Y0024800D01*
X0291800Y0024800D01*
X0291800Y0020400D01*
X0291800Y0024800D01*
X0291800Y0024800D01*
X0291800Y0024142D02*
X0291800Y0024142D01*
X0291800Y0022543D02*
X0291800Y0022543D01*
X0291800Y0020945D02*
X0291800Y0020945D01*
X0294167Y0020945D02*
X0304433Y0020945D01*
X0302834Y0022543D02*
X0295766Y0022543D01*
X0296200Y0024142D02*
X0302400Y0024142D01*
X0302400Y0025740D02*
X0296200Y0025740D01*
X0295484Y0027339D02*
X0303116Y0027339D01*
X0304715Y0028937D02*
X0293885Y0028937D01*
X0288116Y0027339D02*
X0280484Y0027339D01*
X0281200Y0025740D02*
X0287400Y0025740D01*
X0287400Y0024142D02*
X0281200Y0024142D01*
X0280766Y0022543D02*
X0287834Y0022543D01*
X0289433Y0020945D02*
X0279167Y0020945D01*
X0272834Y0022543D02*
X0265766Y0022543D01*
X0266200Y0024142D02*
X0272400Y0024142D01*
X0272400Y0025740D02*
X0266200Y0025740D01*
X0265484Y0027339D02*
X0273116Y0027339D01*
X0274715Y0028937D02*
X0263885Y0028937D01*
X0258116Y0027339D02*
X0250484Y0027339D01*
X0251200Y0025740D02*
X0257400Y0025740D01*
X0257400Y0024142D02*
X0251200Y0024142D01*
X0250766Y0022543D02*
X0257834Y0022543D01*
X0259433Y0020945D02*
X0249167Y0020945D01*
X0242834Y0022543D02*
X0235766Y0022543D01*
X0236200Y0024142D02*
X0242400Y0024142D01*
X0242400Y0025740D02*
X0236200Y0025740D01*
X0235484Y0027339D02*
X0243116Y0027339D01*
X0244715Y0028937D02*
X0233885Y0028937D01*
X0228116Y0027339D02*
X0220484Y0027339D01*
X0221200Y0025740D02*
X0227400Y0025740D01*
X0227400Y0024142D02*
X0221200Y0024142D01*
X0220766Y0022543D02*
X0227834Y0022543D01*
X0229433Y0020945D02*
X0219167Y0020945D01*
X0212834Y0022543D02*
X0205766Y0022543D01*
X0206200Y0024142D02*
X0212400Y0024142D01*
X0212400Y0025740D02*
X0206200Y0025740D01*
X0205484Y0027339D02*
X0213116Y0027339D01*
X0214715Y0028937D02*
X0203885Y0028937D01*
X0198116Y0027339D02*
X0190484Y0027339D01*
X0191200Y0025740D02*
X0197400Y0025740D01*
X0197400Y0024142D02*
X0191200Y0024142D01*
X0190766Y0022543D02*
X0197834Y0022543D01*
X0199433Y0020945D02*
X0189167Y0020945D01*
X0182834Y0022543D02*
X0123681Y0022543D01*
X0126334Y0024142D02*
X0128854Y0024142D01*
X0131600Y0024142D02*
X0132000Y0024142D01*
X0132000Y0025740D02*
X0131600Y0025740D01*
X0131600Y0027339D02*
X0132000Y0027339D01*
X0132000Y0028937D02*
X0155246Y0028937D01*
X0153648Y0030536D02*
X0137019Y0030536D01*
X0136176Y0032134D02*
X0152674Y0032134D01*
X0152012Y0033733D02*
X0134233Y0033733D01*
X0132000Y0033733D02*
X0131600Y0033733D01*
X0131600Y0034300D02*
X0131600Y0029000D01*
X0132000Y0029000D01*
X0132000Y0038600D01*
X0131600Y0038600D01*
X0131600Y0034300D01*
X0131600Y0035332D02*
X0132000Y0035332D01*
X0132000Y0036930D02*
X0131600Y0036930D01*
X0131600Y0038529D02*
X0132000Y0038529D01*
X0132000Y0039000D02*
X0131600Y0039000D01*
X0131600Y0044300D01*
X0131600Y0048600D01*
X0132000Y0048600D01*
X0132000Y0039000D01*
X0132000Y0040127D02*
X0131600Y0040127D01*
X0131600Y0041726D02*
X0132000Y0041726D01*
X0132000Y0043324D02*
X0131600Y0043324D01*
X0131600Y0044923D02*
X0132000Y0044923D01*
X0132000Y0046521D02*
X0131600Y0046521D01*
X0131600Y0048120D02*
X0132000Y0048120D01*
X0132000Y0049000D02*
X0131600Y0049000D01*
X0131600Y0054300D01*
X0131600Y0058600D01*
X0132000Y0058600D01*
X0132000Y0049000D01*
X0132000Y0049718D02*
X0131600Y0049718D01*
X0131600Y0051317D02*
X0132000Y0051317D01*
X0132000Y0052915D02*
X0131600Y0052915D01*
X0131600Y0054514D02*
X0132000Y0054514D01*
X0132000Y0056112D02*
X0131600Y0056112D01*
X0131600Y0057711D02*
X0132000Y0057711D01*
X0135257Y0054514D02*
X0310200Y0054514D01*
X0310200Y0056112D02*
X0136603Y0056112D01*
X0137196Y0057711D02*
X0309798Y0057711D01*
X0308200Y0059309D02*
X0137288Y0059309D01*
X0136898Y0060908D02*
X0306601Y0060908D01*
X0325400Y0056112D02*
X0477200Y0056112D01*
X0477200Y0054514D02*
X0325400Y0054514D01*
X0325400Y0052915D02*
X0367005Y0052915D01*
X0364984Y0051317D02*
X0325400Y0051317D01*
X0325400Y0049718D02*
X0364321Y0049718D01*
X0364311Y0048120D02*
X0325400Y0048120D01*
X0325400Y0046521D02*
X0364885Y0046521D01*
X0366431Y0044923D02*
X0325400Y0044923D01*
X0325400Y0043324D02*
X0346976Y0043324D01*
X0345739Y0041726D02*
X0325400Y0041726D01*
X0325400Y0040127D02*
X0345311Y0040127D01*
X0345468Y0038529D02*
X0326163Y0038529D01*
X0327761Y0036930D02*
X0346322Y0036930D01*
X0348858Y0035332D02*
X0329360Y0035332D01*
X0330958Y0033733D02*
X0353645Y0033733D01*
X0353300Y0032134D02*
X0332557Y0032134D01*
X0334155Y0030536D02*
X0353432Y0030536D01*
X0354086Y0028937D02*
X0335754Y0028937D01*
X0325965Y0022543D02*
X0325766Y0022543D01*
X0317834Y0022543D02*
X0310766Y0022543D01*
X0311200Y0024142D02*
X0317400Y0024142D01*
X0317400Y0025740D02*
X0311200Y0025740D01*
X0310484Y0027339D02*
X0318116Y0027339D01*
X0349800Y0039800D02*
X0380800Y0039800D01*
X0388800Y0031800D01*
X0398800Y0031800D02*
X0381800Y0048800D01*
X0368800Y0048800D01*
X0370595Y0052915D02*
X0445913Y0052915D01*
X0444748Y0051839D02*
X0444748Y0051839D01*
X0444225Y0051317D02*
X0384375Y0051317D01*
X0385973Y0049718D02*
X0442627Y0049718D01*
X0441028Y0048120D02*
X0387572Y0048120D01*
X0389170Y0046521D02*
X0439430Y0046521D01*
X0438368Y0044923D02*
X0390769Y0044923D01*
X0392367Y0043324D02*
X0438200Y0043324D01*
X0438200Y0041726D02*
X0393966Y0041726D01*
X0395564Y0040127D02*
X0438200Y0040127D01*
X0438200Y0038529D02*
X0397163Y0038529D01*
X0402862Y0036930D02*
X0404738Y0036930D01*
X0412862Y0036930D02*
X0438200Y0036930D01*
X0438200Y0035332D02*
X0414373Y0035332D01*
X0415035Y0033733D02*
X0436642Y0033733D01*
X0435043Y0032134D02*
X0415300Y0032134D01*
X0415300Y0030536D02*
X0433445Y0030536D01*
X0431846Y0028937D02*
X0414650Y0028937D01*
X0437233Y0024142D02*
X0473051Y0024142D01*
X0474649Y0025740D02*
X0438832Y0025740D01*
X0421800Y0014800D02*
X0116800Y0014800D01*
X0113800Y0017800D01*
X0113800Y0044800D01*
X0117800Y0048800D01*
X0121800Y0048800D01*
X0134930Y0043324D02*
X0156664Y0043324D01*
X0154357Y0041726D02*
X0136473Y0041726D01*
X0137152Y0040127D02*
X0152968Y0040127D01*
X0152306Y0038529D02*
X0137300Y0038529D01*
X0136975Y0036930D02*
X0151850Y0036930D01*
X0151850Y0035332D02*
X0136078Y0035332D01*
X0132000Y0032134D02*
X0131600Y0032134D01*
X0131600Y0030536D02*
X0132000Y0030536D01*
X0137108Y0027339D02*
X0183116Y0027339D01*
X0182400Y0025740D02*
X0136375Y0025740D01*
X0134746Y0024142D02*
X0182400Y0024142D01*
X0184715Y0028937D02*
X0165078Y0028937D01*
X0135701Y0044923D02*
X0310200Y0044923D01*
X0310200Y0046521D02*
X0136812Y0046521D01*
X0137261Y0048120D02*
X0310200Y0048120D01*
X0310200Y0049718D02*
X0137223Y0049718D01*
X0136691Y0051317D02*
X0310200Y0051317D01*
X0310200Y0052915D02*
X0135463Y0052915D01*
X0119919Y0022543D02*
X0117400Y0022543D01*
X0047555Y0054514D02*
X0006800Y0054514D01*
X0006800Y0056112D02*
X0045957Y0056112D01*
X0045137Y0057711D02*
X0006800Y0057711D01*
X0006800Y0059309D02*
X0044500Y0059309D01*
X0044500Y0060908D02*
X0006800Y0060908D01*
X0006800Y0062506D02*
X0044564Y0062506D01*
X0045226Y0064105D02*
X0006800Y0064105D01*
X0006800Y0065703D02*
X0046172Y0065703D01*
X0060583Y0075294D02*
X0006800Y0075294D01*
X0006800Y0073696D02*
X0062357Y0073696D01*
X0058985Y0076893D02*
X0006800Y0076893D01*
X0006800Y0078491D02*
X0057386Y0078491D01*
X0055788Y0080090D02*
X0006800Y0080090D01*
X0006800Y0081688D02*
X0054705Y0081688D01*
X0054400Y0083287D02*
X0006800Y0083287D01*
X0006800Y0084885D02*
X0054400Y0084885D01*
X0054400Y0086484D02*
X0006800Y0086484D01*
X0006800Y0088082D02*
X0054400Y0088082D01*
X0054400Y0089681D02*
X0006800Y0089681D01*
X0006800Y0091279D02*
X0054400Y0091279D01*
X0054400Y0092878D02*
X0006800Y0092878D01*
X0006800Y0094476D02*
X0054400Y0094476D01*
X0054400Y0096075D02*
X0006800Y0096075D01*
X0006800Y0097673D02*
X0054400Y0097673D01*
X0054400Y0099272D02*
X0006800Y0099272D01*
X0006800Y0100870D02*
X0054400Y0100870D01*
X0054400Y0102469D02*
X0006800Y0102469D01*
X0006800Y0104068D02*
X0054400Y0104068D01*
X0054400Y0105666D02*
X0006800Y0105666D01*
X0006800Y0107265D02*
X0054400Y0107265D01*
X0054400Y0108863D02*
X0006800Y0108863D01*
X0006800Y0110462D02*
X0054400Y0110462D01*
X0054400Y0112060D02*
X0006800Y0112060D01*
X0006800Y0113659D02*
X0054400Y0113659D01*
X0054400Y0115257D02*
X0006800Y0115257D01*
X0006800Y0116856D02*
X0054400Y0116856D01*
X0054400Y0118454D02*
X0006800Y0118454D01*
X0006800Y0120053D02*
X0054400Y0120053D01*
X0054400Y0121651D02*
X0006800Y0121651D01*
X0006800Y0123250D02*
X0054400Y0123250D01*
X0054400Y0124848D02*
X0006800Y0124848D01*
X0064760Y0136038D02*
X0111400Y0136038D01*
X0111400Y0137636D02*
X0066359Y0137636D01*
X0067957Y0139235D02*
X0111400Y0139235D01*
X0111400Y0140833D02*
X0069556Y0140833D01*
X0071154Y0142432D02*
X0111509Y0142432D01*
X0128887Y0153621D02*
X0055352Y0153621D01*
X0057751Y0155220D02*
X0127289Y0155220D01*
X0115800Y0158417D02*
X0115800Y0158417D01*
X0115800Y0160015D02*
X0115800Y0160015D01*
X0115800Y0161614D02*
X0115800Y0161614D01*
X0115800Y0163212D02*
X0115800Y0163212D01*
X0115800Y0164811D02*
X0115800Y0164811D01*
X0115800Y0166409D02*
X0115800Y0166409D01*
X0115800Y0168008D02*
X0115800Y0168008D01*
X0115800Y0169606D02*
X0115800Y0169606D01*
X0137751Y0190387D02*
X0140778Y0190387D01*
X0141206Y0191986D02*
X0140174Y0191986D01*
X0141614Y0193584D02*
X0142055Y0193584D01*
X0142565Y0195183D02*
X0143139Y0195183D01*
X0143196Y0196781D02*
X0144738Y0196781D01*
X0143515Y0198380D02*
X0147415Y0198380D01*
X0156185Y0198380D02*
X0168349Y0198380D01*
X0166750Y0196781D02*
X0158862Y0196781D01*
X0206237Y0176001D02*
X0209363Y0176001D01*
X0208032Y0177599D02*
X0207568Y0177599D01*
X0216237Y0176001D02*
X0221486Y0176001D01*
X0221770Y0175908D02*
X0222454Y0175800D01*
X0222800Y0175800D01*
X0223146Y0175800D01*
X0223830Y0175908D01*
X0224489Y0176122D01*
X0225106Y0176437D01*
X0225666Y0176844D01*
X0226156Y0177334D01*
X0226563Y0177894D01*
X0226878Y0178511D01*
X0227092Y0179170D01*
X0227200Y0179854D01*
X0227200Y0182800D01*
X0227200Y0185746D01*
X0227092Y0186430D01*
X0226878Y0187089D01*
X0226563Y0187706D01*
X0226156Y0188266D01*
X0225666Y0188756D01*
X0225106Y0189163D01*
X0224489Y0189478D01*
X0223830Y0189692D01*
X0223146Y0189800D01*
X0222800Y0189800D01*
X0222800Y0182800D01*
X0227200Y0182800D01*
X0222800Y0182800D01*
X0222800Y0182800D01*
X0222800Y0182800D01*
X0222800Y0175800D01*
X0222800Y0182800D01*
X0222800Y0182800D01*
X0222800Y0182800D01*
X0218400Y0182800D01*
X0218400Y0185746D01*
X0218508Y0186430D01*
X0218722Y0187089D01*
X0219037Y0187706D01*
X0219444Y0188266D01*
X0219934Y0188756D01*
X0220494Y0189163D01*
X0221111Y0189478D01*
X0221770Y0189692D01*
X0222454Y0189800D01*
X0222800Y0189800D01*
X0222800Y0182800D01*
X0218400Y0182800D01*
X0218400Y0179854D01*
X0218508Y0179170D01*
X0218722Y0178511D01*
X0219037Y0177894D01*
X0219444Y0177334D01*
X0219934Y0176844D01*
X0220494Y0176437D01*
X0221111Y0176122D01*
X0221770Y0175908D01*
X0222800Y0176001D02*
X0222800Y0176001D01*
X0224114Y0176001D02*
X0238000Y0176001D01*
X0238000Y0177599D02*
X0226349Y0177599D01*
X0227096Y0179198D02*
X0238000Y0179198D01*
X0236581Y0180796D02*
X0227200Y0180796D01*
X0227200Y0182395D02*
X0234983Y0182395D01*
X0233384Y0183993D02*
X0227200Y0183993D01*
X0227200Y0185592D02*
X0231786Y0185592D01*
X0230187Y0187190D02*
X0226826Y0187190D01*
X0225622Y0188789D02*
X0228589Y0188789D01*
X0226990Y0190387D02*
X0214871Y0190387D01*
X0217048Y0188789D02*
X0219978Y0188789D01*
X0218774Y0187190D02*
X0217903Y0187190D01*
X0218200Y0185592D02*
X0218400Y0185592D01*
X0218400Y0183993D02*
X0218200Y0183993D01*
X0218200Y0182395D02*
X0218400Y0182395D01*
X0218400Y0180796D02*
X0218200Y0180796D01*
X0218200Y0179198D02*
X0218504Y0179198D01*
X0219251Y0177599D02*
X0217568Y0177599D01*
X0222800Y0177599D02*
X0222800Y0177599D01*
X0222800Y0179198D02*
X0222800Y0179198D01*
X0222800Y0180796D02*
X0222800Y0180796D01*
X0222800Y0182395D02*
X0222800Y0182395D01*
X0222800Y0183993D02*
X0222800Y0183993D01*
X0222800Y0185592D02*
X0222800Y0185592D01*
X0222800Y0187190D02*
X0222800Y0187190D01*
X0222800Y0188789D02*
X0222800Y0188789D01*
X0235619Y0163212D02*
X0238012Y0163212D01*
X0245619Y0163212D02*
X0248012Y0163212D01*
X0255619Y0163212D02*
X0258012Y0163212D01*
X0316147Y0169606D02*
X0567800Y0169606D01*
X0567800Y0168008D02*
X0317854Y0168008D01*
X0319452Y0166409D02*
X0567800Y0166409D01*
X0567800Y0164811D02*
X0460205Y0164811D01*
X0450670Y0164811D02*
X0321051Y0164811D01*
X0325619Y0163212D02*
X0328012Y0163212D01*
X0335619Y0163212D02*
X0449072Y0163212D01*
X0448011Y0161614D02*
X0337218Y0161614D01*
X0337943Y0160015D02*
X0447349Y0160015D01*
X0482996Y0144030D02*
X0567800Y0144030D01*
X0567800Y0142432D02*
X0482887Y0142432D01*
X0484302Y0140833D02*
X0567800Y0140833D01*
X0567800Y0139235D02*
X0484786Y0139235D01*
X0484648Y0137636D02*
X0567800Y0137636D01*
X0567800Y0136038D02*
X0483832Y0136038D01*
X0474606Y0134439D02*
X0470530Y0134439D01*
X0471381Y0136038D02*
X0471768Y0136038D01*
X0464200Y0139235D02*
X0430714Y0139235D01*
X0431898Y0137636D02*
X0463545Y0137636D01*
X0461947Y0136038D02*
X0432289Y0136038D01*
X0432095Y0134439D02*
X0460348Y0134439D01*
X0484866Y0145629D02*
X0567800Y0145629D01*
X0567800Y0147227D02*
X0485593Y0147227D01*
X0485800Y0148826D02*
X0567800Y0148826D01*
X0567800Y0150424D02*
X0485572Y0150424D01*
X0434229Y0187190D02*
X0417371Y0187190D01*
X0420091Y0188789D02*
X0431509Y0188789D01*
X0438600Y0192900D02*
X0438800Y0192700D01*
X0438600Y0192900D02*
X0413000Y0192900D01*
X0417927Y0198380D02*
X0433673Y0198380D01*
X0431279Y0196781D02*
X0420321Y0196781D01*
X0417124Y0206018D02*
X0417843Y0206252D01*
X0418516Y0206595D01*
X0419127Y0207039D01*
X0419661Y0207573D01*
X0420105Y0208184D01*
X0420448Y0208857D01*
X0420682Y0209576D01*
X0420800Y0210322D01*
X0420800Y0210500D01*
X0413200Y0210500D01*
X0413200Y0205900D01*
X0416378Y0205900D01*
X0417124Y0206018D01*
X0418079Y0206372D02*
X0433521Y0206372D01*
X0433757Y0206252D02*
X0434476Y0206018D01*
X0435222Y0205900D01*
X0438400Y0205900D01*
X0438400Y0210500D01*
X0430800Y0210500D01*
X0430800Y0210322D01*
X0430918Y0209576D01*
X0431152Y0208857D01*
X0431495Y0208184D01*
X0431939Y0207573D01*
X0432473Y0207039D01*
X0433084Y0206595D01*
X0433757Y0206252D01*
X0431650Y0207971D02*
X0419950Y0207971D01*
X0420680Y0209569D02*
X0430920Y0209569D01*
X0430814Y0211168D02*
X0420786Y0211168D01*
X0420800Y0211078D02*
X0420682Y0211824D01*
X0420448Y0212543D01*
X0420105Y0213216D01*
X0419661Y0213827D01*
X0419127Y0214361D01*
X0418516Y0214805D01*
X0417843Y0215148D01*
X0417124Y0215382D01*
X0416378Y0215500D01*
X0413200Y0215500D01*
X0413200Y0210900D01*
X0420800Y0210900D01*
X0420800Y0211078D01*
X0420334Y0212766D02*
X0431266Y0212766D01*
X0432478Y0214365D02*
X0419122Y0214365D01*
X0413200Y0214365D02*
X0412800Y0214365D01*
X0412800Y0212766D02*
X0413200Y0212766D01*
X0413200Y0211168D02*
X0412800Y0211168D01*
X0412800Y0209569D02*
X0413200Y0209569D01*
X0413200Y0207971D02*
X0412800Y0207971D01*
X0412800Y0206372D02*
X0413200Y0206372D01*
X0407921Y0206372D02*
X0391752Y0206372D01*
X0392483Y0207971D02*
X0406050Y0207971D01*
X0438400Y0207971D02*
X0438800Y0207971D01*
X0438800Y0209569D02*
X0438400Y0209569D01*
X0438400Y0211168D02*
X0438800Y0211168D01*
X0438800Y0212766D02*
X0438400Y0212766D01*
X0438400Y0214365D02*
X0438800Y0214365D01*
X0438800Y0206372D02*
X0438400Y0206372D01*
X0365096Y0196781D02*
X0363496Y0196781D01*
X0363496Y0195183D02*
X0365096Y0195183D01*
X0365096Y0193584D02*
X0363496Y0193584D01*
X0363496Y0191986D02*
X0365096Y0191986D01*
X0365096Y0190387D02*
X0363496Y0190387D01*
X0337800Y0193584D02*
X0337800Y0193584D01*
X0337800Y0195183D02*
X0337800Y0195183D01*
X0337800Y0196781D02*
X0337800Y0196781D01*
X0332230Y0211168D02*
X0320370Y0211168D01*
X0321821Y0212766D02*
X0330779Y0212766D01*
X0330117Y0214365D02*
X0322483Y0214365D01*
X0322600Y0215963D02*
X0330000Y0215963D01*
X0330252Y0217562D02*
X0322348Y0217562D01*
X0321642Y0219160D02*
X0330958Y0219160D01*
X0332616Y0220759D02*
X0319984Y0220759D01*
X0321560Y0222357D02*
X0331040Y0222357D01*
X0330286Y0223956D02*
X0322314Y0223956D01*
X0322600Y0225554D02*
X0330000Y0225554D01*
X0330083Y0227153D02*
X0322517Y0227153D01*
X0321855Y0228751D02*
X0330745Y0228751D01*
X0332147Y0230350D02*
X0320453Y0230350D01*
X0321151Y0231948D02*
X0331449Y0231948D01*
X0330455Y0233547D02*
X0322145Y0233547D01*
X0322600Y0235145D02*
X0330000Y0235145D01*
X0330000Y0236744D02*
X0322600Y0236744D01*
X0322025Y0238342D02*
X0330575Y0238342D01*
X0331739Y0239941D02*
X0320861Y0239941D01*
X0318100Y0241539D02*
X0334500Y0241539D01*
X0307147Y0230350D02*
X0295572Y0230350D01*
X0293974Y0228751D02*
X0299529Y0228751D01*
X0207200Y0228751D02*
X0206200Y0228751D01*
X0206200Y0227153D02*
X0207200Y0227153D01*
X0207200Y0225554D02*
X0206200Y0225554D01*
X0206200Y0230350D02*
X0207200Y0230350D01*
X0207200Y0231948D02*
X0206200Y0231948D01*
X0206200Y0233547D02*
X0207200Y0233547D01*
X0356450Y0147227D02*
X0361311Y0147227D01*
X0361841Y0145629D02*
X0354977Y0145629D01*
X0365800Y0147800D02*
X0365800Y0136800D01*
X0390163Y0097673D02*
X0393437Y0097673D01*
X0392063Y0096075D02*
X0391537Y0096075D01*
X0400163Y0097673D02*
X0403437Y0097673D01*
X0402063Y0096075D02*
X0401537Y0096075D01*
X0410163Y0097673D02*
X0415714Y0097673D01*
X0415770Y0097692D02*
X0415111Y0097478D01*
X0414494Y0097163D01*
X0413934Y0096756D01*
X0413444Y0096266D01*
X0413037Y0095706D01*
X0412722Y0095089D01*
X0412508Y0094430D01*
X0412400Y0093746D01*
X0412400Y0090800D01*
X0416800Y0090800D01*
X0416800Y0090800D01*
X0416800Y0097800D01*
X0417146Y0097800D01*
X0417830Y0097692D01*
X0418489Y0097478D01*
X0419106Y0097163D01*
X0419666Y0096756D01*
X0420156Y0096266D01*
X0420563Y0095706D01*
X0420878Y0095089D01*
X0421092Y0094430D01*
X0421200Y0093746D01*
X0421200Y0090800D01*
X0416800Y0090800D01*
X0416800Y0090800D01*
X0416800Y0090800D01*
X0416800Y0097800D01*
X0416454Y0097800D01*
X0415770Y0097692D01*
X0416800Y0097673D02*
X0416800Y0097673D01*
X0417886Y0097673D02*
X0423437Y0097673D01*
X0423741Y0097978D02*
X0422222Y0096459D01*
X0421400Y0094474D01*
X0421400Y0087126D01*
X0422222Y0085141D01*
X0423741Y0083622D01*
X0425726Y0082800D01*
X0427874Y0082800D01*
X0429859Y0083622D01*
X0431378Y0085141D01*
X0431800Y0086160D01*
X0432222Y0085141D01*
X0433741Y0083622D01*
X0435726Y0082800D01*
X0437874Y0082800D01*
X0439859Y0083622D01*
X0441378Y0085141D01*
X0441800Y0086160D01*
X0442222Y0085141D01*
X0443741Y0083622D01*
X0445726Y0082800D01*
X0447874Y0082800D01*
X0449859Y0083622D01*
X0451378Y0085141D01*
X0452200Y0087126D01*
X0452200Y0094474D01*
X0451378Y0096459D01*
X0449859Y0097978D01*
X0447874Y0098800D01*
X0445726Y0098800D01*
X0443741Y0097978D01*
X0442222Y0096459D01*
X0441800Y0095440D01*
X0441378Y0096459D01*
X0439859Y0097978D01*
X0437874Y0098800D01*
X0435726Y0098800D01*
X0433741Y0097978D01*
X0432222Y0096459D01*
X0431800Y0095440D01*
X0431378Y0096459D01*
X0429859Y0097978D01*
X0427874Y0098800D01*
X0425726Y0098800D01*
X0423741Y0097978D01*
X0422063Y0096075D02*
X0420295Y0096075D01*
X0421077Y0094476D02*
X0421401Y0094476D01*
X0421400Y0092878D02*
X0421200Y0092878D01*
X0421200Y0091279D02*
X0421400Y0091279D01*
X0421200Y0090800D02*
X0416800Y0090800D01*
X0416800Y0083800D01*
X0417146Y0083800D01*
X0417830Y0083908D01*
X0418489Y0084122D01*
X0419106Y0084437D01*
X0419666Y0084844D01*
X0420156Y0085334D01*
X0420563Y0085894D01*
X0420878Y0086511D01*
X0421092Y0087170D01*
X0421200Y0087854D01*
X0421200Y0090800D01*
X0421200Y0089681D02*
X0421400Y0089681D01*
X0421400Y0088082D02*
X0421200Y0088082D01*
X0420864Y0086484D02*
X0421666Y0086484D01*
X0422478Y0084885D02*
X0419708Y0084885D01*
X0416800Y0084885D02*
X0416800Y0084885D01*
X0416800Y0083800D02*
X0416800Y0090800D01*
X0416800Y0090800D01*
X0412400Y0090800D01*
X0412400Y0087854D01*
X0412508Y0087170D01*
X0412722Y0086511D01*
X0413037Y0085894D01*
X0413444Y0085334D01*
X0413934Y0084844D01*
X0414494Y0084437D01*
X0415111Y0084122D01*
X0415770Y0083908D01*
X0416454Y0083800D01*
X0416800Y0083800D01*
X0416800Y0086484D02*
X0416800Y0086484D01*
X0416800Y0088082D02*
X0416800Y0088082D01*
X0416800Y0089681D02*
X0416800Y0089681D01*
X0416800Y0091279D02*
X0416800Y0091279D01*
X0416800Y0092878D02*
X0416800Y0092878D01*
X0416800Y0094476D02*
X0416800Y0094476D01*
X0416800Y0096075D02*
X0416800Y0096075D01*
X0413305Y0096075D02*
X0411537Y0096075D01*
X0412199Y0094476D02*
X0412523Y0094476D01*
X0412400Y0092878D02*
X0412200Y0092878D01*
X0412200Y0091279D02*
X0412400Y0091279D01*
X0412400Y0089681D02*
X0412200Y0089681D01*
X0412200Y0088082D02*
X0412400Y0088082D01*
X0412736Y0086484D02*
X0411934Y0086484D01*
X0411122Y0084885D02*
X0413892Y0084885D01*
X0409050Y0083287D02*
X0424550Y0083287D01*
X0429050Y0083287D02*
X0434550Y0083287D01*
X0432478Y0084885D02*
X0431122Y0084885D01*
X0439050Y0083287D02*
X0444550Y0083287D01*
X0442478Y0084885D02*
X0441122Y0084885D01*
X0449050Y0083287D02*
X0477200Y0083287D01*
X0477200Y0084885D02*
X0451122Y0084885D01*
X0451934Y0086484D02*
X0477200Y0086484D01*
X0477200Y0088082D02*
X0452200Y0088082D01*
X0452200Y0089681D02*
X0477200Y0089681D01*
X0477200Y0091279D02*
X0452200Y0091279D01*
X0452200Y0092878D02*
X0477200Y0092878D01*
X0477200Y0094476D02*
X0452199Y0094476D01*
X0451537Y0096075D02*
X0477200Y0096075D01*
X0477200Y0097673D02*
X0450163Y0097673D01*
X0443437Y0097673D02*
X0440163Y0097673D01*
X0441537Y0096075D02*
X0442063Y0096075D01*
X0433437Y0097673D02*
X0430163Y0097673D01*
X0431537Y0096075D02*
X0432063Y0096075D01*
X0404550Y0083287D02*
X0399050Y0083287D01*
X0401122Y0084885D02*
X0402478Y0084885D01*
X0394550Y0083287D02*
X0389050Y0083287D01*
X0391122Y0084885D02*
X0392478Y0084885D01*
X0380586Y0044923D02*
X0371169Y0044923D01*
X0381699Y0043324D02*
X0382185Y0043324D01*
X0354567Y0035332D02*
X0350742Y0035332D01*
X0251800Y0093800D02*
X0251800Y0099800D01*
X0186062Y0126447D02*
X0146314Y0126447D01*
X0144716Y0128045D02*
X0154464Y0128045D01*
X0152865Y0129644D02*
X0143117Y0129644D01*
X0137942Y0131242D02*
X0151267Y0131242D01*
X0147913Y0124848D02*
X0169919Y0124848D01*
X0168320Y0123250D02*
X0149511Y0123250D01*
X0151110Y0121651D02*
X0167900Y0121651D01*
X0167900Y0120053D02*
X0152708Y0120053D01*
X0154307Y0118454D02*
X0168216Y0118454D01*
X0167825Y0116856D02*
X0155905Y0116856D01*
X0172800Y0121651D02*
X0172800Y0121651D01*
X0172800Y0123250D02*
X0172800Y0123250D01*
X0172800Y0124848D02*
X0172800Y0124848D01*
X0164800Y0104800D02*
X0130800Y0104800D01*
X0125800Y0109800D01*
X0125800Y0113800D01*
X0120400Y0113659D02*
X0120200Y0113659D01*
X0120200Y0113800D02*
X0115800Y0113800D01*
X0120200Y0113800D01*
X0120200Y0116746D01*
X0120092Y0117430D01*
X0119907Y0118000D01*
X0120618Y0118000D01*
X0120400Y0117474D01*
X0120400Y0110126D01*
X0121222Y0108141D01*
X0122741Y0106622D01*
X0124697Y0105812D01*
X0127109Y0103400D01*
X0111548Y0103400D01*
X0111343Y0103606D01*
X0109693Y0104289D01*
X0107907Y0104289D01*
X0106257Y0103606D01*
X0104994Y0102343D01*
X0104311Y0100693D01*
X0104311Y0098907D01*
X0104994Y0097257D01*
X0106257Y0095994D01*
X0107692Y0095400D01*
X0076291Y0095400D01*
X0075447Y0096244D01*
X0076717Y0097515D01*
X0077600Y0099646D01*
X0077600Y0101954D01*
X0076717Y0104085D01*
X0075085Y0105717D01*
X0074885Y0105800D01*
X0075085Y0105883D01*
X0076717Y0107515D01*
X0077600Y0109646D01*
X0077600Y0111954D01*
X0076717Y0114085D01*
X0075085Y0115717D01*
X0074885Y0115800D01*
X0075085Y0115883D01*
X0076717Y0117515D01*
X0076918Y0118000D01*
X0111693Y0118000D01*
X0111508Y0117430D01*
X0111400Y0116746D01*
X0111400Y0113800D01*
X0115800Y0113800D01*
X0115800Y0113800D01*
X0115800Y0106800D01*
X0116146Y0106800D01*
X0116830Y0106908D01*
X0117489Y0107122D01*
X0118106Y0107437D01*
X0118666Y0107844D01*
X0119156Y0108334D01*
X0119563Y0108894D01*
X0119878Y0109511D01*
X0120092Y0110170D01*
X0120200Y0110854D01*
X0120200Y0113800D01*
X0120200Y0115257D02*
X0120400Y0115257D01*
X0120400Y0116856D02*
X0120183Y0116856D01*
X0111417Y0116856D02*
X0076058Y0116856D01*
X0075545Y0115257D02*
X0111400Y0115257D01*
X0111400Y0113800D02*
X0111400Y0110854D01*
X0111508Y0110170D01*
X0111722Y0109511D01*
X0112037Y0108894D01*
X0112444Y0108334D01*
X0112934Y0107844D01*
X0113494Y0107437D01*
X0114111Y0107122D01*
X0114770Y0106908D01*
X0115454Y0106800D01*
X0115800Y0106800D01*
X0115800Y0113800D01*
X0115800Y0113800D01*
X0115800Y0113800D01*
X0111400Y0113800D01*
X0111400Y0113659D02*
X0076894Y0113659D01*
X0077556Y0112060D02*
X0111400Y0112060D01*
X0111462Y0110462D02*
X0077600Y0110462D01*
X0077276Y0108863D02*
X0112059Y0108863D01*
X0113832Y0107265D02*
X0076467Y0107265D01*
X0075136Y0105666D02*
X0124843Y0105666D01*
X0126441Y0104068D02*
X0110228Y0104068D01*
X0107372Y0104068D02*
X0076724Y0104068D01*
X0077387Y0102469D02*
X0105121Y0102469D01*
X0104385Y0100870D02*
X0077600Y0100870D01*
X0077445Y0099272D02*
X0104311Y0099272D01*
X0104822Y0097673D02*
X0076783Y0097673D01*
X0075616Y0096075D02*
X0106177Y0096075D01*
X0108800Y0099800D02*
X0164800Y0099800D01*
X0159800Y0091800D02*
X0135841Y0091800D01*
X0074800Y0091800D01*
X0068800Y0097800D01*
X0068800Y0100800D01*
X0067032Y0094476D02*
X0063200Y0094476D01*
X0063200Y0092878D02*
X0068631Y0092878D01*
X0070229Y0091279D02*
X0063200Y0091279D01*
X0063200Y0089681D02*
X0071828Y0089681D01*
X0115800Y0107265D02*
X0115800Y0107265D01*
X0115800Y0108863D02*
X0115800Y0108863D01*
X0115800Y0110462D02*
X0115800Y0110462D01*
X0115800Y0112060D02*
X0115800Y0112060D01*
X0115800Y0113659D02*
X0115800Y0113659D01*
X0120200Y0112060D02*
X0120400Y0112060D01*
X0120400Y0110462D02*
X0120138Y0110462D01*
X0119541Y0108863D02*
X0120923Y0108863D01*
X0122099Y0107265D02*
X0117768Y0107265D01*
D27*
X0108800Y0099800D03*
X0135841Y0091800D03*
X0164800Y0099800D03*
X0164800Y0104800D03*
X0196800Y0099800D03*
X0271800Y0108300D03*
X0286800Y0081800D03*
X0331800Y0106800D03*
X0351800Y0109800D03*
X0349800Y0093800D03*
X0373800Y0060800D03*
X0368800Y0048800D03*
X0349800Y0039800D03*
X0421800Y0014800D03*
X0457800Y0049800D03*
X0427800Y0135800D03*
X0416800Y0152800D03*
X0365800Y0147800D03*
X0351800Y0148800D03*
X0365800Y0136800D03*
X0260800Y0201800D03*
D28*
X0154466Y0110800D02*
X0139466Y0125800D01*
X0119800Y0125800D01*
X0154466Y0110800D02*
X0172800Y0110800D01*
X0186800Y0074800D02*
X0201800Y0074800D01*
X0216800Y0074800D01*
X0231800Y0074800D01*
X0246800Y0074800D01*
X0261800Y0074800D01*
X0276800Y0074800D01*
X0291800Y0074800D01*
X0306800Y0074800D01*
X0321800Y0074800D01*
X0073800Y0125800D02*
X0068800Y0120800D01*
D29*
X0073800Y0125800D02*
X0119800Y0125800D01*
X0172800Y0110800D02*
X0172800Y0088800D01*
X0186800Y0074800D01*
X0168863Y0187863D02*
X0151800Y0187863D01*
X0168863Y0187863D02*
X0185339Y0204339D01*
X0186800Y0205800D02*
X0186800Y0224700D01*
X0188957Y0207957D02*
X0240800Y0207957D01*
D30*
X0240800Y0197800D01*
X0248800Y0189800D01*
X0266800Y0189800D01*
X0302800Y0225800D01*
X0313800Y0225800D01*
X0313800Y0235800D02*
X0294800Y0235800D01*
X0260800Y0201800D01*
X0240800Y0207800D02*
X0240800Y0207957D01*
X0228800Y0194800D02*
X0207800Y0194800D01*
X0202800Y0189800D01*
X0202800Y0182800D01*
X0228800Y0194800D02*
X0243800Y0179800D01*
X0253800Y0179800D02*
X0267800Y0165800D01*
X0313839Y0165800D01*
X0321816Y0157824D01*
X0351800Y0148800D02*
X0355800Y0152800D01*
X0416800Y0152800D01*
X0427800Y0135800D02*
X0387800Y0135800D01*
X0367800Y0115800D01*
X0367800Y0107800D01*
X0373800Y0101800D01*
X0373800Y0081800D01*
X0373800Y0060800D01*
X0373800Y0081800D02*
X0331859Y0081800D01*
X0286800Y0081800D01*
X0284800Y0115800D02*
X0360800Y0115800D01*
X0367800Y0115800D01*
X0377737Y0182800D02*
X0337800Y0182800D01*
X0377737Y0182800D02*
X0382800Y0187863D01*
X0188957Y0207957D02*
X0185339Y0204339D01*
X0130300Y0147800D02*
X0070300Y0147800D01*
X0058800Y0136300D01*
X0058800Y0083300D01*
X0064550Y0077550D01*
X0128631Y0077550D01*
X0131800Y0074381D01*
X0131800Y0068800D01*
X0135800Y0138800D02*
X0135800Y0142300D01*
X0130300Y0147800D01*
D31*
X0185339Y0204339D02*
X0186800Y0205800D01*
X0186800Y0224700D02*
X0186900Y0224800D01*
M02*
