G75*
%MOIN*%
%OFA0B0*%
%FSLAX25Y25*%
%IPPOS*%
%LPD*%
%AMOC8*
5,1,8,0,0,1.08239X$1,22.5*
%
%ADD10C,0.01600*%
%ADD11C,0.06000*%
%ADD12OC8,0.05200*%
%ADD13C,0.05200*%
%ADD14C,0.07800*%
%ADD15R,0.06600X0.06600*%
%ADD16C,0.06600*%
%ADD17R,0.06299X0.05118*%
%ADD18C,0.05200*%
%ADD19OC8,0.06300*%
%ADD20C,0.06300*%
%ADD21C,0.17000*%
%ADD22R,0.07400X0.07400*%
%ADD23C,0.07400*%
%ADD24C,0.00000*%
%ADD25C,0.07600*%
%ADD26R,0.07600X0.07600*%
%ADD27OC8,0.06200*%
%ADD28C,0.06200*%
%ADD29R,0.03937X0.06299*%
%ADD30R,0.21260X0.24409*%
%ADD31R,0.05118X0.06299*%
%ADD32C,0.03378*%
%ADD33C,0.03200*%
%ADD34C,0.10000*%
%ADD35C,0.05000*%
%ADD36C,0.01200*%
D10*
X0001800Y0001800D02*
X0572800Y0001800D01*
X0572800Y0251800D01*
X0001800Y0251800D01*
X0001800Y0001800D01*
X0006800Y0006800D02*
X0006800Y0246800D01*
X0567800Y0246800D01*
X0567800Y0006800D01*
X0006800Y0006800D01*
X0006800Y0008157D02*
X0567800Y0008157D01*
X0567800Y0009755D02*
X0006800Y0009755D01*
X0006800Y0011354D02*
X0418898Y0011354D01*
X0419257Y0010994D02*
X0420907Y0010311D01*
X0422693Y0010311D01*
X0424343Y0010994D01*
X0425606Y0012257D01*
X0426289Y0013907D01*
X0426289Y0015693D01*
X0425606Y0017343D01*
X0425400Y0017548D01*
X0425400Y0061516D01*
X0424852Y0062839D01*
X0416852Y0070839D01*
X0415839Y0071852D01*
X0414516Y0072400D01*
X0398497Y0072400D01*
X0398323Y0072819D01*
X0397536Y0073607D01*
X0396507Y0074033D01*
X0389093Y0074033D01*
X0388064Y0073607D01*
X0387863Y0073405D01*
X0387536Y0073733D01*
X0386507Y0074159D01*
X0379093Y0074159D01*
X0378064Y0073733D01*
X0377277Y0072945D01*
X0377051Y0072400D01*
X0371291Y0072400D01*
X0368400Y0075291D01*
X0368400Y0095516D01*
X0367852Y0096839D01*
X0356852Y0107839D01*
X0356141Y0108550D01*
X0356289Y0108907D01*
X0356289Y0110693D01*
X0355606Y0112343D01*
X0355400Y0112548D01*
X0355400Y0113289D01*
X0355756Y0112430D01*
X0357430Y0110756D01*
X0359616Y0109850D01*
X0361984Y0109850D01*
X0364170Y0110756D01*
X0365844Y0112430D01*
X0366750Y0114616D01*
X0366750Y0116984D01*
X0365844Y0119170D01*
X0364170Y0120844D01*
X0363233Y0121232D01*
X0365750Y0123750D01*
X0365750Y0125800D01*
X0365750Y0127850D01*
X0362850Y0130750D01*
X0360841Y0130750D01*
X0363171Y0133080D01*
X0363257Y0132994D01*
X0364907Y0132311D01*
X0366693Y0132311D01*
X0368343Y0132994D01*
X0369606Y0134257D01*
X0370289Y0135907D01*
X0370289Y0137693D01*
X0369665Y0139200D01*
X0395516Y0139200D01*
X0396839Y0139748D01*
X0397852Y0140761D01*
X0416052Y0158961D01*
X0416600Y0160284D01*
X0416600Y0187100D01*
X0417154Y0187100D01*
X0419285Y0187983D01*
X0420917Y0189615D01*
X0421800Y0191746D01*
X0421800Y0194054D01*
X0420917Y0196185D01*
X0419285Y0197817D01*
X0417154Y0198700D01*
X0408846Y0198700D01*
X0406715Y0197817D01*
X0405083Y0196185D01*
X0404200Y0194054D01*
X0404200Y0191746D01*
X0405083Y0189615D01*
X0406715Y0187983D01*
X0408846Y0187100D01*
X0409400Y0187100D01*
X0409400Y0162491D01*
X0393309Y0146400D01*
X0370079Y0146400D01*
X0370289Y0146907D01*
X0370289Y0148693D01*
X0369606Y0150343D01*
X0369400Y0150548D01*
X0369400Y0154941D01*
X0369507Y0154941D01*
X0370536Y0155367D01*
X0371323Y0156155D01*
X0371750Y0157184D01*
X0371750Y0163416D01*
X0371323Y0164445D01*
X0370750Y0165019D01*
X0370750Y0167301D01*
X0366280Y0167301D01*
X0366280Y0168260D01*
X0370750Y0168260D01*
X0370750Y0170576D01*
X0370627Y0171034D01*
X0370390Y0171445D01*
X0370055Y0171780D01*
X0369644Y0172017D01*
X0369187Y0172139D01*
X0366280Y0172139D01*
X0366280Y0168260D01*
X0365320Y0168260D01*
X0365320Y0172139D01*
X0362413Y0172139D01*
X0361956Y0172017D01*
X0361545Y0171780D01*
X0361478Y0171713D01*
X0361423Y0171845D01*
X0360636Y0172633D01*
X0360300Y0172772D01*
X0360300Y0178400D01*
X0376590Y0178400D01*
X0378438Y0177333D01*
X0381312Y0176563D01*
X0384288Y0176563D01*
X0387162Y0177333D01*
X0389738Y0178821D01*
X0391842Y0180925D01*
X0393330Y0183501D01*
X0394100Y0186375D01*
X0394100Y0189351D01*
X0393330Y0192225D01*
X0391842Y0194801D01*
X0389738Y0196905D01*
X0387162Y0198393D01*
X0384288Y0199163D01*
X0381312Y0199163D01*
X0378438Y0198393D01*
X0375862Y0196905D01*
X0373758Y0194801D01*
X0372270Y0192225D01*
X0371500Y0189351D01*
X0371500Y0187200D01*
X0356623Y0187200D01*
X0354200Y0189623D01*
X0354200Y0197620D01*
X0354383Y0196818D01*
X0354765Y0195726D01*
X0355267Y0194684D01*
X0355883Y0193704D01*
X0356604Y0192800D01*
X0357422Y0191982D01*
X0358326Y0191260D01*
X0359306Y0190645D01*
X0360348Y0190143D01*
X0361440Y0189761D01*
X0362568Y0189504D01*
X0363496Y0189399D01*
X0363496Y0198874D01*
X0354118Y0198874D01*
X0353530Y0200292D01*
X0352292Y0201530D01*
X0343568Y0210254D01*
X0345085Y0210883D01*
X0346717Y0212515D01*
X0347600Y0214646D01*
X0347600Y0216954D01*
X0346717Y0219085D01*
X0345085Y0220717D01*
X0344885Y0220800D01*
X0345085Y0220883D01*
X0346717Y0222515D01*
X0347600Y0224646D01*
X0347600Y0226954D01*
X0346717Y0229085D01*
X0345085Y0230717D01*
X0344885Y0230800D01*
X0345085Y0230883D01*
X0346717Y0232515D01*
X0347600Y0234646D01*
X0347600Y0236954D01*
X0346717Y0239085D01*
X0345085Y0240717D01*
X0342954Y0241600D01*
X0334646Y0241600D01*
X0332515Y0240717D01*
X0330883Y0239085D01*
X0330190Y0237413D01*
X0321760Y0228982D01*
X0321717Y0229085D01*
X0320085Y0230717D01*
X0319885Y0230800D01*
X0320085Y0230883D01*
X0321717Y0232515D01*
X0322600Y0234646D01*
X0322600Y0236954D01*
X0321717Y0239085D01*
X0320085Y0240717D01*
X0317954Y0241600D01*
X0309646Y0241600D01*
X0307515Y0240717D01*
X0305883Y0239085D01*
X0305000Y0236954D01*
X0305000Y0234646D01*
X0305883Y0232515D01*
X0307515Y0230883D01*
X0307715Y0230800D01*
X0307515Y0230717D01*
X0305883Y0229085D01*
X0305000Y0226954D01*
X0305000Y0224646D01*
X0305883Y0222515D01*
X0307515Y0220883D01*
X0307715Y0220800D01*
X0307515Y0220717D01*
X0305883Y0219085D01*
X0305000Y0216954D01*
X0305000Y0214646D01*
X0305883Y0212515D01*
X0307515Y0210883D01*
X0309646Y0210000D01*
X0317954Y0210000D01*
X0319400Y0210599D01*
X0319400Y0189623D01*
X0316977Y0187200D01*
X0314815Y0187200D01*
X0314170Y0187844D01*
X0313233Y0188233D01*
X0315750Y0190750D01*
X0315750Y0192800D01*
X0315750Y0194850D01*
X0312850Y0197750D01*
X0310800Y0197750D01*
X0310800Y0192800D01*
X0310800Y0192800D01*
X0315750Y0192800D01*
X0310800Y0192800D01*
X0310800Y0192800D01*
X0310800Y0192800D01*
X0305850Y0192800D01*
X0305850Y0194850D01*
X0308750Y0197750D01*
X0310800Y0197750D01*
X0310800Y0192800D01*
X0305850Y0192800D01*
X0305850Y0190750D01*
X0308367Y0188233D01*
X0307430Y0187844D01*
X0306785Y0187200D01*
X0298623Y0187200D01*
X0292176Y0193646D01*
X0292176Y0197306D01*
X0292545Y0198196D01*
X0292545Y0205609D01*
X0292119Y0206638D01*
X0291331Y0207426D01*
X0290302Y0207852D01*
X0285251Y0207852D01*
X0284222Y0207426D01*
X0283434Y0206638D01*
X0283008Y0205609D01*
X0283008Y0198196D01*
X0283376Y0197306D01*
X0283376Y0190948D01*
X0284046Y0189331D01*
X0293070Y0180308D01*
X0294308Y0179070D01*
X0295925Y0178400D01*
X0306785Y0178400D01*
X0307430Y0177756D01*
X0309616Y0176850D01*
X0311984Y0176850D01*
X0314170Y0177756D01*
X0314815Y0178400D01*
X0319675Y0178400D01*
X0321292Y0179070D01*
X0324400Y0182177D01*
X0324400Y0172925D01*
X0325070Y0171308D01*
X0332054Y0164324D01*
X0330523Y0164324D01*
X0328134Y0163334D01*
X0326816Y0162016D01*
X0325498Y0163334D01*
X0323109Y0164324D01*
X0320523Y0164324D01*
X0318134Y0163334D01*
X0316816Y0162016D01*
X0315498Y0163334D01*
X0313109Y0164324D01*
X0310523Y0164324D01*
X0308134Y0163334D01*
X0306816Y0162016D01*
X0305498Y0163334D01*
X0303109Y0164324D01*
X0300523Y0164324D01*
X0298134Y0163334D01*
X0296816Y0162016D01*
X0295498Y0163334D01*
X0293109Y0164324D01*
X0290523Y0164324D01*
X0288134Y0163334D01*
X0286816Y0162016D01*
X0285498Y0163334D01*
X0283109Y0164324D01*
X0280523Y0164324D01*
X0278134Y0163334D01*
X0276816Y0162016D01*
X0275498Y0163334D01*
X0273109Y0164324D01*
X0270523Y0164324D01*
X0268134Y0163334D01*
X0266816Y0162016D01*
X0265498Y0163334D01*
X0263109Y0164324D01*
X0260523Y0164324D01*
X0258134Y0163334D01*
X0256816Y0162016D01*
X0255498Y0163334D01*
X0253109Y0164324D01*
X0250523Y0164324D01*
X0248134Y0163334D01*
X0246816Y0162016D01*
X0245498Y0163334D01*
X0243109Y0164324D01*
X0240523Y0164324D01*
X0238134Y0163334D01*
X0236816Y0162016D01*
X0235498Y0163334D01*
X0233109Y0164324D01*
X0230523Y0164324D01*
X0228134Y0163334D01*
X0226305Y0161506D01*
X0226172Y0161184D01*
X0226011Y0161407D01*
X0225399Y0162019D01*
X0224698Y0162528D01*
X0223927Y0162921D01*
X0223104Y0163188D01*
X0222249Y0163324D01*
X0222016Y0163324D01*
X0222016Y0158024D01*
X0221616Y0158024D01*
X0221616Y0163324D01*
X0221383Y0163324D01*
X0220528Y0163188D01*
X0219704Y0162921D01*
X0218933Y0162528D01*
X0218233Y0162019D01*
X0217621Y0161407D01*
X0217459Y0161184D01*
X0217326Y0161506D01*
X0215498Y0163334D01*
X0213109Y0164324D01*
X0210523Y0164324D01*
X0208134Y0163334D01*
X0206816Y0162016D01*
X0205498Y0163334D01*
X0205416Y0163368D01*
X0205416Y0164325D01*
X0214839Y0173748D01*
X0215852Y0174761D01*
X0216400Y0176084D01*
X0216400Y0176163D01*
X0217378Y0177141D01*
X0218200Y0179126D01*
X0218200Y0186474D01*
X0217378Y0188459D01*
X0215859Y0189978D01*
X0213874Y0190800D01*
X0211726Y0190800D01*
X0209741Y0189978D01*
X0208222Y0188459D01*
X0207800Y0187440D01*
X0207378Y0188459D01*
X0205859Y0189978D01*
X0203874Y0190800D01*
X0201726Y0190800D01*
X0199741Y0189978D01*
X0198222Y0188459D01*
X0197701Y0187200D01*
X0184925Y0187200D01*
X0183308Y0186530D01*
X0182070Y0185292D01*
X0170070Y0173292D01*
X0169400Y0171675D01*
X0169400Y0143200D01*
X0140899Y0143200D01*
X0140378Y0144459D01*
X0138859Y0145978D01*
X0136874Y0146800D01*
X0134726Y0146800D01*
X0132741Y0145978D01*
X0131222Y0144459D01*
X0130800Y0143440D01*
X0130378Y0144459D01*
X0128859Y0145978D01*
X0126874Y0146800D01*
X0124726Y0146800D01*
X0122741Y0145978D01*
X0121222Y0144459D01*
X0120400Y0142474D01*
X0120400Y0135126D01*
X0121222Y0133141D01*
X0122741Y0131622D01*
X0124726Y0130800D01*
X0126874Y0130800D01*
X0128171Y0131337D01*
X0131761Y0127748D01*
X0133084Y0127200D01*
X0147994Y0127200D01*
X0147850Y0126853D01*
X0147850Y0120621D01*
X0148277Y0119592D01*
X0148926Y0118942D01*
X0148850Y0118659D01*
X0148850Y0116343D01*
X0153320Y0116343D01*
X0153320Y0115383D01*
X0154280Y0115383D01*
X0154280Y0116343D01*
X0158750Y0116343D01*
X0158750Y0118659D01*
X0158674Y0118942D01*
X0159323Y0119592D01*
X0159750Y0120621D01*
X0159750Y0126853D01*
X0159606Y0127200D01*
X0169309Y0127200D01*
X0170809Y0125700D01*
X0170770Y0125700D01*
X0167900Y0122830D01*
X0167900Y0120800D01*
X0172800Y0120800D01*
X0172800Y0120800D01*
X0167900Y0120800D01*
X0167900Y0118770D01*
X0170455Y0116215D01*
X0169458Y0115802D01*
X0167798Y0114142D01*
X0166900Y0111974D01*
X0166900Y0109626D01*
X0167319Y0108616D01*
X0165693Y0109289D01*
X0163907Y0109289D01*
X0162257Y0108606D01*
X0160994Y0107343D01*
X0160311Y0105693D01*
X0160311Y0103907D01*
X0160977Y0102300D01*
X0160311Y0100693D01*
X0160311Y0098907D01*
X0160994Y0097257D01*
X0162257Y0095994D01*
X0163907Y0095311D01*
X0165693Y0095311D01*
X0167343Y0095994D01*
X0167548Y0096200D01*
X0194052Y0096200D01*
X0194257Y0095994D01*
X0195907Y0095311D01*
X0197693Y0095311D01*
X0199343Y0095994D01*
X0200606Y0097257D01*
X0201289Y0098907D01*
X0201289Y0100693D01*
X0201079Y0101200D01*
X0307309Y0101200D01*
X0308200Y0100309D01*
X0308200Y0098827D01*
X0306800Y0097427D01*
X0305255Y0098971D01*
X0303013Y0099900D01*
X0300587Y0099900D01*
X0298345Y0098971D01*
X0296800Y0097427D01*
X0295255Y0098971D01*
X0293013Y0099900D01*
X0290587Y0099900D01*
X0288345Y0098971D01*
X0286629Y0097255D01*
X0286241Y0096318D01*
X0286162Y0096473D01*
X0285690Y0097122D01*
X0285122Y0097690D01*
X0284473Y0098162D01*
X0283758Y0098526D01*
X0282994Y0098774D01*
X0282201Y0098900D01*
X0282100Y0098900D01*
X0282100Y0094100D01*
X0281500Y0094100D01*
X0281500Y0098900D01*
X0281399Y0098900D01*
X0280606Y0098774D01*
X0279842Y0098526D01*
X0279127Y0098162D01*
X0278478Y0097690D01*
X0277910Y0097122D01*
X0277438Y0096473D01*
X0277359Y0096318D01*
X0276971Y0097255D01*
X0275255Y0098971D01*
X0273013Y0099900D01*
X0270587Y0099900D01*
X0268345Y0098971D01*
X0266800Y0097427D01*
X0265255Y0098971D01*
X0263013Y0099900D01*
X0260587Y0099900D01*
X0258345Y0098971D01*
X0256800Y0097427D01*
X0255255Y0098971D01*
X0253013Y0099900D01*
X0250587Y0099900D01*
X0248345Y0098971D01*
X0246800Y0097427D01*
X0245255Y0098971D01*
X0243013Y0099900D01*
X0240587Y0099900D01*
X0238345Y0098971D01*
X0236800Y0097427D01*
X0235255Y0098971D01*
X0233013Y0099900D01*
X0230587Y0099900D01*
X0228345Y0098971D01*
X0226800Y0097427D01*
X0225255Y0098971D01*
X0223013Y0099900D01*
X0220587Y0099900D01*
X0218345Y0098971D01*
X0216800Y0097427D01*
X0215255Y0098971D01*
X0213013Y0099900D01*
X0210587Y0099900D01*
X0208345Y0098971D01*
X0206629Y0097255D01*
X0205700Y0095013D01*
X0205700Y0092587D01*
X0206606Y0090400D01*
X0140120Y0090400D01*
X0140330Y0090907D01*
X0140330Y0092693D01*
X0139646Y0094343D01*
X0139441Y0094548D01*
X0139441Y0107204D01*
X0140378Y0108141D01*
X0141200Y0110126D01*
X0141200Y0117474D01*
X0140378Y0119459D01*
X0138859Y0120978D01*
X0136874Y0121800D01*
X0134726Y0121800D01*
X0132741Y0120978D01*
X0131222Y0119459D01*
X0130800Y0118440D01*
X0130378Y0119459D01*
X0128859Y0120978D01*
X0126874Y0121800D01*
X0124726Y0121800D01*
X0122741Y0120978D01*
X0121222Y0119459D01*
X0120400Y0117474D01*
X0120400Y0110126D01*
X0121222Y0108141D01*
X0122741Y0106622D01*
X0124726Y0105800D01*
X0126874Y0105800D01*
X0128859Y0106622D01*
X0130378Y0108141D01*
X0130800Y0109160D01*
X0131222Y0108141D01*
X0132241Y0107122D01*
X0132241Y0094548D01*
X0132035Y0094343D01*
X0131352Y0092693D01*
X0131352Y0090907D01*
X0131562Y0090400D01*
X0127084Y0090400D01*
X0125761Y0089852D01*
X0119761Y0083852D01*
X0118748Y0082839D01*
X0118200Y0081516D01*
X0118200Y0074344D01*
X0118118Y0074310D01*
X0116290Y0072482D01*
X0115300Y0070093D01*
X0115300Y0067507D01*
X0116290Y0065118D01*
X0117608Y0063800D01*
X0116290Y0062482D01*
X0115300Y0060093D01*
X0115300Y0057507D01*
X0116290Y0055118D01*
X0117608Y0053800D01*
X0116290Y0052482D01*
X0115300Y0050093D01*
X0115300Y0047507D01*
X0116290Y0045118D01*
X0117608Y0043800D01*
X0116290Y0042482D01*
X0116266Y0042425D01*
X0112400Y0046291D01*
X0112400Y0097052D01*
X0112606Y0097257D01*
X0113289Y0098907D01*
X0113289Y0100693D01*
X0112606Y0102343D01*
X0111343Y0103606D01*
X0109693Y0104289D01*
X0107907Y0104289D01*
X0106257Y0103606D01*
X0104994Y0102343D01*
X0104311Y0100693D01*
X0104311Y0098907D01*
X0104994Y0097257D01*
X0105200Y0097052D01*
X0105200Y0044084D01*
X0105748Y0042761D01*
X0106761Y0041748D01*
X0112761Y0035748D01*
X0114084Y0035200D01*
X0116256Y0035200D01*
X0116290Y0035118D01*
X0117608Y0033800D01*
X0116290Y0032482D01*
X0115300Y0030093D01*
X0115300Y0027507D01*
X0116290Y0025118D01*
X0118118Y0023290D01*
X0120507Y0022300D01*
X0123093Y0022300D01*
X0123175Y0022334D01*
X0127761Y0017748D01*
X0006800Y0017748D01*
X0006800Y0019346D02*
X0126162Y0019346D01*
X0127761Y0017748D02*
X0129084Y0017200D01*
X0138516Y0017200D01*
X0139839Y0017748D01*
X0418200Y0017748D01*
X0418200Y0017548D02*
X0417994Y0017343D01*
X0417311Y0015693D01*
X0417311Y0013907D01*
X0417994Y0012257D01*
X0419257Y0010994D01*
X0417706Y0012952D02*
X0006800Y0012952D01*
X0006800Y0014551D02*
X0417311Y0014551D01*
X0417500Y0016149D02*
X0006800Y0016149D01*
X0006800Y0020945D02*
X0124564Y0020945D01*
X0119919Y0022543D02*
X0006800Y0022543D01*
X0006800Y0024142D02*
X0117266Y0024142D01*
X0116032Y0025740D02*
X0006800Y0025740D01*
X0006800Y0027339D02*
X0115370Y0027339D01*
X0115300Y0028937D02*
X0006800Y0028937D01*
X0006800Y0030536D02*
X0115484Y0030536D01*
X0116146Y0032134D02*
X0006800Y0032134D01*
X0006800Y0033733D02*
X0117541Y0033733D01*
X0113766Y0035332D02*
X0006800Y0035332D01*
X0006800Y0036930D02*
X0111579Y0036930D01*
X0109980Y0038529D02*
X0006800Y0038529D01*
X0006800Y0040127D02*
X0108382Y0040127D01*
X0106783Y0041726D02*
X0006800Y0041726D01*
X0006800Y0043324D02*
X0105515Y0043324D01*
X0105200Y0044923D02*
X0006800Y0044923D01*
X0006800Y0046521D02*
X0105200Y0046521D01*
X0105200Y0048120D02*
X0006800Y0048120D01*
X0006800Y0049718D02*
X0105200Y0049718D01*
X0105200Y0051317D02*
X0006800Y0051317D01*
X0006800Y0052915D02*
X0105200Y0052915D01*
X0105200Y0054514D02*
X0057045Y0054514D01*
X0056718Y0054187D02*
X0058913Y0056382D01*
X0060100Y0059248D01*
X0060100Y0062352D01*
X0058913Y0065218D01*
X0056718Y0067413D01*
X0053852Y0068600D01*
X0050748Y0068600D01*
X0047882Y0067413D01*
X0045687Y0065218D01*
X0044500Y0062352D01*
X0044500Y0059248D01*
X0045687Y0056382D01*
X0047882Y0054187D01*
X0050748Y0053000D01*
X0053852Y0053000D01*
X0056718Y0054187D01*
X0058643Y0056112D02*
X0105200Y0056112D01*
X0105200Y0057711D02*
X0059463Y0057711D01*
X0060100Y0059309D02*
X0105200Y0059309D01*
X0105200Y0060908D02*
X0060100Y0060908D01*
X0060036Y0062506D02*
X0105200Y0062506D01*
X0105200Y0064105D02*
X0059374Y0064105D01*
X0058428Y0065703D02*
X0105200Y0065703D01*
X0105200Y0067302D02*
X0056829Y0067302D01*
X0047771Y0067302D02*
X0006800Y0067302D01*
X0006800Y0068900D02*
X0105200Y0068900D01*
X0105200Y0070499D02*
X0006800Y0070499D01*
X0006800Y0072097D02*
X0105200Y0072097D01*
X0105200Y0073696D02*
X0006800Y0073696D01*
X0006800Y0075294D02*
X0105200Y0075294D01*
X0105200Y0076893D02*
X0006800Y0076893D01*
X0006800Y0078491D02*
X0105200Y0078491D01*
X0105200Y0080090D02*
X0006800Y0080090D01*
X0006800Y0081688D02*
X0105200Y0081688D01*
X0105200Y0083287D02*
X0006800Y0083287D01*
X0006800Y0084885D02*
X0105200Y0084885D01*
X0105200Y0086484D02*
X0006800Y0086484D01*
X0006800Y0088082D02*
X0105200Y0088082D01*
X0105200Y0089681D02*
X0006800Y0089681D01*
X0006800Y0091279D02*
X0105200Y0091279D01*
X0105200Y0092878D02*
X0006800Y0092878D01*
X0006800Y0094476D02*
X0105200Y0094476D01*
X0105200Y0096075D02*
X0075277Y0096075D01*
X0075085Y0095883D02*
X0076717Y0097515D01*
X0077600Y0099646D01*
X0077600Y0101954D01*
X0076717Y0104085D01*
X0075085Y0105717D01*
X0074885Y0105800D01*
X0075085Y0105883D01*
X0076717Y0107515D01*
X0077600Y0109646D01*
X0077600Y0111954D01*
X0076717Y0114085D01*
X0075085Y0115717D01*
X0074885Y0115800D01*
X0075085Y0115883D01*
X0076717Y0117515D01*
X0077600Y0119646D01*
X0077600Y0121954D01*
X0076717Y0124085D01*
X0075085Y0125717D01*
X0072954Y0126600D01*
X0064646Y0126600D01*
X0062515Y0125717D01*
X0060883Y0124085D01*
X0060000Y0121954D01*
X0060000Y0119646D01*
X0060657Y0118059D01*
X0059352Y0118600D01*
X0054031Y0118600D01*
X0045600Y0127031D01*
X0045600Y0156593D01*
X0045687Y0156382D01*
X0047882Y0154187D01*
X0050748Y0153000D01*
X0053852Y0153000D01*
X0056718Y0154187D01*
X0058913Y0156382D01*
X0060100Y0159248D01*
X0060100Y0162352D01*
X0058913Y0165218D01*
X0056718Y0167413D01*
X0053852Y0168600D01*
X0050748Y0168600D01*
X0050548Y0168517D01*
X0056031Y0174000D01*
X0132200Y0174000D01*
X0132200Y0170437D01*
X0131222Y0169459D01*
X0130800Y0168440D01*
X0130378Y0169459D01*
X0128859Y0170978D01*
X0126874Y0171800D01*
X0124726Y0171800D01*
X0122741Y0170978D01*
X0121222Y0169459D01*
X0120400Y0167474D01*
X0120400Y0160126D01*
X0121222Y0158141D01*
X0122741Y0156622D01*
X0124726Y0155800D01*
X0126874Y0155800D01*
X0128859Y0156622D01*
X0130378Y0158141D01*
X0130800Y0159160D01*
X0131222Y0158141D01*
X0132741Y0156622D01*
X0134726Y0155800D01*
X0136874Y0155800D01*
X0138859Y0156622D01*
X0140378Y0158141D01*
X0141200Y0160126D01*
X0141200Y0167474D01*
X0140378Y0169459D01*
X0139400Y0170437D01*
X0139400Y0174000D01*
X0147289Y0174000D01*
X0150155Y0175187D01*
X0151531Y0176563D01*
X0153288Y0176563D01*
X0156162Y0177333D01*
X0158738Y0178821D01*
X0160842Y0180925D01*
X0162330Y0183501D01*
X0163100Y0186375D01*
X0163100Y0189351D01*
X0162330Y0192225D01*
X0160842Y0194801D01*
X0158738Y0196905D01*
X0156162Y0198393D01*
X0153288Y0199163D01*
X0150312Y0199163D01*
X0147438Y0198393D01*
X0144862Y0196905D01*
X0142758Y0194801D01*
X0141270Y0192225D01*
X0140567Y0189600D01*
X0135447Y0189600D01*
X0136152Y0189761D01*
X0137244Y0190143D01*
X0138286Y0190645D01*
X0139266Y0191260D01*
X0140170Y0191982D01*
X0140988Y0192800D01*
X0141710Y0193704D01*
X0142325Y0194684D01*
X0142827Y0195726D01*
X0143209Y0196818D01*
X0143467Y0197946D01*
X0143571Y0198874D01*
X0134096Y0198874D01*
X0134096Y0200474D01*
X0132496Y0200474D01*
X0132496Y0198874D01*
X0123021Y0198874D01*
X0123126Y0197946D01*
X0123383Y0196818D01*
X0123765Y0195726D01*
X0124267Y0194684D01*
X0124883Y0193704D01*
X0125604Y0192800D01*
X0126422Y0191982D01*
X0127326Y0191260D01*
X0128306Y0190645D01*
X0129348Y0190143D01*
X0130440Y0189761D01*
X0131146Y0189600D01*
X0051248Y0189600D01*
X0048382Y0188413D01*
X0046187Y0186218D01*
X0033382Y0173413D01*
X0031187Y0171218D01*
X0030000Y0168352D01*
X0030000Y0122248D01*
X0031187Y0119382D01*
X0046382Y0104187D01*
X0049248Y0103000D01*
X0059352Y0103000D01*
X0060657Y0103541D01*
X0060000Y0101954D01*
X0060000Y0099646D01*
X0060883Y0097515D01*
X0062515Y0095883D01*
X0064646Y0095000D01*
X0072954Y0095000D01*
X0075085Y0095883D01*
X0076783Y0097673D02*
X0104822Y0097673D01*
X0104311Y0099272D02*
X0077445Y0099272D01*
X0077600Y0100870D02*
X0104385Y0100870D01*
X0105121Y0102469D02*
X0077387Y0102469D01*
X0076724Y0104068D02*
X0107372Y0104068D01*
X0110228Y0104068D02*
X0132241Y0104068D01*
X0132241Y0105666D02*
X0075136Y0105666D01*
X0076467Y0107265D02*
X0113832Y0107265D01*
X0114111Y0107122D02*
X0114770Y0106908D01*
X0115454Y0106800D01*
X0115800Y0106800D01*
X0116146Y0106800D01*
X0116830Y0106908D01*
X0117489Y0107122D01*
X0118106Y0107437D01*
X0118666Y0107844D01*
X0119156Y0108334D01*
X0119563Y0108894D01*
X0119878Y0109511D01*
X0120092Y0110170D01*
X0120200Y0110854D01*
X0120200Y0113800D01*
X0120200Y0116746D01*
X0120092Y0117430D01*
X0119878Y0118089D01*
X0119563Y0118706D01*
X0119156Y0119266D01*
X0118666Y0119756D01*
X0118106Y0120163D01*
X0117489Y0120478D01*
X0116830Y0120692D01*
X0116146Y0120800D01*
X0115800Y0120800D01*
X0115800Y0113800D01*
X0120200Y0113800D01*
X0115800Y0113800D01*
X0115800Y0113800D01*
X0115800Y0113800D01*
X0115800Y0106800D01*
X0115800Y0113800D01*
X0115800Y0113800D01*
X0115800Y0113800D01*
X0111400Y0113800D01*
X0111400Y0116746D01*
X0111508Y0117430D01*
X0111722Y0118089D01*
X0112037Y0118706D01*
X0112444Y0119266D01*
X0112934Y0119756D01*
X0113494Y0120163D01*
X0114111Y0120478D01*
X0114770Y0120692D01*
X0115454Y0120800D01*
X0115800Y0120800D01*
X0115800Y0113800D01*
X0111400Y0113800D01*
X0111400Y0110854D01*
X0111508Y0110170D01*
X0111722Y0109511D01*
X0112037Y0108894D01*
X0112444Y0108334D01*
X0112934Y0107844D01*
X0113494Y0107437D01*
X0114111Y0107122D01*
X0115800Y0107265D02*
X0115800Y0107265D01*
X0115800Y0108863D02*
X0115800Y0108863D01*
X0115800Y0110462D02*
X0115800Y0110462D01*
X0115800Y0112060D02*
X0115800Y0112060D01*
X0115800Y0113659D02*
X0115800Y0113659D01*
X0115800Y0115257D02*
X0115800Y0115257D01*
X0115800Y0116856D02*
X0115800Y0116856D01*
X0115800Y0118454D02*
X0115800Y0118454D01*
X0115800Y0120053D02*
X0115800Y0120053D01*
X0118258Y0120053D02*
X0121816Y0120053D01*
X0120806Y0118454D02*
X0119692Y0118454D01*
X0120183Y0116856D02*
X0120400Y0116856D01*
X0120400Y0115257D02*
X0120200Y0115257D01*
X0120200Y0113659D02*
X0120400Y0113659D01*
X0120400Y0112060D02*
X0120200Y0112060D01*
X0120138Y0110462D02*
X0120400Y0110462D01*
X0120923Y0108863D02*
X0119541Y0108863D01*
X0117768Y0107265D02*
X0122099Y0107265D01*
X0129501Y0107265D02*
X0132099Y0107265D01*
X0130923Y0108863D02*
X0130677Y0108863D01*
X0132241Y0102469D02*
X0112479Y0102469D01*
X0113215Y0100870D02*
X0132241Y0100870D01*
X0132241Y0099272D02*
X0113289Y0099272D01*
X0112778Y0097673D02*
X0132241Y0097673D01*
X0132241Y0096075D02*
X0112400Y0096075D01*
X0112400Y0094476D02*
X0132169Y0094476D01*
X0131429Y0092878D02*
X0112400Y0092878D01*
X0112400Y0091279D02*
X0131352Y0091279D01*
X0135841Y0091800D02*
X0135841Y0113759D01*
X0135800Y0113800D01*
X0141200Y0113659D02*
X0148850Y0113659D01*
X0148850Y0113067D02*
X0148973Y0112609D01*
X0149210Y0112199D01*
X0149545Y0111864D01*
X0149956Y0111627D01*
X0150413Y0111504D01*
X0153320Y0111504D01*
X0153320Y0115383D01*
X0148850Y0115383D01*
X0148850Y0113067D01*
X0149349Y0112060D02*
X0141200Y0112060D01*
X0141200Y0110462D02*
X0166900Y0110462D01*
X0166936Y0112060D02*
X0158251Y0112060D01*
X0158390Y0112199D02*
X0158627Y0112609D01*
X0158750Y0113067D01*
X0158750Y0115383D01*
X0154280Y0115383D01*
X0154280Y0111504D01*
X0157187Y0111504D01*
X0157644Y0111627D01*
X0158055Y0111864D01*
X0158390Y0112199D01*
X0158750Y0113659D02*
X0167598Y0113659D01*
X0168913Y0115257D02*
X0158750Y0115257D01*
X0158750Y0116856D02*
X0169815Y0116856D01*
X0168216Y0118454D02*
X0158750Y0118454D01*
X0159514Y0120053D02*
X0167900Y0120053D01*
X0167900Y0121651D02*
X0159750Y0121651D01*
X0159750Y0123250D02*
X0168320Y0123250D01*
X0169919Y0124848D02*
X0159750Y0124848D01*
X0159750Y0126447D02*
X0170062Y0126447D01*
X0170800Y0130800D02*
X0153346Y0130800D01*
X0153800Y0130346D01*
X0153800Y0123737D01*
X0147850Y0123250D02*
X0077063Y0123250D01*
X0077600Y0121651D02*
X0124366Y0121651D01*
X0127234Y0121651D02*
X0134366Y0121651D01*
X0137234Y0121651D02*
X0147850Y0121651D01*
X0148086Y0120053D02*
X0139784Y0120053D01*
X0140794Y0118454D02*
X0148850Y0118454D01*
X0148850Y0116856D02*
X0141200Y0116856D01*
X0141200Y0115257D02*
X0148850Y0115257D01*
X0153320Y0115257D02*
X0154280Y0115257D01*
X0154280Y0113659D02*
X0153320Y0113659D01*
X0153320Y0112060D02*
X0154280Y0112060D01*
X0160962Y0107265D02*
X0139501Y0107265D01*
X0139441Y0105666D02*
X0160311Y0105666D01*
X0160311Y0104068D02*
X0139441Y0104068D01*
X0139441Y0102469D02*
X0160907Y0102469D01*
X0160385Y0100870D02*
X0139441Y0100870D01*
X0139441Y0099272D02*
X0160311Y0099272D01*
X0160822Y0097673D02*
X0139441Y0097673D01*
X0139441Y0096075D02*
X0162177Y0096075D01*
X0167423Y0096075D02*
X0194177Y0096075D01*
X0199423Y0096075D02*
X0206140Y0096075D01*
X0205700Y0094476D02*
X0139513Y0094476D01*
X0140253Y0092878D02*
X0205700Y0092878D01*
X0206241Y0091279D02*
X0140330Y0091279D01*
X0127800Y0086800D02*
X0121800Y0080800D01*
X0121800Y0068800D01*
X0115300Y0068900D02*
X0112400Y0068900D01*
X0112400Y0067302D02*
X0115385Y0067302D01*
X0116047Y0065703D02*
X0112400Y0065703D01*
X0112400Y0064105D02*
X0117303Y0064105D01*
X0116314Y0062506D02*
X0112400Y0062506D01*
X0112400Y0060908D02*
X0115637Y0060908D01*
X0115300Y0059309D02*
X0112400Y0059309D01*
X0112400Y0057711D02*
X0115300Y0057711D01*
X0115878Y0056112D02*
X0112400Y0056112D01*
X0112400Y0054514D02*
X0116894Y0054514D01*
X0116723Y0052915D02*
X0112400Y0052915D01*
X0112400Y0051317D02*
X0115807Y0051317D01*
X0115300Y0049718D02*
X0112400Y0049718D01*
X0112400Y0048120D02*
X0115300Y0048120D01*
X0115708Y0046521D02*
X0112400Y0046521D01*
X0113769Y0044923D02*
X0116485Y0044923D01*
X0117132Y0043324D02*
X0115367Y0043324D01*
X0114800Y0038800D02*
X0108800Y0044800D01*
X0108800Y0099800D01*
X0112059Y0108863D02*
X0077276Y0108863D01*
X0077600Y0110462D02*
X0111462Y0110462D01*
X0111400Y0112060D02*
X0077556Y0112060D01*
X0076894Y0113659D02*
X0111400Y0113659D01*
X0111400Y0115257D02*
X0075545Y0115257D01*
X0076058Y0116856D02*
X0111417Y0116856D01*
X0111908Y0118454D02*
X0077106Y0118454D01*
X0077600Y0120053D02*
X0113342Y0120053D01*
X0129784Y0120053D02*
X0131816Y0120053D01*
X0130806Y0118454D02*
X0130794Y0118454D01*
X0147850Y0124848D02*
X0075954Y0124848D01*
X0073324Y0126447D02*
X0147850Y0126447D01*
X0153346Y0130800D02*
X0133800Y0130800D01*
X0125800Y0138800D01*
X0120400Y0139235D02*
X0120200Y0139235D01*
X0120200Y0138800D02*
X0120200Y0141746D01*
X0120092Y0142430D01*
X0119878Y0143089D01*
X0119563Y0143706D01*
X0119156Y0144266D01*
X0118666Y0144756D01*
X0118106Y0145163D01*
X0117489Y0145478D01*
X0116830Y0145692D01*
X0116146Y0145800D01*
X0115800Y0145800D01*
X0115800Y0138800D01*
X0120200Y0138800D01*
X0115800Y0138800D01*
X0115800Y0138800D01*
X0115800Y0138800D01*
X0115800Y0131800D01*
X0116146Y0131800D01*
X0116830Y0131908D01*
X0117489Y0132122D01*
X0118106Y0132437D01*
X0118666Y0132844D01*
X0119156Y0133334D01*
X0119563Y0133894D01*
X0119878Y0134511D01*
X0120092Y0135170D01*
X0120200Y0135854D01*
X0120200Y0138800D01*
X0120200Y0137636D02*
X0120400Y0137636D01*
X0120400Y0136038D02*
X0120200Y0136038D01*
X0119841Y0134439D02*
X0120684Y0134439D01*
X0121523Y0132841D02*
X0118662Y0132841D01*
X0115800Y0132841D02*
X0115800Y0132841D01*
X0115800Y0131800D02*
X0115800Y0138800D01*
X0115800Y0138800D01*
X0115800Y0138800D01*
X0111400Y0138800D01*
X0111400Y0141746D01*
X0111508Y0142430D01*
X0111722Y0143089D01*
X0112037Y0143706D01*
X0112444Y0144266D01*
X0112934Y0144756D01*
X0113494Y0145163D01*
X0114111Y0145478D01*
X0114770Y0145692D01*
X0115454Y0145800D01*
X0115800Y0145800D01*
X0115800Y0138800D01*
X0111400Y0138800D01*
X0111400Y0135854D01*
X0111508Y0135170D01*
X0111722Y0134511D01*
X0112037Y0133894D01*
X0112444Y0133334D01*
X0112934Y0132844D01*
X0113494Y0132437D01*
X0114111Y0132122D01*
X0114770Y0131908D01*
X0115454Y0131800D01*
X0115800Y0131800D01*
X0112938Y0132841D02*
X0045600Y0132841D01*
X0045600Y0134439D02*
X0111759Y0134439D01*
X0111400Y0136038D02*
X0045600Y0136038D01*
X0045600Y0137636D02*
X0111400Y0137636D01*
X0111400Y0139235D02*
X0045600Y0139235D01*
X0045600Y0140833D02*
X0111400Y0140833D01*
X0111509Y0142432D02*
X0045600Y0142432D01*
X0045600Y0144030D02*
X0112272Y0144030D01*
X0114576Y0145629D02*
X0045600Y0145629D01*
X0045600Y0147227D02*
X0169400Y0147227D01*
X0169400Y0145629D02*
X0139208Y0145629D01*
X0140555Y0144030D02*
X0169400Y0144030D01*
X0173800Y0140792D02*
X0174272Y0140320D01*
X0173800Y0140792D02*
X0173800Y0139041D01*
X0173559Y0138800D01*
X0178200Y0135920D02*
X0186532Y0135920D01*
X0187064Y0135387D01*
X0188093Y0134961D01*
X0195507Y0134961D01*
X0196536Y0135387D01*
X0196853Y0135704D01*
X0197064Y0135493D01*
X0198093Y0135067D01*
X0205507Y0135067D01*
X0206536Y0135493D01*
X0207323Y0136281D01*
X0207750Y0137310D01*
X0207750Y0143542D01*
X0207323Y0144571D01*
X0206674Y0145221D01*
X0206750Y0145504D01*
X0206750Y0147820D01*
X0202280Y0147820D01*
X0202280Y0148780D01*
X0206750Y0148780D01*
X0206750Y0151096D01*
X0206627Y0151554D01*
X0206390Y0151964D01*
X0206055Y0152299D01*
X0205693Y0152508D01*
X0206816Y0153631D01*
X0208134Y0152313D01*
X0210523Y0151324D01*
X0213109Y0151324D01*
X0215498Y0152313D01*
X0217326Y0154142D01*
X0217459Y0154463D01*
X0217621Y0154241D01*
X0218233Y0153628D01*
X0218933Y0153120D01*
X0219704Y0152727D01*
X0220528Y0152459D01*
X0221383Y0152324D01*
X0221616Y0152324D01*
X0221616Y0157624D01*
X0222016Y0157624D01*
X0222016Y0152324D01*
X0222249Y0152324D01*
X0223104Y0152459D01*
X0223927Y0152727D01*
X0224698Y0153120D01*
X0225399Y0153628D01*
X0226011Y0154241D01*
X0226172Y0154463D01*
X0226305Y0154142D01*
X0227914Y0152533D01*
X0225413Y0152533D01*
X0224956Y0152410D01*
X0224545Y0152173D01*
X0224210Y0151838D01*
X0223973Y0151428D01*
X0223850Y0150970D01*
X0223850Y0148654D01*
X0228320Y0148654D01*
X0228320Y0147694D01*
X0223850Y0147694D01*
X0223850Y0145378D01*
X0223926Y0145095D01*
X0223277Y0144445D01*
X0222850Y0143416D01*
X0222850Y0137184D01*
X0223277Y0136155D01*
X0224064Y0135367D01*
X0225093Y0134941D01*
X0232507Y0134941D01*
X0233536Y0135367D01*
X0234323Y0136155D01*
X0234549Y0136700D01*
X0243763Y0136700D01*
X0244700Y0135763D01*
X0244700Y0132584D01*
X0245248Y0131261D01*
X0247941Y0128568D01*
X0246800Y0127427D01*
X0245255Y0128971D01*
X0243013Y0129900D01*
X0240587Y0129900D01*
X0238345Y0128971D01*
X0236800Y0127427D01*
X0235255Y0128971D01*
X0233013Y0129900D01*
X0230587Y0129900D01*
X0228345Y0128971D01*
X0226800Y0127427D01*
X0225255Y0128971D01*
X0223013Y0129900D01*
X0220587Y0129900D01*
X0218345Y0128971D01*
X0216800Y0127427D01*
X0215255Y0128971D01*
X0213013Y0129900D01*
X0210587Y0129900D01*
X0208345Y0128971D01*
X0206629Y0127255D01*
X0205700Y0125013D01*
X0205700Y0122587D01*
X0206629Y0120345D01*
X0206773Y0120200D01*
X0193623Y0120200D01*
X0178200Y0135623D01*
X0178200Y0135920D01*
X0179383Y0134439D02*
X0244700Y0134439D01*
X0244700Y0132841D02*
X0180982Y0132841D01*
X0182580Y0131242D02*
X0245267Y0131242D01*
X0246865Y0129644D02*
X0243632Y0129644D01*
X0246182Y0128045D02*
X0247418Y0128045D01*
X0251800Y0129800D02*
X0251800Y0123800D01*
X0256182Y0128045D02*
X0257418Y0128045D01*
X0256800Y0127427D02*
X0255400Y0128827D01*
X0255400Y0130516D01*
X0254852Y0131839D01*
X0253839Y0132852D01*
X0251900Y0134791D01*
X0251900Y0135763D01*
X0252878Y0136741D01*
X0253700Y0138726D01*
X0253700Y0140874D01*
X0252878Y0142859D01*
X0251359Y0144378D01*
X0249374Y0145200D01*
X0247226Y0145200D01*
X0245241Y0144378D01*
X0244763Y0143900D01*
X0234549Y0143900D01*
X0234323Y0144445D01*
X0233674Y0145095D01*
X0233750Y0145378D01*
X0233750Y0147694D01*
X0229280Y0147694D01*
X0229280Y0148654D01*
X0233750Y0148654D01*
X0233750Y0150970D01*
X0233627Y0151428D01*
X0233575Y0151517D01*
X0235498Y0152313D01*
X0236816Y0153631D01*
X0238134Y0152313D01*
X0240523Y0151324D01*
X0243109Y0151324D01*
X0245498Y0152313D01*
X0246816Y0153631D01*
X0248134Y0152313D01*
X0250523Y0151324D01*
X0253109Y0151324D01*
X0255498Y0152313D01*
X0256816Y0153631D01*
X0258134Y0152313D01*
X0260523Y0151324D01*
X0263109Y0151324D01*
X0265498Y0152313D01*
X0266816Y0153631D01*
X0268134Y0152313D01*
X0270523Y0151324D01*
X0273109Y0151324D01*
X0275498Y0152313D01*
X0276816Y0153631D01*
X0278134Y0152313D01*
X0280523Y0151324D01*
X0281945Y0151324D01*
X0281850Y0150970D01*
X0281850Y0148654D01*
X0286320Y0148654D01*
X0286320Y0152533D01*
X0285718Y0152533D01*
X0286816Y0153631D01*
X0287914Y0152533D01*
X0287280Y0152533D01*
X0287280Y0148654D01*
X0286320Y0148654D01*
X0286320Y0147694D01*
X0281850Y0147694D01*
X0281850Y0145378D01*
X0281926Y0145095D01*
X0281277Y0144445D01*
X0281051Y0143900D01*
X0270837Y0143900D01*
X0270359Y0144378D01*
X0268374Y0145200D01*
X0266226Y0145200D01*
X0264241Y0144378D01*
X0262722Y0142859D01*
X0261900Y0140874D01*
X0261900Y0138726D01*
X0262722Y0136741D01*
X0263186Y0136277D01*
X0259761Y0132852D01*
X0258748Y0131839D01*
X0258200Y0130516D01*
X0258200Y0128827D01*
X0256800Y0127427D01*
X0255400Y0129644D02*
X0258200Y0129644D01*
X0258501Y0131242D02*
X0255099Y0131242D01*
X0253850Y0132841D02*
X0259750Y0132841D01*
X0261348Y0134439D02*
X0252252Y0134439D01*
X0252174Y0136038D02*
X0262947Y0136038D01*
X0262351Y0137636D02*
X0253249Y0137636D01*
X0253700Y0139235D02*
X0261900Y0139235D01*
X0261900Y0140833D02*
X0253700Y0140833D01*
X0253055Y0142432D02*
X0262545Y0142432D01*
X0263894Y0144030D02*
X0251706Y0144030D01*
X0247800Y0140300D02*
X0248300Y0139800D01*
X0248300Y0133300D01*
X0251800Y0129800D01*
X0244426Y0136038D02*
X0234206Y0136038D01*
X0233632Y0129644D02*
X0239968Y0129644D01*
X0237418Y0128045D02*
X0236182Y0128045D01*
X0229968Y0129644D02*
X0223632Y0129644D01*
X0226182Y0128045D02*
X0227418Y0128045D01*
X0219968Y0129644D02*
X0213632Y0129644D01*
X0216182Y0128045D02*
X0217418Y0128045D01*
X0209968Y0129644D02*
X0184179Y0129644D01*
X0185777Y0128045D02*
X0207418Y0128045D01*
X0206294Y0126447D02*
X0187376Y0126447D01*
X0188974Y0124848D02*
X0205700Y0124848D01*
X0205700Y0123250D02*
X0190573Y0123250D01*
X0192171Y0121651D02*
X0206087Y0121651D01*
X0189800Y0111800D02*
X0170800Y0130800D01*
X0191800Y0140320D02*
X0191906Y0140426D01*
X0201800Y0140426D01*
X0207750Y0140833D02*
X0222850Y0140833D01*
X0222850Y0139235D02*
X0207750Y0139235D01*
X0207750Y0137636D02*
X0222850Y0137636D01*
X0223394Y0136038D02*
X0207080Y0136038D01*
X0207750Y0142432D02*
X0222850Y0142432D01*
X0223105Y0144030D02*
X0207547Y0144030D01*
X0206750Y0145629D02*
X0223850Y0145629D01*
X0223850Y0147227D02*
X0206750Y0147227D01*
X0206750Y0148826D02*
X0223850Y0148826D01*
X0223850Y0150424D02*
X0206750Y0150424D01*
X0206331Y0152023D02*
X0208835Y0152023D01*
X0206826Y0153621D02*
X0206806Y0153621D01*
X0201816Y0157824D02*
X0201816Y0165816D01*
X0212800Y0176800D01*
X0212800Y0182800D01*
X0218200Y0182395D02*
X0218400Y0182395D01*
X0218400Y0182800D02*
X0218400Y0179854D01*
X0218508Y0179170D01*
X0218722Y0178511D01*
X0219037Y0177894D01*
X0219444Y0177334D01*
X0219934Y0176844D01*
X0220494Y0176437D01*
X0221111Y0176122D01*
X0221770Y0175908D01*
X0222454Y0175800D01*
X0222800Y0175800D01*
X0223146Y0175800D01*
X0223830Y0175908D01*
X0224489Y0176122D01*
X0225106Y0176437D01*
X0225666Y0176844D01*
X0226156Y0177334D01*
X0226563Y0177894D01*
X0226878Y0178511D01*
X0227092Y0179170D01*
X0227200Y0179854D01*
X0227200Y0182800D01*
X0227200Y0185746D01*
X0227092Y0186430D01*
X0226878Y0187089D01*
X0226563Y0187706D01*
X0226156Y0188266D01*
X0225666Y0188756D01*
X0225106Y0189163D01*
X0224489Y0189478D01*
X0223830Y0189692D01*
X0223146Y0189800D01*
X0222800Y0189800D01*
X0222800Y0182800D01*
X0227200Y0182800D01*
X0222800Y0182800D01*
X0222800Y0182800D01*
X0222800Y0182800D01*
X0222800Y0175800D01*
X0222800Y0182800D01*
X0222800Y0182800D01*
X0222800Y0182800D01*
X0218400Y0182800D01*
X0218400Y0185746D01*
X0218508Y0186430D01*
X0218722Y0187089D01*
X0219037Y0187706D01*
X0219444Y0188266D01*
X0219934Y0188756D01*
X0220494Y0189163D01*
X0221111Y0189478D01*
X0221770Y0189692D01*
X0222454Y0189800D01*
X0222800Y0189800D01*
X0222800Y0182800D01*
X0218400Y0182800D01*
X0218400Y0183993D02*
X0218200Y0183993D01*
X0218200Y0185592D02*
X0218400Y0185592D01*
X0218774Y0187190D02*
X0217903Y0187190D01*
X0217048Y0188789D02*
X0219978Y0188789D01*
X0222800Y0188789D02*
X0222800Y0188789D01*
X0222800Y0187190D02*
X0222800Y0187190D01*
X0222800Y0185592D02*
X0222800Y0185592D01*
X0222800Y0183993D02*
X0222800Y0183993D01*
X0222800Y0182395D02*
X0222800Y0182395D01*
X0222800Y0180796D02*
X0222800Y0180796D01*
X0222800Y0179198D02*
X0222800Y0179198D01*
X0222800Y0177599D02*
X0222800Y0177599D01*
X0222800Y0176001D02*
X0222800Y0176001D01*
X0224114Y0176001D02*
X0238000Y0176001D01*
X0238000Y0175646D02*
X0238883Y0173515D01*
X0240515Y0171883D01*
X0242646Y0171000D01*
X0244954Y0171000D01*
X0247085Y0171883D01*
X0248717Y0173515D01*
X0248800Y0173715D01*
X0248883Y0173515D01*
X0250515Y0171883D01*
X0252646Y0171000D01*
X0254954Y0171000D01*
X0257085Y0171883D01*
X0258717Y0173515D01*
X0259600Y0175646D01*
X0259600Y0183954D01*
X0258717Y0186085D01*
X0257085Y0187717D01*
X0254954Y0188600D01*
X0252646Y0188600D01*
X0250515Y0187717D01*
X0248883Y0186085D01*
X0248800Y0185885D01*
X0248717Y0186085D01*
X0247085Y0187717D01*
X0244954Y0188600D01*
X0242646Y0188600D01*
X0240515Y0187717D01*
X0238883Y0186085D01*
X0238000Y0183954D01*
X0238000Y0175646D01*
X0238515Y0174402D02*
X0215493Y0174402D01*
X0216365Y0176001D02*
X0221486Y0176001D01*
X0219251Y0177599D02*
X0217568Y0177599D01*
X0218200Y0179198D02*
X0218504Y0179198D01*
X0218400Y0180796D02*
X0218200Y0180796D01*
X0208172Y0177263D02*
X0207800Y0178160D01*
X0207378Y0177141D01*
X0205859Y0175622D01*
X0203874Y0174800D01*
X0201726Y0174800D01*
X0199741Y0175622D01*
X0198222Y0177141D01*
X0197701Y0178400D01*
X0187623Y0178400D01*
X0178200Y0168977D01*
X0178200Y0163324D01*
X0181616Y0163324D01*
X0181616Y0158024D01*
X0182016Y0158024D01*
X0182016Y0163324D01*
X0185753Y0163324D01*
X0186211Y0163201D01*
X0186621Y0162964D01*
X0186956Y0162629D01*
X0187129Y0162329D01*
X0188134Y0163334D01*
X0190523Y0164324D01*
X0193109Y0164324D01*
X0195498Y0163334D01*
X0196816Y0162016D01*
X0198134Y0163334D01*
X0198216Y0163368D01*
X0198216Y0165100D01*
X0198216Y0166532D01*
X0198764Y0167855D01*
X0208172Y0177263D01*
X0208032Y0177599D02*
X0207568Y0177599D01*
X0206909Y0176001D02*
X0206237Y0176001D01*
X0205311Y0174402D02*
X0183625Y0174402D01*
X0185223Y0176001D02*
X0199363Y0176001D01*
X0198032Y0177599D02*
X0186822Y0177599D01*
X0179172Y0182395D02*
X0161691Y0182395D01*
X0162462Y0183993D02*
X0180771Y0183993D01*
X0182369Y0185592D02*
X0162890Y0185592D01*
X0163100Y0187190D02*
X0184901Y0187190D01*
X0177574Y0180796D02*
X0160714Y0180796D01*
X0159115Y0179198D02*
X0175975Y0179198D01*
X0174376Y0177599D02*
X0156622Y0177599D01*
X0150968Y0176001D02*
X0172778Y0176001D01*
X0171179Y0174402D02*
X0148259Y0174402D01*
X0139400Y0172803D02*
X0169867Y0172803D01*
X0169400Y0171205D02*
X0139400Y0171205D01*
X0140230Y0169606D02*
X0169400Y0169606D01*
X0169400Y0168008D02*
X0140979Y0168008D01*
X0141200Y0166409D02*
X0169400Y0166409D01*
X0169400Y0164811D02*
X0164930Y0164811D01*
X0164870Y0164870D02*
X0161816Y0166135D01*
X0158509Y0166135D01*
X0155454Y0164870D01*
X0153116Y0162532D01*
X0151850Y0159477D01*
X0151850Y0156170D01*
X0153116Y0153115D01*
X0155454Y0150777D01*
X0158509Y0149512D01*
X0161816Y0149512D01*
X0164870Y0150777D01*
X0167209Y0153115D01*
X0168474Y0156170D01*
X0168474Y0159477D01*
X0167209Y0162532D01*
X0164870Y0164870D01*
X0166528Y0163212D02*
X0169400Y0163212D01*
X0169400Y0161614D02*
X0167589Y0161614D01*
X0168251Y0160015D02*
X0169400Y0160015D01*
X0169400Y0158417D02*
X0168474Y0158417D01*
X0168474Y0156818D02*
X0169400Y0156818D01*
X0169400Y0155220D02*
X0168080Y0155220D01*
X0167418Y0153621D02*
X0169400Y0153621D01*
X0169400Y0152023D02*
X0166116Y0152023D01*
X0164019Y0150424D02*
X0169400Y0150424D01*
X0169400Y0148826D02*
X0045600Y0148826D01*
X0045600Y0150424D02*
X0156306Y0150424D01*
X0154208Y0152023D02*
X0045600Y0152023D01*
X0045600Y0153621D02*
X0049248Y0153621D01*
X0046849Y0155220D02*
X0045600Y0155220D01*
X0055352Y0153621D02*
X0152906Y0153621D01*
X0152244Y0155220D02*
X0057751Y0155220D01*
X0059093Y0156818D02*
X0115338Y0156818D01*
X0115454Y0156800D02*
X0115800Y0156800D01*
X0116146Y0156800D01*
X0116830Y0156908D01*
X0117489Y0157122D01*
X0118106Y0157437D01*
X0118666Y0157844D01*
X0119156Y0158334D01*
X0119563Y0158894D01*
X0119878Y0159511D01*
X0120092Y0160170D01*
X0120200Y0160854D01*
X0120200Y0163800D01*
X0120200Y0166746D01*
X0120092Y0167430D01*
X0119878Y0168089D01*
X0119563Y0168706D01*
X0119156Y0169266D01*
X0118666Y0169756D01*
X0118106Y0170163D01*
X0117489Y0170478D01*
X0116830Y0170692D01*
X0116146Y0170800D01*
X0115800Y0170800D01*
X0115800Y0163800D01*
X0120200Y0163800D01*
X0115800Y0163800D01*
X0115800Y0163800D01*
X0115800Y0163800D01*
X0115800Y0156800D01*
X0115800Y0163800D01*
X0115800Y0163800D01*
X0115800Y0163800D01*
X0111400Y0163800D01*
X0111400Y0166746D01*
X0111508Y0167430D01*
X0111722Y0168089D01*
X0112037Y0168706D01*
X0112444Y0169266D01*
X0112934Y0169756D01*
X0113494Y0170163D01*
X0114111Y0170478D01*
X0114770Y0170692D01*
X0115454Y0170800D01*
X0115800Y0170800D01*
X0115800Y0163800D01*
X0111400Y0163800D01*
X0111400Y0160854D01*
X0111508Y0160170D01*
X0111722Y0159511D01*
X0112037Y0158894D01*
X0112444Y0158334D01*
X0112934Y0157844D01*
X0113494Y0157437D01*
X0114111Y0157122D01*
X0114770Y0156908D01*
X0115454Y0156800D01*
X0115800Y0156818D02*
X0115800Y0156818D01*
X0116262Y0156818D02*
X0122545Y0156818D01*
X0121108Y0158417D02*
X0119217Y0158417D01*
X0120042Y0160015D02*
X0120446Y0160015D01*
X0120400Y0161614D02*
X0120200Y0161614D01*
X0120200Y0163212D02*
X0120400Y0163212D01*
X0120400Y0164811D02*
X0120200Y0164811D01*
X0120200Y0166409D02*
X0120400Y0166409D01*
X0120621Y0168008D02*
X0119904Y0168008D01*
X0118816Y0169606D02*
X0121370Y0169606D01*
X0123289Y0171205D02*
X0053236Y0171205D01*
X0054834Y0172803D02*
X0132200Y0172803D01*
X0132200Y0171205D02*
X0128311Y0171205D01*
X0130230Y0169606D02*
X0131370Y0169606D01*
X0135800Y0163800D02*
X0135800Y0181388D01*
X0135388Y0181800D01*
X0137751Y0190387D02*
X0140778Y0190387D01*
X0141206Y0191986D02*
X0140174Y0191986D01*
X0141614Y0193584D02*
X0142055Y0193584D01*
X0142565Y0195183D02*
X0143139Y0195183D01*
X0143196Y0196781D02*
X0144738Y0196781D01*
X0143515Y0198380D02*
X0147415Y0198380D01*
X0148931Y0201577D02*
X0143427Y0201577D01*
X0143467Y0201402D02*
X0143209Y0202530D01*
X0142827Y0203622D01*
X0142325Y0204664D01*
X0141710Y0205644D01*
X0140988Y0206548D01*
X0140170Y0207366D01*
X0139266Y0208088D01*
X0138286Y0208703D01*
X0137244Y0209205D01*
X0136152Y0209587D01*
X0135024Y0209844D01*
X0134096Y0209949D01*
X0134096Y0200474D01*
X0143571Y0200474D01*
X0143467Y0201402D01*
X0142983Y0203175D02*
X0145700Y0203175D01*
X0145830Y0203072D02*
X0146810Y0202456D01*
X0147852Y0201954D01*
X0148944Y0201572D01*
X0150072Y0201315D01*
X0151000Y0201210D01*
X0151000Y0210685D01*
X0152600Y0210685D01*
X0152600Y0201210D01*
X0153528Y0201315D01*
X0154656Y0201572D01*
X0155748Y0201954D01*
X0156790Y0202456D01*
X0157770Y0203072D01*
X0158674Y0203793D01*
X0159492Y0204611D01*
X0160214Y0205515D01*
X0160829Y0206495D01*
X0161331Y0207537D01*
X0161713Y0208629D01*
X0161970Y0209757D01*
X0162075Y0210685D01*
X0152600Y0210685D01*
X0152600Y0212285D01*
X0162075Y0212285D01*
X0161970Y0213213D01*
X0161713Y0214341D01*
X0161331Y0215433D01*
X0160829Y0216475D01*
X0160214Y0217455D01*
X0159492Y0218359D01*
X0158674Y0219177D01*
X0157770Y0219899D01*
X0156790Y0220514D01*
X0155748Y0221016D01*
X0154656Y0221398D01*
X0153528Y0221655D01*
X0152600Y0221760D01*
X0152600Y0212285D01*
X0151000Y0212285D01*
X0151000Y0210685D01*
X0141525Y0210685D01*
X0141630Y0209757D01*
X0141887Y0208629D01*
X0142269Y0207537D01*
X0142771Y0206495D01*
X0143386Y0205515D01*
X0144108Y0204611D01*
X0144926Y0203793D01*
X0145830Y0203072D01*
X0143978Y0204774D02*
X0142256Y0204774D01*
X0142848Y0206372D02*
X0141129Y0206372D01*
X0142117Y0207971D02*
X0139412Y0207971D01*
X0141672Y0209569D02*
X0136203Y0209569D01*
X0134096Y0209569D02*
X0132496Y0209569D01*
X0132496Y0209949D02*
X0131568Y0209844D01*
X0130440Y0209587D01*
X0129348Y0209205D01*
X0128306Y0208703D01*
X0127326Y0208088D01*
X0126422Y0207366D01*
X0125604Y0206548D01*
X0124883Y0205644D01*
X0124267Y0204664D01*
X0123765Y0203622D01*
X0123383Y0202530D01*
X0123126Y0201402D01*
X0123021Y0200474D01*
X0132496Y0200474D01*
X0132496Y0209949D01*
X0132496Y0207971D02*
X0134096Y0207971D01*
X0134096Y0206372D02*
X0132496Y0206372D01*
X0132496Y0204774D02*
X0134096Y0204774D01*
X0134096Y0203175D02*
X0132496Y0203175D01*
X0132496Y0201577D02*
X0134096Y0201577D01*
X0134096Y0199978D02*
X0256696Y0199978D01*
X0256994Y0199257D02*
X0258257Y0197994D01*
X0259907Y0197311D01*
X0261693Y0197311D01*
X0262155Y0197502D01*
X0265342Y0197502D01*
X0265481Y0197167D01*
X0265500Y0197148D01*
X0265500Y0191146D01*
X0265164Y0191007D01*
X0264377Y0190219D01*
X0263950Y0189190D01*
X0263950Y0182958D01*
X0264377Y0181929D01*
X0265026Y0181279D01*
X0264950Y0180996D01*
X0264950Y0178680D01*
X0269420Y0178680D01*
X0269420Y0177720D01*
X0270380Y0177720D01*
X0270380Y0178680D01*
X0274850Y0178680D01*
X0274850Y0180996D01*
X0274774Y0181279D01*
X0275423Y0181929D01*
X0275850Y0182958D01*
X0275850Y0189190D01*
X0275423Y0190219D01*
X0274636Y0191007D01*
X0274300Y0191146D01*
X0274300Y0197491D01*
X0274592Y0198196D01*
X0274592Y0205609D01*
X0274166Y0206638D01*
X0273378Y0207426D01*
X0272349Y0207852D01*
X0267298Y0207852D01*
X0266269Y0207426D01*
X0265481Y0206638D01*
X0265342Y0206302D01*
X0261027Y0206302D01*
X0260995Y0206289D01*
X0259907Y0206289D01*
X0258257Y0205606D01*
X0256994Y0204343D01*
X0256311Y0202693D01*
X0256311Y0200907D01*
X0256994Y0199257D01*
X0257872Y0198380D02*
X0156185Y0198380D01*
X0158862Y0196781D02*
X0265500Y0196781D01*
X0265500Y0195183D02*
X0160461Y0195183D01*
X0161545Y0193584D02*
X0265500Y0193584D01*
X0265500Y0191986D02*
X0162394Y0191986D01*
X0162822Y0190387D02*
X0200729Y0190387D01*
X0198552Y0188789D02*
X0163100Y0188789D01*
X0154669Y0201577D02*
X0235914Y0201577D01*
X0235414Y0201784D02*
X0236443Y0201357D01*
X0245157Y0201357D01*
X0246186Y0201784D01*
X0246974Y0202571D01*
X0247400Y0203601D01*
X0247400Y0212314D01*
X0246974Y0213344D01*
X0246186Y0214131D01*
X0245157Y0214557D01*
X0236443Y0214557D01*
X0235414Y0214131D01*
X0234626Y0213344D01*
X0234200Y0212314D01*
X0234200Y0203601D01*
X0234626Y0202571D01*
X0235414Y0201784D01*
X0234376Y0203175D02*
X0157900Y0203175D01*
X0159622Y0204774D02*
X0234200Y0204774D01*
X0234200Y0206372D02*
X0160752Y0206372D01*
X0161483Y0207971D02*
X0234200Y0207971D01*
X0234200Y0209569D02*
X0161928Y0209569D01*
X0162021Y0212766D02*
X0234387Y0212766D01*
X0234200Y0211168D02*
X0152600Y0211168D01*
X0152600Y0212766D02*
X0151000Y0212766D01*
X0151000Y0212285D02*
X0151000Y0221760D01*
X0150072Y0221655D01*
X0148944Y0221398D01*
X0147852Y0221016D01*
X0146810Y0220514D01*
X0145830Y0219899D01*
X0144926Y0219177D01*
X0144108Y0218359D01*
X0143386Y0217455D01*
X0142771Y0216475D01*
X0142269Y0215433D01*
X0141887Y0214341D01*
X0141630Y0213213D01*
X0141525Y0212285D01*
X0151000Y0212285D01*
X0151000Y0211168D02*
X0006800Y0211168D01*
X0006800Y0212766D02*
X0141579Y0212766D01*
X0141895Y0214365D02*
X0006800Y0214365D01*
X0006800Y0215963D02*
X0142524Y0215963D01*
X0143472Y0217562D02*
X0006800Y0217562D01*
X0006800Y0219160D02*
X0144909Y0219160D01*
X0147318Y0220759D02*
X0006800Y0220759D01*
X0006800Y0222357D02*
X0180200Y0222357D01*
X0180200Y0220759D02*
X0156282Y0220759D01*
X0158691Y0219160D02*
X0180369Y0219160D01*
X0180200Y0219567D02*
X0181220Y0217105D01*
X0183105Y0215220D01*
X0185567Y0214200D01*
X0188233Y0214200D01*
X0190695Y0215220D01*
X0192580Y0217105D01*
X0193600Y0219567D01*
X0193600Y0230033D01*
X0192580Y0232495D01*
X0190695Y0234380D01*
X0188233Y0235400D01*
X0185567Y0235400D01*
X0183105Y0234380D01*
X0181220Y0232495D01*
X0180200Y0230033D01*
X0180200Y0219567D01*
X0181031Y0217562D02*
X0160128Y0217562D01*
X0161076Y0215963D02*
X0182361Y0215963D01*
X0185169Y0214365D02*
X0161705Y0214365D01*
X0152600Y0214365D02*
X0151000Y0214365D01*
X0151000Y0215963D02*
X0152600Y0215963D01*
X0152600Y0217562D02*
X0151000Y0217562D01*
X0151000Y0219160D02*
X0152600Y0219160D01*
X0152600Y0220759D02*
X0151000Y0220759D01*
X0151000Y0209569D02*
X0152600Y0209569D01*
X0152600Y0207971D02*
X0151000Y0207971D01*
X0151000Y0206372D02*
X0152600Y0206372D01*
X0152600Y0204774D02*
X0151000Y0204774D01*
X0151000Y0203175D02*
X0152600Y0203175D01*
X0152600Y0201577D02*
X0151000Y0201577D01*
X0132496Y0199978D02*
X0006800Y0199978D01*
X0006800Y0198380D02*
X0123077Y0198380D01*
X0123396Y0196781D02*
X0006800Y0196781D01*
X0006800Y0195183D02*
X0124027Y0195183D01*
X0124978Y0193584D02*
X0006800Y0193584D01*
X0006800Y0191986D02*
X0126418Y0191986D01*
X0128841Y0190387D02*
X0006800Y0190387D01*
X0006800Y0188789D02*
X0049290Y0188789D01*
X0047159Y0187190D02*
X0006800Y0187190D01*
X0006800Y0185592D02*
X0045561Y0185592D01*
X0043962Y0183993D02*
X0006800Y0183993D01*
X0006800Y0182395D02*
X0042364Y0182395D01*
X0040765Y0180796D02*
X0006800Y0180796D01*
X0006800Y0179198D02*
X0039167Y0179198D01*
X0037568Y0177599D02*
X0006800Y0177599D01*
X0006800Y0176001D02*
X0035970Y0176001D01*
X0034371Y0174402D02*
X0006800Y0174402D01*
X0006800Y0172803D02*
X0032773Y0172803D01*
X0031182Y0171205D02*
X0006800Y0171205D01*
X0006800Y0169606D02*
X0030520Y0169606D01*
X0030000Y0168008D02*
X0006800Y0168008D01*
X0006800Y0166409D02*
X0030000Y0166409D01*
X0030000Y0164811D02*
X0006800Y0164811D01*
X0006800Y0163212D02*
X0030000Y0163212D01*
X0030000Y0161614D02*
X0006800Y0161614D01*
X0006800Y0160015D02*
X0030000Y0160015D01*
X0030000Y0158417D02*
X0006800Y0158417D01*
X0006800Y0156818D02*
X0030000Y0156818D01*
X0030000Y0155220D02*
X0006800Y0155220D01*
X0006800Y0153621D02*
X0030000Y0153621D01*
X0030000Y0152023D02*
X0006800Y0152023D01*
X0006800Y0150424D02*
X0030000Y0150424D01*
X0030000Y0148826D02*
X0006800Y0148826D01*
X0006800Y0147227D02*
X0030000Y0147227D01*
X0030000Y0145629D02*
X0006800Y0145629D01*
X0006800Y0144030D02*
X0030000Y0144030D01*
X0030000Y0142432D02*
X0006800Y0142432D01*
X0006800Y0140833D02*
X0030000Y0140833D01*
X0030000Y0139235D02*
X0006800Y0139235D01*
X0006800Y0137636D02*
X0030000Y0137636D01*
X0030000Y0136038D02*
X0006800Y0136038D01*
X0006800Y0134439D02*
X0030000Y0134439D01*
X0030000Y0132841D02*
X0006800Y0132841D01*
X0006800Y0131242D02*
X0030000Y0131242D01*
X0030000Y0129644D02*
X0006800Y0129644D01*
X0006800Y0128045D02*
X0030000Y0128045D01*
X0030000Y0126447D02*
X0006800Y0126447D01*
X0006800Y0124848D02*
X0030000Y0124848D01*
X0030000Y0123250D02*
X0006800Y0123250D01*
X0006800Y0121651D02*
X0030247Y0121651D01*
X0030910Y0120053D02*
X0006800Y0120053D01*
X0006800Y0118454D02*
X0032115Y0118454D01*
X0033714Y0116856D02*
X0006800Y0116856D01*
X0006800Y0115257D02*
X0035312Y0115257D01*
X0036911Y0113659D02*
X0006800Y0113659D01*
X0006800Y0112060D02*
X0038509Y0112060D01*
X0040108Y0110462D02*
X0006800Y0110462D01*
X0006800Y0108863D02*
X0041706Y0108863D01*
X0043305Y0107265D02*
X0006800Y0107265D01*
X0006800Y0105666D02*
X0044903Y0105666D01*
X0046671Y0104068D02*
X0006800Y0104068D01*
X0006800Y0102469D02*
X0060213Y0102469D01*
X0060000Y0100870D02*
X0006800Y0100870D01*
X0006800Y0099272D02*
X0060155Y0099272D01*
X0060817Y0097673D02*
X0006800Y0097673D01*
X0006800Y0096075D02*
X0062323Y0096075D01*
X0060494Y0118454D02*
X0059704Y0118454D01*
X0060000Y0120053D02*
X0052578Y0120053D01*
X0050980Y0121651D02*
X0060000Y0121651D01*
X0060537Y0123250D02*
X0049381Y0123250D01*
X0047783Y0124848D02*
X0061646Y0124848D01*
X0064276Y0126447D02*
X0046184Y0126447D01*
X0045600Y0128045D02*
X0131464Y0128045D01*
X0129865Y0129644D02*
X0045600Y0129644D01*
X0045600Y0131242D02*
X0123658Y0131242D01*
X0127942Y0131242D02*
X0128267Y0131242D01*
X0115800Y0134439D02*
X0115800Y0134439D01*
X0115800Y0136038D02*
X0115800Y0136038D01*
X0115800Y0137636D02*
X0115800Y0137636D01*
X0115800Y0139235D02*
X0115800Y0139235D01*
X0115800Y0140833D02*
X0115800Y0140833D01*
X0115800Y0142432D02*
X0115800Y0142432D01*
X0115800Y0144030D02*
X0115800Y0144030D01*
X0115800Y0145629D02*
X0115800Y0145629D01*
X0117024Y0145629D02*
X0122392Y0145629D01*
X0121045Y0144030D02*
X0119328Y0144030D01*
X0120091Y0142432D02*
X0120400Y0142432D01*
X0120400Y0140833D02*
X0120200Y0140833D01*
X0129208Y0145629D02*
X0132392Y0145629D01*
X0131045Y0144030D02*
X0130555Y0144030D01*
X0129055Y0156818D02*
X0132545Y0156818D01*
X0131108Y0158417D02*
X0130492Y0158417D01*
X0139055Y0156818D02*
X0151850Y0156818D01*
X0151850Y0158417D02*
X0140492Y0158417D01*
X0141154Y0160015D02*
X0152073Y0160015D01*
X0152736Y0161614D02*
X0141200Y0161614D01*
X0141200Y0163212D02*
X0153796Y0163212D01*
X0155395Y0164811D02*
X0141200Y0164811D01*
X0115800Y0164811D02*
X0115800Y0164811D01*
X0115800Y0166409D02*
X0115800Y0166409D01*
X0115800Y0168008D02*
X0115800Y0168008D01*
X0115800Y0169606D02*
X0115800Y0169606D01*
X0112784Y0169606D02*
X0051637Y0169606D01*
X0055281Y0168008D02*
X0111696Y0168008D01*
X0111400Y0166409D02*
X0057721Y0166409D01*
X0059081Y0164811D02*
X0111400Y0164811D01*
X0111400Y0163212D02*
X0059743Y0163212D01*
X0060100Y0161614D02*
X0111400Y0161614D01*
X0111558Y0160015D02*
X0060100Y0160015D01*
X0059756Y0158417D02*
X0112383Y0158417D01*
X0115800Y0158417D02*
X0115800Y0158417D01*
X0115800Y0160015D02*
X0115800Y0160015D01*
X0115800Y0161614D02*
X0115800Y0161614D01*
X0115800Y0163212D02*
X0115800Y0163212D01*
X0178200Y0164811D02*
X0198216Y0164811D01*
X0198216Y0166409D02*
X0178200Y0166409D01*
X0178200Y0168008D02*
X0198917Y0168008D01*
X0200515Y0169606D02*
X0178829Y0169606D01*
X0180428Y0171205D02*
X0202114Y0171205D01*
X0203712Y0172803D02*
X0182026Y0172803D01*
X0182016Y0163212D02*
X0181616Y0163212D01*
X0181616Y0161614D02*
X0182016Y0161614D01*
X0182016Y0160015D02*
X0181616Y0160015D01*
X0181616Y0158417D02*
X0182016Y0158417D01*
X0182016Y0157624D02*
X0182016Y0152324D01*
X0185753Y0152324D01*
X0186211Y0152446D01*
X0186621Y0152683D01*
X0186956Y0153018D01*
X0187129Y0153318D01*
X0187400Y0153047D01*
X0187400Y0152872D01*
X0187064Y0152733D01*
X0186277Y0151945D01*
X0185850Y0150916D01*
X0185850Y0144720D01*
X0178200Y0144720D01*
X0178200Y0152324D01*
X0181616Y0152324D01*
X0181616Y0157624D01*
X0182016Y0157624D01*
X0182016Y0156818D02*
X0181616Y0156818D01*
X0181616Y0155220D02*
X0182016Y0155220D01*
X0182016Y0153621D02*
X0181616Y0153621D01*
X0178200Y0152023D02*
X0186354Y0152023D01*
X0185850Y0150424D02*
X0178200Y0150424D01*
X0178200Y0148826D02*
X0185850Y0148826D01*
X0185850Y0147227D02*
X0178200Y0147227D01*
X0178200Y0145629D02*
X0185850Y0145629D01*
X0191800Y0157808D02*
X0191816Y0157824D01*
X0195619Y0163212D02*
X0198012Y0163212D01*
X0205619Y0163212D02*
X0208012Y0163212D01*
X0205902Y0164811D02*
X0331567Y0164811D01*
X0329968Y0166409D02*
X0207501Y0166409D01*
X0209099Y0168008D02*
X0328369Y0168008D01*
X0326771Y0169606D02*
X0210698Y0169606D01*
X0212296Y0171205D02*
X0242151Y0171205D01*
X0239594Y0172803D02*
X0213895Y0172803D01*
X0226349Y0177599D02*
X0238000Y0177599D01*
X0238000Y0179198D02*
X0227096Y0179198D01*
X0227200Y0180796D02*
X0238000Y0180796D01*
X0238000Y0182395D02*
X0227200Y0182395D01*
X0227200Y0183993D02*
X0238016Y0183993D01*
X0238678Y0185592D02*
X0227200Y0185592D01*
X0226826Y0187190D02*
X0239988Y0187190D01*
X0247612Y0187190D02*
X0249988Y0187190D01*
X0257612Y0187190D02*
X0263950Y0187190D01*
X0263950Y0185592D02*
X0258922Y0185592D01*
X0259584Y0183993D02*
X0263950Y0183993D01*
X0264184Y0182395D02*
X0259600Y0182395D01*
X0259600Y0180796D02*
X0264950Y0180796D01*
X0264950Y0179198D02*
X0259600Y0179198D01*
X0259600Y0177599D02*
X0264950Y0177599D01*
X0264950Y0177720D02*
X0264950Y0175404D01*
X0265073Y0174946D01*
X0265310Y0174536D01*
X0265645Y0174201D01*
X0266056Y0173964D01*
X0266513Y0173841D01*
X0269420Y0173841D01*
X0269420Y0177720D01*
X0264950Y0177720D01*
X0264950Y0176001D02*
X0259600Y0176001D01*
X0259085Y0174402D02*
X0265444Y0174402D01*
X0269420Y0174402D02*
X0270380Y0174402D01*
X0270380Y0173841D02*
X0273287Y0173841D01*
X0273744Y0173964D01*
X0274155Y0174201D01*
X0274490Y0174536D01*
X0274727Y0174946D01*
X0274850Y0175404D01*
X0274850Y0177720D01*
X0270380Y0177720D01*
X0270380Y0173841D01*
X0270380Y0176001D02*
X0269420Y0176001D01*
X0269420Y0177599D02*
X0270380Y0177599D01*
X0274850Y0177599D02*
X0307808Y0177599D01*
X0313792Y0177599D02*
X0324400Y0177599D01*
X0324400Y0176001D02*
X0274850Y0176001D01*
X0274356Y0174402D02*
X0324400Y0174402D01*
X0324450Y0172803D02*
X0258006Y0172803D01*
X0255449Y0171205D02*
X0325172Y0171205D01*
X0333200Y0175623D02*
X0333200Y0178985D01*
X0334430Y0177756D01*
X0336616Y0176850D01*
X0338984Y0176850D01*
X0341170Y0177756D01*
X0342844Y0179430D01*
X0343750Y0181616D01*
X0343750Y0183984D01*
X0342844Y0186170D01*
X0341170Y0187844D01*
X0340233Y0188232D01*
X0342750Y0190750D01*
X0342750Y0192800D01*
X0342750Y0194850D01*
X0339850Y0197750D01*
X0337800Y0197750D01*
X0337800Y0192800D01*
X0337800Y0192800D01*
X0342750Y0192800D01*
X0337800Y0192800D01*
X0337800Y0192800D01*
X0337800Y0197750D01*
X0335750Y0197750D01*
X0333200Y0195200D01*
X0333200Y0210599D01*
X0334400Y0210102D01*
X0334400Y0207925D01*
X0335070Y0206308D01*
X0345400Y0195977D01*
X0345400Y0186925D01*
X0346070Y0185308D01*
X0351070Y0180308D01*
X0351070Y0180308D01*
X0351500Y0179877D01*
X0351500Y0172772D01*
X0351164Y0172633D01*
X0350377Y0171845D01*
X0349950Y0170816D01*
X0349950Y0164584D01*
X0350209Y0163960D01*
X0349950Y0163336D01*
X0349950Y0157104D01*
X0350377Y0156075D01*
X0351164Y0155287D01*
X0352193Y0154861D01*
X0359607Y0154861D01*
X0360636Y0155287D01*
X0360890Y0155541D01*
X0361064Y0155367D01*
X0362093Y0154941D01*
X0362200Y0154941D01*
X0362200Y0150548D01*
X0361994Y0150343D01*
X0361311Y0148693D01*
X0361311Y0146907D01*
X0361521Y0146400D01*
X0360084Y0146400D01*
X0358761Y0145852D01*
X0342809Y0129900D01*
X0337943Y0129900D01*
X0336914Y0129474D01*
X0336126Y0128686D01*
X0335955Y0128272D01*
X0335255Y0128971D01*
X0333013Y0129900D01*
X0330587Y0129900D01*
X0328345Y0128971D01*
X0326800Y0127427D01*
X0325255Y0128971D01*
X0323013Y0129900D01*
X0320587Y0129900D01*
X0318345Y0128971D01*
X0316800Y0127427D01*
X0315400Y0128827D01*
X0315400Y0152273D01*
X0315498Y0152313D01*
X0316816Y0153631D01*
X0318134Y0152313D01*
X0320523Y0151324D01*
X0323109Y0151324D01*
X0325498Y0152313D01*
X0326816Y0153631D01*
X0327170Y0153277D01*
X0327064Y0153233D01*
X0326277Y0152445D01*
X0325850Y0151416D01*
X0325850Y0145184D01*
X0326277Y0144155D01*
X0326850Y0143581D01*
X0326850Y0141299D01*
X0331320Y0141299D01*
X0331320Y0140340D01*
X0326850Y0140340D01*
X0326850Y0138024D01*
X0326973Y0137566D01*
X0327210Y0137155D01*
X0327545Y0136820D01*
X0327956Y0136583D01*
X0328413Y0136461D01*
X0331320Y0136461D01*
X0331320Y0140340D01*
X0332280Y0140340D01*
X0332280Y0141299D01*
X0336750Y0141299D01*
X0336750Y0143581D01*
X0337253Y0144085D01*
X0337277Y0144029D01*
X0337926Y0143379D01*
X0337850Y0143096D01*
X0337850Y0140780D01*
X0342320Y0140780D01*
X0342320Y0139820D01*
X0343280Y0139820D01*
X0343280Y0140780D01*
X0347750Y0140780D01*
X0347750Y0143096D01*
X0347674Y0143379D01*
X0348323Y0144029D01*
X0348477Y0144400D01*
X0350692Y0144400D01*
X0350907Y0144311D01*
X0352693Y0144311D01*
X0354343Y0144994D01*
X0355606Y0146257D01*
X0356289Y0147907D01*
X0356289Y0149693D01*
X0355606Y0151343D01*
X0354343Y0152606D01*
X0352693Y0153289D01*
X0350907Y0153289D01*
X0350692Y0153200D01*
X0347311Y0153200D01*
X0347200Y0153246D01*
X0347200Y0160675D01*
X0346530Y0162292D01*
X0333200Y0175623D01*
X0333200Y0176001D02*
X0351500Y0176001D01*
X0351500Y0177599D02*
X0340792Y0177599D01*
X0342612Y0179198D02*
X0351500Y0179198D01*
X0350581Y0180796D02*
X0343410Y0180796D01*
X0343750Y0182395D02*
X0348983Y0182395D01*
X0347384Y0183993D02*
X0343746Y0183993D01*
X0343084Y0185592D02*
X0345952Y0185592D01*
X0345400Y0187190D02*
X0341824Y0187190D01*
X0340789Y0188789D02*
X0345400Y0188789D01*
X0345400Y0190387D02*
X0342387Y0190387D01*
X0342750Y0191986D02*
X0345400Y0191986D01*
X0345400Y0193584D02*
X0342750Y0193584D01*
X0342418Y0195183D02*
X0345400Y0195183D01*
X0344596Y0196781D02*
X0340819Y0196781D01*
X0342998Y0198380D02*
X0333200Y0198380D01*
X0333200Y0199978D02*
X0341399Y0199978D01*
X0339801Y0201577D02*
X0333200Y0201577D01*
X0333200Y0203175D02*
X0338202Y0203175D01*
X0336604Y0204774D02*
X0333200Y0204774D01*
X0333200Y0206372D02*
X0335043Y0206372D01*
X0334400Y0207971D02*
X0333200Y0207971D01*
X0333200Y0209569D02*
X0334400Y0209569D01*
X0344253Y0209569D02*
X0361389Y0209569D01*
X0361440Y0209587D02*
X0360348Y0209205D01*
X0359306Y0208703D01*
X0358326Y0208088D01*
X0357422Y0207366D01*
X0356604Y0206548D01*
X0355883Y0205644D01*
X0355267Y0204664D01*
X0354765Y0203622D01*
X0354383Y0202530D01*
X0354126Y0201402D01*
X0354021Y0200474D01*
X0363496Y0200474D01*
X0363496Y0198874D01*
X0365096Y0198874D01*
X0365096Y0189399D01*
X0366024Y0189504D01*
X0367152Y0189761D01*
X0368244Y0190143D01*
X0369286Y0190645D01*
X0370266Y0191260D01*
X0371170Y0191982D01*
X0371988Y0192800D01*
X0372710Y0193704D01*
X0373325Y0194684D01*
X0373827Y0195726D01*
X0374209Y0196818D01*
X0374467Y0197946D01*
X0374571Y0198874D01*
X0365096Y0198874D01*
X0365096Y0200474D01*
X0363496Y0200474D01*
X0363496Y0209949D01*
X0362568Y0209844D01*
X0361440Y0209587D01*
X0363496Y0209569D02*
X0365096Y0209569D01*
X0365096Y0209949D02*
X0365096Y0200474D01*
X0374571Y0200474D01*
X0374467Y0201402D01*
X0374209Y0202530D01*
X0373827Y0203622D01*
X0373325Y0204664D01*
X0372710Y0205644D01*
X0371988Y0206548D01*
X0371170Y0207366D01*
X0370266Y0208088D01*
X0369286Y0208703D01*
X0368244Y0209205D01*
X0367152Y0209587D01*
X0366024Y0209844D01*
X0365096Y0209949D01*
X0365096Y0207971D02*
X0363496Y0207971D01*
X0363496Y0206372D02*
X0365096Y0206372D01*
X0365096Y0204774D02*
X0363496Y0204774D01*
X0363496Y0203175D02*
X0365096Y0203175D01*
X0365096Y0201577D02*
X0363496Y0201577D01*
X0363496Y0199978D02*
X0353660Y0199978D01*
X0354165Y0201577D02*
X0352246Y0201577D01*
X0350647Y0203175D02*
X0354609Y0203175D01*
X0355336Y0204774D02*
X0349049Y0204774D01*
X0347450Y0206372D02*
X0356464Y0206372D01*
X0358180Y0207971D02*
X0345852Y0207971D01*
X0345370Y0211168D02*
X0382000Y0211168D01*
X0382000Y0210685D02*
X0372525Y0210685D01*
X0372630Y0209757D01*
X0372887Y0208629D01*
X0373269Y0207537D01*
X0373771Y0206495D01*
X0374386Y0205515D01*
X0375108Y0204611D01*
X0375926Y0203793D01*
X0376830Y0203072D01*
X0377810Y0202456D01*
X0378852Y0201954D01*
X0379944Y0201572D01*
X0381072Y0201315D01*
X0382000Y0201210D01*
X0382000Y0210685D01*
X0383600Y0210685D01*
X0383600Y0201210D01*
X0384528Y0201315D01*
X0385656Y0201572D01*
X0386748Y0201954D01*
X0387790Y0202456D01*
X0388770Y0203072D01*
X0389674Y0203793D01*
X0390492Y0204611D01*
X0391214Y0205515D01*
X0391829Y0206495D01*
X0392331Y0207537D01*
X0392713Y0208629D01*
X0392970Y0209757D01*
X0393075Y0210685D01*
X0383600Y0210685D01*
X0383600Y0212285D01*
X0393075Y0212285D01*
X0392970Y0213213D01*
X0392713Y0214341D01*
X0392331Y0215433D01*
X0391829Y0216475D01*
X0391214Y0217455D01*
X0390492Y0218359D01*
X0389674Y0219177D01*
X0388770Y0219899D01*
X0387790Y0220514D01*
X0386748Y0221016D01*
X0385656Y0221398D01*
X0384528Y0221655D01*
X0383600Y0221760D01*
X0383600Y0212285D01*
X0382000Y0212285D01*
X0382000Y0210685D01*
X0382000Y0209569D02*
X0383600Y0209569D01*
X0383600Y0207971D02*
X0382000Y0207971D01*
X0382000Y0206372D02*
X0383600Y0206372D01*
X0383600Y0204774D02*
X0382000Y0204774D01*
X0382000Y0203175D02*
X0383600Y0203175D01*
X0383600Y0201577D02*
X0382000Y0201577D01*
X0379931Y0201577D02*
X0374427Y0201577D01*
X0373983Y0203175D02*
X0376700Y0203175D01*
X0374978Y0204774D02*
X0373256Y0204774D01*
X0373848Y0206372D02*
X0372129Y0206372D01*
X0373117Y0207971D02*
X0370412Y0207971D01*
X0372672Y0209569D02*
X0367203Y0209569D01*
X0372525Y0212285D02*
X0382000Y0212285D01*
X0382000Y0221760D01*
X0381072Y0221655D01*
X0379944Y0221398D01*
X0378852Y0221016D01*
X0377810Y0220514D01*
X0376830Y0219899D01*
X0375926Y0219177D01*
X0375108Y0218359D01*
X0374386Y0217455D01*
X0373771Y0216475D01*
X0373269Y0215433D01*
X0372887Y0214341D01*
X0372630Y0213213D01*
X0372525Y0212285D01*
X0372579Y0212766D02*
X0346821Y0212766D01*
X0347483Y0214365D02*
X0372895Y0214365D01*
X0373524Y0215963D02*
X0347600Y0215963D01*
X0347348Y0217562D02*
X0374472Y0217562D01*
X0375909Y0219160D02*
X0346642Y0219160D01*
X0344984Y0220759D02*
X0378318Y0220759D01*
X0382000Y0220759D02*
X0383600Y0220759D01*
X0383600Y0219160D02*
X0382000Y0219160D01*
X0382000Y0217562D02*
X0383600Y0217562D01*
X0383600Y0215963D02*
X0382000Y0215963D01*
X0382000Y0214365D02*
X0383600Y0214365D01*
X0383600Y0212766D02*
X0382000Y0212766D01*
X0383600Y0211168D02*
X0405214Y0211168D01*
X0405200Y0211078D02*
X0405200Y0210900D01*
X0412800Y0210900D01*
X0412800Y0215500D01*
X0409622Y0215500D01*
X0408876Y0215382D01*
X0408157Y0215148D01*
X0407484Y0214805D01*
X0406873Y0214361D01*
X0406339Y0213827D01*
X0405895Y0213216D01*
X0405552Y0212543D01*
X0405318Y0211824D01*
X0405200Y0211078D01*
X0405200Y0210500D02*
X0405200Y0210322D01*
X0405318Y0209576D01*
X0405552Y0208857D01*
X0405895Y0208184D01*
X0406339Y0207573D01*
X0406873Y0207039D01*
X0407484Y0206595D01*
X0408157Y0206252D01*
X0408876Y0206018D01*
X0409622Y0205900D01*
X0412800Y0205900D01*
X0412800Y0210500D01*
X0413200Y0210500D01*
X0413200Y0210900D01*
X0412800Y0210900D01*
X0412800Y0210500D01*
X0405200Y0210500D01*
X0405320Y0209569D02*
X0392928Y0209569D01*
X0392483Y0207971D02*
X0406050Y0207971D01*
X0407921Y0206372D02*
X0391752Y0206372D01*
X0390622Y0204774D02*
X0449055Y0204774D01*
X0449055Y0205609D02*
X0449055Y0198196D01*
X0449424Y0197306D01*
X0449424Y0191646D01*
X0414472Y0156695D01*
X0414257Y0156606D01*
X0412994Y0155343D01*
X0412311Y0153693D01*
X0412311Y0151907D01*
X0412400Y0151692D01*
X0412400Y0126637D01*
X0412222Y0126459D01*
X0411800Y0125440D01*
X0411378Y0126459D01*
X0409859Y0127978D01*
X0407874Y0128800D01*
X0405726Y0128800D01*
X0403741Y0127978D01*
X0402222Y0126459D01*
X0401800Y0125440D01*
X0401378Y0126459D01*
X0399859Y0127978D01*
X0397874Y0128800D01*
X0395726Y0128800D01*
X0393741Y0127978D01*
X0392222Y0126459D01*
X0391800Y0125440D01*
X0391378Y0126459D01*
X0389859Y0127978D01*
X0387874Y0128800D01*
X0385726Y0128800D01*
X0383741Y0127978D01*
X0382222Y0126459D01*
X0381400Y0124474D01*
X0381400Y0117126D01*
X0382222Y0115141D01*
X0383741Y0113622D01*
X0385726Y0112800D01*
X0387874Y0112800D01*
X0389859Y0113622D01*
X0391378Y0115141D01*
X0391800Y0116160D01*
X0392222Y0115141D01*
X0393741Y0113622D01*
X0395726Y0112800D01*
X0397874Y0112800D01*
X0399859Y0113622D01*
X0401378Y0115141D01*
X0401800Y0116160D01*
X0402222Y0115141D01*
X0403741Y0113622D01*
X0405726Y0112800D01*
X0407874Y0112800D01*
X0409859Y0113622D01*
X0411378Y0115141D01*
X0411800Y0116160D01*
X0412222Y0115141D01*
X0413741Y0113622D01*
X0415726Y0112800D01*
X0417874Y0112800D01*
X0419859Y0113622D01*
X0421378Y0115141D01*
X0421800Y0116160D01*
X0422222Y0115141D01*
X0423741Y0113622D01*
X0425726Y0112800D01*
X0427874Y0112800D01*
X0429859Y0113622D01*
X0431378Y0115141D01*
X0431800Y0116160D01*
X0432222Y0115141D01*
X0433741Y0113622D01*
X0435726Y0112800D01*
X0437874Y0112800D01*
X0438464Y0113044D01*
X0454200Y0097309D01*
X0454200Y0052548D01*
X0453994Y0052343D01*
X0453311Y0050693D01*
X0453311Y0048907D01*
X0453994Y0047257D01*
X0455257Y0045994D01*
X0456907Y0045311D01*
X0458693Y0045311D01*
X0460343Y0045994D01*
X0461606Y0047257D01*
X0462289Y0048907D01*
X0462289Y0050693D01*
X0461606Y0052343D01*
X0461400Y0052548D01*
X0461400Y0099516D01*
X0460852Y0100839D01*
X0448593Y0113098D01*
X0449859Y0113622D01*
X0451378Y0115141D01*
X0452200Y0117126D01*
X0452200Y0124474D01*
X0451378Y0126459D01*
X0449859Y0127978D01*
X0447874Y0128800D01*
X0445726Y0128800D01*
X0443741Y0127978D01*
X0442222Y0126459D01*
X0441800Y0125440D01*
X0441378Y0126459D01*
X0439859Y0127978D01*
X0437874Y0128800D01*
X0435726Y0128800D01*
X0433741Y0127978D01*
X0432222Y0126459D01*
X0431800Y0125440D01*
X0431378Y0126459D01*
X0429859Y0127978D01*
X0427874Y0128800D01*
X0425726Y0128800D01*
X0423741Y0127978D01*
X0422222Y0126459D01*
X0421800Y0125440D01*
X0421378Y0126459D01*
X0421200Y0126637D01*
X0421200Y0150977D01*
X0423400Y0153177D01*
X0423400Y0136908D01*
X0423311Y0136693D01*
X0423311Y0134907D01*
X0423994Y0133257D01*
X0425257Y0131994D01*
X0426907Y0131311D01*
X0428693Y0131311D01*
X0430343Y0131994D01*
X0431606Y0133257D01*
X0432289Y0134907D01*
X0432289Y0136693D01*
X0432200Y0136908D01*
X0432200Y0151977D01*
X0434871Y0154649D01*
X0435400Y0154120D01*
X0435400Y0152872D01*
X0435064Y0152733D01*
X0434277Y0151945D01*
X0433850Y0150916D01*
X0433850Y0144684D01*
X0434109Y0144060D01*
X0433850Y0143436D01*
X0433850Y0137204D01*
X0434277Y0136175D01*
X0435064Y0135387D01*
X0436093Y0134961D01*
X0443507Y0134961D01*
X0444536Y0135387D01*
X0445323Y0136175D01*
X0445549Y0136720D01*
X0461036Y0136720D01*
X0462359Y0137268D01*
X0468839Y0143748D01*
X0469852Y0144761D01*
X0470400Y0146084D01*
X0470400Y0146277D01*
X0470622Y0145741D01*
X0472141Y0144222D01*
X0474126Y0143400D01*
X0481474Y0143400D01*
X0483459Y0144222D01*
X0484978Y0145741D01*
X0485800Y0147726D01*
X0485800Y0149874D01*
X0484978Y0151859D01*
X0483459Y0153378D01*
X0482440Y0153800D01*
X0483459Y0154222D01*
X0484978Y0155741D01*
X0485800Y0157726D01*
X0485800Y0159874D01*
X0484978Y0161859D01*
X0483459Y0163378D01*
X0481474Y0164200D01*
X0474126Y0164200D01*
X0472141Y0163378D01*
X0471163Y0162400D01*
X0471084Y0162400D01*
X0469761Y0161852D01*
X0468748Y0160839D01*
X0463748Y0155839D01*
X0463200Y0154516D01*
X0463200Y0148291D01*
X0458829Y0143920D01*
X0445549Y0143920D01*
X0445491Y0144060D01*
X0445750Y0144684D01*
X0445750Y0150916D01*
X0445323Y0151945D01*
X0444536Y0152733D01*
X0444200Y0152872D01*
X0444200Y0156817D01*
X0443530Y0158435D01*
X0441094Y0160871D01*
X0475507Y0195284D01*
X0476176Y0196901D01*
X0476176Y0197306D01*
X0476545Y0198196D01*
X0476545Y0205609D01*
X0476119Y0206638D01*
X0475331Y0207426D01*
X0474302Y0207852D01*
X0469251Y0207852D01*
X0468222Y0207426D01*
X0467434Y0206638D01*
X0467008Y0205609D01*
X0467008Y0199230D01*
X0458224Y0190446D01*
X0458224Y0197306D01*
X0458592Y0198196D01*
X0458592Y0205609D01*
X0458166Y0206638D01*
X0457378Y0207426D01*
X0456349Y0207852D01*
X0451298Y0207852D01*
X0450269Y0207426D01*
X0449481Y0206638D01*
X0449055Y0205609D01*
X0449371Y0206372D02*
X0443679Y0206372D01*
X0443443Y0206252D02*
X0444116Y0206595D01*
X0444727Y0207039D01*
X0445261Y0207573D01*
X0445705Y0208184D01*
X0446048Y0208857D01*
X0446282Y0209576D01*
X0446400Y0210322D01*
X0446400Y0210500D01*
X0438800Y0210500D01*
X0438800Y0210900D01*
X0438400Y0210900D01*
X0438400Y0215500D01*
X0435222Y0215500D01*
X0434476Y0215382D01*
X0433757Y0215148D01*
X0433084Y0214805D01*
X0432473Y0214361D01*
X0431939Y0213827D01*
X0431495Y0213216D01*
X0431152Y0212543D01*
X0430918Y0211824D01*
X0430800Y0211078D01*
X0430800Y0210900D01*
X0438400Y0210900D01*
X0438400Y0210500D01*
X0438800Y0210500D01*
X0438800Y0205900D01*
X0441978Y0205900D01*
X0442724Y0206018D01*
X0443443Y0206252D01*
X0445550Y0207971D02*
X0567800Y0207971D01*
X0567800Y0209569D02*
X0446280Y0209569D01*
X0446400Y0210900D02*
X0438800Y0210900D01*
X0438800Y0215500D01*
X0441978Y0215500D01*
X0442724Y0215382D01*
X0443443Y0215148D01*
X0444116Y0214805D01*
X0444727Y0214361D01*
X0445261Y0213827D01*
X0445705Y0213216D01*
X0446048Y0212543D01*
X0446282Y0211824D01*
X0446400Y0211078D01*
X0446400Y0210900D01*
X0446386Y0211168D02*
X0567800Y0211168D01*
X0567800Y0212766D02*
X0445934Y0212766D01*
X0444722Y0214365D02*
X0567800Y0214365D01*
X0567800Y0215963D02*
X0392076Y0215963D01*
X0392705Y0214365D02*
X0406878Y0214365D01*
X0405666Y0212766D02*
X0393021Y0212766D01*
X0391128Y0217562D02*
X0450597Y0217562D01*
X0450493Y0217743D02*
X0450730Y0217333D01*
X0451065Y0216997D01*
X0451475Y0216760D01*
X0451933Y0216638D01*
X0462000Y0216638D01*
X0462000Y0229842D01*
X0463600Y0229842D01*
X0463600Y0216638D01*
X0473667Y0216638D01*
X0474125Y0216760D01*
X0474535Y0216997D01*
X0474870Y0217333D01*
X0475107Y0217743D01*
X0475230Y0218201D01*
X0475230Y0229843D01*
X0463600Y0229843D01*
X0463600Y0231442D01*
X0475230Y0231442D01*
X0475230Y0243084D01*
X0475107Y0243542D01*
X0474870Y0243952D01*
X0474535Y0244288D01*
X0474125Y0244525D01*
X0473667Y0244647D01*
X0463600Y0244647D01*
X0463600Y0231443D01*
X0462000Y0231443D01*
X0462000Y0244647D01*
X0451933Y0244647D01*
X0451475Y0244525D01*
X0451065Y0244288D01*
X0450730Y0243952D01*
X0450493Y0243542D01*
X0450370Y0243084D01*
X0450370Y0231442D01*
X0462000Y0231442D01*
X0462000Y0229843D01*
X0450370Y0229843D01*
X0450370Y0218201D01*
X0450493Y0217743D01*
X0450370Y0219160D02*
X0389691Y0219160D01*
X0387282Y0220759D02*
X0450370Y0220759D01*
X0450370Y0222357D02*
X0346560Y0222357D01*
X0347314Y0223956D02*
X0450370Y0223956D01*
X0450370Y0225554D02*
X0347600Y0225554D01*
X0347517Y0227153D02*
X0450370Y0227153D01*
X0450370Y0228751D02*
X0346855Y0228751D01*
X0345453Y0230350D02*
X0462000Y0230350D01*
X0462000Y0231948D02*
X0463600Y0231948D01*
X0463600Y0230350D02*
X0567800Y0230350D01*
X0567800Y0231948D02*
X0475230Y0231948D01*
X0475230Y0233547D02*
X0567800Y0233547D01*
X0567800Y0235145D02*
X0475230Y0235145D01*
X0475230Y0236744D02*
X0567800Y0236744D01*
X0567800Y0238342D02*
X0475230Y0238342D01*
X0475230Y0239941D02*
X0567800Y0239941D01*
X0567800Y0241539D02*
X0475230Y0241539D01*
X0475216Y0243138D02*
X0567800Y0243138D01*
X0567800Y0244737D02*
X0006800Y0244737D01*
X0006800Y0246335D02*
X0567800Y0246335D01*
X0567800Y0228751D02*
X0475230Y0228751D01*
X0475230Y0227153D02*
X0567800Y0227153D01*
X0567800Y0225554D02*
X0475230Y0225554D01*
X0475230Y0223956D02*
X0567800Y0223956D01*
X0567800Y0222357D02*
X0475230Y0222357D01*
X0475230Y0220759D02*
X0567800Y0220759D01*
X0567800Y0219160D02*
X0475230Y0219160D01*
X0475003Y0217562D02*
X0567800Y0217562D01*
X0567800Y0206372D02*
X0476229Y0206372D01*
X0476545Y0204774D02*
X0567800Y0204774D01*
X0567800Y0203175D02*
X0476545Y0203175D01*
X0476545Y0201577D02*
X0567800Y0201577D01*
X0567800Y0199978D02*
X0476545Y0199978D01*
X0476545Y0198380D02*
X0567800Y0198380D01*
X0567800Y0196781D02*
X0476127Y0196781D01*
X0475405Y0195183D02*
X0567800Y0195183D01*
X0567800Y0193584D02*
X0473807Y0193584D01*
X0472208Y0191986D02*
X0567800Y0191986D01*
X0567800Y0190387D02*
X0470610Y0190387D01*
X0469011Y0188789D02*
X0567800Y0188789D01*
X0567800Y0187190D02*
X0467413Y0187190D01*
X0465814Y0185592D02*
X0567800Y0185592D01*
X0567800Y0183993D02*
X0464216Y0183993D01*
X0462617Y0182395D02*
X0567800Y0182395D01*
X0567800Y0180796D02*
X0461019Y0180796D01*
X0459420Y0179198D02*
X0567800Y0179198D01*
X0567800Y0177599D02*
X0457822Y0177599D01*
X0456223Y0176001D02*
X0567800Y0176001D01*
X0567800Y0174402D02*
X0454625Y0174402D01*
X0453026Y0172803D02*
X0567800Y0172803D01*
X0567800Y0171205D02*
X0451428Y0171205D01*
X0449829Y0169606D02*
X0567800Y0169606D01*
X0567800Y0168008D02*
X0448230Y0168008D01*
X0446632Y0166409D02*
X0567800Y0166409D01*
X0567800Y0164811D02*
X0460205Y0164811D01*
X0460146Y0164870D02*
X0462484Y0162532D01*
X0463750Y0159477D01*
X0463750Y0156170D01*
X0462484Y0153115D01*
X0460146Y0150777D01*
X0457091Y0149512D01*
X0453784Y0149512D01*
X0450730Y0150777D01*
X0448391Y0153115D01*
X0447126Y0156170D01*
X0447126Y0159477D01*
X0448391Y0162532D01*
X0450730Y0164870D01*
X0453784Y0166135D01*
X0457091Y0166135D01*
X0460146Y0164870D01*
X0461804Y0163212D02*
X0471976Y0163212D01*
X0469523Y0161614D02*
X0462864Y0161614D01*
X0463527Y0160015D02*
X0467924Y0160015D01*
X0466326Y0158417D02*
X0463750Y0158417D01*
X0463750Y0156818D02*
X0464727Y0156818D01*
X0463492Y0155220D02*
X0463356Y0155220D01*
X0463200Y0153621D02*
X0462694Y0153621D01*
X0463200Y0152023D02*
X0461392Y0152023D01*
X0463200Y0150424D02*
X0459294Y0150424D01*
X0463200Y0148826D02*
X0445750Y0148826D01*
X0445750Y0150424D02*
X0451581Y0150424D01*
X0449484Y0152023D02*
X0445246Y0152023D01*
X0444200Y0153621D02*
X0448182Y0153621D01*
X0447520Y0155220D02*
X0444200Y0155220D01*
X0444200Y0156818D02*
X0447126Y0156818D01*
X0447126Y0158417D02*
X0443537Y0158417D01*
X0441949Y0160015D02*
X0447349Y0160015D01*
X0448011Y0161614D02*
X0441836Y0161614D01*
X0443435Y0163212D02*
X0449072Y0163212D01*
X0450670Y0164811D02*
X0445033Y0164811D01*
X0428982Y0171205D02*
X0416600Y0171205D01*
X0416600Y0172803D02*
X0430581Y0172803D01*
X0432179Y0174402D02*
X0416600Y0174402D01*
X0416600Y0176001D02*
X0433778Y0176001D01*
X0435377Y0177599D02*
X0416600Y0177599D01*
X0416600Y0179198D02*
X0436975Y0179198D01*
X0438574Y0180796D02*
X0416600Y0180796D01*
X0416600Y0182395D02*
X0440172Y0182395D01*
X0441771Y0183993D02*
X0416600Y0183993D01*
X0416600Y0185592D02*
X0443369Y0185592D01*
X0442754Y0187100D02*
X0444885Y0187983D01*
X0446517Y0189615D01*
X0447400Y0191746D01*
X0447400Y0194054D01*
X0446517Y0196185D01*
X0444885Y0197817D01*
X0442754Y0198700D01*
X0434446Y0198700D01*
X0432315Y0197817D01*
X0430683Y0196185D01*
X0429800Y0194054D01*
X0429800Y0191746D01*
X0430683Y0189615D01*
X0432315Y0187983D01*
X0434446Y0187100D01*
X0442754Y0187100D01*
X0442971Y0187190D02*
X0444968Y0187190D01*
X0445691Y0188789D02*
X0446566Y0188789D01*
X0446837Y0190387D02*
X0448165Y0190387D01*
X0447400Y0191986D02*
X0449424Y0191986D01*
X0449424Y0193584D02*
X0447400Y0193584D01*
X0446932Y0195183D02*
X0449424Y0195183D01*
X0449424Y0196781D02*
X0445921Y0196781D01*
X0443527Y0198380D02*
X0449055Y0198380D01*
X0449055Y0199978D02*
X0365096Y0199978D01*
X0365096Y0198380D02*
X0363496Y0198380D01*
X0363496Y0196781D02*
X0365096Y0196781D01*
X0365096Y0195183D02*
X0363496Y0195183D01*
X0363496Y0193584D02*
X0365096Y0193584D01*
X0365096Y0191986D02*
X0363496Y0191986D01*
X0363496Y0190387D02*
X0365096Y0190387D01*
X0368751Y0190387D02*
X0371778Y0190387D01*
X0371500Y0188789D02*
X0355034Y0188789D01*
X0354200Y0190387D02*
X0359841Y0190387D01*
X0357418Y0191986D02*
X0354200Y0191986D01*
X0354200Y0193584D02*
X0355978Y0193584D01*
X0355027Y0195183D02*
X0354200Y0195183D01*
X0354200Y0196781D02*
X0354396Y0196781D01*
X0337800Y0196781D02*
X0337800Y0196781D01*
X0337800Y0195183D02*
X0337800Y0195183D01*
X0337800Y0193584D02*
X0337800Y0193584D01*
X0334781Y0196781D02*
X0333200Y0196781D01*
X0319400Y0196781D02*
X0313819Y0196781D01*
X0315418Y0195183D02*
X0319400Y0195183D01*
X0319400Y0193584D02*
X0315750Y0193584D01*
X0315750Y0191986D02*
X0319400Y0191986D01*
X0319400Y0190387D02*
X0315387Y0190387D01*
X0313789Y0188789D02*
X0318566Y0188789D01*
X0310800Y0193584D02*
X0310800Y0193584D01*
X0310800Y0195183D02*
X0310800Y0195183D01*
X0310800Y0196781D02*
X0310800Y0196781D01*
X0307781Y0196781D02*
X0292176Y0196781D01*
X0292176Y0195183D02*
X0306182Y0195183D01*
X0305850Y0193584D02*
X0292238Y0193584D01*
X0293837Y0191986D02*
X0305850Y0191986D01*
X0306213Y0190387D02*
X0295435Y0190387D01*
X0297034Y0188789D02*
X0307811Y0188789D01*
X0323019Y0180796D02*
X0324400Y0180796D01*
X0324400Y0179198D02*
X0321420Y0179198D01*
X0333200Y0177599D02*
X0334808Y0177599D01*
X0334421Y0174402D02*
X0351500Y0174402D01*
X0351500Y0172803D02*
X0336019Y0172803D01*
X0337618Y0171205D02*
X0350112Y0171205D01*
X0349950Y0169606D02*
X0339216Y0169606D01*
X0340815Y0168008D02*
X0349950Y0168008D01*
X0349950Y0166409D02*
X0342413Y0166409D01*
X0344012Y0164811D02*
X0349950Y0164811D01*
X0349950Y0163212D02*
X0345610Y0163212D01*
X0346811Y0161614D02*
X0349950Y0161614D01*
X0349950Y0160015D02*
X0347200Y0160015D01*
X0347200Y0158417D02*
X0349950Y0158417D01*
X0350069Y0156818D02*
X0347200Y0156818D01*
X0347200Y0155220D02*
X0351326Y0155220D01*
X0347200Y0153621D02*
X0362200Y0153621D01*
X0362200Y0152023D02*
X0354926Y0152023D01*
X0355986Y0150424D02*
X0362076Y0150424D01*
X0361366Y0148826D02*
X0356289Y0148826D01*
X0356007Y0147227D02*
X0361311Y0147227D01*
X0358538Y0145629D02*
X0354977Y0145629D01*
X0356939Y0144030D02*
X0348324Y0144030D01*
X0347750Y0142432D02*
X0355341Y0142432D01*
X0353742Y0140833D02*
X0347750Y0140833D01*
X0347750Y0139820D02*
X0343280Y0139820D01*
X0343280Y0135941D01*
X0346187Y0135941D01*
X0346644Y0136064D01*
X0347055Y0136301D01*
X0347390Y0136636D01*
X0347627Y0137046D01*
X0347750Y0137504D01*
X0347750Y0139820D01*
X0347750Y0139235D02*
X0352144Y0139235D01*
X0350545Y0137636D02*
X0347750Y0137636D01*
X0348947Y0136038D02*
X0346548Y0136038D01*
X0347348Y0134439D02*
X0315400Y0134439D01*
X0315400Y0132841D02*
X0345750Y0132841D01*
X0344151Y0131242D02*
X0315400Y0131242D01*
X0315400Y0129644D02*
X0319968Y0129644D01*
X0317418Y0128045D02*
X0316182Y0128045D01*
X0323632Y0129644D02*
X0329968Y0129644D01*
X0327418Y0128045D02*
X0326182Y0128045D01*
X0321800Y0123800D02*
X0321800Y0106800D01*
X0326945Y0101655D01*
X0327800Y0100800D01*
X0352800Y0100800D01*
X0359800Y0093800D01*
X0359800Y0072800D01*
X0368800Y0063800D01*
X0368800Y0048800D01*
X0372400Y0051548D02*
X0372400Y0056521D01*
X0372907Y0056311D01*
X0374693Y0056311D01*
X0376162Y0056920D01*
X0377532Y0056920D01*
X0378064Y0056387D01*
X0378228Y0056319D01*
X0375748Y0053839D01*
X0375200Y0052516D01*
X0375200Y0037344D01*
X0375118Y0037310D01*
X0373800Y0035992D01*
X0372482Y0037310D01*
X0370093Y0038300D01*
X0367507Y0038300D01*
X0365118Y0037310D01*
X0363290Y0035482D01*
X0363157Y0035161D01*
X0362995Y0035383D01*
X0362383Y0035995D01*
X0361683Y0036504D01*
X0360911Y0036897D01*
X0360088Y0037165D01*
X0359233Y0037300D01*
X0359000Y0037300D01*
X0359000Y0032000D01*
X0358600Y0032000D01*
X0358600Y0037300D01*
X0358367Y0037300D01*
X0357512Y0037165D01*
X0356689Y0036897D01*
X0355917Y0036504D01*
X0355217Y0035995D01*
X0354605Y0035383D01*
X0354096Y0034683D01*
X0353703Y0033911D01*
X0353435Y0033088D01*
X0353300Y0032233D01*
X0353300Y0032000D01*
X0358600Y0032000D01*
X0358600Y0031600D01*
X0359000Y0031600D01*
X0359000Y0026300D01*
X0359233Y0026300D01*
X0360088Y0026435D01*
X0360911Y0026703D01*
X0361683Y0027096D01*
X0362383Y0027605D01*
X0362995Y0028217D01*
X0363157Y0028439D01*
X0363290Y0028118D01*
X0365118Y0026290D01*
X0367507Y0025300D01*
X0370093Y0025300D01*
X0372482Y0026290D01*
X0373800Y0027608D01*
X0375118Y0026290D01*
X0377507Y0025300D01*
X0380093Y0025300D01*
X0382482Y0026290D01*
X0383800Y0027608D01*
X0385118Y0026290D01*
X0387507Y0025300D01*
X0390093Y0025300D01*
X0392482Y0026290D01*
X0393800Y0027608D01*
X0395118Y0026290D01*
X0397507Y0025300D01*
X0400093Y0025300D01*
X0402482Y0026290D01*
X0403800Y0027608D01*
X0405118Y0026290D01*
X0407507Y0025300D01*
X0410093Y0025300D01*
X0412482Y0026290D01*
X0414310Y0028118D01*
X0415300Y0030507D01*
X0415300Y0033093D01*
X0414310Y0035482D01*
X0412482Y0037310D01*
X0410093Y0038300D01*
X0407507Y0038300D01*
X0407425Y0038266D01*
X0396400Y0049291D01*
X0396400Y0055441D01*
X0396507Y0055441D01*
X0397536Y0055867D01*
X0398323Y0056655D01*
X0398750Y0057684D01*
X0398750Y0063916D01*
X0398410Y0064737D01*
X0398601Y0065200D01*
X0412309Y0065200D01*
X0418200Y0059309D01*
X0418200Y0017548D01*
X0418200Y0019346D02*
X0141438Y0019346D01*
X0140852Y0018761D02*
X0145852Y0023761D01*
X0146400Y0025084D01*
X0146400Y0075309D01*
X0149291Y0078200D01*
X0182563Y0078200D01*
X0181400Y0077037D01*
X0181400Y0072563D01*
X0184563Y0069400D01*
X0189037Y0069400D01*
X0192200Y0072563D01*
X0192200Y0077037D01*
X0191037Y0078200D01*
X0197563Y0078200D01*
X0196400Y0077037D01*
X0196400Y0072563D01*
X0199563Y0069400D01*
X0204037Y0069400D01*
X0207200Y0072563D01*
X0207200Y0077037D01*
X0206037Y0078200D01*
X0212563Y0078200D01*
X0211400Y0077037D01*
X0211400Y0072563D01*
X0214563Y0069400D01*
X0219037Y0069400D01*
X0222200Y0072563D01*
X0222200Y0077037D01*
X0221037Y0078200D01*
X0227563Y0078200D01*
X0226400Y0077037D01*
X0226400Y0072563D01*
X0229563Y0069400D01*
X0234037Y0069400D01*
X0237200Y0072563D01*
X0237200Y0077037D01*
X0235884Y0078352D01*
X0236839Y0078748D01*
X0237852Y0079761D01*
X0243504Y0085413D01*
X0243504Y0084280D01*
X0247383Y0084280D01*
X0247383Y0088750D01*
X0245400Y0088750D01*
X0245400Y0088773D01*
X0246800Y0090173D01*
X0248343Y0088631D01*
X0248343Y0084280D01*
X0247383Y0084280D01*
X0247383Y0083320D01*
X0243504Y0083320D01*
X0243504Y0080413D01*
X0243627Y0079956D01*
X0243864Y0079545D01*
X0243886Y0079523D01*
X0241400Y0077037D01*
X0241400Y0072563D01*
X0244563Y0069400D01*
X0249037Y0069400D01*
X0252200Y0072563D01*
X0252200Y0077037D01*
X0250386Y0078850D01*
X0250659Y0078850D01*
X0250942Y0078926D01*
X0251592Y0078277D01*
X0252621Y0077850D01*
X0257214Y0077850D01*
X0256400Y0077037D01*
X0256400Y0072563D01*
X0259563Y0069400D01*
X0264037Y0069400D01*
X0267200Y0072563D01*
X0267200Y0077037D01*
X0266837Y0077400D01*
X0271763Y0077400D01*
X0271400Y0077037D01*
X0271400Y0072563D01*
X0274563Y0069400D01*
X0279037Y0069400D01*
X0282200Y0072563D01*
X0282200Y0077037D01*
X0281837Y0077400D01*
X0285692Y0077400D01*
X0285907Y0077311D01*
X0286674Y0077311D01*
X0286400Y0077037D01*
X0286400Y0072563D01*
X0289563Y0069400D01*
X0294037Y0069400D01*
X0297200Y0072563D01*
X0297200Y0077037D01*
X0295400Y0078837D01*
X0295400Y0088773D01*
X0296800Y0090173D01*
X0298345Y0088629D01*
X0300587Y0087700D01*
X0303013Y0087700D01*
X0305255Y0088629D01*
X0306800Y0090173D01*
X0308345Y0088629D01*
X0310587Y0087700D01*
X0313013Y0087700D01*
X0315255Y0088629D01*
X0316800Y0090173D01*
X0318345Y0088629D01*
X0320587Y0087700D01*
X0323013Y0087700D01*
X0325255Y0088629D01*
X0326800Y0090173D01*
X0328345Y0088629D01*
X0330587Y0087700D01*
X0333013Y0087700D01*
X0335255Y0088629D01*
X0336800Y0090173D01*
X0338345Y0088629D01*
X0340587Y0087700D01*
X0343013Y0087700D01*
X0345255Y0088629D01*
X0346200Y0089573D01*
X0346200Y0042548D01*
X0345994Y0042343D01*
X0345311Y0040693D01*
X0345311Y0038907D01*
X0345994Y0037257D01*
X0347257Y0035994D01*
X0348907Y0035311D01*
X0350693Y0035311D01*
X0352343Y0035994D01*
X0353606Y0037257D01*
X0354289Y0038907D01*
X0354289Y0040693D01*
X0353606Y0042343D01*
X0353400Y0042548D01*
X0353400Y0091052D01*
X0353606Y0091257D01*
X0354289Y0092907D01*
X0354289Y0094220D01*
X0356200Y0092309D01*
X0356200Y0072084D01*
X0356748Y0070761D01*
X0357761Y0069748D01*
X0365200Y0062309D01*
X0365200Y0051548D01*
X0364994Y0051343D01*
X0364311Y0049693D01*
X0364311Y0047907D01*
X0364994Y0046257D01*
X0366257Y0044994D01*
X0367907Y0044311D01*
X0369693Y0044311D01*
X0371343Y0044994D01*
X0372606Y0046257D01*
X0373289Y0047907D01*
X0373289Y0049693D01*
X0372606Y0051343D01*
X0372400Y0051548D01*
X0372616Y0051317D02*
X0375200Y0051317D01*
X0375200Y0049718D02*
X0373279Y0049718D01*
X0373289Y0048120D02*
X0375200Y0048120D01*
X0375200Y0046521D02*
X0372715Y0046521D01*
X0371169Y0044923D02*
X0375200Y0044923D01*
X0375200Y0043324D02*
X0353400Y0043324D01*
X0353400Y0044923D02*
X0366431Y0044923D01*
X0364885Y0046521D02*
X0353400Y0046521D01*
X0353400Y0048120D02*
X0364311Y0048120D01*
X0364321Y0049718D02*
X0353400Y0049718D01*
X0353400Y0051317D02*
X0364984Y0051317D01*
X0365200Y0052915D02*
X0353400Y0052915D01*
X0353400Y0054514D02*
X0365200Y0054514D01*
X0365200Y0056112D02*
X0353400Y0056112D01*
X0353400Y0057711D02*
X0365200Y0057711D01*
X0365200Y0059309D02*
X0353400Y0059309D01*
X0353400Y0060908D02*
X0365200Y0060908D01*
X0365003Y0062506D02*
X0353400Y0062506D01*
X0353400Y0064105D02*
X0363404Y0064105D01*
X0361806Y0065703D02*
X0353400Y0065703D01*
X0353400Y0067302D02*
X0360207Y0067302D01*
X0358609Y0068900D02*
X0353400Y0068900D01*
X0353400Y0070499D02*
X0357010Y0070499D01*
X0356200Y0072097D02*
X0353400Y0072097D01*
X0353400Y0073696D02*
X0356200Y0073696D01*
X0356200Y0075294D02*
X0353400Y0075294D01*
X0353400Y0076893D02*
X0356200Y0076893D01*
X0356200Y0078491D02*
X0353400Y0078491D01*
X0353400Y0080090D02*
X0356200Y0080090D01*
X0356200Y0081688D02*
X0353400Y0081688D01*
X0353400Y0083287D02*
X0356200Y0083287D01*
X0356200Y0084885D02*
X0353400Y0084885D01*
X0353400Y0086484D02*
X0356200Y0086484D01*
X0356200Y0088082D02*
X0353400Y0088082D01*
X0353400Y0089681D02*
X0356200Y0089681D01*
X0356200Y0091279D02*
X0353615Y0091279D01*
X0354277Y0092878D02*
X0355631Y0092878D01*
X0349800Y0093800D02*
X0349800Y0039800D01*
X0345739Y0041726D02*
X0165968Y0041726D01*
X0164870Y0042823D02*
X0161816Y0044088D01*
X0158509Y0044088D01*
X0155454Y0042823D01*
X0153116Y0040485D01*
X0151850Y0037430D01*
X0151850Y0034123D01*
X0153116Y0031068D01*
X0155454Y0028730D01*
X0158509Y0027465D01*
X0161816Y0027465D01*
X0164870Y0028730D01*
X0167209Y0031068D01*
X0168474Y0034123D01*
X0168474Y0037430D01*
X0167209Y0040485D01*
X0164870Y0042823D01*
X0163660Y0043324D02*
X0346200Y0043324D01*
X0346200Y0044923D02*
X0146400Y0044923D01*
X0146400Y0046521D02*
X0346200Y0046521D01*
X0346200Y0048120D02*
X0146400Y0048120D01*
X0146400Y0049718D02*
X0346200Y0049718D01*
X0346200Y0051317D02*
X0146400Y0051317D01*
X0146400Y0052915D02*
X0346200Y0052915D01*
X0346200Y0054514D02*
X0146400Y0054514D01*
X0146400Y0056112D02*
X0346200Y0056112D01*
X0346200Y0057711D02*
X0146400Y0057711D01*
X0146400Y0059309D02*
X0346200Y0059309D01*
X0346200Y0060908D02*
X0146400Y0060908D01*
X0146400Y0062506D02*
X0346200Y0062506D01*
X0346200Y0064105D02*
X0146400Y0064105D01*
X0146400Y0065703D02*
X0346200Y0065703D01*
X0346200Y0067302D02*
X0146400Y0067302D01*
X0146400Y0068900D02*
X0346200Y0068900D01*
X0346200Y0070499D02*
X0325136Y0070499D01*
X0324037Y0069400D02*
X0327200Y0072563D01*
X0327200Y0077037D01*
X0324037Y0080200D01*
X0319563Y0080200D01*
X0316400Y0077037D01*
X0316400Y0072563D01*
X0319563Y0069400D01*
X0324037Y0069400D01*
X0326734Y0072097D02*
X0346200Y0072097D01*
X0346200Y0073696D02*
X0327200Y0073696D01*
X0327200Y0075294D02*
X0346200Y0075294D01*
X0346200Y0076893D02*
X0327200Y0076893D01*
X0325745Y0078491D02*
X0346200Y0078491D01*
X0346200Y0080090D02*
X0324147Y0080090D01*
X0319453Y0080090D02*
X0309147Y0080090D01*
X0309037Y0080200D02*
X0304563Y0080200D01*
X0301400Y0077037D01*
X0301400Y0072563D01*
X0304563Y0069400D01*
X0309037Y0069400D01*
X0312200Y0072563D01*
X0312200Y0077037D01*
X0309037Y0080200D01*
X0310745Y0078491D02*
X0317855Y0078491D01*
X0316400Y0076893D02*
X0312200Y0076893D01*
X0312200Y0075294D02*
X0316400Y0075294D01*
X0316400Y0073696D02*
X0312200Y0073696D01*
X0311734Y0072097D02*
X0316866Y0072097D01*
X0318464Y0070499D02*
X0310136Y0070499D01*
X0303464Y0070499D02*
X0295136Y0070499D01*
X0296734Y0072097D02*
X0301866Y0072097D01*
X0301400Y0073696D02*
X0297200Y0073696D01*
X0297200Y0075294D02*
X0301400Y0075294D01*
X0301400Y0076893D02*
X0297200Y0076893D01*
X0295745Y0078491D02*
X0302855Y0078491D01*
X0304453Y0080090D02*
X0295400Y0080090D01*
X0295400Y0081688D02*
X0346200Y0081688D01*
X0346200Y0083287D02*
X0295400Y0083287D01*
X0295400Y0084885D02*
X0346200Y0084885D01*
X0346200Y0086484D02*
X0295400Y0086484D01*
X0295400Y0088082D02*
X0299663Y0088082D01*
X0297292Y0089681D02*
X0296308Y0089681D01*
X0291800Y0093800D02*
X0291800Y0074800D01*
X0286400Y0075294D02*
X0282200Y0075294D01*
X0282200Y0073696D02*
X0286400Y0073696D01*
X0286866Y0072097D02*
X0281734Y0072097D01*
X0280136Y0070499D02*
X0288464Y0070499D01*
X0286400Y0076893D02*
X0282200Y0076893D01*
X0271400Y0076893D02*
X0267200Y0076893D01*
X0267200Y0075294D02*
X0271400Y0075294D01*
X0271400Y0073696D02*
X0267200Y0073696D01*
X0266734Y0072097D02*
X0271866Y0072097D01*
X0273464Y0070499D02*
X0265136Y0070499D01*
X0258464Y0070499D02*
X0250136Y0070499D01*
X0251734Y0072097D02*
X0256866Y0072097D01*
X0256400Y0073696D02*
X0252200Y0073696D01*
X0252200Y0075294D02*
X0256400Y0075294D01*
X0256400Y0076893D02*
X0252200Y0076893D01*
X0251377Y0078491D02*
X0250745Y0078491D01*
X0243591Y0080090D02*
X0238181Y0080090D01*
X0237852Y0079761D02*
X0237852Y0079761D01*
X0236219Y0078491D02*
X0242855Y0078491D01*
X0241400Y0076893D02*
X0237200Y0076893D01*
X0237200Y0075294D02*
X0241400Y0075294D01*
X0241400Y0073696D02*
X0237200Y0073696D01*
X0236734Y0072097D02*
X0241866Y0072097D01*
X0243464Y0070499D02*
X0235136Y0070499D01*
X0228464Y0070499D02*
X0220136Y0070499D01*
X0221734Y0072097D02*
X0226866Y0072097D01*
X0226400Y0073696D02*
X0222200Y0073696D01*
X0222200Y0075294D02*
X0226400Y0075294D01*
X0226400Y0076893D02*
X0222200Y0076893D01*
X0211400Y0076893D02*
X0207200Y0076893D01*
X0207200Y0075294D02*
X0211400Y0075294D01*
X0211400Y0073696D02*
X0207200Y0073696D01*
X0206734Y0072097D02*
X0211866Y0072097D01*
X0213464Y0070499D02*
X0205136Y0070499D01*
X0198464Y0070499D02*
X0190136Y0070499D01*
X0191734Y0072097D02*
X0196866Y0072097D01*
X0196400Y0073696D02*
X0192200Y0073696D01*
X0192200Y0075294D02*
X0196400Y0075294D01*
X0196400Y0076893D02*
X0192200Y0076893D01*
X0181400Y0076893D02*
X0147984Y0076893D01*
X0146400Y0075294D02*
X0181400Y0075294D01*
X0181400Y0073696D02*
X0146400Y0073696D01*
X0146400Y0072097D02*
X0181866Y0072097D01*
X0183464Y0070499D02*
X0146400Y0070499D01*
X0139200Y0070499D02*
X0138132Y0070499D01*
X0138300Y0070093D02*
X0137310Y0072482D01*
X0135482Y0074310D01*
X0133093Y0075300D01*
X0130507Y0075300D01*
X0128118Y0074310D01*
X0126800Y0072992D01*
X0125482Y0074310D01*
X0125400Y0074344D01*
X0125400Y0079309D01*
X0129291Y0083200D01*
X0144109Y0083200D01*
X0139748Y0078839D01*
X0139200Y0077516D01*
X0139200Y0027291D01*
X0136309Y0024400D01*
X0135101Y0024400D01*
X0135383Y0024605D01*
X0135995Y0025217D01*
X0136504Y0025917D01*
X0136897Y0026689D01*
X0137165Y0027512D01*
X0137300Y0028367D01*
X0137300Y0028600D01*
X0132000Y0028600D01*
X0132000Y0029000D01*
X0131600Y0029000D01*
X0131600Y0034300D01*
X0131600Y0038600D01*
X0132000Y0038600D01*
X0132000Y0039000D01*
X0131600Y0039000D01*
X0131600Y0044300D01*
X0131600Y0048600D01*
X0132000Y0048600D01*
X0132000Y0049000D01*
X0131600Y0049000D01*
X0131600Y0054300D01*
X0131600Y0058600D01*
X0132000Y0058600D01*
X0132000Y0059000D01*
X0137300Y0059000D01*
X0137300Y0059233D01*
X0137165Y0060088D01*
X0136897Y0060911D01*
X0136504Y0061683D01*
X0135995Y0062383D01*
X0135383Y0062995D01*
X0135161Y0063157D01*
X0135482Y0063290D01*
X0137310Y0065118D01*
X0138300Y0067507D01*
X0138300Y0070093D01*
X0138300Y0068900D02*
X0139200Y0068900D01*
X0139200Y0067302D02*
X0138215Y0067302D01*
X0137553Y0065703D02*
X0139200Y0065703D01*
X0139200Y0064105D02*
X0136297Y0064105D01*
X0135872Y0062506D02*
X0139200Y0062506D01*
X0139200Y0060908D02*
X0136898Y0060908D01*
X0137288Y0059309D02*
X0139200Y0059309D01*
X0139200Y0057711D02*
X0137196Y0057711D01*
X0137165Y0057512D02*
X0137300Y0058367D01*
X0137300Y0058600D01*
X0132000Y0058600D01*
X0132000Y0049000D01*
X0137300Y0049000D01*
X0137300Y0049233D01*
X0137165Y0050088D01*
X0136897Y0050911D01*
X0136504Y0051683D01*
X0135995Y0052383D01*
X0135383Y0052995D01*
X0134683Y0053504D01*
X0134102Y0053800D01*
X0134683Y0054096D01*
X0135383Y0054605D01*
X0135995Y0055217D01*
X0136504Y0055917D01*
X0136897Y0056689D01*
X0137165Y0057512D01*
X0136603Y0056112D02*
X0139200Y0056112D01*
X0139200Y0054514D02*
X0135257Y0054514D01*
X0135463Y0052915D02*
X0139200Y0052915D01*
X0139200Y0051317D02*
X0136691Y0051317D01*
X0137223Y0049718D02*
X0139200Y0049718D01*
X0139200Y0048120D02*
X0137261Y0048120D01*
X0137300Y0048367D02*
X0137165Y0047512D01*
X0136897Y0046689D01*
X0136504Y0045917D01*
X0135995Y0045217D01*
X0135383Y0044605D01*
X0134683Y0044096D01*
X0134102Y0043800D01*
X0134683Y0043504D01*
X0135383Y0042995D01*
X0135995Y0042383D01*
X0136504Y0041683D01*
X0136897Y0040911D01*
X0137165Y0040088D01*
X0137300Y0039233D01*
X0137300Y0039000D01*
X0132000Y0039000D01*
X0132000Y0048600D01*
X0137300Y0048600D01*
X0137300Y0048367D01*
X0136812Y0046521D02*
X0139200Y0046521D01*
X0139200Y0044923D02*
X0135701Y0044923D01*
X0134930Y0043324D02*
X0139200Y0043324D01*
X0139200Y0041726D02*
X0136473Y0041726D01*
X0137152Y0040127D02*
X0139200Y0040127D01*
X0139200Y0038529D02*
X0137300Y0038529D01*
X0137300Y0038600D02*
X0132000Y0038600D01*
X0132000Y0029000D01*
X0137300Y0029000D01*
X0137300Y0029233D01*
X0137165Y0030088D01*
X0136897Y0030911D01*
X0136504Y0031683D01*
X0135995Y0032383D01*
X0135383Y0032995D01*
X0134683Y0033504D01*
X0134102Y0033800D01*
X0134683Y0034096D01*
X0135383Y0034605D01*
X0135995Y0035217D01*
X0136504Y0035917D01*
X0136897Y0036689D01*
X0137165Y0037512D01*
X0137300Y0038367D01*
X0137300Y0038600D01*
X0136975Y0036930D02*
X0139200Y0036930D01*
X0139200Y0035332D02*
X0136078Y0035332D01*
X0134233Y0033733D02*
X0139200Y0033733D01*
X0139200Y0032134D02*
X0136176Y0032134D01*
X0137019Y0030536D02*
X0139200Y0030536D01*
X0139200Y0028937D02*
X0132000Y0028937D01*
X0132000Y0030536D02*
X0131600Y0030536D01*
X0131600Y0032134D02*
X0132000Y0032134D01*
X0132000Y0033733D02*
X0131600Y0033733D01*
X0131600Y0035332D02*
X0132000Y0035332D01*
X0132000Y0036930D02*
X0131600Y0036930D01*
X0131600Y0038529D02*
X0132000Y0038529D01*
X0132000Y0040127D02*
X0131600Y0040127D01*
X0131600Y0041726D02*
X0132000Y0041726D01*
X0132000Y0043324D02*
X0131600Y0043324D01*
X0131600Y0044923D02*
X0132000Y0044923D01*
X0132000Y0046521D02*
X0131600Y0046521D01*
X0131600Y0048120D02*
X0132000Y0048120D01*
X0132000Y0049718D02*
X0131600Y0049718D01*
X0131600Y0051317D02*
X0132000Y0051317D01*
X0132000Y0052915D02*
X0131600Y0052915D01*
X0131600Y0054514D02*
X0132000Y0054514D01*
X0132000Y0056112D02*
X0131600Y0056112D01*
X0131600Y0057711D02*
X0132000Y0057711D01*
X0146400Y0043324D02*
X0156664Y0043324D01*
X0154357Y0041726D02*
X0146400Y0041726D01*
X0146400Y0040127D02*
X0152968Y0040127D01*
X0152306Y0038529D02*
X0146400Y0038529D01*
X0146400Y0036930D02*
X0151850Y0036930D01*
X0151850Y0035332D02*
X0146400Y0035332D01*
X0146400Y0033733D02*
X0152012Y0033733D01*
X0152674Y0032134D02*
X0146400Y0032134D01*
X0146400Y0030536D02*
X0153648Y0030536D01*
X0155246Y0028937D02*
X0146400Y0028937D01*
X0146400Y0027339D02*
X0183116Y0027339D01*
X0182400Y0026623D02*
X0182400Y0024800D01*
X0186800Y0024800D01*
X0186800Y0024800D01*
X0186800Y0029200D01*
X0188623Y0029200D01*
X0191200Y0026623D01*
X0191200Y0024800D01*
X0186800Y0024800D01*
X0186800Y0024800D01*
X0186800Y0024800D01*
X0186800Y0029200D01*
X0184977Y0029200D01*
X0182400Y0026623D01*
X0182400Y0025740D02*
X0146400Y0025740D01*
X0146010Y0024142D02*
X0182400Y0024142D01*
X0182400Y0024800D02*
X0182400Y0022977D01*
X0184977Y0020400D01*
X0186800Y0020400D01*
X0188623Y0020400D01*
X0191200Y0022977D01*
X0191200Y0024800D01*
X0186800Y0024800D01*
X0186800Y0020400D01*
X0186800Y0024800D01*
X0186800Y0024800D01*
X0182400Y0024800D01*
X0182834Y0022543D02*
X0144635Y0022543D01*
X0143036Y0020945D02*
X0184433Y0020945D01*
X0186800Y0020945D02*
X0186800Y0020945D01*
X0186800Y0022543D02*
X0186800Y0022543D01*
X0186800Y0024142D02*
X0186800Y0024142D01*
X0186800Y0025740D02*
X0186800Y0025740D01*
X0186800Y0027339D02*
X0186800Y0027339D01*
X0186800Y0028937D02*
X0186800Y0028937D01*
X0188885Y0028937D02*
X0199715Y0028937D01*
X0199977Y0029200D02*
X0197400Y0026623D01*
X0197400Y0024800D01*
X0201800Y0024800D01*
X0201800Y0024800D01*
X0201800Y0029200D01*
X0203623Y0029200D01*
X0206200Y0026623D01*
X0206200Y0024800D01*
X0201800Y0024800D01*
X0201800Y0024800D01*
X0201800Y0024800D01*
X0201800Y0029200D01*
X0199977Y0029200D01*
X0201800Y0028937D02*
X0201800Y0028937D01*
X0201800Y0027339D02*
X0201800Y0027339D01*
X0201800Y0025740D02*
X0201800Y0025740D01*
X0201800Y0024800D02*
X0197400Y0024800D01*
X0197400Y0022977D01*
X0199977Y0020400D01*
X0201800Y0020400D01*
X0203623Y0020400D01*
X0206200Y0022977D01*
X0206200Y0024800D01*
X0201800Y0024800D01*
X0201800Y0020400D01*
X0201800Y0024800D01*
X0201800Y0024800D01*
X0201800Y0024142D02*
X0201800Y0024142D01*
X0201800Y0022543D02*
X0201800Y0022543D01*
X0201800Y0020945D02*
X0201800Y0020945D01*
X0204167Y0020945D02*
X0214433Y0020945D01*
X0214977Y0020400D02*
X0212400Y0022977D01*
X0212400Y0024800D01*
X0216800Y0024800D01*
X0216800Y0024800D01*
X0216800Y0029200D01*
X0218623Y0029200D01*
X0221200Y0026623D01*
X0221200Y0024800D01*
X0216800Y0024800D01*
X0216800Y0024800D01*
X0216800Y0024800D01*
X0216800Y0029200D01*
X0214977Y0029200D01*
X0212400Y0026623D01*
X0212400Y0024800D01*
X0216800Y0024800D01*
X0221200Y0024800D01*
X0221200Y0022977D01*
X0218623Y0020400D01*
X0216800Y0020400D01*
X0216800Y0024800D01*
X0216800Y0024800D01*
X0216800Y0020400D01*
X0214977Y0020400D01*
X0216800Y0020945D02*
X0216800Y0020945D01*
X0216800Y0022543D02*
X0216800Y0022543D01*
X0216800Y0024142D02*
X0216800Y0024142D01*
X0216800Y0025740D02*
X0216800Y0025740D01*
X0216800Y0027339D02*
X0216800Y0027339D01*
X0216800Y0028937D02*
X0216800Y0028937D01*
X0218885Y0028937D02*
X0229715Y0028937D01*
X0229977Y0029200D02*
X0227400Y0026623D01*
X0227400Y0024800D01*
X0231800Y0024800D01*
X0231800Y0024800D01*
X0231800Y0029200D01*
X0233623Y0029200D01*
X0236200Y0026623D01*
X0236200Y0024800D01*
X0231800Y0024800D01*
X0231800Y0024800D01*
X0231800Y0024800D01*
X0231800Y0029200D01*
X0229977Y0029200D01*
X0231800Y0028937D02*
X0231800Y0028937D01*
X0231800Y0027339D02*
X0231800Y0027339D01*
X0231800Y0025740D02*
X0231800Y0025740D01*
X0231800Y0024800D02*
X0227400Y0024800D01*
X0227400Y0022977D01*
X0229977Y0020400D01*
X0231800Y0020400D01*
X0233623Y0020400D01*
X0236200Y0022977D01*
X0236200Y0024800D01*
X0231800Y0024800D01*
X0231800Y0020400D01*
X0231800Y0024800D01*
X0231800Y0024800D01*
X0231800Y0024142D02*
X0231800Y0024142D01*
X0231800Y0022543D02*
X0231800Y0022543D01*
X0231800Y0020945D02*
X0231800Y0020945D01*
X0234167Y0020945D02*
X0244433Y0020945D01*
X0244977Y0020400D02*
X0242400Y0022977D01*
X0242400Y0024800D01*
X0246800Y0024800D01*
X0246800Y0024800D01*
X0246800Y0029200D01*
X0248623Y0029200D01*
X0251200Y0026623D01*
X0251200Y0024800D01*
X0246800Y0024800D01*
X0246800Y0024800D01*
X0246800Y0024800D01*
X0246800Y0029200D01*
X0244977Y0029200D01*
X0242400Y0026623D01*
X0242400Y0024800D01*
X0246800Y0024800D01*
X0251200Y0024800D01*
X0251200Y0022977D01*
X0248623Y0020400D01*
X0246800Y0020400D01*
X0246800Y0024800D01*
X0246800Y0024800D01*
X0246800Y0020400D01*
X0244977Y0020400D01*
X0246800Y0020945D02*
X0246800Y0020945D01*
X0246800Y0022543D02*
X0246800Y0022543D01*
X0246800Y0024142D02*
X0246800Y0024142D01*
X0246800Y0025740D02*
X0246800Y0025740D01*
X0246800Y0027339D02*
X0246800Y0027339D01*
X0246800Y0028937D02*
X0246800Y0028937D01*
X0248885Y0028937D02*
X0259715Y0028937D01*
X0259977Y0029200D02*
X0257400Y0026623D01*
X0257400Y0024800D01*
X0261800Y0024800D01*
X0261800Y0024800D01*
X0261800Y0029200D01*
X0263623Y0029200D01*
X0266200Y0026623D01*
X0266200Y0024800D01*
X0261800Y0024800D01*
X0261800Y0024800D01*
X0261800Y0024800D01*
X0261800Y0029200D01*
X0259977Y0029200D01*
X0261800Y0028937D02*
X0261800Y0028937D01*
X0261800Y0027339D02*
X0261800Y0027339D01*
X0261800Y0025740D02*
X0261800Y0025740D01*
X0261800Y0024800D02*
X0257400Y0024800D01*
X0257400Y0022977D01*
X0259977Y0020400D01*
X0261800Y0020400D01*
X0263623Y0020400D01*
X0266200Y0022977D01*
X0266200Y0024800D01*
X0261800Y0024800D01*
X0261800Y0020400D01*
X0261800Y0024800D01*
X0261800Y0024800D01*
X0261800Y0024142D02*
X0261800Y0024142D01*
X0261800Y0022543D02*
X0261800Y0022543D01*
X0261800Y0020945D02*
X0261800Y0020945D01*
X0264167Y0020945D02*
X0274433Y0020945D01*
X0274977Y0020400D02*
X0272400Y0022977D01*
X0272400Y0024800D01*
X0276800Y0024800D01*
X0276800Y0024800D01*
X0276800Y0029200D01*
X0278623Y0029200D01*
X0281200Y0026623D01*
X0281200Y0024800D01*
X0276800Y0024800D01*
X0276800Y0024800D01*
X0276800Y0024800D01*
X0276800Y0029200D01*
X0274977Y0029200D01*
X0272400Y0026623D01*
X0272400Y0024800D01*
X0276800Y0024800D01*
X0281200Y0024800D01*
X0281200Y0022977D01*
X0278623Y0020400D01*
X0276800Y0020400D01*
X0276800Y0024800D01*
X0276800Y0024800D01*
X0276800Y0020400D01*
X0274977Y0020400D01*
X0276800Y0020945D02*
X0276800Y0020945D01*
X0276800Y0022543D02*
X0276800Y0022543D01*
X0276800Y0024142D02*
X0276800Y0024142D01*
X0276800Y0025740D02*
X0276800Y0025740D01*
X0276800Y0027339D02*
X0276800Y0027339D01*
X0276800Y0028937D02*
X0276800Y0028937D01*
X0278885Y0028937D02*
X0289715Y0028937D01*
X0289977Y0029200D02*
X0287400Y0026623D01*
X0287400Y0024800D01*
X0291800Y0024800D01*
X0291800Y0024800D01*
X0291800Y0029200D01*
X0293623Y0029200D01*
X0296200Y0026623D01*
X0296200Y0024800D01*
X0291800Y0024800D01*
X0291800Y0024800D01*
X0291800Y0024800D01*
X0291800Y0029200D01*
X0289977Y0029200D01*
X0291800Y0028937D02*
X0291800Y0028937D01*
X0291800Y0027339D02*
X0291800Y0027339D01*
X0291800Y0025740D02*
X0291800Y0025740D01*
X0291800Y0024800D02*
X0287400Y0024800D01*
X0287400Y0022977D01*
X0289977Y0020400D01*
X0291800Y0020400D01*
X0293623Y0020400D01*
X0296200Y0022977D01*
X0296200Y0024800D01*
X0291800Y0024800D01*
X0291800Y0020400D01*
X0291800Y0024800D01*
X0291800Y0024800D01*
X0291800Y0024142D02*
X0291800Y0024142D01*
X0291800Y0022543D02*
X0291800Y0022543D01*
X0291800Y0020945D02*
X0291800Y0020945D01*
X0294167Y0020945D02*
X0304433Y0020945D01*
X0304977Y0020400D02*
X0302400Y0022977D01*
X0302400Y0024800D01*
X0306800Y0024800D01*
X0306800Y0024800D01*
X0306800Y0029200D01*
X0308623Y0029200D01*
X0311200Y0026623D01*
X0311200Y0024800D01*
X0306800Y0024800D01*
X0306800Y0024800D01*
X0306800Y0024800D01*
X0306800Y0029200D01*
X0304977Y0029200D01*
X0302400Y0026623D01*
X0302400Y0024800D01*
X0306800Y0024800D01*
X0311200Y0024800D01*
X0311200Y0022977D01*
X0308623Y0020400D01*
X0306800Y0020400D01*
X0306800Y0024800D01*
X0306800Y0024800D01*
X0306800Y0020400D01*
X0304977Y0020400D01*
X0306800Y0020945D02*
X0306800Y0020945D01*
X0306800Y0022543D02*
X0306800Y0022543D01*
X0306800Y0024142D02*
X0306800Y0024142D01*
X0306800Y0025740D02*
X0306800Y0025740D01*
X0306800Y0027339D02*
X0306800Y0027339D01*
X0306800Y0028937D02*
X0306800Y0028937D01*
X0308885Y0028937D02*
X0319715Y0028937D01*
X0319977Y0029200D02*
X0317400Y0026623D01*
X0317400Y0024800D01*
X0321800Y0024800D01*
X0321800Y0024800D01*
X0321800Y0029200D01*
X0323623Y0029200D01*
X0326200Y0026623D01*
X0326200Y0024800D01*
X0321800Y0024800D01*
X0321800Y0024800D01*
X0321800Y0024800D01*
X0321800Y0029200D01*
X0319977Y0029200D01*
X0321800Y0028937D02*
X0321800Y0028937D01*
X0321800Y0027339D02*
X0321800Y0027339D01*
X0321800Y0025740D02*
X0321800Y0025740D01*
X0321800Y0024800D02*
X0317400Y0024800D01*
X0317400Y0022977D01*
X0319977Y0020400D01*
X0321800Y0020400D01*
X0323623Y0020400D01*
X0326200Y0022977D01*
X0326200Y0024800D01*
X0321800Y0024800D01*
X0321800Y0020400D01*
X0321800Y0024800D01*
X0321800Y0024800D01*
X0321800Y0024142D02*
X0321800Y0024142D01*
X0321800Y0022543D02*
X0321800Y0022543D01*
X0321800Y0020945D02*
X0321800Y0020945D01*
X0324167Y0020945D02*
X0418200Y0020945D01*
X0418200Y0022543D02*
X0325766Y0022543D01*
X0326200Y0024142D02*
X0418200Y0024142D01*
X0418200Y0025740D02*
X0411156Y0025740D01*
X0413531Y0027339D02*
X0418200Y0027339D01*
X0418200Y0028937D02*
X0414650Y0028937D01*
X0415300Y0030536D02*
X0418200Y0030536D01*
X0418200Y0032134D02*
X0415300Y0032134D01*
X0415035Y0033733D02*
X0418200Y0033733D01*
X0418200Y0035332D02*
X0414373Y0035332D01*
X0412862Y0036930D02*
X0418200Y0036930D01*
X0418200Y0038529D02*
X0407163Y0038529D01*
X0405564Y0040127D02*
X0418200Y0040127D01*
X0418200Y0041726D02*
X0403966Y0041726D01*
X0402367Y0043324D02*
X0418200Y0043324D01*
X0418200Y0044923D02*
X0400769Y0044923D01*
X0399170Y0046521D02*
X0418200Y0046521D01*
X0418200Y0048120D02*
X0397572Y0048120D01*
X0396400Y0049718D02*
X0418200Y0049718D01*
X0418200Y0051317D02*
X0396400Y0051317D01*
X0396400Y0052915D02*
X0418200Y0052915D01*
X0418200Y0054514D02*
X0396400Y0054514D01*
X0397781Y0056112D02*
X0418200Y0056112D01*
X0418200Y0057711D02*
X0398750Y0057711D01*
X0398750Y0059309D02*
X0418200Y0059309D01*
X0416601Y0060908D02*
X0398750Y0060908D01*
X0398750Y0062506D02*
X0415003Y0062506D01*
X0413404Y0064105D02*
X0398671Y0064105D01*
X0392800Y0060800D02*
X0392800Y0047800D01*
X0408800Y0031800D01*
X0406444Y0025740D02*
X0401156Y0025740D01*
X0403531Y0027339D02*
X0404069Y0027339D01*
X0396444Y0025740D02*
X0391156Y0025740D01*
X0393531Y0027339D02*
X0394069Y0027339D01*
X0386444Y0025740D02*
X0381156Y0025740D01*
X0383531Y0027339D02*
X0384069Y0027339D01*
X0376444Y0025740D02*
X0371156Y0025740D01*
X0373531Y0027339D02*
X0374069Y0027339D01*
X0378800Y0031800D02*
X0378800Y0051800D01*
X0382800Y0055800D01*
X0382800Y0061081D01*
X0382561Y0061320D01*
X0382800Y0061320D01*
X0378021Y0056112D02*
X0372400Y0056112D01*
X0372400Y0054514D02*
X0376423Y0054514D01*
X0375365Y0052915D02*
X0372400Y0052915D01*
X0375200Y0041726D02*
X0353861Y0041726D01*
X0354289Y0040127D02*
X0375200Y0040127D01*
X0375200Y0038529D02*
X0354132Y0038529D01*
X0353278Y0036930D02*
X0356790Y0036930D01*
X0358600Y0036930D02*
X0359000Y0036930D01*
X0359000Y0035332D02*
X0358600Y0035332D01*
X0358600Y0033733D02*
X0359000Y0033733D01*
X0359000Y0032134D02*
X0358600Y0032134D01*
X0358600Y0031600D02*
X0353300Y0031600D01*
X0353300Y0031367D01*
X0353435Y0030512D01*
X0353703Y0029689D01*
X0354096Y0028917D01*
X0354605Y0028217D01*
X0355217Y0027605D01*
X0355917Y0027096D01*
X0356689Y0026703D01*
X0357512Y0026435D01*
X0358367Y0026300D01*
X0358600Y0026300D01*
X0358600Y0031600D01*
X0358600Y0030536D02*
X0359000Y0030536D01*
X0359000Y0028937D02*
X0358600Y0028937D01*
X0358600Y0027339D02*
X0359000Y0027339D01*
X0362017Y0027339D02*
X0364069Y0027339D01*
X0366444Y0025740D02*
X0326200Y0025740D01*
X0325484Y0027339D02*
X0355583Y0027339D01*
X0354086Y0028937D02*
X0323885Y0028937D01*
X0318116Y0027339D02*
X0310484Y0027339D01*
X0311200Y0025740D02*
X0317400Y0025740D01*
X0317400Y0024142D02*
X0311200Y0024142D01*
X0310766Y0022543D02*
X0317834Y0022543D01*
X0319433Y0020945D02*
X0309167Y0020945D01*
X0302834Y0022543D02*
X0295766Y0022543D01*
X0296200Y0024142D02*
X0302400Y0024142D01*
X0302400Y0025740D02*
X0296200Y0025740D01*
X0295484Y0027339D02*
X0303116Y0027339D01*
X0304715Y0028937D02*
X0293885Y0028937D01*
X0288116Y0027339D02*
X0280484Y0027339D01*
X0281200Y0025740D02*
X0287400Y0025740D01*
X0287400Y0024142D02*
X0281200Y0024142D01*
X0280766Y0022543D02*
X0287834Y0022543D01*
X0289433Y0020945D02*
X0279167Y0020945D01*
X0272834Y0022543D02*
X0265766Y0022543D01*
X0266200Y0024142D02*
X0272400Y0024142D01*
X0272400Y0025740D02*
X0266200Y0025740D01*
X0265484Y0027339D02*
X0273116Y0027339D01*
X0274715Y0028937D02*
X0263885Y0028937D01*
X0258116Y0027339D02*
X0250484Y0027339D01*
X0251200Y0025740D02*
X0257400Y0025740D01*
X0257400Y0024142D02*
X0251200Y0024142D01*
X0250766Y0022543D02*
X0257834Y0022543D01*
X0259433Y0020945D02*
X0249167Y0020945D01*
X0242834Y0022543D02*
X0235766Y0022543D01*
X0236200Y0024142D02*
X0242400Y0024142D01*
X0242400Y0025740D02*
X0236200Y0025740D01*
X0235484Y0027339D02*
X0243116Y0027339D01*
X0244715Y0028937D02*
X0233885Y0028937D01*
X0228116Y0027339D02*
X0220484Y0027339D01*
X0221200Y0025740D02*
X0227400Y0025740D01*
X0227400Y0024142D02*
X0221200Y0024142D01*
X0220766Y0022543D02*
X0227834Y0022543D01*
X0229433Y0020945D02*
X0219167Y0020945D01*
X0212834Y0022543D02*
X0205766Y0022543D01*
X0206200Y0024142D02*
X0212400Y0024142D01*
X0212400Y0025740D02*
X0206200Y0025740D01*
X0205484Y0027339D02*
X0213116Y0027339D01*
X0214715Y0028937D02*
X0203885Y0028937D01*
X0198116Y0027339D02*
X0190484Y0027339D01*
X0191200Y0025740D02*
X0197400Y0025740D01*
X0197400Y0024142D02*
X0191200Y0024142D01*
X0190766Y0022543D02*
X0197834Y0022543D01*
X0199433Y0020945D02*
X0189167Y0020945D01*
X0184715Y0028937D02*
X0165078Y0028937D01*
X0166676Y0030536D02*
X0353432Y0030536D01*
X0353300Y0032134D02*
X0167650Y0032134D01*
X0168312Y0033733D02*
X0353645Y0033733D01*
X0354567Y0035332D02*
X0350742Y0035332D01*
X0348858Y0035332D02*
X0168474Y0035332D01*
X0168474Y0036930D02*
X0346322Y0036930D01*
X0345468Y0038529D02*
X0168019Y0038529D01*
X0167357Y0040127D02*
X0345311Y0040127D01*
X0360810Y0036930D02*
X0364738Y0036930D01*
X0363227Y0035332D02*
X0363033Y0035332D01*
X0372862Y0036930D02*
X0374738Y0036930D01*
X0413800Y0068800D02*
X0421800Y0060800D01*
X0421800Y0014800D01*
X0425894Y0012952D02*
X0567800Y0012952D01*
X0567800Y0011354D02*
X0424702Y0011354D01*
X0426289Y0014551D02*
X0567800Y0014551D01*
X0567800Y0016149D02*
X0426100Y0016149D01*
X0425400Y0017748D02*
X0567800Y0017748D01*
X0567800Y0019346D02*
X0425400Y0019346D01*
X0425400Y0020945D02*
X0567800Y0020945D01*
X0567800Y0022543D02*
X0425400Y0022543D01*
X0425400Y0024142D02*
X0567800Y0024142D01*
X0567800Y0025740D02*
X0425400Y0025740D01*
X0425400Y0027339D02*
X0567800Y0027339D01*
X0567800Y0028937D02*
X0460354Y0028937D01*
X0460146Y0028730D02*
X0462484Y0031068D01*
X0463750Y0034123D01*
X0463750Y0037430D01*
X0462484Y0040485D01*
X0460146Y0042823D01*
X0457091Y0044088D01*
X0453784Y0044088D01*
X0450730Y0042823D01*
X0448391Y0040485D01*
X0447126Y0037430D01*
X0447126Y0034123D01*
X0448391Y0031068D01*
X0450730Y0028730D01*
X0453784Y0027465D01*
X0457091Y0027465D01*
X0460146Y0028730D01*
X0461952Y0030536D02*
X0567800Y0030536D01*
X0567800Y0032134D02*
X0462926Y0032134D01*
X0463588Y0033733D02*
X0567800Y0033733D01*
X0567800Y0035332D02*
X0463750Y0035332D01*
X0463750Y0036930D02*
X0567800Y0036930D01*
X0567800Y0038529D02*
X0463294Y0038529D01*
X0462632Y0040127D02*
X0567800Y0040127D01*
X0567800Y0041726D02*
X0461243Y0041726D01*
X0458936Y0043324D02*
X0567800Y0043324D01*
X0567800Y0044923D02*
X0425400Y0044923D01*
X0425400Y0046521D02*
X0454731Y0046521D01*
X0453637Y0048120D02*
X0425400Y0048120D01*
X0425400Y0049718D02*
X0453311Y0049718D01*
X0453569Y0051317D02*
X0425400Y0051317D01*
X0425400Y0052915D02*
X0454200Y0052915D01*
X0454200Y0054514D02*
X0425400Y0054514D01*
X0425400Y0056112D02*
X0454200Y0056112D01*
X0454200Y0057711D02*
X0425400Y0057711D01*
X0425400Y0059309D02*
X0454200Y0059309D01*
X0454200Y0060908D02*
X0425400Y0060908D01*
X0424990Y0062506D02*
X0454200Y0062506D01*
X0454200Y0064105D02*
X0423586Y0064105D01*
X0421988Y0065703D02*
X0454200Y0065703D01*
X0454200Y0067302D02*
X0420389Y0067302D01*
X0418791Y0068900D02*
X0454200Y0068900D01*
X0454200Y0070499D02*
X0417192Y0070499D01*
X0415247Y0072097D02*
X0454200Y0072097D01*
X0454200Y0073696D02*
X0397321Y0073696D01*
X0392926Y0068800D02*
X0392800Y0068674D01*
X0392674Y0068800D01*
X0382800Y0068800D01*
X0369800Y0068800D01*
X0364800Y0073800D01*
X0364800Y0094800D01*
X0353800Y0105800D01*
X0347800Y0105800D01*
X0341800Y0111800D01*
X0341800Y0123800D01*
X0360800Y0142800D01*
X0394800Y0142800D01*
X0413000Y0161000D01*
X0413000Y0192900D01*
X0405679Y0196781D02*
X0389862Y0196781D01*
X0391461Y0195183D02*
X0404668Y0195183D01*
X0404200Y0193584D02*
X0392545Y0193584D01*
X0393394Y0191986D02*
X0404200Y0191986D01*
X0404763Y0190387D02*
X0393822Y0190387D01*
X0394100Y0188789D02*
X0405909Y0188789D01*
X0408629Y0187190D02*
X0394100Y0187190D01*
X0393890Y0185592D02*
X0409400Y0185592D01*
X0409400Y0183993D02*
X0393462Y0183993D01*
X0392691Y0182395D02*
X0409400Y0182395D01*
X0409400Y0180796D02*
X0391714Y0180796D01*
X0390115Y0179198D02*
X0409400Y0179198D01*
X0409400Y0177599D02*
X0387622Y0177599D01*
X0377978Y0177599D02*
X0360300Y0177599D01*
X0360300Y0176001D02*
X0409400Y0176001D01*
X0409400Y0174402D02*
X0360300Y0174402D01*
X0360300Y0172803D02*
X0409400Y0172803D01*
X0409400Y0171205D02*
X0370528Y0171205D01*
X0370750Y0169606D02*
X0409400Y0169606D01*
X0409400Y0168008D02*
X0366280Y0168008D01*
X0366280Y0169606D02*
X0365320Y0169606D01*
X0365320Y0171205D02*
X0366280Y0171205D01*
X0370750Y0166409D02*
X0409400Y0166409D01*
X0409400Y0164811D02*
X0370958Y0164811D01*
X0371750Y0163212D02*
X0409400Y0163212D01*
X0408523Y0161614D02*
X0371750Y0161614D01*
X0371750Y0160015D02*
X0406924Y0160015D01*
X0405326Y0158417D02*
X0371750Y0158417D01*
X0371598Y0156818D02*
X0403727Y0156818D01*
X0402129Y0155220D02*
X0370180Y0155220D01*
X0369400Y0153621D02*
X0400530Y0153621D01*
X0398932Y0152023D02*
X0369400Y0152023D01*
X0369524Y0150424D02*
X0397333Y0150424D01*
X0395735Y0148826D02*
X0370234Y0148826D01*
X0370289Y0147227D02*
X0394136Y0147227D01*
X0399523Y0142432D02*
X0412400Y0142432D01*
X0412400Y0144030D02*
X0401121Y0144030D01*
X0402720Y0145629D02*
X0412400Y0145629D01*
X0412400Y0147227D02*
X0404318Y0147227D01*
X0405917Y0148826D02*
X0412400Y0148826D01*
X0412400Y0150424D02*
X0407516Y0150424D01*
X0409114Y0152023D02*
X0412311Y0152023D01*
X0412311Y0153621D02*
X0410713Y0153621D01*
X0412311Y0155220D02*
X0412944Y0155220D01*
X0413910Y0156818D02*
X0414596Y0156818D01*
X0415508Y0158417D02*
X0416194Y0158417D01*
X0416489Y0160015D02*
X0417793Y0160015D01*
X0416600Y0161614D02*
X0419391Y0161614D01*
X0420990Y0163212D02*
X0416600Y0163212D01*
X0416600Y0164811D02*
X0422588Y0164811D01*
X0424187Y0166409D02*
X0416600Y0166409D01*
X0416600Y0168008D02*
X0425785Y0168008D01*
X0427384Y0169606D02*
X0416600Y0169606D01*
X0433844Y0153621D02*
X0435400Y0153621D01*
X0434354Y0152023D02*
X0432245Y0152023D01*
X0432200Y0150424D02*
X0433850Y0150424D01*
X0433850Y0148826D02*
X0432200Y0148826D01*
X0432200Y0147227D02*
X0433850Y0147227D01*
X0433850Y0145629D02*
X0432200Y0145629D01*
X0432200Y0144030D02*
X0434097Y0144030D01*
X0433850Y0142432D02*
X0432200Y0142432D01*
X0432200Y0140833D02*
X0433850Y0140833D01*
X0433850Y0139235D02*
X0432200Y0139235D01*
X0432200Y0137636D02*
X0433850Y0137636D01*
X0434413Y0136038D02*
X0432289Y0136038D01*
X0432095Y0134439D02*
X0474606Y0134439D01*
X0474854Y0134400D02*
X0474170Y0134508D01*
X0473511Y0134722D01*
X0472894Y0135037D01*
X0472334Y0135444D01*
X0471844Y0135934D01*
X0471437Y0136494D01*
X0471122Y0137111D01*
X0470908Y0137770D01*
X0470800Y0138454D01*
X0470800Y0138800D01*
X0477800Y0138800D01*
X0477800Y0138800D01*
X0477800Y0143200D01*
X0480746Y0143200D01*
X0481430Y0143092D01*
X0482089Y0142878D01*
X0482706Y0142563D01*
X0483266Y0142156D01*
X0483756Y0141666D01*
X0484163Y0141106D01*
X0484478Y0140489D01*
X0484692Y0139830D01*
X0484800Y0139146D01*
X0484800Y0138800D01*
X0477800Y0138800D01*
X0477800Y0138800D01*
X0477800Y0134400D01*
X0480746Y0134400D01*
X0481430Y0134508D01*
X0482089Y0134722D01*
X0482706Y0135037D01*
X0483266Y0135444D01*
X0483756Y0135934D01*
X0484163Y0136494D01*
X0484478Y0137111D01*
X0484692Y0137770D01*
X0484800Y0138454D01*
X0484800Y0138800D01*
X0477800Y0138800D01*
X0477800Y0138800D01*
X0477800Y0138800D01*
X0477800Y0143200D01*
X0474854Y0143200D01*
X0474170Y0143092D01*
X0473511Y0142878D01*
X0472894Y0142563D01*
X0472334Y0142156D01*
X0471844Y0141666D01*
X0471437Y0141106D01*
X0471122Y0140489D01*
X0470908Y0139830D01*
X0470800Y0139146D01*
X0470800Y0138800D01*
X0477800Y0138800D01*
X0477800Y0134400D01*
X0474854Y0134400D01*
X0477800Y0134439D02*
X0477800Y0134439D01*
X0477800Y0136038D02*
X0477800Y0136038D01*
X0477800Y0137636D02*
X0477800Y0137636D01*
X0477800Y0139235D02*
X0477800Y0139235D01*
X0477800Y0140833D02*
X0477800Y0140833D01*
X0477800Y0142432D02*
X0477800Y0142432D01*
X0472713Y0142432D02*
X0467523Y0142432D01*
X0469121Y0144030D02*
X0472604Y0144030D01*
X0470734Y0145629D02*
X0470211Y0145629D01*
X0466800Y0146800D02*
X0466800Y0153800D01*
X0471800Y0158800D01*
X0477800Y0158800D01*
X0484457Y0155220D02*
X0567800Y0155220D01*
X0567800Y0156818D02*
X0485424Y0156818D01*
X0485800Y0158417D02*
X0567800Y0158417D01*
X0567800Y0160015D02*
X0485741Y0160015D01*
X0485079Y0161614D02*
X0567800Y0161614D01*
X0567800Y0163212D02*
X0483624Y0163212D01*
X0482871Y0153621D02*
X0567800Y0153621D01*
X0567800Y0152023D02*
X0484814Y0152023D01*
X0485572Y0150424D02*
X0567800Y0150424D01*
X0567800Y0148826D02*
X0485800Y0148826D01*
X0485593Y0147227D02*
X0567800Y0147227D01*
X0567800Y0145629D02*
X0484866Y0145629D01*
X0482996Y0144030D02*
X0567800Y0144030D01*
X0567800Y0142432D02*
X0482887Y0142432D01*
X0484302Y0140833D02*
X0567800Y0140833D01*
X0567800Y0139235D02*
X0484786Y0139235D01*
X0484648Y0137636D02*
X0567800Y0137636D01*
X0567800Y0136038D02*
X0483832Y0136038D01*
X0480994Y0134439D02*
X0567800Y0134439D01*
X0567800Y0132841D02*
X0431189Y0132841D01*
X0429696Y0128045D02*
X0433904Y0128045D01*
X0432217Y0126447D02*
X0431383Y0126447D01*
X0439696Y0128045D02*
X0443904Y0128045D01*
X0442217Y0126447D02*
X0441383Y0126447D01*
X0436800Y0120800D02*
X0436800Y0119800D01*
X0457800Y0098800D01*
X0457800Y0049800D01*
X0461963Y0048120D02*
X0567800Y0048120D01*
X0567800Y0049718D02*
X0462289Y0049718D01*
X0462031Y0051317D02*
X0567800Y0051317D01*
X0567800Y0052915D02*
X0461400Y0052915D01*
X0461400Y0054514D02*
X0567800Y0054514D01*
X0567800Y0056112D02*
X0461400Y0056112D01*
X0461400Y0057711D02*
X0567800Y0057711D01*
X0567800Y0059309D02*
X0461400Y0059309D01*
X0461400Y0060908D02*
X0567800Y0060908D01*
X0567800Y0062506D02*
X0461400Y0062506D01*
X0461400Y0064105D02*
X0567800Y0064105D01*
X0567800Y0065703D02*
X0461400Y0065703D01*
X0461400Y0067302D02*
X0567800Y0067302D01*
X0567800Y0068900D02*
X0461400Y0068900D01*
X0461400Y0070499D02*
X0567800Y0070499D01*
X0567800Y0072097D02*
X0461400Y0072097D01*
X0461400Y0073696D02*
X0567800Y0073696D01*
X0567800Y0075294D02*
X0461400Y0075294D01*
X0461400Y0076893D02*
X0567800Y0076893D01*
X0567800Y0078491D02*
X0461400Y0078491D01*
X0461400Y0080090D02*
X0567800Y0080090D01*
X0567800Y0081688D02*
X0461400Y0081688D01*
X0461400Y0083287D02*
X0567800Y0083287D01*
X0567800Y0084885D02*
X0461400Y0084885D01*
X0461400Y0086484D02*
X0567800Y0086484D01*
X0567800Y0088082D02*
X0461400Y0088082D01*
X0461400Y0089681D02*
X0567800Y0089681D01*
X0567800Y0091279D02*
X0461400Y0091279D01*
X0461400Y0092878D02*
X0567800Y0092878D01*
X0567800Y0094476D02*
X0461400Y0094476D01*
X0461400Y0096075D02*
X0567800Y0096075D01*
X0567800Y0097673D02*
X0461400Y0097673D01*
X0461400Y0099272D02*
X0567800Y0099272D01*
X0567800Y0100870D02*
X0460821Y0100870D01*
X0459222Y0102469D02*
X0567800Y0102469D01*
X0567800Y0104068D02*
X0457624Y0104068D01*
X0456025Y0105666D02*
X0567800Y0105666D01*
X0567800Y0107265D02*
X0454427Y0107265D01*
X0452828Y0108863D02*
X0567800Y0108863D01*
X0567800Y0110462D02*
X0451230Y0110462D01*
X0449631Y0112060D02*
X0567800Y0112060D01*
X0567800Y0113659D02*
X0449895Y0113659D01*
X0451426Y0115257D02*
X0567800Y0115257D01*
X0567800Y0116856D02*
X0452088Y0116856D01*
X0452200Y0118454D02*
X0567800Y0118454D01*
X0567800Y0120053D02*
X0452200Y0120053D01*
X0452200Y0121651D02*
X0567800Y0121651D01*
X0567800Y0123250D02*
X0452200Y0123250D01*
X0452045Y0124848D02*
X0567800Y0124848D01*
X0567800Y0126447D02*
X0451383Y0126447D01*
X0449696Y0128045D02*
X0567800Y0128045D01*
X0567800Y0129644D02*
X0421200Y0129644D01*
X0421200Y0131242D02*
X0567800Y0131242D01*
X0471768Y0136038D02*
X0445187Y0136038D01*
X0439800Y0140320D02*
X0460320Y0140320D01*
X0466800Y0146800D01*
X0462136Y0147227D02*
X0445750Y0147227D01*
X0445750Y0145629D02*
X0460538Y0145629D01*
X0458939Y0144030D02*
X0445503Y0144030D01*
X0462727Y0137636D02*
X0470952Y0137636D01*
X0470814Y0139235D02*
X0464326Y0139235D01*
X0465924Y0140833D02*
X0471298Y0140833D01*
X0424411Y0132841D02*
X0421200Y0132841D01*
X0421200Y0134439D02*
X0423505Y0134439D01*
X0423311Y0136038D02*
X0421200Y0136038D01*
X0421200Y0137636D02*
X0423400Y0137636D01*
X0423400Y0139235D02*
X0421200Y0139235D01*
X0421200Y0140833D02*
X0423400Y0140833D01*
X0423400Y0142432D02*
X0421200Y0142432D01*
X0421200Y0144030D02*
X0423400Y0144030D01*
X0423400Y0145629D02*
X0421200Y0145629D01*
X0421200Y0147227D02*
X0423400Y0147227D01*
X0423400Y0148826D02*
X0421200Y0148826D01*
X0421200Y0150424D02*
X0423400Y0150424D01*
X0423400Y0152023D02*
X0422245Y0152023D01*
X0412400Y0140833D02*
X0397924Y0140833D01*
X0395600Y0139235D02*
X0412400Y0139235D01*
X0412400Y0137636D02*
X0370289Y0137636D01*
X0370289Y0136038D02*
X0412400Y0136038D01*
X0412400Y0134439D02*
X0369681Y0134439D01*
X0367972Y0132841D02*
X0412400Y0132841D01*
X0412400Y0131242D02*
X0361333Y0131242D01*
X0362932Y0132841D02*
X0363628Y0132841D01*
X0363957Y0129644D02*
X0412400Y0129644D01*
X0412400Y0128045D02*
X0409696Y0128045D01*
X0411383Y0126447D02*
X0412217Y0126447D01*
X0403904Y0128045D02*
X0399696Y0128045D01*
X0401383Y0126447D02*
X0402217Y0126447D01*
X0393904Y0128045D02*
X0389696Y0128045D01*
X0391383Y0126447D02*
X0392217Y0126447D01*
X0383904Y0128045D02*
X0365555Y0128045D01*
X0365750Y0126447D02*
X0382217Y0126447D01*
X0381555Y0124848D02*
X0365750Y0124848D01*
X0365750Y0125800D02*
X0360800Y0125800D01*
X0365750Y0125800D01*
X0365250Y0123250D02*
X0381400Y0123250D01*
X0381400Y0121651D02*
X0363651Y0121651D01*
X0364962Y0120053D02*
X0381400Y0120053D01*
X0381400Y0118454D02*
X0366141Y0118454D01*
X0366750Y0116856D02*
X0381512Y0116856D01*
X0382174Y0115257D02*
X0366750Y0115257D01*
X0366353Y0113659D02*
X0383705Y0113659D01*
X0389895Y0113659D02*
X0393705Y0113659D01*
X0392174Y0115257D02*
X0391426Y0115257D01*
X0399895Y0113659D02*
X0403705Y0113659D01*
X0402174Y0115257D02*
X0401426Y0115257D01*
X0409895Y0113659D02*
X0413705Y0113659D01*
X0412174Y0115257D02*
X0411426Y0115257D01*
X0419895Y0113659D02*
X0423705Y0113659D01*
X0422174Y0115257D02*
X0421426Y0115257D01*
X0429895Y0113659D02*
X0433705Y0113659D01*
X0432174Y0115257D02*
X0431426Y0115257D01*
X0439449Y0112060D02*
X0365475Y0112060D01*
X0363460Y0110462D02*
X0441047Y0110462D01*
X0442646Y0108863D02*
X0356271Y0108863D01*
X0356289Y0110462D02*
X0358140Y0110462D01*
X0356125Y0112060D02*
X0355723Y0112060D01*
X0351800Y0109800D02*
X0351800Y0126800D01*
X0361800Y0136800D01*
X0365800Y0136800D01*
X0360800Y0125800D02*
X0360800Y0125800D01*
X0343280Y0136038D02*
X0342320Y0136038D01*
X0342320Y0135941D02*
X0342320Y0139820D01*
X0337850Y0139820D01*
X0337850Y0137504D01*
X0337973Y0137046D01*
X0338210Y0136636D01*
X0338545Y0136301D01*
X0338956Y0136064D01*
X0339413Y0135941D01*
X0342320Y0135941D01*
X0342320Y0137636D02*
X0343280Y0137636D01*
X0343280Y0139235D02*
X0342320Y0139235D01*
X0337850Y0139235D02*
X0336750Y0139235D01*
X0336750Y0140340D02*
X0336750Y0138024D01*
X0336627Y0137566D01*
X0336390Y0137155D01*
X0336055Y0136820D01*
X0335644Y0136583D01*
X0335187Y0136461D01*
X0332280Y0136461D01*
X0332280Y0140340D01*
X0336750Y0140340D01*
X0337850Y0140833D02*
X0332280Y0140833D01*
X0331320Y0140833D02*
X0315400Y0140833D01*
X0315400Y0139235D02*
X0326850Y0139235D01*
X0326954Y0137636D02*
X0315400Y0137636D01*
X0315400Y0136038D02*
X0339052Y0136038D01*
X0337850Y0137636D02*
X0336646Y0137636D01*
X0332280Y0137636D02*
X0331320Y0137636D01*
X0331320Y0139235D02*
X0332280Y0139235D01*
X0336750Y0142432D02*
X0337850Y0142432D01*
X0337276Y0144030D02*
X0337199Y0144030D01*
X0331800Y0148300D02*
X0331800Y0157808D01*
X0331816Y0157824D01*
X0326826Y0153621D02*
X0326806Y0153621D01*
X0326102Y0152023D02*
X0324797Y0152023D01*
X0325850Y0150424D02*
X0315400Y0150424D01*
X0315400Y0148826D02*
X0325850Y0148826D01*
X0325850Y0147227D02*
X0315400Y0147227D01*
X0315400Y0145629D02*
X0325850Y0145629D01*
X0326401Y0144030D02*
X0315400Y0144030D01*
X0315400Y0142432D02*
X0326850Y0142432D01*
X0318835Y0152023D02*
X0315400Y0152023D01*
X0316806Y0153621D02*
X0316826Y0153621D01*
X0311800Y0157808D02*
X0311800Y0123800D01*
X0301800Y0123800D02*
X0301800Y0157808D01*
X0298012Y0163212D02*
X0295619Y0163212D01*
X0288012Y0163212D02*
X0285619Y0163212D01*
X0278012Y0163212D02*
X0275619Y0163212D01*
X0268012Y0163212D02*
X0265619Y0163212D01*
X0258012Y0163212D02*
X0255619Y0163212D01*
X0248012Y0163212D02*
X0245619Y0163212D01*
X0238012Y0163212D02*
X0235619Y0163212D01*
X0228012Y0163212D02*
X0222951Y0163212D01*
X0222016Y0163212D02*
X0221616Y0163212D01*
X0220681Y0163212D02*
X0215619Y0163212D01*
X0217218Y0161614D02*
X0217828Y0161614D01*
X0221616Y0161614D02*
X0222016Y0161614D01*
X0222016Y0160015D02*
X0221616Y0160015D01*
X0221616Y0158417D02*
X0222016Y0158417D01*
X0222016Y0156818D02*
X0221616Y0156818D01*
X0221616Y0155220D02*
X0222016Y0155220D01*
X0222016Y0153621D02*
X0221616Y0153621D01*
X0224395Y0152023D02*
X0214797Y0152023D01*
X0216806Y0153621D02*
X0218243Y0153621D01*
X0225389Y0153621D02*
X0226826Y0153621D01*
X0233750Y0150424D02*
X0281850Y0150424D01*
X0281850Y0148826D02*
X0233750Y0148826D01*
X0233750Y0147227D02*
X0281850Y0147227D01*
X0281850Y0145629D02*
X0233750Y0145629D01*
X0234495Y0144030D02*
X0244894Y0144030D01*
X0247800Y0140300D02*
X0228800Y0140300D01*
X0234797Y0152023D02*
X0238835Y0152023D01*
X0236826Y0153621D02*
X0236806Y0153621D01*
X0244797Y0152023D02*
X0248835Y0152023D01*
X0246826Y0153621D02*
X0246806Y0153621D01*
X0254797Y0152023D02*
X0258835Y0152023D01*
X0256826Y0153621D02*
X0256806Y0153621D01*
X0264797Y0152023D02*
X0268835Y0152023D01*
X0266826Y0153621D02*
X0266806Y0153621D01*
X0274797Y0152023D02*
X0278835Y0152023D01*
X0276826Y0153621D02*
X0276806Y0153621D01*
X0286320Y0152023D02*
X0287280Y0152023D01*
X0287280Y0150424D02*
X0286320Y0150424D01*
X0286320Y0148826D02*
X0287280Y0148826D01*
X0286826Y0153621D02*
X0286806Y0153621D01*
X0291800Y0157808D02*
X0291800Y0123800D01*
X0287418Y0128045D02*
X0286182Y0128045D01*
X0286800Y0127427D02*
X0288200Y0128827D01*
X0288200Y0134941D01*
X0283093Y0134941D01*
X0282064Y0135367D01*
X0281277Y0136155D01*
X0281051Y0136700D01*
X0271837Y0136700D01*
X0270900Y0135763D01*
X0270900Y0134584D01*
X0270352Y0133261D01*
X0265659Y0128568D01*
X0266971Y0127255D01*
X0267359Y0126318D01*
X0267438Y0126473D01*
X0267910Y0127122D01*
X0268478Y0127690D01*
X0269127Y0128162D01*
X0269842Y0128526D01*
X0270606Y0128774D01*
X0271399Y0128900D01*
X0271500Y0128900D01*
X0271500Y0124100D01*
X0272100Y0124100D01*
X0272100Y0128900D01*
X0272201Y0128900D01*
X0272994Y0128774D01*
X0273758Y0128526D01*
X0274473Y0128162D01*
X0275122Y0127690D01*
X0275690Y0127122D01*
X0276162Y0126473D01*
X0276241Y0126318D01*
X0276629Y0127255D01*
X0278345Y0128971D01*
X0280587Y0129900D01*
X0283013Y0129900D01*
X0285255Y0128971D01*
X0286800Y0127427D01*
X0288200Y0129644D02*
X0283632Y0129644D01*
X0279968Y0129644D02*
X0266735Y0129644D01*
X0266182Y0128045D02*
X0268966Y0128045D01*
X0267425Y0126447D02*
X0267306Y0126447D01*
X0271500Y0126447D02*
X0272100Y0126447D01*
X0272100Y0128045D02*
X0271500Y0128045D01*
X0274634Y0128045D02*
X0277418Y0128045D01*
X0276294Y0126447D02*
X0276175Y0126447D01*
X0272100Y0124848D02*
X0271500Y0124848D01*
X0268333Y0131242D02*
X0288200Y0131242D01*
X0288200Y0132841D02*
X0269932Y0132841D01*
X0270840Y0134439D02*
X0288200Y0134439D01*
X0286800Y0140300D02*
X0267800Y0140300D01*
X0267300Y0139800D01*
X0267300Y0135300D01*
X0261800Y0129800D01*
X0261800Y0123800D01*
X0269800Y0111800D02*
X0271800Y0109800D01*
X0271800Y0108300D01*
X0269800Y0111800D02*
X0189800Y0111800D01*
X0167216Y0108863D02*
X0166721Y0108863D01*
X0162879Y0108863D02*
X0140677Y0108863D01*
X0164800Y0104800D02*
X0308800Y0104800D01*
X0311800Y0101800D01*
X0311800Y0093800D01*
X0316308Y0089681D02*
X0317292Y0089681D01*
X0319663Y0088082D02*
X0313937Y0088082D01*
X0309663Y0088082D02*
X0303937Y0088082D01*
X0306308Y0089681D02*
X0307292Y0089681D01*
X0307047Y0097673D02*
X0306553Y0097673D01*
X0308200Y0099272D02*
X0304530Y0099272D01*
X0307638Y0100870D02*
X0201215Y0100870D01*
X0201289Y0099272D02*
X0209070Y0099272D01*
X0207047Y0097673D02*
X0200778Y0097673D01*
X0196800Y0099800D02*
X0164800Y0099800D01*
X0127800Y0086800D02*
X0229800Y0086800D01*
X0231800Y0088800D01*
X0231800Y0093800D01*
X0236553Y0097673D02*
X0237047Y0097673D01*
X0239070Y0099272D02*
X0234530Y0099272D01*
X0229070Y0099272D02*
X0224530Y0099272D01*
X0226553Y0097673D02*
X0227047Y0097673D01*
X0219070Y0099272D02*
X0214530Y0099272D01*
X0216553Y0097673D02*
X0217047Y0097673D01*
X0234800Y0081800D02*
X0241800Y0088800D01*
X0241800Y0093800D01*
X0246308Y0089681D02*
X0247292Y0089681D01*
X0247383Y0088082D02*
X0248343Y0088082D01*
X0248343Y0086484D02*
X0247383Y0086484D01*
X0247383Y0084885D02*
X0248343Y0084885D01*
X0243504Y0084885D02*
X0242977Y0084885D01*
X0243504Y0083287D02*
X0241378Y0083287D01*
X0239780Y0081688D02*
X0243504Y0081688D01*
X0234800Y0081800D02*
X0147800Y0081800D01*
X0142800Y0076800D01*
X0142800Y0025800D01*
X0137800Y0020800D01*
X0129800Y0020800D01*
X0121800Y0028800D01*
X0136375Y0025740D02*
X0137649Y0025740D01*
X0137108Y0027339D02*
X0139200Y0027339D01*
X0140852Y0018761D02*
X0139839Y0017748D01*
X0121800Y0038800D02*
X0114800Y0038800D01*
X0047555Y0054514D02*
X0006800Y0054514D01*
X0006800Y0056112D02*
X0045957Y0056112D01*
X0045137Y0057711D02*
X0006800Y0057711D01*
X0006800Y0059309D02*
X0044500Y0059309D01*
X0044500Y0060908D02*
X0006800Y0060908D01*
X0006800Y0062506D02*
X0044564Y0062506D01*
X0045226Y0064105D02*
X0006800Y0064105D01*
X0006800Y0065703D02*
X0046172Y0065703D01*
X0112400Y0070499D02*
X0115468Y0070499D01*
X0116130Y0072097D02*
X0112400Y0072097D01*
X0112400Y0073696D02*
X0117503Y0073696D01*
X0118200Y0075294D02*
X0112400Y0075294D01*
X0112400Y0076893D02*
X0118200Y0076893D01*
X0118200Y0078491D02*
X0112400Y0078491D01*
X0112400Y0080090D02*
X0118200Y0080090D01*
X0118271Y0081688D02*
X0112400Y0081688D01*
X0112400Y0083287D02*
X0119196Y0083287D01*
X0120794Y0084885D02*
X0112400Y0084885D01*
X0112400Y0086484D02*
X0122393Y0086484D01*
X0123991Y0088082D02*
X0112400Y0088082D01*
X0112400Y0089681D02*
X0125590Y0089681D01*
X0127780Y0081688D02*
X0142597Y0081688D01*
X0140999Y0080090D02*
X0126181Y0080090D01*
X0125400Y0078491D02*
X0139604Y0078491D01*
X0139200Y0076893D02*
X0125400Y0076893D01*
X0125400Y0075294D02*
X0130493Y0075294D01*
X0133107Y0075294D02*
X0139200Y0075294D01*
X0139200Y0073696D02*
X0136097Y0073696D01*
X0137470Y0072097D02*
X0139200Y0072097D01*
X0127503Y0073696D02*
X0126097Y0073696D01*
X0244530Y0099272D02*
X0249070Y0099272D01*
X0247047Y0097673D02*
X0246553Y0097673D01*
X0254530Y0099272D02*
X0259070Y0099272D01*
X0257047Y0097673D02*
X0256553Y0097673D01*
X0264530Y0099272D02*
X0269070Y0099272D01*
X0267047Y0097673D02*
X0266553Y0097673D01*
X0274530Y0099272D02*
X0289070Y0099272D01*
X0287047Y0097673D02*
X0285139Y0097673D01*
X0282100Y0097673D02*
X0281500Y0097673D01*
X0281500Y0096075D02*
X0282100Y0096075D01*
X0282100Y0094476D02*
X0281500Y0094476D01*
X0281500Y0093500D02*
X0282100Y0093500D01*
X0282100Y0088700D01*
X0282201Y0088700D01*
X0282994Y0088826D01*
X0283758Y0089074D01*
X0284473Y0089438D01*
X0285122Y0089910D01*
X0285690Y0090478D01*
X0286162Y0091127D01*
X0286241Y0091281D01*
X0286629Y0090345D01*
X0288200Y0088773D01*
X0288200Y0086079D01*
X0287693Y0086289D01*
X0285907Y0086289D01*
X0285692Y0086200D01*
X0268623Y0086200D01*
X0266200Y0088623D01*
X0266200Y0089573D01*
X0266800Y0090173D01*
X0268345Y0088629D01*
X0270587Y0087700D01*
X0273013Y0087700D01*
X0275255Y0088629D01*
X0276971Y0090345D01*
X0277359Y0091281D01*
X0277438Y0091127D01*
X0277910Y0090478D01*
X0278478Y0089910D01*
X0279127Y0089438D01*
X0279842Y0089074D01*
X0280606Y0088826D01*
X0281399Y0088700D01*
X0281500Y0088700D01*
X0281500Y0093500D01*
X0281500Y0092878D02*
X0282100Y0092878D01*
X0282100Y0091279D02*
X0281500Y0091279D01*
X0281500Y0089681D02*
X0282100Y0089681D01*
X0284807Y0089681D02*
X0287292Y0089681D01*
X0288200Y0088082D02*
X0273937Y0088082D01*
X0276308Y0089681D02*
X0278793Y0089681D01*
X0277360Y0091279D02*
X0277359Y0091279D01*
X0286240Y0091279D02*
X0286241Y0091279D01*
X0288200Y0086484D02*
X0268339Y0086484D01*
X0269663Y0088082D02*
X0266740Y0088082D01*
X0266308Y0089681D02*
X0267292Y0089681D01*
X0261800Y0086800D02*
X0258800Y0083800D01*
X0255737Y0083800D01*
X0276553Y0097673D02*
X0278461Y0097673D01*
X0294530Y0099272D02*
X0299070Y0099272D01*
X0297047Y0097673D02*
X0296553Y0097673D01*
X0323937Y0088082D02*
X0329663Y0088082D01*
X0327292Y0089681D02*
X0326308Y0089681D01*
X0333937Y0088082D02*
X0339663Y0088082D01*
X0337292Y0089681D02*
X0336308Y0089681D01*
X0343937Y0088082D02*
X0346200Y0088082D01*
X0368400Y0088082D02*
X0381400Y0088082D01*
X0381400Y0087126D02*
X0382222Y0085141D01*
X0383741Y0083622D01*
X0385726Y0082800D01*
X0387874Y0082800D01*
X0389859Y0083622D01*
X0391378Y0085141D01*
X0391800Y0086160D01*
X0392222Y0085141D01*
X0393741Y0083622D01*
X0395726Y0082800D01*
X0397874Y0082800D01*
X0399859Y0083622D01*
X0401378Y0085141D01*
X0401800Y0086160D01*
X0402222Y0085141D01*
X0403741Y0083622D01*
X0405726Y0082800D01*
X0407874Y0082800D01*
X0409859Y0083622D01*
X0411378Y0085141D01*
X0412200Y0087126D01*
X0412200Y0094474D01*
X0411378Y0096459D01*
X0409859Y0097978D01*
X0407874Y0098800D01*
X0405726Y0098800D01*
X0403741Y0097978D01*
X0402222Y0096459D01*
X0401800Y0095440D01*
X0401378Y0096459D01*
X0399859Y0097978D01*
X0397874Y0098800D01*
X0395726Y0098800D01*
X0393741Y0097978D01*
X0392222Y0096459D01*
X0391800Y0095440D01*
X0391378Y0096459D01*
X0389859Y0097978D01*
X0387874Y0098800D01*
X0385726Y0098800D01*
X0383741Y0097978D01*
X0382222Y0096459D01*
X0381400Y0094474D01*
X0381400Y0087126D01*
X0381666Y0086484D02*
X0368400Y0086484D01*
X0368400Y0084885D02*
X0382478Y0084885D01*
X0384550Y0083287D02*
X0368400Y0083287D01*
X0368400Y0081688D02*
X0454200Y0081688D01*
X0454200Y0080090D02*
X0368400Y0080090D01*
X0368400Y0078491D02*
X0454200Y0078491D01*
X0454200Y0076893D02*
X0368400Y0076893D01*
X0368400Y0075294D02*
X0454200Y0075294D01*
X0454200Y0083287D02*
X0449050Y0083287D01*
X0449859Y0083622D02*
X0451378Y0085141D01*
X0452200Y0087126D01*
X0452200Y0094474D01*
X0451378Y0096459D01*
X0449859Y0097978D01*
X0447874Y0098800D01*
X0445726Y0098800D01*
X0443741Y0097978D01*
X0442222Y0096459D01*
X0441800Y0095440D01*
X0441378Y0096459D01*
X0439859Y0097978D01*
X0437874Y0098800D01*
X0435726Y0098800D01*
X0433741Y0097978D01*
X0432222Y0096459D01*
X0431800Y0095440D01*
X0431378Y0096459D01*
X0429859Y0097978D01*
X0427874Y0098800D01*
X0425726Y0098800D01*
X0423741Y0097978D01*
X0422222Y0096459D01*
X0421400Y0094474D01*
X0421400Y0087126D01*
X0422222Y0085141D01*
X0423741Y0083622D01*
X0425726Y0082800D01*
X0427874Y0082800D01*
X0429859Y0083622D01*
X0431378Y0085141D01*
X0431800Y0086160D01*
X0432222Y0085141D01*
X0433741Y0083622D01*
X0435726Y0082800D01*
X0437874Y0082800D01*
X0439859Y0083622D01*
X0441378Y0085141D01*
X0441800Y0086160D01*
X0442222Y0085141D01*
X0443741Y0083622D01*
X0445726Y0082800D01*
X0447874Y0082800D01*
X0449859Y0083622D01*
X0451122Y0084885D02*
X0454200Y0084885D01*
X0454200Y0086484D02*
X0451934Y0086484D01*
X0452200Y0088082D02*
X0454200Y0088082D01*
X0454200Y0089681D02*
X0452200Y0089681D01*
X0452200Y0091279D02*
X0454200Y0091279D01*
X0454200Y0092878D02*
X0452200Y0092878D01*
X0452199Y0094476D02*
X0454200Y0094476D01*
X0454200Y0096075D02*
X0451537Y0096075D01*
X0450163Y0097673D02*
X0453835Y0097673D01*
X0452237Y0099272D02*
X0365419Y0099272D01*
X0363821Y0100870D02*
X0450638Y0100870D01*
X0449040Y0102469D02*
X0362222Y0102469D01*
X0360624Y0104068D02*
X0447441Y0104068D01*
X0445843Y0105666D02*
X0359025Y0105666D01*
X0357427Y0107265D02*
X0444244Y0107265D01*
X0443437Y0097673D02*
X0440163Y0097673D01*
X0441537Y0096075D02*
X0442063Y0096075D01*
X0433437Y0097673D02*
X0430163Y0097673D01*
X0431537Y0096075D02*
X0432063Y0096075D01*
X0423437Y0097673D02*
X0417886Y0097673D01*
X0417830Y0097692D02*
X0417146Y0097800D01*
X0416800Y0097800D01*
X0416800Y0090800D01*
X0416800Y0090800D01*
X0421200Y0090800D01*
X0421200Y0093746D01*
X0421092Y0094430D01*
X0420878Y0095089D01*
X0420563Y0095706D01*
X0420156Y0096266D01*
X0419666Y0096756D01*
X0419106Y0097163D01*
X0418489Y0097478D01*
X0417830Y0097692D01*
X0416800Y0097673D02*
X0416800Y0097673D01*
X0416800Y0097800D02*
X0416454Y0097800D01*
X0415770Y0097692D01*
X0415111Y0097478D01*
X0414494Y0097163D01*
X0413934Y0096756D01*
X0413444Y0096266D01*
X0413037Y0095706D01*
X0412722Y0095089D01*
X0412508Y0094430D01*
X0412400Y0093746D01*
X0412400Y0090800D01*
X0416800Y0090800D01*
X0416800Y0090800D01*
X0416800Y0090800D01*
X0416800Y0097800D01*
X0415714Y0097673D02*
X0410163Y0097673D01*
X0411537Y0096075D02*
X0413305Y0096075D01*
X0412523Y0094476D02*
X0412199Y0094476D01*
X0412200Y0092878D02*
X0412400Y0092878D01*
X0412400Y0091279D02*
X0412200Y0091279D01*
X0412400Y0090800D02*
X0412400Y0087854D01*
X0412508Y0087170D01*
X0412722Y0086511D01*
X0413037Y0085894D01*
X0413444Y0085334D01*
X0413934Y0084844D01*
X0414494Y0084437D01*
X0415111Y0084122D01*
X0415770Y0083908D01*
X0416454Y0083800D01*
X0416800Y0083800D01*
X0417146Y0083800D01*
X0417830Y0083908D01*
X0418489Y0084122D01*
X0419106Y0084437D01*
X0419666Y0084844D01*
X0420156Y0085334D01*
X0420563Y0085894D01*
X0420878Y0086511D01*
X0421092Y0087170D01*
X0421200Y0087854D01*
X0421200Y0090800D01*
X0416800Y0090800D01*
X0416800Y0083800D01*
X0416800Y0090800D01*
X0416800Y0090800D01*
X0412400Y0090800D01*
X0412400Y0089681D02*
X0412200Y0089681D01*
X0412200Y0088082D02*
X0412400Y0088082D01*
X0412736Y0086484D02*
X0411934Y0086484D01*
X0411122Y0084885D02*
X0413892Y0084885D01*
X0416800Y0084885D02*
X0416800Y0084885D01*
X0416800Y0086484D02*
X0416800Y0086484D01*
X0416800Y0088082D02*
X0416800Y0088082D01*
X0416800Y0089681D02*
X0416800Y0089681D01*
X0416800Y0091279D02*
X0416800Y0091279D01*
X0416800Y0092878D02*
X0416800Y0092878D01*
X0416800Y0094476D02*
X0416800Y0094476D01*
X0416800Y0096075D02*
X0416800Y0096075D01*
X0420295Y0096075D02*
X0422063Y0096075D01*
X0421401Y0094476D02*
X0421077Y0094476D01*
X0421200Y0092878D02*
X0421400Y0092878D01*
X0421400Y0091279D02*
X0421200Y0091279D01*
X0421200Y0089681D02*
X0421400Y0089681D01*
X0421400Y0088082D02*
X0421200Y0088082D01*
X0420864Y0086484D02*
X0421666Y0086484D01*
X0422478Y0084885D02*
X0419708Y0084885D01*
X0424550Y0083287D02*
X0409050Y0083287D01*
X0404550Y0083287D02*
X0399050Y0083287D01*
X0401122Y0084885D02*
X0402478Y0084885D01*
X0394550Y0083287D02*
X0389050Y0083287D01*
X0391122Y0084885D02*
X0392478Y0084885D01*
X0381400Y0089681D02*
X0368400Y0089681D01*
X0368400Y0091279D02*
X0381400Y0091279D01*
X0381400Y0092878D02*
X0368400Y0092878D01*
X0368400Y0094476D02*
X0381401Y0094476D01*
X0382063Y0096075D02*
X0368169Y0096075D01*
X0367018Y0097673D02*
X0383437Y0097673D01*
X0390163Y0097673D02*
X0393437Y0097673D01*
X0392063Y0096075D02*
X0391537Y0096075D01*
X0400163Y0097673D02*
X0403437Y0097673D01*
X0402063Y0096075D02*
X0401537Y0096075D01*
X0429050Y0083287D02*
X0434550Y0083287D01*
X0432478Y0084885D02*
X0431122Y0084885D01*
X0439050Y0083287D02*
X0444550Y0083287D01*
X0442478Y0084885D02*
X0441122Y0084885D01*
X0413800Y0068800D02*
X0392926Y0068800D01*
X0388279Y0073696D02*
X0387573Y0073696D01*
X0378027Y0073696D02*
X0369995Y0073696D01*
X0327800Y0100800D02*
X0326945Y0101655D01*
X0331800Y0106800D02*
X0331800Y0123800D01*
X0333632Y0129644D02*
X0337324Y0129644D01*
X0342800Y0148174D02*
X0342800Y0148571D01*
X0343029Y0148800D01*
X0360474Y0155220D02*
X0361420Y0155220D01*
X0365720Y0160220D02*
X0355900Y0160220D01*
X0365720Y0160220D02*
X0365800Y0160300D01*
X0365800Y0147800D01*
X0328012Y0163212D02*
X0325619Y0163212D01*
X0318012Y0163212D02*
X0315619Y0163212D01*
X0308012Y0163212D02*
X0305619Y0163212D01*
X0294180Y0179198D02*
X0274850Y0179198D01*
X0274850Y0180796D02*
X0292581Y0180796D01*
X0290983Y0182395D02*
X0275616Y0182395D01*
X0275850Y0183993D02*
X0289384Y0183993D01*
X0287786Y0185592D02*
X0275850Y0185592D01*
X0275850Y0187190D02*
X0286187Y0187190D01*
X0284589Y0188789D02*
X0275850Y0188789D01*
X0275255Y0190387D02*
X0283609Y0190387D01*
X0283376Y0191986D02*
X0274300Y0191986D01*
X0274300Y0193584D02*
X0283376Y0193584D01*
X0283376Y0195183D02*
X0274300Y0195183D01*
X0274300Y0196781D02*
X0283376Y0196781D01*
X0283008Y0198380D02*
X0274592Y0198380D01*
X0274592Y0199978D02*
X0283008Y0199978D01*
X0283008Y0201577D02*
X0274592Y0201577D01*
X0274592Y0203175D02*
X0283008Y0203175D01*
X0283008Y0204774D02*
X0274592Y0204774D01*
X0274276Y0206372D02*
X0283324Y0206372D01*
X0292229Y0206372D02*
X0319400Y0206372D01*
X0319400Y0204774D02*
X0292545Y0204774D01*
X0292545Y0203175D02*
X0319400Y0203175D01*
X0319400Y0201577D02*
X0292545Y0201577D01*
X0292545Y0199978D02*
X0319400Y0199978D01*
X0319400Y0198380D02*
X0292545Y0198380D01*
X0269900Y0201826D02*
X0269824Y0201902D01*
X0261902Y0201902D02*
X0261800Y0201800D01*
X0260800Y0201800D01*
X0256311Y0201577D02*
X0245686Y0201577D01*
X0247224Y0203175D02*
X0256511Y0203175D01*
X0257425Y0204774D02*
X0247400Y0204774D01*
X0247400Y0206372D02*
X0265371Y0206372D01*
X0247400Y0207971D02*
X0319400Y0207971D01*
X0319400Y0209569D02*
X0247400Y0209569D01*
X0247400Y0211168D02*
X0307230Y0211168D01*
X0305779Y0212766D02*
X0247213Y0212766D01*
X0245622Y0214365D02*
X0305117Y0214365D01*
X0305000Y0215963D02*
X0209566Y0215963D01*
X0209687Y0216025D02*
X0210413Y0216552D01*
X0211048Y0217187D01*
X0211575Y0217913D01*
X0211982Y0218712D01*
X0212260Y0219565D01*
X0212400Y0220451D01*
X0212400Y0224300D01*
X0207200Y0224300D01*
X0207200Y0225300D01*
X0212400Y0225300D01*
X0212400Y0229149D01*
X0212260Y0230035D01*
X0211982Y0230888D01*
X0211575Y0231687D01*
X0211048Y0232413D01*
X0210413Y0233048D01*
X0209687Y0233575D01*
X0208888Y0233982D01*
X0208035Y0234260D01*
X0207200Y0234392D01*
X0207200Y0225300D01*
X0206200Y0225300D01*
X0206200Y0234392D01*
X0205365Y0234260D01*
X0204512Y0233982D01*
X0203713Y0233575D01*
X0202987Y0233048D01*
X0202352Y0232413D01*
X0201825Y0231687D01*
X0201418Y0230888D01*
X0201140Y0230035D01*
X0201000Y0229149D01*
X0201000Y0225300D01*
X0206200Y0225300D01*
X0206200Y0224300D01*
X0207200Y0224300D01*
X0207200Y0215208D01*
X0208035Y0215340D01*
X0208888Y0215618D01*
X0209687Y0216025D01*
X0211320Y0217562D02*
X0266597Y0217562D01*
X0266493Y0217743D02*
X0266730Y0217333D01*
X0267065Y0216997D01*
X0267475Y0216760D01*
X0267933Y0216638D01*
X0278000Y0216638D01*
X0278000Y0229842D01*
X0279600Y0229842D01*
X0279600Y0216638D01*
X0289667Y0216638D01*
X0290125Y0216760D01*
X0290535Y0216997D01*
X0290870Y0217333D01*
X0291107Y0217743D01*
X0291230Y0218201D01*
X0291230Y0229843D01*
X0279600Y0229843D01*
X0279600Y0231442D01*
X0291230Y0231442D01*
X0291230Y0243084D01*
X0291107Y0243542D01*
X0290870Y0243952D01*
X0290535Y0244288D01*
X0290125Y0244525D01*
X0289667Y0244647D01*
X0279600Y0244647D01*
X0279600Y0231443D01*
X0278000Y0231443D01*
X0278000Y0244647D01*
X0267933Y0244647D01*
X0267475Y0244525D01*
X0267065Y0244288D01*
X0266730Y0243952D01*
X0266493Y0243542D01*
X0266370Y0243084D01*
X0266370Y0231442D01*
X0278000Y0231442D01*
X0278000Y0229843D01*
X0266370Y0229843D01*
X0266370Y0218201D01*
X0266493Y0217743D01*
X0266370Y0219160D02*
X0212128Y0219160D01*
X0212400Y0220759D02*
X0266370Y0220759D01*
X0266370Y0222357D02*
X0242656Y0222357D01*
X0242950Y0222453D02*
X0243735Y0222853D01*
X0244448Y0223371D01*
X0245071Y0223994D01*
X0245590Y0224707D01*
X0245990Y0225493D01*
X0246262Y0226331D01*
X0246400Y0227202D01*
X0246400Y0227557D01*
X0240886Y0227557D01*
X0240886Y0227728D01*
X0246400Y0227728D01*
X0246400Y0228083D01*
X0246262Y0228954D01*
X0245990Y0229792D01*
X0245590Y0230578D01*
X0245071Y0231291D01*
X0244448Y0231914D01*
X0243735Y0232432D01*
X0242950Y0232832D01*
X0242111Y0233105D01*
X0241241Y0233243D01*
X0240886Y0233243D01*
X0240886Y0227728D01*
X0240714Y0227728D01*
X0240714Y0227557D01*
X0235200Y0227557D01*
X0235200Y0227202D01*
X0235338Y0226331D01*
X0235610Y0225493D01*
X0236010Y0224707D01*
X0236529Y0223994D01*
X0237152Y0223371D01*
X0237865Y0222853D01*
X0238650Y0222453D01*
X0239489Y0222180D01*
X0240359Y0222043D01*
X0240714Y0222043D01*
X0240714Y0227557D01*
X0240886Y0227557D01*
X0240886Y0222043D01*
X0241241Y0222043D01*
X0242111Y0222180D01*
X0242950Y0222453D01*
X0240886Y0222357D02*
X0240714Y0222357D01*
X0240714Y0223956D02*
X0240886Y0223956D01*
X0240886Y0225554D02*
X0240714Y0225554D01*
X0240714Y0227153D02*
X0240886Y0227153D01*
X0240714Y0227728D02*
X0235200Y0227728D01*
X0235200Y0228083D01*
X0235338Y0228954D01*
X0235610Y0229792D01*
X0236010Y0230578D01*
X0236529Y0231291D01*
X0237152Y0231914D01*
X0237865Y0232432D01*
X0238650Y0232832D01*
X0239489Y0233105D01*
X0240359Y0233243D01*
X0240714Y0233243D01*
X0240714Y0227728D01*
X0240714Y0228751D02*
X0240886Y0228751D01*
X0240886Y0230350D02*
X0240714Y0230350D01*
X0240714Y0231948D02*
X0240886Y0231948D01*
X0244401Y0231948D02*
X0266370Y0231948D01*
X0266370Y0233547D02*
X0209726Y0233547D01*
X0211385Y0231948D02*
X0237199Y0231948D01*
X0235894Y0230350D02*
X0212157Y0230350D01*
X0212400Y0228751D02*
X0235306Y0228751D01*
X0235208Y0227153D02*
X0212400Y0227153D01*
X0212400Y0225554D02*
X0235590Y0225554D01*
X0236567Y0223956D02*
X0212400Y0223956D01*
X0212400Y0222357D02*
X0238944Y0222357D01*
X0245033Y0223956D02*
X0266370Y0223956D01*
X0266370Y0225554D02*
X0246010Y0225554D01*
X0246392Y0227153D02*
X0266370Y0227153D01*
X0266370Y0228751D02*
X0246294Y0228751D01*
X0245706Y0230350D02*
X0278000Y0230350D01*
X0278000Y0231948D02*
X0279600Y0231948D01*
X0279600Y0230350D02*
X0307147Y0230350D01*
X0306449Y0231948D02*
X0291230Y0231948D01*
X0291230Y0233547D02*
X0305455Y0233547D01*
X0305000Y0235145D02*
X0291230Y0235145D01*
X0291230Y0236744D02*
X0305000Y0236744D01*
X0305575Y0238342D02*
X0291230Y0238342D01*
X0291230Y0239941D02*
X0306739Y0239941D01*
X0309500Y0241539D02*
X0291230Y0241539D01*
X0291216Y0243138D02*
X0450384Y0243138D01*
X0450370Y0241539D02*
X0343100Y0241539D01*
X0345861Y0239941D02*
X0450370Y0239941D01*
X0450370Y0238342D02*
X0347025Y0238342D01*
X0347600Y0236744D02*
X0450370Y0236744D01*
X0450370Y0235145D02*
X0347600Y0235145D01*
X0347145Y0233547D02*
X0450370Y0233547D01*
X0450370Y0231948D02*
X0346151Y0231948D01*
X0331739Y0239941D02*
X0320861Y0239941D01*
X0322025Y0238342D02*
X0330575Y0238342D01*
X0329521Y0236744D02*
X0322600Y0236744D01*
X0322600Y0235145D02*
X0327923Y0235145D01*
X0326324Y0233547D02*
X0322145Y0233547D01*
X0321151Y0231948D02*
X0324726Y0231948D01*
X0323127Y0230350D02*
X0320453Y0230350D01*
X0305745Y0228751D02*
X0291230Y0228751D01*
X0291230Y0227153D02*
X0305083Y0227153D01*
X0305000Y0225554D02*
X0291230Y0225554D01*
X0291230Y0223956D02*
X0305286Y0223956D01*
X0306040Y0222357D02*
X0291230Y0222357D01*
X0291230Y0220759D02*
X0307616Y0220759D01*
X0305958Y0219160D02*
X0291230Y0219160D01*
X0291003Y0217562D02*
X0305252Y0217562D01*
X0279600Y0217562D02*
X0278000Y0217562D01*
X0278000Y0219160D02*
X0279600Y0219160D01*
X0279600Y0220759D02*
X0278000Y0220759D01*
X0278000Y0222357D02*
X0279600Y0222357D01*
X0279600Y0223956D02*
X0278000Y0223956D01*
X0278000Y0225554D02*
X0279600Y0225554D01*
X0279600Y0227153D02*
X0278000Y0227153D01*
X0278000Y0228751D02*
X0279600Y0228751D01*
X0279600Y0233547D02*
X0278000Y0233547D01*
X0278000Y0235145D02*
X0279600Y0235145D01*
X0279600Y0236744D02*
X0278000Y0236744D01*
X0278000Y0238342D02*
X0279600Y0238342D01*
X0279600Y0239941D02*
X0278000Y0239941D01*
X0278000Y0241539D02*
X0279600Y0241539D01*
X0279600Y0243138D02*
X0278000Y0243138D01*
X0266384Y0243138D02*
X0006800Y0243138D01*
X0006800Y0241539D02*
X0266370Y0241539D01*
X0266370Y0239941D02*
X0006800Y0239941D01*
X0006800Y0238342D02*
X0266370Y0238342D01*
X0266370Y0236744D02*
X0006800Y0236744D01*
X0006800Y0235145D02*
X0184953Y0235145D01*
X0182272Y0233547D02*
X0006800Y0233547D01*
X0006800Y0231948D02*
X0180994Y0231948D01*
X0180331Y0230350D02*
X0006800Y0230350D01*
X0006800Y0228751D02*
X0180200Y0228751D01*
X0180200Y0227153D02*
X0006800Y0227153D01*
X0006800Y0225554D02*
X0180200Y0225554D01*
X0180200Y0223956D02*
X0006800Y0223956D01*
X0006800Y0209569D02*
X0130389Y0209569D01*
X0127180Y0207971D02*
X0006800Y0207971D01*
X0006800Y0206372D02*
X0125464Y0206372D01*
X0124336Y0204774D02*
X0006800Y0204774D01*
X0006800Y0203175D02*
X0123609Y0203175D01*
X0123165Y0201577D02*
X0006800Y0201577D01*
X0188631Y0214365D02*
X0235978Y0214365D01*
X0207200Y0215963D02*
X0206200Y0215963D01*
X0206200Y0215208D02*
X0206200Y0224300D01*
X0201000Y0224300D01*
X0201000Y0220451D01*
X0201140Y0219565D01*
X0201418Y0218712D01*
X0201825Y0217913D01*
X0202352Y0217187D01*
X0202987Y0216552D01*
X0203713Y0216025D01*
X0204512Y0215618D01*
X0205365Y0215340D01*
X0206200Y0215208D01*
X0206200Y0217562D02*
X0207200Y0217562D01*
X0207200Y0219160D02*
X0206200Y0219160D01*
X0206200Y0220759D02*
X0207200Y0220759D01*
X0207200Y0222357D02*
X0206200Y0222357D01*
X0206200Y0223956D02*
X0207200Y0223956D01*
X0207200Y0225554D02*
X0206200Y0225554D01*
X0206200Y0227153D02*
X0207200Y0227153D01*
X0207200Y0228751D02*
X0206200Y0228751D01*
X0206200Y0230350D02*
X0207200Y0230350D01*
X0207200Y0231948D02*
X0206200Y0231948D01*
X0206200Y0233547D02*
X0207200Y0233547D01*
X0203674Y0233547D02*
X0191528Y0233547D01*
X0192806Y0231948D02*
X0202015Y0231948D01*
X0201243Y0230350D02*
X0193469Y0230350D01*
X0193600Y0228751D02*
X0201000Y0228751D01*
X0201000Y0227153D02*
X0193600Y0227153D01*
X0193600Y0225554D02*
X0201000Y0225554D01*
X0201000Y0223956D02*
X0193600Y0223956D01*
X0193600Y0222357D02*
X0201000Y0222357D01*
X0201000Y0220759D02*
X0193600Y0220759D01*
X0193431Y0219160D02*
X0201272Y0219160D01*
X0202080Y0217562D02*
X0192769Y0217562D01*
X0191439Y0215963D02*
X0203833Y0215963D01*
X0188847Y0235145D02*
X0266370Y0235145D01*
X0318100Y0241539D02*
X0334500Y0241539D01*
X0412800Y0214365D02*
X0413200Y0214365D01*
X0413200Y0215500D02*
X0413200Y0210900D01*
X0420800Y0210900D01*
X0420800Y0211078D01*
X0420682Y0211824D01*
X0420448Y0212543D01*
X0420105Y0213216D01*
X0419661Y0213827D01*
X0419127Y0214361D01*
X0418516Y0214805D01*
X0417843Y0215148D01*
X0417124Y0215382D01*
X0416378Y0215500D01*
X0413200Y0215500D01*
X0413200Y0212766D02*
X0412800Y0212766D01*
X0412800Y0211168D02*
X0413200Y0211168D01*
X0413200Y0210500D02*
X0420800Y0210500D01*
X0420800Y0210322D01*
X0420682Y0209576D01*
X0420448Y0208857D01*
X0420105Y0208184D01*
X0419661Y0207573D01*
X0419127Y0207039D01*
X0418516Y0206595D01*
X0417843Y0206252D01*
X0417124Y0206018D01*
X0416378Y0205900D01*
X0413200Y0205900D01*
X0413200Y0210500D01*
X0413200Y0209569D02*
X0412800Y0209569D01*
X0412800Y0207971D02*
X0413200Y0207971D01*
X0413200Y0206372D02*
X0412800Y0206372D01*
X0418079Y0206372D02*
X0433521Y0206372D01*
X0433757Y0206252D02*
X0434476Y0206018D01*
X0435222Y0205900D01*
X0438400Y0205900D01*
X0438400Y0210500D01*
X0430800Y0210500D01*
X0430800Y0210322D01*
X0430918Y0209576D01*
X0431152Y0208857D01*
X0431495Y0208184D01*
X0431939Y0207573D01*
X0432473Y0207039D01*
X0433084Y0206595D01*
X0433757Y0206252D01*
X0431650Y0207971D02*
X0419950Y0207971D01*
X0420680Y0209569D02*
X0430920Y0209569D01*
X0430814Y0211168D02*
X0420786Y0211168D01*
X0420334Y0212766D02*
X0431266Y0212766D01*
X0432478Y0214365D02*
X0419122Y0214365D01*
X0438400Y0214365D02*
X0438800Y0214365D01*
X0438800Y0212766D02*
X0438400Y0212766D01*
X0438400Y0211168D02*
X0438800Y0211168D01*
X0438800Y0209569D02*
X0438400Y0209569D01*
X0438400Y0207971D02*
X0438800Y0207971D01*
X0438800Y0206372D02*
X0438400Y0206372D01*
X0449055Y0203175D02*
X0388900Y0203175D01*
X0385669Y0201577D02*
X0449055Y0201577D01*
X0458592Y0201577D02*
X0467008Y0201577D01*
X0467008Y0203175D02*
X0458592Y0203175D01*
X0458592Y0204774D02*
X0467008Y0204774D01*
X0467324Y0206372D02*
X0458276Y0206372D01*
X0458592Y0199978D02*
X0467008Y0199978D01*
X0466157Y0198380D02*
X0458592Y0198380D01*
X0458224Y0196781D02*
X0464559Y0196781D01*
X0462960Y0195183D02*
X0458224Y0195183D01*
X0458224Y0193584D02*
X0461362Y0193584D01*
X0459763Y0191986D02*
X0458224Y0191986D01*
X0434229Y0187190D02*
X0417371Y0187190D01*
X0420091Y0188789D02*
X0431509Y0188789D01*
X0430363Y0190387D02*
X0421237Y0190387D01*
X0421800Y0191986D02*
X0429800Y0191986D01*
X0429800Y0193584D02*
X0421800Y0193584D01*
X0421332Y0195183D02*
X0430268Y0195183D01*
X0431279Y0196781D02*
X0420321Y0196781D01*
X0417927Y0198380D02*
X0433673Y0198380D01*
X0408073Y0198380D02*
X0387185Y0198380D01*
X0378415Y0198380D02*
X0374515Y0198380D01*
X0374196Y0196781D02*
X0375738Y0196781D01*
X0374139Y0195183D02*
X0373565Y0195183D01*
X0373055Y0193584D02*
X0372614Y0193584D01*
X0372206Y0191986D02*
X0371174Y0191986D01*
X0462000Y0217562D02*
X0463600Y0217562D01*
X0463600Y0219160D02*
X0462000Y0219160D01*
X0462000Y0220759D02*
X0463600Y0220759D01*
X0463600Y0222357D02*
X0462000Y0222357D01*
X0462000Y0223956D02*
X0463600Y0223956D01*
X0463600Y0225554D02*
X0462000Y0225554D01*
X0462000Y0227153D02*
X0463600Y0227153D01*
X0463600Y0228751D02*
X0462000Y0228751D01*
X0462000Y0233547D02*
X0463600Y0233547D01*
X0463600Y0235145D02*
X0462000Y0235145D01*
X0462000Y0236744D02*
X0463600Y0236744D01*
X0463600Y0238342D02*
X0462000Y0238342D01*
X0462000Y0239941D02*
X0463600Y0239941D01*
X0463600Y0241539D02*
X0462000Y0241539D01*
X0462000Y0243138D02*
X0463600Y0243138D01*
X0264545Y0190387D02*
X0214871Y0190387D01*
X0210729Y0190387D02*
X0204871Y0190387D01*
X0207048Y0188789D02*
X0208552Y0188789D01*
X0225622Y0188789D02*
X0263950Y0188789D01*
X0249594Y0172803D02*
X0248006Y0172803D01*
X0245449Y0171205D02*
X0252151Y0171205D01*
X0226414Y0161614D02*
X0225804Y0161614D01*
X0188012Y0163212D02*
X0186168Y0163212D01*
X0270706Y0144030D02*
X0281105Y0144030D01*
X0281394Y0136038D02*
X0271174Y0136038D01*
X0281800Y0115833D02*
X0281767Y0115800D01*
X0421200Y0128045D02*
X0423904Y0128045D01*
X0422217Y0126447D02*
X0421383Y0126447D01*
X0460869Y0046521D02*
X0567800Y0046521D01*
X0451940Y0043324D02*
X0425400Y0043324D01*
X0425400Y0041726D02*
X0449632Y0041726D01*
X0448243Y0040127D02*
X0425400Y0040127D01*
X0425400Y0038529D02*
X0447581Y0038529D01*
X0447126Y0036930D02*
X0425400Y0036930D01*
X0425400Y0035332D02*
X0447126Y0035332D01*
X0447288Y0033733D02*
X0425400Y0033733D01*
X0425400Y0032134D02*
X0447950Y0032134D01*
X0448923Y0030536D02*
X0425400Y0030536D01*
X0425400Y0028937D02*
X0450522Y0028937D01*
D11*
X0253800Y0176800D02*
X0253800Y0182800D01*
X0243800Y0182800D02*
X0243800Y0176800D01*
X0310800Y0215800D02*
X0316800Y0215800D01*
X0335800Y0215800D02*
X0341800Y0215800D01*
X0341800Y0225800D02*
X0335800Y0225800D01*
X0335800Y0235800D02*
X0341800Y0235800D01*
X0316800Y0235800D02*
X0310800Y0235800D01*
X0310800Y0225800D02*
X0316800Y0225800D01*
X0410000Y0210700D02*
X0416000Y0210700D01*
X0435600Y0210700D02*
X0441600Y0210700D01*
X0441600Y0192900D02*
X0435600Y0192900D01*
X0416000Y0192900D02*
X0410000Y0192900D01*
X0071800Y0120800D02*
X0065800Y0120800D01*
X0065800Y0110800D02*
X0071800Y0110800D01*
X0071800Y0100800D02*
X0065800Y0100800D01*
D12*
X0186800Y0074800D03*
X0201800Y0074800D03*
X0216800Y0074800D03*
X0231800Y0074800D03*
X0246800Y0074800D03*
X0261800Y0074800D03*
X0276800Y0074800D03*
X0291800Y0074800D03*
X0306800Y0074800D03*
X0321800Y0074800D03*
X0321800Y0024800D03*
X0306800Y0024800D03*
X0291800Y0024800D03*
X0276800Y0024800D03*
X0261800Y0024800D03*
X0246800Y0024800D03*
X0231800Y0024800D03*
X0216800Y0024800D03*
X0201800Y0024800D03*
X0186800Y0024800D03*
D13*
X0135800Y0111200D02*
X0135800Y0116400D01*
X0125800Y0116400D02*
X0125800Y0111200D01*
X0115800Y0111200D02*
X0115800Y0116400D01*
X0115800Y0136200D02*
X0115800Y0141400D01*
X0125800Y0141400D02*
X0125800Y0136200D01*
X0135800Y0136200D02*
X0135800Y0141400D01*
X0135800Y0161200D02*
X0135800Y0166400D01*
X0125800Y0166400D02*
X0125800Y0161200D01*
X0115800Y0161200D02*
X0115800Y0166400D01*
X0202800Y0180200D02*
X0202800Y0185400D01*
X0212800Y0185400D02*
X0212800Y0180200D01*
X0222800Y0180200D02*
X0222800Y0185400D01*
X0386800Y0123400D02*
X0386800Y0118200D01*
X0396800Y0118200D02*
X0396800Y0123400D01*
X0406800Y0123400D02*
X0406800Y0118200D01*
X0416800Y0118200D02*
X0416800Y0123400D01*
X0426800Y0123400D02*
X0426800Y0118200D01*
X0436800Y0118200D02*
X0436800Y0123400D01*
X0446800Y0123400D02*
X0446800Y0118200D01*
X0475200Y0138800D02*
X0480400Y0138800D01*
X0480400Y0148800D02*
X0475200Y0148800D01*
X0475200Y0158800D02*
X0480400Y0158800D01*
X0446800Y0093400D02*
X0446800Y0088200D01*
X0436800Y0088200D02*
X0436800Y0093400D01*
X0426800Y0093400D02*
X0426800Y0088200D01*
X0416800Y0088200D02*
X0416800Y0093400D01*
X0406800Y0093400D02*
X0406800Y0088200D01*
X0396800Y0088200D02*
X0396800Y0093400D01*
X0386800Y0093400D02*
X0386800Y0088200D01*
D14*
X0206700Y0220900D02*
X0206700Y0228700D01*
X0186900Y0228700D02*
X0186900Y0220900D01*
D15*
X0341800Y0123800D03*
D16*
X0331800Y0123800D03*
X0321800Y0123800D03*
X0311800Y0123800D03*
X0301800Y0123800D03*
X0291800Y0123800D03*
X0281800Y0123800D03*
X0271800Y0123800D03*
X0261800Y0123800D03*
X0251800Y0123800D03*
X0241800Y0123800D03*
X0231800Y0123800D03*
X0221800Y0123800D03*
X0211800Y0123800D03*
X0211800Y0093800D03*
X0221800Y0093800D03*
X0231800Y0093800D03*
X0241800Y0093800D03*
X0251800Y0093800D03*
X0261800Y0093800D03*
X0271800Y0093800D03*
X0281800Y0093800D03*
X0291800Y0093800D03*
X0301800Y0093800D03*
X0311800Y0093800D03*
X0321800Y0093800D03*
X0331800Y0093800D03*
X0341800Y0093800D03*
D17*
X0382800Y0068800D03*
X0392800Y0068674D03*
X0382800Y0061320D03*
X0392800Y0060800D03*
X0439800Y0140320D03*
X0439800Y0147800D03*
X0365800Y0160300D03*
X0355900Y0160220D03*
X0355900Y0167700D03*
X0365800Y0167780D03*
X0342800Y0148174D03*
X0331800Y0148300D03*
X0331800Y0140820D03*
X0342800Y0140300D03*
X0286800Y0140300D03*
X0286800Y0148174D03*
X0228800Y0148174D03*
X0228800Y0140300D03*
X0201800Y0140426D03*
X0191800Y0140320D03*
X0191800Y0147800D03*
X0201800Y0148300D03*
X0153800Y0123737D03*
X0153800Y0115863D03*
X0269900Y0178200D03*
X0269900Y0186074D03*
D18*
X0267300Y0139800D03*
X0248300Y0139800D03*
D19*
X0360800Y0125800D03*
X0337800Y0192800D03*
X0310800Y0192800D03*
D20*
X0310800Y0182800D03*
X0337800Y0182800D03*
X0360800Y0115800D03*
D21*
X0382800Y0187863D03*
X0364296Y0199674D03*
X0382800Y0211485D03*
X0151800Y0211485D03*
X0133296Y0199674D03*
X0151800Y0187863D03*
D22*
X0181816Y0157824D03*
D23*
X0191816Y0157824D03*
X0201816Y0157824D03*
X0211816Y0157824D03*
X0221816Y0157824D03*
X0231816Y0157824D03*
X0241816Y0157824D03*
X0251816Y0157824D03*
X0261816Y0157824D03*
X0271816Y0157824D03*
X0281816Y0157824D03*
X0291816Y0157824D03*
X0301816Y0157824D03*
X0311816Y0157824D03*
X0321816Y0157824D03*
X0331816Y0157824D03*
X0131800Y0068800D03*
X0121800Y0068800D03*
X0121800Y0058800D03*
X0131800Y0058800D03*
X0131800Y0048800D03*
X0121800Y0048800D03*
X0121800Y0038800D03*
X0131800Y0038800D03*
X0131800Y0028800D03*
X0121800Y0028800D03*
X0358800Y0031800D03*
X0368800Y0031800D03*
X0378800Y0031800D03*
X0388800Y0031800D03*
X0398800Y0031800D03*
X0408800Y0031800D03*
D24*
X0449926Y0035776D02*
X0449928Y0035924D01*
X0449934Y0036072D01*
X0449944Y0036220D01*
X0449958Y0036367D01*
X0449976Y0036514D01*
X0449997Y0036660D01*
X0450023Y0036806D01*
X0450053Y0036951D01*
X0450086Y0037095D01*
X0450124Y0037238D01*
X0450165Y0037380D01*
X0450210Y0037521D01*
X0450258Y0037661D01*
X0450311Y0037800D01*
X0450367Y0037937D01*
X0450427Y0038072D01*
X0450490Y0038206D01*
X0450557Y0038338D01*
X0450628Y0038468D01*
X0450702Y0038596D01*
X0450779Y0038722D01*
X0450860Y0038846D01*
X0450944Y0038968D01*
X0451031Y0039087D01*
X0451122Y0039204D01*
X0451216Y0039319D01*
X0451312Y0039431D01*
X0451412Y0039541D01*
X0451514Y0039647D01*
X0451620Y0039751D01*
X0451728Y0039852D01*
X0451839Y0039950D01*
X0451952Y0040046D01*
X0452068Y0040138D01*
X0452186Y0040227D01*
X0452307Y0040312D01*
X0452430Y0040395D01*
X0452555Y0040474D01*
X0452682Y0040550D01*
X0452811Y0040622D01*
X0452942Y0040691D01*
X0453075Y0040756D01*
X0453210Y0040817D01*
X0453346Y0040875D01*
X0453483Y0040930D01*
X0453622Y0040980D01*
X0453763Y0041027D01*
X0453904Y0041070D01*
X0454047Y0041110D01*
X0454191Y0041145D01*
X0454335Y0041177D01*
X0454481Y0041204D01*
X0454627Y0041228D01*
X0454774Y0041248D01*
X0454921Y0041264D01*
X0455068Y0041276D01*
X0455216Y0041284D01*
X0455364Y0041288D01*
X0455512Y0041288D01*
X0455660Y0041284D01*
X0455808Y0041276D01*
X0455955Y0041264D01*
X0456102Y0041248D01*
X0456249Y0041228D01*
X0456395Y0041204D01*
X0456541Y0041177D01*
X0456685Y0041145D01*
X0456829Y0041110D01*
X0456972Y0041070D01*
X0457113Y0041027D01*
X0457254Y0040980D01*
X0457393Y0040930D01*
X0457530Y0040875D01*
X0457666Y0040817D01*
X0457801Y0040756D01*
X0457934Y0040691D01*
X0458065Y0040622D01*
X0458194Y0040550D01*
X0458321Y0040474D01*
X0458446Y0040395D01*
X0458569Y0040312D01*
X0458690Y0040227D01*
X0458808Y0040138D01*
X0458924Y0040046D01*
X0459037Y0039950D01*
X0459148Y0039852D01*
X0459256Y0039751D01*
X0459362Y0039647D01*
X0459464Y0039541D01*
X0459564Y0039431D01*
X0459660Y0039319D01*
X0459754Y0039204D01*
X0459845Y0039087D01*
X0459932Y0038968D01*
X0460016Y0038846D01*
X0460097Y0038722D01*
X0460174Y0038596D01*
X0460248Y0038468D01*
X0460319Y0038338D01*
X0460386Y0038206D01*
X0460449Y0038072D01*
X0460509Y0037937D01*
X0460565Y0037800D01*
X0460618Y0037661D01*
X0460666Y0037521D01*
X0460711Y0037380D01*
X0460752Y0037238D01*
X0460790Y0037095D01*
X0460823Y0036951D01*
X0460853Y0036806D01*
X0460879Y0036660D01*
X0460900Y0036514D01*
X0460918Y0036367D01*
X0460932Y0036220D01*
X0460942Y0036072D01*
X0460948Y0035924D01*
X0460950Y0035776D01*
X0460948Y0035628D01*
X0460942Y0035480D01*
X0460932Y0035332D01*
X0460918Y0035185D01*
X0460900Y0035038D01*
X0460879Y0034892D01*
X0460853Y0034746D01*
X0460823Y0034601D01*
X0460790Y0034457D01*
X0460752Y0034314D01*
X0460711Y0034172D01*
X0460666Y0034031D01*
X0460618Y0033891D01*
X0460565Y0033752D01*
X0460509Y0033615D01*
X0460449Y0033480D01*
X0460386Y0033346D01*
X0460319Y0033214D01*
X0460248Y0033084D01*
X0460174Y0032956D01*
X0460097Y0032830D01*
X0460016Y0032706D01*
X0459932Y0032584D01*
X0459845Y0032465D01*
X0459754Y0032348D01*
X0459660Y0032233D01*
X0459564Y0032121D01*
X0459464Y0032011D01*
X0459362Y0031905D01*
X0459256Y0031801D01*
X0459148Y0031700D01*
X0459037Y0031602D01*
X0458924Y0031506D01*
X0458808Y0031414D01*
X0458690Y0031325D01*
X0458569Y0031240D01*
X0458446Y0031157D01*
X0458321Y0031078D01*
X0458194Y0031002D01*
X0458065Y0030930D01*
X0457934Y0030861D01*
X0457801Y0030796D01*
X0457666Y0030735D01*
X0457530Y0030677D01*
X0457393Y0030622D01*
X0457254Y0030572D01*
X0457113Y0030525D01*
X0456972Y0030482D01*
X0456829Y0030442D01*
X0456685Y0030407D01*
X0456541Y0030375D01*
X0456395Y0030348D01*
X0456249Y0030324D01*
X0456102Y0030304D01*
X0455955Y0030288D01*
X0455808Y0030276D01*
X0455660Y0030268D01*
X0455512Y0030264D01*
X0455364Y0030264D01*
X0455216Y0030268D01*
X0455068Y0030276D01*
X0454921Y0030288D01*
X0454774Y0030304D01*
X0454627Y0030324D01*
X0454481Y0030348D01*
X0454335Y0030375D01*
X0454191Y0030407D01*
X0454047Y0030442D01*
X0453904Y0030482D01*
X0453763Y0030525D01*
X0453622Y0030572D01*
X0453483Y0030622D01*
X0453346Y0030677D01*
X0453210Y0030735D01*
X0453075Y0030796D01*
X0452942Y0030861D01*
X0452811Y0030930D01*
X0452682Y0031002D01*
X0452555Y0031078D01*
X0452430Y0031157D01*
X0452307Y0031240D01*
X0452186Y0031325D01*
X0452068Y0031414D01*
X0451952Y0031506D01*
X0451839Y0031602D01*
X0451728Y0031700D01*
X0451620Y0031801D01*
X0451514Y0031905D01*
X0451412Y0032011D01*
X0451312Y0032121D01*
X0451216Y0032233D01*
X0451122Y0032348D01*
X0451031Y0032465D01*
X0450944Y0032584D01*
X0450860Y0032706D01*
X0450779Y0032830D01*
X0450702Y0032956D01*
X0450628Y0033084D01*
X0450557Y0033214D01*
X0450490Y0033346D01*
X0450427Y0033480D01*
X0450367Y0033615D01*
X0450311Y0033752D01*
X0450258Y0033891D01*
X0450210Y0034031D01*
X0450165Y0034172D01*
X0450124Y0034314D01*
X0450086Y0034457D01*
X0450053Y0034601D01*
X0450023Y0034746D01*
X0449997Y0034892D01*
X0449976Y0035038D01*
X0449958Y0035185D01*
X0449944Y0035332D01*
X0449934Y0035480D01*
X0449928Y0035628D01*
X0449926Y0035776D01*
X0449926Y0157824D02*
X0449928Y0157972D01*
X0449934Y0158120D01*
X0449944Y0158268D01*
X0449958Y0158415D01*
X0449976Y0158562D01*
X0449997Y0158708D01*
X0450023Y0158854D01*
X0450053Y0158999D01*
X0450086Y0159143D01*
X0450124Y0159286D01*
X0450165Y0159428D01*
X0450210Y0159569D01*
X0450258Y0159709D01*
X0450311Y0159848D01*
X0450367Y0159985D01*
X0450427Y0160120D01*
X0450490Y0160254D01*
X0450557Y0160386D01*
X0450628Y0160516D01*
X0450702Y0160644D01*
X0450779Y0160770D01*
X0450860Y0160894D01*
X0450944Y0161016D01*
X0451031Y0161135D01*
X0451122Y0161252D01*
X0451216Y0161367D01*
X0451312Y0161479D01*
X0451412Y0161589D01*
X0451514Y0161695D01*
X0451620Y0161799D01*
X0451728Y0161900D01*
X0451839Y0161998D01*
X0451952Y0162094D01*
X0452068Y0162186D01*
X0452186Y0162275D01*
X0452307Y0162360D01*
X0452430Y0162443D01*
X0452555Y0162522D01*
X0452682Y0162598D01*
X0452811Y0162670D01*
X0452942Y0162739D01*
X0453075Y0162804D01*
X0453210Y0162865D01*
X0453346Y0162923D01*
X0453483Y0162978D01*
X0453622Y0163028D01*
X0453763Y0163075D01*
X0453904Y0163118D01*
X0454047Y0163158D01*
X0454191Y0163193D01*
X0454335Y0163225D01*
X0454481Y0163252D01*
X0454627Y0163276D01*
X0454774Y0163296D01*
X0454921Y0163312D01*
X0455068Y0163324D01*
X0455216Y0163332D01*
X0455364Y0163336D01*
X0455512Y0163336D01*
X0455660Y0163332D01*
X0455808Y0163324D01*
X0455955Y0163312D01*
X0456102Y0163296D01*
X0456249Y0163276D01*
X0456395Y0163252D01*
X0456541Y0163225D01*
X0456685Y0163193D01*
X0456829Y0163158D01*
X0456972Y0163118D01*
X0457113Y0163075D01*
X0457254Y0163028D01*
X0457393Y0162978D01*
X0457530Y0162923D01*
X0457666Y0162865D01*
X0457801Y0162804D01*
X0457934Y0162739D01*
X0458065Y0162670D01*
X0458194Y0162598D01*
X0458321Y0162522D01*
X0458446Y0162443D01*
X0458569Y0162360D01*
X0458690Y0162275D01*
X0458808Y0162186D01*
X0458924Y0162094D01*
X0459037Y0161998D01*
X0459148Y0161900D01*
X0459256Y0161799D01*
X0459362Y0161695D01*
X0459464Y0161589D01*
X0459564Y0161479D01*
X0459660Y0161367D01*
X0459754Y0161252D01*
X0459845Y0161135D01*
X0459932Y0161016D01*
X0460016Y0160894D01*
X0460097Y0160770D01*
X0460174Y0160644D01*
X0460248Y0160516D01*
X0460319Y0160386D01*
X0460386Y0160254D01*
X0460449Y0160120D01*
X0460509Y0159985D01*
X0460565Y0159848D01*
X0460618Y0159709D01*
X0460666Y0159569D01*
X0460711Y0159428D01*
X0460752Y0159286D01*
X0460790Y0159143D01*
X0460823Y0158999D01*
X0460853Y0158854D01*
X0460879Y0158708D01*
X0460900Y0158562D01*
X0460918Y0158415D01*
X0460932Y0158268D01*
X0460942Y0158120D01*
X0460948Y0157972D01*
X0460950Y0157824D01*
X0460948Y0157676D01*
X0460942Y0157528D01*
X0460932Y0157380D01*
X0460918Y0157233D01*
X0460900Y0157086D01*
X0460879Y0156940D01*
X0460853Y0156794D01*
X0460823Y0156649D01*
X0460790Y0156505D01*
X0460752Y0156362D01*
X0460711Y0156220D01*
X0460666Y0156079D01*
X0460618Y0155939D01*
X0460565Y0155800D01*
X0460509Y0155663D01*
X0460449Y0155528D01*
X0460386Y0155394D01*
X0460319Y0155262D01*
X0460248Y0155132D01*
X0460174Y0155004D01*
X0460097Y0154878D01*
X0460016Y0154754D01*
X0459932Y0154632D01*
X0459845Y0154513D01*
X0459754Y0154396D01*
X0459660Y0154281D01*
X0459564Y0154169D01*
X0459464Y0154059D01*
X0459362Y0153953D01*
X0459256Y0153849D01*
X0459148Y0153748D01*
X0459037Y0153650D01*
X0458924Y0153554D01*
X0458808Y0153462D01*
X0458690Y0153373D01*
X0458569Y0153288D01*
X0458446Y0153205D01*
X0458321Y0153126D01*
X0458194Y0153050D01*
X0458065Y0152978D01*
X0457934Y0152909D01*
X0457801Y0152844D01*
X0457666Y0152783D01*
X0457530Y0152725D01*
X0457393Y0152670D01*
X0457254Y0152620D01*
X0457113Y0152573D01*
X0456972Y0152530D01*
X0456829Y0152490D01*
X0456685Y0152455D01*
X0456541Y0152423D01*
X0456395Y0152396D01*
X0456249Y0152372D01*
X0456102Y0152352D01*
X0455955Y0152336D01*
X0455808Y0152324D01*
X0455660Y0152316D01*
X0455512Y0152312D01*
X0455364Y0152312D01*
X0455216Y0152316D01*
X0455068Y0152324D01*
X0454921Y0152336D01*
X0454774Y0152352D01*
X0454627Y0152372D01*
X0454481Y0152396D01*
X0454335Y0152423D01*
X0454191Y0152455D01*
X0454047Y0152490D01*
X0453904Y0152530D01*
X0453763Y0152573D01*
X0453622Y0152620D01*
X0453483Y0152670D01*
X0453346Y0152725D01*
X0453210Y0152783D01*
X0453075Y0152844D01*
X0452942Y0152909D01*
X0452811Y0152978D01*
X0452682Y0153050D01*
X0452555Y0153126D01*
X0452430Y0153205D01*
X0452307Y0153288D01*
X0452186Y0153373D01*
X0452068Y0153462D01*
X0451952Y0153554D01*
X0451839Y0153650D01*
X0451728Y0153748D01*
X0451620Y0153849D01*
X0451514Y0153953D01*
X0451412Y0154059D01*
X0451312Y0154169D01*
X0451216Y0154281D01*
X0451122Y0154396D01*
X0451031Y0154513D01*
X0450944Y0154632D01*
X0450860Y0154754D01*
X0450779Y0154878D01*
X0450702Y0155004D01*
X0450628Y0155132D01*
X0450557Y0155262D01*
X0450490Y0155394D01*
X0450427Y0155528D01*
X0450367Y0155663D01*
X0450311Y0155800D01*
X0450258Y0155939D01*
X0450210Y0156079D01*
X0450165Y0156220D01*
X0450124Y0156362D01*
X0450086Y0156505D01*
X0450053Y0156649D01*
X0450023Y0156794D01*
X0449997Y0156940D01*
X0449976Y0157086D01*
X0449958Y0157233D01*
X0449944Y0157380D01*
X0449934Y0157528D01*
X0449928Y0157676D01*
X0449926Y0157824D01*
X0154650Y0157824D02*
X0154652Y0157972D01*
X0154658Y0158120D01*
X0154668Y0158268D01*
X0154682Y0158415D01*
X0154700Y0158562D01*
X0154721Y0158708D01*
X0154747Y0158854D01*
X0154777Y0158999D01*
X0154810Y0159143D01*
X0154848Y0159286D01*
X0154889Y0159428D01*
X0154934Y0159569D01*
X0154982Y0159709D01*
X0155035Y0159848D01*
X0155091Y0159985D01*
X0155151Y0160120D01*
X0155214Y0160254D01*
X0155281Y0160386D01*
X0155352Y0160516D01*
X0155426Y0160644D01*
X0155503Y0160770D01*
X0155584Y0160894D01*
X0155668Y0161016D01*
X0155755Y0161135D01*
X0155846Y0161252D01*
X0155940Y0161367D01*
X0156036Y0161479D01*
X0156136Y0161589D01*
X0156238Y0161695D01*
X0156344Y0161799D01*
X0156452Y0161900D01*
X0156563Y0161998D01*
X0156676Y0162094D01*
X0156792Y0162186D01*
X0156910Y0162275D01*
X0157031Y0162360D01*
X0157154Y0162443D01*
X0157279Y0162522D01*
X0157406Y0162598D01*
X0157535Y0162670D01*
X0157666Y0162739D01*
X0157799Y0162804D01*
X0157934Y0162865D01*
X0158070Y0162923D01*
X0158207Y0162978D01*
X0158346Y0163028D01*
X0158487Y0163075D01*
X0158628Y0163118D01*
X0158771Y0163158D01*
X0158915Y0163193D01*
X0159059Y0163225D01*
X0159205Y0163252D01*
X0159351Y0163276D01*
X0159498Y0163296D01*
X0159645Y0163312D01*
X0159792Y0163324D01*
X0159940Y0163332D01*
X0160088Y0163336D01*
X0160236Y0163336D01*
X0160384Y0163332D01*
X0160532Y0163324D01*
X0160679Y0163312D01*
X0160826Y0163296D01*
X0160973Y0163276D01*
X0161119Y0163252D01*
X0161265Y0163225D01*
X0161409Y0163193D01*
X0161553Y0163158D01*
X0161696Y0163118D01*
X0161837Y0163075D01*
X0161978Y0163028D01*
X0162117Y0162978D01*
X0162254Y0162923D01*
X0162390Y0162865D01*
X0162525Y0162804D01*
X0162658Y0162739D01*
X0162789Y0162670D01*
X0162918Y0162598D01*
X0163045Y0162522D01*
X0163170Y0162443D01*
X0163293Y0162360D01*
X0163414Y0162275D01*
X0163532Y0162186D01*
X0163648Y0162094D01*
X0163761Y0161998D01*
X0163872Y0161900D01*
X0163980Y0161799D01*
X0164086Y0161695D01*
X0164188Y0161589D01*
X0164288Y0161479D01*
X0164384Y0161367D01*
X0164478Y0161252D01*
X0164569Y0161135D01*
X0164656Y0161016D01*
X0164740Y0160894D01*
X0164821Y0160770D01*
X0164898Y0160644D01*
X0164972Y0160516D01*
X0165043Y0160386D01*
X0165110Y0160254D01*
X0165173Y0160120D01*
X0165233Y0159985D01*
X0165289Y0159848D01*
X0165342Y0159709D01*
X0165390Y0159569D01*
X0165435Y0159428D01*
X0165476Y0159286D01*
X0165514Y0159143D01*
X0165547Y0158999D01*
X0165577Y0158854D01*
X0165603Y0158708D01*
X0165624Y0158562D01*
X0165642Y0158415D01*
X0165656Y0158268D01*
X0165666Y0158120D01*
X0165672Y0157972D01*
X0165674Y0157824D01*
X0165672Y0157676D01*
X0165666Y0157528D01*
X0165656Y0157380D01*
X0165642Y0157233D01*
X0165624Y0157086D01*
X0165603Y0156940D01*
X0165577Y0156794D01*
X0165547Y0156649D01*
X0165514Y0156505D01*
X0165476Y0156362D01*
X0165435Y0156220D01*
X0165390Y0156079D01*
X0165342Y0155939D01*
X0165289Y0155800D01*
X0165233Y0155663D01*
X0165173Y0155528D01*
X0165110Y0155394D01*
X0165043Y0155262D01*
X0164972Y0155132D01*
X0164898Y0155004D01*
X0164821Y0154878D01*
X0164740Y0154754D01*
X0164656Y0154632D01*
X0164569Y0154513D01*
X0164478Y0154396D01*
X0164384Y0154281D01*
X0164288Y0154169D01*
X0164188Y0154059D01*
X0164086Y0153953D01*
X0163980Y0153849D01*
X0163872Y0153748D01*
X0163761Y0153650D01*
X0163648Y0153554D01*
X0163532Y0153462D01*
X0163414Y0153373D01*
X0163293Y0153288D01*
X0163170Y0153205D01*
X0163045Y0153126D01*
X0162918Y0153050D01*
X0162789Y0152978D01*
X0162658Y0152909D01*
X0162525Y0152844D01*
X0162390Y0152783D01*
X0162254Y0152725D01*
X0162117Y0152670D01*
X0161978Y0152620D01*
X0161837Y0152573D01*
X0161696Y0152530D01*
X0161553Y0152490D01*
X0161409Y0152455D01*
X0161265Y0152423D01*
X0161119Y0152396D01*
X0160973Y0152372D01*
X0160826Y0152352D01*
X0160679Y0152336D01*
X0160532Y0152324D01*
X0160384Y0152316D01*
X0160236Y0152312D01*
X0160088Y0152312D01*
X0159940Y0152316D01*
X0159792Y0152324D01*
X0159645Y0152336D01*
X0159498Y0152352D01*
X0159351Y0152372D01*
X0159205Y0152396D01*
X0159059Y0152423D01*
X0158915Y0152455D01*
X0158771Y0152490D01*
X0158628Y0152530D01*
X0158487Y0152573D01*
X0158346Y0152620D01*
X0158207Y0152670D01*
X0158070Y0152725D01*
X0157934Y0152783D01*
X0157799Y0152844D01*
X0157666Y0152909D01*
X0157535Y0152978D01*
X0157406Y0153050D01*
X0157279Y0153126D01*
X0157154Y0153205D01*
X0157031Y0153288D01*
X0156910Y0153373D01*
X0156792Y0153462D01*
X0156676Y0153554D01*
X0156563Y0153650D01*
X0156452Y0153748D01*
X0156344Y0153849D01*
X0156238Y0153953D01*
X0156136Y0154059D01*
X0156036Y0154169D01*
X0155940Y0154281D01*
X0155846Y0154396D01*
X0155755Y0154513D01*
X0155668Y0154632D01*
X0155584Y0154754D01*
X0155503Y0154878D01*
X0155426Y0155004D01*
X0155352Y0155132D01*
X0155281Y0155262D01*
X0155214Y0155394D01*
X0155151Y0155528D01*
X0155091Y0155663D01*
X0155035Y0155800D01*
X0154982Y0155939D01*
X0154934Y0156079D01*
X0154889Y0156220D01*
X0154848Y0156362D01*
X0154810Y0156505D01*
X0154777Y0156649D01*
X0154747Y0156794D01*
X0154721Y0156940D01*
X0154700Y0157086D01*
X0154682Y0157233D01*
X0154668Y0157380D01*
X0154658Y0157528D01*
X0154652Y0157676D01*
X0154650Y0157824D01*
X0047300Y0160800D02*
X0047302Y0160941D01*
X0047308Y0161082D01*
X0047318Y0161222D01*
X0047332Y0161362D01*
X0047350Y0161502D01*
X0047371Y0161641D01*
X0047397Y0161780D01*
X0047426Y0161918D01*
X0047460Y0162054D01*
X0047497Y0162190D01*
X0047538Y0162325D01*
X0047583Y0162459D01*
X0047632Y0162591D01*
X0047684Y0162722D01*
X0047740Y0162851D01*
X0047800Y0162978D01*
X0047863Y0163104D01*
X0047929Y0163228D01*
X0048000Y0163351D01*
X0048073Y0163471D01*
X0048150Y0163589D01*
X0048230Y0163705D01*
X0048314Y0163818D01*
X0048400Y0163929D01*
X0048490Y0164038D01*
X0048583Y0164144D01*
X0048678Y0164247D01*
X0048777Y0164348D01*
X0048878Y0164446D01*
X0048982Y0164541D01*
X0049089Y0164633D01*
X0049198Y0164722D01*
X0049310Y0164807D01*
X0049424Y0164890D01*
X0049540Y0164970D01*
X0049659Y0165046D01*
X0049780Y0165118D01*
X0049902Y0165188D01*
X0050027Y0165253D01*
X0050153Y0165316D01*
X0050281Y0165374D01*
X0050411Y0165429D01*
X0050542Y0165481D01*
X0050675Y0165528D01*
X0050809Y0165572D01*
X0050944Y0165613D01*
X0051080Y0165649D01*
X0051217Y0165681D01*
X0051355Y0165710D01*
X0051493Y0165735D01*
X0051633Y0165755D01*
X0051773Y0165772D01*
X0051913Y0165785D01*
X0052054Y0165794D01*
X0052194Y0165799D01*
X0052335Y0165800D01*
X0052476Y0165797D01*
X0052617Y0165790D01*
X0052757Y0165779D01*
X0052897Y0165764D01*
X0053037Y0165745D01*
X0053176Y0165723D01*
X0053314Y0165696D01*
X0053452Y0165666D01*
X0053588Y0165631D01*
X0053724Y0165593D01*
X0053858Y0165551D01*
X0053992Y0165505D01*
X0054124Y0165456D01*
X0054254Y0165402D01*
X0054383Y0165345D01*
X0054510Y0165285D01*
X0054636Y0165221D01*
X0054759Y0165153D01*
X0054881Y0165082D01*
X0055001Y0165008D01*
X0055118Y0164930D01*
X0055233Y0164849D01*
X0055346Y0164765D01*
X0055457Y0164678D01*
X0055565Y0164587D01*
X0055670Y0164494D01*
X0055773Y0164397D01*
X0055873Y0164298D01*
X0055970Y0164196D01*
X0056064Y0164091D01*
X0056155Y0163984D01*
X0056243Y0163874D01*
X0056328Y0163762D01*
X0056410Y0163647D01*
X0056489Y0163530D01*
X0056564Y0163411D01*
X0056636Y0163290D01*
X0056704Y0163167D01*
X0056769Y0163042D01*
X0056831Y0162915D01*
X0056888Y0162786D01*
X0056943Y0162656D01*
X0056993Y0162525D01*
X0057040Y0162392D01*
X0057083Y0162258D01*
X0057122Y0162122D01*
X0057157Y0161986D01*
X0057189Y0161849D01*
X0057216Y0161711D01*
X0057240Y0161572D01*
X0057260Y0161432D01*
X0057276Y0161292D01*
X0057288Y0161152D01*
X0057296Y0161011D01*
X0057300Y0160870D01*
X0057300Y0160730D01*
X0057296Y0160589D01*
X0057288Y0160448D01*
X0057276Y0160308D01*
X0057260Y0160168D01*
X0057240Y0160028D01*
X0057216Y0159889D01*
X0057189Y0159751D01*
X0057157Y0159614D01*
X0057122Y0159478D01*
X0057083Y0159342D01*
X0057040Y0159208D01*
X0056993Y0159075D01*
X0056943Y0158944D01*
X0056888Y0158814D01*
X0056831Y0158685D01*
X0056769Y0158558D01*
X0056704Y0158433D01*
X0056636Y0158310D01*
X0056564Y0158189D01*
X0056489Y0158070D01*
X0056410Y0157953D01*
X0056328Y0157838D01*
X0056243Y0157726D01*
X0056155Y0157616D01*
X0056064Y0157509D01*
X0055970Y0157404D01*
X0055873Y0157302D01*
X0055773Y0157203D01*
X0055670Y0157106D01*
X0055565Y0157013D01*
X0055457Y0156922D01*
X0055346Y0156835D01*
X0055233Y0156751D01*
X0055118Y0156670D01*
X0055001Y0156592D01*
X0054881Y0156518D01*
X0054759Y0156447D01*
X0054636Y0156379D01*
X0054510Y0156315D01*
X0054383Y0156255D01*
X0054254Y0156198D01*
X0054124Y0156144D01*
X0053992Y0156095D01*
X0053858Y0156049D01*
X0053724Y0156007D01*
X0053588Y0155969D01*
X0053452Y0155934D01*
X0053314Y0155904D01*
X0053176Y0155877D01*
X0053037Y0155855D01*
X0052897Y0155836D01*
X0052757Y0155821D01*
X0052617Y0155810D01*
X0052476Y0155803D01*
X0052335Y0155800D01*
X0052194Y0155801D01*
X0052054Y0155806D01*
X0051913Y0155815D01*
X0051773Y0155828D01*
X0051633Y0155845D01*
X0051493Y0155865D01*
X0051355Y0155890D01*
X0051217Y0155919D01*
X0051080Y0155951D01*
X0050944Y0155987D01*
X0050809Y0156028D01*
X0050675Y0156072D01*
X0050542Y0156119D01*
X0050411Y0156171D01*
X0050281Y0156226D01*
X0050153Y0156284D01*
X0050027Y0156347D01*
X0049902Y0156412D01*
X0049780Y0156482D01*
X0049659Y0156554D01*
X0049540Y0156630D01*
X0049424Y0156710D01*
X0049310Y0156793D01*
X0049198Y0156878D01*
X0049089Y0156967D01*
X0048982Y0157059D01*
X0048878Y0157154D01*
X0048777Y0157252D01*
X0048678Y0157353D01*
X0048583Y0157456D01*
X0048490Y0157562D01*
X0048400Y0157671D01*
X0048314Y0157782D01*
X0048230Y0157895D01*
X0048150Y0158011D01*
X0048073Y0158129D01*
X0048000Y0158249D01*
X0047929Y0158372D01*
X0047863Y0158496D01*
X0047800Y0158622D01*
X0047740Y0158749D01*
X0047684Y0158878D01*
X0047632Y0159009D01*
X0047583Y0159141D01*
X0047538Y0159275D01*
X0047497Y0159410D01*
X0047460Y0159546D01*
X0047426Y0159682D01*
X0047397Y0159820D01*
X0047371Y0159959D01*
X0047350Y0160098D01*
X0047332Y0160238D01*
X0047318Y0160378D01*
X0047308Y0160518D01*
X0047302Y0160659D01*
X0047300Y0160800D01*
X0047300Y0060800D02*
X0047302Y0060941D01*
X0047308Y0061082D01*
X0047318Y0061222D01*
X0047332Y0061362D01*
X0047350Y0061502D01*
X0047371Y0061641D01*
X0047397Y0061780D01*
X0047426Y0061918D01*
X0047460Y0062054D01*
X0047497Y0062190D01*
X0047538Y0062325D01*
X0047583Y0062459D01*
X0047632Y0062591D01*
X0047684Y0062722D01*
X0047740Y0062851D01*
X0047800Y0062978D01*
X0047863Y0063104D01*
X0047929Y0063228D01*
X0048000Y0063351D01*
X0048073Y0063471D01*
X0048150Y0063589D01*
X0048230Y0063705D01*
X0048314Y0063818D01*
X0048400Y0063929D01*
X0048490Y0064038D01*
X0048583Y0064144D01*
X0048678Y0064247D01*
X0048777Y0064348D01*
X0048878Y0064446D01*
X0048982Y0064541D01*
X0049089Y0064633D01*
X0049198Y0064722D01*
X0049310Y0064807D01*
X0049424Y0064890D01*
X0049540Y0064970D01*
X0049659Y0065046D01*
X0049780Y0065118D01*
X0049902Y0065188D01*
X0050027Y0065253D01*
X0050153Y0065316D01*
X0050281Y0065374D01*
X0050411Y0065429D01*
X0050542Y0065481D01*
X0050675Y0065528D01*
X0050809Y0065572D01*
X0050944Y0065613D01*
X0051080Y0065649D01*
X0051217Y0065681D01*
X0051355Y0065710D01*
X0051493Y0065735D01*
X0051633Y0065755D01*
X0051773Y0065772D01*
X0051913Y0065785D01*
X0052054Y0065794D01*
X0052194Y0065799D01*
X0052335Y0065800D01*
X0052476Y0065797D01*
X0052617Y0065790D01*
X0052757Y0065779D01*
X0052897Y0065764D01*
X0053037Y0065745D01*
X0053176Y0065723D01*
X0053314Y0065696D01*
X0053452Y0065666D01*
X0053588Y0065631D01*
X0053724Y0065593D01*
X0053858Y0065551D01*
X0053992Y0065505D01*
X0054124Y0065456D01*
X0054254Y0065402D01*
X0054383Y0065345D01*
X0054510Y0065285D01*
X0054636Y0065221D01*
X0054759Y0065153D01*
X0054881Y0065082D01*
X0055001Y0065008D01*
X0055118Y0064930D01*
X0055233Y0064849D01*
X0055346Y0064765D01*
X0055457Y0064678D01*
X0055565Y0064587D01*
X0055670Y0064494D01*
X0055773Y0064397D01*
X0055873Y0064298D01*
X0055970Y0064196D01*
X0056064Y0064091D01*
X0056155Y0063984D01*
X0056243Y0063874D01*
X0056328Y0063762D01*
X0056410Y0063647D01*
X0056489Y0063530D01*
X0056564Y0063411D01*
X0056636Y0063290D01*
X0056704Y0063167D01*
X0056769Y0063042D01*
X0056831Y0062915D01*
X0056888Y0062786D01*
X0056943Y0062656D01*
X0056993Y0062525D01*
X0057040Y0062392D01*
X0057083Y0062258D01*
X0057122Y0062122D01*
X0057157Y0061986D01*
X0057189Y0061849D01*
X0057216Y0061711D01*
X0057240Y0061572D01*
X0057260Y0061432D01*
X0057276Y0061292D01*
X0057288Y0061152D01*
X0057296Y0061011D01*
X0057300Y0060870D01*
X0057300Y0060730D01*
X0057296Y0060589D01*
X0057288Y0060448D01*
X0057276Y0060308D01*
X0057260Y0060168D01*
X0057240Y0060028D01*
X0057216Y0059889D01*
X0057189Y0059751D01*
X0057157Y0059614D01*
X0057122Y0059478D01*
X0057083Y0059342D01*
X0057040Y0059208D01*
X0056993Y0059075D01*
X0056943Y0058944D01*
X0056888Y0058814D01*
X0056831Y0058685D01*
X0056769Y0058558D01*
X0056704Y0058433D01*
X0056636Y0058310D01*
X0056564Y0058189D01*
X0056489Y0058070D01*
X0056410Y0057953D01*
X0056328Y0057838D01*
X0056243Y0057726D01*
X0056155Y0057616D01*
X0056064Y0057509D01*
X0055970Y0057404D01*
X0055873Y0057302D01*
X0055773Y0057203D01*
X0055670Y0057106D01*
X0055565Y0057013D01*
X0055457Y0056922D01*
X0055346Y0056835D01*
X0055233Y0056751D01*
X0055118Y0056670D01*
X0055001Y0056592D01*
X0054881Y0056518D01*
X0054759Y0056447D01*
X0054636Y0056379D01*
X0054510Y0056315D01*
X0054383Y0056255D01*
X0054254Y0056198D01*
X0054124Y0056144D01*
X0053992Y0056095D01*
X0053858Y0056049D01*
X0053724Y0056007D01*
X0053588Y0055969D01*
X0053452Y0055934D01*
X0053314Y0055904D01*
X0053176Y0055877D01*
X0053037Y0055855D01*
X0052897Y0055836D01*
X0052757Y0055821D01*
X0052617Y0055810D01*
X0052476Y0055803D01*
X0052335Y0055800D01*
X0052194Y0055801D01*
X0052054Y0055806D01*
X0051913Y0055815D01*
X0051773Y0055828D01*
X0051633Y0055845D01*
X0051493Y0055865D01*
X0051355Y0055890D01*
X0051217Y0055919D01*
X0051080Y0055951D01*
X0050944Y0055987D01*
X0050809Y0056028D01*
X0050675Y0056072D01*
X0050542Y0056119D01*
X0050411Y0056171D01*
X0050281Y0056226D01*
X0050153Y0056284D01*
X0050027Y0056347D01*
X0049902Y0056412D01*
X0049780Y0056482D01*
X0049659Y0056554D01*
X0049540Y0056630D01*
X0049424Y0056710D01*
X0049310Y0056793D01*
X0049198Y0056878D01*
X0049089Y0056967D01*
X0048982Y0057059D01*
X0048878Y0057154D01*
X0048777Y0057252D01*
X0048678Y0057353D01*
X0048583Y0057456D01*
X0048490Y0057562D01*
X0048400Y0057671D01*
X0048314Y0057782D01*
X0048230Y0057895D01*
X0048150Y0058011D01*
X0048073Y0058129D01*
X0048000Y0058249D01*
X0047929Y0058372D01*
X0047863Y0058496D01*
X0047800Y0058622D01*
X0047740Y0058749D01*
X0047684Y0058878D01*
X0047632Y0059009D01*
X0047583Y0059141D01*
X0047538Y0059275D01*
X0047497Y0059410D01*
X0047460Y0059546D01*
X0047426Y0059682D01*
X0047397Y0059820D01*
X0047371Y0059959D01*
X0047350Y0060098D01*
X0047332Y0060238D01*
X0047318Y0060378D01*
X0047308Y0060518D01*
X0047302Y0060659D01*
X0047300Y0060800D01*
X0154650Y0035776D02*
X0154652Y0035924D01*
X0154658Y0036072D01*
X0154668Y0036220D01*
X0154682Y0036367D01*
X0154700Y0036514D01*
X0154721Y0036660D01*
X0154747Y0036806D01*
X0154777Y0036951D01*
X0154810Y0037095D01*
X0154848Y0037238D01*
X0154889Y0037380D01*
X0154934Y0037521D01*
X0154982Y0037661D01*
X0155035Y0037800D01*
X0155091Y0037937D01*
X0155151Y0038072D01*
X0155214Y0038206D01*
X0155281Y0038338D01*
X0155352Y0038468D01*
X0155426Y0038596D01*
X0155503Y0038722D01*
X0155584Y0038846D01*
X0155668Y0038968D01*
X0155755Y0039087D01*
X0155846Y0039204D01*
X0155940Y0039319D01*
X0156036Y0039431D01*
X0156136Y0039541D01*
X0156238Y0039647D01*
X0156344Y0039751D01*
X0156452Y0039852D01*
X0156563Y0039950D01*
X0156676Y0040046D01*
X0156792Y0040138D01*
X0156910Y0040227D01*
X0157031Y0040312D01*
X0157154Y0040395D01*
X0157279Y0040474D01*
X0157406Y0040550D01*
X0157535Y0040622D01*
X0157666Y0040691D01*
X0157799Y0040756D01*
X0157934Y0040817D01*
X0158070Y0040875D01*
X0158207Y0040930D01*
X0158346Y0040980D01*
X0158487Y0041027D01*
X0158628Y0041070D01*
X0158771Y0041110D01*
X0158915Y0041145D01*
X0159059Y0041177D01*
X0159205Y0041204D01*
X0159351Y0041228D01*
X0159498Y0041248D01*
X0159645Y0041264D01*
X0159792Y0041276D01*
X0159940Y0041284D01*
X0160088Y0041288D01*
X0160236Y0041288D01*
X0160384Y0041284D01*
X0160532Y0041276D01*
X0160679Y0041264D01*
X0160826Y0041248D01*
X0160973Y0041228D01*
X0161119Y0041204D01*
X0161265Y0041177D01*
X0161409Y0041145D01*
X0161553Y0041110D01*
X0161696Y0041070D01*
X0161837Y0041027D01*
X0161978Y0040980D01*
X0162117Y0040930D01*
X0162254Y0040875D01*
X0162390Y0040817D01*
X0162525Y0040756D01*
X0162658Y0040691D01*
X0162789Y0040622D01*
X0162918Y0040550D01*
X0163045Y0040474D01*
X0163170Y0040395D01*
X0163293Y0040312D01*
X0163414Y0040227D01*
X0163532Y0040138D01*
X0163648Y0040046D01*
X0163761Y0039950D01*
X0163872Y0039852D01*
X0163980Y0039751D01*
X0164086Y0039647D01*
X0164188Y0039541D01*
X0164288Y0039431D01*
X0164384Y0039319D01*
X0164478Y0039204D01*
X0164569Y0039087D01*
X0164656Y0038968D01*
X0164740Y0038846D01*
X0164821Y0038722D01*
X0164898Y0038596D01*
X0164972Y0038468D01*
X0165043Y0038338D01*
X0165110Y0038206D01*
X0165173Y0038072D01*
X0165233Y0037937D01*
X0165289Y0037800D01*
X0165342Y0037661D01*
X0165390Y0037521D01*
X0165435Y0037380D01*
X0165476Y0037238D01*
X0165514Y0037095D01*
X0165547Y0036951D01*
X0165577Y0036806D01*
X0165603Y0036660D01*
X0165624Y0036514D01*
X0165642Y0036367D01*
X0165656Y0036220D01*
X0165666Y0036072D01*
X0165672Y0035924D01*
X0165674Y0035776D01*
X0165672Y0035628D01*
X0165666Y0035480D01*
X0165656Y0035332D01*
X0165642Y0035185D01*
X0165624Y0035038D01*
X0165603Y0034892D01*
X0165577Y0034746D01*
X0165547Y0034601D01*
X0165514Y0034457D01*
X0165476Y0034314D01*
X0165435Y0034172D01*
X0165390Y0034031D01*
X0165342Y0033891D01*
X0165289Y0033752D01*
X0165233Y0033615D01*
X0165173Y0033480D01*
X0165110Y0033346D01*
X0165043Y0033214D01*
X0164972Y0033084D01*
X0164898Y0032956D01*
X0164821Y0032830D01*
X0164740Y0032706D01*
X0164656Y0032584D01*
X0164569Y0032465D01*
X0164478Y0032348D01*
X0164384Y0032233D01*
X0164288Y0032121D01*
X0164188Y0032011D01*
X0164086Y0031905D01*
X0163980Y0031801D01*
X0163872Y0031700D01*
X0163761Y0031602D01*
X0163648Y0031506D01*
X0163532Y0031414D01*
X0163414Y0031325D01*
X0163293Y0031240D01*
X0163170Y0031157D01*
X0163045Y0031078D01*
X0162918Y0031002D01*
X0162789Y0030930D01*
X0162658Y0030861D01*
X0162525Y0030796D01*
X0162390Y0030735D01*
X0162254Y0030677D01*
X0162117Y0030622D01*
X0161978Y0030572D01*
X0161837Y0030525D01*
X0161696Y0030482D01*
X0161553Y0030442D01*
X0161409Y0030407D01*
X0161265Y0030375D01*
X0161119Y0030348D01*
X0160973Y0030324D01*
X0160826Y0030304D01*
X0160679Y0030288D01*
X0160532Y0030276D01*
X0160384Y0030268D01*
X0160236Y0030264D01*
X0160088Y0030264D01*
X0159940Y0030268D01*
X0159792Y0030276D01*
X0159645Y0030288D01*
X0159498Y0030304D01*
X0159351Y0030324D01*
X0159205Y0030348D01*
X0159059Y0030375D01*
X0158915Y0030407D01*
X0158771Y0030442D01*
X0158628Y0030482D01*
X0158487Y0030525D01*
X0158346Y0030572D01*
X0158207Y0030622D01*
X0158070Y0030677D01*
X0157934Y0030735D01*
X0157799Y0030796D01*
X0157666Y0030861D01*
X0157535Y0030930D01*
X0157406Y0031002D01*
X0157279Y0031078D01*
X0157154Y0031157D01*
X0157031Y0031240D01*
X0156910Y0031325D01*
X0156792Y0031414D01*
X0156676Y0031506D01*
X0156563Y0031602D01*
X0156452Y0031700D01*
X0156344Y0031801D01*
X0156238Y0031905D01*
X0156136Y0032011D01*
X0156036Y0032121D01*
X0155940Y0032233D01*
X0155846Y0032348D01*
X0155755Y0032465D01*
X0155668Y0032584D01*
X0155584Y0032706D01*
X0155503Y0032830D01*
X0155426Y0032956D01*
X0155352Y0033084D01*
X0155281Y0033214D01*
X0155214Y0033346D01*
X0155151Y0033480D01*
X0155091Y0033615D01*
X0155035Y0033752D01*
X0154982Y0033891D01*
X0154934Y0034031D01*
X0154889Y0034172D01*
X0154848Y0034314D01*
X0154810Y0034457D01*
X0154777Y0034601D01*
X0154747Y0034746D01*
X0154721Y0034892D01*
X0154700Y0035038D01*
X0154682Y0035185D01*
X0154668Y0035332D01*
X0154658Y0035480D01*
X0154652Y0035628D01*
X0154650Y0035776D01*
D25*
X0240800Y0227643D03*
D26*
X0240800Y0207957D03*
D27*
X0172800Y0120800D03*
D28*
X0172800Y0110800D03*
D29*
X0269824Y0201902D03*
X0287776Y0201902D03*
X0453824Y0201902D03*
X0471776Y0201902D03*
D30*
X0462800Y0230643D03*
X0278800Y0230643D03*
D31*
X0255737Y0083800D03*
X0247863Y0083800D03*
D32*
X0286800Y0081800D03*
X0271800Y0108300D03*
X0331800Y0106800D03*
X0351800Y0109800D03*
X0349800Y0093800D03*
X0373800Y0060800D03*
X0368800Y0048800D03*
X0349800Y0039800D03*
X0421800Y0014800D03*
X0457800Y0049800D03*
X0427800Y0135800D03*
X0416800Y0152800D03*
X0365800Y0147800D03*
X0351800Y0148800D03*
X0365800Y0136800D03*
X0260800Y0201800D03*
X0164800Y0104800D03*
X0164800Y0099800D03*
X0135841Y0091800D03*
X0108800Y0099800D03*
X0196800Y0099800D03*
D33*
X0191800Y0115800D02*
X0173800Y0133800D01*
X0173800Y0139041D01*
X0173559Y0138800D02*
X0135800Y0138800D01*
X0173800Y0140792D02*
X0173800Y0170800D01*
X0185800Y0182800D01*
X0202800Y0182800D01*
X0191800Y0157808D02*
X0191800Y0147800D01*
X0191800Y0140320D02*
X0174272Y0140320D01*
X0191800Y0115800D02*
X0281767Y0115800D01*
X0281800Y0115833D02*
X0281800Y0123800D01*
X0342800Y0148571D02*
X0342800Y0159800D01*
X0328800Y0173800D01*
X0328800Y0219800D01*
X0334800Y0225800D01*
X0338800Y0225800D01*
X0334800Y0235800D02*
X0323800Y0224800D01*
X0323800Y0187800D01*
X0318800Y0182800D01*
X0310800Y0182800D01*
X0296800Y0182800D01*
X0287776Y0191824D01*
X0287776Y0201902D01*
X0269900Y0201826D02*
X0269900Y0186074D01*
X0269824Y0201902D02*
X0261902Y0201902D01*
X0338800Y0208800D02*
X0349800Y0197800D01*
X0349800Y0187800D01*
X0354800Y0182800D01*
X0355900Y0181700D01*
X0355900Y0167700D01*
X0354800Y0182800D02*
X0377737Y0182800D01*
X0382800Y0187863D01*
X0338800Y0208800D02*
X0338800Y0215800D01*
X0338800Y0235800D02*
X0334800Y0235800D01*
X0416800Y0152800D02*
X0453824Y0189824D01*
X0453824Y0201902D01*
X0471776Y0201902D02*
X0471776Y0197776D01*
X0434871Y0160871D01*
X0439800Y0155942D01*
X0439800Y0147800D01*
X0427800Y0153800D02*
X0434871Y0160871D01*
X0427800Y0153800D02*
X0427800Y0135800D01*
X0416800Y0120800D02*
X0416800Y0152800D01*
X0351800Y0148800D02*
X0343029Y0148800D01*
X0261800Y0093800D02*
X0261800Y0086800D01*
X0266800Y0081800D01*
X0286800Y0081800D01*
X0373800Y0060800D02*
X0374320Y0061320D01*
X0382561Y0061320D01*
D34*
X0151800Y0187863D02*
X0145737Y0181800D01*
X0135388Y0181800D01*
X0052800Y0181800D01*
X0037800Y0166800D01*
X0037800Y0123800D01*
X0050800Y0110800D01*
X0057800Y0110800D01*
D35*
X0068800Y0110800D01*
D36*
X0291800Y0157808D02*
X0291816Y0157824D01*
X0301800Y0157808D02*
X0301816Y0157824D01*
X0311800Y0157808D02*
X0311816Y0157824D01*
M02*
