G75*
%MOIN*%
%OFA0B0*%
%FSLAX25Y25*%
%IPPOS*%
%LPD*%
%AMOC8*
5,1,8,0,0,1.08239X$1,22.5*
%
%ADD10C,0.06000*%
%ADD11OC8,0.05200*%
%ADD12C,0.05200*%
%ADD13C,0.07800*%
%ADD14R,0.06600X0.06600*%
%ADD15C,0.06600*%
%ADD16C,0.05200*%
%ADD17OC8,0.06300*%
%ADD18C,0.06300*%
%ADD19C,0.17000*%
%ADD20R,0.07400X0.07400*%
%ADD21C,0.07400*%
%ADD22C,0.07600*%
%ADD23R,0.07600X0.07600*%
%ADD24OC8,0.06200*%
%ADD25C,0.06200*%
%ADD26C,0.03378*%
%ADD27C,0.01600*%
%ADD28C,0.10000*%
%ADD29C,0.03200*%
D10*
X0098300Y0068300D02*
X0098300Y0074300D01*
X0108300Y0074300D02*
X0108300Y0068300D01*
X0118300Y0068300D02*
X0118300Y0074300D01*
X0156300Y0279300D02*
X0156300Y0285300D01*
X0166300Y0285300D02*
X0166300Y0279300D01*
X0223300Y0318300D02*
X0229300Y0318300D01*
X0229300Y0328300D02*
X0223300Y0328300D01*
X0223300Y0338300D02*
X0229300Y0338300D01*
X0248300Y0338300D02*
X0254300Y0338300D01*
X0254300Y0328300D02*
X0248300Y0328300D01*
X0248300Y0318300D02*
X0254300Y0318300D01*
X0353400Y0314500D02*
X0353400Y0308500D01*
X0371200Y0308500D02*
X0371200Y0314500D01*
X0371200Y0334100D02*
X0371200Y0340100D01*
X0353400Y0340100D02*
X0353400Y0334100D01*
D11*
X0234300Y0176300D03*
X0219300Y0176300D03*
X0204300Y0176300D03*
X0189300Y0176300D03*
X0174300Y0176300D03*
X0159300Y0176300D03*
X0144300Y0176300D03*
X0129300Y0176300D03*
X0114300Y0176300D03*
X0099300Y0176300D03*
X0099300Y0126300D03*
X0114300Y0126300D03*
X0129300Y0126300D03*
X0144300Y0126300D03*
X0159300Y0126300D03*
X0174300Y0126300D03*
X0189300Y0126300D03*
X0204300Y0126300D03*
X0219300Y0126300D03*
X0234300Y0126300D03*
D12*
X0229300Y0090900D02*
X0229300Y0085700D01*
X0219300Y0085700D02*
X0219300Y0090900D01*
X0239300Y0090900D02*
X0239300Y0085700D01*
X0299300Y0190700D02*
X0299300Y0195900D01*
X0309300Y0195900D02*
X0309300Y0190700D01*
X0319300Y0190700D02*
X0319300Y0195900D01*
X0329300Y0195900D02*
X0329300Y0190700D01*
X0339300Y0190700D02*
X0339300Y0195900D01*
X0349300Y0195900D02*
X0349300Y0190700D01*
X0359300Y0190700D02*
X0359300Y0195900D01*
X0359300Y0220700D02*
X0359300Y0225900D01*
X0349300Y0225900D02*
X0349300Y0220700D01*
X0339300Y0220700D02*
X0339300Y0225900D01*
X0329300Y0225900D02*
X0329300Y0220700D01*
X0319300Y0220700D02*
X0319300Y0225900D01*
X0309300Y0225900D02*
X0309300Y0220700D01*
X0299300Y0220700D02*
X0299300Y0225900D01*
X0135300Y0282700D02*
X0135300Y0287900D01*
X0125300Y0287900D02*
X0125300Y0282700D01*
X0115300Y0282700D02*
X0115300Y0287900D01*
X0048300Y0268900D02*
X0048300Y0263700D01*
X0038300Y0263700D02*
X0038300Y0268900D01*
X0028300Y0268900D02*
X0028300Y0263700D01*
X0028300Y0243900D02*
X0028300Y0238700D01*
X0038300Y0238700D02*
X0038300Y0243900D01*
X0048300Y0243900D02*
X0048300Y0238700D01*
X0048300Y0218900D02*
X0048300Y0213700D01*
X0038300Y0213700D02*
X0038300Y0218900D01*
X0028300Y0218900D02*
X0028300Y0213700D01*
D13*
X0080400Y0328400D02*
X0080400Y0336200D01*
X0100200Y0336200D02*
X0100200Y0328400D01*
D14*
X0254300Y0226300D03*
D15*
X0244300Y0226300D03*
X0234300Y0226300D03*
X0224300Y0226300D03*
X0214300Y0226300D03*
X0204300Y0226300D03*
X0194300Y0226300D03*
X0184300Y0226300D03*
X0174300Y0226300D03*
X0164300Y0226300D03*
X0154300Y0226300D03*
X0144300Y0226300D03*
X0134300Y0226300D03*
X0124300Y0226300D03*
X0124300Y0196300D03*
X0134300Y0196300D03*
X0144300Y0196300D03*
X0154300Y0196300D03*
X0164300Y0196300D03*
X0174300Y0196300D03*
X0184300Y0196300D03*
X0194300Y0196300D03*
X0204300Y0196300D03*
X0214300Y0196300D03*
X0224300Y0196300D03*
X0234300Y0196300D03*
X0244300Y0196300D03*
X0254300Y0196300D03*
D16*
X0179800Y0242300D03*
X0160800Y0242300D03*
D17*
X0223300Y0295300D03*
X0250300Y0295300D03*
X0273300Y0228300D03*
D18*
X0273300Y0218300D03*
X0250300Y0285300D03*
X0223300Y0285300D03*
D19*
X0276796Y0302174D03*
X0295300Y0290363D03*
X0295300Y0313985D03*
X0039300Y0313985D03*
X0020796Y0302174D03*
X0039300Y0290363D03*
D20*
X0094316Y0260324D03*
D21*
X0104316Y0260324D03*
X0114316Y0260324D03*
X0124316Y0260324D03*
X0134316Y0260324D03*
X0144316Y0260324D03*
X0154316Y0260324D03*
X0164316Y0260324D03*
X0174316Y0260324D03*
X0184316Y0260324D03*
X0194316Y0260324D03*
X0204316Y0260324D03*
X0214316Y0260324D03*
X0224316Y0260324D03*
X0234316Y0260324D03*
X0244316Y0260324D03*
X0271300Y0134300D03*
X0281300Y0134300D03*
X0291300Y0134300D03*
X0301300Y0134300D03*
X0311300Y0134300D03*
X0321300Y0134300D03*
X0044300Y0131300D03*
X0044300Y0141300D03*
X0044300Y0151300D03*
X0044300Y0161300D03*
X0044300Y0171300D03*
X0034300Y0171300D03*
X0034300Y0161300D03*
X0034300Y0151300D03*
X0034300Y0141300D03*
X0034300Y0131300D03*
D22*
X0153300Y0330143D03*
D23*
X0153300Y0310457D03*
D24*
X0076300Y0168300D03*
D25*
X0076300Y0158300D03*
D26*
X0048341Y0194300D03*
X0027300Y0202300D03*
X0077300Y0202300D03*
X0077300Y0207300D03*
X0109300Y0202300D03*
X0184300Y0210800D03*
X0199300Y0184300D03*
X0244300Y0209300D03*
X0264300Y0212300D03*
X0262300Y0196300D03*
X0246300Y0168300D03*
X0262300Y0142300D03*
X0281300Y0151300D03*
X0286300Y0163300D03*
X0246300Y0122300D03*
X0334300Y0117300D03*
X0370300Y0152300D03*
X0339300Y0238300D03*
X0329300Y0255300D03*
X0353300Y0263300D03*
X0292300Y0263300D03*
X0278300Y0250300D03*
X0278300Y0239300D03*
X0264300Y0251300D03*
X0173300Y0304300D03*
D27*
X0004400Y0004400D02*
X0385200Y0004400D01*
X0385200Y0349200D01*
X0004400Y0349200D01*
X0004400Y0004400D01*
X0004400Y0005155D02*
X0385200Y0005155D01*
X0385200Y0006754D02*
X0004400Y0006754D01*
X0004400Y0008352D02*
X0385200Y0008352D01*
X0385200Y0009951D02*
X0004400Y0009951D01*
X0004400Y0011549D02*
X0385200Y0011549D01*
X0385200Y0013148D02*
X0004400Y0013148D01*
X0004400Y0014746D02*
X0385200Y0014746D01*
X0385200Y0016345D02*
X0004400Y0016345D01*
X0004400Y0017943D02*
X0385200Y0017943D01*
X0385200Y0019542D02*
X0004400Y0019542D01*
X0004400Y0021140D02*
X0385200Y0021140D01*
X0385200Y0022739D02*
X0004400Y0022739D01*
X0004400Y0024337D02*
X0385200Y0024337D01*
X0385200Y0025936D02*
X0004400Y0025936D01*
X0004400Y0027534D02*
X0385200Y0027534D01*
X0385200Y0029133D02*
X0004400Y0029133D01*
X0004400Y0030731D02*
X0385200Y0030731D01*
X0385200Y0032330D02*
X0004400Y0032330D01*
X0004400Y0033928D02*
X0385200Y0033928D01*
X0385200Y0035527D02*
X0004400Y0035527D01*
X0004400Y0037125D02*
X0385200Y0037125D01*
X0385200Y0038724D02*
X0004400Y0038724D01*
X0004400Y0040322D02*
X0385200Y0040322D01*
X0385200Y0041921D02*
X0004400Y0041921D01*
X0004400Y0043519D02*
X0385200Y0043519D01*
X0385200Y0045118D02*
X0004400Y0045118D01*
X0004400Y0046716D02*
X0385200Y0046716D01*
X0385200Y0048315D02*
X0162846Y0048315D01*
X0162718Y0048187D02*
X0164913Y0050382D01*
X0166100Y0053248D01*
X0166100Y0056352D01*
X0164913Y0059218D01*
X0162718Y0061413D01*
X0159852Y0062600D01*
X0156748Y0062600D01*
X0153882Y0061413D01*
X0151687Y0059218D01*
X0150500Y0056352D01*
X0150500Y0053248D01*
X0151687Y0050382D01*
X0153882Y0048187D01*
X0156748Y0047000D01*
X0159852Y0047000D01*
X0162718Y0048187D01*
X0164444Y0049913D02*
X0385200Y0049913D01*
X0385200Y0051512D02*
X0165381Y0051512D01*
X0166043Y0053110D02*
X0385200Y0053110D01*
X0385200Y0054709D02*
X0166100Y0054709D01*
X0166100Y0056307D02*
X0385200Y0056307D01*
X0385200Y0057906D02*
X0165456Y0057906D01*
X0164626Y0059504D02*
X0385200Y0059504D01*
X0385200Y0061103D02*
X0163028Y0061103D01*
X0153572Y0061103D02*
X0063028Y0061103D01*
X0062718Y0061413D02*
X0059852Y0062600D01*
X0056748Y0062600D01*
X0053882Y0061413D01*
X0051687Y0059218D01*
X0050500Y0056352D01*
X0050500Y0053248D01*
X0051687Y0050382D01*
X0053882Y0048187D01*
X0056748Y0047000D01*
X0059852Y0047000D01*
X0062718Y0048187D01*
X0064913Y0050382D01*
X0066100Y0053248D01*
X0066100Y0056352D01*
X0064913Y0059218D01*
X0062718Y0061413D01*
X0064626Y0059504D02*
X0151974Y0059504D01*
X0151144Y0057906D02*
X0065456Y0057906D01*
X0066100Y0056307D02*
X0150500Y0056307D01*
X0150500Y0054709D02*
X0066100Y0054709D01*
X0066043Y0053110D02*
X0150557Y0053110D01*
X0151219Y0051512D02*
X0065381Y0051512D01*
X0064444Y0049913D02*
X0152156Y0049913D01*
X0153754Y0048315D02*
X0062846Y0048315D01*
X0053754Y0048315D02*
X0004400Y0048315D01*
X0004400Y0049913D02*
X0052156Y0049913D01*
X0051219Y0051512D02*
X0004400Y0051512D01*
X0004400Y0053110D02*
X0050557Y0053110D01*
X0050500Y0054709D02*
X0004400Y0054709D01*
X0004400Y0056307D02*
X0050500Y0056307D01*
X0051144Y0057906D02*
X0004400Y0057906D01*
X0004400Y0059504D02*
X0051974Y0059504D01*
X0053572Y0061103D02*
X0004400Y0061103D01*
X0004400Y0062701D02*
X0096660Y0062701D01*
X0097146Y0062500D02*
X0099454Y0062500D01*
X0101585Y0063383D01*
X0103217Y0065015D01*
X0103300Y0065215D01*
X0103383Y0065015D01*
X0105015Y0063383D01*
X0107146Y0062500D01*
X0109454Y0062500D01*
X0111585Y0063383D01*
X0113217Y0065015D01*
X0113300Y0065215D01*
X0113383Y0065015D01*
X0115015Y0063383D01*
X0117146Y0062500D01*
X0119454Y0062500D01*
X0121585Y0063383D01*
X0123217Y0065015D01*
X0124100Y0067146D01*
X0124100Y0075454D01*
X0123217Y0077585D01*
X0121585Y0079217D01*
X0119454Y0080100D01*
X0117146Y0080100D01*
X0115015Y0079217D01*
X0113383Y0077585D01*
X0113300Y0077385D01*
X0113217Y0077585D01*
X0111585Y0079217D01*
X0109454Y0080100D01*
X0107146Y0080100D01*
X0105015Y0079217D01*
X0103383Y0077585D01*
X0103300Y0077385D01*
X0103217Y0077585D01*
X0101585Y0079217D01*
X0099454Y0080100D01*
X0097146Y0080100D01*
X0095015Y0079217D01*
X0093383Y0077585D01*
X0092500Y0075454D01*
X0092500Y0067146D01*
X0093383Y0065015D01*
X0095015Y0063383D01*
X0097146Y0062500D01*
X0099940Y0062701D02*
X0106660Y0062701D01*
X0104098Y0064300D02*
X0102502Y0064300D01*
X0109940Y0062701D02*
X0116660Y0062701D01*
X0114098Y0064300D02*
X0112502Y0064300D01*
X0119940Y0062701D02*
X0385200Y0062701D01*
X0385200Y0064300D02*
X0122502Y0064300D01*
X0123583Y0065899D02*
X0385200Y0065899D01*
X0385200Y0067497D02*
X0124100Y0067497D01*
X0124100Y0069096D02*
X0385200Y0069096D01*
X0385200Y0070694D02*
X0124100Y0070694D01*
X0124100Y0072293D02*
X0385200Y0072293D01*
X0385200Y0073891D02*
X0124100Y0073891D01*
X0124085Y0075490D02*
X0385200Y0075490D01*
X0385200Y0077088D02*
X0123423Y0077088D01*
X0122116Y0078687D02*
X0385200Y0078687D01*
X0385200Y0080285D02*
X0004400Y0080285D01*
X0004400Y0078687D02*
X0094484Y0078687D01*
X0093177Y0077088D02*
X0004400Y0077088D01*
X0004400Y0075490D02*
X0092515Y0075490D01*
X0092500Y0073891D02*
X0004400Y0073891D01*
X0004400Y0072293D02*
X0092500Y0072293D01*
X0092500Y0070694D02*
X0004400Y0070694D01*
X0004400Y0069096D02*
X0092500Y0069096D01*
X0092500Y0067497D02*
X0004400Y0067497D01*
X0004400Y0065899D02*
X0093017Y0065899D01*
X0094098Y0064300D02*
X0004400Y0064300D01*
X0004400Y0081884D02*
X0215480Y0081884D01*
X0214722Y0082641D02*
X0216241Y0081122D01*
X0218226Y0080300D01*
X0220374Y0080300D01*
X0222359Y0081122D01*
X0223878Y0082641D01*
X0224300Y0083660D01*
X0224722Y0082641D01*
X0226241Y0081122D01*
X0228226Y0080300D01*
X0230374Y0080300D01*
X0232359Y0081122D01*
X0233878Y0082641D01*
X0234700Y0084626D01*
X0234700Y0091974D01*
X0233878Y0093959D01*
X0232359Y0095478D01*
X0230374Y0096300D01*
X0228226Y0096300D01*
X0226241Y0095478D01*
X0224722Y0093959D01*
X0224300Y0092940D01*
X0223878Y0093959D01*
X0222359Y0095478D01*
X0220374Y0096300D01*
X0218226Y0096300D01*
X0216241Y0095478D01*
X0214722Y0093959D01*
X0213900Y0091974D01*
X0213900Y0084626D01*
X0214722Y0082641D01*
X0214374Y0083482D02*
X0004400Y0083482D01*
X0004400Y0085081D02*
X0213900Y0085081D01*
X0213900Y0086679D02*
X0004400Y0086679D01*
X0004400Y0088278D02*
X0213900Y0088278D01*
X0213900Y0089876D02*
X0004400Y0089876D01*
X0004400Y0091475D02*
X0213900Y0091475D01*
X0214355Y0093073D02*
X0004400Y0093073D01*
X0004400Y0094672D02*
X0215435Y0094672D01*
X0218154Y0096270D02*
X0004400Y0096270D01*
X0004400Y0097869D02*
X0385200Y0097869D01*
X0385200Y0099467D02*
X0004400Y0099467D01*
X0004400Y0101066D02*
X0385200Y0101066D01*
X0385200Y0102664D02*
X0004400Y0102664D01*
X0004400Y0104263D02*
X0385200Y0104263D01*
X0385200Y0105861D02*
X0004400Y0105861D01*
X0004400Y0107460D02*
X0385200Y0107460D01*
X0385200Y0109058D02*
X0004400Y0109058D01*
X0004400Y0110657D02*
X0385200Y0110657D01*
X0385200Y0112255D02*
X0004400Y0112255D01*
X0004400Y0113854D02*
X0028212Y0113854D01*
X0028584Y0113700D02*
X0331552Y0113700D01*
X0331757Y0113494D01*
X0333407Y0112811D01*
X0335193Y0112811D01*
X0336843Y0113494D01*
X0338106Y0114757D01*
X0338789Y0116407D01*
X0338789Y0118193D01*
X0338579Y0118700D01*
X0375016Y0118700D01*
X0376339Y0119248D01*
X0377352Y0120261D01*
X0383352Y0126261D01*
X0383900Y0127584D01*
X0383900Y0219016D01*
X0383352Y0220339D01*
X0382339Y0221352D01*
X0377339Y0226352D01*
X0376016Y0226900D01*
X0364700Y0226900D01*
X0364700Y0226974D01*
X0363878Y0228959D01*
X0362359Y0230478D01*
X0360374Y0231300D01*
X0358226Y0231300D01*
X0356241Y0230478D01*
X0354722Y0228959D01*
X0354300Y0227940D01*
X0353878Y0228959D01*
X0352359Y0230478D01*
X0350374Y0231300D01*
X0348226Y0231300D01*
X0346241Y0230478D01*
X0344722Y0228959D01*
X0344300Y0227940D01*
X0343878Y0228959D01*
X0342359Y0230478D01*
X0340374Y0231300D01*
X0338226Y0231300D01*
X0336241Y0230478D01*
X0334722Y0228959D01*
X0334300Y0227940D01*
X0333878Y0228959D01*
X0332359Y0230478D01*
X0330374Y0231300D01*
X0328226Y0231300D01*
X0326241Y0230478D01*
X0324722Y0228959D01*
X0324300Y0227940D01*
X0323878Y0228959D01*
X0322359Y0230478D01*
X0320374Y0231300D01*
X0318226Y0231300D01*
X0316241Y0230478D01*
X0314722Y0228959D01*
X0314300Y0227940D01*
X0313878Y0228959D01*
X0312359Y0230478D01*
X0310374Y0231300D01*
X0308226Y0231300D01*
X0306241Y0230478D01*
X0304722Y0228959D01*
X0304300Y0227940D01*
X0303878Y0228959D01*
X0302359Y0230478D01*
X0300374Y0231300D01*
X0299523Y0231300D01*
X0302123Y0233900D01*
X0338192Y0233900D01*
X0338407Y0233811D01*
X0340193Y0233811D01*
X0341843Y0234494D01*
X0343106Y0235757D01*
X0343789Y0237407D01*
X0343789Y0239193D01*
X0343106Y0240843D01*
X0341843Y0242106D01*
X0340193Y0242789D01*
X0338407Y0242789D01*
X0338192Y0242700D01*
X0299425Y0242700D01*
X0297808Y0242030D01*
X0278477Y0222700D01*
X0277315Y0222700D01*
X0276670Y0223344D01*
X0275733Y0223733D01*
X0278250Y0226250D01*
X0278250Y0228300D01*
X0278250Y0230350D01*
X0275350Y0233250D01*
X0273300Y0233250D01*
X0273300Y0228300D01*
X0273300Y0228300D01*
X0278250Y0228300D01*
X0273300Y0228300D01*
X0273300Y0228300D01*
X0273300Y0228300D01*
X0268350Y0228300D01*
X0268350Y0230350D01*
X0271250Y0233250D01*
X0273300Y0233250D01*
X0273300Y0228300D01*
X0268350Y0228300D01*
X0268350Y0226250D01*
X0270867Y0223733D01*
X0269930Y0223344D01*
X0269285Y0222700D01*
X0260400Y0222700D01*
X0260400Y0230157D01*
X0259974Y0231186D01*
X0259186Y0231974D01*
X0258157Y0232400D01*
X0250443Y0232400D01*
X0249414Y0231974D01*
X0248626Y0231186D01*
X0248455Y0230772D01*
X0247755Y0231471D01*
X0245513Y0232400D01*
X0243087Y0232400D01*
X0240845Y0231471D01*
X0239300Y0229927D01*
X0237755Y0231471D01*
X0235513Y0232400D01*
X0233087Y0232400D01*
X0230845Y0231471D01*
X0229300Y0229927D01*
X0227755Y0231471D01*
X0225513Y0232400D01*
X0223087Y0232400D01*
X0220845Y0231471D01*
X0219300Y0229927D01*
X0217755Y0231471D01*
X0215513Y0232400D01*
X0213087Y0232400D01*
X0210845Y0231471D01*
X0209300Y0229927D01*
X0207755Y0231471D01*
X0205513Y0232400D01*
X0203087Y0232400D01*
X0200845Y0231471D01*
X0199300Y0229927D01*
X0197755Y0231471D01*
X0195513Y0232400D01*
X0193087Y0232400D01*
X0190845Y0231471D01*
X0189129Y0229755D01*
X0188741Y0228818D01*
X0188662Y0228973D01*
X0188190Y0229622D01*
X0187622Y0230190D01*
X0186973Y0230662D01*
X0186258Y0231026D01*
X0185494Y0231274D01*
X0184701Y0231400D01*
X0184600Y0231400D01*
X0184600Y0226600D01*
X0184000Y0226600D01*
X0184000Y0231400D01*
X0183899Y0231400D01*
X0183106Y0231274D01*
X0182342Y0231026D01*
X0181627Y0230662D01*
X0180978Y0230190D01*
X0180410Y0229622D01*
X0179938Y0228973D01*
X0179859Y0228818D01*
X0179471Y0229755D01*
X0177755Y0231471D01*
X0175513Y0232400D01*
X0173087Y0232400D01*
X0170845Y0231471D01*
X0169300Y0229927D01*
X0167755Y0231471D01*
X0165513Y0232400D01*
X0163087Y0232400D01*
X0160845Y0231471D01*
X0159300Y0229927D01*
X0157900Y0231327D01*
X0157900Y0237656D01*
X0159726Y0236900D01*
X0161874Y0236900D01*
X0163859Y0237722D01*
X0165378Y0239241D01*
X0166200Y0241226D01*
X0166200Y0243374D01*
X0165378Y0245359D01*
X0164037Y0246700D01*
X0176563Y0246700D01*
X0175222Y0245359D01*
X0174400Y0243374D01*
X0174400Y0241226D01*
X0175222Y0239241D01*
X0176741Y0237722D01*
X0178726Y0236900D01*
X0180874Y0236900D01*
X0182859Y0237722D01*
X0184378Y0239241D01*
X0185200Y0241226D01*
X0185200Y0243374D01*
X0184378Y0245359D01*
X0183037Y0246700D01*
X0185008Y0246700D01*
X0186331Y0247248D01*
X0192941Y0253858D01*
X0193023Y0253824D01*
X0195609Y0253824D01*
X0197998Y0254813D01*
X0199316Y0256131D01*
X0200634Y0254813D01*
X0203023Y0253824D01*
X0205609Y0253824D01*
X0207998Y0254813D01*
X0209316Y0256131D01*
X0210634Y0254813D01*
X0213023Y0253824D01*
X0215609Y0253824D01*
X0217998Y0254813D01*
X0219316Y0256131D01*
X0220634Y0254813D01*
X0223023Y0253824D01*
X0225609Y0253824D01*
X0227998Y0254813D01*
X0229316Y0256131D01*
X0230634Y0254813D01*
X0233023Y0253824D01*
X0235609Y0253824D01*
X0237998Y0254813D01*
X0239316Y0256131D01*
X0240634Y0254813D01*
X0243023Y0253824D01*
X0245609Y0253824D01*
X0247998Y0254813D01*
X0249826Y0256642D01*
X0250816Y0259031D01*
X0250816Y0261617D01*
X0249826Y0264006D01*
X0247998Y0265834D01*
X0245609Y0266824D01*
X0243023Y0266824D01*
X0240634Y0265834D01*
X0239316Y0264516D01*
X0237998Y0265834D01*
X0235609Y0266824D01*
X0234038Y0266824D01*
X0230070Y0270792D01*
X0228832Y0272030D01*
X0227215Y0272700D01*
X0182123Y0272700D01*
X0172100Y0282723D01*
X0172100Y0286454D01*
X0171501Y0287900D01*
X0180175Y0287900D01*
X0181792Y0288570D01*
X0183030Y0289808D01*
X0217123Y0323900D01*
X0219498Y0323900D01*
X0220015Y0323383D01*
X0220215Y0323300D01*
X0220015Y0323217D01*
X0218383Y0321585D01*
X0217500Y0319454D01*
X0217500Y0317146D01*
X0218383Y0315015D01*
X0220015Y0313383D01*
X0222146Y0312500D01*
X0230454Y0312500D01*
X0232585Y0313383D01*
X0234217Y0315015D01*
X0235100Y0317146D01*
X0235100Y0319454D01*
X0234217Y0321585D01*
X0232585Y0323217D01*
X0232385Y0323300D01*
X0232585Y0323383D01*
X0234217Y0325015D01*
X0235100Y0327146D01*
X0235100Y0329454D01*
X0234217Y0331585D01*
X0232585Y0333217D01*
X0232385Y0333300D01*
X0232585Y0333383D01*
X0234217Y0335015D01*
X0235100Y0337146D01*
X0235100Y0339454D01*
X0234217Y0341585D01*
X0232585Y0343217D01*
X0230454Y0344100D01*
X0222146Y0344100D01*
X0220015Y0343217D01*
X0219498Y0342700D01*
X0206425Y0342700D01*
X0204808Y0342030D01*
X0170972Y0308195D01*
X0170757Y0308106D01*
X0169494Y0306843D01*
X0168811Y0305193D01*
X0168811Y0303407D01*
X0169494Y0301757D01*
X0170757Y0300494D01*
X0172407Y0299811D01*
X0174193Y0299811D01*
X0175843Y0300494D01*
X0177106Y0301757D01*
X0177195Y0301972D01*
X0209123Y0333900D01*
X0219498Y0333900D01*
X0220015Y0333383D01*
X0220215Y0333300D01*
X0220015Y0333217D01*
X0219498Y0332700D01*
X0214425Y0332700D01*
X0212808Y0332030D01*
X0211570Y0330792D01*
X0177477Y0296700D01*
X0163123Y0296700D01*
X0157700Y0302123D01*
X0157700Y0303837D01*
X0157718Y0303845D01*
X0157783Y0303910D01*
X0158686Y0304284D01*
X0159474Y0305071D01*
X0159848Y0305974D01*
X0159913Y0306039D01*
X0161100Y0308906D01*
X0161100Y0312009D01*
X0159913Y0314876D01*
X0159848Y0314941D01*
X0159474Y0315844D01*
X0158686Y0316631D01*
X0157783Y0317005D01*
X0157718Y0317070D01*
X0154852Y0318257D01*
X0088100Y0318257D01*
X0088100Y0330507D01*
X0088200Y0330748D01*
X0088200Y0333852D01*
X0087100Y0336507D01*
X0087100Y0337533D01*
X0086080Y0339995D01*
X0084195Y0341880D01*
X0081733Y0342900D01*
X0079067Y0342900D01*
X0076605Y0341880D01*
X0074720Y0339995D01*
X0073700Y0337533D01*
X0073700Y0336631D01*
X0073687Y0336618D01*
X0072500Y0333752D01*
X0072500Y0307531D01*
X0063132Y0298163D01*
X0047481Y0298163D01*
X0046238Y0299405D01*
X0043662Y0300893D01*
X0040788Y0301663D01*
X0037812Y0301663D01*
X0034938Y0300893D01*
X0032362Y0299405D01*
X0030258Y0297301D01*
X0028770Y0294725D01*
X0028000Y0291851D01*
X0028000Y0288875D01*
X0028770Y0286001D01*
X0030258Y0283425D01*
X0032362Y0281321D01*
X0034938Y0279833D01*
X0037812Y0279063D01*
X0040788Y0279063D01*
X0043662Y0279833D01*
X0046238Y0281321D01*
X0047481Y0282563D01*
X0049208Y0282563D01*
X0049208Y0274300D01*
X0047226Y0274300D01*
X0045241Y0273478D01*
X0043722Y0271959D01*
X0043300Y0270940D01*
X0042878Y0271959D01*
X0041359Y0273478D01*
X0039374Y0274300D01*
X0037226Y0274300D01*
X0035241Y0273478D01*
X0033722Y0271959D01*
X0032900Y0269974D01*
X0032900Y0262626D01*
X0033722Y0260641D01*
X0035241Y0259122D01*
X0037226Y0258300D01*
X0039209Y0258300D01*
X0042809Y0254700D01*
X0026175Y0254700D01*
X0024425Y0254700D01*
X0022808Y0254030D01*
X0017808Y0249030D01*
X0017808Y0249030D01*
X0016570Y0247792D01*
X0015900Y0246175D01*
X0015900Y0185425D01*
X0016570Y0183808D01*
X0017808Y0182570D01*
X0023570Y0176808D01*
X0024808Y0175570D01*
X0026425Y0174900D01*
X0028756Y0174900D01*
X0027800Y0172593D01*
X0027800Y0170007D01*
X0028790Y0167618D01*
X0030108Y0166300D01*
X0028790Y0164982D01*
X0027800Y0162593D01*
X0027800Y0160007D01*
X0028790Y0157618D01*
X0030108Y0156300D01*
X0028790Y0154982D01*
X0028584Y0154486D01*
X0028261Y0154352D01*
X0024261Y0150352D01*
X0023248Y0149339D01*
X0022700Y0148016D01*
X0022700Y0119584D01*
X0023248Y0118261D01*
X0024261Y0117248D01*
X0026248Y0115261D01*
X0027261Y0114248D01*
X0028584Y0113700D01*
X0026056Y0115452D02*
X0004400Y0115452D01*
X0004400Y0117051D02*
X0024458Y0117051D01*
X0023087Y0118649D02*
X0004400Y0118649D01*
X0004400Y0120248D02*
X0022700Y0120248D01*
X0022700Y0121846D02*
X0004400Y0121846D01*
X0004400Y0123445D02*
X0022700Y0123445D01*
X0022700Y0125043D02*
X0004400Y0125043D01*
X0004400Y0126642D02*
X0022700Y0126642D01*
X0022700Y0128240D02*
X0004400Y0128240D01*
X0004400Y0129839D02*
X0022700Y0129839D01*
X0022700Y0131437D02*
X0004400Y0131437D01*
X0004400Y0133036D02*
X0022700Y0133036D01*
X0022700Y0134634D02*
X0004400Y0134634D01*
X0004400Y0136233D02*
X0022700Y0136233D01*
X0022700Y0137832D02*
X0004400Y0137832D01*
X0004400Y0139430D02*
X0022700Y0139430D01*
X0022700Y0141029D02*
X0004400Y0141029D01*
X0004400Y0142627D02*
X0022700Y0142627D01*
X0022700Y0144226D02*
X0004400Y0144226D01*
X0004400Y0145824D02*
X0022700Y0145824D01*
X0022700Y0147423D02*
X0004400Y0147423D01*
X0004400Y0149021D02*
X0023116Y0149021D01*
X0024528Y0150620D02*
X0004400Y0150620D01*
X0004400Y0152218D02*
X0026127Y0152218D01*
X0027725Y0153817D02*
X0004400Y0153817D01*
X0004400Y0155415D02*
X0029223Y0155415D01*
X0029394Y0157014D02*
X0004400Y0157014D01*
X0004400Y0158612D02*
X0028378Y0158612D01*
X0027800Y0160211D02*
X0004400Y0160211D01*
X0004400Y0161809D02*
X0027800Y0161809D01*
X0028137Y0163408D02*
X0004400Y0163408D01*
X0004400Y0165006D02*
X0028814Y0165006D01*
X0029803Y0166605D02*
X0004400Y0166605D01*
X0004400Y0168203D02*
X0028547Y0168203D01*
X0027885Y0169802D02*
X0004400Y0169802D01*
X0004400Y0171400D02*
X0027800Y0171400D01*
X0027968Y0172999D02*
X0004400Y0172999D01*
X0004400Y0174597D02*
X0028630Y0174597D01*
X0024182Y0176196D02*
X0004400Y0176196D01*
X0004400Y0177794D02*
X0022583Y0177794D01*
X0020985Y0179393D02*
X0004400Y0179393D01*
X0004400Y0180991D02*
X0019386Y0180991D01*
X0017788Y0182590D02*
X0004400Y0182590D01*
X0004400Y0184188D02*
X0016412Y0184188D01*
X0015900Y0185787D02*
X0004400Y0185787D01*
X0004400Y0187385D02*
X0015900Y0187385D01*
X0015900Y0188984D02*
X0004400Y0188984D01*
X0004400Y0190582D02*
X0015900Y0190582D01*
X0015900Y0192181D02*
X0004400Y0192181D01*
X0004400Y0193779D02*
X0015900Y0193779D01*
X0015900Y0195378D02*
X0004400Y0195378D01*
X0004400Y0196976D02*
X0015900Y0196976D01*
X0015900Y0198575D02*
X0004400Y0198575D01*
X0004400Y0200173D02*
X0015900Y0200173D01*
X0015900Y0201772D02*
X0004400Y0201772D01*
X0004400Y0203370D02*
X0015900Y0203370D01*
X0015900Y0204969D02*
X0004400Y0204969D01*
X0004400Y0206568D02*
X0015900Y0206568D01*
X0015900Y0208166D02*
X0004400Y0208166D01*
X0004400Y0209765D02*
X0015900Y0209765D01*
X0015900Y0211363D02*
X0004400Y0211363D01*
X0004400Y0212962D02*
X0015900Y0212962D01*
X0015900Y0214560D02*
X0004400Y0214560D01*
X0004400Y0216159D02*
X0015900Y0216159D01*
X0015900Y0217757D02*
X0004400Y0217757D01*
X0004400Y0219356D02*
X0015900Y0219356D01*
X0015900Y0220954D02*
X0004400Y0220954D01*
X0004400Y0222553D02*
X0015900Y0222553D01*
X0015900Y0224151D02*
X0004400Y0224151D01*
X0004400Y0225750D02*
X0015900Y0225750D01*
X0015900Y0227348D02*
X0004400Y0227348D01*
X0004400Y0228947D02*
X0015900Y0228947D01*
X0015900Y0230545D02*
X0004400Y0230545D01*
X0004400Y0232144D02*
X0015900Y0232144D01*
X0015900Y0233742D02*
X0004400Y0233742D01*
X0004400Y0235341D02*
X0015900Y0235341D01*
X0015900Y0236939D02*
X0004400Y0236939D01*
X0004400Y0238538D02*
X0015900Y0238538D01*
X0015900Y0240136D02*
X0004400Y0240136D01*
X0004400Y0241735D02*
X0015900Y0241735D01*
X0015900Y0243333D02*
X0004400Y0243333D01*
X0004400Y0244932D02*
X0015900Y0244932D01*
X0016047Y0246530D02*
X0004400Y0246530D01*
X0004400Y0248129D02*
X0016906Y0248129D01*
X0018505Y0249727D02*
X0004400Y0249727D01*
X0004400Y0251326D02*
X0020103Y0251326D01*
X0021702Y0252924D02*
X0004400Y0252924D01*
X0004400Y0254523D02*
X0023997Y0254523D01*
X0026611Y0259622D02*
X0027270Y0259408D01*
X0027954Y0259300D01*
X0028300Y0259300D01*
X0028646Y0259300D01*
X0029330Y0259408D01*
X0029989Y0259622D01*
X0030606Y0259937D01*
X0031166Y0260344D01*
X0031656Y0260834D01*
X0032063Y0261394D01*
X0032378Y0262011D01*
X0032592Y0262670D01*
X0032700Y0263354D01*
X0032700Y0266300D01*
X0032700Y0269246D01*
X0032592Y0269930D01*
X0032378Y0270589D01*
X0032063Y0271206D01*
X0031656Y0271766D01*
X0031166Y0272256D01*
X0030606Y0272663D01*
X0029989Y0272978D01*
X0029330Y0273192D01*
X0028646Y0273300D01*
X0028300Y0273300D01*
X0028300Y0266300D01*
X0032700Y0266300D01*
X0028300Y0266300D01*
X0028300Y0266300D01*
X0028300Y0266300D01*
X0028300Y0259300D01*
X0028300Y0266300D01*
X0028300Y0266300D01*
X0028300Y0266300D01*
X0023900Y0266300D01*
X0023900Y0269246D01*
X0024008Y0269930D01*
X0024222Y0270589D01*
X0024537Y0271206D01*
X0024944Y0271766D01*
X0025434Y0272256D01*
X0025994Y0272663D01*
X0026611Y0272978D01*
X0027270Y0273192D01*
X0027954Y0273300D01*
X0028300Y0273300D01*
X0028300Y0266300D01*
X0023900Y0266300D01*
X0023900Y0263354D01*
X0024008Y0262670D01*
X0024222Y0262011D01*
X0024537Y0261394D01*
X0024944Y0260834D01*
X0025434Y0260344D01*
X0025994Y0259937D01*
X0026611Y0259622D01*
X0027838Y0259318D02*
X0004400Y0259318D01*
X0004400Y0257720D02*
X0039789Y0257720D01*
X0041387Y0256121D02*
X0004400Y0256121D01*
X0004400Y0260917D02*
X0024883Y0260917D01*
X0024058Y0262515D02*
X0004400Y0262515D01*
X0004400Y0264114D02*
X0023900Y0264114D01*
X0023900Y0265712D02*
X0004400Y0265712D01*
X0004400Y0267311D02*
X0023900Y0267311D01*
X0023900Y0268909D02*
X0004400Y0268909D01*
X0004400Y0270508D02*
X0024196Y0270508D01*
X0025284Y0272106D02*
X0004400Y0272106D01*
X0004400Y0273705D02*
X0035789Y0273705D01*
X0033870Y0272106D02*
X0031316Y0272106D01*
X0032404Y0270508D02*
X0033121Y0270508D01*
X0032900Y0268909D02*
X0032700Y0268909D01*
X0032700Y0267311D02*
X0032900Y0267311D01*
X0032900Y0265712D02*
X0032700Y0265712D01*
X0032700Y0264114D02*
X0032900Y0264114D01*
X0032946Y0262515D02*
X0032542Y0262515D01*
X0031717Y0260917D02*
X0033608Y0260917D01*
X0035045Y0259318D02*
X0028762Y0259318D01*
X0028300Y0259318D02*
X0028300Y0259318D01*
X0028300Y0260917D02*
X0028300Y0260917D01*
X0028300Y0262515D02*
X0028300Y0262515D01*
X0028300Y0264114D02*
X0028300Y0264114D01*
X0028300Y0265712D02*
X0028300Y0265712D01*
X0028300Y0267311D02*
X0028300Y0267311D01*
X0028300Y0268909D02*
X0028300Y0268909D01*
X0028300Y0270508D02*
X0028300Y0270508D01*
X0028300Y0272106D02*
X0028300Y0272106D01*
X0034478Y0280099D02*
X0004400Y0280099D01*
X0004400Y0278501D02*
X0049208Y0278501D01*
X0049208Y0280099D02*
X0044122Y0280099D01*
X0046615Y0281698D02*
X0049208Y0281698D01*
X0049208Y0276902D02*
X0004400Y0276902D01*
X0004400Y0275303D02*
X0049208Y0275303D01*
X0045789Y0273705D02*
X0040811Y0273705D01*
X0042730Y0272106D02*
X0043870Y0272106D01*
X0038300Y0266300D02*
X0038300Y0264300D01*
X0069300Y0233300D01*
X0099300Y0233300D01*
X0103300Y0229300D01*
X0103300Y0193300D01*
X0106300Y0190300D01*
X0112300Y0190300D01*
X0211300Y0190300D01*
X0214300Y0193300D01*
X0214300Y0196300D01*
X0211570Y0201772D02*
X0207030Y0201772D01*
X0207755Y0201471D02*
X0205513Y0202400D01*
X0203087Y0202400D01*
X0200845Y0201471D01*
X0199129Y0199755D01*
X0198741Y0198818D01*
X0198662Y0198973D01*
X0198190Y0199622D01*
X0197622Y0200190D01*
X0196973Y0200662D01*
X0196258Y0201026D01*
X0195494Y0201274D01*
X0194701Y0201400D01*
X0194600Y0201400D01*
X0194600Y0196600D01*
X0194000Y0196600D01*
X0194000Y0201400D01*
X0193899Y0201400D01*
X0193106Y0201274D01*
X0192342Y0201026D01*
X0191627Y0200662D01*
X0190978Y0200190D01*
X0190410Y0199622D01*
X0189938Y0198973D01*
X0189859Y0198818D01*
X0189471Y0199755D01*
X0187900Y0201327D01*
X0187900Y0208052D01*
X0188106Y0208257D01*
X0188789Y0209907D01*
X0188789Y0210700D01*
X0240021Y0210700D01*
X0239811Y0210193D01*
X0239811Y0208407D01*
X0240494Y0206757D01*
X0241757Y0205494D01*
X0243407Y0204811D01*
X0245193Y0204811D01*
X0246843Y0205494D01*
X0247048Y0205700D01*
X0255809Y0205700D01*
X0258700Y0202809D01*
X0258700Y0200527D01*
X0257755Y0201471D01*
X0255513Y0202400D01*
X0253087Y0202400D01*
X0250845Y0201471D01*
X0249300Y0199927D01*
X0247755Y0201471D01*
X0245513Y0202400D01*
X0243087Y0202400D01*
X0240845Y0201471D01*
X0239300Y0199927D01*
X0237755Y0201471D01*
X0235513Y0202400D01*
X0233087Y0202400D01*
X0230845Y0201471D01*
X0229300Y0199927D01*
X0227755Y0201471D01*
X0225513Y0202400D01*
X0223087Y0202400D01*
X0220845Y0201471D01*
X0219300Y0199927D01*
X0217755Y0201471D01*
X0215513Y0202400D01*
X0213087Y0202400D01*
X0210845Y0201471D01*
X0209300Y0199927D01*
X0207755Y0201471D01*
X0209053Y0200173D02*
X0209547Y0200173D01*
X0217030Y0201772D02*
X0221570Y0201772D01*
X0219547Y0200173D02*
X0219053Y0200173D01*
X0227030Y0201772D02*
X0231570Y0201772D01*
X0229547Y0200173D02*
X0229053Y0200173D01*
X0237030Y0201772D02*
X0241570Y0201772D01*
X0239547Y0200173D02*
X0239053Y0200173D01*
X0243026Y0204969D02*
X0187900Y0204969D01*
X0187900Y0203370D02*
X0258138Y0203370D01*
X0258700Y0201772D02*
X0257030Y0201772D01*
X0256540Y0204969D02*
X0245574Y0204969D01*
X0247030Y0201772D02*
X0251570Y0201772D01*
X0249547Y0200173D02*
X0249053Y0200173D01*
X0240684Y0206568D02*
X0187900Y0206568D01*
X0188014Y0208166D02*
X0239911Y0208166D01*
X0239811Y0209765D02*
X0188730Y0209765D01*
X0184300Y0210800D02*
X0184300Y0196300D01*
X0189053Y0200173D02*
X0190961Y0200173D01*
X0194000Y0200173D02*
X0194600Y0200173D01*
X0194600Y0198575D02*
X0194000Y0198575D01*
X0194000Y0196976D02*
X0194600Y0196976D01*
X0197639Y0200173D02*
X0199547Y0200173D01*
X0201570Y0201772D02*
X0187900Y0201772D01*
X0195435Y0186700D02*
X0113016Y0186700D01*
X0105584Y0186700D01*
X0104261Y0187248D01*
X0101261Y0190248D01*
X0100248Y0191261D01*
X0099700Y0192584D01*
X0099700Y0227809D01*
X0097809Y0229700D01*
X0068584Y0229700D01*
X0067261Y0230248D01*
X0066248Y0231261D01*
X0066248Y0231261D01*
X0053700Y0243809D01*
X0053700Y0237626D01*
X0052878Y0235641D01*
X0051359Y0234122D01*
X0049374Y0233300D01*
X0047226Y0233300D01*
X0045241Y0234122D01*
X0043722Y0235641D01*
X0043300Y0236660D01*
X0042878Y0235641D01*
X0041359Y0234122D01*
X0039374Y0233300D01*
X0037226Y0233300D01*
X0035241Y0234122D01*
X0033722Y0235641D01*
X0032900Y0237626D01*
X0032900Y0244974D01*
X0033284Y0245900D01*
X0032219Y0245900D01*
X0032378Y0245589D01*
X0032592Y0244930D01*
X0032700Y0244246D01*
X0032700Y0241300D01*
X0028300Y0241300D01*
X0028300Y0241300D01*
X0032700Y0241300D01*
X0032700Y0238354D01*
X0032592Y0237670D01*
X0032378Y0237011D01*
X0032063Y0236394D01*
X0031656Y0235834D01*
X0031166Y0235344D01*
X0030606Y0234937D01*
X0029989Y0234622D01*
X0029330Y0234408D01*
X0028646Y0234300D01*
X0028300Y0234300D01*
X0028300Y0241300D01*
X0028300Y0241300D01*
X0028300Y0234300D01*
X0027954Y0234300D01*
X0027270Y0234408D01*
X0026611Y0234622D01*
X0025994Y0234937D01*
X0025434Y0235344D01*
X0024944Y0235834D01*
X0024700Y0236169D01*
X0024700Y0221431D01*
X0024944Y0221766D01*
X0025434Y0222256D01*
X0025994Y0222663D01*
X0026611Y0222978D01*
X0027270Y0223192D01*
X0027954Y0223300D01*
X0028300Y0223300D01*
X0028300Y0216300D01*
X0028300Y0216300D01*
X0032700Y0216300D01*
X0032700Y0219246D01*
X0032592Y0219930D01*
X0032378Y0220589D01*
X0032063Y0221206D01*
X0031656Y0221766D01*
X0031166Y0222256D01*
X0030606Y0222663D01*
X0029989Y0222978D01*
X0029330Y0223192D01*
X0028646Y0223300D01*
X0028300Y0223300D01*
X0028300Y0216300D01*
X0028300Y0216300D01*
X0032700Y0216300D01*
X0032700Y0213354D01*
X0032592Y0212670D01*
X0032378Y0212011D01*
X0032063Y0211394D01*
X0031656Y0210834D01*
X0031166Y0210344D01*
X0030606Y0209937D01*
X0029989Y0209622D01*
X0029330Y0209408D01*
X0028646Y0209300D01*
X0028300Y0209300D01*
X0028300Y0216300D01*
X0028300Y0216300D01*
X0028300Y0209300D01*
X0027954Y0209300D01*
X0027270Y0209408D01*
X0026611Y0209622D01*
X0025994Y0209937D01*
X0025434Y0210344D01*
X0024944Y0210834D01*
X0024700Y0211169D01*
X0024700Y0206048D01*
X0024757Y0206106D01*
X0026407Y0206789D01*
X0028193Y0206789D01*
X0029843Y0206106D01*
X0030048Y0205900D01*
X0039609Y0205900D01*
X0037197Y0208312D01*
X0035241Y0209122D01*
X0033722Y0210641D01*
X0032900Y0212626D01*
X0032900Y0219974D01*
X0033722Y0221959D01*
X0035241Y0223478D01*
X0037226Y0224300D01*
X0039374Y0224300D01*
X0041359Y0223478D01*
X0042878Y0221959D01*
X0043300Y0220940D01*
X0043722Y0221959D01*
X0045241Y0223478D01*
X0047226Y0224300D01*
X0049374Y0224300D01*
X0051359Y0223478D01*
X0052878Y0221959D01*
X0053700Y0219974D01*
X0053700Y0212626D01*
X0052985Y0210900D01*
X0074552Y0210900D01*
X0074757Y0211106D01*
X0076407Y0211789D01*
X0078193Y0211789D01*
X0079843Y0211106D01*
X0081106Y0209843D01*
X0081789Y0208193D01*
X0081789Y0206407D01*
X0081123Y0204800D01*
X0081789Y0203193D01*
X0081789Y0201407D01*
X0081106Y0199757D01*
X0079843Y0198494D01*
X0078193Y0197811D01*
X0076407Y0197811D01*
X0074757Y0198494D01*
X0074552Y0198700D01*
X0049449Y0198700D01*
X0050884Y0198106D01*
X0051089Y0197900D01*
X0073016Y0197900D01*
X0074339Y0197352D01*
X0094900Y0176791D01*
X0094900Y0178123D01*
X0097477Y0180700D01*
X0099300Y0180700D01*
X0099300Y0176300D01*
X0099300Y0176300D01*
X0103700Y0176300D01*
X0103700Y0178123D01*
X0101123Y0180700D01*
X0099300Y0180700D01*
X0099300Y0176300D01*
X0099300Y0176300D01*
X0103700Y0176300D01*
X0103700Y0174477D01*
X0101123Y0171900D01*
X0099791Y0171900D01*
X0099791Y0171900D01*
X0243552Y0171900D01*
X0243757Y0172106D01*
X0245407Y0172789D01*
X0247193Y0172789D01*
X0248843Y0172106D01*
X0250106Y0170843D01*
X0250789Y0169193D01*
X0250789Y0167407D01*
X0250106Y0165757D01*
X0248843Y0164494D01*
X0247193Y0163811D01*
X0245407Y0163811D01*
X0243757Y0164494D01*
X0243552Y0164700D01*
X0097584Y0164700D01*
X0096261Y0165248D01*
X0095248Y0166261D01*
X0070809Y0190700D01*
X0051089Y0190700D01*
X0050884Y0190494D01*
X0049234Y0189811D01*
X0047448Y0189811D01*
X0045798Y0190494D01*
X0044535Y0191757D01*
X0043852Y0193407D01*
X0043852Y0195193D01*
X0044535Y0196843D01*
X0045798Y0198106D01*
X0047233Y0198700D01*
X0030048Y0198700D01*
X0029843Y0198494D01*
X0028193Y0197811D01*
X0026407Y0197811D01*
X0024757Y0198494D01*
X0024700Y0198552D01*
X0024700Y0188123D01*
X0029123Y0183700D01*
X0039918Y0183700D01*
X0041535Y0183030D01*
X0047594Y0176971D01*
X0047982Y0176810D01*
X0049810Y0174982D01*
X0050800Y0172593D01*
X0050800Y0170007D01*
X0049810Y0167618D01*
X0047982Y0165790D01*
X0047661Y0165657D01*
X0047883Y0165495D01*
X0048495Y0164883D01*
X0049004Y0164183D01*
X0049397Y0163411D01*
X0049665Y0162588D01*
X0049800Y0161733D01*
X0049800Y0161500D01*
X0044500Y0161500D01*
X0044500Y0161100D01*
X0049800Y0161100D01*
X0049800Y0160867D01*
X0049665Y0160012D01*
X0049397Y0159189D01*
X0049004Y0158417D01*
X0048495Y0157717D01*
X0047883Y0157105D01*
X0047183Y0156596D01*
X0046602Y0156300D01*
X0047183Y0156004D01*
X0047883Y0155495D01*
X0048495Y0154883D01*
X0049004Y0154183D01*
X0049397Y0153411D01*
X0049665Y0152588D01*
X0049800Y0151733D01*
X0049800Y0151500D01*
X0044500Y0151500D01*
X0044500Y0151100D01*
X0049800Y0151100D01*
X0049800Y0150867D01*
X0049665Y0150012D01*
X0049397Y0149189D01*
X0049004Y0148417D01*
X0048495Y0147717D01*
X0047883Y0147105D01*
X0047183Y0146596D01*
X0046602Y0146300D01*
X0047183Y0146004D01*
X0047883Y0145495D01*
X0048495Y0144883D01*
X0049004Y0144183D01*
X0049397Y0143411D01*
X0049665Y0142588D01*
X0049800Y0141733D01*
X0049800Y0141500D01*
X0044500Y0141500D01*
X0044500Y0141100D01*
X0049800Y0141100D01*
X0049800Y0140867D01*
X0049665Y0140012D01*
X0049397Y0139189D01*
X0049004Y0138417D01*
X0048495Y0137717D01*
X0047883Y0137105D01*
X0047183Y0136596D01*
X0046602Y0136300D01*
X0047183Y0136004D01*
X0047883Y0135495D01*
X0048495Y0134883D01*
X0049004Y0134183D01*
X0049397Y0133411D01*
X0049665Y0132588D01*
X0049800Y0131733D01*
X0049800Y0131500D01*
X0044500Y0131500D01*
X0044500Y0131100D01*
X0049800Y0131100D01*
X0049800Y0130867D01*
X0049665Y0130012D01*
X0049397Y0129189D01*
X0049004Y0128417D01*
X0048495Y0127717D01*
X0047883Y0127105D01*
X0047183Y0126596D01*
X0046411Y0126203D01*
X0045588Y0125935D01*
X0044733Y0125800D01*
X0044500Y0125800D01*
X0044500Y0131100D01*
X0044100Y0131100D01*
X0044100Y0125800D01*
X0043867Y0125800D01*
X0043012Y0125935D01*
X0042189Y0126203D01*
X0041417Y0126596D01*
X0040717Y0127105D01*
X0040105Y0127717D01*
X0039943Y0127939D01*
X0039810Y0127618D01*
X0037982Y0125790D01*
X0035593Y0124800D01*
X0033007Y0124800D01*
X0030618Y0125790D01*
X0029900Y0126508D01*
X0029900Y0121791D01*
X0030791Y0120900D01*
X0093669Y0120900D01*
X0092687Y0121882D01*
X0091500Y0124748D01*
X0091500Y0127852D01*
X0092687Y0130718D01*
X0094882Y0132913D01*
X0097748Y0134100D01*
X0235852Y0134100D01*
X0238718Y0132913D01*
X0240913Y0130718D01*
X0241251Y0129900D01*
X0267999Y0129900D01*
X0267717Y0130105D01*
X0267105Y0130717D01*
X0266596Y0131417D01*
X0266203Y0132189D01*
X0265935Y0133012D01*
X0265800Y0133867D01*
X0265800Y0134100D01*
X0271100Y0134100D01*
X0271100Y0134500D01*
X0265800Y0134500D01*
X0265800Y0134733D01*
X0265935Y0135588D01*
X0266203Y0136411D01*
X0266596Y0137183D01*
X0267105Y0137883D01*
X0267717Y0138495D01*
X0267999Y0138700D01*
X0265048Y0138700D01*
X0264843Y0138494D01*
X0263193Y0137811D01*
X0261407Y0137811D01*
X0259757Y0138494D01*
X0258494Y0139757D01*
X0257811Y0141407D01*
X0257811Y0143193D01*
X0258494Y0144843D01*
X0259757Y0146106D01*
X0261407Y0146789D01*
X0263193Y0146789D01*
X0264843Y0146106D01*
X0265048Y0145900D01*
X0294016Y0145900D01*
X0295028Y0145481D01*
X0292809Y0147700D01*
X0284048Y0147700D01*
X0283843Y0147494D01*
X0282193Y0146811D01*
X0280407Y0146811D01*
X0278757Y0147494D01*
X0277494Y0148757D01*
X0276811Y0150407D01*
X0276811Y0152193D01*
X0277494Y0153843D01*
X0278757Y0155106D01*
X0280407Y0155789D01*
X0282193Y0155789D01*
X0283843Y0155106D01*
X0284048Y0154900D01*
X0295016Y0154900D01*
X0296339Y0154352D01*
X0309925Y0140766D01*
X0310007Y0140800D01*
X0312593Y0140800D01*
X0314982Y0139810D01*
X0316300Y0138492D01*
X0317618Y0139810D01*
X0320007Y0140800D01*
X0322593Y0140800D01*
X0324982Y0139810D01*
X0326810Y0137982D01*
X0327800Y0135593D01*
X0327800Y0133007D01*
X0326810Y0130618D01*
X0326092Y0129900D01*
X0342809Y0129900D01*
X0350700Y0137791D01*
X0350700Y0147016D01*
X0351248Y0148339D01*
X0358261Y0155352D01*
X0359584Y0155900D01*
X0367552Y0155900D01*
X0367757Y0156106D01*
X0369407Y0156789D01*
X0371193Y0156789D01*
X0372843Y0156106D01*
X0374106Y0154843D01*
X0374789Y0153193D01*
X0374789Y0151407D01*
X0374106Y0149757D01*
X0372843Y0148494D01*
X0371193Y0147811D01*
X0369407Y0147811D01*
X0367757Y0148494D01*
X0367552Y0148700D01*
X0361791Y0148700D01*
X0357900Y0144809D01*
X0357900Y0135584D01*
X0357352Y0134261D01*
X0356339Y0133248D01*
X0356339Y0133248D01*
X0348991Y0125900D01*
X0372809Y0125900D01*
X0376700Y0129791D01*
X0376700Y0216809D01*
X0373809Y0219700D01*
X0364700Y0219700D01*
X0364700Y0219626D01*
X0363878Y0217641D01*
X0362359Y0216122D01*
X0360374Y0215300D01*
X0358226Y0215300D01*
X0356241Y0216122D01*
X0354722Y0217641D01*
X0354300Y0218660D01*
X0353878Y0217641D01*
X0352359Y0216122D01*
X0350374Y0215300D01*
X0348226Y0215300D01*
X0346241Y0216122D01*
X0344722Y0217641D01*
X0344300Y0218660D01*
X0343878Y0217641D01*
X0342359Y0216122D01*
X0340374Y0215300D01*
X0338226Y0215300D01*
X0336241Y0216122D01*
X0334722Y0217641D01*
X0334300Y0218660D01*
X0333878Y0217641D01*
X0332359Y0216122D01*
X0330374Y0215300D01*
X0328226Y0215300D01*
X0326241Y0216122D01*
X0324722Y0217641D01*
X0324300Y0218660D01*
X0323878Y0217641D01*
X0322359Y0216122D01*
X0320374Y0215300D01*
X0318226Y0215300D01*
X0316241Y0216122D01*
X0314722Y0217641D01*
X0314300Y0218660D01*
X0313878Y0217641D01*
X0312359Y0216122D01*
X0310374Y0215300D01*
X0308226Y0215300D01*
X0306241Y0216122D01*
X0304722Y0217641D01*
X0304300Y0218660D01*
X0303878Y0217641D01*
X0302359Y0216122D01*
X0300374Y0215300D01*
X0298226Y0215300D01*
X0296241Y0216122D01*
X0294722Y0217641D01*
X0293900Y0219626D01*
X0293900Y0225677D01*
X0284700Y0216477D01*
X0284700Y0212123D01*
X0290030Y0206792D01*
X0290700Y0205175D01*
X0290700Y0164408D01*
X0290789Y0164193D01*
X0290789Y0162407D01*
X0290106Y0160757D01*
X0288843Y0159494D01*
X0287193Y0158811D01*
X0285407Y0158811D01*
X0283757Y0159494D01*
X0282494Y0160757D01*
X0281811Y0162407D01*
X0281811Y0164193D01*
X0281900Y0164408D01*
X0281900Y0179900D01*
X0236923Y0179900D01*
X0238700Y0178123D01*
X0238700Y0176300D01*
X0234300Y0176300D01*
X0234300Y0176300D01*
X0238700Y0176300D01*
X0238700Y0174477D01*
X0236123Y0171900D01*
X0234300Y0171900D01*
X0234300Y0176300D01*
X0234300Y0176300D01*
X0234300Y0176300D01*
X0229900Y0176300D01*
X0229900Y0178123D01*
X0231677Y0179900D01*
X0221923Y0179900D01*
X0223700Y0178123D01*
X0223700Y0176300D01*
X0219300Y0176300D01*
X0219300Y0176300D01*
X0223700Y0176300D01*
X0223700Y0174477D01*
X0221123Y0171900D01*
X0219300Y0171900D01*
X0219300Y0176300D01*
X0219300Y0176300D01*
X0219300Y0176300D01*
X0214900Y0176300D01*
X0214900Y0178123D01*
X0216677Y0179900D01*
X0206923Y0179900D01*
X0208700Y0178123D01*
X0208700Y0176300D01*
X0204300Y0176300D01*
X0204300Y0176300D01*
X0208700Y0176300D01*
X0208700Y0174477D01*
X0206123Y0171900D01*
X0204300Y0171900D01*
X0204300Y0176300D01*
X0204300Y0176300D01*
X0204300Y0176300D01*
X0199900Y0176300D01*
X0199900Y0178123D01*
X0201677Y0179900D01*
X0200408Y0179900D01*
X0200193Y0179811D01*
X0198407Y0179811D01*
X0196757Y0180494D01*
X0195494Y0181757D01*
X0194811Y0183407D01*
X0194811Y0185193D01*
X0195435Y0186700D01*
X0195057Y0185787D02*
X0085904Y0185787D01*
X0084306Y0187385D02*
X0104123Y0187385D01*
X0102525Y0188984D02*
X0082707Y0188984D01*
X0081109Y0190582D02*
X0100926Y0190582D01*
X0099867Y0192181D02*
X0079510Y0192181D01*
X0077912Y0193779D02*
X0099700Y0193779D01*
X0099700Y0195378D02*
X0076313Y0195378D01*
X0074715Y0196976D02*
X0099700Y0196976D01*
X0099700Y0198575D02*
X0079923Y0198575D01*
X0081278Y0200173D02*
X0099700Y0200173D01*
X0099700Y0201772D02*
X0081789Y0201772D01*
X0081715Y0203370D02*
X0099700Y0203370D01*
X0099700Y0204969D02*
X0081193Y0204969D01*
X0081789Y0206568D02*
X0099700Y0206568D01*
X0099700Y0208166D02*
X0081789Y0208166D01*
X0081138Y0209765D02*
X0099700Y0209765D01*
X0099700Y0211363D02*
X0079221Y0211363D01*
X0075379Y0211363D02*
X0053177Y0211363D01*
X0053700Y0212962D02*
X0099700Y0212962D01*
X0099700Y0214560D02*
X0053700Y0214560D01*
X0053700Y0216159D02*
X0099700Y0216159D01*
X0099700Y0217757D02*
X0053700Y0217757D01*
X0053700Y0219356D02*
X0099700Y0219356D01*
X0099700Y0220954D02*
X0053294Y0220954D01*
X0052284Y0222553D02*
X0099700Y0222553D01*
X0099700Y0224151D02*
X0049734Y0224151D01*
X0046866Y0224151D02*
X0039734Y0224151D01*
X0036866Y0224151D02*
X0024700Y0224151D01*
X0024700Y0222553D02*
X0025842Y0222553D01*
X0028300Y0222553D02*
X0028300Y0222553D01*
X0028300Y0220954D02*
X0028300Y0220954D01*
X0028300Y0219356D02*
X0028300Y0219356D01*
X0028300Y0217757D02*
X0028300Y0217757D01*
X0028300Y0216159D02*
X0028300Y0216159D01*
X0028300Y0214560D02*
X0028300Y0214560D01*
X0028300Y0212962D02*
X0028300Y0212962D01*
X0028300Y0211363D02*
X0028300Y0211363D01*
X0028300Y0209765D02*
X0028300Y0209765D01*
X0030268Y0209765D02*
X0034599Y0209765D01*
X0033423Y0211363D02*
X0032041Y0211363D01*
X0032638Y0212962D02*
X0032900Y0212962D01*
X0032900Y0214560D02*
X0032700Y0214560D01*
X0032700Y0216159D02*
X0032900Y0216159D01*
X0032900Y0217757D02*
X0032700Y0217757D01*
X0032683Y0219356D02*
X0032900Y0219356D01*
X0033306Y0220954D02*
X0032192Y0220954D01*
X0030758Y0222553D02*
X0034316Y0222553D01*
X0038300Y0216300D02*
X0038300Y0212300D01*
X0043300Y0207300D01*
X0077300Y0207300D01*
X0077300Y0202300D02*
X0027300Y0202300D01*
X0025872Y0206568D02*
X0024700Y0206568D01*
X0024700Y0208166D02*
X0037343Y0208166D01*
X0038941Y0206568D02*
X0028728Y0206568D01*
X0026332Y0209765D02*
X0024700Y0209765D01*
X0029923Y0198575D02*
X0046931Y0198575D01*
X0044669Y0196976D02*
X0024700Y0196976D01*
X0024700Y0195378D02*
X0043929Y0195378D01*
X0043852Y0193779D02*
X0024700Y0193779D01*
X0024700Y0192181D02*
X0044360Y0192181D01*
X0045710Y0190582D02*
X0024700Y0190582D01*
X0024700Y0188984D02*
X0072525Y0188984D01*
X0070926Y0190582D02*
X0050972Y0190582D01*
X0048341Y0194300D02*
X0072300Y0194300D01*
X0098300Y0168300D01*
X0234548Y0168300D01*
X0236300Y0168300D01*
X0246300Y0168300D01*
X0250457Y0166605D02*
X0281900Y0166605D01*
X0281900Y0168203D02*
X0250789Y0168203D01*
X0250537Y0169802D02*
X0281900Y0169802D01*
X0281900Y0171400D02*
X0249548Y0171400D01*
X0249355Y0165006D02*
X0281900Y0165006D01*
X0281811Y0163408D02*
X0079386Y0163408D01*
X0079642Y0163302D02*
X0078645Y0163715D01*
X0081200Y0166270D01*
X0081200Y0168300D01*
X0081200Y0170330D01*
X0078330Y0173200D01*
X0076300Y0173200D01*
X0076300Y0168300D01*
X0076300Y0168300D01*
X0081200Y0168300D01*
X0076300Y0168300D01*
X0076300Y0168300D01*
X0076300Y0168300D01*
X0071400Y0168300D01*
X0071400Y0170330D01*
X0074270Y0173200D01*
X0076300Y0173200D01*
X0076300Y0168300D01*
X0071400Y0168300D01*
X0071400Y0166270D01*
X0073955Y0163715D01*
X0072958Y0163302D01*
X0071298Y0161642D01*
X0070400Y0159474D01*
X0070400Y0157126D01*
X0071298Y0154958D01*
X0072958Y0153298D01*
X0075126Y0152400D01*
X0077474Y0152400D01*
X0079642Y0153298D01*
X0081302Y0154958D01*
X0082200Y0157126D01*
X0082200Y0159474D01*
X0081302Y0161642D01*
X0079642Y0163302D01*
X0079936Y0165006D02*
X0096845Y0165006D01*
X0094904Y0166605D02*
X0081200Y0166605D01*
X0081200Y0168203D02*
X0093306Y0168203D01*
X0091707Y0169802D02*
X0081200Y0169802D01*
X0080129Y0171400D02*
X0090109Y0171400D01*
X0088510Y0172999D02*
X0078531Y0172999D01*
X0076300Y0172999D02*
X0076300Y0172999D01*
X0076300Y0171400D02*
X0076300Y0171400D01*
X0076300Y0169802D02*
X0076300Y0169802D01*
X0074069Y0172999D02*
X0050632Y0172999D01*
X0050800Y0171400D02*
X0072471Y0171400D01*
X0071400Y0169802D02*
X0050715Y0169802D01*
X0050053Y0168203D02*
X0071400Y0168203D01*
X0071400Y0166605D02*
X0048797Y0166605D01*
X0048372Y0165006D02*
X0072664Y0165006D01*
X0073214Y0163408D02*
X0049398Y0163408D01*
X0049788Y0161809D02*
X0071465Y0161809D01*
X0070705Y0160211D02*
X0049696Y0160211D01*
X0049103Y0158612D02*
X0070400Y0158612D01*
X0070447Y0157014D02*
X0047757Y0157014D01*
X0047963Y0155415D02*
X0071109Y0155415D01*
X0072439Y0153817D02*
X0049191Y0153817D01*
X0049723Y0152218D02*
X0276821Y0152218D01*
X0276811Y0150620D02*
X0049761Y0150620D01*
X0049312Y0149021D02*
X0277385Y0149021D01*
X0278931Y0147423D02*
X0048201Y0147423D01*
X0047430Y0145824D02*
X0069164Y0145824D01*
X0067954Y0145323D02*
X0065616Y0142985D01*
X0064350Y0139930D01*
X0064350Y0136623D01*
X0065616Y0133568D01*
X0067954Y0131230D01*
X0071009Y0129965D01*
X0074316Y0129965D01*
X0077370Y0131230D01*
X0079709Y0133568D01*
X0080974Y0136623D01*
X0080974Y0139930D01*
X0079709Y0142985D01*
X0077370Y0145323D01*
X0074316Y0146588D01*
X0071009Y0146588D01*
X0067954Y0145323D01*
X0066857Y0144226D02*
X0048973Y0144226D01*
X0049652Y0142627D02*
X0065468Y0142627D01*
X0064806Y0141029D02*
X0049800Y0141029D01*
X0049475Y0139430D02*
X0064350Y0139430D01*
X0064350Y0137832D02*
X0048578Y0137832D01*
X0046733Y0136233D02*
X0064512Y0136233D01*
X0065174Y0134634D02*
X0048676Y0134634D01*
X0049519Y0133036D02*
X0066148Y0133036D01*
X0067746Y0131437D02*
X0044500Y0131437D01*
X0044500Y0131500D02*
X0044100Y0131500D01*
X0044100Y0136800D01*
X0044100Y0141100D01*
X0044500Y0141100D01*
X0044500Y0131500D01*
X0044500Y0133036D02*
X0044100Y0133036D01*
X0044100Y0134634D02*
X0044500Y0134634D01*
X0044500Y0136233D02*
X0044100Y0136233D01*
X0044100Y0137832D02*
X0044500Y0137832D01*
X0044500Y0139430D02*
X0044100Y0139430D01*
X0044100Y0141029D02*
X0044500Y0141029D01*
X0044500Y0141500D02*
X0044100Y0141500D01*
X0044100Y0146800D01*
X0044100Y0151100D01*
X0044500Y0151100D01*
X0044500Y0141500D01*
X0044500Y0142627D02*
X0044100Y0142627D01*
X0044100Y0144226D02*
X0044500Y0144226D01*
X0044500Y0145824D02*
X0044100Y0145824D01*
X0044100Y0147423D02*
X0044500Y0147423D01*
X0044500Y0149021D02*
X0044100Y0149021D01*
X0044100Y0150620D02*
X0044500Y0150620D01*
X0044500Y0151500D02*
X0044100Y0151500D01*
X0044100Y0156800D01*
X0044100Y0161100D01*
X0044500Y0161100D01*
X0044500Y0151500D01*
X0044500Y0152218D02*
X0044100Y0152218D01*
X0044100Y0153817D02*
X0044500Y0153817D01*
X0044500Y0155415D02*
X0044100Y0155415D01*
X0044100Y0157014D02*
X0044500Y0157014D01*
X0044500Y0158612D02*
X0044100Y0158612D01*
X0044100Y0160211D02*
X0044500Y0160211D01*
X0034300Y0151300D02*
X0030300Y0151300D01*
X0026300Y0147300D01*
X0026300Y0120300D01*
X0029300Y0117300D01*
X0334300Y0117300D01*
X0338394Y0115452D02*
X0385200Y0115452D01*
X0385200Y0113854D02*
X0337202Y0113854D01*
X0338789Y0117051D02*
X0385200Y0117051D01*
X0385200Y0118649D02*
X0338600Y0118649D01*
X0344300Y0126300D02*
X0234300Y0126300D01*
X0240193Y0131437D02*
X0266586Y0131437D01*
X0265932Y0133036D02*
X0238420Y0133036D01*
X0246300Y0122300D02*
X0374300Y0122300D01*
X0380300Y0128300D01*
X0380300Y0218300D01*
X0375300Y0223300D01*
X0359300Y0223300D01*
X0364588Y0219356D02*
X0374153Y0219356D01*
X0375752Y0217757D02*
X0363926Y0217757D01*
X0362395Y0216159D02*
X0376700Y0216159D01*
X0376700Y0214560D02*
X0284700Y0214560D01*
X0284700Y0212962D02*
X0376700Y0212962D01*
X0376700Y0211363D02*
X0285459Y0211363D01*
X0287058Y0209765D02*
X0376700Y0209765D01*
X0376700Y0208166D02*
X0288657Y0208166D01*
X0290123Y0206568D02*
X0376700Y0206568D01*
X0376700Y0204969D02*
X0290700Y0204969D01*
X0290700Y0203370D02*
X0376700Y0203370D01*
X0376700Y0201772D02*
X0290700Y0201772D01*
X0290700Y0200173D02*
X0295937Y0200173D01*
X0296241Y0200478D02*
X0294722Y0198959D01*
X0293900Y0196974D01*
X0293900Y0189626D01*
X0294722Y0187641D01*
X0296241Y0186122D01*
X0298226Y0185300D01*
X0300374Y0185300D01*
X0302359Y0186122D01*
X0303878Y0187641D01*
X0304300Y0188660D01*
X0304722Y0187641D01*
X0306241Y0186122D01*
X0308226Y0185300D01*
X0310374Y0185300D01*
X0312359Y0186122D01*
X0313878Y0187641D01*
X0314300Y0188660D01*
X0314722Y0187641D01*
X0316241Y0186122D01*
X0318226Y0185300D01*
X0320374Y0185300D01*
X0322359Y0186122D01*
X0323878Y0187641D01*
X0324700Y0189626D01*
X0324700Y0196974D01*
X0323878Y0198959D01*
X0322359Y0200478D01*
X0320374Y0201300D01*
X0318226Y0201300D01*
X0316241Y0200478D01*
X0314722Y0198959D01*
X0314300Y0197940D01*
X0313878Y0198959D01*
X0312359Y0200478D01*
X0310374Y0201300D01*
X0308226Y0201300D01*
X0306241Y0200478D01*
X0304722Y0198959D01*
X0304300Y0197940D01*
X0303878Y0198959D01*
X0302359Y0200478D01*
X0300374Y0201300D01*
X0298226Y0201300D01*
X0296241Y0200478D01*
X0294563Y0198575D02*
X0290700Y0198575D01*
X0290700Y0196976D02*
X0293901Y0196976D01*
X0293900Y0195378D02*
X0290700Y0195378D01*
X0290700Y0193779D02*
X0293900Y0193779D01*
X0293900Y0192181D02*
X0290700Y0192181D01*
X0290700Y0190582D02*
X0293900Y0190582D01*
X0294166Y0188984D02*
X0290700Y0188984D01*
X0290700Y0187385D02*
X0294978Y0187385D01*
X0297050Y0185787D02*
X0290700Y0185787D01*
X0290700Y0184188D02*
X0376700Y0184188D01*
X0376700Y0182590D02*
X0290700Y0182590D01*
X0290700Y0180991D02*
X0376700Y0180991D01*
X0376700Y0179393D02*
X0290700Y0179393D01*
X0290700Y0177794D02*
X0376700Y0177794D01*
X0376700Y0176196D02*
X0290700Y0176196D01*
X0290700Y0174597D02*
X0376700Y0174597D01*
X0376700Y0172999D02*
X0290700Y0172999D01*
X0290700Y0171400D02*
X0376700Y0171400D01*
X0376700Y0169802D02*
X0290700Y0169802D01*
X0290700Y0168203D02*
X0376700Y0168203D01*
X0376700Y0166605D02*
X0290700Y0166605D01*
X0290700Y0165006D02*
X0376700Y0165006D01*
X0376700Y0163408D02*
X0290789Y0163408D01*
X0290541Y0161809D02*
X0376700Y0161809D01*
X0376700Y0160211D02*
X0289559Y0160211D01*
X0283041Y0160211D02*
X0081895Y0160211D01*
X0082200Y0158612D02*
X0376700Y0158612D01*
X0376700Y0157014D02*
X0082153Y0157014D01*
X0081491Y0155415D02*
X0279505Y0155415D01*
X0277484Y0153817D02*
X0080160Y0153817D01*
X0081135Y0161809D02*
X0282059Y0161809D01*
X0283095Y0155415D02*
X0358413Y0155415D01*
X0356725Y0153817D02*
X0296875Y0153817D01*
X0298473Y0152218D02*
X0355127Y0152218D01*
X0353528Y0150620D02*
X0300072Y0150620D01*
X0301670Y0149021D02*
X0351930Y0149021D01*
X0350868Y0147423D02*
X0303269Y0147423D01*
X0304867Y0145824D02*
X0350700Y0145824D01*
X0350700Y0144226D02*
X0306466Y0144226D01*
X0308064Y0142627D02*
X0350700Y0142627D01*
X0350700Y0141029D02*
X0309663Y0141029D01*
X0315362Y0139430D02*
X0317238Y0139430D01*
X0311300Y0134300D02*
X0294300Y0151300D01*
X0281300Y0151300D01*
X0283669Y0147423D02*
X0293086Y0147423D01*
X0294199Y0145824D02*
X0294685Y0145824D01*
X0293300Y0142300D02*
X0301300Y0134300D01*
X0293300Y0142300D02*
X0262300Y0142300D01*
X0258239Y0144226D02*
X0078468Y0144226D01*
X0079857Y0142627D02*
X0257811Y0142627D01*
X0257968Y0141029D02*
X0080519Y0141029D01*
X0080974Y0139430D02*
X0258822Y0139430D01*
X0261358Y0137832D02*
X0080974Y0137832D01*
X0080812Y0136233D02*
X0266145Y0136233D01*
X0265800Y0134634D02*
X0080150Y0134634D01*
X0079176Y0133036D02*
X0095180Y0133036D01*
X0093407Y0131437D02*
X0077578Y0131437D01*
X0091661Y0128240D02*
X0048875Y0128240D01*
X0049608Y0129839D02*
X0092323Y0129839D01*
X0091500Y0126642D02*
X0047246Y0126642D01*
X0044500Y0126642D02*
X0044100Y0126642D01*
X0044100Y0128240D02*
X0044500Y0128240D01*
X0044500Y0129839D02*
X0044100Y0129839D01*
X0041354Y0126642D02*
X0038834Y0126642D01*
X0036181Y0125043D02*
X0091500Y0125043D01*
X0092040Y0123445D02*
X0029900Y0123445D01*
X0029900Y0125043D02*
X0032419Y0125043D01*
X0029900Y0121846D02*
X0092723Y0121846D01*
X0076160Y0145824D02*
X0259476Y0145824D01*
X0263242Y0137832D02*
X0267067Y0137832D01*
X0281900Y0172999D02*
X0237221Y0172999D01*
X0238700Y0174597D02*
X0281900Y0174597D01*
X0281900Y0176196D02*
X0238700Y0176196D01*
X0238700Y0177794D02*
X0281900Y0177794D01*
X0281900Y0179393D02*
X0237430Y0179393D01*
X0234300Y0176300D02*
X0229900Y0176300D01*
X0229900Y0174477D01*
X0232477Y0171900D01*
X0234300Y0171900D01*
X0234300Y0176300D01*
X0234300Y0176196D02*
X0234300Y0176196D01*
X0234300Y0174597D02*
X0234300Y0174597D01*
X0234300Y0172999D02*
X0234300Y0172999D01*
X0231379Y0172999D02*
X0222221Y0172999D01*
X0223700Y0174597D02*
X0229900Y0174597D01*
X0229900Y0176196D02*
X0223700Y0176196D01*
X0223700Y0177794D02*
X0229900Y0177794D01*
X0231170Y0179393D02*
X0222430Y0179393D01*
X0219300Y0176300D02*
X0219300Y0171900D01*
X0217477Y0171900D01*
X0214900Y0174477D01*
X0214900Y0176300D01*
X0219300Y0176300D01*
X0219300Y0176196D02*
X0219300Y0176196D01*
X0219300Y0174597D02*
X0219300Y0174597D01*
X0219300Y0172999D02*
X0219300Y0172999D01*
X0216379Y0172999D02*
X0207221Y0172999D01*
X0208700Y0174597D02*
X0214900Y0174597D01*
X0214900Y0176196D02*
X0208700Y0176196D01*
X0208700Y0177794D02*
X0214900Y0177794D01*
X0216170Y0179393D02*
X0207430Y0179393D01*
X0204300Y0176300D02*
X0204300Y0171900D01*
X0202477Y0171900D01*
X0199900Y0174477D01*
X0199900Y0176300D01*
X0204300Y0176300D01*
X0204300Y0176196D02*
X0204300Y0176196D01*
X0204300Y0174597D02*
X0204300Y0174597D01*
X0204300Y0172999D02*
X0204300Y0172999D01*
X0201379Y0172999D02*
X0192221Y0172999D01*
X0191123Y0171900D02*
X0193700Y0174477D01*
X0193700Y0176300D01*
X0193700Y0178123D01*
X0191123Y0180700D01*
X0189300Y0180700D01*
X0189300Y0176300D01*
X0189300Y0176300D01*
X0193700Y0176300D01*
X0189300Y0176300D01*
X0189300Y0176300D01*
X0189300Y0176300D01*
X0184900Y0176300D01*
X0184900Y0178123D01*
X0187477Y0180700D01*
X0189300Y0180700D01*
X0189300Y0176300D01*
X0189300Y0171900D01*
X0191123Y0171900D01*
X0189300Y0171900D02*
X0189300Y0176300D01*
X0189300Y0176300D01*
X0184900Y0176300D01*
X0184900Y0174477D01*
X0187477Y0171900D01*
X0189300Y0171900D01*
X0189300Y0172999D02*
X0189300Y0172999D01*
X0189300Y0174597D02*
X0189300Y0174597D01*
X0189300Y0176196D02*
X0189300Y0176196D01*
X0189300Y0177794D02*
X0189300Y0177794D01*
X0189300Y0179393D02*
X0189300Y0179393D01*
X0192430Y0179393D02*
X0201170Y0179393D01*
X0199900Y0177794D02*
X0193700Y0177794D01*
X0193700Y0176196D02*
X0199900Y0176196D01*
X0199900Y0174597D02*
X0193700Y0174597D01*
X0196260Y0180991D02*
X0090700Y0180991D01*
X0092298Y0179393D02*
X0096170Y0179393D01*
X0094900Y0177794D02*
X0093897Y0177794D01*
X0099300Y0177794D02*
X0099300Y0177794D01*
X0099300Y0179393D02*
X0099300Y0179393D01*
X0102430Y0179393D02*
X0111170Y0179393D01*
X0109900Y0178123D02*
X0109900Y0176300D01*
X0114300Y0176300D01*
X0114300Y0176300D01*
X0114300Y0180700D01*
X0116123Y0180700D01*
X0118700Y0178123D01*
X0118700Y0176300D01*
X0114300Y0176300D01*
X0114300Y0176300D01*
X0114300Y0176300D01*
X0114300Y0180700D01*
X0112477Y0180700D01*
X0109900Y0178123D01*
X0109900Y0177794D02*
X0103700Y0177794D01*
X0103700Y0176196D02*
X0109900Y0176196D01*
X0109900Y0176300D02*
X0109900Y0174477D01*
X0112477Y0171900D01*
X0114300Y0171900D01*
X0116123Y0171900D01*
X0118700Y0174477D01*
X0118700Y0176300D01*
X0114300Y0176300D01*
X0114300Y0171900D01*
X0114300Y0176300D01*
X0114300Y0176300D01*
X0109900Y0176300D01*
X0109900Y0174597D02*
X0103700Y0174597D01*
X0102221Y0172999D02*
X0111379Y0172999D01*
X0114300Y0172999D02*
X0114300Y0172999D01*
X0114300Y0174597D02*
X0114300Y0174597D01*
X0114300Y0176196D02*
X0114300Y0176196D01*
X0114300Y0177794D02*
X0114300Y0177794D01*
X0114300Y0179393D02*
X0114300Y0179393D01*
X0117430Y0179393D02*
X0126170Y0179393D01*
X0124900Y0178123D02*
X0124900Y0176300D01*
X0129300Y0176300D01*
X0129300Y0176300D01*
X0129300Y0180700D01*
X0131123Y0180700D01*
X0133700Y0178123D01*
X0133700Y0176300D01*
X0129300Y0176300D01*
X0129300Y0176300D01*
X0129300Y0176300D01*
X0129300Y0180700D01*
X0127477Y0180700D01*
X0124900Y0178123D01*
X0124900Y0177794D02*
X0118700Y0177794D01*
X0118700Y0176196D02*
X0124900Y0176196D01*
X0124900Y0176300D02*
X0124900Y0174477D01*
X0127477Y0171900D01*
X0129300Y0171900D01*
X0131123Y0171900D01*
X0133700Y0174477D01*
X0133700Y0176300D01*
X0129300Y0176300D01*
X0129300Y0171900D01*
X0129300Y0176300D01*
X0129300Y0176300D01*
X0124900Y0176300D01*
X0124900Y0174597D02*
X0118700Y0174597D01*
X0117221Y0172999D02*
X0126379Y0172999D01*
X0129300Y0172999D02*
X0129300Y0172999D01*
X0129300Y0174597D02*
X0129300Y0174597D01*
X0129300Y0176196D02*
X0129300Y0176196D01*
X0129300Y0177794D02*
X0129300Y0177794D01*
X0129300Y0179393D02*
X0129300Y0179393D01*
X0132430Y0179393D02*
X0141170Y0179393D01*
X0139900Y0178123D02*
X0142477Y0180700D01*
X0144300Y0180700D01*
X0144300Y0176300D01*
X0144300Y0176300D01*
X0148700Y0176300D01*
X0148700Y0178123D01*
X0146123Y0180700D01*
X0144300Y0180700D01*
X0144300Y0176300D01*
X0144300Y0176300D01*
X0144300Y0176300D01*
X0139900Y0176300D01*
X0139900Y0178123D01*
X0139900Y0177794D02*
X0133700Y0177794D01*
X0133700Y0176196D02*
X0139900Y0176196D01*
X0139900Y0176300D02*
X0139900Y0174477D01*
X0142477Y0171900D01*
X0144300Y0171900D01*
X0146123Y0171900D01*
X0148700Y0174477D01*
X0148700Y0176300D01*
X0144300Y0176300D01*
X0144300Y0171900D01*
X0144300Y0176300D01*
X0144300Y0176300D01*
X0139900Y0176300D01*
X0139900Y0174597D02*
X0133700Y0174597D01*
X0132221Y0172999D02*
X0141379Y0172999D01*
X0144300Y0172999D02*
X0144300Y0172999D01*
X0144300Y0174597D02*
X0144300Y0174597D01*
X0144300Y0176196D02*
X0144300Y0176196D01*
X0144300Y0177794D02*
X0144300Y0177794D01*
X0144300Y0179393D02*
X0144300Y0179393D01*
X0147430Y0179393D02*
X0156170Y0179393D01*
X0154900Y0178123D02*
X0157477Y0180700D01*
X0159300Y0180700D01*
X0159300Y0176300D01*
X0159300Y0176300D01*
X0163700Y0176300D01*
X0163700Y0178123D01*
X0161123Y0180700D01*
X0159300Y0180700D01*
X0159300Y0176300D01*
X0159300Y0176300D01*
X0159300Y0176300D01*
X0154900Y0176300D01*
X0154900Y0178123D01*
X0154900Y0177794D02*
X0148700Y0177794D01*
X0148700Y0176196D02*
X0154900Y0176196D01*
X0154900Y0176300D02*
X0154900Y0174477D01*
X0157477Y0171900D01*
X0159300Y0171900D01*
X0161123Y0171900D01*
X0163700Y0174477D01*
X0163700Y0176300D01*
X0159300Y0176300D01*
X0159300Y0171900D01*
X0159300Y0176300D01*
X0159300Y0176300D01*
X0154900Y0176300D01*
X0154900Y0174597D02*
X0148700Y0174597D01*
X0147221Y0172999D02*
X0156379Y0172999D01*
X0159300Y0172999D02*
X0159300Y0172999D01*
X0159300Y0174597D02*
X0159300Y0174597D01*
X0159300Y0176196D02*
X0159300Y0176196D01*
X0159300Y0177794D02*
X0159300Y0177794D01*
X0159300Y0179393D02*
X0159300Y0179393D01*
X0162430Y0179393D02*
X0171170Y0179393D01*
X0169900Y0178123D02*
X0169900Y0176300D01*
X0174300Y0176300D01*
X0174300Y0176300D01*
X0174300Y0180700D01*
X0176123Y0180700D01*
X0178700Y0178123D01*
X0178700Y0176300D01*
X0174300Y0176300D01*
X0174300Y0176300D01*
X0174300Y0176300D01*
X0174300Y0180700D01*
X0172477Y0180700D01*
X0169900Y0178123D01*
X0169900Y0177794D02*
X0163700Y0177794D01*
X0163700Y0176196D02*
X0169900Y0176196D01*
X0169900Y0176300D02*
X0169900Y0174477D01*
X0172477Y0171900D01*
X0174300Y0171900D01*
X0176123Y0171900D01*
X0178700Y0174477D01*
X0178700Y0176300D01*
X0174300Y0176300D01*
X0174300Y0171900D01*
X0174300Y0176300D01*
X0174300Y0176300D01*
X0169900Y0176300D01*
X0169900Y0174597D02*
X0163700Y0174597D01*
X0162221Y0172999D02*
X0171379Y0172999D01*
X0174300Y0172999D02*
X0174300Y0172999D01*
X0174300Y0174597D02*
X0174300Y0174597D01*
X0174300Y0176196D02*
X0174300Y0176196D01*
X0174300Y0177794D02*
X0174300Y0177794D01*
X0174300Y0179393D02*
X0174300Y0179393D01*
X0177430Y0179393D02*
X0186170Y0179393D01*
X0184900Y0177794D02*
X0178700Y0177794D01*
X0178700Y0176196D02*
X0184900Y0176196D01*
X0184900Y0174597D02*
X0178700Y0174597D01*
X0177221Y0172999D02*
X0186379Y0172999D01*
X0195150Y0182590D02*
X0089101Y0182590D01*
X0087503Y0184188D02*
X0194811Y0184188D01*
X0164300Y0196300D02*
X0164300Y0202300D01*
X0109300Y0202300D01*
X0107872Y0206568D02*
X0106900Y0206568D01*
X0106900Y0206165D02*
X0106900Y0230016D01*
X0106352Y0231339D01*
X0102352Y0235339D01*
X0101339Y0236352D01*
X0100016Y0236900D01*
X0070791Y0236900D01*
X0049386Y0258305D01*
X0051359Y0259122D01*
X0052878Y0260641D01*
X0053700Y0262626D01*
X0053700Y0265477D01*
X0056100Y0267878D01*
X0057338Y0269115D01*
X0058008Y0270733D01*
X0058008Y0282563D01*
X0067915Y0282563D01*
X0070781Y0283750D01*
X0084718Y0297687D01*
X0089688Y0302657D01*
X0148900Y0302657D01*
X0148900Y0299425D01*
X0149570Y0297808D01*
X0150808Y0296570D01*
X0156277Y0291100D01*
X0155146Y0291100D01*
X0154140Y0290683D01*
X0143792Y0301030D01*
X0142175Y0301700D01*
X0119425Y0301700D01*
X0117808Y0301030D01*
X0116570Y0299792D01*
X0111570Y0294792D01*
X0110900Y0293175D01*
X0110900Y0291137D01*
X0110722Y0290959D01*
X0109900Y0288974D01*
X0109900Y0281626D01*
X0110722Y0279641D01*
X0112241Y0278122D01*
X0114226Y0277300D01*
X0116374Y0277300D01*
X0118359Y0278122D01*
X0119878Y0279641D01*
X0120300Y0280660D01*
X0120722Y0279641D01*
X0122241Y0278122D01*
X0124226Y0277300D01*
X0126374Y0277300D01*
X0128359Y0278122D01*
X0129878Y0279641D01*
X0130700Y0281626D01*
X0130700Y0288974D01*
X0129878Y0290959D01*
X0128359Y0292478D01*
X0127340Y0292900D01*
X0139477Y0292900D01*
X0150500Y0281877D01*
X0150500Y0278146D01*
X0151383Y0276015D01*
X0153015Y0274383D01*
X0155146Y0273500D01*
X0157454Y0273500D01*
X0159585Y0274383D01*
X0161217Y0276015D01*
X0161300Y0276215D01*
X0161383Y0276015D01*
X0163015Y0274383D01*
X0165146Y0273500D01*
X0167454Y0273500D01*
X0168460Y0273917D01*
X0175554Y0266824D01*
X0173023Y0266824D01*
X0170634Y0265834D01*
X0169316Y0264516D01*
X0167998Y0265834D01*
X0165609Y0266824D01*
X0163023Y0266824D01*
X0160634Y0265834D01*
X0159316Y0264516D01*
X0157998Y0265834D01*
X0155609Y0266824D01*
X0153023Y0266824D01*
X0150634Y0265834D01*
X0149316Y0264516D01*
X0147998Y0265834D01*
X0145609Y0266824D01*
X0143023Y0266824D01*
X0140634Y0265834D01*
X0138805Y0264006D01*
X0138672Y0263684D01*
X0138511Y0263907D01*
X0137899Y0264519D01*
X0137198Y0265028D01*
X0136427Y0265421D01*
X0135604Y0265688D01*
X0134749Y0265824D01*
X0134516Y0265824D01*
X0134516Y0260524D01*
X0134116Y0260524D01*
X0134116Y0265824D01*
X0133883Y0265824D01*
X0133028Y0265688D01*
X0132204Y0265421D01*
X0131433Y0265028D01*
X0130733Y0264519D01*
X0130121Y0263907D01*
X0129959Y0263684D01*
X0129826Y0264006D01*
X0127998Y0265834D01*
X0125609Y0266824D01*
X0123023Y0266824D01*
X0120634Y0265834D01*
X0119316Y0264516D01*
X0117998Y0265834D01*
X0115609Y0266824D01*
X0113023Y0266824D01*
X0110634Y0265834D01*
X0109316Y0264516D01*
X0107998Y0265834D01*
X0105609Y0266824D01*
X0103023Y0266824D01*
X0100634Y0265834D01*
X0099629Y0264829D01*
X0099456Y0265129D01*
X0099121Y0265464D01*
X0098711Y0265701D01*
X0098253Y0265824D01*
X0094516Y0265824D01*
X0094516Y0260524D01*
X0094116Y0260524D01*
X0094116Y0265824D01*
X0090379Y0265824D01*
X0089921Y0265701D01*
X0089511Y0265464D01*
X0089175Y0265129D01*
X0088938Y0264718D01*
X0088816Y0264261D01*
X0088816Y0260524D01*
X0094116Y0260524D01*
X0094116Y0260124D01*
X0088816Y0260124D01*
X0088816Y0256387D01*
X0088938Y0255929D01*
X0089175Y0255518D01*
X0089511Y0255183D01*
X0089921Y0254946D01*
X0090379Y0254824D01*
X0094116Y0254824D01*
X0094116Y0260124D01*
X0094516Y0260124D01*
X0094516Y0254824D01*
X0098253Y0254824D01*
X0098711Y0254946D01*
X0099121Y0255183D01*
X0099456Y0255518D01*
X0099629Y0255818D01*
X0100634Y0254813D01*
X0103023Y0253824D01*
X0105609Y0253824D01*
X0107998Y0254813D01*
X0109316Y0256131D01*
X0110634Y0254813D01*
X0113023Y0253824D01*
X0115609Y0253824D01*
X0117998Y0254813D01*
X0119316Y0256131D01*
X0120634Y0254813D01*
X0120700Y0254786D01*
X0120700Y0245584D01*
X0121248Y0244261D01*
X0122261Y0243248D01*
X0130700Y0234809D01*
X0130700Y0231327D01*
X0129300Y0229927D01*
X0127755Y0231471D01*
X0125513Y0232400D01*
X0123087Y0232400D01*
X0120845Y0231471D01*
X0119129Y0229755D01*
X0118200Y0227513D01*
X0118200Y0225087D01*
X0119129Y0222845D01*
X0120845Y0221129D01*
X0123087Y0220200D01*
X0125513Y0220200D01*
X0127755Y0221129D01*
X0129300Y0222673D01*
X0130845Y0221129D01*
X0133087Y0220200D01*
X0135513Y0220200D01*
X0137755Y0221129D01*
X0139300Y0222673D01*
X0140845Y0221129D01*
X0143087Y0220200D01*
X0145513Y0220200D01*
X0147755Y0221129D01*
X0149300Y0222673D01*
X0150845Y0221129D01*
X0153087Y0220200D01*
X0155513Y0220200D01*
X0157755Y0221129D01*
X0159300Y0222673D01*
X0160845Y0221129D01*
X0163087Y0220200D01*
X0165513Y0220200D01*
X0167755Y0221129D01*
X0169300Y0222673D01*
X0170845Y0221129D01*
X0173087Y0220200D01*
X0175513Y0220200D01*
X0177755Y0221129D01*
X0179471Y0222845D01*
X0179859Y0223781D01*
X0179938Y0223627D01*
X0180410Y0222978D01*
X0180978Y0222410D01*
X0181627Y0221938D01*
X0182342Y0221574D01*
X0183106Y0221326D01*
X0183899Y0221200D01*
X0184000Y0221200D01*
X0184000Y0226000D01*
X0184600Y0226000D01*
X0184600Y0221200D01*
X0184701Y0221200D01*
X0185494Y0221326D01*
X0186258Y0221574D01*
X0186973Y0221938D01*
X0187622Y0222410D01*
X0188190Y0222978D01*
X0188662Y0223627D01*
X0188741Y0223781D01*
X0189129Y0222845D01*
X0190700Y0221273D01*
X0190700Y0220584D01*
X0191248Y0219261D01*
X0192609Y0217900D01*
X0169853Y0217900D01*
X0168530Y0217352D01*
X0161248Y0210070D01*
X0160700Y0208747D01*
X0160700Y0205900D01*
X0112048Y0205900D01*
X0111843Y0206106D01*
X0110193Y0206789D01*
X0108407Y0206789D01*
X0106900Y0206165D01*
X0106900Y0208166D02*
X0160700Y0208166D01*
X0160700Y0206568D02*
X0110728Y0206568D01*
X0106900Y0209765D02*
X0161121Y0209765D01*
X0162541Y0211363D02*
X0106900Y0211363D01*
X0106900Y0212962D02*
X0164139Y0212962D01*
X0165738Y0214560D02*
X0106900Y0214560D01*
X0106900Y0216159D02*
X0167336Y0216159D01*
X0169508Y0217757D02*
X0106900Y0217757D01*
X0106900Y0219356D02*
X0191209Y0219356D01*
X0190700Y0220954D02*
X0177334Y0220954D01*
X0179179Y0222553D02*
X0180835Y0222553D01*
X0184000Y0222553D02*
X0184600Y0222553D01*
X0184600Y0224151D02*
X0184000Y0224151D01*
X0184000Y0225750D02*
X0184600Y0225750D01*
X0184600Y0227348D02*
X0184000Y0227348D01*
X0184000Y0228947D02*
X0184600Y0228947D01*
X0184600Y0230545D02*
X0184000Y0230545D01*
X0181466Y0230545D02*
X0178682Y0230545D01*
X0179806Y0228947D02*
X0179925Y0228947D01*
X0176132Y0232144D02*
X0192468Y0232144D01*
X0189918Y0230545D02*
X0187134Y0230545D01*
X0188675Y0228947D02*
X0188794Y0228947D01*
X0194300Y0226300D02*
X0194300Y0221300D01*
X0197300Y0218300D01*
X0189421Y0222553D02*
X0187765Y0222553D01*
X0196132Y0232144D02*
X0202468Y0232144D01*
X0199918Y0230545D02*
X0198682Y0230545D01*
X0206132Y0232144D02*
X0212468Y0232144D01*
X0209918Y0230545D02*
X0208682Y0230545D01*
X0216132Y0232144D02*
X0222468Y0232144D01*
X0219918Y0230545D02*
X0218682Y0230545D01*
X0226132Y0232144D02*
X0232468Y0232144D01*
X0229918Y0230545D02*
X0228682Y0230545D01*
X0236132Y0232144D02*
X0242468Y0232144D01*
X0239918Y0230545D02*
X0238682Y0230545D01*
X0246132Y0232144D02*
X0249824Y0232144D01*
X0258776Y0232144D02*
X0270143Y0232144D01*
X0268545Y0230545D02*
X0260239Y0230545D01*
X0260400Y0228947D02*
X0268350Y0228947D01*
X0268350Y0227348D02*
X0260400Y0227348D01*
X0260400Y0225750D02*
X0268850Y0225750D01*
X0270449Y0224151D02*
X0260400Y0224151D01*
X0249300Y0214300D02*
X0170569Y0214300D01*
X0164300Y0208031D01*
X0164300Y0202300D01*
X0167334Y0220954D02*
X0171266Y0220954D01*
X0169421Y0222553D02*
X0169179Y0222553D01*
X0161266Y0220954D02*
X0157334Y0220954D01*
X0159179Y0222553D02*
X0159421Y0222553D01*
X0154300Y0226300D02*
X0154300Y0245300D01*
X0159300Y0250300D01*
X0184292Y0250300D01*
X0194316Y0260324D01*
X0197297Y0254523D02*
X0201335Y0254523D01*
X0199326Y0256121D02*
X0199306Y0256121D01*
X0192008Y0252924D02*
X0260114Y0252924D01*
X0259811Y0252193D02*
X0259811Y0250407D01*
X0260494Y0248757D01*
X0261757Y0247494D01*
X0263407Y0246811D01*
X0265193Y0246811D01*
X0266843Y0247494D01*
X0268106Y0248757D01*
X0268195Y0248972D01*
X0270123Y0250900D01*
X0273811Y0250900D01*
X0273811Y0249407D01*
X0274494Y0247757D01*
X0274700Y0247552D01*
X0274700Y0242048D01*
X0274494Y0241843D01*
X0273811Y0240193D01*
X0273811Y0238407D01*
X0274494Y0236757D01*
X0275757Y0235494D01*
X0277407Y0234811D01*
X0279193Y0234811D01*
X0280843Y0235494D01*
X0282106Y0236757D01*
X0282789Y0238407D01*
X0282789Y0240193D01*
X0282106Y0241843D01*
X0281900Y0242048D01*
X0281900Y0247552D01*
X0282106Y0247757D01*
X0282789Y0249407D01*
X0282789Y0250900D01*
X0328192Y0250900D01*
X0328407Y0250811D01*
X0330193Y0250811D01*
X0331843Y0251494D01*
X0333106Y0252757D01*
X0333789Y0254407D01*
X0333789Y0256193D01*
X0333106Y0257843D01*
X0331843Y0259106D01*
X0330408Y0259700D01*
X0350552Y0259700D01*
X0350757Y0259494D01*
X0352407Y0258811D01*
X0354193Y0258811D01*
X0355843Y0259494D01*
X0357106Y0260757D01*
X0357789Y0262407D01*
X0357789Y0264193D01*
X0357106Y0265843D01*
X0355843Y0267106D01*
X0354193Y0267789D01*
X0352407Y0267789D01*
X0350757Y0267106D01*
X0350552Y0266900D01*
X0295048Y0266900D01*
X0294843Y0267106D01*
X0293193Y0267789D01*
X0291407Y0267789D01*
X0289757Y0267106D01*
X0288494Y0265843D01*
X0287811Y0264193D01*
X0287811Y0262407D01*
X0288494Y0260757D01*
X0289552Y0259700D01*
X0267425Y0259700D01*
X0265808Y0259030D01*
X0264570Y0257792D01*
X0261972Y0255195D01*
X0261757Y0255106D01*
X0260494Y0253843D01*
X0259811Y0252193D01*
X0259811Y0251326D02*
X0190409Y0251326D01*
X0188811Y0249727D02*
X0260093Y0249727D01*
X0261123Y0248129D02*
X0187212Y0248129D01*
X0184555Y0244932D02*
X0274700Y0244932D01*
X0274700Y0246530D02*
X0183206Y0246530D01*
X0185200Y0243333D02*
X0274700Y0243333D01*
X0274450Y0241735D02*
X0185200Y0241735D01*
X0184749Y0240136D02*
X0273811Y0240136D01*
X0273811Y0238538D02*
X0183674Y0238538D01*
X0180969Y0236939D02*
X0274419Y0236939D01*
X0276128Y0235341D02*
X0157900Y0235341D01*
X0157900Y0236939D02*
X0159631Y0236939D01*
X0161969Y0236939D02*
X0178631Y0236939D01*
X0175926Y0238538D02*
X0164674Y0238538D01*
X0165749Y0240136D02*
X0174851Y0240136D01*
X0174400Y0241735D02*
X0166200Y0241735D01*
X0166200Y0243333D02*
X0174400Y0243333D01*
X0175045Y0244932D02*
X0165555Y0244932D01*
X0164206Y0246530D02*
X0176394Y0246530D01*
X0172468Y0232144D02*
X0166132Y0232144D01*
X0168682Y0230545D02*
X0169918Y0230545D01*
X0162468Y0232144D02*
X0157900Y0232144D01*
X0157900Y0233742D02*
X0289520Y0233742D01*
X0291118Y0235341D02*
X0280472Y0235341D01*
X0282181Y0236939D02*
X0292717Y0236939D01*
X0294315Y0238538D02*
X0282789Y0238538D01*
X0282789Y0240136D02*
X0295914Y0240136D01*
X0297512Y0241735D02*
X0282150Y0241735D01*
X0281900Y0243333D02*
X0385200Y0243333D01*
X0385200Y0241735D02*
X0342214Y0241735D01*
X0343398Y0240136D02*
X0385200Y0240136D01*
X0385200Y0238538D02*
X0343789Y0238538D01*
X0343595Y0236939D02*
X0385200Y0236939D01*
X0385200Y0235341D02*
X0342689Y0235341D01*
X0342196Y0230545D02*
X0346404Y0230545D01*
X0344717Y0228947D02*
X0343883Y0228947D01*
X0336404Y0230545D02*
X0332196Y0230545D01*
X0333883Y0228947D02*
X0334717Y0228947D01*
X0326404Y0230545D02*
X0322196Y0230545D01*
X0323883Y0228947D02*
X0324717Y0228947D01*
X0316404Y0230545D02*
X0312196Y0230545D01*
X0313883Y0228947D02*
X0314717Y0228947D01*
X0306404Y0230545D02*
X0302196Y0230545D01*
X0303883Y0228947D02*
X0304717Y0228947D01*
X0300366Y0232144D02*
X0385200Y0232144D01*
X0385200Y0233742D02*
X0301965Y0233742D01*
X0293900Y0224151D02*
X0292374Y0224151D01*
X0293900Y0222553D02*
X0290775Y0222553D01*
X0289177Y0220954D02*
X0293900Y0220954D01*
X0294012Y0219356D02*
X0287578Y0219356D01*
X0285980Y0217757D02*
X0294674Y0217757D01*
X0296205Y0216159D02*
X0284700Y0216159D01*
X0279929Y0224151D02*
X0276151Y0224151D01*
X0277750Y0225750D02*
X0281527Y0225750D01*
X0283126Y0227348D02*
X0278250Y0227348D01*
X0278250Y0228947D02*
X0284724Y0228947D01*
X0286323Y0230545D02*
X0278055Y0230545D01*
X0276457Y0232144D02*
X0287921Y0232144D01*
X0278300Y0239300D02*
X0278300Y0250300D01*
X0282259Y0248129D02*
X0385200Y0248129D01*
X0385200Y0249727D02*
X0282789Y0249727D01*
X0281900Y0246530D02*
X0385200Y0246530D01*
X0385200Y0244932D02*
X0281900Y0244932D01*
X0274341Y0248129D02*
X0267477Y0248129D01*
X0268950Y0249727D02*
X0273811Y0249727D01*
X0266503Y0259318D02*
X0250816Y0259318D01*
X0250816Y0260917D02*
X0288428Y0260917D01*
X0287811Y0262515D02*
X0250443Y0262515D01*
X0249718Y0264114D02*
X0287811Y0264114D01*
X0288440Y0265712D02*
X0248119Y0265712D01*
X0240512Y0265712D02*
X0238119Y0265712D01*
X0233551Y0267311D02*
X0290253Y0267311D01*
X0294347Y0267311D02*
X0351253Y0267311D01*
X0355347Y0267311D02*
X0363170Y0267311D01*
X0363230Y0267370D02*
X0360891Y0265032D01*
X0359626Y0261977D01*
X0359626Y0258670D01*
X0360891Y0255615D01*
X0363230Y0253277D01*
X0366284Y0252012D01*
X0369591Y0252012D01*
X0372646Y0253277D01*
X0374984Y0255615D01*
X0376250Y0258670D01*
X0376250Y0261977D01*
X0374984Y0265032D01*
X0372646Y0267370D01*
X0369591Y0268635D01*
X0366284Y0268635D01*
X0363230Y0267370D01*
X0361572Y0265712D02*
X0357160Y0265712D01*
X0357789Y0264114D02*
X0360511Y0264114D01*
X0359849Y0262515D02*
X0357789Y0262515D01*
X0357172Y0260917D02*
X0359626Y0260917D01*
X0359626Y0259318D02*
X0355418Y0259318D01*
X0351182Y0259318D02*
X0331329Y0259318D01*
X0333156Y0257720D02*
X0360020Y0257720D01*
X0360682Y0256121D02*
X0333789Y0256121D01*
X0333789Y0254523D02*
X0361984Y0254523D01*
X0364081Y0252924D02*
X0333175Y0252924D01*
X0331436Y0251326D02*
X0385200Y0251326D01*
X0385200Y0252924D02*
X0371794Y0252924D01*
X0373892Y0254523D02*
X0385200Y0254523D01*
X0385200Y0256121D02*
X0375194Y0256121D01*
X0375856Y0257720D02*
X0385200Y0257720D01*
X0385200Y0259318D02*
X0376250Y0259318D01*
X0376250Y0260917D02*
X0385200Y0260917D01*
X0385200Y0262515D02*
X0376027Y0262515D01*
X0375364Y0264114D02*
X0385200Y0264114D01*
X0385200Y0265712D02*
X0374304Y0265712D01*
X0372705Y0267311D02*
X0385200Y0267311D01*
X0385200Y0268909D02*
X0231952Y0268909D01*
X0230354Y0270508D02*
X0385200Y0270508D01*
X0385200Y0272106D02*
X0228647Y0272106D01*
X0226292Y0280099D02*
X0247308Y0280099D01*
X0246930Y0280256D02*
X0249116Y0279350D01*
X0251484Y0279350D01*
X0253670Y0280256D01*
X0254315Y0280900D01*
X0289090Y0280900D01*
X0290938Y0279833D01*
X0293812Y0279063D01*
X0296788Y0279063D01*
X0299662Y0279833D01*
X0302238Y0281321D01*
X0304342Y0283425D01*
X0305830Y0286001D01*
X0306600Y0288875D01*
X0306600Y0291851D01*
X0305830Y0294725D01*
X0304342Y0297301D01*
X0302238Y0299405D01*
X0299662Y0300893D01*
X0296788Y0301663D01*
X0293812Y0301663D01*
X0290938Y0300893D01*
X0288362Y0299405D01*
X0286258Y0297301D01*
X0284770Y0294725D01*
X0284000Y0291851D01*
X0284000Y0289700D01*
X0254315Y0289700D01*
X0253670Y0290344D01*
X0252733Y0290733D01*
X0255250Y0293250D01*
X0255250Y0295300D01*
X0255250Y0297350D01*
X0252350Y0300250D01*
X0250300Y0300250D01*
X0250300Y0295300D01*
X0250300Y0295300D01*
X0255250Y0295300D01*
X0250300Y0295300D01*
X0250300Y0295300D01*
X0250300Y0295300D01*
X0245350Y0295300D01*
X0245350Y0297350D01*
X0248250Y0300250D01*
X0250300Y0300250D01*
X0250300Y0295300D01*
X0245350Y0295300D01*
X0245350Y0293250D01*
X0247867Y0290733D01*
X0246930Y0290344D01*
X0245256Y0288670D01*
X0244350Y0286484D01*
X0244350Y0284116D01*
X0245256Y0281930D01*
X0246930Y0280256D01*
X0245488Y0281698D02*
X0228112Y0281698D01*
X0228344Y0281930D02*
X0229250Y0284116D01*
X0229250Y0286484D01*
X0228344Y0288670D01*
X0226670Y0290344D01*
X0225733Y0290733D01*
X0228250Y0293250D01*
X0228250Y0295300D01*
X0228250Y0297350D01*
X0225350Y0300250D01*
X0223300Y0300250D01*
X0223300Y0295300D01*
X0223300Y0295300D01*
X0228250Y0295300D01*
X0223300Y0295300D01*
X0223300Y0295300D01*
X0223300Y0295300D01*
X0218350Y0295300D01*
X0218350Y0297350D01*
X0221250Y0300250D01*
X0223300Y0300250D01*
X0223300Y0295300D01*
X0218350Y0295300D01*
X0218350Y0293250D01*
X0220867Y0290733D01*
X0219930Y0290344D01*
X0218256Y0288670D01*
X0217350Y0286484D01*
X0217350Y0284116D01*
X0218256Y0281930D01*
X0219930Y0280256D01*
X0222116Y0279350D01*
X0224484Y0279350D01*
X0226670Y0280256D01*
X0228344Y0281930D01*
X0228910Y0283296D02*
X0244690Y0283296D01*
X0244350Y0284895D02*
X0229250Y0284895D01*
X0229246Y0286493D02*
X0244354Y0286493D01*
X0245016Y0288092D02*
X0228584Y0288092D01*
X0227324Y0289690D02*
X0246276Y0289690D01*
X0247311Y0291289D02*
X0226289Y0291289D01*
X0227887Y0292887D02*
X0245713Y0292887D01*
X0245350Y0294486D02*
X0228250Y0294486D01*
X0228250Y0296084D02*
X0245350Y0296084D01*
X0245682Y0297683D02*
X0227918Y0297683D01*
X0226319Y0299281D02*
X0247281Y0299281D01*
X0250300Y0299281D02*
X0250300Y0299281D01*
X0250300Y0297683D02*
X0250300Y0297683D01*
X0250300Y0296084D02*
X0250300Y0296084D01*
X0253319Y0299281D02*
X0266896Y0299281D01*
X0266883Y0299318D02*
X0267265Y0298226D01*
X0267767Y0297184D01*
X0268383Y0296204D01*
X0269104Y0295300D01*
X0269922Y0294482D01*
X0270826Y0293760D01*
X0271806Y0293145D01*
X0272848Y0292643D01*
X0273940Y0292261D01*
X0275068Y0292004D01*
X0275996Y0291899D01*
X0275996Y0301374D01*
X0266521Y0301374D01*
X0266626Y0300446D01*
X0266883Y0299318D01*
X0266577Y0300880D02*
X0194102Y0300880D01*
X0195701Y0302478D02*
X0275996Y0302478D01*
X0275996Y0302974D02*
X0275996Y0301374D01*
X0277596Y0301374D01*
X0277596Y0291899D01*
X0278524Y0292004D01*
X0279652Y0292261D01*
X0280744Y0292643D01*
X0281786Y0293145D01*
X0282766Y0293760D01*
X0283670Y0294482D01*
X0284488Y0295300D01*
X0285210Y0296204D01*
X0285825Y0297184D01*
X0286327Y0298226D01*
X0286709Y0299318D01*
X0286967Y0300446D01*
X0287071Y0301374D01*
X0277596Y0301374D01*
X0277596Y0302974D01*
X0275996Y0302974D01*
X0266521Y0302974D01*
X0266626Y0303902D01*
X0266883Y0305030D01*
X0267265Y0306122D01*
X0267767Y0307164D01*
X0268383Y0308144D01*
X0269104Y0309048D01*
X0269922Y0309866D01*
X0270826Y0310588D01*
X0271806Y0311203D01*
X0272848Y0311705D01*
X0273940Y0312087D01*
X0275068Y0312344D01*
X0275996Y0312449D01*
X0275996Y0302974D01*
X0275996Y0304077D02*
X0277596Y0304077D01*
X0277596Y0302974D02*
X0277596Y0312449D01*
X0278524Y0312344D01*
X0279652Y0312087D01*
X0280744Y0311705D01*
X0281786Y0311203D01*
X0282766Y0310588D01*
X0283670Y0309866D01*
X0284488Y0309048D01*
X0285210Y0308144D01*
X0285825Y0307164D01*
X0286327Y0306122D01*
X0286709Y0305030D01*
X0286967Y0303902D01*
X0287071Y0302974D01*
X0277596Y0302974D01*
X0277596Y0302478D02*
X0385200Y0302478D01*
X0385200Y0300880D02*
X0299685Y0300880D01*
X0302362Y0299281D02*
X0385200Y0299281D01*
X0385200Y0297683D02*
X0303961Y0297683D01*
X0305045Y0296084D02*
X0385200Y0296084D01*
X0385200Y0294486D02*
X0305894Y0294486D01*
X0306322Y0292887D02*
X0385200Y0292887D01*
X0385200Y0291289D02*
X0306600Y0291289D01*
X0306600Y0289690D02*
X0385200Y0289690D01*
X0385200Y0288092D02*
X0306390Y0288092D01*
X0305962Y0286493D02*
X0385200Y0286493D01*
X0385200Y0284895D02*
X0305191Y0284895D01*
X0304214Y0283296D02*
X0385200Y0283296D01*
X0385200Y0281698D02*
X0302615Y0281698D01*
X0300122Y0280099D02*
X0385200Y0280099D01*
X0385200Y0278501D02*
X0176322Y0278501D01*
X0174723Y0280099D02*
X0220308Y0280099D01*
X0218488Y0281698D02*
X0173125Y0281698D01*
X0172100Y0283296D02*
X0217690Y0283296D01*
X0217350Y0284895D02*
X0172100Y0284895D01*
X0172084Y0286493D02*
X0217354Y0286493D01*
X0218016Y0288092D02*
X0180638Y0288092D01*
X0182913Y0289690D02*
X0219276Y0289690D01*
X0220311Y0291289D02*
X0184511Y0291289D01*
X0183030Y0289808D02*
X0183030Y0289808D01*
X0186110Y0292887D02*
X0218713Y0292887D01*
X0218350Y0294486D02*
X0187708Y0294486D01*
X0189307Y0296084D02*
X0218350Y0296084D01*
X0218682Y0297683D02*
X0190905Y0297683D01*
X0192504Y0299281D02*
X0220281Y0299281D01*
X0223300Y0299281D02*
X0223300Y0299281D01*
X0223300Y0297683D02*
X0223300Y0297683D01*
X0223300Y0296084D02*
X0223300Y0296084D01*
X0219730Y0313668D02*
X0206890Y0313668D01*
X0205292Y0312069D02*
X0273889Y0312069D01*
X0275996Y0312069D02*
X0277596Y0312069D01*
X0277596Y0310471D02*
X0275996Y0310471D01*
X0275996Y0308872D02*
X0277596Y0308872D01*
X0277596Y0307274D02*
X0275996Y0307274D01*
X0275996Y0305675D02*
X0277596Y0305675D01*
X0279703Y0312069D02*
X0285172Y0312069D01*
X0285130Y0312257D02*
X0285387Y0311129D01*
X0285769Y0310037D01*
X0286271Y0308995D01*
X0286886Y0308015D01*
X0287608Y0307111D01*
X0288426Y0306293D01*
X0289330Y0305572D01*
X0290310Y0304956D01*
X0291352Y0304454D01*
X0292444Y0304072D01*
X0293572Y0303815D01*
X0294500Y0303710D01*
X0294500Y0313185D01*
X0296100Y0313185D01*
X0296100Y0303710D01*
X0297028Y0303815D01*
X0298156Y0304072D01*
X0299248Y0304454D01*
X0300290Y0304956D01*
X0301270Y0305572D01*
X0302174Y0306293D01*
X0302992Y0307111D01*
X0303714Y0308015D01*
X0304329Y0308995D01*
X0304831Y0310037D01*
X0305213Y0311129D01*
X0305470Y0312257D01*
X0305575Y0313185D01*
X0296100Y0313185D01*
X0296100Y0314785D01*
X0305575Y0314785D01*
X0305470Y0315713D01*
X0305213Y0316841D01*
X0304831Y0317933D01*
X0304329Y0318975D01*
X0303714Y0319955D01*
X0302992Y0320859D01*
X0302174Y0321677D01*
X0301270Y0322399D01*
X0300290Y0323014D01*
X0299248Y0323516D01*
X0298156Y0323898D01*
X0297028Y0324155D01*
X0296100Y0324260D01*
X0296100Y0314785D01*
X0294500Y0314785D01*
X0294500Y0313185D01*
X0285025Y0313185D01*
X0285130Y0312257D01*
X0285617Y0310471D02*
X0282912Y0310471D01*
X0284629Y0308872D02*
X0286348Y0308872D01*
X0285756Y0307274D02*
X0287478Y0307274D01*
X0286483Y0305675D02*
X0289200Y0305675D01*
X0286927Y0304077D02*
X0292431Y0304077D01*
X0294500Y0304077D02*
X0296100Y0304077D01*
X0296100Y0305675D02*
X0294500Y0305675D01*
X0294500Y0307274D02*
X0296100Y0307274D01*
X0296100Y0308872D02*
X0294500Y0308872D01*
X0294500Y0310471D02*
X0296100Y0310471D01*
X0296100Y0312069D02*
X0294500Y0312069D01*
X0294500Y0313668D02*
X0257870Y0313668D01*
X0257585Y0313383D02*
X0259217Y0315015D01*
X0260100Y0317146D01*
X0260100Y0319454D01*
X0259217Y0321585D01*
X0257585Y0323217D01*
X0257385Y0323300D01*
X0257585Y0323383D01*
X0259217Y0325015D01*
X0260100Y0327146D01*
X0260100Y0329454D01*
X0259217Y0331585D01*
X0257585Y0333217D01*
X0257385Y0333300D01*
X0257585Y0333383D01*
X0259217Y0335015D01*
X0260100Y0337146D01*
X0260100Y0339454D01*
X0259217Y0341585D01*
X0257585Y0343217D01*
X0255454Y0344100D01*
X0247146Y0344100D01*
X0245015Y0343217D01*
X0243383Y0341585D01*
X0242500Y0339454D01*
X0242500Y0337146D01*
X0243383Y0335015D01*
X0245015Y0333383D01*
X0245215Y0333300D01*
X0245015Y0333217D01*
X0243383Y0331585D01*
X0242500Y0329454D01*
X0242500Y0327146D01*
X0243383Y0325015D01*
X0245015Y0323383D01*
X0245215Y0323300D01*
X0245015Y0323217D01*
X0243383Y0321585D01*
X0242500Y0319454D01*
X0242500Y0317146D01*
X0243383Y0315015D01*
X0245015Y0313383D01*
X0247146Y0312500D01*
X0255454Y0312500D01*
X0257585Y0313383D01*
X0259321Y0315266D02*
X0285079Y0315266D01*
X0285130Y0315713D02*
X0285025Y0314785D01*
X0294500Y0314785D01*
X0294500Y0324260D01*
X0293572Y0324155D01*
X0292444Y0323898D01*
X0291352Y0323516D01*
X0290310Y0323014D01*
X0289330Y0322399D01*
X0288426Y0321677D01*
X0287608Y0320859D01*
X0286886Y0319955D01*
X0286271Y0318975D01*
X0285769Y0317933D01*
X0285387Y0316841D01*
X0285130Y0315713D01*
X0285395Y0316865D02*
X0259983Y0316865D01*
X0260100Y0318463D02*
X0286024Y0318463D01*
X0286972Y0320062D02*
X0259848Y0320062D01*
X0259142Y0321660D02*
X0288409Y0321660D01*
X0290818Y0323259D02*
X0257484Y0323259D01*
X0259060Y0324857D02*
X0385200Y0324857D01*
X0385200Y0323259D02*
X0299782Y0323259D01*
X0302191Y0321660D02*
X0385200Y0321660D01*
X0385200Y0320062D02*
X0355129Y0320062D01*
X0354554Y0320300D02*
X0352246Y0320300D01*
X0350115Y0319417D01*
X0348483Y0317785D01*
X0347600Y0315654D01*
X0347600Y0307346D01*
X0348483Y0305215D01*
X0350115Y0303583D01*
X0352246Y0302700D01*
X0354554Y0302700D01*
X0356685Y0303583D01*
X0358317Y0305215D01*
X0359200Y0307346D01*
X0359200Y0315654D01*
X0358317Y0317785D01*
X0356685Y0319417D01*
X0354554Y0320300D01*
X0351671Y0320062D02*
X0303628Y0320062D01*
X0304576Y0318463D02*
X0349161Y0318463D01*
X0348102Y0316865D02*
X0305205Y0316865D01*
X0305521Y0315266D02*
X0347600Y0315266D01*
X0347600Y0313668D02*
X0296100Y0313668D01*
X0296100Y0315266D02*
X0294500Y0315266D01*
X0294500Y0316865D02*
X0296100Y0316865D01*
X0296100Y0318463D02*
X0294500Y0318463D01*
X0294500Y0320062D02*
X0296100Y0320062D01*
X0296100Y0321660D02*
X0294500Y0321660D01*
X0294500Y0323259D02*
X0296100Y0323259D01*
X0305428Y0312069D02*
X0347600Y0312069D01*
X0347600Y0310471D02*
X0304983Y0310471D01*
X0304252Y0308872D02*
X0347600Y0308872D01*
X0347630Y0307274D02*
X0303122Y0307274D01*
X0301400Y0305675D02*
X0348292Y0305675D01*
X0349621Y0304077D02*
X0298169Y0304077D01*
X0290915Y0300880D02*
X0287015Y0300880D01*
X0286696Y0299281D02*
X0288238Y0299281D01*
X0286639Y0297683D02*
X0286065Y0297683D01*
X0285555Y0296084D02*
X0285114Y0296084D01*
X0284706Y0294486D02*
X0283674Y0294486D01*
X0284278Y0292887D02*
X0281251Y0292887D01*
X0284000Y0291289D02*
X0253289Y0291289D01*
X0254887Y0292887D02*
X0272341Y0292887D01*
X0269918Y0294486D02*
X0255250Y0294486D01*
X0255250Y0296084D02*
X0268478Y0296084D01*
X0267527Y0297683D02*
X0254918Y0297683D01*
X0266665Y0304077D02*
X0197299Y0304077D01*
X0198898Y0305675D02*
X0267109Y0305675D01*
X0267836Y0307274D02*
X0200496Y0307274D01*
X0202095Y0308872D02*
X0268964Y0308872D01*
X0270680Y0310471D02*
X0203693Y0310471D01*
X0208489Y0315266D02*
X0218279Y0315266D01*
X0217617Y0316865D02*
X0210087Y0316865D01*
X0211686Y0318463D02*
X0217500Y0318463D01*
X0217752Y0320062D02*
X0213284Y0320062D01*
X0214883Y0321660D02*
X0218458Y0321660D01*
X0220116Y0323259D02*
X0216481Y0323259D01*
X0210430Y0329653D02*
X0204875Y0329653D01*
X0203277Y0328054D02*
X0208832Y0328054D01*
X0207233Y0326456D02*
X0201678Y0326456D01*
X0200080Y0324857D02*
X0205635Y0324857D01*
X0204036Y0323259D02*
X0198481Y0323259D01*
X0196883Y0321660D02*
X0202438Y0321660D01*
X0200839Y0320062D02*
X0195284Y0320062D01*
X0193686Y0318463D02*
X0199241Y0318463D01*
X0197642Y0316865D02*
X0192087Y0316865D01*
X0190489Y0315266D02*
X0196044Y0315266D01*
X0194445Y0313668D02*
X0188890Y0313668D01*
X0187292Y0312069D02*
X0192847Y0312069D01*
X0191248Y0310471D02*
X0185693Y0310471D01*
X0184095Y0308872D02*
X0189650Y0308872D01*
X0188051Y0307274D02*
X0182496Y0307274D01*
X0180898Y0305675D02*
X0186453Y0305675D01*
X0184854Y0304077D02*
X0179299Y0304077D01*
X0177701Y0302478D02*
X0183256Y0302478D01*
X0181657Y0300880D02*
X0176228Y0300880D01*
X0178460Y0297683D02*
X0162140Y0297683D01*
X0160541Y0299281D02*
X0180059Y0299281D01*
X0170372Y0300880D02*
X0158943Y0300880D01*
X0157700Y0302478D02*
X0169196Y0302478D01*
X0168811Y0304077D02*
X0158186Y0304077D01*
X0159724Y0305675D02*
X0169011Y0305675D01*
X0169925Y0307274D02*
X0160424Y0307274D01*
X0161086Y0308872D02*
X0171650Y0308872D01*
X0173248Y0310471D02*
X0161100Y0310471D01*
X0161075Y0312069D02*
X0174847Y0312069D01*
X0176445Y0313668D02*
X0160413Y0313668D01*
X0159713Y0315266D02*
X0178044Y0315266D01*
X0179642Y0316865D02*
X0158122Y0316865D01*
X0155450Y0324953D02*
X0156235Y0325353D01*
X0156948Y0325871D01*
X0157571Y0326494D01*
X0158090Y0327207D01*
X0158490Y0327993D01*
X0158762Y0328831D01*
X0158900Y0329702D01*
X0158900Y0330057D01*
X0153386Y0330057D01*
X0153386Y0330228D01*
X0158900Y0330228D01*
X0158900Y0330583D01*
X0158762Y0331454D01*
X0158490Y0332292D01*
X0158090Y0333078D01*
X0157571Y0333791D01*
X0156948Y0334414D01*
X0156235Y0334932D01*
X0155450Y0335332D01*
X0154611Y0335605D01*
X0153741Y0335743D01*
X0153386Y0335743D01*
X0153386Y0330228D01*
X0153214Y0330228D01*
X0153214Y0330057D01*
X0147700Y0330057D01*
X0147700Y0329702D01*
X0147838Y0328831D01*
X0148110Y0327993D01*
X0148510Y0327207D01*
X0149029Y0326494D01*
X0149652Y0325871D01*
X0150365Y0325353D01*
X0151150Y0324953D01*
X0151989Y0324680D01*
X0152859Y0324543D01*
X0153214Y0324543D01*
X0153214Y0330057D01*
X0153386Y0330057D01*
X0153386Y0324543D01*
X0153741Y0324543D01*
X0154611Y0324680D01*
X0155450Y0324953D01*
X0155156Y0324857D02*
X0187635Y0324857D01*
X0186036Y0323259D02*
X0102665Y0323259D01*
X0102388Y0323118D02*
X0103187Y0323525D01*
X0103913Y0324052D01*
X0104548Y0324687D01*
X0105075Y0325413D01*
X0105482Y0326212D01*
X0105760Y0327065D01*
X0105900Y0327951D01*
X0105900Y0331800D01*
X0100700Y0331800D01*
X0100700Y0332800D01*
X0105900Y0332800D01*
X0105900Y0336649D01*
X0105760Y0337535D01*
X0105482Y0338388D01*
X0105075Y0339187D01*
X0104548Y0339913D01*
X0103913Y0340548D01*
X0103187Y0341075D01*
X0102388Y0341482D01*
X0101535Y0341760D01*
X0100700Y0341892D01*
X0100700Y0332800D01*
X0099700Y0332800D01*
X0099700Y0341892D01*
X0098865Y0341760D01*
X0098012Y0341482D01*
X0097213Y0341075D01*
X0096487Y0340548D01*
X0095852Y0339913D01*
X0095325Y0339187D01*
X0094918Y0338388D01*
X0094640Y0337535D01*
X0094500Y0336649D01*
X0094500Y0332800D01*
X0099700Y0332800D01*
X0099700Y0331800D01*
X0100700Y0331800D01*
X0100700Y0322708D01*
X0101535Y0322840D01*
X0102388Y0323118D01*
X0100700Y0323259D02*
X0099700Y0323259D01*
X0099700Y0322708D02*
X0098865Y0322840D01*
X0098012Y0323118D01*
X0097213Y0323525D01*
X0096487Y0324052D01*
X0095852Y0324687D01*
X0095325Y0325413D01*
X0094918Y0326212D01*
X0094640Y0327065D01*
X0094500Y0327951D01*
X0094500Y0331800D01*
X0099700Y0331800D01*
X0099700Y0322708D01*
X0097735Y0323259D02*
X0088100Y0323259D01*
X0088100Y0324857D02*
X0095728Y0324857D01*
X0094838Y0326456D02*
X0088100Y0326456D01*
X0088100Y0328054D02*
X0094500Y0328054D01*
X0094500Y0329653D02*
X0088100Y0329653D01*
X0088200Y0331251D02*
X0094500Y0331251D01*
X0094500Y0332850D02*
X0088200Y0332850D01*
X0087953Y0334448D02*
X0094500Y0334448D01*
X0094500Y0336047D02*
X0087291Y0336047D01*
X0087053Y0337645D02*
X0094676Y0337645D01*
X0095366Y0339244D02*
X0086391Y0339244D01*
X0085233Y0340842D02*
X0096892Y0340842D01*
X0099700Y0340842D02*
X0100700Y0340842D01*
X0100700Y0339244D02*
X0099700Y0339244D01*
X0099700Y0337645D02*
X0100700Y0337645D01*
X0100700Y0336047D02*
X0099700Y0336047D01*
X0099700Y0334448D02*
X0100700Y0334448D01*
X0100700Y0332850D02*
X0099700Y0332850D01*
X0099700Y0331251D02*
X0100700Y0331251D01*
X0100700Y0329653D02*
X0099700Y0329653D01*
X0099700Y0328054D02*
X0100700Y0328054D01*
X0100700Y0326456D02*
X0099700Y0326456D01*
X0099700Y0324857D02*
X0100700Y0324857D01*
X0104672Y0324857D02*
X0151444Y0324857D01*
X0153214Y0324857D02*
X0153386Y0324857D01*
X0153386Y0326456D02*
X0153214Y0326456D01*
X0153214Y0328054D02*
X0153386Y0328054D01*
X0153386Y0329653D02*
X0153214Y0329653D01*
X0153214Y0330228D02*
X0147700Y0330228D01*
X0147700Y0330583D01*
X0147838Y0331454D01*
X0148110Y0332292D01*
X0148510Y0333078D01*
X0149029Y0333791D01*
X0149652Y0334414D01*
X0150365Y0334932D01*
X0151150Y0335332D01*
X0151989Y0335605D01*
X0152859Y0335743D01*
X0153214Y0335743D01*
X0153214Y0330228D01*
X0153214Y0331251D02*
X0153386Y0331251D01*
X0153386Y0332850D02*
X0153214Y0332850D01*
X0153214Y0334448D02*
X0153386Y0334448D01*
X0156901Y0334448D02*
X0197226Y0334448D01*
X0195627Y0332850D02*
X0158206Y0332850D01*
X0158794Y0331251D02*
X0194029Y0331251D01*
X0192430Y0329653D02*
X0158892Y0329653D01*
X0158510Y0328054D02*
X0190832Y0328054D01*
X0189233Y0326456D02*
X0157533Y0326456D01*
X0149067Y0326456D02*
X0105562Y0326456D01*
X0105900Y0328054D02*
X0148090Y0328054D01*
X0147708Y0329653D02*
X0105900Y0329653D01*
X0105900Y0331251D02*
X0147806Y0331251D01*
X0148394Y0332850D02*
X0105900Y0332850D01*
X0105900Y0334448D02*
X0149699Y0334448D01*
X0181241Y0318463D02*
X0088100Y0318463D01*
X0088100Y0320062D02*
X0182839Y0320062D01*
X0184438Y0321660D02*
X0088100Y0321660D01*
X0072500Y0321660D02*
X0046191Y0321660D01*
X0046174Y0321677D02*
X0045270Y0322399D01*
X0044290Y0323014D01*
X0043248Y0323516D01*
X0042156Y0323898D01*
X0041028Y0324155D01*
X0040100Y0324260D01*
X0040100Y0314785D01*
X0049575Y0314785D01*
X0049470Y0315713D01*
X0049213Y0316841D01*
X0048831Y0317933D01*
X0048329Y0318975D01*
X0047714Y0319955D01*
X0046992Y0320859D01*
X0046174Y0321677D01*
X0047628Y0320062D02*
X0072500Y0320062D01*
X0072500Y0318463D02*
X0048576Y0318463D01*
X0049205Y0316865D02*
X0072500Y0316865D01*
X0072500Y0315266D02*
X0049521Y0315266D01*
X0049575Y0313185D02*
X0040100Y0313185D01*
X0040100Y0303710D01*
X0041028Y0303815D01*
X0042156Y0304072D01*
X0043248Y0304454D01*
X0044290Y0304956D01*
X0045270Y0305572D01*
X0046174Y0306293D01*
X0046992Y0307111D01*
X0047714Y0308015D01*
X0048329Y0308995D01*
X0048831Y0310037D01*
X0049213Y0311129D01*
X0049470Y0312257D01*
X0049575Y0313185D01*
X0049428Y0312069D02*
X0072500Y0312069D01*
X0072500Y0310471D02*
X0048983Y0310471D01*
X0048252Y0308872D02*
X0072500Y0308872D01*
X0072243Y0307274D02*
X0047122Y0307274D01*
X0045400Y0305675D02*
X0070644Y0305675D01*
X0069046Y0304077D02*
X0042169Y0304077D01*
X0040100Y0304077D02*
X0038500Y0304077D01*
X0038500Y0303710D02*
X0038500Y0313185D01*
X0040100Y0313185D01*
X0040100Y0314785D01*
X0038500Y0314785D01*
X0038500Y0313185D01*
X0029025Y0313185D01*
X0029130Y0312257D01*
X0029387Y0311129D01*
X0029769Y0310037D01*
X0030271Y0308995D01*
X0030886Y0308015D01*
X0031608Y0307111D01*
X0032426Y0306293D01*
X0033330Y0305572D01*
X0034310Y0304956D01*
X0035352Y0304454D01*
X0036444Y0304072D01*
X0037572Y0303815D01*
X0038500Y0303710D01*
X0038500Y0305675D02*
X0040100Y0305675D01*
X0040100Y0307274D02*
X0038500Y0307274D01*
X0038500Y0308872D02*
X0040100Y0308872D01*
X0040100Y0310471D02*
X0038500Y0310471D01*
X0038500Y0312069D02*
X0040100Y0312069D01*
X0040100Y0313668D02*
X0072500Y0313668D01*
X0072500Y0323259D02*
X0043782Y0323259D01*
X0040100Y0323259D02*
X0038500Y0323259D01*
X0038500Y0324260D02*
X0037572Y0324155D01*
X0036444Y0323898D01*
X0035352Y0323516D01*
X0034310Y0323014D01*
X0033330Y0322399D01*
X0032426Y0321677D01*
X0031608Y0320859D01*
X0030886Y0319955D01*
X0030271Y0318975D01*
X0029769Y0317933D01*
X0029387Y0316841D01*
X0029130Y0315713D01*
X0029025Y0314785D01*
X0038500Y0314785D01*
X0038500Y0324260D01*
X0038500Y0321660D02*
X0040100Y0321660D01*
X0040100Y0320062D02*
X0038500Y0320062D01*
X0038500Y0318463D02*
X0040100Y0318463D01*
X0040100Y0316865D02*
X0038500Y0316865D01*
X0038500Y0315266D02*
X0040100Y0315266D01*
X0038500Y0313668D02*
X0004400Y0313668D01*
X0004400Y0315266D02*
X0029079Y0315266D01*
X0029395Y0316865D02*
X0004400Y0316865D01*
X0004400Y0318463D02*
X0030024Y0318463D01*
X0030972Y0320062D02*
X0004400Y0320062D01*
X0004400Y0321660D02*
X0032409Y0321660D01*
X0034818Y0323259D02*
X0004400Y0323259D01*
X0004400Y0324857D02*
X0072500Y0324857D01*
X0072500Y0326456D02*
X0004400Y0326456D01*
X0004400Y0328054D02*
X0072500Y0328054D01*
X0072500Y0329653D02*
X0004400Y0329653D01*
X0004400Y0331251D02*
X0072500Y0331251D01*
X0072500Y0332850D02*
X0004400Y0332850D01*
X0004400Y0334448D02*
X0072789Y0334448D01*
X0073451Y0336047D02*
X0004400Y0336047D01*
X0004400Y0337645D02*
X0073747Y0337645D01*
X0074409Y0339244D02*
X0004400Y0339244D01*
X0004400Y0340842D02*
X0075567Y0340842D01*
X0077959Y0342441D02*
X0004400Y0342441D01*
X0004400Y0344039D02*
X0222000Y0344039D01*
X0230600Y0344039D02*
X0247000Y0344039D01*
X0244239Y0342441D02*
X0233361Y0342441D01*
X0234525Y0340842D02*
X0243075Y0340842D01*
X0242500Y0339244D02*
X0235100Y0339244D01*
X0235100Y0337645D02*
X0242500Y0337645D01*
X0242955Y0336047D02*
X0234645Y0336047D01*
X0233651Y0334448D02*
X0243949Y0334448D01*
X0244647Y0332850D02*
X0232953Y0332850D01*
X0234355Y0331251D02*
X0243245Y0331251D01*
X0242583Y0329653D02*
X0235017Y0329653D01*
X0235100Y0328054D02*
X0242500Y0328054D01*
X0242786Y0326456D02*
X0234814Y0326456D01*
X0234060Y0324857D02*
X0243540Y0324857D01*
X0245116Y0323259D02*
X0232484Y0323259D01*
X0234142Y0321660D02*
X0243458Y0321660D01*
X0242752Y0320062D02*
X0234848Y0320062D01*
X0235100Y0318463D02*
X0242500Y0318463D01*
X0242617Y0316865D02*
X0234983Y0316865D01*
X0234321Y0315266D02*
X0243279Y0315266D01*
X0244730Y0313668D02*
X0232870Y0313668D01*
X0219647Y0332850D02*
X0208072Y0332850D01*
X0206474Y0331251D02*
X0212029Y0331251D01*
X0203620Y0340842D02*
X0103508Y0340842D01*
X0105034Y0339244D02*
X0202021Y0339244D01*
X0200423Y0337645D02*
X0105724Y0337645D01*
X0105900Y0336047D02*
X0198824Y0336047D01*
X0205799Y0342441D02*
X0082841Y0342441D01*
X0089509Y0302478D02*
X0148900Y0302478D01*
X0148900Y0300880D02*
X0143943Y0300880D01*
X0145541Y0299281D02*
X0148959Y0299281D01*
X0149695Y0297683D02*
X0147140Y0297683D01*
X0148738Y0296084D02*
X0151293Y0296084D01*
X0150337Y0294486D02*
X0152892Y0294486D01*
X0151935Y0292887D02*
X0154490Y0292887D01*
X0153534Y0291289D02*
X0156089Y0291289D01*
X0149081Y0283296D02*
X0139700Y0283296D01*
X0139700Y0282354D02*
X0139700Y0285300D01*
X0139700Y0288246D01*
X0139592Y0288930D01*
X0139378Y0289589D01*
X0139063Y0290206D01*
X0138656Y0290766D01*
X0138166Y0291256D01*
X0137606Y0291663D01*
X0136989Y0291978D01*
X0136330Y0292192D01*
X0135646Y0292300D01*
X0135300Y0292300D01*
X0135300Y0285300D01*
X0139700Y0285300D01*
X0135300Y0285300D01*
X0135300Y0285300D01*
X0135300Y0285300D01*
X0135300Y0278300D01*
X0135646Y0278300D01*
X0136330Y0278408D01*
X0136989Y0278622D01*
X0137606Y0278937D01*
X0138166Y0279344D01*
X0138656Y0279834D01*
X0139063Y0280394D01*
X0139378Y0281011D01*
X0139592Y0281670D01*
X0139700Y0282354D01*
X0139596Y0281698D02*
X0150500Y0281698D01*
X0150500Y0280099D02*
X0138849Y0280099D01*
X0136614Y0278501D02*
X0150500Y0278501D01*
X0151015Y0276902D02*
X0058008Y0276902D01*
X0058008Y0278501D02*
X0111863Y0278501D01*
X0110532Y0280099D02*
X0058008Y0280099D01*
X0058008Y0281698D02*
X0109900Y0281698D01*
X0109900Y0283296D02*
X0069684Y0283296D01*
X0071925Y0284895D02*
X0109900Y0284895D01*
X0109900Y0286493D02*
X0073524Y0286493D01*
X0075122Y0288092D02*
X0109900Y0288092D01*
X0110197Y0289690D02*
X0076721Y0289690D01*
X0078319Y0291289D02*
X0110900Y0291289D01*
X0110900Y0292887D02*
X0079918Y0292887D01*
X0081516Y0294486D02*
X0111443Y0294486D01*
X0112862Y0296084D02*
X0083115Y0296084D01*
X0084714Y0297683D02*
X0114460Y0297683D01*
X0116059Y0299281D02*
X0086312Y0299281D01*
X0087911Y0300880D02*
X0117657Y0300880D01*
X0127371Y0292887D02*
X0139490Y0292887D01*
X0138122Y0291289D02*
X0141089Y0291289D01*
X0142687Y0289690D02*
X0139326Y0289690D01*
X0139700Y0288092D02*
X0144286Y0288092D01*
X0145884Y0286493D02*
X0139700Y0286493D01*
X0139700Y0284895D02*
X0147483Y0284895D01*
X0152094Y0275303D02*
X0058008Y0275303D01*
X0058008Y0273705D02*
X0154651Y0273705D01*
X0157949Y0273705D02*
X0164651Y0273705D01*
X0162094Y0275303D02*
X0160506Y0275303D01*
X0167949Y0273705D02*
X0168672Y0273705D01*
X0170271Y0272106D02*
X0058008Y0272106D01*
X0057915Y0270508D02*
X0171869Y0270508D01*
X0173468Y0268909D02*
X0057132Y0268909D01*
X0055533Y0267311D02*
X0067895Y0267311D01*
X0067954Y0267370D02*
X0065616Y0265032D01*
X0064350Y0261977D01*
X0064350Y0258670D01*
X0065616Y0255615D01*
X0067954Y0253277D01*
X0071009Y0252012D01*
X0074316Y0252012D01*
X0077370Y0253277D01*
X0079709Y0255615D01*
X0080974Y0258670D01*
X0080974Y0261977D01*
X0079709Y0265032D01*
X0077370Y0267370D01*
X0074316Y0268635D01*
X0071009Y0268635D01*
X0067954Y0267370D01*
X0066296Y0265712D02*
X0053935Y0265712D01*
X0053700Y0264114D02*
X0065236Y0264114D01*
X0064573Y0262515D02*
X0053654Y0262515D01*
X0052992Y0260917D02*
X0064350Y0260917D01*
X0064350Y0259318D02*
X0051555Y0259318D01*
X0049971Y0257720D02*
X0064744Y0257720D01*
X0065406Y0256121D02*
X0051570Y0256121D01*
X0053168Y0254523D02*
X0066708Y0254523D01*
X0068806Y0252924D02*
X0054767Y0252924D01*
X0056365Y0251326D02*
X0120700Y0251326D01*
X0120700Y0252924D02*
X0076519Y0252924D01*
X0078616Y0254523D02*
X0101335Y0254523D01*
X0107297Y0254523D02*
X0111335Y0254523D01*
X0109326Y0256121D02*
X0109306Y0256121D01*
X0117297Y0254523D02*
X0120700Y0254523D01*
X0119326Y0256121D02*
X0119306Y0256121D01*
X0124300Y0260308D02*
X0124316Y0260324D01*
X0124300Y0260308D02*
X0124300Y0246300D01*
X0134300Y0236300D01*
X0134300Y0226300D01*
X0137334Y0220954D02*
X0141266Y0220954D01*
X0139421Y0222553D02*
X0139179Y0222553D01*
X0144300Y0226300D02*
X0144316Y0226316D01*
X0144316Y0260324D01*
X0148119Y0265712D02*
X0150512Y0265712D01*
X0158119Y0265712D02*
X0160512Y0265712D01*
X0168119Y0265712D02*
X0170512Y0265712D01*
X0175067Y0267311D02*
X0077430Y0267311D01*
X0079028Y0265712D02*
X0089964Y0265712D01*
X0088816Y0264114D02*
X0080089Y0264114D01*
X0080751Y0262515D02*
X0088816Y0262515D01*
X0088816Y0260917D02*
X0080974Y0260917D01*
X0080974Y0259318D02*
X0088816Y0259318D01*
X0088816Y0257720D02*
X0080580Y0257720D01*
X0079918Y0256121D02*
X0088887Y0256121D01*
X0094116Y0256121D02*
X0094516Y0256121D01*
X0094516Y0257720D02*
X0094116Y0257720D01*
X0094116Y0259318D02*
X0094516Y0259318D01*
X0094516Y0260917D02*
X0094116Y0260917D01*
X0094116Y0262515D02*
X0094516Y0262515D01*
X0094516Y0264114D02*
X0094116Y0264114D01*
X0094116Y0265712D02*
X0094516Y0265712D01*
X0098668Y0265712D02*
X0100512Y0265712D01*
X0108119Y0265712D02*
X0110512Y0265712D01*
X0118119Y0265712D02*
X0120512Y0265712D01*
X0128119Y0265712D02*
X0133181Y0265712D01*
X0134116Y0265712D02*
X0134516Y0265712D01*
X0135451Y0265712D02*
X0140512Y0265712D01*
X0138914Y0264114D02*
X0138304Y0264114D01*
X0134516Y0264114D02*
X0134116Y0264114D01*
X0134116Y0262515D02*
X0134516Y0262515D01*
X0134516Y0260917D02*
X0134116Y0260917D01*
X0134116Y0260124D02*
X0134516Y0260124D01*
X0134516Y0254824D01*
X0134749Y0254824D01*
X0135604Y0254959D01*
X0136427Y0255227D01*
X0137198Y0255620D01*
X0137899Y0256128D01*
X0138511Y0256741D01*
X0138672Y0256963D01*
X0138805Y0256642D01*
X0140634Y0254813D01*
X0140716Y0254779D01*
X0140716Y0231342D01*
X0139300Y0229927D01*
X0137900Y0231327D01*
X0137900Y0237016D01*
X0137352Y0238339D01*
X0127900Y0247791D01*
X0127900Y0254773D01*
X0127998Y0254813D01*
X0129826Y0256642D01*
X0129959Y0256963D01*
X0130121Y0256741D01*
X0130733Y0256128D01*
X0131433Y0255620D01*
X0132204Y0255227D01*
X0133028Y0254959D01*
X0133883Y0254824D01*
X0134116Y0254824D01*
X0134116Y0260124D01*
X0134116Y0259318D02*
X0134516Y0259318D01*
X0134516Y0257720D02*
X0134116Y0257720D01*
X0134116Y0256121D02*
X0134516Y0256121D01*
X0137889Y0256121D02*
X0139326Y0256121D01*
X0140716Y0254523D02*
X0127900Y0254523D01*
X0127900Y0252924D02*
X0140716Y0252924D01*
X0140716Y0251326D02*
X0127900Y0251326D01*
X0127900Y0249727D02*
X0140716Y0249727D01*
X0140716Y0248129D02*
X0127900Y0248129D01*
X0129161Y0246530D02*
X0140716Y0246530D01*
X0140716Y0244932D02*
X0130759Y0244932D01*
X0132358Y0243333D02*
X0140716Y0243333D01*
X0140716Y0241735D02*
X0133956Y0241735D01*
X0135555Y0240136D02*
X0140716Y0240136D01*
X0140716Y0238538D02*
X0137153Y0238538D01*
X0137900Y0236939D02*
X0140716Y0236939D01*
X0140716Y0235341D02*
X0137900Y0235341D01*
X0137900Y0233742D02*
X0140716Y0233742D01*
X0140716Y0232144D02*
X0137900Y0232144D01*
X0138682Y0230545D02*
X0139918Y0230545D01*
X0130700Y0232144D02*
X0126132Y0232144D01*
X0128682Y0230545D02*
X0129918Y0230545D01*
X0130700Y0233742D02*
X0103949Y0233742D01*
X0105547Y0232144D02*
X0122468Y0232144D01*
X0119918Y0230545D02*
X0106681Y0230545D01*
X0106900Y0228947D02*
X0118794Y0228947D01*
X0118200Y0227348D02*
X0106900Y0227348D01*
X0106900Y0225750D02*
X0118200Y0225750D01*
X0118587Y0224151D02*
X0106900Y0224151D01*
X0106900Y0222553D02*
X0119421Y0222553D01*
X0121266Y0220954D02*
X0106900Y0220954D01*
X0099700Y0225750D02*
X0024700Y0225750D01*
X0024700Y0227348D02*
X0099700Y0227348D01*
X0098562Y0228947D02*
X0024700Y0228947D01*
X0024700Y0230545D02*
X0066964Y0230545D01*
X0065365Y0232144D02*
X0024700Y0232144D01*
X0024700Y0233742D02*
X0036158Y0233742D01*
X0034023Y0235341D02*
X0031162Y0235341D01*
X0032341Y0236939D02*
X0033184Y0236939D01*
X0032900Y0238538D02*
X0032700Y0238538D01*
X0032700Y0240136D02*
X0032900Y0240136D01*
X0032900Y0241735D02*
X0032700Y0241735D01*
X0032700Y0243333D02*
X0032900Y0243333D01*
X0032900Y0244932D02*
X0032591Y0244932D01*
X0028300Y0240136D02*
X0028300Y0240136D01*
X0028300Y0238538D02*
X0028300Y0238538D01*
X0028300Y0236939D02*
X0028300Y0236939D01*
X0028300Y0235341D02*
X0028300Y0235341D01*
X0025438Y0235341D02*
X0024700Y0235341D01*
X0040442Y0233742D02*
X0046158Y0233742D01*
X0044023Y0235341D02*
X0042577Y0235341D01*
X0050442Y0233742D02*
X0063767Y0233742D01*
X0062168Y0235341D02*
X0052577Y0235341D01*
X0053416Y0236939D02*
X0060570Y0236939D01*
X0058971Y0238538D02*
X0053700Y0238538D01*
X0053700Y0240136D02*
X0057373Y0240136D01*
X0055774Y0241735D02*
X0053700Y0241735D01*
X0053700Y0243333D02*
X0054176Y0243333D01*
X0059562Y0248129D02*
X0120700Y0248129D01*
X0120700Y0249727D02*
X0057964Y0249727D01*
X0061161Y0246530D02*
X0120700Y0246530D01*
X0120970Y0244932D02*
X0062759Y0244932D01*
X0064358Y0243333D02*
X0122176Y0243333D01*
X0123774Y0241735D02*
X0065956Y0241735D01*
X0067555Y0240136D02*
X0125373Y0240136D01*
X0126971Y0238538D02*
X0069153Y0238538D01*
X0070752Y0236939D02*
X0128570Y0236939D01*
X0130168Y0235341D02*
X0102350Y0235341D01*
X0127334Y0220954D02*
X0131266Y0220954D01*
X0129421Y0222553D02*
X0129179Y0222553D01*
X0147334Y0220954D02*
X0151266Y0220954D01*
X0149421Y0222553D02*
X0149179Y0222553D01*
X0158682Y0230545D02*
X0159918Y0230545D01*
X0130743Y0256121D02*
X0129306Y0256121D01*
X0129718Y0264114D02*
X0130328Y0264114D01*
X0128737Y0278501D02*
X0133986Y0278501D01*
X0134270Y0278408D02*
X0134954Y0278300D01*
X0135300Y0278300D01*
X0135300Y0285300D01*
X0135300Y0285300D01*
X0135300Y0285300D01*
X0130900Y0285300D01*
X0130900Y0288246D01*
X0131008Y0288930D01*
X0131222Y0289589D01*
X0131537Y0290206D01*
X0131944Y0290766D01*
X0132434Y0291256D01*
X0132994Y0291663D01*
X0133611Y0291978D01*
X0134270Y0292192D01*
X0134954Y0292300D01*
X0135300Y0292300D01*
X0135300Y0285300D01*
X0130900Y0285300D01*
X0130900Y0282354D01*
X0131008Y0281670D01*
X0131222Y0281011D01*
X0131537Y0280394D01*
X0131944Y0279834D01*
X0132434Y0279344D01*
X0132994Y0278937D01*
X0133611Y0278622D01*
X0134270Y0278408D01*
X0135300Y0278501D02*
X0135300Y0278501D01*
X0135300Y0280099D02*
X0135300Y0280099D01*
X0135300Y0281698D02*
X0135300Y0281698D01*
X0135300Y0283296D02*
X0135300Y0283296D01*
X0135300Y0284895D02*
X0135300Y0284895D01*
X0135300Y0286493D02*
X0135300Y0286493D01*
X0135300Y0288092D02*
X0135300Y0288092D01*
X0135300Y0289690D02*
X0135300Y0289690D01*
X0135300Y0291289D02*
X0135300Y0291289D01*
X0132478Y0291289D02*
X0129548Y0291289D01*
X0130403Y0289690D02*
X0131274Y0289690D01*
X0130900Y0288092D02*
X0130700Y0288092D01*
X0130700Y0286493D02*
X0130900Y0286493D01*
X0130900Y0284895D02*
X0130700Y0284895D01*
X0130700Y0283296D02*
X0130900Y0283296D01*
X0131004Y0281698D02*
X0130700Y0281698D01*
X0130068Y0280099D02*
X0131751Y0280099D01*
X0121863Y0278501D02*
X0118737Y0278501D01*
X0120068Y0280099D02*
X0120532Y0280099D01*
X0067447Y0302478D02*
X0021596Y0302478D01*
X0021596Y0302974D02*
X0031071Y0302974D01*
X0030967Y0303902D01*
X0030709Y0305030D01*
X0030327Y0306122D01*
X0029825Y0307164D01*
X0029210Y0308144D01*
X0028488Y0309048D01*
X0027670Y0309866D01*
X0026766Y0310588D01*
X0025786Y0311203D01*
X0024744Y0311705D01*
X0023652Y0312087D01*
X0022524Y0312344D01*
X0021596Y0312449D01*
X0021596Y0302974D01*
X0019996Y0302974D01*
X0019996Y0301374D01*
X0010521Y0301374D01*
X0010626Y0300446D01*
X0010883Y0299318D01*
X0011265Y0298226D01*
X0011767Y0297184D01*
X0012383Y0296204D01*
X0013104Y0295300D01*
X0013922Y0294482D01*
X0014826Y0293760D01*
X0015806Y0293145D01*
X0016848Y0292643D01*
X0017940Y0292261D01*
X0019068Y0292004D01*
X0019996Y0291899D01*
X0019996Y0301374D01*
X0021596Y0301374D01*
X0021596Y0291899D01*
X0022524Y0292004D01*
X0023652Y0292261D01*
X0024744Y0292643D01*
X0025786Y0293145D01*
X0026766Y0293760D01*
X0027670Y0294482D01*
X0028488Y0295300D01*
X0029210Y0296204D01*
X0029825Y0297184D01*
X0030327Y0298226D01*
X0030709Y0299318D01*
X0030967Y0300446D01*
X0031071Y0301374D01*
X0021596Y0301374D01*
X0021596Y0302974D01*
X0021596Y0304077D02*
X0019996Y0304077D01*
X0019996Y0302974D02*
X0019996Y0312449D01*
X0019068Y0312344D01*
X0017940Y0312087D01*
X0016848Y0311705D01*
X0015806Y0311203D01*
X0014826Y0310588D01*
X0013922Y0309866D01*
X0013104Y0309048D01*
X0012383Y0308144D01*
X0011767Y0307164D01*
X0011265Y0306122D01*
X0010883Y0305030D01*
X0010626Y0303902D01*
X0010521Y0302974D01*
X0019996Y0302974D01*
X0019996Y0302478D02*
X0004400Y0302478D01*
X0004400Y0300880D02*
X0010577Y0300880D01*
X0010896Y0299281D02*
X0004400Y0299281D01*
X0004400Y0297683D02*
X0011527Y0297683D01*
X0012478Y0296084D02*
X0004400Y0296084D01*
X0004400Y0294486D02*
X0013918Y0294486D01*
X0016341Y0292887D02*
X0004400Y0292887D01*
X0004400Y0291289D02*
X0028000Y0291289D01*
X0028000Y0289690D02*
X0004400Y0289690D01*
X0004400Y0288092D02*
X0028210Y0288092D01*
X0028638Y0286493D02*
X0004400Y0286493D01*
X0004400Y0284895D02*
X0029409Y0284895D01*
X0030386Y0283296D02*
X0004400Y0283296D01*
X0004400Y0281698D02*
X0031985Y0281698D01*
X0028278Y0292887D02*
X0025251Y0292887D01*
X0027674Y0294486D02*
X0028706Y0294486D01*
X0029114Y0296084D02*
X0029555Y0296084D01*
X0030065Y0297683D02*
X0030639Y0297683D01*
X0030696Y0299281D02*
X0032238Y0299281D01*
X0031015Y0300880D02*
X0034915Y0300880D01*
X0036431Y0304077D02*
X0030927Y0304077D01*
X0030483Y0305675D02*
X0033200Y0305675D01*
X0031478Y0307274D02*
X0029756Y0307274D01*
X0030348Y0308872D02*
X0028629Y0308872D01*
X0029617Y0310471D02*
X0026912Y0310471D01*
X0029172Y0312069D02*
X0023703Y0312069D01*
X0021596Y0312069D02*
X0019996Y0312069D01*
X0019996Y0310471D02*
X0021596Y0310471D01*
X0021596Y0308872D02*
X0019996Y0308872D01*
X0019996Y0307274D02*
X0021596Y0307274D01*
X0021596Y0305675D02*
X0019996Y0305675D01*
X0017889Y0312069D02*
X0004400Y0312069D01*
X0004400Y0310471D02*
X0014680Y0310471D01*
X0012964Y0308872D02*
X0004400Y0308872D01*
X0004400Y0307274D02*
X0011836Y0307274D01*
X0011109Y0305675D02*
X0004400Y0305675D01*
X0004400Y0304077D02*
X0010665Y0304077D01*
X0019996Y0300880D02*
X0021596Y0300880D01*
X0021596Y0299281D02*
X0019996Y0299281D01*
X0019996Y0297683D02*
X0021596Y0297683D01*
X0021596Y0296084D02*
X0019996Y0296084D01*
X0019996Y0294486D02*
X0021596Y0294486D01*
X0021596Y0292887D02*
X0019996Y0292887D01*
X0043685Y0300880D02*
X0065849Y0300880D01*
X0064250Y0299281D02*
X0046362Y0299281D01*
X0004400Y0345638D02*
X0351614Y0345638D01*
X0352246Y0345900D02*
X0350115Y0345017D01*
X0348483Y0343385D01*
X0347600Y0341254D01*
X0347600Y0332946D01*
X0348483Y0330815D01*
X0350115Y0329183D01*
X0352246Y0328300D01*
X0354554Y0328300D01*
X0356685Y0329183D01*
X0358317Y0330815D01*
X0359200Y0332946D01*
X0359200Y0341254D01*
X0358317Y0343385D01*
X0356685Y0345017D01*
X0354554Y0345900D01*
X0352246Y0345900D01*
X0355186Y0345638D02*
X0385200Y0345638D01*
X0385200Y0347237D02*
X0004400Y0347237D01*
X0004400Y0348835D02*
X0385200Y0348835D01*
X0385200Y0344039D02*
X0373944Y0344039D01*
X0373716Y0344205D02*
X0373043Y0344548D01*
X0372324Y0344782D01*
X0371578Y0344900D01*
X0371400Y0344900D01*
X0371400Y0337300D01*
X0371000Y0337300D01*
X0371000Y0344900D01*
X0370822Y0344900D01*
X0370076Y0344782D01*
X0369357Y0344548D01*
X0368684Y0344205D01*
X0368073Y0343761D01*
X0367539Y0343227D01*
X0367095Y0342616D01*
X0366752Y0341943D01*
X0366518Y0341224D01*
X0366400Y0340478D01*
X0366400Y0337300D01*
X0371000Y0337300D01*
X0371000Y0336900D01*
X0366400Y0336900D01*
X0366400Y0333722D01*
X0366518Y0332976D01*
X0366752Y0332257D01*
X0367095Y0331584D01*
X0367539Y0330973D01*
X0368073Y0330439D01*
X0368684Y0329995D01*
X0369357Y0329652D01*
X0370076Y0329418D01*
X0370822Y0329300D01*
X0371000Y0329300D01*
X0371000Y0336900D01*
X0371400Y0336900D01*
X0371400Y0337300D01*
X0376000Y0337300D01*
X0376000Y0340478D01*
X0375882Y0341224D01*
X0375648Y0341943D01*
X0375305Y0342616D01*
X0374861Y0343227D01*
X0374327Y0343761D01*
X0373716Y0344205D01*
X0371400Y0344039D02*
X0371000Y0344039D01*
X0371000Y0342441D02*
X0371400Y0342441D01*
X0371400Y0340842D02*
X0371000Y0340842D01*
X0371000Y0339244D02*
X0371400Y0339244D01*
X0371400Y0337645D02*
X0371000Y0337645D01*
X0371400Y0336900D02*
X0376000Y0336900D01*
X0376000Y0333722D01*
X0375882Y0332976D01*
X0375648Y0332257D01*
X0375305Y0331584D01*
X0374861Y0330973D01*
X0374327Y0330439D01*
X0373716Y0329995D01*
X0373043Y0329652D01*
X0372324Y0329418D01*
X0371578Y0329300D01*
X0371400Y0329300D01*
X0371400Y0336900D01*
X0371400Y0336047D02*
X0371000Y0336047D01*
X0371000Y0334448D02*
X0371400Y0334448D01*
X0371400Y0332850D02*
X0371000Y0332850D01*
X0371000Y0331251D02*
X0371400Y0331251D01*
X0371400Y0329653D02*
X0371000Y0329653D01*
X0369355Y0329653D02*
X0357155Y0329653D01*
X0358498Y0331251D02*
X0367337Y0331251D01*
X0366559Y0332850D02*
X0359160Y0332850D01*
X0359200Y0334448D02*
X0366400Y0334448D01*
X0366400Y0336047D02*
X0359200Y0336047D01*
X0359200Y0337645D02*
X0366400Y0337645D01*
X0366400Y0339244D02*
X0359200Y0339244D01*
X0359200Y0340842D02*
X0366458Y0340842D01*
X0367006Y0342441D02*
X0358708Y0342441D01*
X0357663Y0344039D02*
X0368456Y0344039D01*
X0375394Y0342441D02*
X0385200Y0342441D01*
X0385200Y0340842D02*
X0375942Y0340842D01*
X0376000Y0339244D02*
X0385200Y0339244D01*
X0385200Y0337645D02*
X0376000Y0337645D01*
X0376000Y0336047D02*
X0385200Y0336047D01*
X0385200Y0334448D02*
X0376000Y0334448D01*
X0375841Y0332850D02*
X0385200Y0332850D01*
X0385200Y0331251D02*
X0375063Y0331251D01*
X0373045Y0329653D02*
X0385200Y0329653D01*
X0385200Y0328054D02*
X0260100Y0328054D01*
X0260017Y0329653D02*
X0349645Y0329653D01*
X0348302Y0331251D02*
X0259355Y0331251D01*
X0257953Y0332850D02*
X0347640Y0332850D01*
X0347600Y0334448D02*
X0258651Y0334448D01*
X0259645Y0336047D02*
X0347600Y0336047D01*
X0347600Y0337645D02*
X0260100Y0337645D01*
X0260100Y0339244D02*
X0347600Y0339244D01*
X0347600Y0340842D02*
X0259525Y0340842D01*
X0258361Y0342441D02*
X0348092Y0342441D01*
X0349137Y0344039D02*
X0255600Y0344039D01*
X0259814Y0326456D02*
X0385200Y0326456D01*
X0385200Y0318463D02*
X0373911Y0318463D01*
X0373716Y0318605D02*
X0373043Y0318948D01*
X0372324Y0319182D01*
X0371578Y0319300D01*
X0371400Y0319300D01*
X0371400Y0311700D01*
X0371000Y0311700D01*
X0371000Y0319300D01*
X0370822Y0319300D01*
X0370076Y0319182D01*
X0369357Y0318948D01*
X0368684Y0318605D01*
X0368073Y0318161D01*
X0367539Y0317627D01*
X0367095Y0317016D01*
X0366752Y0316343D01*
X0366518Y0315624D01*
X0366400Y0314878D01*
X0366400Y0311700D01*
X0371000Y0311700D01*
X0371000Y0311300D01*
X0366400Y0311300D01*
X0366400Y0308122D01*
X0366518Y0307376D01*
X0366752Y0306657D01*
X0367095Y0305984D01*
X0367539Y0305373D01*
X0368073Y0304839D01*
X0368684Y0304395D01*
X0369357Y0304052D01*
X0370076Y0303818D01*
X0370822Y0303700D01*
X0371000Y0303700D01*
X0371000Y0311300D01*
X0371400Y0311300D01*
X0371400Y0311700D01*
X0376000Y0311700D01*
X0376000Y0314878D01*
X0375882Y0315624D01*
X0375648Y0316343D01*
X0375305Y0317016D01*
X0374861Y0317627D01*
X0374327Y0318161D01*
X0373716Y0318605D01*
X0371400Y0318463D02*
X0371000Y0318463D01*
X0371000Y0316865D02*
X0371400Y0316865D01*
X0371400Y0315266D02*
X0371000Y0315266D01*
X0371000Y0313668D02*
X0371400Y0313668D01*
X0371400Y0312069D02*
X0371000Y0312069D01*
X0371400Y0311300D02*
X0376000Y0311300D01*
X0376000Y0308122D01*
X0375882Y0307376D01*
X0375648Y0306657D01*
X0375305Y0305984D01*
X0374861Y0305373D01*
X0374327Y0304839D01*
X0373716Y0304395D01*
X0373043Y0304052D01*
X0372324Y0303818D01*
X0371578Y0303700D01*
X0371400Y0303700D01*
X0371400Y0311300D01*
X0371400Y0310471D02*
X0371000Y0310471D01*
X0371000Y0308872D02*
X0371400Y0308872D01*
X0371400Y0307274D02*
X0371000Y0307274D01*
X0371000Y0305675D02*
X0371400Y0305675D01*
X0371400Y0304077D02*
X0371000Y0304077D01*
X0369308Y0304077D02*
X0357179Y0304077D01*
X0358508Y0305675D02*
X0367319Y0305675D01*
X0366551Y0307274D02*
X0359170Y0307274D01*
X0359200Y0308872D02*
X0366400Y0308872D01*
X0366400Y0310471D02*
X0359200Y0310471D01*
X0359200Y0312069D02*
X0366400Y0312069D01*
X0366400Y0313668D02*
X0359200Y0313668D01*
X0359200Y0315266D02*
X0366462Y0315266D01*
X0367018Y0316865D02*
X0358698Y0316865D01*
X0357639Y0318463D02*
X0368489Y0318463D01*
X0375382Y0316865D02*
X0385200Y0316865D01*
X0385200Y0315266D02*
X0375938Y0315266D01*
X0376000Y0313668D02*
X0385200Y0313668D01*
X0385200Y0312069D02*
X0376000Y0312069D01*
X0376000Y0310471D02*
X0385200Y0310471D01*
X0385200Y0308872D02*
X0376000Y0308872D01*
X0375849Y0307274D02*
X0385200Y0307274D01*
X0385200Y0305675D02*
X0375081Y0305675D01*
X0373092Y0304077D02*
X0385200Y0304077D01*
X0385200Y0276902D02*
X0177921Y0276902D01*
X0179519Y0275303D02*
X0385200Y0275303D01*
X0385200Y0273705D02*
X0181118Y0273705D01*
X0207297Y0254523D02*
X0211335Y0254523D01*
X0209326Y0256121D02*
X0209306Y0256121D01*
X0217297Y0254523D02*
X0221335Y0254523D01*
X0219326Y0256121D02*
X0219306Y0256121D01*
X0227297Y0254523D02*
X0231335Y0254523D01*
X0229326Y0256121D02*
X0229306Y0256121D01*
X0237297Y0254523D02*
X0241335Y0254523D01*
X0239326Y0256121D02*
X0239306Y0256121D01*
X0247297Y0254523D02*
X0261174Y0254523D01*
X0262899Y0256121D02*
X0249306Y0256121D01*
X0250273Y0257720D02*
X0264497Y0257720D01*
X0253292Y0280099D02*
X0290478Y0280099D01*
X0292300Y0263300D02*
X0353300Y0263300D01*
X0352196Y0230545D02*
X0356404Y0230545D01*
X0354717Y0228947D02*
X0353883Y0228947D01*
X0362196Y0230545D02*
X0385200Y0230545D01*
X0385200Y0228947D02*
X0363883Y0228947D01*
X0364545Y0227348D02*
X0385200Y0227348D01*
X0385200Y0225750D02*
X0377942Y0225750D01*
X0379540Y0224151D02*
X0385200Y0224151D01*
X0385200Y0222553D02*
X0381139Y0222553D01*
X0382737Y0220954D02*
X0385200Y0220954D01*
X0385200Y0219356D02*
X0383759Y0219356D01*
X0383900Y0217757D02*
X0385200Y0217757D01*
X0385200Y0216159D02*
X0383900Y0216159D01*
X0383900Y0214560D02*
X0385200Y0214560D01*
X0385200Y0212962D02*
X0383900Y0212962D01*
X0383900Y0211363D02*
X0385200Y0211363D01*
X0385200Y0209765D02*
X0383900Y0209765D01*
X0383900Y0208166D02*
X0385200Y0208166D01*
X0385200Y0206568D02*
X0383900Y0206568D01*
X0383900Y0204969D02*
X0385200Y0204969D01*
X0385200Y0203370D02*
X0383900Y0203370D01*
X0383900Y0201772D02*
X0385200Y0201772D01*
X0385200Y0200173D02*
X0383900Y0200173D01*
X0383900Y0198575D02*
X0385200Y0198575D01*
X0385200Y0196976D02*
X0383900Y0196976D01*
X0383900Y0195378D02*
X0385200Y0195378D01*
X0385200Y0193779D02*
X0383900Y0193779D01*
X0383900Y0192181D02*
X0385200Y0192181D01*
X0385200Y0190582D02*
X0383900Y0190582D01*
X0383900Y0188984D02*
X0385200Y0188984D01*
X0385200Y0187385D02*
X0383900Y0187385D01*
X0383900Y0185787D02*
X0385200Y0185787D01*
X0385200Y0184188D02*
X0383900Y0184188D01*
X0383900Y0182590D02*
X0385200Y0182590D01*
X0385200Y0180991D02*
X0383900Y0180991D01*
X0383900Y0179393D02*
X0385200Y0179393D01*
X0385200Y0177794D02*
X0383900Y0177794D01*
X0383900Y0176196D02*
X0385200Y0176196D01*
X0385200Y0174597D02*
X0383900Y0174597D01*
X0383900Y0172999D02*
X0385200Y0172999D01*
X0385200Y0171400D02*
X0383900Y0171400D01*
X0383900Y0169802D02*
X0385200Y0169802D01*
X0385200Y0168203D02*
X0383900Y0168203D01*
X0383900Y0166605D02*
X0385200Y0166605D01*
X0385200Y0165006D02*
X0383900Y0165006D01*
X0383900Y0163408D02*
X0385200Y0163408D01*
X0385200Y0161809D02*
X0383900Y0161809D01*
X0383900Y0160211D02*
X0385200Y0160211D01*
X0385200Y0158612D02*
X0383900Y0158612D01*
X0383900Y0157014D02*
X0385200Y0157014D01*
X0385200Y0155415D02*
X0383900Y0155415D01*
X0383900Y0153817D02*
X0385200Y0153817D01*
X0385200Y0152218D02*
X0383900Y0152218D01*
X0383900Y0150620D02*
X0385200Y0150620D01*
X0385200Y0149021D02*
X0383900Y0149021D01*
X0383900Y0147423D02*
X0385200Y0147423D01*
X0385200Y0145824D02*
X0383900Y0145824D01*
X0383900Y0144226D02*
X0385200Y0144226D01*
X0385200Y0142627D02*
X0383900Y0142627D01*
X0383900Y0141029D02*
X0385200Y0141029D01*
X0385200Y0139430D02*
X0383900Y0139430D01*
X0383900Y0137832D02*
X0385200Y0137832D01*
X0385200Y0136233D02*
X0383900Y0136233D01*
X0383900Y0134634D02*
X0385200Y0134634D01*
X0385200Y0133036D02*
X0383900Y0133036D01*
X0383900Y0131437D02*
X0385200Y0131437D01*
X0385200Y0129839D02*
X0383900Y0129839D01*
X0383900Y0128240D02*
X0385200Y0128240D01*
X0385200Y0126642D02*
X0383510Y0126642D01*
X0382135Y0125043D02*
X0385200Y0125043D01*
X0385200Y0123445D02*
X0380536Y0123445D01*
X0378938Y0121846D02*
X0385200Y0121846D01*
X0385200Y0120248D02*
X0377339Y0120248D01*
X0373551Y0126642D02*
X0349733Y0126642D01*
X0351332Y0128240D02*
X0375149Y0128240D01*
X0376700Y0129839D02*
X0352930Y0129839D01*
X0354529Y0131437D02*
X0363022Y0131437D01*
X0363230Y0131230D02*
X0366284Y0129965D01*
X0369591Y0129965D01*
X0372646Y0131230D01*
X0374984Y0133568D01*
X0376250Y0136623D01*
X0376250Y0139930D01*
X0374984Y0142985D01*
X0372646Y0145323D01*
X0369591Y0146588D01*
X0366284Y0146588D01*
X0363230Y0145323D01*
X0360891Y0142985D01*
X0359626Y0139930D01*
X0359626Y0136623D01*
X0360891Y0133568D01*
X0363230Y0131230D01*
X0361423Y0133036D02*
X0356127Y0133036D01*
X0357507Y0134634D02*
X0360450Y0134634D01*
X0359788Y0136233D02*
X0357900Y0136233D01*
X0357900Y0137832D02*
X0359626Y0137832D01*
X0359626Y0139430D02*
X0357900Y0139430D01*
X0357900Y0141029D02*
X0360081Y0141029D01*
X0360743Y0142627D02*
X0357900Y0142627D01*
X0357900Y0144226D02*
X0362132Y0144226D01*
X0364440Y0145824D02*
X0358915Y0145824D01*
X0360514Y0147423D02*
X0376700Y0147423D01*
X0376700Y0149021D02*
X0373369Y0149021D01*
X0374463Y0150620D02*
X0376700Y0150620D01*
X0376700Y0152218D02*
X0374789Y0152218D01*
X0374531Y0153817D02*
X0376700Y0153817D01*
X0376700Y0155415D02*
X0373533Y0155415D01*
X0370300Y0152300D02*
X0360300Y0152300D01*
X0354300Y0146300D01*
X0354300Y0136300D01*
X0344300Y0126300D01*
X0344346Y0131437D02*
X0327150Y0131437D01*
X0327800Y0133036D02*
X0345945Y0133036D01*
X0347543Y0134634D02*
X0327800Y0134634D01*
X0327535Y0136233D02*
X0349142Y0136233D01*
X0350700Y0137832D02*
X0326873Y0137832D01*
X0325362Y0139430D02*
X0350700Y0139430D01*
X0371436Y0145824D02*
X0376700Y0145824D01*
X0376700Y0144226D02*
X0373743Y0144226D01*
X0375132Y0142627D02*
X0376700Y0142627D01*
X0376700Y0141029D02*
X0375794Y0141029D01*
X0376250Y0139430D02*
X0376700Y0139430D01*
X0376700Y0137832D02*
X0376250Y0137832D01*
X0376088Y0136233D02*
X0376700Y0136233D01*
X0376700Y0134634D02*
X0375426Y0134634D01*
X0374452Y0133036D02*
X0376700Y0133036D01*
X0376700Y0131437D02*
X0372854Y0131437D01*
X0385200Y0096270D02*
X0230446Y0096270D01*
X0228154Y0096270D02*
X0220446Y0096270D01*
X0223165Y0094672D02*
X0225435Y0094672D01*
X0224355Y0093073D02*
X0224245Y0093073D01*
X0233165Y0094672D02*
X0237011Y0094672D01*
X0236994Y0094663D02*
X0236434Y0094256D01*
X0235944Y0093766D01*
X0235537Y0093206D01*
X0235222Y0092589D01*
X0235008Y0091930D01*
X0234900Y0091246D01*
X0234900Y0088300D01*
X0239300Y0088300D01*
X0243700Y0088300D01*
X0243700Y0091246D01*
X0243592Y0091930D01*
X0243378Y0092589D01*
X0243063Y0093206D01*
X0242656Y0093766D01*
X0242166Y0094256D01*
X0241606Y0094663D01*
X0240989Y0094978D01*
X0240330Y0095192D01*
X0239646Y0095300D01*
X0239300Y0095300D01*
X0239300Y0088300D01*
X0239300Y0088300D01*
X0239300Y0088300D01*
X0243700Y0088300D01*
X0243700Y0085354D01*
X0243592Y0084670D01*
X0243378Y0084011D01*
X0243063Y0083394D01*
X0242656Y0082834D01*
X0242166Y0082344D01*
X0241606Y0081937D01*
X0240989Y0081622D01*
X0240330Y0081408D01*
X0239646Y0081300D01*
X0239300Y0081300D01*
X0239300Y0088300D01*
X0239300Y0088300D01*
X0239300Y0088300D01*
X0239300Y0095300D01*
X0238954Y0095300D01*
X0238270Y0095192D01*
X0237611Y0094978D01*
X0236994Y0094663D01*
X0235469Y0093073D02*
X0234245Y0093073D01*
X0234700Y0091475D02*
X0234936Y0091475D01*
X0234900Y0089876D02*
X0234700Y0089876D01*
X0234900Y0088300D02*
X0234900Y0085354D01*
X0235008Y0084670D01*
X0235222Y0084011D01*
X0235537Y0083394D01*
X0235944Y0082834D01*
X0236434Y0082344D01*
X0236994Y0081937D01*
X0237611Y0081622D01*
X0238270Y0081408D01*
X0238954Y0081300D01*
X0239300Y0081300D01*
X0239300Y0088300D01*
X0234900Y0088300D01*
X0234900Y0088278D02*
X0234700Y0088278D01*
X0234700Y0086679D02*
X0234900Y0086679D01*
X0234943Y0085081D02*
X0234700Y0085081D01*
X0234226Y0083482D02*
X0235492Y0083482D01*
X0237098Y0081884D02*
X0233120Y0081884D01*
X0239300Y0081884D02*
X0239300Y0081884D01*
X0239300Y0083482D02*
X0239300Y0083482D01*
X0239300Y0085081D02*
X0239300Y0085081D01*
X0239300Y0086679D02*
X0239300Y0086679D01*
X0239300Y0088278D02*
X0239300Y0088278D01*
X0239300Y0089876D02*
X0239300Y0089876D01*
X0239300Y0091475D02*
X0239300Y0091475D01*
X0239300Y0093073D02*
X0239300Y0093073D01*
X0239300Y0094672D02*
X0239300Y0094672D01*
X0241589Y0094672D02*
X0385200Y0094672D01*
X0385200Y0093073D02*
X0243131Y0093073D01*
X0243664Y0091475D02*
X0385200Y0091475D01*
X0385200Y0089876D02*
X0243700Y0089876D01*
X0243700Y0088278D02*
X0385200Y0088278D01*
X0385200Y0086679D02*
X0243700Y0086679D01*
X0243657Y0085081D02*
X0385200Y0085081D01*
X0385200Y0083482D02*
X0243108Y0083482D01*
X0241502Y0081884D02*
X0385200Y0081884D01*
X0376700Y0185787D02*
X0361550Y0185787D01*
X0362359Y0186122D02*
X0360374Y0185300D01*
X0358226Y0185300D01*
X0356241Y0186122D01*
X0354722Y0187641D01*
X0354300Y0188660D01*
X0353878Y0187641D01*
X0352359Y0186122D01*
X0350374Y0185300D01*
X0348226Y0185300D01*
X0346241Y0186122D01*
X0344722Y0187641D01*
X0344300Y0188660D01*
X0343878Y0187641D01*
X0342359Y0186122D01*
X0340374Y0185300D01*
X0338226Y0185300D01*
X0336241Y0186122D01*
X0334722Y0187641D01*
X0333900Y0189626D01*
X0333900Y0196974D01*
X0334722Y0198959D01*
X0336241Y0200478D01*
X0338226Y0201300D01*
X0340374Y0201300D01*
X0342359Y0200478D01*
X0343878Y0198959D01*
X0344300Y0197940D01*
X0344722Y0198959D01*
X0346241Y0200478D01*
X0348226Y0201300D01*
X0350374Y0201300D01*
X0352359Y0200478D01*
X0353878Y0198959D01*
X0354300Y0197940D01*
X0354722Y0198959D01*
X0356241Y0200478D01*
X0358226Y0201300D01*
X0360374Y0201300D01*
X0362359Y0200478D01*
X0363878Y0198959D01*
X0364700Y0196974D01*
X0364700Y0189626D01*
X0363878Y0187641D01*
X0362359Y0186122D01*
X0363622Y0187385D02*
X0376700Y0187385D01*
X0376700Y0188984D02*
X0364434Y0188984D01*
X0364700Y0190582D02*
X0376700Y0190582D01*
X0376700Y0192181D02*
X0364700Y0192181D01*
X0364700Y0193779D02*
X0376700Y0193779D01*
X0376700Y0195378D02*
X0364700Y0195378D01*
X0364699Y0196976D02*
X0376700Y0196976D01*
X0376700Y0198575D02*
X0364037Y0198575D01*
X0362663Y0200173D02*
X0376700Y0200173D01*
X0355937Y0200173D02*
X0352663Y0200173D01*
X0354037Y0198575D02*
X0354563Y0198575D01*
X0345937Y0200173D02*
X0342663Y0200173D01*
X0344037Y0198575D02*
X0344563Y0198575D01*
X0335937Y0200173D02*
X0330386Y0200173D01*
X0330330Y0200192D02*
X0329646Y0200300D01*
X0329300Y0200300D01*
X0329300Y0193300D01*
X0329300Y0193300D01*
X0333700Y0193300D01*
X0333700Y0196246D01*
X0333592Y0196930D01*
X0333378Y0197589D01*
X0333063Y0198206D01*
X0332656Y0198766D01*
X0332166Y0199256D01*
X0331606Y0199663D01*
X0330989Y0199978D01*
X0330330Y0200192D01*
X0329300Y0200173D02*
X0329300Y0200173D01*
X0329300Y0200300D02*
X0328954Y0200300D01*
X0328270Y0200192D01*
X0327611Y0199978D01*
X0326994Y0199663D01*
X0326434Y0199256D01*
X0325944Y0198766D01*
X0325537Y0198206D01*
X0325222Y0197589D01*
X0325008Y0196930D01*
X0324900Y0196246D01*
X0324900Y0193300D01*
X0329300Y0193300D01*
X0329300Y0193300D01*
X0329300Y0193300D01*
X0329300Y0200300D01*
X0328214Y0200173D02*
X0322663Y0200173D01*
X0324037Y0198575D02*
X0325805Y0198575D01*
X0325023Y0196976D02*
X0324699Y0196976D01*
X0324700Y0195378D02*
X0324900Y0195378D01*
X0324900Y0193779D02*
X0324700Y0193779D01*
X0324900Y0193300D02*
X0324900Y0190354D01*
X0325008Y0189670D01*
X0325222Y0189011D01*
X0325537Y0188394D01*
X0325944Y0187834D01*
X0326434Y0187344D01*
X0326994Y0186937D01*
X0327611Y0186622D01*
X0328270Y0186408D01*
X0328954Y0186300D01*
X0329300Y0186300D01*
X0329646Y0186300D01*
X0330330Y0186408D01*
X0330989Y0186622D01*
X0331606Y0186937D01*
X0332166Y0187344D01*
X0332656Y0187834D01*
X0333063Y0188394D01*
X0333378Y0189011D01*
X0333592Y0189670D01*
X0333700Y0190354D01*
X0333700Y0193300D01*
X0329300Y0193300D01*
X0329300Y0186300D01*
X0329300Y0193300D01*
X0329300Y0193300D01*
X0324900Y0193300D01*
X0324900Y0192181D02*
X0324700Y0192181D01*
X0324700Y0190582D02*
X0324900Y0190582D01*
X0325236Y0188984D02*
X0324434Y0188984D01*
X0323622Y0187385D02*
X0326392Y0187385D01*
X0329300Y0187385D02*
X0329300Y0187385D01*
X0329300Y0188984D02*
X0329300Y0188984D01*
X0329300Y0190582D02*
X0329300Y0190582D01*
X0329300Y0192181D02*
X0329300Y0192181D01*
X0329300Y0193779D02*
X0329300Y0193779D01*
X0329300Y0195378D02*
X0329300Y0195378D01*
X0329300Y0196976D02*
X0329300Y0196976D01*
X0329300Y0198575D02*
X0329300Y0198575D01*
X0332795Y0198575D02*
X0334563Y0198575D01*
X0333901Y0196976D02*
X0333577Y0196976D01*
X0333700Y0195378D02*
X0333900Y0195378D01*
X0333900Y0193779D02*
X0333700Y0193779D01*
X0333700Y0192181D02*
X0333900Y0192181D01*
X0333900Y0190582D02*
X0333700Y0190582D01*
X0333364Y0188984D02*
X0334166Y0188984D01*
X0334978Y0187385D02*
X0332208Y0187385D01*
X0337050Y0185787D02*
X0321550Y0185787D01*
X0317050Y0185787D02*
X0311550Y0185787D01*
X0313622Y0187385D02*
X0314978Y0187385D01*
X0307050Y0185787D02*
X0301550Y0185787D01*
X0303622Y0187385D02*
X0304978Y0187385D01*
X0304563Y0198575D02*
X0304037Y0198575D01*
X0302663Y0200173D02*
X0305937Y0200173D01*
X0312663Y0200173D02*
X0315937Y0200173D01*
X0314563Y0198575D02*
X0314037Y0198575D01*
X0312395Y0216159D02*
X0316205Y0216159D01*
X0314674Y0217757D02*
X0313926Y0217757D01*
X0306205Y0216159D02*
X0302395Y0216159D01*
X0303926Y0217757D02*
X0304674Y0217757D01*
X0322395Y0216159D02*
X0326205Y0216159D01*
X0324674Y0217757D02*
X0323926Y0217757D01*
X0332395Y0216159D02*
X0336205Y0216159D01*
X0334674Y0217757D02*
X0333926Y0217757D01*
X0342395Y0216159D02*
X0346205Y0216159D01*
X0344674Y0217757D02*
X0343926Y0217757D01*
X0352395Y0216159D02*
X0356205Y0216159D01*
X0354674Y0217757D02*
X0353926Y0217757D01*
X0353622Y0187385D02*
X0354978Y0187385D01*
X0357050Y0185787D02*
X0351550Y0185787D01*
X0347050Y0185787D02*
X0341550Y0185787D01*
X0343622Y0187385D02*
X0344978Y0187385D01*
X0273300Y0228947D02*
X0273300Y0228947D01*
X0273300Y0230545D02*
X0273300Y0230545D01*
X0273300Y0232144D02*
X0273300Y0232144D01*
X0264300Y0212300D02*
X0251300Y0212300D01*
X0249300Y0214300D01*
X0244300Y0209300D02*
X0257300Y0209300D01*
X0262300Y0204300D01*
X0262300Y0196300D01*
X0244359Y0184300D02*
X0244300Y0184241D01*
X0224374Y0083482D02*
X0224226Y0083482D01*
X0223120Y0081884D02*
X0225480Y0081884D01*
X0114484Y0078687D02*
X0112116Y0078687D01*
X0104484Y0078687D02*
X0102116Y0078687D01*
X0086912Y0174597D02*
X0049970Y0174597D01*
X0048597Y0176196D02*
X0085313Y0176196D01*
X0083715Y0177794D02*
X0046771Y0177794D01*
X0045172Y0179393D02*
X0082116Y0179393D01*
X0080517Y0180991D02*
X0043574Y0180991D01*
X0041975Y0182590D02*
X0078919Y0182590D01*
X0077320Y0184188D02*
X0028634Y0184188D01*
X0027036Y0185787D02*
X0075722Y0185787D01*
X0074123Y0187385D02*
X0025437Y0187385D01*
X0049751Y0198575D02*
X0074677Y0198575D01*
X0043306Y0220954D02*
X0043294Y0220954D01*
X0042284Y0222553D02*
X0044316Y0222553D01*
X0111300Y0190300D02*
X0112300Y0190300D01*
X0275996Y0292887D02*
X0277596Y0292887D01*
X0277596Y0294486D02*
X0275996Y0294486D01*
X0275996Y0296084D02*
X0277596Y0296084D01*
X0277596Y0297683D02*
X0275996Y0297683D01*
X0275996Y0299281D02*
X0277596Y0299281D01*
X0277596Y0300880D02*
X0275996Y0300880D01*
D28*
X0153300Y0310457D02*
X0086457Y0310457D01*
X0080300Y0304300D01*
X0080300Y0332200D01*
X0080400Y0332300D01*
X0080300Y0304300D02*
X0066363Y0290363D01*
X0053608Y0290363D01*
X0039300Y0290363D01*
X0099300Y0126300D02*
X0114300Y0126300D01*
X0129300Y0126300D01*
X0144300Y0126300D01*
X0159300Y0126300D01*
X0174300Y0126300D01*
X0189300Y0126300D01*
X0204300Y0126300D01*
X0219300Y0126300D01*
X0234300Y0126300D01*
D29*
X0286300Y0163300D02*
X0286300Y0184300D01*
X0286300Y0204300D01*
X0280300Y0210300D01*
X0280300Y0218300D01*
X0300300Y0238300D01*
X0339300Y0238300D01*
X0329300Y0255300D02*
X0268300Y0255300D01*
X0264300Y0251300D01*
X0234316Y0260324D02*
X0226339Y0268300D01*
X0180300Y0268300D01*
X0166300Y0282300D01*
X0156300Y0282300D02*
X0141300Y0297300D01*
X0120300Y0297300D01*
X0115300Y0292300D01*
X0115300Y0285300D01*
X0153300Y0300300D02*
X0153300Y0310457D01*
X0153300Y0310300D01*
X0153300Y0300300D02*
X0161300Y0292300D01*
X0179300Y0292300D01*
X0215300Y0328300D01*
X0226300Y0328300D01*
X0226300Y0338300D02*
X0207300Y0338300D01*
X0173300Y0304300D01*
X0250300Y0285300D02*
X0290237Y0285300D01*
X0295300Y0290363D01*
X0280300Y0218300D02*
X0273300Y0218300D01*
X0197300Y0218300D01*
X0199300Y0184300D02*
X0244359Y0184300D01*
X0286300Y0184300D01*
X0053608Y0271608D02*
X0053608Y0290363D01*
X0053608Y0271608D02*
X0048300Y0266300D01*
X0042800Y0250300D02*
X0025300Y0250300D01*
X0020300Y0245300D01*
X0020300Y0186300D01*
X0027300Y0179300D01*
X0039043Y0179300D01*
X0044300Y0174043D01*
X0044300Y0171300D01*
X0048300Y0241300D02*
X0048300Y0244800D01*
X0042800Y0250300D01*
M02*
