G75*
%MOIN*%
%OFA0B0*%
%FSLAX25Y25*%
%IPPOS*%
%LPD*%
%AMOC8*
5,1,8,0,0,1.08239X$1,22.5*
%
%ADD10C,0.06800*%
%ADD11OC8,0.06000*%
%ADD12C,0.06000*%
%ADD13C,0.08600*%
%ADD14R,0.07400X0.07400*%
%ADD15C,0.07400*%
%ADD16R,0.07099X0.05918*%
%ADD17C,0.06000*%
%ADD18OC8,0.07100*%
%ADD19C,0.07100*%
%ADD20C,0.17800*%
%ADD21R,0.08200X0.08200*%
%ADD22C,0.08200*%
%ADD23C,0.11824*%
%ADD24C,0.08400*%
%ADD25R,0.08400X0.08400*%
%ADD26OC8,0.07000*%
%ADD27C,0.07000*%
%ADD28R,0.04737X0.07099*%
%ADD29R,0.22060X0.25209*%
%ADD30R,0.05918X0.07099*%
%ADD31C,0.10800*%
D10*
X0098300Y0068300D02*
X0098300Y0074300D01*
X0108300Y0074300D02*
X0108300Y0068300D01*
X0118300Y0068300D02*
X0118300Y0074300D01*
X0156300Y0279300D02*
X0156300Y0285300D01*
X0166300Y0285300D02*
X0166300Y0279300D01*
X0223300Y0318300D02*
X0229300Y0318300D01*
X0229300Y0328300D02*
X0223300Y0328300D01*
X0223300Y0338300D02*
X0229300Y0338300D01*
X0248300Y0338300D02*
X0254300Y0338300D01*
X0254300Y0328300D02*
X0248300Y0328300D01*
X0248300Y0318300D02*
X0254300Y0318300D01*
X0353400Y0314500D02*
X0353400Y0308500D01*
X0371200Y0308500D02*
X0371200Y0314500D01*
X0371200Y0334100D02*
X0371200Y0340100D01*
X0353400Y0340100D02*
X0353400Y0334100D01*
D11*
X0234300Y0176300D03*
X0219300Y0176300D03*
X0204300Y0176300D03*
X0189300Y0176300D03*
X0174300Y0176300D03*
X0159300Y0176300D03*
X0144300Y0176300D03*
X0129300Y0176300D03*
X0114300Y0176300D03*
X0099300Y0176300D03*
X0099300Y0126300D03*
X0114300Y0126300D03*
X0129300Y0126300D03*
X0144300Y0126300D03*
X0159300Y0126300D03*
X0174300Y0126300D03*
X0189300Y0126300D03*
X0204300Y0126300D03*
X0219300Y0126300D03*
X0234300Y0126300D03*
D12*
X0229300Y0090900D02*
X0229300Y0085700D01*
X0219300Y0085700D02*
X0219300Y0090900D01*
X0239300Y0090900D02*
X0239300Y0085700D01*
X0299300Y0190700D02*
X0299300Y0195900D01*
X0309300Y0195900D02*
X0309300Y0190700D01*
X0319300Y0190700D02*
X0319300Y0195900D01*
X0329300Y0195900D02*
X0329300Y0190700D01*
X0339300Y0190700D02*
X0339300Y0195900D01*
X0349300Y0195900D02*
X0349300Y0190700D01*
X0359300Y0190700D02*
X0359300Y0195900D01*
X0359300Y0220700D02*
X0359300Y0225900D01*
X0349300Y0225900D02*
X0349300Y0220700D01*
X0339300Y0220700D02*
X0339300Y0225900D01*
X0329300Y0225900D02*
X0329300Y0220700D01*
X0319300Y0220700D02*
X0319300Y0225900D01*
X0309300Y0225900D02*
X0309300Y0220700D01*
X0299300Y0220700D02*
X0299300Y0225900D01*
X0135300Y0282700D02*
X0135300Y0287900D01*
X0125300Y0287900D02*
X0125300Y0282700D01*
X0115300Y0282700D02*
X0115300Y0287900D01*
X0048300Y0268900D02*
X0048300Y0263700D01*
X0038300Y0263700D02*
X0038300Y0268900D01*
X0028300Y0268900D02*
X0028300Y0263700D01*
X0028300Y0243900D02*
X0028300Y0238700D01*
X0038300Y0238700D02*
X0038300Y0243900D01*
X0048300Y0243900D02*
X0048300Y0238700D01*
X0048300Y0218900D02*
X0048300Y0213700D01*
X0038300Y0213700D02*
X0038300Y0218900D01*
X0028300Y0218900D02*
X0028300Y0213700D01*
D13*
X0080400Y0328400D02*
X0080400Y0336200D01*
X0100200Y0336200D02*
X0100200Y0328400D01*
D14*
X0254300Y0226300D03*
D15*
X0244300Y0226300D03*
X0234300Y0226300D03*
X0224300Y0226300D03*
X0214300Y0226300D03*
X0204300Y0226300D03*
X0194300Y0226300D03*
X0184300Y0226300D03*
X0174300Y0226300D03*
X0164300Y0226300D03*
X0154300Y0226300D03*
X0144300Y0226300D03*
X0134300Y0226300D03*
X0124300Y0226300D03*
X0124300Y0196300D03*
X0134300Y0196300D03*
X0144300Y0196300D03*
X0154300Y0196300D03*
X0164300Y0196300D03*
X0174300Y0196300D03*
X0184300Y0196300D03*
X0194300Y0196300D03*
X0204300Y0196300D03*
X0214300Y0196300D03*
X0224300Y0196300D03*
X0234300Y0196300D03*
X0244300Y0196300D03*
X0254300Y0196300D03*
D16*
X0295300Y0171300D03*
X0295300Y0163820D03*
X0305300Y0163300D03*
X0305300Y0171174D03*
X0352300Y0242820D03*
X0352300Y0250300D03*
X0278300Y0262800D03*
X0278300Y0270280D03*
X0268400Y0270200D03*
X0268400Y0262720D03*
X0255300Y0250674D03*
X0255300Y0242800D03*
X0244300Y0243320D03*
X0244300Y0250800D03*
X0198300Y0250674D03*
X0198300Y0242800D03*
X0182400Y0280700D03*
X0182400Y0288574D03*
X0141300Y0250674D03*
X0141300Y0242800D03*
X0114300Y0242926D03*
X0114300Y0250800D03*
X0104300Y0250300D03*
X0104300Y0242820D03*
X0074300Y0226237D03*
X0074300Y0218363D03*
D17*
X0160800Y0242300D03*
X0179800Y0242300D03*
D18*
X0223300Y0295300D03*
X0250300Y0295300D03*
X0273300Y0228300D03*
D19*
X0273300Y0218300D03*
X0250300Y0285300D03*
X0223300Y0285300D03*
D20*
X0276796Y0302174D03*
X0295300Y0290363D03*
X0295300Y0313985D03*
X0039300Y0313985D03*
X0020796Y0302174D03*
X0039300Y0290363D03*
D21*
X0094316Y0260324D03*
D22*
X0104316Y0260324D03*
X0114316Y0260324D03*
X0124316Y0260324D03*
X0134316Y0260324D03*
X0144316Y0260324D03*
X0154316Y0260324D03*
X0164316Y0260324D03*
X0174316Y0260324D03*
X0184316Y0260324D03*
X0194316Y0260324D03*
X0204316Y0260324D03*
X0214316Y0260324D03*
X0224316Y0260324D03*
X0234316Y0260324D03*
X0244316Y0260324D03*
X0271300Y0134300D03*
X0281300Y0134300D03*
X0291300Y0134300D03*
X0301300Y0134300D03*
X0311300Y0134300D03*
X0321300Y0134300D03*
X0044300Y0131300D03*
X0044300Y0141300D03*
X0044300Y0151300D03*
X0044300Y0161300D03*
X0044300Y0171300D03*
X0034300Y0171300D03*
X0034300Y0161300D03*
X0034300Y0151300D03*
X0034300Y0141300D03*
X0034300Y0131300D03*
D23*
X0072662Y0138276D03*
X0072662Y0260324D03*
X0367938Y0260324D03*
X0367938Y0138276D03*
D24*
X0153300Y0330143D03*
D25*
X0153300Y0310457D03*
D26*
X0076300Y0168300D03*
D27*
X0076300Y0158300D03*
D28*
X0182324Y0304402D03*
X0200276Y0304402D03*
X0321324Y0304402D03*
X0339276Y0304402D03*
D29*
X0330300Y0333143D03*
X0191300Y0333143D03*
D30*
X0168237Y0186300D03*
X0160363Y0186300D03*
D31*
X0058300Y0054800D03*
X0158300Y0054800D03*
M02*
