G75*
%MOIN*%
%OFA0B0*%
%FSLAX25Y25*%
%IPPOS*%
%LPD*%
%AMOC8*
5,1,8,0,0,1.08239X$1,22.5*
%
%ADD10C,0.06800*%
%ADD11OC8,0.06000*%
%ADD12C,0.06000*%
%ADD13C,0.08600*%
%ADD14R,0.07400X0.07400*%
%ADD15C,0.07400*%
%ADD16R,0.07099X0.05918*%
%ADD17C,0.06000*%
%ADD18OC8,0.07100*%
%ADD19C,0.07100*%
%ADD20C,0.17800*%
%ADD21R,0.08200X0.08200*%
%ADD22C,0.08200*%
%ADD23C,0.11824*%
%ADD24C,0.08400*%
%ADD25R,0.08400X0.08400*%
%ADD26OC8,0.07000*%
%ADD27C,0.07000*%
%ADD28R,0.04737X0.07099*%
%ADD29R,0.22060X0.25209*%
%ADD30R,0.05918X0.07099*%
%ADD31C,0.10800*%
D10*
X0065800Y0100800D02*
X0071800Y0100800D01*
X0071800Y0110800D02*
X0065800Y0110800D01*
X0065800Y0120800D02*
X0071800Y0120800D01*
X0243800Y0176800D02*
X0243800Y0182800D01*
X0253800Y0182800D02*
X0253800Y0176800D01*
X0310800Y0215800D02*
X0316800Y0215800D01*
X0335800Y0215800D02*
X0341800Y0215800D01*
X0341800Y0225800D02*
X0335800Y0225800D01*
X0335800Y0235800D02*
X0341800Y0235800D01*
X0316800Y0235800D02*
X0310800Y0235800D01*
X0310800Y0225800D02*
X0316800Y0225800D01*
X0410000Y0210700D02*
X0416000Y0210700D01*
X0435600Y0210700D02*
X0441600Y0210700D01*
X0441600Y0192900D02*
X0435600Y0192900D01*
X0416000Y0192900D02*
X0410000Y0192900D01*
D11*
X0321800Y0074800D03*
X0306800Y0074800D03*
X0291800Y0074800D03*
X0276800Y0074800D03*
X0261800Y0074800D03*
X0246800Y0074800D03*
X0231800Y0074800D03*
X0216800Y0074800D03*
X0201800Y0074800D03*
X0186800Y0074800D03*
X0186800Y0024800D03*
X0201800Y0024800D03*
X0216800Y0024800D03*
X0231800Y0024800D03*
X0246800Y0024800D03*
X0261800Y0024800D03*
X0276800Y0024800D03*
X0291800Y0024800D03*
X0306800Y0024800D03*
X0321800Y0024800D03*
D12*
X0386800Y0088200D02*
X0386800Y0093400D01*
X0396800Y0093400D02*
X0396800Y0088200D01*
X0406800Y0088200D02*
X0406800Y0093400D01*
X0416800Y0093400D02*
X0416800Y0088200D01*
X0426800Y0088200D02*
X0426800Y0093400D01*
X0436800Y0093400D02*
X0436800Y0088200D01*
X0446800Y0088200D02*
X0446800Y0093400D01*
X0446800Y0118200D02*
X0446800Y0123400D01*
X0436800Y0123400D02*
X0436800Y0118200D01*
X0426800Y0118200D02*
X0426800Y0123400D01*
X0416800Y0123400D02*
X0416800Y0118200D01*
X0406800Y0118200D02*
X0406800Y0123400D01*
X0396800Y0123400D02*
X0396800Y0118200D01*
X0386800Y0118200D02*
X0386800Y0123400D01*
X0475200Y0138800D02*
X0480400Y0138800D01*
X0480400Y0148800D02*
X0475200Y0148800D01*
X0475200Y0158800D02*
X0480400Y0158800D01*
X0222800Y0180200D02*
X0222800Y0185400D01*
X0212800Y0185400D02*
X0212800Y0180200D01*
X0202800Y0180200D02*
X0202800Y0185400D01*
X0135800Y0166400D02*
X0135800Y0161200D01*
X0125800Y0161200D02*
X0125800Y0166400D01*
X0115800Y0166400D02*
X0115800Y0161200D01*
X0115800Y0141400D02*
X0115800Y0136200D01*
X0125800Y0136200D02*
X0125800Y0141400D01*
X0135800Y0141400D02*
X0135800Y0136200D01*
X0135800Y0116400D02*
X0135800Y0111200D01*
X0125800Y0111200D02*
X0125800Y0116400D01*
X0115800Y0116400D02*
X0115800Y0111200D01*
D13*
X0186900Y0220900D02*
X0186900Y0228700D01*
X0206700Y0228700D02*
X0206700Y0220900D01*
D14*
X0341800Y0123800D03*
D15*
X0331800Y0123800D03*
X0321800Y0123800D03*
X0311800Y0123800D03*
X0301800Y0123800D03*
X0291800Y0123800D03*
X0281800Y0123800D03*
X0271800Y0123800D03*
X0261800Y0123800D03*
X0251800Y0123800D03*
X0241800Y0123800D03*
X0231800Y0123800D03*
X0221800Y0123800D03*
X0211800Y0123800D03*
X0211800Y0093800D03*
X0221800Y0093800D03*
X0231800Y0093800D03*
X0241800Y0093800D03*
X0251800Y0093800D03*
X0261800Y0093800D03*
X0271800Y0093800D03*
X0281800Y0093800D03*
X0291800Y0093800D03*
X0301800Y0093800D03*
X0311800Y0093800D03*
X0321800Y0093800D03*
X0331800Y0093800D03*
X0341800Y0093800D03*
D16*
X0382800Y0068800D03*
X0392800Y0068674D03*
X0392800Y0060800D03*
X0382800Y0061320D03*
X0342800Y0140300D03*
X0331800Y0140820D03*
X0331800Y0148300D03*
X0342800Y0148174D03*
X0355900Y0160220D03*
X0365800Y0160300D03*
X0365800Y0167780D03*
X0355900Y0167700D03*
X0286800Y0148174D03*
X0286800Y0140300D03*
X0228800Y0140300D03*
X0228800Y0148174D03*
X0201800Y0148300D03*
X0191800Y0147800D03*
X0191800Y0140320D03*
X0201800Y0140426D03*
X0153800Y0123737D03*
X0153800Y0115863D03*
X0269900Y0178200D03*
X0269900Y0186074D03*
X0439800Y0147800D03*
X0439800Y0140320D03*
D17*
X0267300Y0139800D03*
X0248300Y0139800D03*
D18*
X0360800Y0125800D03*
X0337800Y0192800D03*
X0310800Y0192800D03*
D19*
X0310800Y0182800D03*
X0337800Y0182800D03*
X0360800Y0115800D03*
D20*
X0382800Y0187863D03*
X0364296Y0199674D03*
X0382800Y0211485D03*
X0151800Y0211485D03*
X0133296Y0199674D03*
X0151800Y0187863D03*
D21*
X0181816Y0157824D03*
D22*
X0121800Y0028800D03*
X0131800Y0028800D03*
X0131800Y0038800D03*
X0121800Y0038800D03*
X0121800Y0048800D03*
X0131800Y0048800D03*
X0131800Y0058800D03*
X0121800Y0058800D03*
X0121800Y0068800D03*
X0131800Y0068800D03*
X0191816Y0157824D03*
X0201816Y0157824D03*
X0211816Y0157824D03*
X0221816Y0157824D03*
X0231816Y0157824D03*
X0241816Y0157824D03*
X0251816Y0157824D03*
X0261816Y0157824D03*
X0271816Y0157824D03*
X0281816Y0157824D03*
X0291816Y0157824D03*
X0301816Y0157824D03*
X0311816Y0157824D03*
X0321816Y0157824D03*
X0331816Y0157824D03*
X0358800Y0031800D03*
X0368800Y0031800D03*
X0378800Y0031800D03*
X0388800Y0031800D03*
X0398800Y0031800D03*
X0408800Y0031800D03*
D23*
X0455438Y0035776D03*
X0455438Y0157824D03*
X0160162Y0157824D03*
X0160162Y0035776D03*
D24*
X0240800Y0227643D03*
D25*
X0240800Y0207957D03*
D26*
X0172800Y0120800D03*
D27*
X0172800Y0110800D03*
D28*
X0269824Y0201902D03*
X0287776Y0201902D03*
X0453824Y0201902D03*
X0471776Y0201902D03*
D29*
X0462800Y0230643D03*
X0278800Y0230643D03*
D30*
X0255737Y0083800D03*
X0247863Y0083800D03*
D31*
X0052300Y0060800D03*
X0052300Y0160800D03*
M02*
