%
M48
M72
T01C0.01378
T02C0.03200
T03C0.03543
T04C0.04000
T05C0.04400
T06C0.05200
T07C0.10000
T08C0.11024
T09C0.11800
%
T01
X135841Y91800
X108800Y99800
X164800Y99800
X164800Y104800
X196800Y99800
X271800Y108300
X286800Y81800
X331800Y106800
X351800Y109800
X349800Y93800
X373800Y60800
X368800Y48800
X349800Y39800
X421800Y14800
X457800Y49800
X427800Y135800
X416800Y152800
X365800Y147800
X351800Y148800
X365800Y136800
X260800Y201800
T02
X222800Y182800
X212800Y182800
X202800Y182800
X135800Y163800
X125800Y163800
X115800Y163800
X115800Y138800
X125800Y138800
X135800Y138800
X172800Y120800
X172800Y110800
X135800Y113800
X125800Y113800
X115800Y113800
X186800Y74800
X201800Y74800
X216800Y74800
X231800Y74800
X246800Y74800
X261800Y74800
X276800Y74800
X291800Y74800
X306800Y74800
X321800Y74800
X386800Y90800
X396800Y90800
X406800Y90800
X416800Y90800
X426800Y90800
X436800Y90800
X446800Y90800
X446800Y120800
X436800Y120800
X426800Y120800
X416800Y120800
X406800Y120800
X396800Y120800
X386800Y120800
X360800Y115800
X360800Y125800
X267300Y139800
X248300Y139800
X310800Y182800
X310800Y192800
X337800Y192800
X337800Y182800
X477800Y158800
X477800Y148800
X477800Y138800
X321800Y24800
X306800Y24800
X291800Y24800
X276800Y24800
X261800Y24800
X246800Y24800
X231800Y24800
X216800Y24800
X201800Y24800
X186800Y24800
T03
X240800Y207957
X240800Y227643
T04
X121800Y28800
X131800Y28800
X131800Y38800
X121800Y38800
X121800Y48800
X131800Y48800
X131800Y58800
X121800Y58800
X121800Y68800
X131800Y68800
X68800Y100800
X68800Y110800
X68800Y120800
X181816Y157824
X191816Y157824
X201816Y157824
X211816Y157824
X221816Y157824
X231816Y157824
X241816Y157824
X251816Y157824
X261816Y157824
X271816Y157824
X281816Y157824
X291816Y157824
X301816Y157824
X311816Y157824
X321816Y157824
X331816Y157824
X253800Y179800
X243800Y179800
X313800Y215800
X313800Y225800
X313800Y235800
X338800Y235800
X338800Y225800
X338800Y215800
X413000Y210700
X438600Y210700
X438600Y192900
X413000Y192900
X408800Y31800
X398800Y31800
X388800Y31800
X378800Y31800
X368800Y31800
X358800Y31800
T05
X341800Y93800
X331800Y93800
X321800Y93800
X311800Y93800
X301800Y93800
X291800Y93800
X281800Y93800
X271800Y93800
X261800Y93800
X251800Y93800
X241800Y93800
X231800Y93800
X221800Y93800
X211800Y93800
X211800Y123800
X221800Y123800
X231800Y123800
X241800Y123800
X251800Y123800
X261800Y123800
X271800Y123800
X281800Y123800
X291800Y123800
X301800Y123800
X311800Y123800
X321800Y123800
X331800Y123800
X341800Y123800
T06
X206700Y224800
X186900Y224800
T07
X52300Y160800
X52300Y60800
T08
X160162Y35776
X160162Y157824
X455438Y157824
X455438Y35776
T09
X382800Y187863
X364296Y199674
X382800Y211485
X151800Y211485
X133296Y199674
X151800Y187863
M30
